<svg width="32" height="32" viewBox="0 0 32 32" fill="none" xmlns="http://www.w3.org/2000/svg">
<path d="M16 5.33301C13.1054 5.33301 12.7414 5.34634 11.604 5.39701C10.4667 5.45034 9.69204 5.62901 9.01337 5.89301C8.30117 6.16011 7.65623 6.58021 7.12404 7.12367C6.58057 7.65586 6.16047 8.3008 5.89337 9.01301C5.62937 9.69034 5.44937 10.4663 5.39737 11.5997C5.34671 12.7397 5.33337 13.1023 5.33337 16.001C5.33337 18.897 5.34671 19.2597 5.39737 20.397C5.45071 21.533 5.62937 22.3077 5.89337 22.9863C6.16671 23.6877 6.53071 24.2823 7.12404 24.8757C7.71604 25.469 8.31071 25.8343 9.01204 26.1063C9.69204 26.3703 10.4654 26.5503 11.6014 26.6023C12.74 26.653 13.1027 26.6663 16 26.6663C18.8974 26.6663 19.2587 26.653 20.3974 26.6023C21.532 26.549 22.3094 26.3703 22.988 26.1063C23.6998 25.8391 24.3442 25.419 24.876 24.8757C25.4694 24.2823 25.8334 23.6877 26.1067 22.9863C26.3694 22.3077 26.5494 21.533 26.6027 20.397C26.6534 19.2597 26.6667 18.897 26.6667 15.9997C26.6667 13.1023 26.6534 12.7397 26.6027 11.601C26.5494 10.4663 26.3694 9.69034 26.1067 9.01301C25.8396 8.3008 25.4195 7.65586 24.876 7.12367C24.3439 6.58021 23.6989 6.16011 22.9867 5.89301C22.3067 5.62901 21.5307 5.44901 20.396 5.39701C19.2574 5.34634 18.896 5.33301 15.9974 5.33301H16ZM15.044 7.25567H16.0014C18.8494 7.25567 19.1867 7.26501 20.3107 7.31701C21.3507 7.36367 21.916 7.53834 22.292 7.68367C22.7894 7.87701 23.1454 8.10901 23.5187 8.48234C23.892 8.85567 24.1227 9.21034 24.316 9.70901C24.4627 10.0837 24.636 10.649 24.6827 11.689C24.7347 12.813 24.7454 13.1503 24.7454 15.997C24.7454 18.8437 24.7347 19.1823 24.6827 20.3063C24.636 21.3463 24.4614 21.9103 24.316 22.2863C24.1438 22.7489 23.871 23.1674 23.5174 23.5117C23.144 23.885 22.7894 24.1157 22.2907 24.309C21.9174 24.4557 21.352 24.629 20.3107 24.677C19.1867 24.7277 18.8494 24.7397 16.0014 24.7397C13.1534 24.7397 12.8147 24.7277 11.6907 24.677C10.6507 24.629 10.0867 24.4557 9.71071 24.309C9.24782 24.1373 8.82884 23.865 8.48404 23.5117C8.12974 23.1671 7.85648 22.7481 7.68404 22.285C7.53871 21.9103 7.36404 21.345 7.31737 20.305C7.26671 19.181 7.25604 18.8437 7.25604 15.9943C7.25604 13.145 7.26671 12.8103 7.31737 11.6863C7.36537 10.6463 7.53871 10.081 7.68537 9.70501C7.87871 9.20767 8.11071 8.85167 8.48404 8.47834C8.85737 8.10501 9.21204 7.87434 9.71071 7.68101C10.0867 7.53434 10.6507 7.36101 11.6907 7.31301C12.6747 7.26767 13.056 7.25434 15.044 7.25301V7.25567ZM21.6947 9.02634C21.5266 9.02634 21.3602 9.05945 21.2049 9.12378C21.0496 9.1881 20.9085 9.28239 20.7896 9.40124C20.6708 9.5201 20.5765 9.66121 20.5121 9.81651C20.4478 9.9718 20.4147 10.1382 20.4147 10.3063C20.4147 10.4744 20.4478 10.6409 20.5121 10.7962C20.5765 10.9515 20.6708 11.0926 20.7896 11.2114C20.9085 11.3303 21.0496 11.4246 21.2049 11.4889C21.3602 11.5532 21.5266 11.5863 21.6947 11.5863C22.0342 11.5863 22.3598 11.4515 22.5998 11.2114C22.8398 10.9714 22.9747 10.6458 22.9747 10.3063C22.9747 9.96686 22.8398 9.64129 22.5998 9.40124C22.3598 9.1612 22.0342 9.02634 21.6947 9.02634ZM16.0014 10.5223C15.2748 10.511 14.5532 10.6443 13.8787 10.9145C13.2041 11.1847 12.5901 11.5864 12.0722 12.0962C11.5544 12.606 11.1432 13.2138 10.8625 13.884C10.5818 14.5543 10.4372 15.2737 10.4372 16.0003C10.4372 16.727 10.5818 17.4464 10.8625 18.1167C11.1432 18.7869 11.5544 19.3946 12.0722 19.9044C12.5901 20.4142 13.2041 20.8159 13.8787 21.0862C14.5532 21.3564 15.2748 21.4897 16.0014 21.4783C17.4394 21.4559 18.811 20.8689 19.82 19.844C20.829 18.8191 21.3946 17.4386 21.3946 16.0003C21.3946 14.5621 20.829 13.1816 19.82 12.1567C18.811 11.1318 17.4394 10.5448 16.0014 10.5223ZM16.0014 12.4437C16.4684 12.4437 16.9308 12.5357 17.3622 12.7144C17.7936 12.8931 18.1856 13.155 18.5158 13.4852C18.8461 13.8154 19.108 14.2074 19.2867 14.6389C19.4654 15.0703 19.5574 15.5327 19.5574 15.9997C19.5574 16.4667 19.4654 16.9291 19.2867 17.3605C19.108 17.7919 18.8461 18.1839 18.5158 18.5141C18.1856 18.8444 17.7936 19.1063 17.3622 19.285C16.9308 19.4637 16.4684 19.5557 16.0014 19.5557C15.0583 19.5557 14.1538 19.181 13.4869 18.5141C12.82 17.8473 12.4454 16.9428 12.4454 15.9997C12.4454 15.0566 12.82 14.1521 13.4869 13.4852C14.1538 12.8183 15.0583 12.4437 16.0014 12.4437Z" fill="white"/>
</svg>
