<svg width="14" height="12" viewBox="0 0 14 12" fill="none" xmlns="http://www.w3.org/2000/svg">
<path fill-rule="evenodd" clip-rule="evenodd" d="M1.11503 1.44755C0.333984 2.2286 0.333984 3.48568 0.333984 5.99984C0.333984 8.51399 0.333984 9.77107 1.11503 10.5521C1.89608 11.3332 3.15316 11.3332 5.66732 11.3332H8.33398C10.8481 11.3332 12.1052 11.3332 12.8863 10.5521C13.6673 9.77107 13.6673 8.51399 13.6673 5.99984C13.6673 3.48568 13.6673 2.2286 12.8863 1.44755C12.1052 0.666504 10.8481 0.666504 8.33398 0.666504H5.66732C3.15316 0.666504 1.89608 0.666504 1.11503 1.44755ZM11.3848 3.01308C11.5615 3.22522 11.5329 3.5405 11.3207 3.71728L9.85642 4.93755C9.26551 5.42999 8.78658 5.82912 8.36387 6.10099C7.92354 6.38419 7.4947 6.56309 7.00065 6.56309C6.5066 6.56309 6.07777 6.38419 5.63744 6.10099C5.21473 5.82912 4.73579 5.42999 4.14489 4.93756L2.68056 3.71728C2.46842 3.5405 2.43976 3.22522 2.61654 3.01308C2.79332 2.80094 3.1086 2.77228 3.32074 2.94906L4.76001 4.14845C5.38198 4.66676 5.8138 5.02545 6.17837 5.25992C6.53128 5.4869 6.7706 5.56309 7.00065 5.56309C7.2307 5.56309 7.47002 5.4869 7.82293 5.25992C8.1875 5.02545 8.61932 4.66676 9.2413 4.14845L10.6806 2.94906C10.8927 2.77228 11.208 2.80094 11.3848 3.01308Z" fill="#505050"/>
</svg>
