<svg width="24" height="24" viewBox="0 0 24 24" fill="none" xmlns="http://www.w3.org/2000/svg">
<path d="M7.60044 20H4.29088V9.32198H7.60044V20ZM5.943 7.86519C5.56091 7.86769 5.18667 7.75661 4.86768 7.54602C4.5487 7.33542 4.29931 7.03479 4.15111 6.68219C4.00291 6.32959 3.96257 5.94089 4.03518 5.56532C4.1078 5.18975 4.29012 4.8442 4.55904 4.57244C4.82796 4.30068 5.17139 4.11494 5.54583 4.03873C5.92027 3.96253 6.30888 3.99929 6.66243 4.14437C7.01599 4.28945 7.31858 4.53631 7.5319 4.85369C7.74521 5.17108 7.85965 5.5447 7.86071 5.92724C7.86108 6.43822 7.65972 6.92864 7.30052 7.29164C6.94131 7.65463 6.45336 7.86079 5.943 7.86519ZM19.9967 20H16.6918V14.8019C16.6918 13.5631 16.6665 11.9743 14.9698 11.9743C13.2477 11.9743 12.9841 13.3205 12.9841 14.7126V20H9.67525V9.32198H12.8517V10.7788H12.8983C13.216 10.2344 13.6752 9.78657 14.2271 9.48295C14.779 9.17934 15.4028 9.03135 16.0321 9.05474C19.3836 9.05408 20 11.2639 20 14.1342V19.9987L19.9967 20Z" fill="white"/>
</svg>
