<svg width="16" height="16" viewBox="0 0 16 16" fill="none" xmlns="http://www.w3.org/2000/svg">
<g id="icon / contact / location">
<path id="Vector" fill-rule="evenodd" clip-rule="evenodd" d="M3.33301 6.34309C3.33301 3.94447 5.42235 2 7.99967 2C10.577 2 12.6663 3.94447 12.6663 6.34309C12.6663 8.72292 11.1769 12.8333 8.85305 13.8264C8.31132 14.0579 7.68802 14.0579 7.1463 13.8264C4.82245 12.8333 3.33301 8.72292 3.33301 6.34309ZM7.99967 8C8.73605 8 9.33301 7.40305 9.33301 6.66667C9.33301 5.93029 8.73605 5.33333 7.99967 5.33333C7.26329 5.33333 6.66634 5.93029 6.66634 6.66667C6.66634 7.40305 7.26329 8 7.99967 8Z" fill="white"/>
</g>
</svg>
