<svg width="10" height="12" viewBox="0 0 10 12" fill="none" xmlns="http://www.w3.org/2000/svg">
<path fill-rule="evenodd" clip-rule="evenodd" d="M0.333984 4.34309C0.333984 1.94447 2.42332 0 5.00065 0C7.57798 0 9.66732 1.94447 9.66732 4.34309C9.66732 6.72292 8.17788 10.8333 5.85403 11.8264C5.3123 12.0579 4.689 12.0579 4.14727 11.8264C1.82342 10.8333 0.333984 6.72292 0.333984 4.34309ZM5.00065 6C5.73703 6 6.33398 5.40305 6.33398 4.66667C6.33398 3.93029 5.73703 3.33333 5.00065 3.33333C4.26427 3.33333 3.66732 3.93029 3.66732 4.66667C3.66732 5.40305 4.26427 6 5.00065 6Z" fill="#505050"/>
</svg>
