<svg width="16" height="16" viewBox="0 0 16 16" fill="none" xmlns="http://www.w3.org/2000/svg">
<g id="icon / contact / phone 1">
<path id="Vector" d="M10.3708 9.27078L10.0671 9.57268C10.0671 9.57268 9.34542 10.2903 7.37541 8.33149C5.40541 6.37267 6.12714 5.65505 6.12714 5.65505L6.31835 5.46492C6.78938 4.99656 6.83379 4.24461 6.42283 3.69566L5.58217 2.57272C5.07352 1.89328 4.09064 1.80352 3.50763 2.38322L2.46123 3.42368C2.17215 3.71112 1.97843 4.08373 2.00193 4.49707C2.06202 5.55455 2.54048 7.82977 5.21024 10.4844C8.04143 13.2995 10.6979 13.4114 11.7842 13.3101C12.1278 13.2781 12.4266 13.1031 12.6674 12.8636L13.6144 11.922C14.2537 11.2863 14.0735 10.1966 13.2556 9.75199L11.9819 9.05961C11.4448 8.76766 10.7905 8.85342 10.3708 9.27078Z" fill="white"/>
</g>
</svg>
