<svg width="12" height="12" viewBox="0 0 12 12" fill="none" xmlns="http://www.w3.org/2000/svg">
<path d="M8.37077 7.27078L8.06714 7.57268C8.06714 7.57268 7.34542 8.29031 5.37541 6.33149C3.40541 4.37267 4.12714 3.65505 4.12714 3.65505L4.31835 3.46492C4.78938 2.99656 4.83379 2.24461 4.42283 1.69566L3.58217 0.572721C3.07352 -0.106722 2.09064 -0.196477 1.50763 0.383219L0.461233 1.42368C0.172153 1.71112 -0.0215655 2.08373 0.00192505 2.49707C0.0620233 3.55455 0.540477 5.82977 3.21024 8.48438C6.04143 11.2995 8.69789 11.4114 9.78418 11.3101C10.1278 11.2781 10.4266 11.1031 10.6674 10.8636L11.6144 9.92198C12.2537 9.28635 12.0735 8.19662 11.2556 7.75199L9.98188 7.05961C9.44483 6.76766 8.79051 6.85342 8.37077 7.27078Z" fill="#505050"/>
</svg>
