<svg width="118" height="168" viewBox="0 0 118 168" fill="none" xmlns="http://www.w3.org/2000/svg">
<rect x="0.5" y="0.5" width="117" height="167" stroke="#2D2D2D"/>
<rect x="4.25" y="4.25" width="109.5" height="159.5" stroke="#2D2D2D" stroke-width="0.5"/>
<path d="M4 84L114 84" stroke="#2D2D2D"/>
<rect x="6.25" y="72.25" width="15.5" height="8.5" stroke="#2D2D2D" stroke-width="0.5"/>
<rect x="24.25" y="72.25" width="15.5" height="8.5" stroke="#2D2D2D" stroke-width="0.5"/>
<rect x="42.25" y="72.25" width="15.5" height="8.5" stroke="#2D2D2D" stroke-width="0.5"/>
<rect x="60.25" y="72.25" width="15.5" height="8.5" stroke="#2D2D2D" stroke-width="0.5"/>
<rect x="78.25" y="72.25" width="15.5" height="8.5" stroke="#2D2D2D" stroke-width="0.5"/>
<rect x="96.25" y="72.25" width="15.5" height="8.5" stroke="#2D2D2D" stroke-width="0.5"/>
<rect x="6.25" y="61.25" width="15.5" height="8.5" stroke="#2D2D2D" stroke-width="0.5"/>
<rect x="24.25" y="61.25" width="15.5" height="8.5" stroke="#2D2D2D" stroke-width="0.5"/>
<rect x="42.25" y="61.25" width="15.5" height="8.5" stroke="#2D2D2D" stroke-width="0.5"/>
<rect x="60.25" y="61.25" width="15.5" height="8.5" stroke="#2D2D2D" stroke-width="0.5"/>
<rect x="78.25" y="61.25" width="15.5" height="8.5" stroke="#2D2D2D" stroke-width="0.5"/>
<rect x="96.25" y="61.25" width="15.5" height="8.5" stroke="#2D2D2D" stroke-width="0.5"/>
<rect x="6.25" y="50.25" width="15.5" height="8.5" stroke="#2D2D2D" stroke-width="0.5"/>
<rect x="24.25" y="50.25" width="15.5" height="8.5" stroke="#2D2D2D" stroke-width="0.5"/>
<rect x="42.25" y="50.25" width="15.5" height="8.5" stroke="#2D2D2D" stroke-width="0.5"/>
<rect x="60.25" y="50.25" width="15.5" height="8.5" stroke="#2D2D2D" stroke-width="0.5"/>
<rect x="78.25" y="50.25" width="15.5" height="8.5" stroke="#2D2D2D" stroke-width="0.5"/>
<rect x="96.25" y="50.25" width="15.5" height="8.5" stroke="#2D2D2D" stroke-width="0.5"/>
<rect x="6.25" y="39.25" width="15.5" height="8.5" stroke="#2D2D2D" stroke-width="0.5"/>
<rect x="24.25" y="39.25" width="15.5" height="8.5" stroke="#2D2D2D" stroke-width="0.5"/>
<rect x="42.25" y="39.25" width="15.5" height="8.5" stroke="#2D2D2D" stroke-width="0.5"/>
<rect x="60.25" y="39.25" width="15.5" height="8.5" stroke="#2D2D2D" stroke-width="0.5"/>
<rect x="78.25" y="39.25" width="15.5" height="8.5" stroke="#2D2D2D" stroke-width="0.5"/>
<rect x="96.25" y="39.25" width="15.5" height="8.5" stroke="#2D2D2D" stroke-width="0.5"/>
<rect x="6.25" y="28.25" width="15.5" height="8.5" stroke="#2D2D2D" stroke-width="0.5"/>
<rect x="24.25" y="28.25" width="15.5" height="8.5" stroke="#2D2D2D" stroke-width="0.5"/>
<rect x="42.25" y="28.25" width="15.5" height="8.5" stroke="#2D2D2D" stroke-width="0.5"/>
<rect x="60.25" y="28.25" width="15.5" height="8.5" stroke="#2D2D2D" stroke-width="0.5"/>
<rect x="78.25" y="28.25" width="15.5" height="8.5" stroke="#2D2D2D" stroke-width="0.5"/>
<rect x="96.25" y="28.25" width="15.5" height="8.5" stroke="#2D2D2D" stroke-width="0.5"/>
<rect x="6.25" y="17.25" width="15.5" height="8.5" stroke="#2D2D2D" stroke-width="0.5"/>
<rect x="24.25" y="17.25" width="15.5" height="8.5" stroke="#2D2D2D" stroke-width="0.5"/>
<rect x="42.25" y="17.25" width="15.5" height="8.5" stroke="#2D2D2D" stroke-width="0.5"/>
<rect x="60.25" y="17.25" width="15.5" height="8.5" stroke="#2D2D2D" stroke-width="0.5"/>
<rect x="78.25" y="17.25" width="15.5" height="8.5" stroke="#2D2D2D" stroke-width="0.5"/>
<rect x="96.25" y="17.25" width="15.5" height="8.5" stroke="#2D2D2D" stroke-width="0.5"/>
<rect x="6.25" y="6.25" width="15.5" height="8.5" stroke="#2D2D2D" stroke-width="0.5"/>
<rect x="24.25" y="6.25" width="15.5" height="8.5" stroke="#2D2D2D" stroke-width="0.5"/>
<rect x="42.25" y="6.25" width="15.5" height="8.5" stroke="#2D2D2D" stroke-width="0.5"/>
<rect x="60.25" y="6.25" width="15.5" height="8.5" stroke="#2D2D2D" stroke-width="0.5"/>
<rect x="78.25" y="6.25" width="15.5" height="8.5" stroke="#2D2D2D" stroke-width="0.5"/>
<rect x="96.25" y="6.25" width="15.5" height="8.5" stroke="#2D2D2D" stroke-width="0.5"/>
<rect x="6.25" y="153.25" width="15.5" height="8.5" stroke="#2D2D2D" stroke-width="0.5"/>
<rect x="24.25" y="153.25" width="15.5" height="8.5" stroke="#2D2D2D" stroke-width="0.5"/>
<rect x="42.25" y="153.25" width="15.5" height="8.5" stroke="#2D2D2D" stroke-width="0.5"/>
<rect x="60.25" y="153.25" width="15.5" height="8.5" stroke="#2D2D2D" stroke-width="0.5"/>
<rect x="78.25" y="153.25" width="15.5" height="8.5" stroke="#2D2D2D" stroke-width="0.5"/>
<rect x="96.25" y="153.25" width="15.5" height="8.5" stroke="#2D2D2D" stroke-width="0.5"/>
<rect x="6.25" y="142.25" width="15.5" height="8.5" stroke="#2D2D2D" stroke-width="0.5"/>
<rect x="24.25" y="142.25" width="15.5" height="8.5" stroke="#2D2D2D" stroke-width="0.5"/>
<rect x="42.25" y="142.25" width="15.5" height="8.5" stroke="#2D2D2D" stroke-width="0.5"/>
<rect x="60.25" y="142.25" width="15.5" height="8.5" stroke="#2D2D2D" stroke-width="0.5"/>
<rect x="78.25" y="142.25" width="15.5" height="8.5" stroke="#2D2D2D" stroke-width="0.5"/>
<rect x="96.25" y="142.25" width="15.5" height="8.5" stroke="#2D2D2D" stroke-width="0.5"/>
<rect x="6.25" y="131.25" width="15.5" height="8.5" stroke="#2D2D2D" stroke-width="0.5"/>
<rect x="24.25" y="131.25" width="15.5" height="8.5" stroke="#2D2D2D" stroke-width="0.5"/>
<rect x="42.25" y="131.25" width="15.5" height="8.5" stroke="#2D2D2D" stroke-width="0.5"/>
<rect x="60.25" y="131.25" width="15.5" height="8.5" stroke="#2D2D2D" stroke-width="0.5"/>
<rect x="78.25" y="131.25" width="15.5" height="8.5" stroke="#2D2D2D" stroke-width="0.5"/>
<rect x="96.25" y="131.25" width="15.5" height="8.5" stroke="#2D2D2D" stroke-width="0.5"/>
<rect x="6.25" y="120.25" width="15.5" height="8.5" stroke="#2D2D2D" stroke-width="0.5"/>
<rect x="24.25" y="120.25" width="15.5" height="8.5" stroke="#2D2D2D" stroke-width="0.5"/>
<rect x="42.25" y="120.25" width="15.5" height="8.5" stroke="#2D2D2D" stroke-width="0.5"/>
<rect x="60.25" y="120.25" width="15.5" height="8.5" stroke="#2D2D2D" stroke-width="0.5"/>
<rect x="78.25" y="120.25" width="15.5" height="8.5" stroke="#2D2D2D" stroke-width="0.5"/>
<rect x="96.25" y="120.25" width="15.5" height="8.5" stroke="#2D2D2D" stroke-width="0.5"/>
<rect x="6.25" y="109.25" width="15.5" height="8.5" stroke="#2D2D2D" stroke-width="0.5"/>
<rect x="24.25" y="109.25" width="15.5" height="8.5" stroke="#2D2D2D" stroke-width="0.5"/>
<rect x="42.25" y="109.25" width="15.5" height="8.5" stroke="#2D2D2D" stroke-width="0.5"/>
<rect x="60.25" y="109.25" width="15.5" height="8.5" stroke="#2D2D2D" stroke-width="0.5"/>
<rect x="78.25" y="109.25" width="15.5" height="8.5" stroke="#2D2D2D" stroke-width="0.5"/>
<rect x="96.25" y="109.25" width="15.5" height="8.5" stroke="#2D2D2D" stroke-width="0.5"/>
<rect x="6.25" y="98.25" width="15.5" height="8.5" stroke="#2D2D2D" stroke-width="0.5"/>
<rect x="24.25" y="98.25" width="15.5" height="8.5" stroke="#2D2D2D" stroke-width="0.5"/>
<rect x="42.25" y="98.25" width="15.5" height="8.5" stroke="#2D2D2D" stroke-width="0.5"/>
<rect x="60.25" y="98.25" width="15.5" height="8.5" stroke="#2D2D2D" stroke-width="0.5"/>
<rect x="78.25" y="98.25" width="15.5" height="8.5" stroke="#2D2D2D" stroke-width="0.5"/>
<rect x="96.25" y="98.25" width="15.5" height="8.5" stroke="#2D2D2D" stroke-width="0.5"/>
<rect x="6.25" y="87.25" width="15.5" height="8.5" stroke="#2D2D2D" stroke-width="0.5"/>
<rect x="24.25" y="87.25" width="15.5" height="8.5" stroke="#2D2D2D" stroke-width="0.5"/>
<rect x="42.25" y="87.25" width="15.5" height="8.5" stroke="#2D2D2D" stroke-width="0.5"/>
<rect x="60.25" y="87.25" width="15.5" height="8.5" stroke="#2D2D2D" stroke-width="0.5"/>
<rect x="78.25" y="87.25" width="15.5" height="8.5" stroke="#2D2D2D" stroke-width="0.5"/>
<rect x="96.25" y="87.25" width="15.5" height="8.5" stroke="#2D2D2D" stroke-width="0.5"/>
<rect x="42.5" y="67.5" width="33" height="33" rx="16.5" stroke="#606060" stroke-width="3"/>
<path d="M59 75.75V92.25M67.25 84L50.75 84" stroke="#606060" stroke-width="4" stroke-linejoin="bevel"/>
</svg>
