<svg width="294" height="224" viewBox="0 0 294 224" fill="none" xmlns="http://www.w3.org/2000/svg">
<path d="M241.884 125.99L219.901 113.294C262.857 98.552 301.538 102.007 329.765 109.324C344.324 113.097 356.091 117.896 364.209 121.746C368.267 123.67 371.411 125.357 373.533 126.557C374.117 126.887 374.623 127.18 375.05 127.432C362.915 146.781 348.538 162.961 330.728 177.301C301.111 160.195 271.498 143.093 241.884 125.99ZM211.527 -181.936C234.347 -181.099 255.544 -176.736 276.864 -168.478C276.862 -136.186 276.862 -103.899 276.861 -71.6121C276.86 -61.2327 276.86 -50.8533 276.86 -40.4737C242.619 -70.3115 226.269 -105.546 218.491 -133.656C214.479 -148.153 212.75 -160.746 212.024 -169.703C211.661 -174.181 211.549 -177.747 211.528 -180.186C211.522 -180.856 211.523 -181.441 211.527 -181.936ZM107.326 -8.36394L115.241 -12.9345C106.527 31.6457 84.1951 63.4251 63.7463 84.2183C53.1998 94.9425 43.1616 102.736 35.7691 107.843C32.0736 110.396 29.0417 112.277 26.9411 113.515C26.364 113.855 25.8572 114.146 25.4264 114.39C14.7413 94.2042 7.9199 73.6604 4.40975 51.0633C38.7189 31.2533 73.0214 11.4452 107.326 -8.36394ZM317.454 187.124C248.98 233.625 159.02 233.625 90.5464 187.124L102.652 180.133C111.551 174.995 121.522 169.237 131.657 163.385C176.421 137.536 231.577 137.535 276.341 163.384C290.045 171.298 303.749 179.211 317.454 187.124ZM147.745 136.602C123.915 150.367 95.6858 166.671 77.2791 177.301C59.4616 162.961 45.0785 146.781 32.9501 127.432C33.3768 127.181 33.8831 126.887 34.4667 126.557C36.5889 125.357 39.7328 123.67 43.7911 121.746C51.9093 117.896 63.6762 113.097 78.2346 109.324C106.462 102.007 145.144 98.552 188.099 113.295L178.927 118.592L147.745 136.602ZM292.015 -114.412V-161.894C366.512 -125.839 411.492 -47.9114 405.461 34.6591C394.11 28.1026 379.416 19.6164 364.363 10.923C319.597 -14.9291 292.015 -62.7077 292.015 -114.412ZM115.992 -161.894V-114.413C115.992 -62.7102 88.4152 -14.9358 43.6504 10.9165C29.9468 18.8306 16.2431 26.7447 2.53949 34.6594C-3.4923 -47.9113 41.4869 -125.839 115.992 -161.894ZM196.473 -181.936C196.477 -181.441 196.478 -180.856 196.472 -180.186C196.451 -177.747 196.339 -174.181 195.976 -169.703C195.25 -160.746 193.521 -148.153 189.509 -133.656C181.731 -105.546 165.382 -70.3115 131.14 -40.4737C131.14 -49.8699 131.14 -59.2659 131.14 -68.6619C131.139 -101.933 131.138 -135.203 131.136 -168.478C152.456 -176.736 173.653 -181.099 196.473 -181.936ZM403.593 51.0665C400.083 73.6636 393.261 94.2074 382.576 114.393C382.145 114.15 381.639 113.858 381.061 113.518C378.961 112.28 375.929 110.4 372.233 107.846C364.841 102.739 354.803 94.9457 344.256 84.2215C323.807 63.4283 301.475 31.6489 292.762 -12.9313L300.068 -8.71222C334.575 11.2141 369.081 31.1393 403.593 51.0665Z" stroke="url(#paint0_linear_1007_1444)" stroke-opacity="0.4" stroke-width="4"/>
<defs>
<linearGradient id="paint0_linear_1007_1444" x1="204" y1="-184" x2="204" y2="224" gradientUnits="userSpaceOnUse">
<stop stop-color="white"/>
<stop offset="1" stop-color="white" stop-opacity="0"/>
</linearGradient>
</defs>
</svg>
