<svg width="296" height="226" viewBox="0 0 296 226" fill="none" xmlns="http://www.w3.org/2000/svg">
<path d="M334.131 185.589C330.572 188.456 327.624 190.808 325.541 192.462C326.261 162.178 316.52 130.161 299.869 98.5509C282.704 65.965 258.135 33.6955 229.87 4.0215C265.369 -25.5269 300.056 -48.1572 333.783 -62.5544C349.843 -45.0229 367.401 -14.8838 381.698 18.2526C396.151 51.7491 407.16 88.05 409.942 117.099C406.669 121.809 399.881 128.821 391.298 136.848C382.415 145.155 371.771 154.402 361.517 163.047C351.265 171.69 341.417 179.72 334.131 185.589ZM77.986 102.388C39.4215 50.8611 12.5086 -10.9235 2.09959 -78.4511C4.91536 -82.3143 10.1692 -87.9018 16.915 -94.4125C24.0059 -101.256 32.6348 -109.016 41.5506 -116.685C57.7986 -130.661 74.898 -144.248 85.3065 -151.414C90.1812 -75.6505 138.121 -8.34644 182.36 35.9537C149.86 62.9716 115.081 86.907 77.986 102.388ZM113.836 -136.739C112.042 -144.216 111.235 -152.409 111.327 -160.294C119.829 -158.814 127.865 -156.24 135.161 -152.133L113.836 -136.739ZM377.002 -101.098C309.007 -95.0358 248.418 -58.6068 190.621 -4.74596C162.691 -36.3172 140.301 -70.6217 124.043 -107.962C166.894 -143.012 242.661 -177.72 304.641 -183.938C315.627 -176.267 331.111 -159.697 345.434 -142.543C358.605 -126.769 370.618 -110.719 377.002 -101.098ZM386.931 -75.4724C385.085 -66.721 382.241 -58.4617 378.392 -50.6954L364.356 -72.6523C371.673 -74.2975 378.951 -75.3064 386.931 -75.4724ZM212.914 192.241C180.054 207.606 142.372 220.758 107.218 223.935C89.1185 208.778 61.8123 175.544 33.5626 140.58C118.304 135.947 176.755 83.8539 221.33 43.9222C250.887 80.3932 274.212 115.409 288.278 148.299C272.597 160.034 245.148 177.169 212.914 192.241ZM277.206 191.65L298.508 176.926C300.157 183.394 301.018 191.292 301.023 199.825C294.673 198.998 286.49 195.957 277.206 191.65ZM33.6123 90.3489L48.4327 112.774C40.0573 114.574 32.1248 115.448 24.8238 114.737C26.7697 106.04 29.7282 97.929 33.6123 90.3489Z" stroke="url(#paint0_linear_1007_1449)" stroke-opacity="0.4" stroke-width="4"/>
<defs>
<linearGradient id="paint0_linear_1007_1449" x1="206" y1="-186" x2="206" y2="226" gradientUnits="userSpaceOnUse">
<stop stop-color="white"/>
<stop offset="1" stop-color="white" stop-opacity="0"/>
</linearGradient>
</defs>
</svg>
