<svg width="640" height="480" viewBox="0 0 640 480" fill="none" xmlns="http://www.w3.org/2000/svg">
<path opacity="0.1" d="M474.759 290.317L426.589 262.498C512.837 231.845 590.596 238.643 647.081 253.284C675.765 260.719 698.952 270.174 714.959 277.765C722.961 281.56 729.167 284.888 733.364 287.263C735.418 288.425 736.991 289.358 738.058 290.006C713.702 329.237 684.739 361.89 648.664 390.754C590.691 357.27 532.725 323.794 474.759 290.317ZM412.867 -317.941C459.012 -316.459 501.765 -307.696 544.793 -290.879C544.789 -226.936 544.787 -163.002 544.785 -99.0682L544.784 -34.3831C475.12 -93.7671 442.127 -164.523 426.561 -220.773C418.656 -249.337 415.249 -274.15 413.818 -291.811C413.103 -300.641 412.882 -307.68 412.839 -312.504C412.818 -314.864 412.84 -316.693 412.867 -317.941ZM210.583 22.0841L228.632 11.662C212.048 101.699 167.282 165.657 126.363 207.266C105.584 228.395 85.8038 243.752 71.2278 253.823C63.9405 258.857 57.9563 262.569 53.8014 265.017C51.7692 266.215 50.1749 267.111 49.0801 267.711C27.2914 226.998 13.5008 185.582 6.54759 139.902C74.5673 100.627 142.573 61.3567 210.583 22.0841ZM626.061 407.556C490.001 501.482 309.999 501.482 173.939 407.555L201.631 391.565C218.744 381.683 237.815 370.67 257.19 359.483C345.558 308.455 454.438 308.453 542.806 359.481C570.558 375.507 598.309 391.531 626.061 407.556ZM290.658 310.296C243.437 337.57 187.409 369.93 151.35 390.754C115.261 361.89 86.2841 329.237 61.9414 290.007C63.0087 289.358 64.5817 288.425 66.6356 287.263C70.8333 284.888 77.0387 281.56 85.0414 277.765C101.048 270.174 124.235 260.719 152.919 253.284C209.404 238.643 287.163 231.845 373.411 262.498L370.336 264.275L351.798 274.982C336.147 284.022 314.527 296.509 290.658 310.296ZM570.656 -183.552V-279.707C720.008 -208.826 810.009 -52.9001 796.703 111.934C774.112 98.8842 744.174 81.5948 713.475 63.8659C625.105 12.8324 570.656 -81.4856 570.656 -183.552ZM229.356 -279.707V-183.555C229.356 -81.4905 174.919 12.819 86.55 63.8532C58.7992 79.8799 31.0483 95.9065 3.29746 111.934C-10.0088 -52.9 79.9904 -208.826 229.356 -279.707ZM373.439 -220.773C357.873 -164.523 324.88 -93.7671 255.217 -34.3831C255.216 -54.4958 255.215 -74.6082 255.215 -94.7204C255.213 -160.104 255.211 -225.487 255.207 -290.879C298.235 -307.696 340.988 -316.459 387.133 -317.941C387.16 -316.693 387.182 -314.864 387.161 -312.504C387.118 -307.68 386.897 -300.641 386.182 -291.811C384.751 -274.15 381.344 -249.337 373.439 -220.773ZM793.457 139.908C786.504 185.589 772.714 227.004 750.925 267.718C749.83 267.117 748.236 266.222 746.203 265.024C742.049 262.575 736.064 258.864 728.777 253.829C714.201 243.759 694.421 228.401 673.642 207.272C632.723 165.663 587.957 101.706 571.373 11.6683L588.552 21.5883C656.852 61.0283 725.148 100.466 793.457 139.908Z" stroke="url(#paint0_linear_4491_20429)" stroke-opacity="0.4" stroke-width="4"/>
<defs>
<linearGradient id="paint0_linear_4491_20429" x1="400" y1="-320" x2="400" y2="480" gradientUnits="userSpaceOnUse">
<stop offset="0.503224" stop-color="white" stop-opacity="0"/>
<stop offset="0.598224" stop-color="white"/>
<stop offset="1" stop-color="white" stop-opacity="0"/>
</linearGradient>
</defs>
</svg>
