<svg width="290" height="225" viewBox="0 0 290 225" fill="none" xmlns="http://www.w3.org/2000/svg">
<path d="M240.224 -177.917C238.426 -177.747 236.4 -177.522 234.179 -177.221C224.831 -175.955 211.993 -173.355 198.019 -168.016C170.05 -157.33 137.486 -135.642 119.366 -91.7473C101.75 -49.0737 71.9013 -27.9336 46.4512 -17.43C33.7112 -12.172 22.0693 -9.57971 13.6186 -8.30289C9.39488 -7.66473 5.97342 -7.35596 3.61714 -7.2067C3.07114 -7.1721 2.58244 -7.1461 2.15433 -7.12654C2.19815 -7.63533 2.25314 -8.22972 2.32165 -8.90488C2.58191 -11.4696 3.03714 -15.1983 3.81553 -19.8247C5.37276 -29.0803 8.22078 -41.9135 13.3803 -56.2013C23.7039 -84.7897 43.2332 -119.077 80.0721 -142.285C148.065 -185.119 207.59 -188.534 240.224 -177.917ZM316.481 -127.376C314.332 -127.019 311.649 -126.498 308.521 -125.745C299.966 -123.685 288.074 -119.882 274.651 -112.901C247.782 -98.9285 214.856 -72.2636 190.304 -21.5591C166.268 28.0781 126.194 49.4084 88.9105 51.3972C52.8107 53.3228 19.5216 37.1554 5.45283 11.1245C5.55321 11.1242 5.65567 11.1237 5.7602 11.123C8.13614 11.1079 11.5805 10.9914 15.8958 10.5885C24.5252 9.78271 36.6467 7.83084 50.6761 3.24895C78.7539 -5.92104 114.435 -25.6151 145.018 -67.6368C175.136 -109.019 206.706 -130.968 236.907 -138.728C265.12 -145.977 292.369 -140.906 316.481 -127.376ZM11.6277 50.6491C11.6283 50.6254 11.629 50.602 11.6297 50.5787C12.7248 50.6054 14.2895 50.6792 16.2482 50.8649C20.3719 51.256 26.2345 52.1423 33.1334 54.1248C46.9251 58.0881 64.8522 66.4291 81.3368 83.9644C98.5142 102.237 121.705 110.511 140.44 114.24C149.827 116.108 158.149 116.846 164.127 117.118C165.38 117.175 166.53 117.211 167.567 117.233C166.142 118.213 164.425 119.344 162.443 120.565C156.035 124.512 146.885 129.377 135.912 133.061C113.978 140.424 84.8933 143.037 55.7351 124.323C31.2678 108.621 20.3068 89.6593 15.4301 74.691C12.9868 67.1918 12.065 60.675 11.7528 56.0481C11.5968 53.7354 11.5933 51.8977 11.6277 50.6491ZM153.784 212.465C171.866 208.515 183.77 200.868 195.845 192.882C196.216 192.636 196.588 192.39 196.96 192.144C210.191 183.385 223.884 174.319 246.682 168.871C269.869 163.329 287.723 169.514 299.812 177.074C305.87 180.862 310.482 184.998 313.575 188.183C315.082 189.736 316.225 191.059 316.996 192C279.494 220.254 237.35 224.921 204.295 222.41C187.54 221.138 173.16 218.023 162.972 215.227C159.35 214.232 156.26 213.279 153.784 212.465ZM167.22 175.446C149.086 181.872 128.868 185.464 93.9556 179.707C99.2302 178.712 105.921 177.12 113.592 174.578C132.766 168.222 158.068 155.924 182.67 132.159C206.557 109.086 232.136 103.946 253.291 106.065C274.58 108.197 291.31 117.669 297.295 123.641C297.684 124.029 298.065 124.408 298.438 124.78C304.866 131.181 309.067 135.366 312.677 142.637C315.955 149.239 318.764 158.443 322.023 174.135C318.911 170.558 314.367 166.197 308.117 162.139C294.217 153.113 272.057 145.701 238.841 151.461C215.423 155.523 199.305 162.315 184.695 168.472C178.75 170.978 173.055 173.378 167.22 175.446ZM396.602 37.8157C385.623 24.2165 378.627 17.1595 372.519 10.9979C370.687 9.1499 368.935 7.38245 367.179 5.54318C359.078 -2.94295 350.687 -13.1635 333.411 -40.6771C316.344 -67.8581 317.377 -85.9493 322.189 -97.0854C324.622 -102.715 328.08 -106.716 330.932 -109.309C332.357 -110.605 333.624 -111.544 334.524 -112.153C334.706 -112.276 334.872 -112.385 335.022 -112.481C335.508 -112.211 336.172 -111.828 336.991 -111.324C338.882 -110.16 341.596 -108.351 344.836 -105.796C351.316 -100.687 359.901 -92.5962 368.229 -80.7114C384.39 -57.6514 399.683 -20.1734 396.602 37.8157ZM351.831 147.98C351.742 146.901 351.626 145.711 351.477 144.416C350.703 137.711 349.021 128.213 345.39 116.973C338.125 94.4817 323.066 65.0375 291.928 37.0522C261.546 9.74773 253.204 -20.993 258.595 -47.6303C263.694 -72.8295 281.129 -94.6092 304.417 -106.558C304.125 -105.587 303.816 -104.473 303.505 -103.219C302.229 -98.0691 300.937 -90.5774 300.834 -81.1238C300.627 -62.198 305.185 -35.487 324.05 -4.0387C342.733 27.1091 356.9 53.0883 362.367 78.08C367.393 101.057 365.077 123.277 351.831 147.98ZM90.9531 66.3374C91.88 66.4172 92.9377 66.497 94.1202 66.5694C99.1463 66.8771 106.43 67.0513 115.513 66.5254C133.679 65.4736 159.051 61.6211 187.956 50.4303C216.291 39.46 244.424 38.0574 268.32 47.8812C290.459 56.9826 309.226 75.8293 321.209 106.24C320.764 105.892 320.296 105.532 319.804 105.163C315.007 101.561 307.948 97.013 298.873 93.2039C280.69 85.5721 254.461 80.932 222.262 92.7085C162.463 114.579 112.246 92.7969 90.9531 66.3374Z" stroke="url(#paint0_linear_1007_1446)" stroke-opacity="0.4" stroke-width="4"/>
<defs>
<linearGradient id="paint0_linear_1007_1446" x1="199.5" y1="-185" x2="199.5" y2="225" gradientUnits="userSpaceOnUse">
<stop stop-color="white"/>
<stop offset="1" stop-color="white" stop-opacity="0"/>
</linearGradient>
</defs>
</svg>
