<svg width="291" height="220" viewBox="0 0 291 220" fill="none" xmlns="http://www.w3.org/2000/svg">
<path d="M331.675 86.5771L331.674 86.5767C304.052 70.6267 287.039 41.1414 287.039 9.24048V-13.231L287.447 -12.9956L296.739 -7.62975L327.387 10.0679C350.801 23.5884 378.536 39.6034 396.63 50.0513C393.179 72.2241 386.497 92.3813 376.017 112.185C371.26 109.437 366.501 106.69 361.742 103.942C351.719 98.1555 341.694 92.3678 331.675 86.5771ZM69.326 86.5767L69.3256 86.5769C59.5347 92.2331 49.7441 97.8865 39.9552 103.539C34.9638 106.421 29.973 109.303 24.9827 112.185C14.5026 92.3814 7.82173 72.2241 4.36973 50.0512C19.4644 41.3346 34.5596 32.6181 49.6547 23.9015C71.0926 11.5223 92.5306 -0.856888 113.968 -13.2363V9.24048C113.968 41.1411 96.9481 70.6266 69.326 86.5767ZM324.198 99.5327L324.198 99.5328C331.77 103.904 339.347 108.281 346.925 112.657C354.132 116.82 361.339 120.983 368.541 125.141C356.63 144.117 342.522 159.991 325.051 174.06C300.683 159.986 276.316 145.914 251.95 131.843C239.785 124.818 227.621 117.793 215.456 110.768L221.562 107.242C226.469 104.409 232.084 101.168 234.915 99.5326C262.537 83.5825 296.575 83.5825 324.198 99.5327ZM222.159 89.6231L223.159 91.355L222.158 89.6232C208.767 97.3588 192.251 97.3668 178.86 89.633L176.183 88.0867L173.506 86.5404C145.907 70.5984 128.92 41.1212 128.92 9.24048V3.11284C128.92 -12.3467 137.166 -26.6317 150.551 -34.3611L149.551 -36.093L150.551 -34.3611L155.858 -37.4258L155.858 -37.4259C183.481 -53.3829 217.519 -53.3829 245.142 -37.4259L246.142 -39.1577L245.142 -37.4259C246.089 -36.8791 247.242 -36.2128 248.536 -35.466L250.437 -34.3682C263.822 -26.6381 272.08 -12.3453 272.08 3.11319V9.24048C272.08 41.1411 255.061 70.6264 227.431 86.5766L227.43 86.5772C226.047 87.3773 224.219 88.4333 222.159 89.6231ZM193.024 -178.935V-127.718C193.024 -95.8169 176.005 -66.3319 148.382 -50.3818C143.589 -47.6143 138.795 -44.8457 134.002 -42.0775C132.308 -41.0989 130.614 -40.1204 128.92 -39.142V-165.721C149.837 -173.824 170.64 -178.113 193.024 -178.935ZM42.8846 10.5426L43.8848 12.2745L42.8846 10.5426C34.0645 15.6364 25.2443 20.7303 16.4241 25.8243L2.52611 33.8508C-3.37572 -47.2505 40.7996 -123.785 113.968 -159.219V-112.607C113.968 -61.8034 86.8707 -14.8601 42.8846 10.5426ZM89.0573 183.759C100.209 177.319 114.636 168.988 129.415 160.454C173.401 135.055 227.597 135.054 271.582 160.454C285.036 168.222 298.489 175.991 311.943 183.759C244.676 229.414 156.324 229.414 89.0573 183.759ZM121.444 87.57C136.858 87.57 152.271 91.5575 166.085 99.5328C169.828 101.694 173.57 103.855 177.313 106.016C180.056 107.6 182.798 109.184 185.541 110.768L185.132 111.004L175.84 116.371L145.193 134.072C121.78 147.595 94.0478 163.612 75.9564 174.06C58.478 159.991 44.363 144.117 32.4582 125.141C39.6726 120.977 46.8911 116.807 54.1094 112.638C61.6755 108.267 69.2413 103.897 76.8019 99.5328L75.802 97.8007L76.8019 99.5328C90.6167 91.5575 106.03 87.57 121.444 87.57ZM287.039 -112.605V-159.219C360.2 -123.785 404.376 -47.2505 398.474 33.8506C387.325 27.4105 372.902 19.0811 358.128 10.5489C314.141 -14.8531 287.039 -61.801 287.039 -112.605ZM268.598 -38.8404L269.598 -40.5724C266.846 -42.1616 264.091 -43.7537 261.335 -45.346C258.428 -47.0255 255.522 -48.7052 252.618 -50.3818C224.995 -66.3319 207.976 -95.8169 207.976 -127.718V-178.935C230.367 -178.113 251.163 -173.824 272.08 -165.721V-39.1391L269.598 -40.5724L268.598 -38.8404Z" stroke="url(#paint0_linear_1007_1445)" stroke-opacity="0.4" stroke-width="4"/>
<defs>
<linearGradient id="paint0_linear_1007_1445" x1="200.5" y1="-181" x2="200.5" y2="220" gradientUnits="userSpaceOnUse">
<stop stop-color="white"/>
<stop offset="1" stop-color="white" stop-opacity="0"/>
</linearGradient>
</defs>
</svg>
