<svg width="1320" height="1320" viewBox="0 0 1320 1320" fill="none" xmlns="http://www.w3.org/2000/svg">
<mask id="mask0_3426_11858" style="mask-type:alpha" maskUnits="userSpaceOnUse" x="0" y="0" width="1320" height="1320">
<g clip-path="url(#clip0_3426_11858)">
<circle opacity="0.2" cx="660" cy="660" r="288" fill="#F60109"/>
<mask id="mask1_3426_11858" style="mask-type:alpha" maskUnits="userSpaceOnUse" x="180" y="0" width="960" height="832">
<path fill-rule="evenodd" clip-rule="evenodd" d="M660 0C660 420.767 483.279 529.728 344.295 615.422C254.223 670.958 180 716.722 180 831.25V0H660ZM1140 831.25C1140 716.722 1065.78 670.958 975.705 615.422C836.721 529.728 660 420.767 660 0H1140V831.25Z" fill="#D9D9D9"/>
</mask>
<g mask="url(#mask1_3426_11858)">
<rect x="453.75" y="209" width="412.5" height="901.312" fill="url(#paint0_linear_3426_11858)" fill-opacity="0.1"/>
<rect x="454.75" y="210" width="410.5" height="899.312" stroke="url(#paint1_linear_3426_11858)" stroke-opacity="0.2" stroke-width="2"/>
<rect x="206.25" y="209" width="206.25" height="901.312" fill="url(#paint2_linear_3426_11858)" fill-opacity="0.1"/>
<rect x="207.25" y="210" width="204.25" height="899.312" stroke="url(#paint3_linear_3426_11858)" stroke-opacity="0.2" stroke-width="2"/>
<rect x="907.5" y="209" width="206.25" height="901.312" fill="url(#paint4_linear_3426_11858)" fill-opacity="0.1"/>
<rect x="908.5" y="210" width="204.25" height="899.312" stroke="url(#paint5_linear_3426_11858)" stroke-opacity="0.2" stroke-width="2"/>
</g>
<mask id="mask2_3426_11858" style="mask-type:alpha" maskUnits="userSpaceOnUse" x="180" y="0" width="960" height="960">
<path fill-rule="evenodd" clip-rule="evenodd" d="M344.295 615.422C483.279 529.728 660 420.767 660 0C660 420.767 836.721 529.728 975.705 615.422C1065.78 670.958 1140 716.722 1140 831.25V960H660H180V831.25C180 716.722 254.223 670.958 344.295 615.422Z" fill="url(#paint6_linear_3426_11858)"/>
</mask>
<g mask="url(#mask2_3426_11858)">
<path d="M344.295 615.422C483.279 529.728 660 420.767 660 0C660 420.767 836.721 529.728 975.705 615.422C1065.78 670.958 1140 716.722 1140 831.25V960H180V831.25C180 716.722 254.223 670.958 344.295 615.422Z" fill="url(#paint7_radial_3426_11858)" fill-opacity="0.3" stroke="url(#paint8_linear_3426_11858)" stroke-opacity="0.8" stroke-width="4"/>
<path opacity="0.75" d="M463.88 615.422C550.219 529.728 660 420.767 660 0C660 420.767 769.781 529.728 856.12 615.422C912.074 670.958 958.182 716.722 958.182 831.25V960H361.818V831.25C361.818 716.722 407.926 670.958 463.88 615.422Z" stroke="url(#paint9_linear_3426_11858)" stroke-opacity="0.8" stroke-width="2"/>
<path opacity="0.5" d="M570.073 615.422C609.662 529.728 660.001 420.767 660.001 0C660.001 420.767 710.339 529.728 749.929 615.422C775.586 670.958 796.728 716.722 796.728 831.25V960H523.273V831.25C523.273 716.722 544.416 670.958 570.073 615.422Z" stroke="url(#paint10_linear_3426_11858)" stroke-opacity="0.8" stroke-width="2"/>
<path fill-rule="evenodd" clip-rule="evenodd" d="M660 1.2784C659.778 420.988 550.131 529.815 463.88 615.422C407.926 670.958 361.818 716.722 361.818 831.25V960H523.273V831.25C523.273 716.722 544.415 670.958 570.072 615.422C609.621 529.815 659.898 420.988 660 1.2784ZM660 0.779086C660.062 420.901 710.363 529.781 749.928 615.422C775.585 670.958 796.727 716.722 796.727 831.25V960H958.182V831.25C958.182 716.722 912.074 670.958 856.12 615.422C769.781 529.728 660 420.767 660 0C660 0.259814 660 0.51951 660 0.779086Z" fill="url(#paint11_linear_3426_11858)"/>
<path d="M588.248 489.54C619.835 421.375 659.999 334.701 659.999 0C659.999 334.701 700.163 421.375 731.75 489.54C752.221 533.716 769.09 570.119 769.09 661.222V763.636H550.908V661.222C550.908 570.119 567.777 533.716 588.248 489.54Z" fill="url(#paint12_radial_3426_11858)"/>
</g>
<g opacity="0.4">
<g style="mix-blend-mode:screen">
<path d="M275.015 868.679C273.771 869.326 272.238 868.845 271.592 867.606C270.946 866.36 271.427 864.825 272.664 864.178C273.909 863.531 275.442 864.013 276.088 865.252C276.734 866.498 276.253 868.032 275.015 868.679Z" fill="white"/>
</g>
<g style="mix-blend-mode:screen">
<path d="M418.353 896.132C418.311 896.132 418.181 896.119 418.112 895.988C418.098 895.96 418.057 895.891 418.091 895.781C418.126 895.678 418.201 895.637 418.222 895.623C418.263 895.602 418.305 895.589 418.346 895.589C418.387 895.589 418.518 895.602 418.586 895.733C418.655 895.864 418.607 896.029 418.476 896.098C418.435 896.119 418.401 896.132 418.36 896.132L418.353 896.132Z" fill="white"/>
</g>
<g style="mix-blend-mode:screen">
<path d="M188.143 977.296C186.755 978.019 185.05 977.482 184.321 976.098C183.599 974.708 184.136 973.001 185.517 972.272C186.899 971.542 188.611 972.086 189.339 973.469C190.061 974.859 189.525 976.566 188.143 977.296Z" fill="white"/>
</g>
<g style="mix-blend-mode:screen">
<path d="M485.832 1014.92C485.269 1014.92 484.519 1014.64 484.121 1013.88C483.797 1013.26 483.901 1012.7 483.99 1012.41C484.079 1012.12 484.32 1011.59 484.939 1011.27C485.22 1011.13 485.516 1011.05 485.825 1011.05C486.389 1011.05 487.138 1011.33 487.537 1012.09C487.86 1012.71 487.757 1013.27 487.668 1013.56C487.578 1013.85 487.338 1014.37 486.719 1014.7C486.437 1014.84 486.142 1014.92 485.832 1014.92Z" fill="white"/>
</g>
<g style="mix-blend-mode:screen">
<path d="M526.316 854.874C525.718 854.874 524.934 854.585 524.515 853.787C524.178 853.14 524.281 852.541 524.377 852.238C524.473 851.936 524.728 851.385 525.374 851.048C525.67 850.896 525.979 850.814 526.309 850.814C526.907 850.814 527.691 851.103 528.11 851.901C528.447 852.548 528.344 853.147 528.247 853.45C528.151 853.753 527.897 854.303 527.251 854.64C526.955 854.792 526.646 854.874 526.316 854.874Z" fill="white"/>
</g>
<g style="mix-blend-mode:screen">
<path d="M400.12 929.11C399.638 929.11 399.006 928.876 398.669 928.229C398.394 927.706 398.483 927.224 398.559 926.983C398.635 926.742 398.841 926.295 399.363 926.02C399.597 925.896 399.851 925.834 400.113 925.834C400.594 925.834 401.226 926.068 401.563 926.715C401.838 927.238 401.749 927.72 401.673 927.96C401.597 928.201 401.391 928.649 400.869 928.924C400.628 929.048 400.381 929.11 400.12 929.11Z" fill="white"/>
</g>
<g style="mix-blend-mode:screen">
<path d="M585.334 1010.92C584.771 1010.92 584.021 1010.64 583.622 1009.88C583.299 1009.26 583.403 1008.69 583.492 1008.4C583.581 1008.12 583.822 1007.59 584.441 1007.27C584.722 1007.12 585.018 1007.05 585.327 1007.05C585.891 1007.05 586.64 1007.32 587.039 1008.09C587.534 1009.03 587.163 1010.2 586.221 1010.69C585.939 1010.83 585.644 1010.91 585.334 1010.91L585.334 1010.92Z" fill="white"/>
</g>
<g style="mix-blend-mode:screen">
<path d="M615.584 959.21C614.244 959.912 612.594 959.389 611.9 958.054C611.199 956.711 611.721 955.06 613.055 954.364C614.395 953.662 616.045 954.186 616.739 955.521C617.44 956.863 616.918 958.515 615.584 959.21Z" fill="white"/>
</g>
<g style="mix-blend-mode:screen">
<path d="M461.237 949.887C460.714 950.162 460.061 949.955 459.786 949.432C459.511 948.909 459.717 948.255 460.24 947.98C460.762 947.705 461.415 947.911 461.69 948.434C461.965 948.957 461.759 949.611 461.237 949.887Z" fill="white"/>
</g>
<g style="mix-blend-mode:screen">
<path d="M487.297 895.341C486.101 895.968 484.629 895.507 484.004 894.309C483.378 893.111 483.839 891.639 485.035 891.012C486.231 890.386 487.702 890.847 488.328 892.045C488.953 893.242 488.493 894.715 487.297 895.341Z" fill="white"/>
</g>
<g style="mix-blend-mode:screen">
<path d="M341.077 908.776C340.506 909.078 339.798 908.851 339.496 908.28C339.193 907.709 339.42 907 339.991 906.697C340.561 906.394 341.269 906.621 341.572 907.193C341.874 907.764 341.647 908.473 341.077 908.776Z" fill="white"/>
</g>
<g style="mix-blend-mode:screen">
<path d="M325.199 1081.35C323.955 1082 322.422 1081.52 321.775 1080.28C321.129 1079.03 321.611 1077.5 322.848 1076.85C324.092 1076.2 325.625 1076.68 326.271 1077.92C326.918 1079.17 326.436 1080.7 325.199 1081.35Z" fill="white"/>
</g>
<g style="mix-blend-mode:screen">
<path d="M435.503 982.157C433.929 982.983 431.983 982.37 431.158 980.794C430.333 979.218 430.945 977.27 432.519 976.444C434.094 975.618 436.039 976.231 436.864 977.807C437.689 979.383 437.077 981.331 435.503 982.157Z" fill="white"/>
</g>
<g style="mix-blend-mode:screen">
<path d="M644.953 910.038C644.643 910.038 644.238 909.887 644.018 909.474C643.75 908.964 643.949 908.324 644.464 908.056C644.616 907.973 644.781 907.939 644.946 907.939C645.255 907.939 645.661 908.09 645.881 908.503C646.046 908.82 646.011 909.116 645.949 909.302C645.887 909.488 645.75 909.749 645.434 909.921C645.282 910.004 645.117 910.045 644.953 910.045L644.953 910.038Z" fill="white"/>
</g>
<g style="mix-blend-mode:screen">
<path d="M396.581 1038.73C395.151 1039.48 393.378 1038.92 392.628 1037.49C391.879 1036.05 392.436 1034.29 393.866 1033.54C395.296 1032.79 397.069 1033.34 397.819 1034.77C398.568 1036.21 398.011 1037.98 396.581 1038.73Z" fill="white"/>
</g>
<g style="mix-blend-mode:screen">
<path d="M319.241 994.145C317.234 995.198 314.759 994.42 313.707 992.41C312.656 990.401 313.432 987.923 315.44 986.87C317.447 985.817 319.922 986.595 320.974 988.604C322.025 990.614 321.249 993.092 319.241 994.145Z" fill="white"/>
</g>
<g style="mix-blend-mode:screen">
<path d="M333.572 822.524C332.52 823.075 331.221 822.669 330.671 821.616C330.121 820.563 330.527 819.262 331.579 818.711C332.63 818.161 333.93 818.567 334.48 819.62C335.029 820.673 334.624 821.974 333.572 822.524Z" fill="white"/>
</g>
<g style="mix-blend-mode:screen">
<path d="M533.684 976.304C533.148 976.304 532.44 976.042 532.055 975.319C531.745 974.734 531.848 974.191 531.931 973.922C532.013 973.654 532.247 973.151 532.831 972.849C533.1 972.711 533.381 972.635 533.677 972.635C534.213 972.635 534.921 972.897 535.299 973.619C535.609 974.204 535.506 974.748 535.423 975.017C535.341 975.285 535.107 975.787 534.523 976.09C534.254 976.228 533.973 976.297 533.684 976.297L533.684 976.304Z" fill="white"/>
</g>
<g style="mix-blend-mode:screen">
<path d="M512.251 795.213C511.68 795.516 510.972 795.289 510.669 794.717C510.367 794.146 510.594 793.437 511.164 793.134C511.735 792.832 512.443 793.059 512.746 793.63C513.048 794.201 512.821 794.91 512.251 795.213Z" fill="white"/>
</g>
<g style="mix-blend-mode:screen">
<path d="M537.281 898.818C536.615 899.169 535.79 898.907 535.439 898.239C535.089 897.572 535.35 896.746 536.017 896.395C536.683 896.044 537.508 896.305 537.859 896.973C538.21 897.641 537.948 898.467 537.281 898.818Z" fill="white"/>
</g>
<g style="mix-blend-mode:screen">
<path d="M472.797 1088.56C470.934 1089.54 468.631 1088.82 467.662 1086.95C466.686 1085.09 467.407 1082.78 469.27 1081.81C471.133 1080.84 473.436 1081.56 474.406 1083.42C475.382 1085.29 474.66 1087.59 472.797 1088.56Z" fill="white"/>
</g>
<g style="mix-blend-mode:screen">
<path d="M436.651 852.179C434.692 853.205 432.272 852.448 431.248 850.486C430.223 848.525 430.98 846.102 432.939 845.077C434.898 844.051 437.318 844.808 438.342 846.77C439.366 848.731 438.61 851.154 436.651 852.179Z" fill="white"/>
</g>
<g style="mix-blend-mode:screen">
<path d="M619.945 865.512C618.989 866.014 617.807 865.642 617.312 864.686C616.81 863.729 617.181 862.545 618.137 862.05C619.092 861.547 620.275 861.919 620.769 862.876C621.271 863.832 620.9 865.016 619.945 865.512Z" fill="white"/>
</g>
<g opacity="0.5">
<g style="mix-blend-mode:screen">
<path d="M274.72 868.116C273.787 868.602 272.638 868.24 272.153 867.311C271.668 866.377 272.029 865.226 272.957 864.741C273.89 864.255 275.04 864.617 275.525 865.546C276.009 866.48 275.649 867.631 274.72 868.116Z" fill="#191919"/>
</g>
<g style="mix-blend-mode:screen">
<path d="M418.352 896.064C418.321 896.064 418.224 896.054 418.172 895.956C418.162 895.935 418.131 895.884 418.156 895.801C418.182 895.724 418.239 895.693 418.254 895.682C418.285 895.667 418.316 895.656 418.347 895.656C418.378 895.656 418.476 895.667 418.528 895.765C418.579 895.863 418.543 895.987 418.445 896.038C418.414 896.054 418.389 896.064 418.358 896.064L418.352 896.064Z" fill="#191919"/>
</g>
<g style="mix-blend-mode:screen">
<path d="M187.814 976.666C186.773 977.208 185.494 976.805 184.948 975.767C184.407 974.725 184.809 973.445 185.845 972.897C186.881 972.35 188.165 972.758 188.712 973.796C189.253 974.838 188.851 976.118 187.814 976.666Z" fill="#191919"/>
</g>
<g style="mix-blend-mode:screen">
<path d="M485.832 1014.44C485.409 1014.44 484.847 1014.23 484.548 1013.66C484.306 1013.19 484.383 1012.77 484.45 1012.55C484.517 1012.34 484.697 1011.94 485.161 1011.7C485.373 1011.59 485.595 1011.54 485.827 1011.54C486.249 1011.54 486.811 1011.74 487.11 1012.31C487.353 1012.78 487.275 1013.2 487.208 1013.42C487.141 1013.64 486.961 1014.03 486.497 1014.27C486.285 1014.38 486.064 1014.44 485.832 1014.44Z" fill="#191919"/>
</g>
<g style="mix-blend-mode:screen">
<path d="M526.313 854.367C525.865 854.367 525.277 854.151 524.963 853.552C524.71 853.067 524.787 852.617 524.86 852.39C524.932 852.163 525.122 851.75 525.607 851.497C525.829 851.384 526.061 851.322 526.308 851.322C526.757 851.322 527.345 851.539 527.659 852.137C527.912 852.623 527.834 853.072 527.762 853.299C527.69 853.526 527.499 853.939 527.015 854.192C526.793 854.305 526.561 854.367 526.313 854.367Z" fill="#191919"/>
</g>
<g style="mix-blend-mode:screen">
<path d="M400.116 928.702C399.756 928.702 399.281 928.526 399.029 928.041C398.822 927.649 398.889 927.288 398.946 927.107C399.003 926.926 399.158 926.591 399.549 926.384C399.725 926.291 399.915 926.245 400.111 926.245C400.472 926.245 400.947 926.42 401.199 926.906C401.405 927.298 401.338 927.659 401.282 927.84C401.225 928.021 401.07 928.356 400.678 928.563C400.498 928.655 400.312 928.702 400.116 928.702Z" fill="#191919"/>
</g>
<g style="mix-blend-mode:screen">
<path d="M585.334 1010.43C584.911 1010.43 584.349 1010.23 584.05 1009.65C583.808 1009.19 583.885 1008.77 583.952 1008.55C584.019 1008.34 584.199 1007.94 584.663 1007.7C584.875 1007.59 585.097 1007.53 585.329 1007.53C585.751 1007.53 586.313 1007.74 586.612 1008.31C586.984 1009.02 586.705 1009.9 585.999 1010.26C585.787 1010.37 585.566 1010.43 585.334 1010.43L585.334 1010.43Z" fill="#191919"/>
</g>
<g style="mix-blend-mode:screen">
<path d="M615.267 958.606C614.262 959.132 613.024 958.74 612.503 957.739C611.978 956.732 612.369 955.493 613.37 954.972C614.375 954.445 615.612 954.838 616.133 955.839C616.659 956.846 616.267 958.085 615.267 958.606Z" fill="#191919"/>
</g>
<g style="mix-blend-mode:screen">
<path d="M461.111 949.648C460.719 949.855 460.229 949.7 460.023 949.307C459.817 948.915 459.972 948.425 460.363 948.218C460.755 948.012 461.245 948.167 461.451 948.559C461.658 948.951 461.503 949.442 461.111 949.648Z" fill="#191919"/>
</g>
<g style="mix-blend-mode:screen">
<path d="M487.013 894.799C486.116 895.269 485.013 894.923 484.543 894.025C484.074 893.127 484.42 892.022 485.317 891.552C486.214 891.083 487.317 891.429 487.786 892.327C488.256 893.225 487.91 894.33 487.013 894.799Z" fill="#191919"/>
</g>
<g style="mix-blend-mode:screen">
<path d="M340.941 908.515C340.513 908.742 339.982 908.572 339.755 908.144C339.528 907.715 339.698 907.183 340.126 906.956C340.554 906.729 341.085 906.9 341.312 907.328C341.539 907.756 341.369 908.288 340.941 908.515Z" fill="#191919"/>
</g>
<g style="mix-blend-mode:screen">
<path d="M324.904 1080.79C323.971 1081.27 322.821 1080.91 322.336 1079.98C321.852 1079.05 322.213 1077.9 323.141 1077.41C324.074 1076.93 325.224 1077.29 325.708 1078.22C326.193 1079.15 325.832 1080.3 324.904 1080.79Z" fill="#191919"/>
</g>
<g style="mix-blend-mode:screen">
<path d="M435.13 981.443C433.949 982.063 432.49 981.603 431.871 980.421C431.253 979.239 431.711 977.778 432.892 977.159C434.073 976.539 435.532 976.999 436.151 978.181C436.769 979.363 436.31 980.824 435.13 981.443Z" fill="#191919"/>
</g>
<g style="mix-blend-mode:screen">
<path d="M644.951 909.777C644.719 909.777 644.415 909.663 644.25 909.354C644.048 908.972 644.198 908.491 644.585 908.29C644.698 908.228 644.822 908.202 644.946 908.202C645.178 908.202 645.482 908.316 645.647 908.626C645.77 908.863 645.745 909.085 645.698 909.224C645.652 909.364 645.549 909.56 645.312 909.689C645.198 909.751 645.074 909.782 644.951 909.782L644.951 909.777Z" fill="#191919"/>
</g>
<g style="mix-blend-mode:screen">
<path d="M396.242 1038.08C395.17 1038.65 393.839 1038.23 393.277 1037.15C392.715 1036.08 393.133 1034.75 394.205 1034.19C395.278 1033.62 396.608 1034.04 397.17 1035.12C397.732 1036.19 397.314 1037.52 396.242 1038.08Z" fill="#191919"/>
</g>
<g style="mix-blend-mode:screen">
<path d="M318.766 993.236C317.26 994.025 315.404 993.442 314.615 991.935C313.827 990.428 314.409 988.569 315.915 987.779C317.42 986.99 319.276 987.573 320.065 989.08C320.854 990.588 320.271 992.446 318.766 993.236Z" fill="#191919"/>
</g>
<g style="mix-blend-mode:screen">
<path d="M333.323 822.047C332.534 822.46 331.559 822.155 331.147 821.366C330.734 820.576 331.039 819.6 331.827 819.187C332.616 818.774 333.591 819.079 334.003 819.869C334.416 820.659 334.111 821.634 333.323 822.047Z" fill="#191919"/>
</g>
<g style="mix-blend-mode:screen">
<path d="M533.681 975.846C533.279 975.846 532.748 975.65 532.459 975.108C532.227 974.669 532.305 974.262 532.367 974.06C532.428 973.859 532.604 973.482 533.042 973.255C533.243 973.152 533.454 973.095 533.676 973.095C534.078 973.095 534.609 973.291 534.893 973.833C535.125 974.272 535.048 974.68 534.986 974.881C534.924 975.082 534.749 975.459 534.31 975.686C534.109 975.79 533.898 975.841 533.681 975.841L533.681 975.846Z" fill="#191919"/>
</g>
<g style="mix-blend-mode:screen">
<path d="M512.115 794.953C511.687 795.18 511.156 795.01 510.929 794.581C510.702 794.153 510.872 793.621 511.3 793.394C511.728 793.167 512.259 793.337 512.486 793.765C512.713 794.194 512.543 794.726 512.115 794.953Z" fill="#191919"/>
</g>
<g style="mix-blend-mode:screen">
<path d="M537.122 898.514C536.622 898.777 536.003 898.581 535.74 898.081C535.477 897.58 535.673 896.96 536.173 896.697C536.673 896.434 537.292 896.63 537.555 897.131C537.818 897.631 537.622 898.251 537.122 898.514Z" fill="#191919"/>
</g>
<g style="mix-blend-mode:screen">
<path d="M472.355 1087.72C470.958 1088.46 469.231 1087.91 468.504 1086.51C467.772 1085.12 468.313 1083.39 469.711 1082.66C471.108 1081.93 472.835 1082.47 473.562 1083.87C474.294 1085.27 473.753 1086.99 472.355 1087.72Z" fill="#191919"/>
</g>
<g style="mix-blend-mode:screen">
<path d="M436.186 851.292C434.717 852.061 432.902 851.493 432.134 850.022C431.365 848.551 431.933 846.734 433.402 845.965C434.871 845.196 436.686 845.764 437.454 847.235C438.223 848.706 437.655 850.523 436.186 851.292Z" fill="#191919"/>
</g>
<g style="mix-blend-mode:screen">
<path d="M619.719 865.079C619.002 865.456 618.115 865.177 617.744 864.46C617.368 863.742 617.646 862.855 618.363 862.483C619.079 862.106 619.966 862.385 620.337 863.102C620.714 863.82 620.435 864.708 619.719 865.079Z" fill="#191919"/>
</g>
</g>
</g>
<g opacity="0.4">
<g style="mix-blend-mode:screen">
<path d="M724.015 1015.32C722.771 1014.67 721.238 1015.16 720.592 1016.39C719.946 1017.64 720.427 1019.17 721.664 1019.82C722.909 1020.47 724.442 1019.99 725.088 1018.75C725.734 1017.5 725.253 1015.97 724.015 1015.32Z" fill="white"/>
</g>
<g style="mix-blend-mode:screen">
<path d="M867.353 987.868C867.311 987.868 867.181 987.881 867.112 988.012C867.098 988.04 867.057 988.109 867.091 988.219C867.126 988.322 867.201 988.363 867.222 988.377C867.263 988.398 867.305 988.411 867.346 988.411C867.387 988.411 867.518 988.398 867.586 988.267C867.655 988.136 867.607 987.971 867.476 987.902C867.435 987.881 867.401 987.868 867.36 987.868L867.353 987.868Z" fill="white"/>
</g>
<g style="mix-blend-mode:screen">
<path d="M637.143 906.704C635.755 905.981 634.05 906.518 633.321 907.902C632.599 909.292 633.136 910.999 634.517 911.728C635.899 912.458 637.611 911.914 638.339 910.531C639.061 909.141 638.525 907.434 637.143 906.704Z" fill="white"/>
</g>
<g style="mix-blend-mode:screen">
<path d="M934.832 869.081C934.269 869.081 933.519 869.357 933.121 870.121C932.797 870.74 932.901 871.305 932.99 871.594C933.079 871.883 933.32 872.406 933.939 872.729C934.22 872.874 934.516 872.949 934.825 872.949C935.389 872.949 936.138 872.674 936.537 871.91C936.86 871.291 936.757 870.726 936.668 870.437C936.578 870.148 936.338 869.625 935.719 869.302C935.437 869.157 935.142 869.081 934.832 869.081Z" fill="white"/>
</g>
<g style="mix-blend-mode:screen">
<path d="M975.316 1029.13C974.718 1029.13 973.934 1029.41 973.515 1030.21C973.178 1030.86 973.281 1031.46 973.377 1031.76C973.473 1032.06 973.728 1032.62 974.374 1032.95C974.67 1033.1 974.979 1033.19 975.309 1033.19C975.907 1033.19 976.691 1032.9 977.11 1032.1C977.447 1031.45 977.344 1030.85 977.247 1030.55C977.151 1030.25 976.897 1029.7 976.251 1029.36C975.955 1029.21 975.646 1029.13 975.316 1029.13Z" fill="white"/>
</g>
<g style="mix-blend-mode:screen">
<path d="M849.12 954.89C848.638 954.89 848.006 955.124 847.669 955.771C847.394 956.294 847.483 956.776 847.559 957.017C847.635 957.258 847.841 957.705 848.363 957.98C848.597 958.104 848.851 958.166 849.113 958.166C849.594 958.166 850.226 957.932 850.563 957.285C850.838 956.762 850.749 956.28 850.673 956.04C850.597 955.799 850.391 955.351 849.869 955.076C849.628 954.952 849.381 954.89 849.12 954.89Z" fill="white"/>
</g>
<g style="mix-blend-mode:screen">
<path d="M1034.33 873.084C1033.77 873.084 1033.02 873.359 1032.62 874.123C1032.3 874.743 1032.4 875.307 1032.49 875.596C1032.58 875.878 1032.82 876.408 1033.44 876.732C1033.72 876.876 1034.02 876.952 1034.33 876.952C1034.89 876.952 1035.64 876.677 1036.04 875.913C1036.53 874.97 1036.16 873.8 1035.22 873.311C1034.94 873.166 1034.64 873.091 1034.33 873.091L1034.33 873.084Z" fill="white"/>
</g>
<g style="mix-blend-mode:screen">
<path d="M1064.58 924.79C1063.24 924.088 1061.59 924.611 1060.9 925.946C1060.2 927.289 1060.72 928.94 1062.05 929.636C1063.4 930.338 1065.04 929.814 1065.74 928.479C1066.44 927.137 1065.92 925.485 1064.58 924.79Z" fill="white"/>
</g>
<g style="mix-blend-mode:screen">
<path d="M910.237 934.113C909.714 933.838 909.061 934.045 908.786 934.568C908.511 935.091 908.717 935.745 909.24 936.02C909.762 936.295 910.415 936.089 910.69 935.566C910.965 935.043 910.759 934.389 910.237 934.113Z" fill="white"/>
</g>
<g style="mix-blend-mode:screen">
<path d="M936.297 988.659C935.101 988.032 933.629 988.493 933.004 989.691C932.378 990.889 932.839 992.361 934.035 992.988C935.231 993.614 936.702 993.153 937.328 991.955C937.953 990.758 937.493 989.285 936.297 988.659Z" fill="white"/>
</g>
<g style="mix-blend-mode:screen">
<path d="M790.077 975.224C789.506 974.922 788.798 975.149 788.496 975.72C788.193 976.291 788.42 977 788.991 977.303C789.561 977.606 790.269 977.379 790.572 976.807C790.874 976.236 790.647 975.527 790.077 975.224Z" fill="white"/>
</g>
<g style="mix-blend-mode:screen">
<path d="M774.199 802.649C772.955 802.002 771.422 802.484 770.775 803.723C770.129 804.969 770.611 806.503 771.848 807.15C773.092 807.797 774.625 807.316 775.271 806.077C775.918 804.831 775.436 803.296 774.199 802.649Z" fill="white"/>
</g>
<g style="mix-blend-mode:screen">
<path d="M884.503 901.843C882.929 901.017 880.983 901.63 880.158 903.206C879.333 904.782 879.945 906.73 881.519 907.556C883.094 908.382 885.039 907.769 885.864 906.193C886.689 904.617 886.077 902.669 884.503 901.843Z" fill="white"/>
</g>
<g style="mix-blend-mode:screen">
<path d="M1093.95 973.962C1093.64 973.962 1093.24 974.113 1093.02 974.526C1092.75 975.036 1092.95 975.676 1093.46 975.944C1093.62 976.027 1093.78 976.061 1093.95 976.061C1094.25 976.061 1094.66 975.91 1094.88 975.497C1095.05 975.18 1095.01 974.884 1094.95 974.698C1094.89 974.512 1094.75 974.251 1094.43 974.079C1094.28 973.996 1094.12 973.955 1093.95 973.955L1093.95 973.962Z" fill="white"/>
</g>
<g style="mix-blend-mode:screen">
<path d="M845.581 845.268C844.151 844.518 842.378 845.075 841.628 846.507C840.879 847.945 841.436 849.714 842.866 850.464C844.296 851.214 846.069 850.657 846.819 849.225C847.568 847.787 847.011 846.018 845.581 845.268Z" fill="white"/>
</g>
<g style="mix-blend-mode:screen">
<path d="M768.241 889.855C766.234 888.802 763.759 889.58 762.707 891.59C761.656 893.599 762.432 896.077 764.44 897.13C766.447 898.183 768.922 897.405 769.974 895.396C771.025 893.386 770.249 890.908 768.241 889.855Z" fill="white"/>
</g>
<g style="mix-blend-mode:screen">
<path d="M782.572 1061.48C781.52 1060.93 780.221 1061.33 779.671 1062.38C779.121 1063.44 779.527 1064.74 780.579 1065.29C781.63 1065.84 782.93 1065.43 783.48 1064.38C784.029 1063.33 783.624 1062.03 782.572 1061.48Z" fill="white"/>
</g>
<g style="mix-blend-mode:screen">
<path d="M982.684 907.696C982.148 907.696 981.44 907.958 981.055 908.681C980.745 909.266 980.848 909.809 980.931 910.078C981.013 910.346 981.247 910.849 981.831 911.151C982.1 911.289 982.381 911.365 982.677 911.365C983.213 911.365 983.921 911.103 984.299 910.381C984.609 909.796 984.506 909.252 984.423 908.983C984.341 908.715 984.107 908.213 983.523 907.91C983.254 907.772 982.973 907.703 982.684 907.703L982.684 907.696Z" fill="white"/>
</g>
<g style="mix-blend-mode:screen">
<path d="M961.251 1088.79C960.68 1088.48 959.972 1088.71 959.669 1089.28C959.367 1089.85 959.594 1090.56 960.164 1090.87C960.735 1091.17 961.443 1090.94 961.746 1090.37C962.048 1089.8 961.821 1089.09 961.251 1088.79Z" fill="white"/>
</g>
<g style="mix-blend-mode:screen">
<path d="M986.281 985.182C985.615 984.831 984.79 985.093 984.439 985.761C984.089 986.428 984.35 987.254 985.017 987.605C985.683 987.956 986.508 987.695 986.859 987.027C987.21 986.359 986.948 985.533 986.281 985.182Z" fill="white"/>
</g>
<g style="mix-blend-mode:screen">
<path d="M921.797 795.436C919.934 794.458 917.631 795.181 916.662 797.046C915.686 798.911 916.407 801.217 918.27 802.187C920.133 803.158 922.436 802.442 923.406 800.577C924.382 798.712 923.66 796.406 921.797 795.436Z" fill="white"/>
</g>
<g style="mix-blend-mode:screen">
<path d="M885.651 1031.82C883.692 1030.79 881.272 1031.55 880.248 1033.51C879.223 1035.48 879.98 1037.9 881.939 1038.92C883.898 1039.95 886.318 1039.19 887.342 1037.23C888.366 1035.27 887.61 1032.85 885.651 1031.82Z" fill="white"/>
</g>
<g style="mix-blend-mode:screen">
<path d="M1068.94 1018.49C1067.99 1017.99 1066.81 1018.36 1066.31 1019.31C1065.81 1020.27 1066.18 1021.45 1067.14 1021.95C1068.09 1022.45 1069.27 1022.08 1069.77 1021.12C1070.27 1020.17 1069.9 1018.98 1068.94 1018.49Z" fill="white"/>
</g>
<g opacity="0.5">
<g style="mix-blend-mode:screen">
<path d="M723.72 1015.88C722.787 1015.4 721.638 1015.76 721.153 1016.69C720.668 1017.62 721.029 1018.77 721.957 1019.26C722.89 1019.74 724.04 1019.38 724.525 1018.45C725.009 1017.52 724.649 1016.37 723.72 1015.88Z" fill="#191919"/>
</g>
<g style="mix-blend-mode:screen">
<path d="M867.352 987.936C867.321 987.936 867.224 987.946 867.172 988.044C867.162 988.065 867.131 988.116 867.156 988.199C867.182 988.276 867.239 988.307 867.254 988.318C867.285 988.333 867.316 988.344 867.347 988.344C867.378 988.344 867.476 988.333 867.528 988.235C867.579 988.137 867.543 988.013 867.445 987.962C867.414 987.946 867.389 987.936 867.358 987.936L867.352 987.936Z" fill="#191919"/>
</g>
<g style="mix-blend-mode:screen">
<path d="M636.814 907.334C635.773 906.792 634.494 907.195 633.948 908.233C633.407 909.275 633.809 910.555 634.845 911.103C635.881 911.65 637.165 911.242 637.712 910.204C638.253 909.162 637.851 907.882 636.814 907.334Z" fill="#191919"/>
</g>
<g style="mix-blend-mode:screen">
<path d="M934.832 869.564C934.409 869.564 933.847 869.77 933.548 870.343C933.306 870.808 933.383 871.231 933.45 871.448C933.517 871.665 933.697 872.057 934.161 872.3C934.373 872.408 934.595 872.465 934.827 872.465C935.249 872.465 935.811 872.258 936.11 871.685C936.353 871.221 936.275 870.798 936.208 870.581C936.141 870.364 935.961 869.972 935.497 869.729C935.285 869.621 935.064 869.564 934.832 869.564Z" fill="#191919"/>
</g>
<g style="mix-blend-mode:screen">
<path d="M975.313 1029.63C974.865 1029.63 974.277 1029.85 973.963 1030.45C973.71 1030.93 973.787 1031.38 973.86 1031.61C973.932 1031.84 974.122 1032.25 974.607 1032.5C974.829 1032.62 975.061 1032.68 975.308 1032.68C975.757 1032.68 976.345 1032.46 976.659 1031.86C976.912 1031.38 976.834 1030.93 976.762 1030.7C976.69 1030.47 976.499 1030.06 976.015 1029.81C975.793 1029.69 975.561 1029.63 975.313 1029.63Z" fill="#191919"/>
</g>
<g style="mix-blend-mode:screen">
<path d="M849.116 955.298C848.756 955.298 848.281 955.474 848.029 955.959C847.822 956.351 847.889 956.712 847.946 956.893C848.003 957.074 848.158 957.409 848.549 957.616C848.725 957.709 848.915 957.755 849.111 957.755C849.472 957.755 849.947 957.58 850.199 957.094C850.405 956.702 850.338 956.341 850.282 956.16C850.225 955.979 850.07 955.644 849.678 955.437C849.498 955.345 849.312 955.298 849.116 955.298Z" fill="#191919"/>
</g>
<g style="mix-blend-mode:screen">
<path d="M1034.33 873.567C1033.91 873.567 1033.35 873.773 1033.05 874.346C1032.81 874.811 1032.88 875.234 1032.95 875.451C1033.02 875.663 1033.2 876.06 1033.66 876.303C1033.87 876.411 1034.1 876.468 1034.33 876.468C1034.75 876.468 1035.31 876.262 1035.61 875.689C1035.98 874.981 1035.71 874.104 1035 873.737C1034.79 873.629 1034.57 873.572 1034.33 873.572L1034.33 873.567Z" fill="#191919"/>
</g>
<g style="mix-blend-mode:screen">
<path d="M1064.27 925.394C1063.26 924.868 1062.02 925.26 1061.5 926.261C1060.98 927.268 1061.37 928.507 1062.37 929.028C1063.37 929.555 1064.61 929.162 1065.13 928.161C1065.66 927.154 1065.27 925.915 1064.27 925.394Z" fill="#191919"/>
</g>
<g style="mix-blend-mode:screen">
<path d="M910.111 934.352C909.719 934.145 909.229 934.3 909.023 934.693C908.817 935.085 908.972 935.575 909.363 935.782C909.755 935.988 910.245 935.833 910.451 935.441C910.658 935.049 910.503 934.558 910.111 934.352Z" fill="#191919"/>
</g>
<g style="mix-blend-mode:screen">
<path d="M936.013 989.201C935.116 988.731 934.013 989.077 933.543 989.975C933.074 990.873 933.42 991.978 934.317 992.448C935.214 992.917 936.317 992.571 936.786 991.673C937.256 990.775 936.91 989.67 936.013 989.201Z" fill="#191919"/>
</g>
<g style="mix-blend-mode:screen">
<path d="M789.941 975.485C789.513 975.258 788.982 975.428 788.755 975.856C788.528 976.285 788.698 976.817 789.126 977.044C789.554 977.271 790.085 977.1 790.312 976.672C790.539 976.244 790.369 975.712 789.941 975.485Z" fill="#191919"/>
</g>
<g style="mix-blend-mode:screen">
<path d="M773.904 803.212C772.971 802.727 771.821 803.088 771.336 804.017C770.852 804.951 771.213 806.103 772.141 806.588C773.074 807.073 774.224 806.712 774.708 805.783C775.193 804.848 774.832 803.697 773.904 803.212Z" fill="#191919"/>
</g>
<g style="mix-blend-mode:screen">
<path d="M884.13 902.557C882.949 901.937 881.49 902.397 880.871 903.579C880.253 904.761 880.711 906.222 881.892 906.841C883.073 907.461 884.532 907.001 885.151 905.819C885.769 904.637 885.31 903.176 884.13 902.557Z" fill="#191919"/>
</g>
<g style="mix-blend-mode:screen">
<path d="M1093.95 974.223C1093.72 974.223 1093.41 974.337 1093.25 974.646C1093.05 975.028 1093.2 975.509 1093.58 975.71C1093.7 975.772 1093.82 975.798 1093.95 975.798C1094.18 975.798 1094.48 975.684 1094.65 975.374C1094.77 975.137 1094.74 974.915 1094.7 974.776C1094.65 974.636 1094.55 974.44 1094.31 974.311C1094.2 974.249 1094.07 974.218 1093.95 974.218L1093.95 974.223Z" fill="#191919"/>
</g>
<g style="mix-blend-mode:screen">
<path d="M845.242 845.917C844.17 845.354 842.839 845.772 842.277 846.846C841.715 847.925 842.133 849.251 843.205 849.814C844.278 850.376 845.608 849.958 846.17 848.885C846.732 847.806 846.314 846.479 845.242 845.917Z" fill="#191919"/>
</g>
<g style="mix-blend-mode:screen">
<path d="M767.766 890.764C766.26 889.975 764.404 890.558 763.615 892.065C762.827 893.572 763.409 895.431 764.915 896.221C766.42 897.01 768.276 896.427 769.065 894.92C769.854 893.412 769.271 891.554 767.766 890.764Z" fill="#191919"/>
</g>
<g style="mix-blend-mode:screen">
<path d="M782.323 1061.95C781.534 1061.54 780.559 1061.84 780.147 1062.63C779.734 1063.42 780.039 1064.4 780.827 1064.81C781.616 1065.23 782.591 1064.92 783.003 1064.13C783.416 1063.34 783.111 1062.37 782.323 1061.95Z" fill="#191919"/>
</g>
<g style="mix-blend-mode:screen">
<path d="M982.681 908.154C982.279 908.154 981.748 908.35 981.459 908.892C981.227 909.331 981.305 909.738 981.367 909.94C981.428 910.141 981.604 910.518 982.042 910.745C982.243 910.848 982.454 910.905 982.676 910.905C983.078 910.905 983.609 910.709 983.893 910.167C984.125 909.728 984.048 909.32 983.986 909.119C983.924 908.918 983.749 908.541 983.31 908.314C983.109 908.21 982.898 908.159 982.681 908.159L982.681 908.154Z" fill="#191919"/>
</g>
<g style="mix-blend-mode:screen">
<path d="M961.115 1089.05C960.687 1088.82 960.156 1088.99 959.929 1089.42C959.702 1089.85 959.872 1090.38 960.3 1090.61C960.728 1090.83 961.259 1090.66 961.486 1090.23C961.713 1089.81 961.543 1089.27 961.115 1089.05Z" fill="#191919"/>
</g>
<g style="mix-blend-mode:screen">
<path d="M986.122 985.486C985.622 985.223 985.003 985.419 984.74 985.919C984.477 986.42 984.673 987.04 985.173 987.303C985.673 987.566 986.292 987.37 986.555 986.869C986.818 986.369 986.622 985.749 986.122 985.486Z" fill="#191919"/>
</g>
<g style="mix-blend-mode:screen">
<path d="M921.355 796.277C919.958 795.544 918.231 796.086 917.504 797.485C916.772 798.884 917.313 800.613 918.711 801.341C920.108 802.069 921.835 801.532 922.562 800.133C923.294 798.735 922.753 797.005 921.355 796.277Z" fill="#191919"/>
</g>
<g style="mix-blend-mode:screen">
<path d="M885.186 1032.71C883.717 1031.94 881.902 1032.51 881.134 1033.98C880.365 1035.45 880.933 1037.27 882.402 1038.03C883.871 1038.8 885.686 1038.24 886.454 1036.77C887.223 1035.29 886.655 1033.48 885.186 1032.71Z" fill="#191919"/>
</g>
<g style="mix-blend-mode:screen">
<path d="M1068.72 1018.92C1068 1018.54 1067.12 1018.82 1066.74 1019.54C1066.37 1020.26 1066.65 1021.15 1067.36 1021.52C1068.08 1021.89 1068.97 1021.62 1069.34 1020.9C1069.71 1020.18 1069.44 1019.29 1068.72 1018.92Z" fill="#191919"/>
</g>
</g>
</g>
<g style="mix-blend-mode:screen">
<path d="M118.015 402.679C116.771 403.326 115.238 402.844 114.592 401.606C113.946 400.36 114.427 398.825 115.664 398.178C116.909 397.531 118.442 398.013 119.088 399.252C119.734 400.497 119.253 402.032 118.015 402.679Z" fill="white"/>
</g>
<g style="mix-blend-mode:screen">
<path d="M261.353 430.132C261.311 430.132 261.181 430.118 261.112 429.988C261.098 429.96 261.057 429.891 261.091 429.781C261.126 429.678 261.201 429.637 261.222 429.623C261.263 429.602 261.305 429.589 261.346 429.589C261.387 429.589 261.518 429.602 261.586 429.733C261.655 429.864 261.607 430.029 261.476 430.098C261.435 430.118 261.401 430.132 261.36 430.132L261.353 430.132Z" fill="white"/>
</g>
<g style="mix-blend-mode:screen">
<path d="M31.1433 511.296C29.7547 512.018 28.0498 511.482 27.3211 510.098C26.5993 508.708 27.1355 507.001 28.5173 506.271C29.899 505.542 31.6107 506.086 32.3394 507.469C33.0612 508.859 32.525 510.566 31.1433 511.296Z" fill="white"/>
</g>
<g style="mix-blend-mode:screen">
<path d="M328.832 548.919C328.269 548.919 327.519 548.643 327.121 547.879C326.797 547.26 326.901 546.695 326.99 546.406C327.079 546.117 327.32 545.594 327.939 545.271C328.22 545.126 328.516 545.051 328.825 545.051C329.389 545.051 330.138 545.326 330.537 546.09C330.86 546.709 330.757 547.274 330.668 547.563C330.578 547.852 330.338 548.375 329.719 548.698C329.437 548.843 329.142 548.919 328.832 548.919Z" fill="white"/>
</g>
<g style="mix-blend-mode:screen">
<path d="M369.316 388.874C368.718 388.874 367.934 388.585 367.515 387.787C367.178 387.14 367.281 386.541 367.377 386.238C367.473 385.935 367.728 385.385 368.374 385.048C368.67 384.896 368.979 384.814 369.309 384.814C369.907 384.814 370.691 385.103 371.11 385.901C371.447 386.548 371.344 387.147 371.247 387.45C371.151 387.752 370.897 388.303 370.251 388.64C369.955 388.792 369.646 388.874 369.316 388.874Z" fill="white"/>
</g>
<g style="mix-blend-mode:screen">
<path d="M243.12 463.11C242.638 463.11 242.006 462.876 241.669 462.229C241.394 461.706 241.483 461.224 241.559 460.983C241.635 460.742 241.841 460.295 242.363 460.02C242.597 459.896 242.851 459.834 243.113 459.834C243.594 459.834 244.226 460.068 244.563 460.715C244.838 461.238 244.749 461.72 244.673 461.96C244.597 462.201 244.391 462.649 243.869 462.924C243.628 463.048 243.381 463.11 243.12 463.11Z" fill="white"/>
</g>
<g style="mix-blend-mode:screen">
<path d="M428.334 544.916C427.771 544.916 427.021 544.641 426.622 543.877C426.299 543.257 426.403 542.693 426.492 542.404C426.581 542.122 426.822 541.592 427.441 541.268C427.722 541.124 428.018 541.048 428.327 541.048C428.891 541.048 429.64 541.323 430.039 542.087C430.534 543.03 430.163 544.2 429.221 544.689C428.939 544.834 428.644 544.909 428.334 544.909L428.334 544.916Z" fill="white"/>
</g>
<g style="mix-blend-mode:screen">
<path d="M458.584 493.21C457.244 493.912 455.594 493.389 454.9 492.054C454.199 490.711 454.721 489.06 456.055 488.364C457.395 487.662 459.045 488.186 459.739 489.521C460.44 490.863 459.918 492.515 458.584 493.21Z" fill="white"/>
</g>
<g style="mix-blend-mode:screen">
<path d="M304.237 483.887C303.714 484.162 303.061 483.955 302.786 483.432C302.511 482.909 302.717 482.255 303.24 481.98C303.762 481.705 304.415 481.911 304.69 482.434C304.965 482.957 304.759 483.611 304.237 483.887Z" fill="white"/>
</g>
<g style="mix-blend-mode:screen">
<path d="M330.297 429.341C329.101 429.968 327.629 429.506 327.004 428.309C326.378 427.111 326.839 425.638 328.035 425.012C329.231 424.386 330.702 424.847 331.328 426.045C331.953 427.242 331.493 428.715 330.297 429.341Z" fill="white"/>
</g>
<g style="mix-blend-mode:screen">
<path d="M184.077 442.776C183.506 443.078 182.798 442.851 182.496 442.28C182.193 441.709 182.42 441 182.991 440.697C183.561 440.394 184.269 440.621 184.572 441.193C184.874 441.764 184.647 442.473 184.077 442.776Z" fill="white"/>
</g>
<g style="mix-blend-mode:screen">
<path d="M168.199 615.351C166.955 615.998 165.422 615.516 164.775 614.277C164.129 613.031 164.611 611.497 165.848 610.85C167.092 610.203 168.625 610.685 169.271 611.923C169.918 613.169 169.436 614.704 168.199 615.351Z" fill="white"/>
</g>
<g style="mix-blend-mode:screen">
<path d="M278.503 516.157C276.929 516.983 274.983 516.37 274.158 514.794C273.333 513.218 273.945 511.27 275.519 510.444C277.094 509.618 279.039 510.231 279.864 511.807C280.689 513.383 280.077 515.331 278.503 516.157Z" fill="white"/>
</g>
<g style="mix-blend-mode:screen">
<path d="M487.953 444.038C487.643 444.038 487.238 443.887 487.018 443.474C486.75 442.965 486.949 442.325 487.464 442.056C487.616 441.973 487.781 441.939 487.946 441.939C488.255 441.939 488.661 442.091 488.881 442.503C489.046 442.82 489.011 443.116 488.949 443.302C488.887 443.488 488.75 443.749 488.434 443.921C488.282 444.004 488.117 444.045 487.953 444.045L487.953 444.038Z" fill="white"/>
</g>
<g style="mix-blend-mode:screen">
<path d="M239.581 572.732C238.151 573.482 236.378 572.925 235.628 571.493C234.879 570.055 235.436 568.286 236.866 567.536C238.296 566.786 240.069 567.343 240.819 568.775C241.568 570.213 241.011 571.982 239.581 572.732Z" fill="white"/>
</g>
<g style="mix-blend-mode:screen">
<path d="M162.241 528.145C160.234 529.198 157.759 528.42 156.707 526.41C155.656 524.401 156.432 521.923 158.44 520.87C160.447 519.817 162.922 520.595 163.974 522.604C165.025 524.614 164.249 527.092 162.241 528.145Z" fill="white"/>
</g>
<g style="mix-blend-mode:screen">
<path d="M176.572 356.524C175.52 357.075 174.221 356.669 173.671 355.616C173.121 354.563 173.527 353.262 174.579 352.711C175.63 352.161 176.93 352.567 177.48 353.62C178.029 354.673 177.624 355.974 176.572 356.524Z" fill="white"/>
</g>
<g style="mix-blend-mode:screen">
<path d="M376.684 510.304C376.148 510.304 375.44 510.042 375.055 509.319C374.745 508.734 374.848 508.191 374.931 507.922C375.013 507.654 375.247 507.151 375.831 506.849C376.1 506.711 376.381 506.635 376.677 506.635C377.213 506.635 377.921 506.897 378.299 507.619C378.609 508.204 378.506 508.748 378.423 509.017C378.341 509.285 378.107 509.787 377.523 510.09C377.254 510.228 376.973 510.297 376.684 510.297L376.684 510.304Z" fill="white"/>
</g>
<g style="mix-blend-mode:screen">
<path d="M355.251 329.213C354.68 329.516 353.972 329.289 353.669 328.717C353.367 328.146 353.594 327.437 354.164 327.134C354.735 326.832 355.443 327.059 355.746 327.63C356.048 328.201 355.821 328.91 355.251 329.213Z" fill="white"/>
</g>
<g style="mix-blend-mode:screen">
<path d="M380.281 432.817C379.615 433.168 378.79 432.907 378.439 432.239C378.089 431.572 378.35 430.746 379.017 430.395C379.683 430.044 380.508 430.305 380.859 430.973C381.21 431.64 380.948 432.466 380.281 432.817Z" fill="white"/>
</g>
<g style="mix-blend-mode:screen">
<path d="M315.797 622.564C313.934 623.542 311.631 622.819 310.662 620.954C309.686 619.089 310.407 616.783 312.27 615.813C314.133 614.842 316.436 615.558 317.406 617.423C318.382 619.288 317.66 621.594 315.797 622.564Z" fill="white"/>
</g>
<g style="mix-blend-mode:screen">
<path d="M279.651 386.179C277.692 387.205 275.272 386.448 274.248 384.486C273.223 382.525 273.98 380.102 275.939 379.077C277.898 378.051 280.318 378.808 281.342 380.77C282.366 382.731 281.61 385.154 279.651 386.179Z" fill="white"/>
</g>
<g style="mix-blend-mode:screen">
<path d="M462.945 399.512C461.989 400.014 460.807 399.643 460.312 398.686C459.81 397.729 460.181 396.545 461.137 396.05C462.092 395.547 463.275 395.919 463.769 396.876C464.271 397.832 463.9 399.016 462.945 399.512Z" fill="white"/>
</g>
<g opacity="0.5">
<g style="mix-blend-mode:screen">
<path d="M117.72 402.117C116.787 402.602 115.638 402.24 115.153 401.311C114.668 400.377 115.029 399.226 115.957 398.741C116.89 398.255 118.04 398.617 118.525 399.546C119.009 400.48 118.649 401.631 117.72 402.117Z" fill="#191919"/>
</g>
<g style="mix-blend-mode:screen">
<path d="M261.352 430.064C261.321 430.064 261.224 430.054 261.172 429.956C261.162 429.935 261.131 429.884 261.156 429.801C261.182 429.724 261.239 429.693 261.254 429.682C261.285 429.667 261.316 429.657 261.347 429.657C261.378 429.657 261.476 429.667 261.528 429.765C261.579 429.863 261.543 429.987 261.445 430.039C261.414 430.054 261.389 430.064 261.358 430.064L261.352 430.064Z" fill="#191919"/>
</g>
<g style="mix-blend-mode:screen">
<path d="M30.8145 510.666C29.773 511.208 28.4944 510.805 27.9479 509.767C27.4065 508.725 27.8087 507.445 28.845 506.897C29.8813 506.35 31.1651 506.758 31.7116 507.796C32.253 508.838 31.8508 510.118 30.8145 510.666Z" fill="#191919"/>
</g>
<g style="mix-blend-mode:screen">
<path d="M328.832 548.436C328.409 548.436 327.847 548.23 327.548 547.657C327.306 547.192 327.383 546.769 327.45 546.552C327.517 546.335 327.697 545.943 328.161 545.7C328.373 545.592 328.595 545.535 328.827 545.535C329.249 545.535 329.811 545.742 330.11 546.315C330.353 546.779 330.275 547.203 330.208 547.419C330.141 547.636 329.961 548.028 329.497 548.271C329.285 548.379 329.064 548.436 328.832 548.436Z" fill="#191919"/>
</g>
<g style="mix-blend-mode:screen">
<path d="M369.313 388.367C368.865 388.367 368.277 388.151 367.963 387.552C367.71 387.067 367.787 386.617 367.86 386.39C367.932 386.163 368.122 385.75 368.607 385.497C368.829 385.384 369.061 385.322 369.308 385.322C369.757 385.322 370.345 385.539 370.659 386.137C370.912 386.623 370.834 387.072 370.762 387.299C370.69 387.526 370.499 387.939 370.015 388.192C369.793 388.305 369.561 388.367 369.313 388.367Z" fill="#191919"/>
</g>
<g style="mix-blend-mode:screen">
<path d="M243.116 462.702C242.756 462.702 242.281 462.527 242.029 462.041C241.822 461.649 241.889 461.288 241.946 461.107C242.003 460.926 242.158 460.591 242.549 460.384C242.725 460.292 242.915 460.245 243.111 460.245C243.472 460.245 243.947 460.421 244.199 460.906C244.405 461.298 244.338 461.659 244.282 461.84C244.225 462.021 244.07 462.356 243.678 462.563C243.498 462.656 243.312 462.702 243.116 462.702Z" fill="#191919"/>
</g>
<g style="mix-blend-mode:screen">
<path d="M428.334 544.433C427.911 544.433 427.349 544.227 427.05 543.654C426.808 543.189 426.885 542.766 426.952 542.549C427.019 542.337 427.199 541.94 427.663 541.697C427.875 541.589 428.097 541.532 428.329 541.532C428.751 541.532 429.313 541.739 429.612 542.312C429.984 543.019 429.705 543.896 428.999 544.263C428.787 544.371 428.566 544.428 428.334 544.428L428.334 544.433Z" fill="#191919"/>
</g>
<g style="mix-blend-mode:screen">
<path d="M458.267 492.606C457.262 493.133 456.024 492.74 455.503 491.739C454.978 490.732 455.369 489.493 456.37 488.972C457.375 488.446 458.612 488.838 459.133 489.839C459.659 490.846 459.267 492.085 458.267 492.606Z" fill="#191919"/>
</g>
<g style="mix-blend-mode:screen">
<path d="M304.111 483.648C303.719 483.855 303.229 483.7 303.023 483.308C302.817 482.915 302.972 482.425 303.363 482.218C303.755 482.012 304.245 482.167 304.451 482.559C304.658 482.951 304.503 483.442 304.111 483.648Z" fill="#191919"/>
</g>
<g style="mix-blend-mode:screen">
<path d="M330.013 428.799C329.116 429.269 328.013 428.923 327.543 428.025C327.074 427.127 327.42 426.022 328.317 425.553C329.214 425.083 330.317 425.429 330.786 426.327C331.256 427.225 330.91 428.33 330.013 428.799Z" fill="#191919"/>
</g>
<g style="mix-blend-mode:screen">
<path d="M183.941 442.515C183.513 442.742 182.982 442.572 182.755 442.144C182.528 441.715 182.698 441.184 183.126 440.956C183.554 440.729 184.085 440.9 184.312 441.328C184.539 441.757 184.369 442.288 183.941 442.515Z" fill="#191919"/>
</g>
<g style="mix-blend-mode:screen">
<path d="M167.904 614.788C166.971 615.273 165.821 614.912 165.336 613.983C164.852 613.049 165.213 611.898 166.141 611.412C167.074 610.927 168.224 611.288 168.708 612.218C169.193 613.152 168.832 614.303 167.904 614.788Z" fill="#191919"/>
</g>
<g style="mix-blend-mode:screen">
<path d="M278.13 515.443C276.949 516.063 275.49 515.603 274.871 514.421C274.253 513.239 274.711 511.778 275.892 511.159C277.073 510.539 278.532 510.999 279.151 512.181C279.769 513.363 279.31 514.824 278.13 515.443Z" fill="#191919"/>
</g>
<g style="mix-blend-mode:screen">
<path d="M487.951 443.777C487.719 443.777 487.415 443.663 487.25 443.354C487.048 442.972 487.198 442.492 487.585 442.29C487.698 442.228 487.822 442.203 487.946 442.203C488.178 442.203 488.482 442.316 488.647 442.626C488.77 442.863 488.745 443.085 488.698 443.225C488.652 443.364 488.549 443.56 488.312 443.689C488.198 443.751 488.074 443.782 487.951 443.782L487.951 443.777Z" fill="#191919"/>
</g>
<g style="mix-blend-mode:screen">
<path d="M239.242 572.084C238.17 572.646 236.839 572.228 236.277 571.154C235.715 570.076 236.133 568.749 237.205 568.186C238.278 567.624 239.608 568.042 240.17 569.115C240.732 570.194 240.314 571.521 239.242 572.084Z" fill="#191919"/>
</g>
<g style="mix-blend-mode:screen">
<path d="M161.766 527.236C160.26 528.026 158.404 527.442 157.615 525.935C156.827 524.428 157.409 522.569 158.915 521.78C160.42 520.99 162.276 521.573 163.065 523.08C163.854 524.588 163.271 526.446 161.766 527.236Z" fill="#191919"/>
</g>
<g style="mix-blend-mode:screen">
<path d="M176.323 356.047C175.534 356.46 174.559 356.156 174.147 355.366C173.734 354.576 174.039 353.6 174.827 353.188C175.616 352.775 176.591 353.079 177.003 353.869C177.416 354.659 177.111 355.634 176.323 356.047Z" fill="#191919"/>
</g>
<g style="mix-blend-mode:screen">
<path d="M376.681 509.846C376.279 509.846 375.748 509.65 375.459 509.108C375.227 508.669 375.305 508.262 375.367 508.06C375.428 507.859 375.604 507.482 376.042 507.255C376.243 507.152 376.454 507.095 376.676 507.095C377.078 507.095 377.609 507.291 377.893 507.833C378.125 508.272 378.048 508.68 377.986 508.881C377.924 509.082 377.749 509.459 377.31 509.686C377.109 509.79 376.898 509.841 376.681 509.841L376.681 509.846Z" fill="#191919"/>
</g>
<g style="mix-blend-mode:screen">
<path d="M355.115 328.953C354.687 329.18 354.156 329.01 353.929 328.581C353.702 328.153 353.872 327.621 354.3 327.394C354.728 327.167 355.259 327.337 355.486 327.766C355.713 328.194 355.543 328.726 355.115 328.953Z" fill="#191919"/>
</g>
<g style="mix-blend-mode:screen">
<path d="M380.122 432.514C379.622 432.778 379.003 432.581 378.74 432.081C378.477 431.58 378.673 430.961 379.173 430.697C379.673 430.434 380.292 430.63 380.555 431.131C380.818 431.632 380.622 432.251 380.122 432.514Z" fill="#191919"/>
</g>
<g style="mix-blend-mode:screen">
<path d="M315.355 621.723C313.958 622.456 312.231 621.914 311.504 620.515C310.772 619.116 311.313 617.387 312.711 616.659C314.108 615.931 315.835 616.468 316.562 617.867C317.294 619.266 316.753 620.995 315.355 621.723Z" fill="#191919"/>
</g>
<g style="mix-blend-mode:screen">
<path d="M279.186 385.292C277.717 386.061 275.902 385.494 275.134 384.022C274.365 382.551 274.933 380.734 276.402 379.965C277.871 379.196 279.686 379.764 280.454 381.235C281.223 382.706 280.655 384.523 279.186 385.292Z" fill="#191919"/>
</g>
<g style="mix-blend-mode:screen">
<path d="M462.719 399.08C462.002 399.456 461.115 399.178 460.744 398.46C460.368 397.743 460.646 396.855 461.363 396.483C462.079 396.106 462.966 396.385 463.337 397.103C463.714 397.82 463.435 398.708 462.719 399.08Z" fill="#191919"/>
</g>
</g>
<g style="mix-blend-mode:screen">
<path d="M724.015 327.321C722.771 326.674 721.238 327.156 720.592 328.394C719.946 329.64 720.427 331.175 721.664 331.822C722.909 332.469 724.442 331.987 725.088 330.748C725.734 329.503 725.253 327.968 724.015 327.321Z" fill="white"/>
</g>
<g style="mix-blend-mode:screen">
<path d="M867.353 299.868C867.311 299.868 867.181 299.882 867.112 300.012C867.098 300.04 867.057 300.109 867.091 300.219C867.126 300.322 867.201 300.363 867.222 300.377C867.263 300.398 867.305 300.411 867.346 300.411C867.387 300.411 867.518 300.398 867.586 300.267C867.655 300.136 867.607 299.971 867.476 299.902C867.435 299.882 867.401 299.868 867.36 299.868L867.353 299.868Z" fill="white"/>
</g>
<g style="mix-blend-mode:screen">
<path d="M637.143 218.704C635.755 217.982 634.05 218.518 633.321 219.902C632.599 221.292 633.136 222.999 634.517 223.729C635.899 224.458 637.611 223.914 638.339 222.531C639.061 221.141 638.525 219.434 637.143 218.704Z" fill="white"/>
</g>
<g style="mix-blend-mode:screen">
<path d="M934.832 181.081C934.269 181.081 933.519 181.357 933.121 182.121C932.797 182.74 932.901 183.305 932.99 183.594C933.079 183.883 933.32 184.406 933.939 184.729C934.22 184.874 934.516 184.949 934.825 184.949C935.389 184.949 936.138 184.674 936.537 183.91C936.86 183.291 936.757 182.726 936.668 182.437C936.578 182.148 936.338 181.625 935.719 181.302C935.437 181.157 935.142 181.081 934.832 181.081Z" fill="white"/>
</g>
<g style="mix-blend-mode:screen">
<path d="M975.316 341.126C974.718 341.126 973.934 341.415 973.515 342.213C973.178 342.86 973.281 343.459 973.377 343.762C973.473 344.065 973.728 344.615 974.374 344.952C974.67 345.104 974.979 345.186 975.309 345.186C975.907 345.186 976.691 344.897 977.11 344.099C977.447 343.452 977.344 342.853 977.247 342.55C977.151 342.248 976.897 341.697 976.251 341.36C975.955 341.208 975.646 341.126 975.316 341.126Z" fill="white"/>
</g>
<g style="mix-blend-mode:screen">
<path d="M849.12 266.89C848.638 266.89 848.006 267.124 847.669 267.771C847.394 268.294 847.483 268.776 847.559 269.017C847.635 269.258 847.841 269.705 848.363 269.98C848.597 270.104 848.851 270.166 849.113 270.166C849.594 270.166 850.226 269.932 850.563 269.285C850.838 268.762 850.749 268.28 850.673 268.04C850.597 267.799 850.391 267.351 849.869 267.076C849.628 266.952 849.381 266.89 849.12 266.89Z" fill="white"/>
</g>
<g style="mix-blend-mode:screen">
<path d="M1034.33 185.084C1033.77 185.084 1033.02 185.359 1032.62 186.123C1032.3 186.743 1032.4 187.307 1032.49 187.596C1032.58 187.878 1032.82 188.408 1033.44 188.732C1033.72 188.876 1034.02 188.952 1034.33 188.952C1034.89 188.952 1035.64 188.677 1036.04 187.913C1036.53 186.97 1036.16 185.8 1035.22 185.311C1034.94 185.166 1034.64 185.091 1034.33 185.091L1034.33 185.084Z" fill="white"/>
</g>
<g style="mix-blend-mode:screen">
<path d="M1064.58 236.79C1063.24 236.088 1061.59 236.611 1060.9 237.946C1060.2 239.289 1060.72 240.94 1062.05 241.636C1063.4 242.338 1065.04 241.814 1065.74 240.479C1066.44 239.137 1065.92 237.485 1064.58 236.79Z" fill="white"/>
</g>
<g style="mix-blend-mode:screen">
<path d="M910.237 246.113C909.714 245.838 909.061 246.045 908.786 246.568C908.511 247.091 908.717 247.745 909.24 248.02C909.762 248.295 910.415 248.089 910.69 247.566C910.965 247.043 910.759 246.389 910.237 246.113Z" fill="white"/>
</g>
<g style="mix-blend-mode:screen">
<path d="M936.297 300.659C935.101 300.032 933.629 300.494 933.004 301.691C932.378 302.889 932.839 304.362 934.035 304.988C935.231 305.614 936.702 305.153 937.328 303.955C937.953 302.758 937.493 301.285 936.297 300.659Z" fill="white"/>
</g>
<g style="mix-blend-mode:screen">
<path d="M790.077 287.224C789.506 286.922 788.798 287.149 788.496 287.72C788.193 288.291 788.42 289 788.991 289.303C789.561 289.606 790.269 289.379 790.572 288.807C790.874 288.236 790.647 287.527 790.077 287.224Z" fill="white"/>
</g>
<g style="mix-blend-mode:screen">
<path d="M774.199 114.649C772.955 114.002 771.422 114.484 770.775 115.723C770.129 116.969 770.611 118.503 771.848 119.15C773.092 119.797 774.625 119.315 775.271 118.077C775.918 116.831 775.436 115.296 774.199 114.649Z" fill="white"/>
</g>
<g style="mix-blend-mode:screen">
<path d="M884.503 213.843C882.929 213.017 880.983 213.63 880.158 215.206C879.333 216.782 879.945 218.73 881.519 219.556C883.094 220.382 885.039 219.769 885.864 218.193C886.689 216.617 886.077 214.669 884.503 213.843Z" fill="white"/>
</g>
<g style="mix-blend-mode:screen">
<path d="M1093.95 285.962C1093.64 285.962 1093.24 286.113 1093.02 286.526C1092.75 287.035 1092.95 287.675 1093.46 287.944C1093.62 288.027 1093.78 288.061 1093.95 288.061C1094.25 288.061 1094.66 287.909 1094.88 287.497C1095.05 287.18 1095.01 286.884 1094.95 286.698C1094.89 286.512 1094.75 286.251 1094.43 286.079C1094.28 285.996 1094.12 285.955 1093.95 285.955L1093.95 285.962Z" fill="white"/>
</g>
<g style="mix-blend-mode:screen">
<path d="M845.581 157.268C844.151 156.518 842.378 157.075 841.628 158.507C840.879 159.945 841.436 161.714 842.866 162.464C844.296 163.214 846.069 162.657 846.819 161.225C847.568 159.787 847.011 158.018 845.581 157.268Z" fill="white"/>
</g>
<g style="mix-blend-mode:screen">
<path d="M768.241 201.855C766.234 200.802 763.759 201.58 762.707 203.59C761.656 205.599 762.432 208.077 764.44 209.13C766.447 210.183 768.922 209.405 769.974 207.396C771.025 205.386 770.249 202.908 768.241 201.855Z" fill="white"/>
</g>
<g style="mix-blend-mode:screen">
<path d="M782.572 373.476C781.52 372.925 780.221 373.331 779.671 374.384C779.121 375.437 779.527 376.738 780.579 377.289C781.63 377.839 782.93 377.433 783.48 376.38C784.029 375.327 783.624 374.026 782.572 373.476Z" fill="white"/>
</g>
<g style="mix-blend-mode:screen">
<path d="M982.684 219.696C982.148 219.696 981.44 219.958 981.055 220.681C980.745 221.266 980.848 221.809 980.931 222.078C981.013 222.346 981.247 222.849 981.831 223.151C982.1 223.289 982.381 223.365 982.677 223.365C983.213 223.365 983.921 223.103 984.299 222.381C984.609 221.796 984.506 221.252 984.423 220.983C984.341 220.715 984.107 220.213 983.523 219.91C983.254 219.772 982.973 219.703 982.684 219.703L982.684 219.696Z" fill="white"/>
</g>
<g style="mix-blend-mode:screen">
<path d="M961.251 400.787C960.68 400.484 959.972 400.711 959.669 401.283C959.367 401.854 959.594 402.563 960.164 402.866C960.735 403.168 961.443 402.941 961.746 402.37C962.048 401.799 961.821 401.09 961.251 400.787Z" fill="white"/>
</g>
<g style="mix-blend-mode:screen">
<path d="M986.281 297.183C985.615 296.832 984.79 297.093 984.439 297.761C984.089 298.428 984.35 299.254 985.017 299.605C985.683 299.956 986.508 299.695 986.859 299.027C987.21 298.36 986.948 297.534 986.281 297.183Z" fill="white"/>
</g>
<g style="mix-blend-mode:screen">
<path d="M921.797 107.436C919.934 106.458 917.631 107.181 916.662 109.046C915.686 110.911 916.407 113.217 918.27 114.187C920.133 115.158 922.436 114.442 923.406 112.577C924.382 110.712 923.66 108.406 921.797 107.436Z" fill="white"/>
</g>
<g style="mix-blend-mode:screen">
<path d="M885.651 343.821C883.692 342.795 881.272 343.552 880.248 345.514C879.223 347.475 879.98 349.898 881.939 350.923C883.898 351.949 886.318 351.192 887.342 349.23C888.366 347.269 887.61 344.846 885.651 343.821Z" fill="white"/>
</g>
<g style="mix-blend-mode:screen">
<path d="M1068.94 330.488C1067.99 329.986 1066.81 330.357 1066.31 331.314C1065.81 332.271 1066.18 333.455 1067.14 333.95C1068.09 334.453 1069.27 334.081 1069.77 333.124C1070.27 332.168 1069.9 330.984 1068.94 330.488Z" fill="white"/>
</g>
<g opacity="0.5">
<g style="mix-blend-mode:screen">
<path d="M723.72 327.883C722.787 327.398 721.638 327.76 721.153 328.689C720.668 329.623 721.029 330.774 721.957 331.259C722.89 331.745 724.04 331.383 724.525 330.454C725.009 329.52 724.649 328.369 723.72 327.883Z" fill="#191919"/>
</g>
<g style="mix-blend-mode:screen">
<path d="M867.352 299.936C867.321 299.936 867.224 299.946 867.172 300.044C867.162 300.065 867.131 300.116 867.156 300.199C867.182 300.276 867.239 300.307 867.254 300.318C867.285 300.333 867.316 300.343 867.347 300.343C867.378 300.343 867.476 300.333 867.528 300.235C867.579 300.137 867.543 300.013 867.445 299.961C867.414 299.946 867.389 299.936 867.358 299.936L867.352 299.936Z" fill="#191919"/>
</g>
<g style="mix-blend-mode:screen">
<path d="M636.814 219.334C635.773 218.792 634.494 219.195 633.948 220.233C633.407 221.275 633.809 222.555 634.845 223.103C635.881 223.65 637.165 223.242 637.712 222.204C638.253 221.162 637.851 219.882 636.814 219.334Z" fill="#191919"/>
</g>
<g style="mix-blend-mode:screen">
<path d="M934.832 181.564C934.409 181.564 933.847 181.77 933.548 182.343C933.306 182.808 933.383 183.231 933.45 183.448C933.517 183.665 933.697 184.057 934.161 184.3C934.373 184.408 934.595 184.465 934.827 184.465C935.249 184.465 935.811 184.258 936.11 183.685C936.353 183.221 936.275 182.797 936.208 182.581C936.141 182.364 935.961 181.972 935.497 181.729C935.285 181.621 935.064 181.564 934.832 181.564Z" fill="#191919"/>
</g>
<g style="mix-blend-mode:screen">
<path d="M975.313 341.633C974.865 341.633 974.277 341.849 973.963 342.448C973.71 342.933 973.787 343.383 973.86 343.61C973.932 343.837 974.122 344.25 974.607 344.503C974.829 344.616 975.061 344.678 975.308 344.678C975.757 344.678 976.345 344.461 976.659 343.863C976.912 343.377 976.834 342.928 976.762 342.701C976.69 342.474 976.499 342.061 976.015 341.808C975.793 341.695 975.561 341.633 975.313 341.633Z" fill="#191919"/>
</g>
<g style="mix-blend-mode:screen">
<path d="M849.116 267.298C848.756 267.298 848.281 267.473 848.029 267.959C847.822 268.351 847.889 268.712 847.946 268.893C848.003 269.074 848.158 269.409 848.549 269.616C848.725 269.708 848.915 269.755 849.111 269.755C849.472 269.755 849.947 269.579 850.199 269.094C850.405 268.702 850.338 268.341 850.282 268.16C850.225 267.979 850.07 267.644 849.678 267.437C849.498 267.344 849.312 267.298 849.116 267.298Z" fill="#191919"/>
</g>
<g style="mix-blend-mode:screen">
<path d="M1034.33 185.567C1033.91 185.567 1033.35 185.773 1033.05 186.346C1032.81 186.811 1032.88 187.234 1032.95 187.451C1033.02 187.663 1033.2 188.06 1033.66 188.303C1033.87 188.411 1034.1 188.468 1034.33 188.468C1034.75 188.468 1035.31 188.261 1035.61 187.688C1035.98 186.981 1035.71 186.104 1035 185.737C1034.79 185.629 1034.57 185.572 1034.33 185.572L1034.33 185.567Z" fill="#191919"/>
</g>
<g style="mix-blend-mode:screen">
<path d="M1064.27 237.394C1063.26 236.867 1062.02 237.26 1061.5 238.261C1060.98 239.268 1061.37 240.507 1062.37 241.028C1063.37 241.554 1064.61 241.162 1065.13 240.161C1065.66 239.154 1065.27 237.915 1064.27 237.394Z" fill="#191919"/>
</g>
<g style="mix-blend-mode:screen">
<path d="M910.111 246.352C909.719 246.145 909.229 246.3 909.023 246.692C908.817 247.085 908.972 247.575 909.363 247.782C909.755 247.988 910.245 247.833 910.451 247.441C910.658 247.049 910.503 246.558 910.111 246.352Z" fill="#191919"/>
</g>
<g style="mix-blend-mode:screen">
<path d="M936.013 301.201C935.116 300.731 934.013 301.077 933.543 301.975C933.074 302.873 933.42 303.978 934.317 304.447C935.214 304.917 936.317 304.571 936.786 303.673C937.256 302.775 936.91 301.67 936.013 301.201Z" fill="#191919"/>
</g>
<g style="mix-blend-mode:screen">
<path d="M789.941 287.485C789.513 287.258 788.982 287.428 788.755 287.856C788.528 288.285 788.698 288.816 789.126 289.044C789.554 289.271 790.085 289.1 790.312 288.672C790.539 288.243 790.369 287.712 789.941 287.485Z" fill="#191919"/>
</g>
<g style="mix-blend-mode:screen">
<path d="M773.904 115.212C772.971 114.727 771.821 115.088 771.336 116.017C770.852 116.951 771.213 118.102 772.141 118.588C773.074 119.073 774.224 118.712 774.708 117.782C775.193 116.848 774.832 115.697 773.904 115.212Z" fill="#191919"/>
</g>
<g style="mix-blend-mode:screen">
<path d="M884.13 214.557C882.949 213.937 881.49 214.397 880.871 215.579C880.253 216.761 880.711 218.222 881.892 218.841C883.073 219.461 884.532 219.001 885.151 217.819C885.769 216.637 885.31 215.176 884.13 214.557Z" fill="#191919"/>
</g>
<g style="mix-blend-mode:screen">
<path d="M1093.95 286.223C1093.72 286.223 1093.41 286.337 1093.25 286.646C1093.05 287.028 1093.2 287.508 1093.58 287.71C1093.7 287.772 1093.82 287.797 1093.95 287.797C1094.18 287.797 1094.48 287.684 1094.65 287.374C1094.77 287.137 1094.74 286.915 1094.7 286.775C1094.65 286.636 1094.55 286.44 1094.31 286.311C1094.2 286.249 1094.07 286.218 1093.95 286.218L1093.95 286.223Z" fill="#191919"/>
</g>
<g style="mix-blend-mode:screen">
<path d="M845.242 157.916C844.17 157.354 842.839 157.772 842.277 158.846C841.715 159.924 842.133 161.251 843.205 161.814C844.278 162.376 845.608 161.958 846.17 160.885C846.732 159.806 846.314 158.479 845.242 157.916Z" fill="#191919"/>
</g>
<g style="mix-blend-mode:screen">
<path d="M767.766 202.764C766.26 201.974 764.404 202.558 763.615 204.065C762.827 205.572 763.409 207.431 764.915 208.22C766.42 209.01 768.276 208.427 769.065 206.92C769.854 205.412 769.271 203.554 767.766 202.764Z" fill="#191919"/>
</g>
<g style="mix-blend-mode:screen">
<path d="M782.323 373.953C781.534 373.54 780.559 373.844 780.147 374.634C779.734 375.424 780.039 376.4 780.827 376.812C781.616 377.225 782.591 376.921 783.003 376.131C783.416 375.341 783.111 374.366 782.323 373.953Z" fill="#191919"/>
</g>
<g style="mix-blend-mode:screen">
<path d="M982.681 220.154C982.279 220.154 981.748 220.35 981.459 220.892C981.227 221.331 981.305 221.738 981.367 221.94C981.428 222.141 981.604 222.518 982.042 222.745C982.243 222.848 982.454 222.905 982.676 222.905C983.078 222.905 983.609 222.709 983.893 222.167C984.125 221.728 984.048 221.32 983.986 221.119C983.924 220.918 983.749 220.541 983.31 220.314C983.109 220.21 982.898 220.159 982.681 220.159L982.681 220.154Z" fill="#191919"/>
</g>
<g style="mix-blend-mode:screen">
<path d="M961.115 401.047C960.687 400.82 960.156 400.99 959.929 401.419C959.702 401.847 959.872 402.379 960.3 402.606C960.728 402.833 961.259 402.663 961.486 402.234C961.713 401.806 961.543 401.274 961.115 401.047Z" fill="#191919"/>
</g>
<g style="mix-blend-mode:screen">
<path d="M986.122 297.486C985.622 297.222 985.003 297.419 984.74 297.919C984.477 298.42 984.673 299.039 985.173 299.303C985.673 299.566 986.292 299.37 986.555 298.869C986.818 298.368 986.622 297.749 986.122 297.486Z" fill="#191919"/>
</g>
<g style="mix-blend-mode:screen">
<path d="M921.355 108.277C919.958 107.544 918.231 108.086 917.504 109.485C916.772 110.884 917.313 112.613 918.711 113.341C920.108 114.069 921.835 113.532 922.562 112.133C923.294 110.734 922.753 109.005 921.355 108.277Z" fill="#191919"/>
</g>
<g style="mix-blend-mode:screen">
<path d="M885.186 344.708C883.717 343.939 881.902 344.506 881.134 345.978C880.365 347.449 880.933 349.266 882.402 350.035C883.871 350.804 885.686 350.236 886.454 348.765C887.223 347.294 886.655 345.477 885.186 344.708Z" fill="#191919"/>
</g>
<g style="mix-blend-mode:screen">
<path d="M1068.72 330.92C1068 330.544 1067.12 330.822 1066.74 331.54C1066.37 332.257 1066.65 333.145 1067.36 333.517C1068.08 333.894 1068.97 333.615 1069.34 332.897C1069.71 332.18 1069.44 331.292 1068.72 330.92Z" fill="#191919"/>
</g>
</g>
<g style="mix-blend-mode:screen">
<path d="M1208.98 759.321C1210.23 758.674 1211.76 759.155 1212.41 760.394C1213.05 761.64 1212.57 763.175 1211.34 763.822C1210.09 764.469 1208.56 763.987 1207.91 762.748C1207.27 761.502 1207.75 759.968 1208.98 759.321Z" fill="white"/>
</g>
<g style="mix-blend-mode:screen">
<path d="M1065.65 731.868C1065.69 731.868 1065.82 731.881 1065.89 732.012C1065.9 732.04 1065.94 732.109 1065.91 732.219C1065.87 732.322 1065.8 732.363 1065.78 732.377C1065.74 732.398 1065.7 732.411 1065.65 732.411C1065.61 732.411 1065.48 732.398 1065.41 732.267C1065.34 732.136 1065.39 731.971 1065.52 731.902C1065.56 731.881 1065.6 731.868 1065.64 731.868L1065.65 731.868Z" fill="white"/>
</g>
<g style="mix-blend-mode:screen">
<path d="M1295.86 650.704C1297.25 649.982 1298.95 650.518 1299.68 651.902C1300.4 653.292 1299.86 654.999 1298.48 655.729C1297.1 656.458 1295.39 655.914 1294.66 654.531C1293.94 653.141 1294.47 651.434 1295.86 650.704Z" fill="white"/>
</g>
<g style="mix-blend-mode:screen">
<path d="M998.168 613.081C998.731 613.081 999.481 613.357 999.879 614.121C1000.2 614.74 1000.1 615.305 1000.01 615.594C999.921 615.883 999.68 616.406 999.061 616.729C998.78 616.874 998.484 616.949 998.175 616.949C997.611 616.949 996.862 616.674 996.463 615.91C996.14 615.291 996.243 614.726 996.332 614.437C996.422 614.148 996.662 613.625 997.281 613.302C997.563 613.157 997.858 613.081 998.168 613.081Z" fill="white"/>
</g>
<g style="mix-blend-mode:screen">
<path d="M957.684 773.126C958.282 773.126 959.066 773.415 959.485 774.213C959.822 774.86 959.719 775.459 959.623 775.762C959.527 776.064 959.272 776.615 958.626 776.952C958.33 777.104 958.021 777.186 957.691 777.186C957.093 777.186 956.309 776.897 955.89 776.099C955.553 775.452 955.656 774.853 955.753 774.55C955.849 774.247 956.103 773.697 956.749 773.36C957.045 773.208 957.354 773.126 957.684 773.126Z" fill="white"/>
</g>
<g style="mix-blend-mode:screen">
<path d="M1083.88 698.89C1084.36 698.89 1084.99 699.124 1085.33 699.771C1085.61 700.294 1085.52 700.776 1085.44 701.017C1085.37 701.258 1085.16 701.705 1084.64 701.98C1084.4 702.104 1084.15 702.166 1083.89 702.166C1083.41 702.166 1082.77 701.932 1082.44 701.285C1082.16 700.762 1082.25 700.28 1082.33 700.04C1082.4 699.799 1082.61 699.351 1083.13 699.076C1083.37 698.952 1083.62 698.89 1083.88 698.89Z" fill="white"/>
</g>
<g style="mix-blend-mode:screen">
<path d="M898.666 617.084C899.229 617.084 899.979 617.359 900.378 618.123C900.701 618.743 900.597 619.307 900.508 619.596C900.419 619.878 900.178 620.408 899.559 620.732C899.278 620.876 898.982 620.952 898.673 620.952C898.109 620.952 897.36 620.677 896.961 619.913C896.466 618.97 896.837 617.8 897.779 617.311C898.061 617.166 898.356 617.091 898.666 617.091L898.666 617.084Z" fill="white"/>
</g>
<g style="mix-blend-mode:screen">
<path d="M868.416 668.79C869.756 668.088 871.406 668.611 872.1 669.946C872.801 671.289 872.279 672.94 870.945 673.636C869.605 674.338 867.955 673.814 867.261 672.479C866.56 671.137 867.082 669.485 868.416 668.79Z" fill="white"/>
</g>
<g style="mix-blend-mode:screen">
<path d="M1022.76 678.113C1023.29 677.838 1023.94 678.045 1024.21 678.568C1024.49 679.091 1024.28 679.745 1023.76 680.02C1023.24 680.295 1022.58 680.089 1022.31 679.566C1022.03 679.043 1022.24 678.389 1022.76 678.113Z" fill="white"/>
</g>
<g style="mix-blend-mode:screen">
<path d="M996.703 732.659C997.899 732.032 999.371 732.493 999.996 733.691C1000.62 734.889 1000.16 736.361 998.965 736.988C997.769 737.614 996.298 737.153 995.672 735.955C995.047 734.758 995.507 733.285 996.703 732.659Z" fill="white"/>
</g>
<g style="mix-blend-mode:screen">
<path d="M1142.92 719.224C1143.49 718.922 1144.2 719.149 1144.5 719.72C1144.81 720.291 1144.58 721 1144.01 721.303C1143.44 721.606 1142.73 721.379 1142.43 720.807C1142.13 720.236 1142.35 719.527 1142.92 719.224Z" fill="white"/>
</g>
<g style="mix-blend-mode:screen">
<path d="M1158.8 546.649C1160.05 546.002 1161.58 546.484 1162.22 547.723C1162.87 548.969 1162.39 550.503 1161.15 551.15C1159.91 551.797 1158.37 551.315 1157.73 550.077C1157.08 548.831 1157.56 547.296 1158.8 546.649Z" fill="white"/>
</g>
<g style="mix-blend-mode:screen">
<path d="M1048.5 645.843C1050.07 645.017 1052.02 645.63 1052.84 647.206C1053.67 648.782 1053.05 650.73 1051.48 651.556C1049.91 652.382 1047.96 651.769 1047.14 650.193C1046.31 648.617 1046.92 646.669 1048.5 645.843Z" fill="white"/>
</g>
<g style="mix-blend-mode:screen">
<path d="M839.047 717.962C839.357 717.962 839.762 718.113 839.982 718.526C840.25 719.036 840.051 719.676 839.536 719.944C839.384 720.027 839.219 720.061 839.054 720.061C838.745 720.061 838.339 719.91 838.119 719.497C837.954 719.18 837.989 718.884 838.051 718.698C838.113 718.512 838.25 718.251 838.566 718.079C838.718 717.996 838.883 717.955 839.047 717.955L839.047 717.962Z" fill="white"/>
</g>
<g style="mix-blend-mode:screen">
<path d="M1087.42 589.268C1088.85 588.518 1090.62 589.075 1091.37 590.507C1092.12 591.945 1091.56 593.714 1090.13 594.464C1088.7 595.214 1086.93 594.657 1086.18 593.225C1085.43 591.787 1085.99 590.018 1087.42 589.268Z" fill="white"/>
</g>
<g style="mix-blend-mode:screen">
<path d="M1164.76 633.855C1166.77 632.802 1169.24 633.58 1170.29 635.59C1171.34 637.599 1170.57 640.077 1168.56 641.13C1166.55 642.183 1164.08 641.405 1163.03 639.396C1161.97 637.386 1162.75 634.908 1164.76 633.855Z" fill="white"/>
</g>
<g style="mix-blend-mode:screen">
<path d="M1150.43 805.476C1151.48 804.925 1152.78 805.331 1153.33 806.384C1153.88 807.437 1153.47 808.738 1152.42 809.289C1151.37 809.839 1150.07 809.433 1149.52 808.38C1148.97 807.327 1149.38 806.026 1150.43 805.476Z" fill="white"/>
</g>
<g style="mix-blend-mode:screen">
<path d="M950.316 651.696C950.852 651.696 951.56 651.958 951.945 652.681C952.255 653.266 952.152 653.809 952.069 654.078C951.987 654.346 951.753 654.849 951.169 655.151C950.9 655.289 950.619 655.365 950.323 655.365C949.787 655.365 949.079 655.103 948.701 654.381C948.391 653.796 948.494 653.252 948.577 652.983C948.659 652.715 948.893 652.213 949.477 651.91C949.746 651.772 950.027 651.703 950.316 651.703L950.316 651.696Z" fill="white"/>
</g>
<g style="mix-blend-mode:screen">
<path d="M971.749 832.787C972.32 832.484 973.028 832.711 973.331 833.283C973.633 833.854 973.406 834.563 972.836 834.866C972.265 835.168 971.557 834.941 971.254 834.37C970.952 833.799 971.179 833.09 971.749 832.787Z" fill="white"/>
</g>
<g style="mix-blend-mode:screen">
<path d="M946.719 729.182C947.385 728.831 948.21 729.093 948.561 729.761C948.911 730.428 948.65 731.254 947.983 731.605C947.317 731.956 946.492 731.695 946.141 731.027C945.79 730.359 946.052 729.533 946.719 729.182Z" fill="white"/>
</g>
<g style="mix-blend-mode:screen">
<path d="M1011.2 539.436C1013.07 538.458 1015.37 539.181 1016.34 541.046C1017.31 542.911 1016.59 545.217 1014.73 546.187C1012.87 547.158 1010.56 546.442 1009.59 544.577C1008.62 542.712 1009.34 540.406 1011.2 539.436Z" fill="white"/>
</g>
<g style="mix-blend-mode:screen">
<path d="M1047.35 775.821C1049.31 774.795 1051.73 775.552 1052.75 777.514C1053.78 779.475 1053.02 781.898 1051.06 782.923C1049.1 783.949 1046.68 783.192 1045.66 781.23C1044.63 779.269 1045.39 776.846 1047.35 775.821Z" fill="white"/>
</g>
<g style="mix-blend-mode:screen">
<path d="M864.055 762.488C865.011 761.986 866.193 762.358 866.688 763.314C867.19 764.271 866.819 765.455 865.863 765.95C864.908 766.453 863.725 766.081 863.231 765.124C862.729 764.168 863.1 762.984 864.055 762.488Z" fill="white"/>
</g>
<g opacity="0.5">
<g style="mix-blend-mode:screen">
<path d="M1209.28 759.884C1210.21 759.398 1211.36 759.76 1211.85 760.689C1212.33 761.623 1211.97 762.774 1211.04 763.259C1210.11 763.745 1208.96 763.383 1208.48 762.454C1207.99 761.52 1208.35 760.369 1209.28 759.884Z" fill="#191919"/>
</g>
<g style="mix-blend-mode:screen">
<path d="M1065.65 731.936C1065.68 731.936 1065.78 731.946 1065.83 732.044C1065.84 732.065 1065.87 732.116 1065.84 732.199C1065.82 732.276 1065.76 732.307 1065.75 732.318C1065.71 732.333 1065.68 732.344 1065.65 732.344C1065.62 732.344 1065.52 732.333 1065.47 732.235C1065.42 732.137 1065.46 732.013 1065.55 731.962C1065.59 731.946 1065.61 731.936 1065.64 731.936L1065.65 731.936Z" fill="#191919"/>
</g>
<g style="mix-blend-mode:screen">
<path d="M1296.19 651.334C1297.23 650.792 1298.51 651.195 1299.05 652.233C1299.59 653.275 1299.19 654.556 1298.16 655.103C1297.12 655.65 1295.83 655.242 1295.29 654.204C1294.75 653.162 1295.15 651.882 1296.19 651.334Z" fill="#191919"/>
</g>
<g style="mix-blend-mode:screen">
<path d="M998.168 613.564C998.591 613.564 999.153 613.77 999.452 614.343C999.694 614.808 999.617 615.231 999.55 615.448C999.483 615.665 999.303 616.057 998.839 616.3C998.627 616.408 998.405 616.465 998.173 616.465C997.751 616.465 997.189 616.258 996.89 615.685C996.647 615.221 996.725 614.798 996.792 614.581C996.859 614.364 997.039 613.972 997.503 613.729C997.715 613.621 997.936 613.564 998.168 613.564Z" fill="#191919"/>
</g>
<g style="mix-blend-mode:screen">
<path d="M957.687 773.633C958.135 773.633 958.723 773.849 959.037 774.448C959.29 774.933 959.213 775.383 959.14 775.61C959.068 775.837 958.878 776.25 958.393 776.503C958.171 776.616 957.939 776.678 957.692 776.678C957.243 776.678 956.655 776.461 956.341 775.863C956.088 775.377 956.166 774.928 956.238 774.701C956.31 774.474 956.501 774.061 956.985 773.808C957.207 773.695 957.439 773.633 957.687 773.633Z" fill="#191919"/>
</g>
<g style="mix-blend-mode:screen">
<path d="M1083.88 699.298C1084.24 699.298 1084.72 699.474 1084.97 699.959C1085.18 700.351 1085.11 700.712 1085.05 700.893C1085 701.074 1084.84 701.409 1084.45 701.616C1084.28 701.709 1084.08 701.755 1083.89 701.755C1083.53 701.755 1083.05 701.58 1082.8 701.094C1082.59 700.702 1082.66 700.341 1082.72 700.16C1082.78 699.979 1082.93 699.644 1083.32 699.437C1083.5 699.345 1083.69 699.298 1083.88 699.298Z" fill="#191919"/>
</g>
<g style="mix-blend-mode:screen">
<path d="M898.666 617.567C899.089 617.567 899.651 617.773 899.95 618.346C900.192 618.811 900.115 619.234 900.048 619.451C899.981 619.663 899.801 620.06 899.337 620.303C899.125 620.411 898.903 620.468 898.671 620.468C898.249 620.468 897.687 620.262 897.388 619.689C897.016 618.981 897.295 618.104 898.001 617.737C898.213 617.629 898.434 617.572 898.666 617.572L898.666 617.567Z" fill="#191919"/>
</g>
<g style="mix-blend-mode:screen">
<path d="M868.733 669.394C869.738 668.868 870.976 669.26 871.497 670.261C872.022 671.268 871.631 672.507 870.63 673.028C869.625 673.555 868.388 673.162 867.867 672.161C867.341 671.154 867.733 669.915 868.733 669.394Z" fill="#191919"/>
</g>
<g style="mix-blend-mode:screen">
<path d="M1022.89 678.352C1023.28 678.145 1023.77 678.3 1023.98 678.693C1024.18 679.085 1024.03 679.575 1023.64 679.782C1023.24 679.988 1022.75 679.833 1022.55 679.441C1022.34 679.049 1022.5 678.558 1022.89 678.352Z" fill="#191919"/>
</g>
<g style="mix-blend-mode:screen">
<path d="M996.987 733.201C997.884 732.731 998.987 733.077 999.457 733.975C999.926 734.873 999.58 735.978 998.683 736.448C997.786 736.917 996.683 736.571 996.214 735.673C995.744 734.775 996.09 733.67 996.987 733.201Z" fill="#191919"/>
</g>
<g style="mix-blend-mode:screen">
<path d="M1143.06 719.485C1143.49 719.258 1144.02 719.428 1144.24 719.856C1144.47 720.285 1144.3 720.817 1143.87 721.044C1143.45 721.271 1142.91 721.1 1142.69 720.672C1142.46 720.244 1142.63 719.712 1143.06 719.485Z" fill="#191919"/>
</g>
<g style="mix-blend-mode:screen">
<path d="M1159.1 547.212C1160.03 546.727 1161.18 547.088 1161.66 548.017C1162.15 548.951 1161.79 550.103 1160.86 550.588C1159.93 551.073 1158.78 550.712 1158.29 549.783C1157.81 548.848 1158.17 547.697 1159.1 547.212Z" fill="#191919"/>
</g>
<g style="mix-blend-mode:screen">
<path d="M1048.87 646.557C1050.05 645.937 1051.51 646.397 1052.13 647.579C1052.75 648.761 1052.29 650.222 1051.11 650.841C1049.93 651.461 1048.47 651.001 1047.85 649.819C1047.23 648.637 1047.69 647.176 1048.87 646.557Z" fill="#191919"/>
</g>
<g style="mix-blend-mode:screen">
<path d="M839.049 718.223C839.281 718.223 839.585 718.337 839.75 718.646C839.952 719.028 839.802 719.509 839.415 719.71C839.302 719.772 839.178 719.798 839.054 719.798C838.822 719.798 838.518 719.684 838.353 719.374C838.23 719.137 838.255 718.915 838.302 718.776C838.348 718.636 838.451 718.44 838.688 718.311C838.802 718.249 838.926 718.218 839.049 718.218L839.049 718.223Z" fill="#191919"/>
</g>
<g style="mix-blend-mode:screen">
<path d="M1087.76 589.917C1088.83 589.354 1090.16 589.772 1090.72 590.846C1091.28 591.925 1090.87 593.251 1089.79 593.814C1088.72 594.376 1087.39 593.958 1086.83 592.885C1086.27 591.806 1086.69 590.479 1087.76 589.917Z" fill="#191919"/>
</g>
<g style="mix-blend-mode:screen">
<path d="M1165.23 634.764C1166.74 633.975 1168.6 634.558 1169.38 636.065C1170.17 637.572 1169.59 639.431 1168.09 640.221C1166.58 641.01 1164.72 640.427 1163.93 638.92C1163.15 637.412 1163.73 635.554 1165.23 634.764Z" fill="#191919"/>
</g>
<g style="mix-blend-mode:screen">
<path d="M1150.68 805.953C1151.47 805.54 1152.44 805.845 1152.85 806.634C1153.27 807.424 1152.96 808.4 1152.17 808.813C1151.38 809.226 1150.41 808.921 1150 808.131C1149.58 807.341 1149.89 806.366 1150.68 805.953Z" fill="#191919"/>
</g>
<g style="mix-blend-mode:screen">
<path d="M950.319 652.154C950.721 652.154 951.252 652.35 951.541 652.892C951.773 653.331 951.695 653.739 951.633 653.94C951.572 654.141 951.396 654.518 950.958 654.745C950.757 654.848 950.546 654.905 950.324 654.905C949.922 654.905 949.391 654.709 949.107 654.167C948.875 653.728 948.952 653.32 949.014 653.119C949.076 652.918 949.251 652.541 949.69 652.314C949.891 652.211 950.102 652.159 950.319 652.159L950.319 652.154Z" fill="#191919"/>
</g>
<g style="mix-blend-mode:screen">
<path d="M971.885 833.047C972.313 832.82 972.844 832.99 973.071 833.419C973.298 833.847 973.128 834.379 972.7 834.606C972.272 834.833 971.741 834.663 971.514 834.235C971.287 833.806 971.457 833.274 971.885 833.047Z" fill="#191919"/>
</g>
<g style="mix-blend-mode:screen">
<path d="M946.878 729.486C947.378 729.223 947.997 729.419 948.26 729.919C948.523 730.42 948.327 731.04 947.827 731.303C947.327 731.566 946.708 731.37 946.445 730.869C946.182 730.369 946.378 729.749 946.878 729.486Z" fill="#191919"/>
</g>
<g style="mix-blend-mode:screen">
<path d="M1011.64 540.277C1013.04 539.544 1014.77 540.086 1015.5 541.485C1016.23 542.884 1015.69 544.613 1014.29 545.341C1012.89 546.069 1011.17 545.532 1010.44 544.133C1009.71 542.735 1010.25 541.005 1011.64 540.277Z" fill="#191919"/>
</g>
<g style="mix-blend-mode:screen">
<path d="M1047.81 776.708C1049.28 775.939 1051.1 776.507 1051.87 777.978C1052.63 779.449 1052.07 781.266 1050.6 782.035C1049.13 782.804 1047.31 782.236 1046.55 780.765C1045.78 779.294 1046.34 777.477 1047.81 776.708Z" fill="#191919"/>
</g>
<g style="mix-blend-mode:screen">
<path d="M864.281 762.921C864.998 762.544 865.885 762.823 866.256 763.54C866.632 764.258 866.354 765.145 865.637 765.517C864.921 765.894 864.034 765.615 863.663 764.898C863.286 764.18 863.565 763.292 864.281 762.921Z" fill="#191919"/>
</g>
</g>
</g>
</mask>
<g mask="url(#mask0_3426_11858)">
<rect width="1320" height="1320" fill="#4EAC45"/>
</g>
<defs>
<linearGradient id="paint0_linear_3426_11858" x1="660" y1="209" x2="660" y2="1110.31" gradientUnits="userSpaceOnUse">
<stop stop-color="#F60109" stop-opacity="0"/>
<stop offset="0.5" stop-color="#F60109"/>
<stop offset="1" stop-color="#F60109" stop-opacity="0"/>
</linearGradient>
<linearGradient id="paint1_linear_3426_11858" x1="660" y1="209" x2="660" y2="1110.31" gradientUnits="userSpaceOnUse">
<stop stop-color="#F60109" stop-opacity="0"/>
<stop offset="0.5" stop-color="#F60109"/>
<stop offset="1" stop-color="#F60109" stop-opacity="0"/>
</linearGradient>
<linearGradient id="paint2_linear_3426_11858" x1="309.375" y1="209" x2="309.375" y2="1110.31" gradientUnits="userSpaceOnUse">
<stop stop-color="#F60109" stop-opacity="0"/>
<stop offset="0.5" stop-color="#F60109"/>
<stop offset="1" stop-color="#F60109" stop-opacity="0"/>
</linearGradient>
<linearGradient id="paint3_linear_3426_11858" x1="309.375" y1="209" x2="309.375" y2="1110.31" gradientUnits="userSpaceOnUse">
<stop stop-color="#F60109" stop-opacity="0"/>
<stop offset="0.5" stop-color="#F60109"/>
<stop offset="1" stop-color="#F60109" stop-opacity="0"/>
</linearGradient>
<linearGradient id="paint4_linear_3426_11858" x1="1010.62" y1="209" x2="1010.63" y2="1110.31" gradientUnits="userSpaceOnUse">
<stop stop-color="#F60109" stop-opacity="0"/>
<stop offset="0.5" stop-color="#F60109"/>
<stop offset="1" stop-color="#F60109" stop-opacity="0"/>
</linearGradient>
<linearGradient id="paint5_linear_3426_11858" x1="1010.62" y1="209" x2="1010.63" y2="1110.31" gradientUnits="userSpaceOnUse">
<stop stop-color="#F60109" stop-opacity="0"/>
<stop offset="0.5" stop-color="#F60109"/>
<stop offset="1" stop-color="#F60109" stop-opacity="0"/>
</linearGradient>
<linearGradient id="paint6_linear_3426_11858" x1="240" y1="0" x2="240" y2="960" gradientUnits="userSpaceOnUse">
<stop stop-color="white" stop-opacity="0"/>
<stop offset="0.5" stop-color="white"/>
<stop offset="1" stop-color="white"/>
</linearGradient>
<radialGradient id="paint7_radial_3426_11858" cx="0" cy="0" r="1" gradientUnits="userSpaceOnUse" gradientTransform="translate(660 1.89285e-05) rotate(90) scale(960 809.655)">
<stop stop-color="#F60109"/>
<stop offset="1" stop-color="#F60109" stop-opacity="0"/>
</radialGradient>
<linearGradient id="paint8_linear_3426_11858" x1="660" y1="0" x2="660" y2="960" gradientUnits="userSpaceOnUse">
<stop stop-color="#F60109"/>
<stop offset="0.868225" stop-color="#F60109" stop-opacity="0"/>
</linearGradient>
<linearGradient id="paint9_linear_3426_11858" x1="660" y1="0" x2="660" y2="960" gradientUnits="userSpaceOnUse">
<stop stop-color="#F60109"/>
<stop offset="0.868225" stop-color="#F60109" stop-opacity="0"/>
</linearGradient>
<linearGradient id="paint10_linear_3426_11858" x1="660.001" y1="0" x2="660.001" y2="960" gradientUnits="userSpaceOnUse">
<stop stop-color="#F60109"/>
<stop offset="0.868225" stop-color="#F60109" stop-opacity="0"/>
</linearGradient>
<linearGradient id="paint11_linear_3426_11858" x1="660" y1="0" x2="660" y2="960" gradientUnits="userSpaceOnUse">
<stop stop-color="#F60109"/>
<stop offset="0.863225" stop-color="#F60109" stop-opacity="0"/>
</linearGradient>
<radialGradient id="paint12_radial_3426_11858" cx="0" cy="0" r="1" gradientUnits="userSpaceOnUse" gradientTransform="translate(659.999 1.08877e-06) rotate(90) scale(763.636 80.2979)">
<stop stop-color="#FF333A"/>
<stop offset="1" stop-color="#F60109" stop-opacity="0"/>
</radialGradient>
<clipPath id="clip0_3426_11858">
<rect width="1320" height="1320" fill="white"/>
</clipPath>
</defs>
</svg>
