<svg width="140" height="140" viewBox="0 0 140 140" fill="none" xmlns="http://www.w3.org/2000/svg">
<path fill-rule="evenodd" clip-rule="evenodd" d="M74.7155 18.8631C74.7155 21.5158 72.505 23.7263 69.8523 23.7263C67.1997 23.7263 64.9892 21.5158 64.9892 18.8631V4.86315C64.9892 2.21052 67.1997 0 69.8523 0C72.505 0 74.7155 2.21052 74.7155 4.86315V18.8631ZM64.9892 121.137C64.9892 118.484 67.1997 116.274 69.8523 116.274C72.6523 116.274 74.7155 118.484 74.7155 121.137V135.137C74.7155 137.789 72.505 140 69.8523 140C67.1997 140 64.9892 137.789 64.9892 135.137V121.137ZM20.4841 20.4841C22.3999 18.5683 25.4947 18.5683 27.4104 20.4841L37.1367 30.3578C39.0525 32.2736 39.0525 35.3683 37.1367 37.2841C36.2525 38.3157 34.9262 38.7578 33.7473 38.7578C32.5683 38.7578 31.242 38.1683 30.3578 37.2841L20.4841 27.4104C18.5683 25.4947 18.5683 22.3999 20.4841 20.4841ZM102.716 102.716C104.631 100.8 107.726 100.8 109.642 102.716L119.368 112.589C121.284 114.505 121.284 117.6 119.368 119.516C118.484 120.547 117.158 120.989 115.979 120.989C114.8 120.989 113.474 120.4 112.589 119.516L102.716 109.642C100.8 107.726 100.8 104.631 102.716 102.716ZM18.8631 64.9892C21.5158 64.9892 23.7263 67.1997 23.7263 69.8523C23.7263 72.6523 21.5158 74.7155 18.8631 74.7155H4.86315C2.21052 74.7155 0 72.505 0 69.8523C0 67.1997 2.21052 64.9892 4.86315 64.9892H18.8631ZM121.137 64.9892H135.137C137.789 64.9892 140 67.1997 140 69.8523C140 72.505 137.789 74.7155 135.137 74.7155H121.137C118.484 74.7155 116.274 72.505 116.274 69.8523C116.274 67.1997 118.484 64.9892 121.137 64.9892ZM20.4841 112.442L30.3578 102.568C32.2736 100.653 35.3683 100.653 37.1367 102.568C39.0525 104.484 39.0525 107.579 37.1367 109.495L27.2631 119.368C26.3789 120.4 25.0525 120.842 23.8736 120.842C22.6947 120.842 21.3683 120.253 20.4841 119.368C18.5683 117.453 18.5683 114.358 20.4841 112.442ZM109.495 37.1369C108.61 38.1685 107.284 38.6106 106.105 38.6106C104.926 38.6106 103.6 38.0211 102.716 37.1369C100.8 35.2211 100.8 32.1264 102.716 30.2106L112.442 20.3369C114.358 18.4211 117.452 18.4211 119.368 20.3369C121.284 22.2527 121.284 25.3474 119.368 27.2632L109.495 37.1369ZM67.716 93.3306C55.9259 92.7424 46.6667 82.4816 46.6667 69.9986C46.6667 57.5157 55.9259 47.2549 67.716 46.6667C69.0123 46.6667 70 47.7124 70 48.9541V91.0431C70 92.2849 68.9506 93.3959 67.716 93.3306ZM70.0001 38.5001C52.6032 38.5001 38.5001 52.6032 38.5001 70.0001C38.5001 87.3971 52.6032 101.5 70.0001 101.5C87.3971 101.5 101.5 87.3971 101.5 70.0001C101.5 52.6032 87.3971 38.5001 70.0001 38.5001ZM31.5001 70.0001C31.5001 48.7372 48.7372 31.5001 70.0001 31.5001C91.2631 31.5001 108.5 48.7372 108.5 70.0001C108.5 91.2631 91.2631 108.5 70.0001 108.5C48.7372 108.5 31.5001 91.2631 31.5001 70.0001Z" fill="url(#paint0_linear_3805_12708)" fill-opacity="0.4"/>
<defs>
<linearGradient id="paint0_linear_3805_12708" x1="69.9999" y1="0" x2="69.9999" y2="140" gradientUnits="userSpaceOnUse">
<stop stop-color="white"/>
<stop offset="1" stop-color="white" stop-opacity="0.1"/>
</linearGradient>
</defs>
</svg>
