<svg width="140" height="140" viewBox="0 0 140 140" fill="none" xmlns="http://www.w3.org/2000/svg">
<path fill-rule="evenodd" clip-rule="evenodd" d="M118.398 14.5341H101.356L101.332 14.5341H78.5447C76.1421 14.5341 74.1945 12.5864 74.1945 10.1838C74.1945 7.78125 76.1421 5.83356 78.5447 5.83356L129.816 5.8335C132.219 5.8335 134.166 7.78118 134.166 10.1838L134.166 61.455C134.166 63.8576 132.218 65.8053 129.816 65.8053C127.413 65.8053 125.466 63.8576 125.466 61.455V38.6678L125.466 38.6189V21.6264L125.466 21.5774V20.6865L106.977 39.175V59.6188H106.891C106.947 59.8984 106.977 60.1877 106.977 60.484V75.8912C106.977 78.2938 105.029 80.2415 102.627 80.2415C100.224 80.2415 98.2763 78.2938 98.2763 75.8912V60.484C98.2763 60.1877 98.3059 59.8984 98.3624 59.6188H98.2766V47.8755L79.2779 66.8743C79.6085 67.8559 79.7877 68.9071 79.7877 70.0002V124.379C79.7877 129.785 75.4054 134.167 69.9995 134.167H15.6211C10.2153 134.167 5.83301 129.785 5.83301 124.379V70.0002C5.83301 64.5944 10.2153 60.2121 15.6211 60.2121H69.9995C71.0927 60.2121 72.1441 60.3913 73.1258 60.7219L92.1244 41.7233H80.3811V41.6373C80.1015 41.6938 79.8121 41.7234 79.5158 41.7234H64.1086C61.706 41.7234 59.7583 39.7757 59.7583 37.3731C59.7583 34.9705 61.706 33.0228 64.1086 33.0228H79.5158C79.8121 33.0228 80.1015 33.0524 80.3811 33.1089V33.0228H100.825L119.314 14.5341H118.422L118.398 14.5341ZM15.6211 68.9126C15.0205 68.9126 14.5336 69.3996 14.5336 70.0002V124.379C14.5336 124.979 15.0205 125.466 15.6211 125.466H69.9995C70.6002 125.466 71.0871 124.979 71.0871 124.379V70.0002C71.0871 69.3996 70.6002 68.9126 69.9995 68.9126H15.6211Z" fill="url(#paint0_linear_4080_9793)" fill-opacity="0.4"/>
<path d="M5.83301 10.1838C5.83301 7.78125 7.78069 5.83356 10.1833 5.83356H21.5769C23.9794 5.83356 25.9271 7.78125 25.9271 10.1838C25.9271 12.5864 23.9794 14.5341 21.5769 14.5341H14.5336V21.0595C14.5336 23.4621 12.5859 25.4098 10.1833 25.4098C7.78069 25.4098 5.83301 23.4621 5.83301 21.0595V10.1838Z" fill="url(#paint1_linear_4080_9793)" fill-opacity="0.4"/>
<path d="M34.3169 10.1838C34.3169 7.78125 36.2646 5.83356 38.6672 5.83356H61.4544C63.857 5.83356 65.8046 7.78125 65.8046 10.1838C65.8046 12.5864 63.857 14.5341 61.4544 14.5341H38.6672C36.2646 14.5341 34.3169 12.5864 34.3169 10.1838Z" fill="url(#paint2_linear_4080_9793)" fill-opacity="0.4"/>
<path d="M5.83301 37.3731C5.83301 34.9705 7.78069 33.0228 10.1833 33.0228H17.8869C20.2895 33.0228 22.2372 34.9705 22.2372 37.3731C22.2372 39.7757 20.2895 41.7234 17.8869 41.7234H14.5336V48.2488C14.5336 50.6514 12.5859 52.5991 10.1833 52.5991C7.78069 52.5991 5.83301 50.6514 5.83301 48.2488V37.3731Z" fill="url(#paint3_linear_4080_9793)" fill-opacity="0.4"/>
<path d="M129.816 74.1951C132.218 74.1951 134.166 76.1428 134.166 78.5454V101.333C134.166 103.735 132.218 105.683 129.816 105.683C127.413 105.683 125.466 103.735 125.466 101.333V78.5454C125.466 76.1428 127.413 74.1951 129.816 74.1951Z" fill="url(#paint4_linear_4080_9793)" fill-opacity="0.4"/>
<path d="M129.816 114.073C132.218 114.073 134.166 116.02 134.166 118.423V129.817C134.166 132.219 132.218 134.167 129.816 134.167H118.94C116.538 134.167 114.59 132.219 114.59 129.817C114.59 127.414 116.538 125.466 118.94 125.466H125.466V118.423C125.466 116.02 127.413 114.073 129.816 114.073Z" fill="url(#paint5_linear_4080_9793)" fill-opacity="0.4"/>
<path d="M87.4006 129.817C87.4006 127.414 89.3483 125.466 91.7509 125.466H98.2763V122.113C98.2763 119.71 100.224 117.763 102.627 117.763C105.029 117.763 106.977 119.71 106.977 122.113V129.817C106.977 132.219 105.029 134.167 102.627 134.167H91.7509C89.3483 134.167 87.4006 132.219 87.4006 129.817Z" fill="url(#paint6_linear_4080_9793)" fill-opacity="0.4"/>
<path d="M33.2941 33.0228C30.8915 33.0228 28.9438 34.9705 28.9438 37.3731C28.9438 39.7757 30.8915 41.7234 33.2941 41.7234H48.7013C51.1039 41.7234 53.0516 39.7757 53.0516 37.3731C53.0516 34.9705 51.1039 33.0228 48.7013 33.0228H33.2941Z" fill="url(#paint7_linear_4080_9793)" fill-opacity="0.4"/>
<path d="M106.977 91.2985C106.977 88.8959 105.029 86.9482 102.627 86.9482C100.224 86.9482 98.2763 88.8959 98.2763 91.2985V106.706C98.2763 109.108 100.224 111.056 102.627 111.056C105.029 111.056 106.977 109.108 106.977 106.706V91.2985Z" fill="url(#paint8_linear_4080_9793)" fill-opacity="0.4"/>
<defs>
<linearGradient id="paint0_linear_4080_9793" x1="69.9997" y1="5.8335" x2="69.9997" y2="134.167" gradientUnits="userSpaceOnUse">
<stop stop-color="white"/>
<stop offset="1" stop-color="white" stop-opacity="0.1"/>
</linearGradient>
<linearGradient id="paint1_linear_4080_9793" x1="69.9997" y1="5.8335" x2="69.9997" y2="134.167" gradientUnits="userSpaceOnUse">
<stop stop-color="white"/>
<stop offset="1" stop-color="white" stop-opacity="0.1"/>
</linearGradient>
<linearGradient id="paint2_linear_4080_9793" x1="69.9997" y1="5.8335" x2="69.9997" y2="134.167" gradientUnits="userSpaceOnUse">
<stop stop-color="white"/>
<stop offset="1" stop-color="white" stop-opacity="0.1"/>
</linearGradient>
<linearGradient id="paint3_linear_4080_9793" x1="69.9997" y1="5.8335" x2="69.9997" y2="134.167" gradientUnits="userSpaceOnUse">
<stop stop-color="white"/>
<stop offset="1" stop-color="white" stop-opacity="0.1"/>
</linearGradient>
<linearGradient id="paint4_linear_4080_9793" x1="69.9997" y1="5.8335" x2="69.9997" y2="134.167" gradientUnits="userSpaceOnUse">
<stop stop-color="white"/>
<stop offset="1" stop-color="white" stop-opacity="0.1"/>
</linearGradient>
<linearGradient id="paint5_linear_4080_9793" x1="69.9997" y1="5.8335" x2="69.9997" y2="134.167" gradientUnits="userSpaceOnUse">
<stop stop-color="white"/>
<stop offset="1" stop-color="white" stop-opacity="0.1"/>
</linearGradient>
<linearGradient id="paint6_linear_4080_9793" x1="69.9997" y1="5.8335" x2="69.9997" y2="134.167" gradientUnits="userSpaceOnUse">
<stop stop-color="white"/>
<stop offset="1" stop-color="white" stop-opacity="0.1"/>
</linearGradient>
<linearGradient id="paint7_linear_4080_9793" x1="69.9997" y1="5.8335" x2="69.9997" y2="134.167" gradientUnits="userSpaceOnUse">
<stop stop-color="white"/>
<stop offset="1" stop-color="white" stop-opacity="0.1"/>
</linearGradient>
<linearGradient id="paint8_linear_4080_9793" x1="69.9997" y1="5.8335" x2="69.9997" y2="134.167" gradientUnits="userSpaceOnUse">
<stop stop-color="white"/>
<stop offset="1" stop-color="white" stop-opacity="0.1"/>
</linearGradient>
</defs>
</svg>
