<svg width="140" height="140" viewBox="0 0 140 140" fill="none" xmlns="http://www.w3.org/2000/svg">
<path fill-rule="evenodd" clip-rule="evenodd" d="M7.03439 72.2678C8.21839 106.459 36.2863 134.131 69.9957 134.131V134.167C72.1199 134.167 73.8263 132.431 73.8263 130.269C73.8263 128.108 72.1199 126.372 69.9957 126.372C40.5696 126.372 15.9493 102.243 14.6956 72.4095L15.0438 72.7638C15.7751 73.5079 16.7154 73.8977 17.7601 73.8977C18.8048 73.8977 19.745 73.5079 20.4763 72.7638C21.9738 71.2403 21.9738 68.7601 20.4763 67.2365L13.5116 60.1502C12.7803 59.4061 11.8401 59.0164 10.7953 59.0164C9.75064 59.0164 8.8104 59.4061 8.0791 60.1502L1.11436 67.2365C0.383061 67.9806 0 68.9372 0 70.0002C0 71.0631 0.383061 72.0198 1.11436 72.7638C1.84566 73.5079 2.7859 73.8977 3.83061 73.8977C4.87532 73.8977 5.81556 73.5079 6.54686 72.7638L7.03439 72.2678ZM97.5064 116.061C97.5064 122.12 102.347 127.045 108.302 127.045C114.257 127.045 119.097 122.12 119.097 116.061C119.097 110.002 114.257 105.077 108.302 105.077C102.347 105.077 97.5064 110.002 97.5064 116.061ZM105.168 116.061C105.168 114.29 106.561 112.872 108.302 112.872C110.043 112.872 111.436 114.29 111.436 116.061C111.436 117.833 110.043 119.25 108.302 119.25C106.561 119.25 105.168 117.833 105.168 116.061ZM31.3413 70.0002C31.3413 91.6843 48.6835 109.329 69.9957 109.329C91.3078 109.329 108.65 91.6843 108.65 70.0002C108.65 48.316 91.3078 30.6711 69.9957 30.6711C48.6835 30.6711 31.3413 48.316 31.3413 70.0002ZM39.0026 70.0002C39.0026 52.6032 52.8972 38.466 69.9957 38.466C87.0941 38.466 100.989 52.6032 100.989 70.0002C100.989 87.3971 87.0941 101.534 69.9957 101.534C52.8972 101.534 39.0026 87.3971 39.0026 70.0002ZM126.48 79.8502C127.211 80.5942 128.186 80.984 129.196 80.984V80.9485C130.241 80.9485 131.181 80.5588 131.912 79.8147L138.877 72.7284C140.374 71.2048 140.374 68.7246 138.877 67.2011C138.146 66.457 137.205 66.0673 136.161 66.0673C135.116 66.0673 134.176 66.457 133.444 67.2011L132.957 67.6971C131.773 33.5056 103.705 5.8335 69.9957 5.8335C67.8714 5.8335 66.165 7.56965 66.165 9.73097C66.165 11.8923 67.8714 13.6285 69.9957 13.6285C99.4217 13.6285 124.042 37.7574 125.296 67.5908L124.947 67.2365C124.216 66.4924 123.276 66.1027 122.231 66.1027C121.186 66.1027 120.246 66.4924 119.515 67.2365C118.018 68.7601 118.018 71.2403 119.515 72.7638L126.48 79.8502ZM20.8942 23.9391C20.8942 29.9979 25.7347 34.9229 31.6896 34.9229C37.6444 34.9229 42.4849 29.9979 42.4849 23.9391C42.4849 17.8802 37.6444 12.9553 31.6896 12.9553C25.7347 12.9553 20.8942 17.8802 20.8942 23.9391ZM28.5554 23.9391C28.5554 22.1675 29.9484 20.7502 31.6896 20.7502C33.4308 20.7502 34.8237 22.1675 34.8237 23.9391C34.8237 25.7106 33.4308 27.1279 31.6896 27.1279C29.9484 27.1279 28.5554 25.7106 28.5554 23.9391ZM76.0001 57.1275C76.7151 53.1861 71.9486 50.7015 69.6136 54.1059L59.0557 69.3269L59.0533 69.3305C57.285 71.8948 58.9718 75.4778 61.962 75.4778H65.4222L64.0439 82.8646L64.0424 82.8728C63.3274 86.8143 68.0939 89.2988 70.4289 85.8945L70.4321 85.8899L80.9868 70.6734L81.0137 70.6332C82.6463 68.1178 81.0502 64.5226 78.0805 64.5226H74.6203L75.9986 57.1357L76.0001 57.1275Z" fill="url(#paint0_linear_4080_16814)" fill-opacity="0.4"/>
<defs>
<linearGradient id="paint0_linear_4080_16814" x1="70" y1="5.8335" x2="70" y2="134.167" gradientUnits="userSpaceOnUse">
<stop stop-color="white"/>
<stop offset="1" stop-color="white" stop-opacity="0.1"/>
</linearGradient>
</defs>
</svg>
