<svg width="140" height="140" viewBox="0 0 140 140" fill="none" xmlns="http://www.w3.org/2000/svg">
<path fill-rule="evenodd" clip-rule="evenodd" d="M5.83398 29.1668C5.83398 16.2802 16.2807 5.8335 29.1673 5.8335H110.834C123.721 5.8335 134.167 16.2802 134.167 29.1668V110.834C134.167 123.72 123.721 134.167 110.834 134.167H29.1673C16.2807 134.167 5.83398 123.72 5.83398 110.834V29.1668ZM104.216 14.0002H29.1673C20.791 14.0002 14.0007 20.7905 14.0007 29.1668V110.834C14.0007 118.138 19.1651 124.237 26.042 125.678L104.216 14.0002ZM35.785 126H110.834C119.21 126 126.001 119.21 126.001 110.834V29.1668C126.001 21.8619 120.836 15.7631 113.959 14.3225L35.785 126Z" fill="url(#paint0_linear_4080_11685)" fill-opacity="0.4"/>
<path fill-rule="evenodd" clip-rule="evenodd" d="M43.2663 31.0398C46.1851 27.068 52.1433 29.9667 51.2495 34.565L51.2476 34.5747L49.5247 43.1926H53.85C57.562 43.1926 59.5572 47.387 57.5165 50.3217L57.4828 50.3686L44.2894 68.1212L44.2855 68.1266C41.3667 72.0983 35.4085 69.1996 36.3023 64.6013L36.3042 64.5917L38.0271 55.9737H33.7018C29.9642 55.9737 27.8556 51.7936 30.066 48.8019L30.069 48.7977L43.2663 31.0398Z" fill="url(#paint1_linear_4080_11685)" fill-opacity="0.4"/>
<path fill-rule="evenodd" clip-rule="evenodd" d="M97.807 76.3674C97.7094 76.2243 97.5864 76.1043 97.4453 76.0144C97.3043 75.9245 97.1481 75.8666 96.9861 75.8441C96.8242 75.8216 96.6597 75.835 96.5026 75.8835C96.3454 75.9321 96.1989 76.0147 96.0716 76.1265C92.9663 78.8512 90.9179 82.7581 90.3371 87.0639C89.2728 86.2204 88.34 85.1948 87.5744 84.0267C87.4704 83.8678 87.3357 83.736 87.1798 83.6406C87.0238 83.5452 86.8506 83.4885 86.6723 83.4746C86.494 83.4608 86.3152 83.49 86.1485 83.5604C85.9817 83.6307 85.8313 83.7403 85.7077 83.8815C83.5678 86.3281 82.196 89.4558 81.7912 92.8115C81.3863 96.1672 81.9695 99.5766 83.4561 102.546C84.9427 105.515 87.2556 107.89 90.0597 109.327C92.8639 110.763 96.0137 111.187 99.0529 110.536C102.092 109.886 104.863 108.194 106.964 105.708C109.065 103.221 110.387 100.068 110.738 96.7048C111.09 93.3419 110.453 89.9441 108.92 87.0033C107.386 84.0626 105.036 81.7318 102.21 80.3484C100.472 79.425 98.9624 78.0599 97.807 76.3674ZM102.323 97.5549C102.322 98.5155 102.131 99.4646 101.762 100.337C101.394 101.209 100.856 101.983 100.187 102.606C99.518 103.229 98.7333 103.686 97.887 103.945C97.0407 104.204 96.1529 104.26 95.2851 104.108C94.4172 103.956 93.5899 103.6 92.8601 103.064C92.1303 102.529 91.5155 101.827 91.058 101.007C90.6006 100.186 90.3114 99.2674 90.2105 98.3132C90.1095 97.3589 90.1992 96.3921 90.4733 95.4794C91.4908 96.3029 92.6607 96.9138 93.9295 97.2503C94.2735 94.8258 95.3758 92.6066 97.0487 90.9706C98.5087 91.183 99.8483 91.9678 100.819 93.179C101.789 94.3902 102.323 95.9452 102.323 97.5549Z" fill="url(#paint2_linear_4080_11685)" fill-opacity="0.4"/>
<defs>
<linearGradient id="paint0_linear_4080_11685" x1="237.848" y1="5.8335" x2="237.848" y2="134.167" gradientUnits="userSpaceOnUse">
<stop stop-color="white"/>
<stop offset="1" stop-color="white" stop-opacity="0"/>
</linearGradient>
<linearGradient id="paint1_linear_4080_11685" x1="81.8965" y1="29.1665" x2="81.8965" y2="69.9998" gradientUnits="userSpaceOnUse">
<stop stop-color="white"/>
<stop offset="1" stop-color="white" stop-opacity="0"/>
</linearGradient>
<linearGradient id="paint2_linear_4080_11685" x1="96.2398" y1="71.9722" x2="96.2398" y2="114.695" gradientUnits="userSpaceOnUse">
<stop stop-color="white"/>
<stop offset="1" stop-color="white" stop-opacity="0"/>
</linearGradient>
</defs>
</svg>
