<svg width="718" height="249" viewBox="0 0 718 249" fill="none" xmlns="http://www.w3.org/2000/svg">
<g clip-path="url(#clip0_3383_15805)">
<g opacity="0.5" filter="url(#filter0_f_3383_15805)">
<path style="mix-blend-mode:screen" opacity="0.58" d="M717.546 120.314C724.642 86.6807 640.815 40.5936 530.314 17.3755C419.813 -5.84256 324.482 2.60065 317.385 36.2339C310.289 69.8672 394.116 115.954 504.617 139.172C615.118 162.39 710.449 153.947 717.546 120.314Z" fill="url(#paint0_radial_3383_15805)"/>
<path style="mix-blend-mode:screen" opacity="0.58" d="M512.16 158.841C529.479 132.936 494.771 79.479 434.636 39.4419C374.502 -0.595148 311.713 -12.0511 294.394 13.8543C277.075 39.7597 311.784 93.2167 371.918 133.254C432.053 173.291 494.841 184.747 512.16 158.841Z" fill="url(#paint1_radial_3383_15805)"/>
<path style="mix-blend-mode:screen" opacity="0.58" d="M421.957 226.584C488.022 197.299 531.309 150.488 518.642 122.028C505.974 93.5672 442.148 94.2353 376.083 123.52C310.017 152.804 266.73 199.616 279.398 228.076C292.066 256.537 355.892 255.869 421.957 226.584Z" fill="url(#paint2_radial_3383_15805)"/>
<path style="mix-blend-mode:screen" opacity="0.58" d="M429.113 212.464C434.992 181.88 382.206 146.069 311.211 132.477C240.216 118.885 177.897 132.66 172.018 163.243C166.138 193.827 218.925 229.639 289.919 243.231C360.914 256.823 423.233 243.048 429.113 212.464Z" fill="url(#paint3_radial_3383_15805)"/>
<path style="mix-blend-mode:screen" opacity="0.58" d="M383.913 188.944C384.663 157.413 299.327 129.817 193.31 127.305C87.2927 124.794 0.740608 148.318 -0.00949455 179.848C-0.759597 211.378 84.5763 238.974 190.594 241.486C296.611 243.998 383.163 220.474 383.913 188.944Z" fill="url(#paint4_radial_3383_15805)"/>
</g>
<path d="M651.188 107.588C651.188 107.588 573.209 103.239 572.114 105.789C571.02 108.34 592.712 111.969 592.712 111.969C592.712 111.969 533.678 108.451 517.898 104.952C517.898 104.952 516.03 92.7029 488.375 93.5596C488.375 93.5596 540.291 89.4656 565.954 74.2996C565.954 74.2996 435.823 53.1823 428.751 66.7657C428.751 66.7657 392.216 62.7894 371.868 64.1955C371.868 64.1955 409.347 96.5287 417.571 100.969C425.789 105.416 447.206 110.655 447.206 110.655C447.206 110.655 473.426 138.888 493.617 142.89C493.617 142.89 467.305 160.822 442.645 166.264C417.984 171.698 378.991 185.242 360.773 210.558C360.773 210.558 345.602 216.758 340.064 228.929C340.064 228.929 323.051 211.029 313.536 203.345C304.02 195.66 276.764 185.242 281.516 194.392C281.516 194.392 199.899 185.883 185.37 185.543C170.841 185.203 155.906 186.76 155.906 186.76C155.906 186.76 116.205 167.297 104.527 166.329C92.849 165.355 91.4663 170.75 91.4663 170.75L21.7837 166.107C21.7837 166.107 76.7407 161.973 87.4752 161.516C98.2163 161.058 112.758 160.162 112.758 160.162C112.758 160.162 108.518 166.185 135.984 174.432C163.449 182.672 171.582 186.361 210.516 178.984C249.45 171.607 307.179 165.459 307.179 165.459C307.179 165.459 302.238 165.407 322.894 180.122C343.55 194.836 352.083 196.628 352.083 196.628C352.083 196.628 410.585 179.782 456.407 139.764C456.407 139.764 418.928 88.6612 331.649 57.721C331.649 57.721 387.347 36.5775 456.499 56.0533C456.499 56.0533 427.972 49.3172 423.181 53.2477C418.391 57.1782 523.933 67.2627 531.725 66.6807C539.524 66.0986 480.622 56.6811 480.622 56.6811C480.622 56.6811 570.247 62.4297 615.052 75.3068C615.052 75.3068 543.423 83.9656 524.255 91.5453C524.255 91.5453 555.488 98.3599 651.181 107.607L651.188 107.588Z" fill="#F60109"/>
<path d="M468.524 39.2983C468.524 39.2983 422.441 29.2464 399.799 30.1097C399.799 30.1097 414.852 41.7834 376.626 48.6699H388.055C388.055 48.6699 408.069 39.1609 402.859 32.6014C402.859 32.6014 420.737 30.2928 468.524 39.2983Z" fill="#DA1A00"/>
<path d="M509.123 66.4585C509.123 66.4585 551.877 73.7047 548.358 82.0169L553.306 81.461C553.306 81.461 545.992 78.0668 542.408 74.169C542.408 74.169 529.091 71.0233 527.826 68.7801L515.762 66.7135L509.116 66.4585H509.123Z" fill="#DA1A00"/>
<path d="M405.323 92.0556C405.323 92.0556 389.195 72.7106 388.055 68.8586C386.921 65.0066 397.367 64.3134 397.367 64.3134L390.342 63.2081C390.342 63.2081 388.671 67.688 385.748 67.9103C385.748 67.9103 400.461 85.7315 399.287 88.6352L404.203 92.1668L405.317 92.0556H405.323Z" fill="#DA1A00"/>
<path d="M334.893 188.12C334.893 188.12 354.547 182.659 369.79 190.448L378.008 188.735C378.008 188.735 344.796 184.844 342.567 184.249C342.567 184.249 336.617 189.644 328.884 184.249C321.157 178.86 331.276 187.911 331.276 187.911L334.887 188.114L334.893 188.12Z" fill="#DA1A00"/>
<path d="M216.84 180.874C216.84 180.874 219.239 177.362 224.252 176.538C229.265 175.721 244.45 167.696 244.45 167.696L296.89 163.785C296.89 163.785 242.241 169.324 239.43 170.966C236.618 172.608 230.392 176.845 230.392 176.845L216.84 180.874Z" fill="#DA1A00"/>
<path d="M129.05 172.156C129.05 172.156 199.552 183.837 224.252 176.538L202.75 180.364C202.75 180.364 156.706 177.179 147.655 177.931C138.605 178.683 129.05 172.156 129.05 172.156Z" fill="#DA1A00"/>
<path d="M416.995 167.775C416.995 167.775 417.48 167.363 418.312 166.637C422.775 162.752 437.14 149.901 438.962 144.074C441.118 137.161 415.304 101.44 415.304 101.44L424.656 106.077C424.656 106.077 423.987 116.175 441.642 139.875C441.642 139.875 439.624 140.739 441.249 147.579C441.249 147.579 431.629 152.393 425.534 162.582L416.988 167.768L416.995 167.775Z" fill="#DA1A00"/>
<path d="M532.814 107.15C532.814 107.15 550.043 111.891 558.247 117.875L623.041 122.231L556.74 115.573C556.74 115.573 544.931 111.42 542.421 108.15C539.917 104.88 532.814 107.15 532.814 107.15Z" fill="#DA1A00"/>
<path d="M125.8 173.17C138.297 178.546 152.872 202.913 152.872 202.913L185.659 212.488C185.659 212.488 191.262 210.088 206.223 205.843C206.223 205.843 203.904 206.229 187.487 211.304C187.487 211.304 158.947 208.453 149.674 195.203C140.407 181.953 139.791 179.213 139.791 179.213L131.547 173.647L125.8 173.17Z" fill="#DA1A00"/>
<path d="M185.659 212.494L189.715 216.588L186.629 211.867L185.659 212.494Z" fill="#DA1A00"/>
<path d="M95.0439 164.165C92.5078 164.295 89.965 164.413 87.6124 164.518C83.9687 164.675 75.1215 165.263 65.062 165.97L89.8077 167.618C90.7449 166.427 92.3505 165.061 95.0374 164.171L95.0439 164.165Z" fill="#DA1A00"/>
<path d="M510.616 93.8607C516.587 96.4898 519.116 100.074 520.171 102.336C530.106 104.22 552.126 106.09 569.348 107.366C568.968 106.476 568.962 105.482 569.348 104.599C569.846 103.442 570.207 102.605 574.67 102.206C537.905 97.5296 523.828 94.5213 523.618 94.4755L516.416 92.9059C514.424 93.2525 512.484 93.573 510.616 93.8673V93.8607Z" fill="#DA1A00"/>
<path d="M458.399 142.027C446.098 152.766 432.847 161.876 420.022 169.449C429.485 166.277 437.467 164.315 442.002 163.314C459.257 159.508 477.581 149.28 486.46 143.865C468.609 136.88 449.388 117.306 445.62 113.356C443.267 112.761 436.661 111.061 429.97 108.948C448.988 124.762 458.097 136.952 458.851 137.972L460.483 140.202L458.399 142.021V142.027Z" fill="#DA1A00"/>
<path d="M201.537 183.614C225.51 185.609 265.846 189.736 278.225 191.017C278.592 189.984 279.254 189.343 279.595 189.069C285.434 184.314 308.292 195.229 315.442 200.997C322.743 206.896 334.133 218.439 339.415 223.887C345.418 214.685 355.811 209.48 358.819 208.119C363.63 201.612 369.718 195.935 376.415 191.011C362.443 196.727 353.151 199.447 352.921 199.519L352.2 199.729L351.466 199.572C351.093 199.493 342.075 197.479 321.15 182.568C310.907 175.269 306.431 171.306 304.649 168.756C292.531 170.096 244.541 175.59 211.085 181.927C207.684 182.574 204.512 183.13 201.537 183.614Z" fill="#DA1A00"/>
<path d="M364.357 61.691L371.664 61.1874C389.706 59.9448 419.635 62.7962 427.296 63.581C428.535 62.3057 430.966 60.952 436.569 60.0887C421.418 57.6428 420.828 56.1778 420.251 54.7391C419.904 53.8693 419.937 52.9406 420.317 52.1297C384.05 48.2384 354.73 54.2551 341.06 57.9632C356.237 63.7641 369.803 70.1274 381.842 76.6412C375.354 71.1738 370.445 66.936 369.895 66.4651L364.357 61.6844V61.691Z" fill="#DA1A00"/>
<path d="M535.46 66.5959C535.46 66.6351 535.46 66.694 535.447 66.7659C553.266 69.1988 566.229 71.2915 566.432 71.3242L574.643 72.6584L567.48 76.8897C565.665 77.9622 563.719 78.9825 561.687 79.9504C574.886 77.7072 588.563 75.7452 598.727 74.3653C579.421 70.2125 555.894 66.9883 534.923 64.6274C535.021 64.7255 535.1 64.8301 535.166 64.9282C535.5 65.4449 535.48 65.9746 535.454 66.5894L535.46 66.5959Z" fill="#DA1A00"/>
<path d="M463.806 135.991L467.076 140.451L462.914 144.087C456.348 149.822 449.178 155.381 441.472 160.718C442.33 160.515 443.136 160.332 443.87 160.169C457.908 157.075 472.699 149.607 482.463 144.015C466.571 135.912 450.994 120.445 446.564 115.861C446.006 115.717 445.338 115.547 444.591 115.351C456.911 126.776 463.019 134.911 463.812 135.991H463.806Z" fill="#FF8038"/>
<path d="M359.075 199.755C353.957 201.54 350.982 202.403 350.929 202.423L349.481 202.841L348.007 202.527C347.01 202.318 337.639 200.042 316.557 185.027C308.122 179.017 303.135 174.968 300.488 171.947C287.066 173.451 251.435 177.617 221.479 182.646C241.723 184.556 263.88 186.812 273.776 187.832C274.176 187.335 274.569 186.976 274.851 186.747C283.252 179.906 309.112 194.313 314.505 198.669C320.862 203.803 330.07 212.939 336.256 219.25C342.285 211.834 350.562 207.374 354.029 205.725C355.563 203.698 357.247 201.71 359.082 199.761L359.075 199.755Z" fill="#FF8038"/>
<path d="M367.824 57.381C383.244 56.315 406.869 58.1658 418.862 59.2841C415.5 58.0742 414.524 56.7989 413.823 55.0659C413.685 54.7258 413.58 54.3857 413.501 54.0391C385.748 51.4297 362.398 54.6081 347.332 57.865C350.883 59.3299 354.403 60.8537 357.883 62.4233L353.21 58.3947L367.824 57.3875V57.381Z" fill="#FF8038"/>
<g opacity="0.5" filter="url(#filter1_f_3383_15805)">
<path style="mix-blend-mode:screen" opacity="0.58" d="M323.181 87.1386C264.187 93.6694 218.104 114.671 220.252 134.046C222.4 153.422 271.967 163.834 330.961 157.303C389.956 150.772 436.039 129.771 433.891 110.396C431.742 91.0203 382.176 80.6077 323.181 87.1386Z" fill="url(#paint5_radial_3383_15805)"/>
<path style="mix-blend-mode:screen" opacity="0.58" d="M180.587 61.4873C121.914 70.4565 76.7451 93.349 79.6983 112.619C82.6516 131.889 132.609 140.24 191.281 131.271C249.954 122.302 295.123 99.4092 292.17 80.1389C289.217 60.8687 239.259 52.5181 180.587 61.4873Z" fill="url(#paint6_radial_3383_15805)"/>
<path style="mix-blend-mode:screen" opacity="0.58" d="M234.055 74.0388C175.382 83.008 130.213 105.901 133.166 125.171C136.119 144.441 186.077 152.792 244.749 143.822C303.422 134.853 348.591 111.961 345.638 92.6904C342.684 73.4202 292.727 65.0696 234.055 74.0388Z" fill="url(#paint7_radial_3383_15805)"/>
<path style="mix-blend-mode:screen" opacity="0.58" d="M276.689 70.9314C233.417 75.722 200.081 95.3139 202.229 114.691C204.378 134.068 241.198 145.893 284.469 141.103C327.74 136.312 361.077 116.72 358.929 97.3429C356.78 77.9656 319.96 66.1408 276.689 70.9314Z" fill="url(#paint8_radial_3383_15805)"/>
</g>
<path d="M226.368 89.9339C237.334 93.1957 252.372 101.705 244.434 106.761C236.496 111.817 247.031 106.529 247.031 106.529C247.031 106.529 256.992 102.408 251.788 103.262C246.588 104.116 245.422 98.3375 245.422 98.3375C245.422 98.3375 231.097 91.7879 236.584 91.6764C242.071 91.5607 229.754 88.332 229.754 88.332L226.367 89.9381L226.368 89.9339Z" fill="#DA1A00"/>
<path d="M227.682 87.6344C208.505 87.1589 226.986 77.4806 251.627 83.1175C251.627 83.1175 238.359 75.1183 201.538 84.9357C201.538 84.9357 213.537 82.0325 219.574 82.7147C225.611 83.3969 206.619 89.3455 206.619 89.3455L227.686 87.6346L227.682 87.6344Z" fill="#DA1A00"/>
<path d="M209.115 90.2538C196.242 92.6754 199.899 98.1459 204.22 99.752C208.54 101.358 195.01 97.8665 195.01 97.8665C195.01 97.8665 196.239 97.3138 198.612 97.7529C200.985 98.192 200.099 95.0243 199.162 93.8071C199.162 93.8071 203.663 92.097 202.412 91.7395C201.161 91.382 204.249 90.7543 204.249 90.7543L209.111 90.2536L209.115 90.2538Z" fill="#DA1A00"/>
<path d="M273.021 127.572C290.466 122.712 305.398 111.588 298.718 110.209C292.037 108.829 299.634 109.851 299.634 109.851C299.634 109.851 312.385 111.666 306.318 111.411C300.251 111.153 296.8 117.011 296.8 117.011C296.8 117.011 283.551 123.88 287.248 123.565C290.944 123.249 273.025 127.573 273.025 127.573L273.021 127.572Z" fill="#DA1A00"/>
<path d="M347.511 113.578C327.472 109.048 340.108 106.728 340.108 106.728C340.108 106.728 324.987 100.505 316.127 100.039C316.127 100.039 334.537 104.584 335.309 108.003C336.076 111.417 328.634 110.348 328.634 110.348L347.511 113.578Z" fill="#DA1A00"/>
<path d="M309.294 130.33C297.858 130.849 291.507 137.282 291.507 137.282L250.583 139.3C250.583 139.3 290.434 136.331 292.811 135.436C295.188 134.537 301.321 130.649 297.765 130.857C294.208 131.066 297.078 129.922 297.078 129.922L309.294 130.33Z" fill="#DA1A00"/>
<path d="M174.835 104.53C169.27 104.591 166.594 108.982 166.594 108.982L111.338 109.997C111.338 109.997 166.589 107.588 167.854 106.663C169.119 105.737 170.312 104.585 168.662 104.603C167.013 104.621 168.083 103.635 168.083 103.635L174.839 104.535L174.835 104.53Z" fill="#DA1A00"/>
<path d="M234.422 141.557C234.422 141.557 252.426 130.39 331.137 129.884L348.708 129.26C348.708 129.26 348.184 121.872 379.798 123.62C379.798 123.62 331.092 100.88 267.137 111.413C267.137 111.413 267.27 104.361 277.228 105.64C277.228 105.64 286.254 100.651 293.318 100.783C300.383 100.915 310.623 100.352 310.623 100.352C310.623 100.352 281.366 94.0114 287.875 90.0492C287.875 90.0492 253.71 92.6257 257.522 87.783C257.522 87.783 208.16 84.7424 181.781 95.1059C181.781 95.1059 184.547 96.9244 191.788 98.972L139.985 104.922L215.833 104.066L193.266 95.6789C193.266 95.6789 217.334 78.8349 261.426 100.872C261.426 100.872 248.683 100.817 229.106 117.638C229.106 117.638 258.405 112.906 266.357 116.475C266.357 116.475 286.506 102.099 320.313 115.735C320.313 115.735 268.496 125.953 234.422 141.553L234.422 141.557Z" fill="#F60109"/>
<path d="M323.647 117.192L316.202 118.501C316.002 118.542 295.541 123.351 276.484 128.501C289.635 127.486 320.329 127 336.647 126.894L343.408 126.603C343.069 127.381 343.776 126.162 343.985 125.954C346.163 123.749 353.022 121.176 358.495 120.34C349.864 117.937 333.322 113.469 317.351 112.456L325.995 116.607L323.647 117.192Z" fill="#DA1A00"/>
<path d="M239.853 90.0381C252.006 91.4948 265.053 97.6698 273.333 103.299C274.678 103.055 277.257 102.402 278.853 102.524C280.965 101.46 288.264 98.7716 293.218 97.7748C290.517 97.0076 286.87 94.0886 285.935 91.7267C285.251 92.7446 285.175 93.3016 283.527 93.4997C265.557 95.6591 258.598 92.323 256.702 90.2577C256.628 91.7238 242.098 90.0898 239.853 90.0381Z" fill="#DA1A00"/>
<path d="M237.999 114.15C245.077 113.092 258.822 113.265 264.195 113.741L264.18 113.362C264.171 113.082 262.751 112.448 261.385 110.275C262.101 108.627 264.639 104.967 268.033 103.875C256.33 103.217 248.424 105.186 237.999 114.15Z" fill="#DA1A00"/>
<path d="M329.566 116.786L316.789 119.305C316.589 119.346 301.623 122.314 282.566 127.464C295.717 126.45 310.524 125.885 326.842 125.779L341.997 125.24C342.173 125.017 342.365 124.799 342.574 124.591C344.752 122.386 348.517 120.874 353.99 120.038C345.359 117.635 334.593 115.267 322.153 113.796L329.574 116.787L329.566 116.786Z" fill="#FF8038"/>
<path d="M256.796 91.5797C255.382 91.5212 253.551 91.4587 251.386 91.4088C256.016 93.0767 260.715 95.1017 265.461 97.4741L274.347 101.915C275.692 101.671 277.163 101.61 278.759 101.733C280.87 100.669 285.58 98.4936 290.534 97.4967C288.251 96.2876 287.029 95.1992 286.338 94.268C264.952 95.6261 258.869 93.8389 256.8 91.5841L256.796 91.5797Z" fill="#FF8038"/>
<path d="M257.201 105.397C257.158 105.399 250.282 106.051 239.504 113.565C246.582 112.507 254.044 111.779 259.417 112.255L259.402 111.876C259.381 111.222 259.406 107.966 261.973 105.157L257.201 105.397Z" fill="#FF8038"/>
</g>
<defs>
<filter id="filter0_f_3383_15805" x="-20.0142" y="-20.0076" width="757.979" height="289" filterUnits="userSpaceOnUse" color-interpolation-filters="sRGB">
<feFlood flood-opacity="0" result="BackgroundImageFix"/>
<feBlend mode="normal" in="SourceGraphic" in2="BackgroundImageFix" result="shape"/>
<feGaussianBlur stdDeviation="10" result="effect1_foregroundBlur_3383_15805"/>
</filter>
<filter id="filter1_f_3383_15805" x="59.5615" y="37.8838" width="394.401" height="141.369" filterUnits="userSpaceOnUse" color-interpolation-filters="sRGB">
<feFlood flood-opacity="0" result="BackgroundImageFix"/>
<feBlend mode="normal" in="SourceGraphic" in2="BackgroundImageFix" result="shape"/>
<feGaussianBlur stdDeviation="10" result="effect1_foregroundBlur_3383_15805"/>
</filter>
<radialGradient id="paint0_radial_3383_15805" cx="0" cy="0" r="1" gradientUnits="userSpaceOnUse" gradientTransform="translate(517.378 85.4821) rotate(101.914) scale(62.5544 204.608)">
<stop stop-color="#150000"/>
<stop offset="0.53" stop-color="#B30000" stop-opacity="0.32"/>
<stop offset="1" stop-color="#FF0000" stop-opacity="0"/>
</radialGradient>
<radialGradient id="paint1_radial_3383_15805" cx="0" cy="0" r="1" gradientUnits="userSpaceOnUse" gradientTransform="translate(400.461 92.1749) rotate(123.765) scale(56.7087 130.91)">
<stop stop-color="#150000"/>
<stop offset="0.53" stop-color="#B30000" stop-opacity="0.32"/>
<stop offset="1" stop-color="#FF0000" stop-opacity="0"/>
</radialGradient>
<radialGradient id="paint2_radial_3383_15805" cx="0" cy="0" r="1" gradientUnits="userSpaceOnUse" gradientTransform="translate(385.585 181.43) rotate(156.094) scale(131.51 56.4501)">
<stop stop-color="#150000"/>
<stop offset="0.53" stop-color="#B30000" stop-opacity="0.32"/>
<stop offset="1" stop-color="#FF0000" stop-opacity="0"/>
</radialGradient>
<radialGradient id="paint3_radial_3383_15805" cx="0" cy="0" r="1" gradientUnits="userSpaceOnUse" gradientTransform="translate(300.237 194.315) rotate(100.882) scale(56.6768 130.984)">
<stop stop-color="#150000"/>
<stop offset="0.53" stop-color="#B30000" stop-opacity="0.32"/>
<stop offset="1" stop-color="#FF0000" stop-opacity="0"/>
</radialGradient>
<radialGradient id="paint4_radial_3383_15805" cx="0" cy="0" r="1" gradientUnits="userSpaceOnUse" gradientTransform="translate(193.114 190.914) rotate(91.3628) scale(57.3957 192.165)">
<stop stop-color="#150000"/>
<stop offset="0.53" stop-color="#B30000" stop-opacity="0.32"/>
<stop offset="1" stop-color="#FF0000" stop-opacity="0"/>
</radialGradient>
<radialGradient id="paint5_radial_3383_15805" cx="0" cy="0" r="1" gradientUnits="userSpaceOnUse" gradientTransform="translate(339.182 120.637) rotate(-6.31707) scale(108.016 35.3248)">
<stop stop-color="#150000"/>
<stop offset="0.53" stop-color="#B30000" stop-opacity="0.32"/>
<stop offset="1" stop-color="#FF0000" stop-opacity="0"/>
</radialGradient>
<radialGradient id="paint6_radial_3383_15805" cx="0" cy="0" r="1" gradientUnits="userSpaceOnUse" gradientTransform="translate(197.969 94.2944) rotate(-8.69147) scale(108.014 35.3267)">
<stop stop-color="#150000"/>
<stop offset="0.53" stop-color="#B30000" stop-opacity="0.32"/>
<stop offset="1" stop-color="#FF0000" stop-opacity="0"/>
</radialGradient>
<radialGradient id="paint7_radial_3383_15805" cx="0" cy="0" r="1" gradientUnits="userSpaceOnUse" gradientTransform="translate(251.436 106.846) rotate(-8.69147) scale(108.014 35.3267)">
<stop stop-color="#150000"/>
<stop offset="0.53" stop-color="#B30000" stop-opacity="0.32"/>
<stop offset="1" stop-color="#FF0000" stop-opacity="0"/>
</radialGradient>
<radialGradient id="paint8_radial_3383_15805" cx="0" cy="0" r="1" gradientUnits="userSpaceOnUse" gradientTransform="translate(289.455 104.791) rotate(-6.31753) scale(79.2278 35.3281)">
<stop stop-color="#150000"/>
<stop offset="0.53" stop-color="#B30000" stop-opacity="0.32"/>
<stop offset="1" stop-color="#FF0000" stop-opacity="0"/>
</radialGradient>
<clipPath id="clip0_3383_15805">
<rect width="718" height="249" fill="white"/>
</clipPath>
</defs>
</svg>
