<svg width="323" height="203" viewBox="0 0 323 203" fill="none" xmlns="http://www.w3.org/2000/svg">
<path d="M55.2217 -134.636L56.724 -135.957L55.2467 -137.638L53.7416 -135.981L55.2217 -134.636ZM3.0612 -10.7425L1.06483 -10.8629L1.06409 -10.8506L1.0635 -10.8382L3.0612 -10.7425ZM101.421 -41.592L102.514 -39.9171L103.653 -40.66L103.381 -41.992L101.421 -41.592ZM3 -9.36827L1.00169 -9.45049L0.911245 -7.25211L3.10825 -7.3712L3 -9.36827ZM403 -9.36823L402.892 -7.37115L405.088 -7.25209L404.998 -9.45027L403 -9.36823ZM402.97 -10.0616L400.972 -9.97258V-9.97241L402.97 -10.0616ZM304.578 -41.5917L302.619 -41.9917L302.347 -40.6597L303.485 -39.9168L304.578 -41.5917ZM350.778 -134.636L352.258 -135.981L350.753 -137.638L349.275 -135.956L350.778 -134.636ZM402.941 -10.6882L404.939 -10.7834L404.938 -10.7957L404.938 -10.8081L402.941 -10.6882ZM213.455 -200L213.563 -201.997L211.339 -202.117L211.458 -199.893L213.455 -200ZM335.742 -149.528L337.069 -148.032L338.752 -149.524L337.073 -151.021L335.742 -149.528ZM244.028 -103.318L242.333 -102.256L243.074 -101.074L244.44 -101.361L244.028 -103.318ZM192.544 -200L194.541 -199.893L194.66 -202.117L192.436 -201.997L192.544 -200ZM161.971 -103.318L161.56 -101.361L162.925 -101.074L163.666 -102.257L161.971 -103.318ZM70.2581 -149.528L68.9274 -151.022L67.2485 -149.525L68.9306 -148.032L70.2581 -149.528ZM402.774 11.6758L404.77 11.8009L404.911 9.5545L402.663 9.67888L402.774 11.6758ZM305.394 43.3572L304.309 41.6771L303.138 42.4337L303.443 43.7948L305.394 43.3572ZM351.826 133.775L350.335 135.107L351.826 136.778L353.318 135.107L351.826 133.775ZM337.04 148.646L338.38 150.13L340.024 148.646L338.38 147.161L337.04 148.646ZM246.474 101.804L246.91 99.8518L245.562 99.551L244.803 100.704L246.474 101.804ZM213.591 200L211.595 199.871L211.449 202.117L213.697 201.997L213.591 200ZM192.408 200L192.302 201.997L194.55 202.117L194.404 199.871L192.408 200ZM159.525 101.804L161.196 100.705L160.437 99.551L159.09 99.8518L159.525 101.804ZM68.9597 148.646L67.6194 147.161L65.9754 148.646L67.6194 150.13L68.9597 148.646ZM54.1736 133.776L52.6817 135.108L54.1736 136.779L55.6655 135.108L54.1736 133.776ZM100.605 43.3577L102.557 43.7953L102.862 42.4342L101.69 41.6775L100.605 43.3577ZM3.22588 11.6759L3.33639 9.67891L1.08899 9.55453L1.22979 11.801L3.22588 11.6759ZM347.279 0.954742L347.887 2.86012L353.859 0.954742L347.887 -0.950638L347.279 0.954742ZM257.642 -53.8557L256.224 -52.4455L257.642 -53.8557ZM257.642 55.7651L256.224 54.3549L257.642 55.7651ZM203.14 145.909L201.232 146.511L203.14 152.557L205.047 146.511L203.14 145.909ZM148.637 55.7651L150.056 54.3549L148.637 55.7651ZM58.9999 0.954742L58.392 -0.950638L52.4199 0.954742L58.392 2.86012L58.9999 0.954742ZM148.637 -53.8557L150.056 -52.4455L148.637 -53.8557ZM203.14 -144L205.047 -144.602L203.14 -150.648L201.232 -144.602L203.14 -144ZM202.999 -52L203.021 -53.9998L202.999 -54.0001L202.977 -53.9998L202.999 -52ZM166.195 -36.567L167.609 -35.1528V-35.1528L166.195 -36.567ZM239.805 36.5671L241.219 37.9813L239.805 36.5671ZM203.001 52L202.979 53.9999L203.001 54.0002L203.023 53.9999L203.001 52ZM166.196 36.5682L167.61 35.154H167.61L166.196 36.5682ZM151 0.00088501L153 0.000854492L151 0.00088501ZM202.997 -168L203.019 -170L202.997 -170L202.975 -170L202.997 -168ZM321.904 -118.143L323.319 -119.557L321.904 -118.143ZM371 -0.0025177L373 -0.00254822L371 -0.0025177ZM321.908 118.14L323.322 119.554L321.908 118.14ZM203.003 168L202.981 170L203.003 170L203.025 170L203.003 168ZM84.0956 118.143L85.5098 116.729L84.0956 118.143ZM35 0.00273132L37 0.00270081L35 0.00273132ZM84.0919 -118.14L85.5062 -116.725L84.0919 -118.14ZM53.7416 -135.981C22.5175 -101.623 3.87646 -57.4751 1.06483 -10.8629L5.05758 -10.6221C7.81435 -56.325 26.0918 -99.6084 56.7019 -133.291L53.7416 -135.981ZM103.381 -41.992C96.306 -76.6519 80.3242 -109.102 56.724 -135.957L53.7194 -133.316C76.8555 -106.99 92.5249 -75.1754 99.4618 -41.192L103.381 -41.992ZM3.10825 -7.3712C38.749 -9.30316 72.9844 -20.6456 102.514 -39.9171L100.328 -43.2669C71.3817 -24.3761 37.8246 -13.2589 2.89175 -11.3653L3.10825 -7.3712ZM1.0635 -10.8382C1.04133 -10.3759 1.02073 -9.91327 1.00169 -9.45049L4.99831 -9.28606C5.01698 -9.73981 5.03718 -10.1934 5.05891 -10.6467L1.0635 -10.8382ZM404.998 -9.45027C404.989 -9.68391 404.979 -9.91742 404.968 -10.1508L400.972 -9.97241C400.982 -9.74362 400.992 -9.51488 401.002 -9.28618L404.998 -9.45027ZM303.485 -39.9168C333.015 -20.6454 367.251 -9.30298 402.892 -7.37115L403.108 -11.3653C368.175 -13.2588 334.618 -24.3758 305.671 -43.2666L303.485 -39.9168ZM349.275 -135.956C325.675 -109.102 309.694 -76.6517 302.619 -41.9917L306.538 -41.1917C313.475 -75.1751 329.144 -106.99 352.28 -133.316L349.275 -135.956ZM404.938 -10.8081C402.137 -57.4404 383.494 -101.609 352.258 -135.981L349.297 -133.291C379.919 -99.5951 398.199 -56.291 400.945 -10.5683L404.938 -10.8081ZM404.968 -10.1506C404.959 -10.3617 404.949 -10.5726 404.939 -10.7834L400.943 -10.593C400.953 -10.3861 400.963 -10.1793 400.972 -9.97258L404.968 -10.1506ZM213.347 -198.003C258.268 -195.572 300.916 -177.888 334.411 -148.035L337.073 -151.021C302.904 -181.474 259.395 -199.517 213.563 -201.997L213.347 -198.003ZM245.723 -104.379C227.819 -132.97 217.284 -165.882 215.452 -200.107L211.458 -199.893C213.326 -164.987 224.071 -131.419 242.333 -102.256L245.723 -104.379ZM334.415 -151.024C308.436 -127.972 277.097 -112.309 243.617 -105.275L244.44 -101.361C278.597 -108.537 310.568 -124.516 337.069 -148.032L334.415 -151.024ZM190.547 -200.107C188.716 -165.882 178.18 -132.97 160.276 -104.38L163.666 -102.257C181.928 -131.419 192.673 -164.987 194.541 -199.893L190.547 -200.107ZM71.5888 -148.035C105.084 -177.888 147.731 -195.572 192.652 -198.003L192.436 -201.997C146.604 -199.517 103.096 -181.475 68.9274 -151.022L71.5888 -148.035ZM162.382 -105.275C128.903 -112.31 97.5639 -127.973 71.5855 -151.024L68.9306 -148.032C95.4315 -124.517 127.403 -108.538 161.56 -101.361L162.382 -105.275ZM402.663 9.67888C367.436 11.6284 333.588 22.7715 304.309 41.6771L306.479 45.0374C335.18 26.5054 368.356 15.5836 402.884 13.6728L402.663 9.67888ZM353.318 135.107C383.856 100.904 401.91 57.4256 404.77 11.8009L400.778 11.5507C397.974 56.2853 380.271 98.9122 350.335 132.443L353.318 135.107ZM303.443 43.7948C311.005 77.5201 327.037 109.013 350.335 135.107L353.318 132.443C330.479 106.862 314.76 75.9865 307.346 42.9196L303.443 43.7948ZM338.38 147.161C312.261 123.578 280.701 107.395 246.91 99.8518L246.038 103.756C279.159 111.149 310.095 127.011 335.699 150.13L338.38 147.161ZM213.697 201.997C259.822 199.547 303.855 181.305 338.38 150.13L335.699 147.161C301.854 177.721 258.693 195.601 213.485 198.003L213.697 201.997ZM244.803 100.704C225.459 130.107 213.906 164.254 211.595 199.871L215.587 200.13C217.852 165.208 229.18 131.729 248.145 102.903L244.803 100.704ZM194.404 199.871C192.094 164.254 180.54 130.107 161.196 100.705L157.855 102.903C176.819 131.729 188.147 165.208 190.413 200.13L194.404 199.871ZM67.6194 150.13C102.145 181.304 146.177 199.546 192.302 201.997L192.515 198.003C147.306 195.601 104.145 177.721 70.3001 147.161L67.6194 150.13ZM159.09 99.8518C125.299 107.395 93.7384 123.577 67.6194 147.161L70.3001 150.13C95.9043 127.011 126.84 111.149 159.961 103.756L159.09 99.8518ZM55.6655 135.108C78.9629 109.013 94.9949 77.5206 102.557 43.7953L98.654 42.9201C91.2394 75.987 75.5209 106.862 52.6817 132.444L55.6655 135.108ZM1.22979 11.801C4.0894 57.4258 22.1443 100.904 52.6817 135.108L55.6655 132.444C25.7284 98.9126 8.02578 56.2856 5.22196 11.5508L1.22979 11.801ZM101.69 41.6775C72.4116 22.7719 38.5642 11.6285 3.33639 9.67891L3.11536 13.6728C37.6434 15.5837 70.8202 26.5057 99.5206 45.0379L101.69 41.6775ZM347.887 -0.950638C314.381 -11.6405 283.918 -30.2678 259.06 -55.2659L256.224 -52.4455C281.533 -26.993 312.552 -8.02547 346.671 2.86012L347.887 -0.950638ZM259.06 57.1753C283.918 32.1772 314.381 13.55 347.887 2.86012L346.671 -0.950638C312.552 9.93491 281.533 28.9024 256.224 54.3549L259.06 57.1753ZM205.047 146.511C215.678 112.811 234.202 82.1735 259.06 57.1753L256.224 54.3549C230.914 79.8073 212.055 111 201.232 145.308L205.047 146.511ZM147.219 57.1753C172.077 82.1735 190.601 112.811 201.232 146.511L205.047 145.308C194.224 111 175.365 79.8073 150.056 54.3549L147.219 57.1753ZM58.392 2.86012C91.898 13.55 122.362 32.1772 147.219 57.1753L150.056 54.3549C124.746 28.9024 93.7271 9.93491 59.6078 -0.950638L58.392 2.86012ZM147.219 -55.2659C122.362 -30.2678 91.898 -11.6405 58.392 -0.950638L59.6078 2.86012C93.7271 -8.02547 124.746 -26.993 150.056 -52.4455L147.219 -55.2659ZM201.232 -144.602C190.601 -110.902 172.077 -80.2641 147.219 -55.2659L150.056 -52.4455C175.365 -77.8979 194.224 -109.091 205.047 -143.398L201.232 -144.602ZM259.06 -55.2659C234.202 -80.2641 215.678 -110.902 205.047 -144.602L201.232 -143.398C212.055 -109.091 230.914 -77.8979 256.224 -52.4455L259.06 -55.2659ZM202.977 -53.9998C188.614 -53.8423 174.888 -48.0887 164.781 -37.9811L167.609 -35.1528C176.973 -44.5163 189.697 -49.8539 203.021 -50.0001L202.977 -53.9998ZM241.218 -37.9823C231.11 -48.0896 217.385 -53.8427 203.021 -53.9998L202.977 -50.0001C216.302 -49.8543 229.026 -44.5171 238.389 -35.1539L241.218 -37.9823ZM257 -0.000762939C257 -14.2268 251.326 -27.8743 241.218 -37.9823L238.389 -35.1539C247.752 -25.7913 253 -13.1593 253 -0.000701904L257 -0.000762939ZM241.219 37.9813C251.327 27.873 257 14.2253 257 -0.000762939L253 -0.000701904C253 13.1579 247.753 25.7901 238.391 35.1529L241.219 37.9813ZM203.023 53.9999C217.386 53.8424 231.112 48.0889 241.219 37.9813L238.391 35.1529C229.027 44.5164 216.303 49.854 202.979 50.0002L203.023 53.9999ZM164.782 37.9825C174.89 48.0898 188.615 53.8428 202.979 53.9999L203.023 50.0002C189.698 49.8544 176.974 44.5173 167.61 35.154L164.782 37.9825ZM149 0.000915527C149 14.227 154.674 27.8745 164.782 37.9825L167.61 35.154C158.248 25.7915 153 13.1595 153 0.000854492L149 0.000915527ZM164.781 -37.9812C154.673 -27.8728 149 -14.2251 149 0.000915527L153 0.000854492C153 -13.1577 158.247 -25.79 167.609 -35.1528L164.781 -37.9812ZM202.975 -170C197.916 -169.944 192.882 -169.668 187.887 -169.178L188.278 -165.197C193.158 -165.676 198.076 -165.946 203.019 -166L202.975 -170ZM218.112 -169.178C213.115 -169.669 208.08 -169.945 203.019 -170L202.976 -166C207.92 -165.946 212.839 -165.676 217.721 -165.197L218.112 -169.178ZM323.319 -119.557C319.213 -123.663 314.918 -127.54 310.453 -131.181L307.925 -128.081C312.286 -124.525 316.481 -120.738 320.49 -116.729L323.319 -119.557ZM332.434 -109.697C329.537 -113.089 326.498 -116.379 323.319 -119.557L320.49 -116.729C323.595 -113.624 326.563 -110.411 329.392 -107.099L332.434 -109.697ZM373 -0.00254822C373 -4.69626 372.804 -9.37015 372.416 -14.0135L368.429 -13.6803C368.808 -9.14746 369 -4.58469 369 -0.00248718L373 -0.00254822ZM372.321 15.1062C372.772 10.102 373 5.06128 373 -0.00254822L369 -0.00248718C369 4.94104 368.777 9.86195 368.337 14.7471L372.321 15.1062ZM323.322 119.554C326.847 116.029 330.2 112.368 333.377 108.583L330.313 106.011C327.211 109.708 323.936 113.283 320.494 116.725L323.322 119.554ZM313.147 128.938C316.653 125.958 320.048 122.828 323.322 119.554L320.494 116.725C317.296 119.923 313.98 122.98 310.556 125.89L313.147 128.938ZM203.025 170C208.098 169.944 213.145 169.667 218.154 169.174L217.762 165.193C212.869 165.675 207.937 165.946 202.981 166L203.025 170ZM187.845 169.174C192.856 169.667 197.906 169.944 202.981 170L203.025 166C198.066 165.946 193.133 165.675 188.237 165.193L187.845 169.174ZM82.6814 119.558C85.9545 122.831 89.3483 125.959 92.8525 128.938L95.4433 125.89C92.0209 122.981 88.7064 119.926 85.5098 116.729L82.6814 119.558ZM72.6234 108.583C75.8011 112.369 79.1555 116.032 82.6814 119.558L85.5098 116.729C82.0663 113.286 78.7905 109.709 75.6874 106.012L72.6234 108.583ZM33 0.00276184C33.0001 5.06483 33.2284 10.1039 33.6794 15.1064L37.6632 14.7472C37.223 9.86372 37.0001 4.9445 37 0.00270081L33 0.00276184ZM33.5845 -14.0137C33.1963 -9.36853 32.9999 -4.69279 33 0.00276184L37 0.00270081C36.9999 -4.58131 37.1916 -9.14587 37.5706 -13.6805L33.5845 -14.0137ZM82.6777 -119.554C79.4999 -116.376 76.4614 -113.087 73.566 -109.696L76.6079 -107.099C79.4353 -110.41 82.4026 -113.622 85.5062 -116.725L82.6777 -119.554ZM95.5471 -131.181C91.0809 -127.539 86.7843 -123.661 82.6777 -119.554L85.5062 -116.725C89.5168 -120.736 93.713 -124.524 98.075 -128.081L95.5471 -131.181Z" fill="url(#paint0_linear_4839_1922)"/>
<defs>
<linearGradient id="paint0_linear_4839_1922" x1="203" y1="-200" x2="203" y2="200" gradientUnits="userSpaceOnUse">
<stop stop-color="#3E0002"/>
<stop offset="1" stop-color="#3E0002" stop-opacity="0"/>
</linearGradient>
</defs>
</svg>
