<svg width="140" height="140" viewBox="0 0 140 140" fill="none" xmlns="http://www.w3.org/2000/svg">
<path fill-rule="evenodd" clip-rule="evenodd" d="M18.4469 81.3251C19.5114 85.8624 21.1803 90.2112 23.3852 94.2617C26.4359 99.8684 30.5156 104.925 35.4262 109.132C36.7618 110.276 36.9052 112.262 35.7507 113.568C34.5962 114.873 32.578 115.001 31.2423 113.857C25.7508 109.146 21.182 103.488 17.7598 97.201C15.5616 93.1602 13.8357 88.8632 12.6428 84.3931L9.93629 88.7424C9.02229 90.2164 7.05878 90.6773 5.54949 89.7677C4.04432 88.8589 3.56227 86.9249 4.47706 85.4469L11.507 74.1617C12.3659 72.7734 14.151 72.2861 15.6116 72.9851L27.473 78.6779C29.0672 79.4363 29.7384 81.3191 28.978 82.8816C28.2175 84.4442 26.3066 85.0956 24.7132 84.3331L18.4435 81.3202L18.4469 81.3251ZM106.058 108.303C109.507 105.158 112.489 101.588 114.946 97.7099C118.355 92.3191 120.744 86.3529 121.965 80.1135C122.296 78.4129 123.966 77.3081 125.698 77.6447C127.429 77.9813 128.568 79.6322 128.238 81.3328C126.863 88.3639 124.192 95.051 120.397 101.05C117.955 104.914 115.042 108.506 111.704 111.731L116.916 111.889C118.679 111.951 120.07 113.403 120.023 115.138C119.976 116.873 118.505 118.23 116.74 118.172L103.241 117.762C101.584 117.704 100.258 116.419 100.141 114.828L99.1551 101.914C99.0271 100.178 100.351 98.6794 102.114 98.5693C103.874 98.4544 105.412 99.7678 105.535 101.502L106.052 108.31L106.058 108.303ZM85.502 20.365C80.9787 18.9744 76.3196 18.1945 71.6577 18.0219C65.2025 17.7858 58.737 18.7006 52.6102 20.7501C50.9448 21.3025 49.1262 20.425 48.549 18.7827C47.976 17.1412 48.856 15.3588 50.5214 14.8064C57.3925 12.5074 64.6355 11.4797 71.853 11.7466C76.4977 11.92 81.1331 12.6241 85.6551 13.8678L83.1603 9.35422C82.3172 7.82793 82.8882 5.92254 84.4346 5.10385C85.9811 4.28516 87.9226 4.85959 88.7656 6.38588L95.2294 18.0848C96.0216 19.5215 95.5676 21.2861 94.2295 22.1747L83.3504 29.3916C81.8941 30.3619 79.9066 29.9798 78.91 28.541C77.9133 27.1022 78.2884 25.1504 79.7448 24.18L85.493 20.3675L85.502 20.365ZM109.368 27.7485C107.954 26.4307 105.739 26.5089 104.422 27.9232C103.104 29.3374 103.182 31.5521 104.596 32.8698C106.741 34.8687 108.697 37.0378 110.448 39.3486C111.615 40.8892 113.811 41.1918 115.351 40.0243C116.892 38.8569 117.195 36.6616 116.027 35.1209C114.034 32.4913 111.809 30.023 109.368 27.7485ZM40.2159 24.5213C41.3768 26.0668 41.065 28.2608 39.5195 29.4218C37.175 31.1828 35.0013 33.1331 33.0159 35.2459C31.6922 36.6546 29.4772 36.7234 28.0686 35.3997C26.6599 34.076 26.5911 31.861 27.9148 30.4524C30.1741 28.048 32.6477 25.8286 35.3154 23.8248C36.8609 22.6639 39.055 22.9757 40.2159 24.5213ZM21.6368 45.1721C23.4097 45.9424 24.2225 48.004 23.4522 49.7769C22.2969 52.4361 21.3654 55.2039 20.6752 58.0537C20.2202 59.9324 18.3284 61.0865 16.4497 60.6315C14.571 60.1765 13.4169 58.2847 13.8719 56.406C14.6572 53.1634 15.7173 50.0137 17.032 46.9876C17.8022 45.2147 19.8639 44.4019 21.6368 45.1721ZM120.714 50.4217C122.559 49.8431 124.523 50.8692 125.102 52.7136C126.089 55.8617 126.81 59.1057 127.249 62.4132C127.503 64.3295 126.155 66.0887 124.239 66.3427C122.323 66.5966 120.563 65.249 120.309 63.3328C119.924 60.426 119.29 57.5752 118.423 54.8089C117.844 52.9645 118.87 51.0003 120.714 50.4217ZM46.1454 118.849C46.88 117.061 48.9249 116.207 50.7129 116.942C53.4251 118.056 56.2126 118.927 59.0435 119.553C60.931 119.97 62.1227 121.839 61.7055 123.726C61.2882 125.613 59.4199 126.805 57.5325 126.388C54.3109 125.676 51.1388 124.685 48.0527 123.417C46.2647 122.682 45.4108 120.637 46.1454 118.849ZM87.0172 125.185C88.8643 124.615 89.9 122.656 89.3304 120.809C88.7607 118.962 86.8015 117.926 84.9544 118.496C82.1524 119.36 79.2974 119.975 76.4215 120.342C74.504 120.586 73.1479 122.339 73.3925 124.256C73.6371 126.174 75.3898 127.53 77.3072 127.285C80.5801 126.868 83.8289 126.168 87.0172 125.185ZM75.7199 41.7229C75.5441 41.4846 75.3227 41.2845 75.0688 41.1347C74.8149 40.9848 74.5338 40.8883 74.2422 40.8508C73.9507 40.8133 73.6547 40.8357 73.3718 40.9166C73.089 40.9975 72.8252 41.1352 72.5961 41.3215C67.0065 45.8627 63.3194 52.3741 62.274 59.5504C60.3583 58.1446 58.6791 56.4353 57.3011 54.4885C57.114 54.2237 56.8714 54.004 56.5908 53.845C56.3101 53.686 55.9982 53.5915 55.6773 53.5684C55.3565 53.5453 55.0345 53.5941 54.7344 53.7113C54.4343 53.8285 54.1635 54.0112 53.9411 54.2465C50.0892 58.3242 47.62 63.5371 46.8913 69.1299C46.1626 74.7227 47.2122 80.405 49.8881 85.3538C52.564 90.3026 56.7273 94.2608 61.7747 96.6551C66.8222 99.0494 72.4919 99.7555 77.9624 98.671C83.4329 97.5865 88.4202 94.7678 92.2019 90.6232C95.9836 86.4786 98.3633 81.2233 98.9962 75.6186C99.6292 70.0139 98.4826 64.3508 95.7225 59.4496C92.9624 54.5484 88.7321 50.6637 83.6444 48.3581C80.5169 46.819 77.7994 44.5438 75.7199 41.7229ZM90.416 75.7642C90.4143 78.3073 89.8634 80.8197 88.8014 83.1281C87.7394 85.4366 86.1915 87.4861 84.2646 89.1352C82.3377 90.7844 80.0776 91.9939 77.6402 92.6804C75.2028 93.367 72.6462 93.5141 70.1468 93.1116C67.6473 92.7092 65.2645 91.7668 63.1628 90.3495C61.061 88.9322 59.2903 87.0736 57.9729 84.9021C56.6555 82.7306 55.8226 80.2978 55.5319 77.7716C55.3652 76.3238 55.3789 74.865 55.5695 73.4285C55.7793 71.8477 57.617 71.2537 58.9981 72.0508C60.5157 72.9266 62.1231 73.6629 63.8033 74.2419C65.0964 74.6875 66.4138 73.7927 66.7433 72.4653C68.0072 67.3739 70.6693 62.729 74.4387 59.0688C74.9291 58.5926 75.6183 58.3766 76.289 58.509C80.0782 59.2566 83.5262 61.2455 86.083 64.1797C88.8772 67.386 90.4169 71.5027 90.416 75.7642Z" fill="url(#paint0_linear_4080_12054)" fill-opacity="0.4"/>
<defs>
<linearGradient id="paint0_linear_4080_12054" x1="66.1543" y1="4.73096" x2="66.1543" y2="127.314" gradientUnits="userSpaceOnUse">
<stop stop-color="white"/>
<stop offset="1" stop-color="white" stop-opacity="0.1"/>
</linearGradient>
</defs>
</svg>
