<svg width="140" height="140" viewBox="0 0 140 140" fill="none" xmlns="http://www.w3.org/2000/svg">
<path d="M70.887 11.6665C68.9216 11.6665 67.3089 13.2558 67.3089 15.1928C67.3089 17.1795 68.9216 18.7688 70.887 18.7688C98.756 19.5635 121.182 42.1617 121.182 69.7763C121.182 80.1069 118.058 90.0899 112.111 98.5829C111.587 99.3577 110.488 99.4668 109.822 98.8102L105.559 94.6092C104.162 93.2325 101.793 94.0887 101.599 96.0403L99.9459 112.674C99.7999 114.143 101.038 115.377 102.507 115.226L119.262 113.496C121.228 113.294 122.067 110.891 120.655 109.508L117.537 106.454C116.723 105.657 116.664 104.367 117.403 103.5C136.301 77.425 130.153 41.0691 103.695 22.4441C94.0692 15.6398 82.7301 11.9148 70.887 11.6665Z" fill="url(#paint0_linear_3805_11997)" fill-opacity="0.4"/>
<path d="M69.1724 128.333C71.1379 128.333 72.7505 126.744 72.7505 124.807C72.7505 122.82 71.1379 121.231 69.1724 121.231C41.3035 120.436 18.8773 97.8378 18.8773 70.2232C18.8773 59.8925 22.0018 49.9096 27.9485 41.4166C28.4727 40.6418 29.5714 40.5327 30.2377 41.1893L34.5004 45.3903C35.8973 46.767 38.2662 45.9108 38.4602 43.9592L40.1135 27.3257C40.2596 25.8562 39.021 24.6223 37.5521 24.7739L20.7975 26.5031C18.8316 26.706 17.9924 29.1082 19.4044 30.4911L22.5229 33.5453C23.3364 34.3421 23.395 35.6324 22.657 36.4996C3.75848 62.5745 9.90679 98.9304 36.3647 117.555C45.9903 124.36 57.3294 128.085 69.1724 128.333Z" fill="url(#paint1_linear_3805_11997)" fill-opacity="0.4"/>
<path d="M52.9022 90.9356C51.4152 92.4111 50.3897 94.1324 49.8256 96.0013C49.159 98.1161 47.1079 99.4932 44.8517 99.0998C44.6979 99.0998 44.5953 99.0998 44.4415 99.0506C41.8776 98.6079 40.288 96.1489 41.0059 93.7882C42.0315 90.2471 44.0825 87.0011 46.9028 84.3453C47.6207 83.706 48.4411 83.0666 49.159 82.3781C60.7989 72.7877 72.5927 71.5581 72.7466 71.4598C74.0798 71.3122 75.2079 70.181 75.054 68.9023C74.9002 67.6236 73.7208 66.5416 72.3876 66.6892C72.1312 66.6892 58.1325 68.0171 46.0311 78.6894C45.3645 79.2304 44.2877 78.9354 44.1338 78.1484C41.211 65.7547 53.8252 54.5905 70.1827 51.5413C82.3354 49.1314 88.8476 45.0493 92.1807 41.7542C93.9754 40.0328 97.2058 40.8197 97.7699 43.328C106.897 80.1157 68.9008 102.444 52.851 90.9356H52.9022Z" fill="url(#paint2_linear_3805_11997)" fill-opacity="0.4"/>
<defs>
<linearGradient id="paint0_linear_3805_11997" x1="70.0297" y1="11.4721" x2="70.0297" y2="128.523" gradientUnits="userSpaceOnUse">
<stop stop-color="white"/>
<stop offset="1" stop-color="white" stop-opacity="0.1"/>
</linearGradient>
<linearGradient id="paint1_linear_3805_11997" x1="70.0297" y1="11.4721" x2="70.0297" y2="128.523" gradientUnits="userSpaceOnUse">
<stop stop-color="white"/>
<stop offset="1" stop-color="white" stop-opacity="0.1"/>
</linearGradient>
<linearGradient id="paint2_linear_3805_11997" x1="69.9997" y1="40.7363" x2="69.9997" y2="99.2617" gradientUnits="userSpaceOnUse">
<stop stop-color="white"/>
<stop offset="1" stop-color="white" stop-opacity="0.1"/>
</linearGradient>
</defs>
</svg>
