<svg width="140" height="140" viewBox="0 0 140 140" fill="none" xmlns="http://www.w3.org/2000/svg">
<path d="M82.3476 28.4211L78.5862 47.6543L101.215 15.375L101.232 15.3517C101.61 14.8051 101.924 14.6945 102.057 14.6619C102.234 14.6184 102.494 14.624 102.801 14.7699C103.109 14.9166 103.394 15.1757 103.576 15.5211C103.742 15.8355 103.871 16.312 103.745 17.0112L98.9097 42.6514C98.6669 43.9388 99.0144 45.2666 99.8577 46.2744C100.701 47.2821 101.953 47.8651 103.273 47.8651H117.959C118.384 47.8651 118.873 48.0833 119.216 48.8032C119.562 49.5273 119.544 50.3908 119.104 51.0949L101.638 76.0093C101.224 76.8772 100.741 77.7231 100.185 78.5393C100.119 78.637 100.051 78.7335 99.9815 78.829L91.0057 91.1753L89.6075 93.1697L89.5913 93.1929C89.4637 93.3775 89.3433 93.5124 89.2347 93.6113L83.572 101.4C83.7723 101.512 83.9763 101.618 84.1836 101.716C88.3303 103.689 93.6817 102.835 96.9033 98.188L96.9121 98.1754L126.441 56.0539L126.477 56.0014L126.517 55.9414C128.815 52.4386 128.79 48.2833 127.241 45.0365C125.684 41.7711 122.372 39.0574 117.959 39.0574H108.619L112.474 18.6178L112.478 18.596C113.454 13.2707 110.684 8.75235 106.639 6.82817C102.493 4.85539 97.1412 5.71003 93.9196 10.3565L82.6326 26.4569C82.5717 27.0851 82.4809 27.7209 82.3587 28.3633L82.3476 28.4211Z" fill="url(#paint0_linear_3805_2679)" fill-opacity="0.4"/>
<path fill-rule="evenodd" clip-rule="evenodd" d="M68.4844 13.2551C73.262 15.4469 76.7174 20.6999 75.5043 27.08L75.5001 27.1025L70.0749 54.8428H84.2736C94.6862 54.8428 99.8483 66.6634 94.4035 74.6676C94.3776 74.7056 94.3512 74.7432 94.3242 74.7803L54.9473 128.943L54.9385 128.955C51.0528 134.362 44.7705 135.256 39.9356 133.038C35.158 130.846 31.7026 125.593 32.9157 119.213L32.92 119.191L38.3451 91.4503H24.1464C13.6163 91.4503 8.20449 79.6639 14.0886 71.5227L14.0958 71.5127L53.4727 17.3498L53.4817 17.3374C57.3674 11.9307 63.6496 11.0371 68.4844 13.2551ZM64.7583 21.2495C63.4343 20.6421 61.8898 20.8056 60.7066 22.4556L60.6899 22.4789L21.3033 76.6551C19.36 79.3503 21.3164 82.6426 24.1464 82.6426H43.7281C45.0534 82.6426 46.3095 83.2302 47.1527 84.2447C47.996 85.2592 48.3381 86.5944 48.0857 87.8853L41.6396 120.846L41.6377 120.856C41.2433 122.951 42.2791 124.409 43.6617 125.044C44.9857 125.651 46.5302 125.487 47.7134 123.837L47.7302 123.814L87.0768 69.6928C88.9469 66.8711 86.7479 63.6504 84.2736 63.6504H64.692C63.3666 63.6504 62.1105 63.0628 61.2673 62.0483C60.4241 61.0339 60.0819 59.6986 60.3343 58.4078L66.7822 25.4381C67.1769 23.3419 66.141 21.8838 64.7583 21.2495Z" fill="url(#paint1_linear_3805_2679)" fill-opacity="0.4"/>
<defs>
<linearGradient id="paint0_linear_3805_2679" x1="70.0003" y1="5.8335" x2="70.0003" y2="134.167" gradientUnits="userSpaceOnUse">
<stop stop-color="white"/>
<stop offset="1" stop-color="white" stop-opacity="0.1"/>
</linearGradient>
<linearGradient id="paint1_linear_3805_2679" x1="70.0003" y1="5.8335" x2="70.0003" y2="134.167" gradientUnits="userSpaceOnUse">
<stop stop-color="white"/>
<stop offset="1" stop-color="white" stop-opacity="0.1"/>
</linearGradient>
</defs>
</svg>
