<svg width="140" height="140" viewBox="0 0 140 140" fill="none" xmlns="http://www.w3.org/2000/svg">
<path fill-rule="evenodd" clip-rule="evenodd" d="M69.8523 23.7263C72.505 23.7263 74.7155 21.5158 74.7155 18.8631V4.86315C74.7155 2.21052 72.505 0 69.8523 0C67.1997 0 64.9892 2.21052 64.9892 4.86315V18.8631C64.9892 21.5158 67.1997 23.7263 69.8523 23.7263ZM69.8523 116.274C67.1997 116.274 64.9892 118.484 64.9892 121.137V135.137C64.9892 137.789 67.1997 140 69.8523 140C72.505 140 74.7155 137.789 74.7155 135.137V121.137C74.7155 118.484 72.6523 116.274 69.8523 116.274ZM20.4841 20.4841C22.3999 18.5683 25.4947 18.5683 27.4104 20.4841L37.1367 30.3578C39.0525 32.2736 39.0525 35.3683 37.1367 37.2841C36.2525 38.3157 34.9262 38.7578 33.7473 38.7578C32.5683 38.7578 31.242 38.1683 30.3578 37.2841L20.4841 27.4104C18.5683 25.4947 18.5683 22.3999 20.4841 20.4841ZM109.642 102.716C107.726 100.8 104.631 100.8 102.716 102.716C100.8 104.631 100.8 107.726 102.716 109.642L112.589 119.516C113.474 120.4 114.8 120.989 115.979 120.989C117.158 120.989 118.484 120.547 119.368 119.516C121.284 117.6 121.284 114.505 119.368 112.589L109.642 102.716ZM18.8631 64.9892C21.5158 64.9892 23.7263 67.1997 23.7263 69.8523C23.7263 72.6523 21.5158 74.7155 18.8631 74.7155H4.86315C2.21052 74.7155 0 72.505 0 69.8523C0 67.1997 2.21052 64.9892 4.86315 64.9892H18.8631ZM135.137 64.9892H121.137C118.484 64.9892 116.274 67.1997 116.274 69.8523C116.274 72.505 118.484 74.7155 121.137 74.7155H135.137C137.789 74.7155 140 72.505 140 69.8523C140 67.1997 137.789 64.9892 135.137 64.9892ZM20.4841 112.442L30.3578 102.568C32.2736 100.653 35.3683 100.653 37.1367 102.568C39.0525 104.484 39.0525 107.579 37.1367 109.495L27.2631 119.368C26.3789 120.4 25.0525 120.842 23.8736 120.842C22.6947 120.842 21.3683 120.253 20.4841 119.368C18.5683 117.453 18.5683 114.358 20.4841 112.442ZM106.105 38.6106C107.284 38.6106 108.61 38.1685 109.495 37.1369L119.368 27.2632C121.284 25.3474 121.284 22.2527 119.368 20.3369C117.452 18.4211 114.358 18.4211 112.442 20.3369L102.716 30.2106C100.8 32.1264 100.8 35.2211 102.716 37.1369C103.6 38.0211 104.926 38.6106 106.105 38.6106ZM84.1934 41.4893C85.8996 32.7145 74.5253 27.1831 68.9533 34.7623L43.7595 68.6487L43.7537 68.6566C39.5341 74.3655 43.5593 82.3422 50.6946 82.3422H58.9516L55.6625 98.7874L55.6589 98.8058C53.9527 107.58 65.327 113.112 70.8989 105.533L70.9065 105.523L96.0928 71.6463L96.1572 71.5568C100.053 65.9567 96.2441 57.9528 89.1577 57.9528H80.9007L84.1898 41.5077L84.1934 41.4893ZM74.5907 38.9121C74.9174 38.4665 75.2348 38.3182 75.4743 38.2628C75.7506 38.1989 76.0913 38.2245 76.4331 38.3778C76.7755 38.5314 77.0382 38.7776 77.1898 39.0487C77.3235 39.2876 77.4221 39.6308 77.3235 40.146L73.1994 60.7664C72.9937 61.7946 73.2599 62.8608 73.9247 63.6718C74.5895 64.4827 75.5828 64.9528 76.6314 64.9528H89.1577C90.3127 64.9528 91.2134 66.353 90.4342 67.5251L65.2753 101.364L65.2752 101.364L65.2616 101.383C64.9349 101.829 64.6175 101.977 64.378 102.032C64.1017 102.096 63.761 102.071 63.4192 101.917C63.0769 101.764 62.8141 101.517 62.6625 101.246C62.5288 101.007 62.4302 100.664 62.5288 100.149L62.5302 100.142L66.6529 79.5286C66.8586 78.5004 66.5924 77.4342 65.9276 76.6233C65.2628 75.8124 64.2695 75.3422 63.2209 75.3422H50.6946C49.2837 75.3422 48.5932 73.89 49.3808 72.8202L49.3829 72.8174L74.577 38.9305L74.5771 38.9306L74.5907 38.9121Z" fill="url(#paint0_linear_3736_9836)" fill-opacity="0.4"/>
<defs>
<linearGradient id="paint0_linear_3736_9836" x1="69.9999" y1="0" x2="69.9999" y2="140" gradientUnits="userSpaceOnUse">
<stop stop-color="white"/>
<stop offset="1" stop-color="white" stop-opacity="0.1"/>
</linearGradient>
</defs>
</svg>
