<svg width="140" height="140" viewBox="0 0 140 140" fill="none" xmlns="http://www.w3.org/2000/svg">
<path fill-rule="evenodd" clip-rule="evenodd" d="M23.3852 94.2617C21.1803 90.2112 19.5114 85.8624 18.4469 81.3251L18.4435 81.3202L24.7132 84.3331C26.3066 85.0956 28.2175 84.4442 28.978 82.8816C29.7385 81.3191 29.0672 79.4363 27.473 78.6779L15.6116 72.9851C14.151 72.2861 12.3659 72.7734 11.507 74.1617L4.47706 85.4469C3.56227 86.9249 4.04432 88.8589 5.5495 89.7677C7.05878 90.6773 9.02229 90.2164 9.93629 88.7424L12.6428 84.3931C13.8357 88.8632 15.5616 93.1602 17.7598 97.201C21.182 103.488 25.7508 109.146 31.2424 113.857C32.578 115.001 34.5962 114.873 35.7507 113.568C36.9052 112.262 36.7618 110.276 35.4262 109.132C30.5156 104.925 26.4359 99.8684 23.3852 94.2617ZM114.946 97.7099C112.489 101.588 109.507 105.158 106.058 108.303L106.052 108.31L105.535 101.502C105.412 99.7678 103.874 98.4544 102.114 98.5693C100.351 98.6794 99.0271 100.178 99.1551 101.914L100.141 114.828C100.258 116.419 101.584 117.704 103.241 117.762L116.74 118.172C118.505 118.23 119.976 116.873 120.023 115.138C120.07 113.403 118.679 111.951 116.916 111.889L111.704 111.731C115.042 108.506 117.956 104.914 120.397 101.05C124.193 95.051 126.863 88.3639 128.238 81.3328C128.568 79.6322 127.429 77.9813 125.698 77.6447C123.966 77.3081 122.296 78.4129 121.965 80.1135C120.744 86.3529 118.355 92.3191 114.946 97.7099ZM71.6577 18.0219C76.3196 18.1945 80.9787 18.9744 85.502 20.365L85.493 20.3675L79.7448 24.18C78.2885 25.1504 77.9133 27.1022 78.91 28.541C79.9066 29.9798 81.8941 30.3619 83.3504 29.3916L94.2295 22.1747C95.5676 21.2862 96.0216 19.5215 95.2294 18.0848L88.7656 6.38588C87.9226 4.85959 85.9811 4.28516 84.4347 5.10385C82.8882 5.92254 82.3172 7.82793 83.1603 9.35422L85.6551 13.8678C81.1331 12.6241 76.4977 11.92 71.853 11.7466C64.6355 11.4797 57.3925 12.5074 50.5214 14.8064C48.856 15.3588 47.976 17.1412 48.549 18.7827C49.1262 20.425 50.9448 21.3025 52.6102 20.7501C58.7371 18.7006 65.2025 17.7858 71.6577 18.0219ZM91.0054 90.6359C85.6301 95.9192 78.2024 99.1826 69.9974 99.1826C61.7924 99.1826 54.3647 95.9149 48.9893 90.6359C43.6096 85.3569 40.2866 78.0623 40.2866 70.0044C40.2866 61.9465 43.614 54.652 48.9893 49.373C54.3647 44.0897 61.7924 40.8262 69.9974 40.8262C78.2024 40.8262 85.6301 44.094 91.0054 49.373C96.3852 54.652 99.7082 61.9465 99.7082 70.0044C99.7082 78.0623 96.3808 85.3569 91.0054 90.6359ZM54.4608 65.9819C53.1551 67.2641 53.1551 69.3397 54.4608 70.6219L54.4651 70.6177L64.4037 80.378C65.7093 81.6603 67.8228 81.6603 69.1284 80.378L85.5427 64.258C86.8484 62.9758 86.8484 60.9002 85.5427 59.6179C84.2371 58.3357 82.1236 58.3357 80.818 59.6179L66.7617 73.4223L59.1855 65.9819C57.8799 64.6997 55.7664 64.6997 54.4608 65.9819ZM69.9974 105.744C80.0495 105.744 89.1496 101.743 95.7345 95.2759C102.319 88.8047 106.394 79.872 106.394 70.0001C106.394 60.1283 102.319 51.1913 95.7345 44.7244C89.1452 38.2575 80.0495 34.2564 69.9974 34.2564C59.9453 34.2564 50.8452 38.2575 44.2602 44.7244C37.6753 51.1956 33.6012 60.1283 33.6012 70.0001C33.6012 79.872 37.6753 88.809 44.2602 95.2759C50.8495 101.743 59.9453 105.744 69.9974 105.744Z" fill="url(#paint0_linear_5357_6352)" fill-opacity="0.4"/>
<defs>
<linearGradient id="paint0_linear_5357_6352" x1="66.1543" y1="4.73096" x2="66.1543" y2="118.174" gradientUnits="userSpaceOnUse">
<stop stop-color="white"/>
<stop offset="1" stop-color="white" stop-opacity="0.1"/>
</linearGradient>
</defs>
</svg>
