<svg width="1320" height="1320" viewBox="0 0 1320 1320" fill="none" xmlns="http://www.w3.org/2000/svg">
<mask id="mask0_3852_7891" style="mask-type:alpha" maskUnits="userSpaceOnUse" x="0" y="0" width="1320" height="1320">
<g clip-path="url(#clip0_3852_7891)">
<circle opacity="0.2" cx="660" cy="660" r="288" fill="#F60109"/>
<mask id="mask1_3852_7891" style="mask-type:alpha" maskUnits="userSpaceOnUse" x="0" y="0" width="1320" height="1143">
<path fill-rule="evenodd" clip-rule="evenodd" d="M660 0C640.062 531.781 533.844 809.188 0 1142.97V0H660ZM1320 1142.97C786.156 809.188 679.938 531.781 660 0H1320V1142.97Z" fill="#D9D9D9"/>
</mask>
<g mask="url(#mask1_3852_7891)">
<rect x="453.75" y="209" width="412.5" height="901.312" fill="url(#paint0_linear_3852_7891)" fill-opacity="0.1"/>
<rect x="454.75" y="210" width="410.5" height="899.312" stroke="url(#paint1_linear_3852_7891)" stroke-opacity="0.2" stroke-width="2"/>
<rect x="206.25" y="209" width="206.25" height="901.312" fill="url(#paint2_linear_3852_7891)" fill-opacity="0.1"/>
<rect x="207.25" y="210" width="204.25" height="899.312" stroke="url(#paint3_linear_3852_7891)" stroke-opacity="0.2" stroke-width="2"/>
<rect x="907.5" y="209" width="206.25" height="901.312" fill="url(#paint4_linear_3852_7891)" fill-opacity="0.1"/>
<rect x="908.5" y="210" width="204.25" height="899.312" stroke="url(#paint5_linear_3852_7891)" stroke-opacity="0.2" stroke-width="2"/>
</g>
<mask id="mask2_3852_7891" style="mask-type:alpha" maskUnits="userSpaceOnUse" x="0" y="0" width="1320" height="1320">
<path fill-rule="evenodd" clip-rule="evenodd" d="M0 1142.97C533.844 809.188 640.062 531.781 660 0C679.938 531.781 786.156 809.188 1320 1142.97V1320H660H0V1142.97Z" fill="url(#paint6_linear_3852_7891)"/>
</mask>
<g mask="url(#mask2_3852_7891)">
<path fill-rule="evenodd" clip-rule="evenodd" d="M0 1142.97C533.844 809.188 640.062 531.781 660 0C679.938 531.781 786.156 809.188 1320 1142.97V1320H660H0V1142.97Z" fill="url(#paint7_radial_3852_7891)" fill-opacity="0.3"/>
<path d="M660 0L661.999 -0.0749312H658.001L660 0ZM0 1142.97L-1.06029 1141.27L-2 1141.86V1142.97H0ZM1320 1142.97H1322V1141.86L1321.06 1141.27L1320 1142.97ZM1320 1320V1322H1322V1320H1320ZM0 1320H-2V1322H0V1320ZM658.001 -0.0749312C648.036 265.728 616.51 467.65 520.955 644.785C425.408 821.904 265.714 974.475 -1.06029 1141.27L1.06029 1144.66C268.13 977.682 428.467 824.659 524.475 646.684C620.475 468.725 652.027 266.053 661.999 0.0749312L658.001 -0.0749312ZM658.001 0.0749312C667.973 266.053 699.525 468.725 795.525 646.684C891.533 824.659 1051.87 977.682 1318.94 1144.66L1321.06 1141.27C1054.29 974.475 894.592 821.904 799.045 644.785C703.49 467.65 671.964 265.728 661.999 -0.0749312L658.001 0.0749312ZM1318 1142.97V1320H1322V1142.97H1318ZM1320 1318H660V1322H1320V1318ZM0 1322H660V1318H0V1322ZM-2 1142.97V1320H2V1142.97H-2Z" fill="url(#paint8_linear_3852_7891)" fill-opacity="0.8"/>
<path opacity="0.75" d="M206.25 1142.97C573.268 809.188 646.293 531.781 660 0C673.707 531.781 746.732 809.188 1113.75 1142.97V1320H206.25V1142.97Z" stroke="url(#paint9_linear_3852_7891)" stroke-opacity="0.8" stroke-width="2"/>
<path opacity="0.5" d="M412.5 1142.97C612.691 809.188 652.523 531.781 660 0C667.477 531.781 707.309 809.188 907.5 1142.97V1320H412.5V1142.97Z" stroke="url(#paint10_linear_3852_7891)" stroke-opacity="0.8" stroke-width="2"/>
<path d="M352.688 1012.6C601.258 716.89 650.717 471.125 660 0C669.283 471.125 718.742 716.89 967.312 1012.6V1169.44H352.688V1012.6Z" fill="url(#paint11_radial_3852_7891)"/>
<path fill-rule="evenodd" clip-rule="evenodd" d="M660 137.5C649.865 542.23 595.871 753.36 324.5 1007.4V1142.13H375.11C375.087 1142.16 375.064 1142.18 375.041 1142.21H374.037V1143.31C374.372 1142.94 374.707 1142.58 375.041 1142.21H944.958C945.293 1142.58 945.628 1142.94 945.963 1143.31V1142.21H944.958C944.935 1142.18 944.913 1142.16 944.89 1142.13H995.5V1007.4C724.129 753.36 670.135 542.23 660 137.5ZM660 137.5C668.625 541.634 714.518 888.183 944.89 1142.13H375.11C605.482 888.183 651.375 541.634 660 137.5Z" fill="url(#paint12_linear_3852_7891)"/>
<path d="M528 850.083C634.769 601.833 656.012 395.512 660 0C663.988 395.512 685.231 601.833 792 850.083V981.75H528V850.083Z" fill="url(#paint13_radial_3852_7891)"/>
</g>
<g style="mix-blend-mode:screen">
<path d="M118.015 402.679C116.771 403.326 115.238 402.844 114.592 401.606C113.946 400.36 114.427 398.825 115.664 398.178C116.909 397.531 118.442 398.013 119.088 399.252C119.734 400.497 119.253 402.032 118.015 402.679Z" fill="white"/>
</g>
<g style="mix-blend-mode:screen">
<path d="M261.354 430.132C261.312 430.132 261.182 430.118 261.113 429.988C261.099 429.96 261.058 429.891 261.092 429.781C261.127 429.678 261.202 429.637 261.223 429.623C261.264 429.602 261.306 429.589 261.347 429.589C261.388 429.589 261.519 429.602 261.587 429.733C261.656 429.864 261.608 430.029 261.477 430.098C261.436 430.118 261.402 430.132 261.361 430.132L261.354 430.132Z" fill="white"/>
</g>
<g style="mix-blend-mode:screen">
<path d="M31.1433 511.296C29.7547 512.018 28.0498 511.482 27.3211 510.098C26.5993 508.708 27.1355 507.001 28.5173 506.271C29.899 505.542 31.6107 506.086 32.3394 507.469C33.0612 508.859 32.525 510.566 31.1433 511.296Z" fill="white"/>
</g>
<g style="mix-blend-mode:screen">
<path d="M328.832 548.919C328.269 548.919 327.519 548.643 327.121 547.879C326.797 547.26 326.901 546.695 326.99 546.406C327.079 546.117 327.32 545.594 327.939 545.271C328.22 545.126 328.516 545.051 328.825 545.051C329.389 545.051 330.138 545.326 330.537 546.09C330.86 546.709 330.757 547.274 330.668 547.563C330.578 547.852 330.338 548.375 329.719 548.698C329.437 548.843 329.142 548.919 328.832 548.919Z" fill="white"/>
</g>
<g style="mix-blend-mode:screen">
<path d="M369.316 388.874C368.718 388.874 367.934 388.585 367.515 387.787C367.178 387.14 367.281 386.541 367.377 386.238C367.473 385.935 367.728 385.385 368.374 385.048C368.67 384.896 368.979 384.814 369.309 384.814C369.907 384.814 370.691 385.103 371.11 385.901C371.447 386.548 371.344 387.147 371.247 387.45C371.151 387.752 370.897 388.303 370.251 388.64C369.955 388.792 369.646 388.874 369.316 388.874Z" fill="white"/>
</g>
<g style="mix-blend-mode:screen">
<path d="M243.119 463.11C242.637 463.11 242.005 462.876 241.668 462.229C241.393 461.706 241.482 461.224 241.558 460.983C241.634 460.742 241.84 460.295 242.362 460.02C242.596 459.896 242.85 459.834 243.112 459.834C243.593 459.834 244.225 460.068 244.562 460.715C244.837 461.238 244.748 461.72 244.672 461.96C244.597 462.201 244.39 462.649 243.868 462.924C243.627 463.048 243.38 463.11 243.119 463.11Z" fill="white"/>
</g>
<g style="mix-blend-mode:screen">
<path d="M428.335 544.916C427.771 544.916 427.022 544.641 426.623 543.877C426.3 543.257 426.403 542.693 426.493 542.404C426.582 542.122 426.823 541.592 427.442 541.268C427.723 541.124 428.019 541.048 428.328 541.048C428.892 541.048 429.641 541.323 430.04 542.087C430.535 543.03 430.164 544.2 429.222 544.689C428.94 544.834 428.645 544.909 428.335 544.909L428.335 544.916Z" fill="white"/>
</g>
<g style="mix-blend-mode:screen">
<path d="M458.584 493.21C457.244 493.912 455.594 493.389 454.9 492.054C454.199 490.711 454.721 489.06 456.055 488.364C457.395 487.662 459.045 488.186 459.739 489.521C460.44 490.863 459.918 492.515 458.584 493.21Z" fill="white"/>
</g>
<g style="mix-blend-mode:screen">
<path d="M304.237 483.887C303.714 484.162 303.061 483.955 302.786 483.432C302.511 482.909 302.717 482.255 303.24 481.98C303.762 481.705 304.415 481.911 304.69 482.434C304.965 482.957 304.759 483.611 304.237 483.887Z" fill="white"/>
</g>
<g style="mix-blend-mode:screen">
<path d="M330.297 429.341C329.101 429.968 327.629 429.506 327.004 428.309C326.378 427.111 326.839 425.638 328.035 425.012C329.231 424.386 330.702 424.847 331.328 426.045C331.953 427.242 331.493 428.715 330.297 429.341Z" fill="white"/>
</g>
<g style="mix-blend-mode:screen">
<path d="M184.077 442.776C183.506 443.078 182.798 442.851 182.496 442.28C182.193 441.709 182.42 441 182.991 440.697C183.561 440.394 184.269 440.621 184.572 441.193C184.874 441.764 184.647 442.473 184.077 442.776Z" fill="white"/>
</g>
<g style="mix-blend-mode:screen">
<path d="M168.199 615.351C166.955 615.998 165.422 615.516 164.775 614.277C164.129 613.031 164.611 611.497 165.848 610.85C167.092 610.203 168.625 610.685 169.271 611.923C169.918 613.169 169.436 614.704 168.199 615.351Z" fill="white"/>
</g>
<g style="mix-blend-mode:screen">
<path d="M278.503 516.157C276.929 516.983 274.983 516.37 274.158 514.794C273.333 513.218 273.945 511.27 275.519 510.444C277.094 509.618 279.039 510.231 279.864 511.807C280.689 513.383 280.077 515.331 278.503 516.157Z" fill="white"/>
</g>
<g style="mix-blend-mode:screen">
<path d="M487.952 444.038C487.642 444.038 487.237 443.887 487.017 443.474C486.749 442.965 486.948 442.325 487.463 442.056C487.615 441.973 487.78 441.939 487.945 441.939C488.254 441.939 488.66 442.091 488.88 442.503C489.045 442.82 489.01 443.116 488.948 443.302C488.886 443.488 488.749 443.749 488.433 443.921C488.282 444.004 488.117 444.045 487.952 444.045L487.952 444.038Z" fill="white"/>
</g>
<g style="mix-blend-mode:screen">
<path d="M239.581 572.732C238.151 573.482 236.378 572.925 235.628 571.493C234.879 570.055 235.436 568.286 236.866 567.536C238.296 566.786 240.069 567.343 240.819 568.775C241.568 570.213 241.011 571.982 239.581 572.732Z" fill="white"/>
</g>
<g style="mix-blend-mode:screen">
<path d="M162.242 528.145C160.235 529.198 157.76 528.42 156.708 526.41C155.657 524.401 156.433 521.923 158.441 520.87C160.448 519.817 162.923 520.595 163.975 522.604C165.026 524.614 164.25 527.092 162.242 528.145Z" fill="white"/>
</g>
<g style="mix-blend-mode:screen">
<path d="M176.571 356.524C175.519 357.075 174.22 356.669 173.67 355.616C173.12 354.563 173.526 353.262 174.578 352.711C175.629 352.161 176.929 352.567 177.479 353.62C178.029 354.673 177.623 355.974 176.571 356.524Z" fill="white"/>
</g>
<g style="mix-blend-mode:screen">
<path d="M376.683 510.304C376.147 510.304 375.439 510.042 375.054 509.319C374.744 508.734 374.847 508.191 374.93 507.922C375.012 507.654 375.246 507.151 375.83 506.849C376.099 506.711 376.38 506.635 376.676 506.635C377.212 506.635 377.92 506.897 378.298 507.619C378.608 508.204 378.505 508.748 378.422 509.017C378.34 509.285 378.106 509.787 377.522 510.09C377.253 510.228 376.972 510.297 376.683 510.297L376.683 510.304Z" fill="white"/>
</g>
<g style="mix-blend-mode:screen">
<path d="M355.25 329.213C354.679 329.516 353.971 329.289 353.669 328.717C353.366 328.146 353.593 327.437 354.163 327.134C354.734 326.832 355.442 327.059 355.745 327.63C356.047 328.201 355.82 328.91 355.25 329.213Z" fill="white"/>
</g>
<g style="mix-blend-mode:screen">
<path d="M380.28 432.817C379.614 433.168 378.789 432.907 378.438 432.239C378.088 431.572 378.349 430.746 379.016 430.395C379.682 430.044 380.507 430.305 380.858 430.973C381.209 431.64 380.947 432.466 380.28 432.817Z" fill="white"/>
</g>
<g style="mix-blend-mode:screen">
<path d="M315.796 622.564C313.933 623.542 311.63 622.819 310.661 620.954C309.685 619.089 310.406 616.783 312.269 615.813C314.132 614.842 316.435 615.558 317.405 617.423C318.381 619.288 317.659 621.594 315.796 622.564Z" fill="white"/>
</g>
<g style="mix-blend-mode:screen">
<path d="M279.651 386.179C277.692 387.205 275.272 386.448 274.248 384.486C273.223 382.525 273.98 380.102 275.939 379.077C277.898 378.051 280.318 378.808 281.342 380.77C282.366 382.731 281.61 385.154 279.651 386.179Z" fill="white"/>
</g>
<g style="mix-blend-mode:screen">
<path d="M462.945 399.512C461.989 400.014 460.807 399.643 460.312 398.686C459.81 397.729 460.181 396.545 461.137 396.05C462.092 395.547 463.275 395.919 463.769 396.876C464.271 397.832 463.9 399.016 462.945 399.512Z" fill="white"/>
</g>
<g opacity="0.5">
<g style="mix-blend-mode:screen">
<path d="M117.722 402.117C116.789 402.602 115.64 402.24 115.155 401.311C114.67 400.377 115.031 399.226 115.959 398.741C116.892 398.255 118.042 398.617 118.527 399.546C119.011 400.48 118.65 401.631 117.722 402.117Z" fill="#191919"/>
</g>
<g style="mix-blend-mode:screen">
<path d="M261.352 430.064C261.321 430.064 261.224 430.054 261.172 429.956C261.162 429.935 261.131 429.884 261.156 429.801C261.182 429.724 261.239 429.693 261.254 429.682C261.285 429.667 261.316 429.657 261.347 429.657C261.378 429.657 261.476 429.667 261.528 429.765C261.579 429.863 261.543 429.987 261.445 430.039C261.414 430.054 261.389 430.064 261.358 430.064L261.352 430.064Z" fill="#191919"/>
</g>
<g style="mix-blend-mode:screen">
<path d="M30.8155 510.666C29.774 511.208 28.4954 510.805 27.9488 509.767C27.4075 508.725 27.8096 507.445 28.846 506.897C29.8823 506.35 31.1661 506.758 31.7126 507.796C32.2539 508.838 31.8518 510.118 30.8155 510.666Z" fill="#191919"/>
</g>
<g style="mix-blend-mode:screen">
<path d="M328.832 548.436C328.409 548.436 327.847 548.23 327.548 547.657C327.306 547.192 327.383 546.769 327.45 546.552C327.517 546.335 327.697 545.943 328.161 545.7C328.373 545.592 328.595 545.535 328.827 545.535C329.249 545.535 329.811 545.742 330.11 546.315C330.353 546.779 330.275 547.203 330.208 547.419C330.141 547.636 329.961 548.028 329.497 548.271C329.285 548.379 329.064 548.436 328.832 548.436Z" fill="#191919"/>
</g>
<g style="mix-blend-mode:screen">
<path d="M369.315 388.367C368.867 388.367 368.279 388.151 367.965 387.552C367.712 387.067 367.789 386.617 367.861 386.39C367.934 386.163 368.124 385.75 368.609 385.497C368.831 385.384 369.063 385.322 369.31 385.322C369.759 385.322 370.347 385.539 370.661 386.137C370.914 386.623 370.836 387.072 370.764 387.299C370.692 387.526 370.501 387.939 370.017 388.192C369.795 388.305 369.563 388.367 369.315 388.367Z" fill="#191919"/>
</g>
<g style="mix-blend-mode:screen">
<path d="M243.118 462.702C242.758 462.702 242.283 462.527 242.031 462.041C241.824 461.649 241.891 461.288 241.948 461.107C242.005 460.926 242.159 460.591 242.551 460.384C242.727 460.292 242.917 460.245 243.113 460.245C243.474 460.245 243.949 460.421 244.201 460.906C244.407 461.298 244.34 461.659 244.284 461.84C244.227 462.021 244.072 462.356 243.68 462.563C243.5 462.656 243.314 462.702 243.118 462.702Z" fill="#191919"/>
</g>
<g style="mix-blend-mode:screen">
<path d="M428.335 544.433C427.912 544.433 427.35 544.227 427.051 543.654C426.809 543.189 426.886 542.766 426.953 542.549C427.02 542.337 427.2 541.94 427.664 541.697C427.876 541.589 428.097 541.532 428.33 541.532C428.752 541.532 429.314 541.739 429.613 542.312C429.985 543.019 429.706 543.896 429 544.263C428.788 544.371 428.567 544.428 428.335 544.428L428.335 544.433Z" fill="#191919"/>
</g>
<g style="mix-blend-mode:screen">
<path d="M458.269 492.606C457.263 493.133 456.026 492.74 455.505 491.739C454.979 490.732 455.371 489.493 456.372 488.972C457.377 488.446 458.614 488.838 459.135 489.839C459.661 490.846 459.269 492.085 458.269 492.606Z" fill="#191919"/>
</g>
<g style="mix-blend-mode:screen">
<path d="M304.112 483.648C303.72 483.855 303.23 483.7 303.024 483.308C302.818 482.915 302.973 482.425 303.364 482.218C303.756 482.012 304.246 482.167 304.452 482.559C304.659 482.951 304.504 483.442 304.112 483.648Z" fill="#191919"/>
</g>
<g style="mix-blend-mode:screen">
<path d="M330.014 428.799C329.117 429.269 328.014 428.923 327.544 428.025C327.075 427.127 327.421 426.022 328.318 425.553C329.215 425.083 330.318 425.429 330.787 426.327C331.257 427.225 330.911 428.33 330.014 428.799Z" fill="#191919"/>
</g>
<g style="mix-blend-mode:screen">
<path d="M183.942 442.515C183.514 442.742 182.983 442.572 182.756 442.144C182.529 441.715 182.699 441.184 183.127 440.956C183.555 440.729 184.086 440.9 184.313 441.328C184.54 441.757 184.37 442.288 183.942 442.515Z" fill="#191919"/>
</g>
<g style="mix-blend-mode:screen">
<path d="M167.905 614.788C166.972 615.273 165.822 614.912 165.337 613.983C164.853 613.049 165.214 611.898 166.142 611.412C167.075 610.927 168.225 611.288 168.709 612.218C169.194 613.152 168.833 614.303 167.905 614.788Z" fill="#191919"/>
</g>
<g style="mix-blend-mode:screen">
<path d="M278.131 515.443C276.95 516.063 275.491 515.603 274.872 514.421C274.253 513.239 274.712 511.778 275.893 511.159C277.074 510.539 278.533 510.999 279.152 512.181C279.77 513.363 279.311 514.824 278.131 515.443Z" fill="#191919"/>
</g>
<g style="mix-blend-mode:screen">
<path d="M487.952 443.777C487.72 443.777 487.415 443.663 487.251 443.354C487.049 442.972 487.199 442.492 487.586 442.29C487.699 442.228 487.823 442.203 487.947 442.203C488.179 442.203 488.483 442.316 488.648 442.626C488.771 442.863 488.746 443.085 488.699 443.225C488.653 443.364 488.55 443.56 488.313 443.689C488.199 443.751 488.075 443.782 487.952 443.782L487.952 443.777Z" fill="#191919"/>
</g>
<g style="mix-blend-mode:screen">
<path d="M239.242 572.084C238.17 572.646 236.839 572.228 236.277 571.154C235.715 570.076 236.133 568.749 237.205 568.186C238.278 567.624 239.608 568.042 240.17 569.115C240.732 570.194 240.314 571.521 239.242 572.084Z" fill="#191919"/>
</g>
<g style="mix-blend-mode:screen">
<path d="M161.767 527.236C160.261 528.026 158.405 527.442 157.616 525.935C156.828 524.428 157.41 522.569 158.916 521.78C160.421 520.99 162.277 521.573 163.066 523.08C163.855 524.588 163.272 526.446 161.767 527.236Z" fill="#191919"/>
</g>
<g style="mix-blend-mode:screen">
<path d="M176.323 356.047C175.534 356.46 174.559 356.156 174.147 355.366C173.734 354.576 174.039 353.6 174.827 353.188C175.616 352.775 176.591 353.079 177.003 353.869C177.416 354.659 177.111 355.634 176.323 356.047Z" fill="#191919"/>
</g>
<g style="mix-blend-mode:screen">
<path d="M376.682 509.846C376.28 509.846 375.749 509.65 375.46 509.108C375.228 508.669 375.306 508.262 375.368 508.06C375.429 507.859 375.605 507.482 376.043 507.255C376.244 507.152 376.455 507.095 376.677 507.095C377.079 507.095 377.61 507.291 377.894 507.833C378.126 508.272 378.049 508.68 377.987 508.881C377.925 509.082 377.75 509.459 377.311 509.686C377.11 509.79 376.899 509.841 376.682 509.841L376.682 509.846Z" fill="#191919"/>
</g>
<g style="mix-blend-mode:screen">
<path d="M355.115 328.953C354.687 329.18 354.156 329.01 353.929 328.581C353.702 328.153 353.872 327.621 354.3 327.394C354.728 327.167 355.259 327.337 355.486 327.766C355.713 328.194 355.543 328.726 355.115 328.953Z" fill="#191919"/>
</g>
<g style="mix-blend-mode:screen">
<path d="M380.123 432.514C379.623 432.778 379.004 432.581 378.741 432.081C378.478 431.58 378.674 430.961 379.174 430.697C379.674 430.434 380.293 430.63 380.556 431.131C380.819 431.632 380.623 432.251 380.123 432.514Z" fill="#191919"/>
</g>
<g style="mix-blend-mode:screen">
<path d="M315.355 621.723C313.958 622.456 312.231 621.914 311.504 620.515C310.772 619.116 311.313 617.387 312.711 616.659C314.108 615.931 315.835 616.468 316.562 617.867C317.294 619.266 316.753 620.995 315.355 621.723Z" fill="#191919"/>
</g>
<g style="mix-blend-mode:screen">
<path d="M279.188 385.292C277.719 386.061 275.904 385.494 275.136 384.022C274.367 382.551 274.934 380.734 276.404 379.965C277.873 379.196 279.688 379.764 280.456 381.235C281.225 382.706 280.657 384.523 279.188 385.292Z" fill="#191919"/>
</g>
<g style="mix-blend-mode:screen">
<path d="M462.719 399.08C462.002 399.456 461.115 399.178 460.744 398.46C460.368 397.743 460.646 396.855 461.363 396.483C462.079 396.106 462.966 396.385 463.337 397.103C463.714 397.82 463.435 398.708 462.719 399.08Z" fill="#191919"/>
</g>
</g>
<g style="mix-blend-mode:screen">
<path d="M275.015 868.679C273.771 869.326 272.238 868.845 271.592 867.606C270.946 866.36 271.427 864.825 272.664 864.178C273.909 863.531 275.442 864.013 276.088 865.252C276.734 866.498 276.253 868.032 275.015 868.679Z" fill="white"/>
</g>
<g style="mix-blend-mode:screen">
<path d="M418.354 896.132C418.312 896.132 418.182 896.119 418.113 895.988C418.099 895.96 418.058 895.891 418.092 895.781C418.127 895.678 418.202 895.637 418.223 895.623C418.264 895.602 418.306 895.589 418.347 895.589C418.388 895.589 418.519 895.602 418.587 895.733C418.656 895.864 418.608 896.029 418.477 896.098C418.436 896.119 418.402 896.132 418.361 896.132L418.354 896.132Z" fill="white"/>
</g>
<g style="mix-blend-mode:screen">
<path d="M188.143 977.296C186.755 978.019 185.05 977.482 184.321 976.098C183.599 974.708 184.136 973.001 185.517 972.272C186.899 971.542 188.611 972.086 189.339 973.469C190.061 974.859 189.525 976.566 188.143 977.296Z" fill="white"/>
</g>
<g style="mix-blend-mode:screen">
<path d="M485.832 1014.92C485.269 1014.92 484.519 1014.64 484.121 1013.88C483.797 1013.26 483.901 1012.7 483.99 1012.41C484.079 1012.12 484.32 1011.59 484.939 1011.27C485.22 1011.13 485.516 1011.05 485.825 1011.05C486.389 1011.05 487.138 1011.33 487.537 1012.09C487.86 1012.71 487.757 1013.27 487.668 1013.56C487.578 1013.85 487.338 1014.37 486.719 1014.7C486.437 1014.84 486.142 1014.92 485.832 1014.92Z" fill="white"/>
</g>
<g style="mix-blend-mode:screen">
<path d="M526.316 854.874C525.718 854.874 524.934 854.585 524.515 853.787C524.178 853.14 524.281 852.541 524.377 852.238C524.473 851.936 524.728 851.385 525.374 851.048C525.67 850.896 525.979 850.814 526.309 850.814C526.907 850.814 527.691 851.103 528.11 851.901C528.447 852.548 528.344 853.147 528.247 853.45C528.151 853.753 527.897 854.303 527.251 854.64C526.955 854.792 526.646 854.874 526.316 854.874Z" fill="white"/>
</g>
<g style="mix-blend-mode:screen">
<path d="M400.119 929.11C399.637 929.11 399.005 928.876 398.668 928.229C398.393 927.706 398.482 927.224 398.558 926.983C398.634 926.742 398.84 926.295 399.362 926.02C399.596 925.896 399.85 925.834 400.112 925.834C400.593 925.834 401.225 926.068 401.562 926.715C401.837 927.238 401.748 927.72 401.672 927.96C401.597 928.201 401.39 928.649 400.868 928.924C400.627 929.048 400.38 929.11 400.119 929.11Z" fill="white"/>
</g>
<g style="mix-blend-mode:screen">
<path d="M585.335 1010.92C584.771 1010.92 584.022 1010.64 583.623 1009.88C583.3 1009.26 583.403 1008.69 583.493 1008.4C583.582 1008.12 583.823 1007.59 584.442 1007.27C584.723 1007.12 585.019 1007.05 585.328 1007.05C585.892 1007.05 586.641 1007.32 587.04 1008.09C587.535 1009.03 587.164 1010.2 586.222 1010.69C585.94 1010.83 585.645 1010.91 585.335 1010.91L585.335 1010.92Z" fill="white"/>
</g>
<g style="mix-blend-mode:screen">
<path d="M615.584 959.21C614.244 959.912 612.594 959.389 611.9 958.054C611.199 956.711 611.721 955.06 613.055 954.364C614.395 953.662 616.045 954.186 616.739 955.521C617.44 956.863 616.918 958.515 615.584 959.21Z" fill="white"/>
</g>
<g style="mix-blend-mode:screen">
<path d="M461.237 949.887C460.714 950.162 460.061 949.955 459.786 949.432C459.511 948.909 459.717 948.255 460.24 947.98C460.762 947.705 461.415 947.911 461.69 948.434C461.965 948.957 461.759 949.611 461.237 949.887Z" fill="white"/>
</g>
<g style="mix-blend-mode:screen">
<path d="M487.297 895.341C486.101 895.968 484.629 895.507 484.004 894.309C483.378 893.111 483.839 891.639 485.035 891.012C486.231 890.386 487.702 890.847 488.328 892.045C488.953 893.242 488.493 894.715 487.297 895.341Z" fill="white"/>
</g>
<g style="mix-blend-mode:screen">
<path d="M341.077 908.776C340.506 909.078 339.798 908.851 339.496 908.28C339.193 907.709 339.42 907 339.991 906.697C340.561 906.394 341.269 906.621 341.572 907.193C341.874 907.764 341.647 908.473 341.077 908.776Z" fill="white"/>
</g>
<g style="mix-blend-mode:screen">
<path d="M325.199 1081.35C323.955 1082 322.422 1081.52 321.775 1080.28C321.129 1079.03 321.611 1077.5 322.848 1076.85C324.092 1076.2 325.625 1076.68 326.271 1077.92C326.918 1079.17 326.436 1080.7 325.199 1081.35Z" fill="white"/>
</g>
<g style="mix-blend-mode:screen">
<path d="M435.503 982.157C433.929 982.983 431.983 982.37 431.158 980.794C430.333 979.218 430.945 977.27 432.519 976.444C434.094 975.618 436.039 976.231 436.864 977.807C437.689 979.383 437.077 981.331 435.503 982.157Z" fill="white"/>
</g>
<g style="mix-blend-mode:screen">
<path d="M644.952 910.038C644.642 910.038 644.237 909.887 644.017 909.474C643.749 908.964 643.948 908.324 644.463 908.056C644.615 907.973 644.78 907.939 644.945 907.939C645.254 907.939 645.66 908.09 645.88 908.503C646.045 908.82 646.01 909.116 645.948 909.302C645.886 909.488 645.749 909.749 645.433 909.921C645.282 910.004 645.117 910.045 644.952 910.045L644.952 910.038Z" fill="white"/>
</g>
<g style="mix-blend-mode:screen">
<path d="M396.581 1038.73C395.151 1039.48 393.378 1038.92 392.628 1037.49C391.879 1036.05 392.436 1034.29 393.866 1033.54C395.296 1032.79 397.069 1033.34 397.819 1034.77C398.568 1036.21 398.011 1037.98 396.581 1038.73Z" fill="white"/>
</g>
<g style="mix-blend-mode:screen">
<path d="M319.242 994.145C317.235 995.198 314.76 994.42 313.708 992.41C312.657 990.401 313.433 987.923 315.441 986.87C317.448 985.817 319.923 986.595 320.975 988.604C322.026 990.614 321.25 993.092 319.242 994.145Z" fill="white"/>
</g>
<g style="mix-blend-mode:screen">
<path d="M333.571 822.524C332.519 823.075 331.22 822.669 330.67 821.616C330.12 820.563 330.526 819.262 331.578 818.711C332.629 818.161 333.929 818.567 334.479 819.62C335.029 820.673 334.623 821.974 333.571 822.524Z" fill="white"/>
</g>
<g style="mix-blend-mode:screen">
<path d="M533.683 976.304C533.147 976.304 532.439 976.042 532.054 975.319C531.744 974.734 531.847 974.191 531.93 973.922C532.012 973.654 532.246 973.151 532.83 972.849C533.099 972.711 533.38 972.635 533.676 972.635C534.212 972.635 534.92 972.897 535.298 973.619C535.608 974.204 535.505 974.748 535.422 975.017C535.34 975.285 535.106 975.787 534.522 976.09C534.253 976.228 533.972 976.297 533.683 976.297L533.683 976.304Z" fill="white"/>
</g>
<g style="mix-blend-mode:screen">
<path d="M512.25 795.213C511.679 795.516 510.971 795.289 510.669 794.717C510.366 794.146 510.593 793.437 511.163 793.134C511.734 792.832 512.442 793.059 512.745 793.63C513.047 794.201 512.82 794.91 512.25 795.213Z" fill="white"/>
</g>
<g style="mix-blend-mode:screen">
<path d="M537.28 898.818C536.614 899.169 535.789 898.907 535.438 898.239C535.088 897.572 535.349 896.746 536.016 896.395C536.682 896.044 537.507 896.305 537.858 896.973C538.209 897.641 537.947 898.467 537.28 898.818Z" fill="white"/>
</g>
<g style="mix-blend-mode:screen">
<path d="M472.796 1088.56C470.933 1089.54 468.63 1088.82 467.661 1086.95C466.685 1085.09 467.406 1082.78 469.269 1081.81C471.132 1080.84 473.435 1081.56 474.405 1083.42C475.381 1085.29 474.659 1087.59 472.796 1088.56Z" fill="white"/>
</g>
<g style="mix-blend-mode:screen">
<path d="M436.651 852.179C434.692 853.205 432.272 852.448 431.248 850.486C430.223 848.525 430.98 846.102 432.939 845.077C434.898 844.051 437.318 844.808 438.342 846.77C439.366 848.731 438.61 851.154 436.651 852.179Z" fill="white"/>
</g>
<g style="mix-blend-mode:screen">
<path d="M619.945 865.512C618.989 866.014 617.807 865.642 617.312 864.686C616.81 863.729 617.181 862.545 618.137 862.05C619.092 861.547 620.275 861.919 620.769 862.876C621.271 863.832 620.9 865.016 619.945 865.512Z" fill="white"/>
</g>
<g opacity="0.5">
<g style="mix-blend-mode:screen">
<path d="M274.722 868.116C273.789 868.602 272.64 868.24 272.155 867.311C271.67 866.377 272.031 865.226 272.959 864.741C273.892 864.255 275.042 864.617 275.527 865.546C276.011 866.48 275.65 867.631 274.722 868.116Z" fill="#191919"/>
</g>
<g style="mix-blend-mode:screen">
<path d="M418.352 896.064C418.321 896.064 418.224 896.054 418.172 895.956C418.162 895.935 418.131 895.884 418.156 895.801C418.182 895.724 418.239 895.693 418.254 895.682C418.285 895.667 418.316 895.656 418.347 895.656C418.378 895.656 418.476 895.667 418.528 895.765C418.579 895.863 418.543 895.987 418.445 896.038C418.414 896.054 418.389 896.064 418.358 896.064L418.352 896.064Z" fill="#191919"/>
</g>
<g style="mix-blend-mode:screen">
<path d="M187.815 976.666C186.774 977.208 185.495 976.805 184.949 975.767C184.407 974.725 184.81 973.445 185.846 972.897C186.882 972.35 188.166 972.758 188.713 973.796C189.254 974.838 188.852 976.118 187.815 976.666Z" fill="#191919"/>
</g>
<g style="mix-blend-mode:screen">
<path d="M485.832 1014.44C485.409 1014.44 484.847 1014.23 484.548 1013.66C484.306 1013.19 484.383 1012.77 484.45 1012.55C484.517 1012.34 484.697 1011.94 485.161 1011.7C485.373 1011.59 485.595 1011.54 485.827 1011.54C486.249 1011.54 486.811 1011.74 487.11 1012.31C487.353 1012.78 487.275 1013.2 487.208 1013.42C487.141 1013.64 486.961 1014.03 486.497 1014.27C486.285 1014.38 486.064 1014.44 485.832 1014.44Z" fill="#191919"/>
</g>
<g style="mix-blend-mode:screen">
<path d="M526.315 854.367C525.867 854.367 525.279 854.151 524.965 853.552C524.712 853.067 524.789 852.617 524.861 852.39C524.934 852.163 525.124 851.75 525.609 851.497C525.831 851.384 526.063 851.322 526.31 851.322C526.759 851.322 527.347 851.539 527.661 852.137C527.914 852.623 527.836 853.072 527.764 853.299C527.692 853.526 527.501 853.939 527.017 854.192C526.795 854.305 526.563 854.367 526.315 854.367Z" fill="#191919"/>
</g>
<g style="mix-blend-mode:screen">
<path d="M400.118 928.702C399.758 928.702 399.283 928.526 399.031 928.041C398.824 927.649 398.891 927.288 398.948 927.107C399.005 926.926 399.159 926.591 399.551 926.384C399.727 926.291 399.917 926.245 400.113 926.245C400.474 926.245 400.949 926.42 401.201 926.906C401.407 927.298 401.34 927.659 401.284 927.84C401.227 928.021 401.072 928.356 400.68 928.563C400.5 928.655 400.314 928.702 400.118 928.702Z" fill="#191919"/>
</g>
<g style="mix-blend-mode:screen">
<path d="M585.335 1010.43C584.912 1010.43 584.35 1010.23 584.051 1009.65C583.809 1009.19 583.886 1008.77 583.953 1008.55C584.02 1008.34 584.2 1007.94 584.664 1007.7C584.876 1007.59 585.097 1007.53 585.33 1007.53C585.752 1007.53 586.314 1007.74 586.613 1008.31C586.985 1009.02 586.706 1009.9 586 1010.26C585.788 1010.37 585.567 1010.43 585.335 1010.43L585.335 1010.43Z" fill="#191919"/>
</g>
<g style="mix-blend-mode:screen">
<path d="M615.269 958.606C614.263 959.132 613.026 958.74 612.505 957.739C611.979 956.732 612.371 955.493 613.372 954.972C614.377 954.445 615.614 954.838 616.135 955.839C616.661 956.846 616.269 958.085 615.269 958.606Z" fill="#191919"/>
</g>
<g style="mix-blend-mode:screen">
<path d="M461.112 949.648C460.72 949.855 460.23 949.7 460.024 949.307C459.818 948.915 459.973 948.425 460.364 948.218C460.756 948.012 461.246 948.167 461.452 948.559C461.659 948.951 461.504 949.442 461.112 949.648Z" fill="#191919"/>
</g>
<g style="mix-blend-mode:screen">
<path d="M487.014 894.799C486.117 895.269 485.014 894.923 484.544 894.025C484.075 893.127 484.421 892.022 485.318 891.552C486.215 891.083 487.318 891.429 487.787 892.327C488.257 893.225 487.911 894.33 487.014 894.799Z" fill="#191919"/>
</g>
<g style="mix-blend-mode:screen">
<path d="M340.942 908.515C340.514 908.742 339.983 908.572 339.756 908.144C339.529 907.715 339.699 907.183 340.127 906.956C340.555 906.729 341.086 906.9 341.313 907.328C341.54 907.756 341.37 908.288 340.942 908.515Z" fill="#191919"/>
</g>
<g style="mix-blend-mode:screen">
<path d="M324.905 1080.79C323.972 1081.27 322.822 1080.91 322.337 1079.98C321.853 1079.05 322.214 1077.9 323.142 1077.41C324.075 1076.93 325.225 1077.29 325.709 1078.22C326.194 1079.15 325.833 1080.3 324.905 1080.79Z" fill="#191919"/>
</g>
<g style="mix-blend-mode:screen">
<path d="M435.131 981.443C433.95 982.063 432.491 981.603 431.872 980.421C431.253 979.239 431.712 977.778 432.893 977.159C434.074 976.539 435.533 976.999 436.152 978.181C436.77 979.363 436.311 980.824 435.131 981.443Z" fill="#191919"/>
</g>
<g style="mix-blend-mode:screen">
<path d="M644.952 909.777C644.72 909.777 644.415 909.663 644.251 909.354C644.049 908.972 644.199 908.491 644.586 908.29C644.699 908.228 644.823 908.202 644.947 908.202C645.179 908.202 645.483 908.316 645.648 908.626C645.771 908.863 645.746 909.085 645.699 909.224C645.653 909.364 645.55 909.56 645.313 909.689C645.199 909.751 645.075 909.782 644.952 909.782L644.952 909.777Z" fill="#191919"/>
</g>
<g style="mix-blend-mode:screen">
<path d="M396.242 1038.08C395.17 1038.65 393.839 1038.23 393.277 1037.15C392.715 1036.08 393.133 1034.75 394.205 1034.19C395.278 1033.62 396.608 1034.04 397.17 1035.12C397.732 1036.19 397.314 1037.52 396.242 1038.08Z" fill="#191919"/>
</g>
<g style="mix-blend-mode:screen">
<path d="M318.767 993.236C317.261 994.025 315.405 993.442 314.616 991.935C313.828 990.428 314.41 988.569 315.916 987.779C317.421 986.99 319.277 987.573 320.066 989.08C320.855 990.588 320.272 992.446 318.767 993.236Z" fill="#191919"/>
</g>
<g style="mix-blend-mode:screen">
<path d="M333.323 822.047C332.534 822.46 331.559 822.155 331.147 821.366C330.734 820.576 331.039 819.6 331.827 819.187C332.616 818.774 333.591 819.079 334.003 819.869C334.416 820.659 334.111 821.634 333.323 822.047Z" fill="#191919"/>
</g>
<g style="mix-blend-mode:screen">
<path d="M533.682 975.846C533.28 975.846 532.749 975.65 532.46 975.108C532.228 974.669 532.306 974.262 532.368 974.06C532.429 973.859 532.605 973.482 533.043 973.255C533.244 973.152 533.455 973.095 533.677 973.095C534.079 973.095 534.61 973.291 534.894 973.833C535.126 974.272 535.049 974.68 534.987 974.881C534.925 975.082 534.75 975.459 534.311 975.686C534.11 975.79 533.899 975.841 533.682 975.841L533.682 975.846Z" fill="#191919"/>
</g>
<g style="mix-blend-mode:screen">
<path d="M512.115 794.953C511.687 795.18 511.156 795.01 510.929 794.581C510.702 794.153 510.872 793.621 511.3 793.394C511.728 793.167 512.259 793.337 512.486 793.765C512.713 794.194 512.543 794.726 512.115 794.953Z" fill="#191919"/>
</g>
<g style="mix-blend-mode:screen">
<path d="M537.123 898.514C536.623 898.777 536.004 898.581 535.741 898.081C535.478 897.58 535.674 896.96 536.174 896.697C536.674 896.434 537.293 896.63 537.556 897.131C537.819 897.631 537.623 898.251 537.123 898.514Z" fill="#191919"/>
</g>
<g style="mix-blend-mode:screen">
<path d="M472.355 1087.72C470.958 1088.46 469.231 1087.91 468.504 1086.51C467.772 1085.12 468.313 1083.39 469.711 1082.66C471.108 1081.93 472.835 1082.47 473.562 1083.87C474.294 1085.27 473.753 1086.99 472.355 1087.72Z" fill="#191919"/>
</g>
<g style="mix-blend-mode:screen">
<path d="M436.188 851.292C434.719 852.061 432.904 851.493 432.136 850.022C431.367 848.551 431.934 846.734 433.404 845.965C434.873 845.196 436.688 845.764 437.456 847.235C438.225 848.706 437.657 850.523 436.188 851.292Z" fill="#191919"/>
</g>
<g style="mix-blend-mode:screen">
<path d="M619.719 865.079C619.002 865.456 618.115 865.177 617.744 864.46C617.368 863.742 617.646 862.855 618.363 862.483C619.079 862.106 619.966 862.385 620.337 863.102C620.714 863.82 620.435 864.708 619.719 865.079Z" fill="#191919"/>
</g>
</g>
<g style="mix-blend-mode:screen">
<path d="M724.015 327.321C722.771 326.674 721.238 327.156 720.592 328.394C719.946 329.64 720.427 331.175 721.664 331.822C722.909 332.469 724.442 331.987 725.088 330.748C725.734 329.503 725.253 327.968 724.015 327.321Z" fill="white"/>
</g>
<g style="mix-blend-mode:screen">
<path d="M867.354 299.868C867.312 299.868 867.182 299.882 867.113 300.012C867.099 300.04 867.058 300.109 867.092 300.219C867.127 300.322 867.202 300.363 867.223 300.377C867.264 300.398 867.306 300.411 867.347 300.411C867.388 300.411 867.519 300.398 867.587 300.267C867.656 300.136 867.608 299.971 867.477 299.902C867.436 299.882 867.402 299.868 867.361 299.868L867.354 299.868Z" fill="white"/>
</g>
<g style="mix-blend-mode:screen">
<path d="M637.143 218.704C635.755 217.982 634.05 218.518 633.321 219.902C632.599 221.292 633.136 222.999 634.517 223.729C635.899 224.458 637.611 223.914 638.339 222.531C639.061 221.141 638.525 219.434 637.143 218.704Z" fill="white"/>
</g>
<g style="mix-blend-mode:screen">
<path d="M934.832 181.081C934.269 181.081 933.519 181.357 933.121 182.121C932.797 182.74 932.901 183.305 932.99 183.594C933.079 183.883 933.32 184.406 933.939 184.729C934.22 184.874 934.516 184.949 934.825 184.949C935.389 184.949 936.138 184.674 936.537 183.91C936.86 183.291 936.757 182.726 936.668 182.437C936.578 182.148 936.338 181.625 935.719 181.302C935.437 181.157 935.142 181.081 934.832 181.081Z" fill="white"/>
</g>
<g style="mix-blend-mode:screen">
<path d="M975.316 341.126C974.718 341.126 973.934 341.415 973.515 342.213C973.178 342.86 973.281 343.459 973.377 343.762C973.473 344.065 973.728 344.615 974.374 344.952C974.67 345.104 974.979 345.186 975.309 345.186C975.907 345.186 976.691 344.897 977.11 344.099C977.447 343.452 977.344 342.853 977.247 342.55C977.151 342.248 976.897 341.697 976.251 341.36C975.955 341.208 975.646 341.126 975.316 341.126Z" fill="white"/>
</g>
<g style="mix-blend-mode:screen">
<path d="M849.119 266.89C848.637 266.89 848.005 267.124 847.668 267.771C847.393 268.294 847.482 268.776 847.558 269.017C847.634 269.258 847.84 269.705 848.362 269.98C848.596 270.104 848.85 270.166 849.112 270.166C849.593 270.166 850.225 269.932 850.562 269.285C850.837 268.762 850.748 268.28 850.672 268.04C850.597 267.799 850.39 267.351 849.868 267.076C849.627 266.952 849.38 266.89 849.119 266.89Z" fill="white"/>
</g>
<g style="mix-blend-mode:screen">
<path d="M1034.34 185.084C1033.77 185.084 1033.02 185.359 1032.62 186.123C1032.3 186.743 1032.4 187.307 1032.49 187.596C1032.58 187.878 1032.82 188.408 1033.44 188.732C1033.72 188.876 1034.02 188.952 1034.33 188.952C1034.89 188.952 1035.64 188.677 1036.04 187.913C1036.54 186.97 1036.16 185.8 1035.22 185.311C1034.94 185.166 1034.64 185.091 1034.34 185.091L1034.34 185.084Z" fill="white"/>
</g>
<g style="mix-blend-mode:screen">
<path d="M1064.58 236.79C1063.24 236.088 1061.59 236.611 1060.9 237.946C1060.2 239.289 1060.72 240.94 1062.05 241.636C1063.4 242.338 1065.04 241.814 1065.74 240.479C1066.44 239.137 1065.92 237.485 1064.58 236.79Z" fill="white"/>
</g>
<g style="mix-blend-mode:screen">
<path d="M910.237 246.113C909.714 245.838 909.061 246.045 908.786 246.568C908.511 247.091 908.717 247.745 909.24 248.02C909.762 248.295 910.415 248.089 910.69 247.566C910.965 247.043 910.759 246.389 910.237 246.113Z" fill="white"/>
</g>
<g style="mix-blend-mode:screen">
<path d="M936.297 300.659C935.101 300.032 933.629 300.494 933.004 301.691C932.378 302.889 932.839 304.362 934.035 304.988C935.231 305.614 936.702 305.153 937.328 303.955C937.953 302.758 937.493 301.285 936.297 300.659Z" fill="white"/>
</g>
<g style="mix-blend-mode:screen">
<path d="M790.077 287.224C789.506 286.922 788.798 287.149 788.496 287.72C788.193 288.291 788.42 289 788.991 289.303C789.561 289.606 790.269 289.379 790.572 288.807C790.874 288.236 790.647 287.527 790.077 287.224Z" fill="white"/>
</g>
<g style="mix-blend-mode:screen">
<path d="M774.199 114.649C772.955 114.002 771.422 114.484 770.775 115.723C770.129 116.969 770.611 118.503 771.848 119.15C773.092 119.797 774.625 119.315 775.271 118.077C775.918 116.831 775.436 115.296 774.199 114.649Z" fill="white"/>
</g>
<g style="mix-blend-mode:screen">
<path d="M884.503 213.843C882.929 213.017 880.983 213.63 880.158 215.206C879.333 216.782 879.945 218.73 881.519 219.556C883.094 220.382 885.039 219.769 885.864 218.193C886.689 216.617 886.077 214.669 884.503 213.843Z" fill="white"/>
</g>
<g style="mix-blend-mode:screen">
<path d="M1093.95 285.962C1093.64 285.962 1093.24 286.113 1093.02 286.526C1092.75 287.035 1092.95 287.675 1093.46 287.944C1093.61 288.027 1093.78 288.061 1093.94 288.061C1094.25 288.061 1094.66 287.909 1094.88 287.497C1095.04 287.18 1095.01 286.884 1094.95 286.698C1094.89 286.512 1094.75 286.251 1094.43 286.079C1094.28 285.996 1094.12 285.955 1093.95 285.955L1093.95 285.962Z" fill="white"/>
</g>
<g style="mix-blend-mode:screen">
<path d="M845.581 157.268C844.151 156.518 842.378 157.075 841.628 158.507C840.879 159.945 841.436 161.714 842.866 162.464C844.296 163.214 846.069 162.657 846.819 161.225C847.568 159.787 847.011 158.018 845.581 157.268Z" fill="white"/>
</g>
<g style="mix-blend-mode:screen">
<path d="M768.242 201.855C766.235 200.802 763.76 201.58 762.708 203.59C761.657 205.599 762.433 208.077 764.441 209.13C766.448 210.183 768.923 209.405 769.975 207.396C771.026 205.386 770.25 202.908 768.242 201.855Z" fill="white"/>
</g>
<g style="mix-blend-mode:screen">
<path d="M782.571 373.476C781.519 372.925 780.22 373.331 779.67 374.384C779.12 375.437 779.526 376.738 780.578 377.289C781.629 377.839 782.929 377.433 783.479 376.38C784.029 375.327 783.623 374.026 782.571 373.476Z" fill="white"/>
</g>
<g style="mix-blend-mode:screen">
<path d="M982.683 219.696C982.147 219.696 981.439 219.958 981.054 220.681C980.744 221.266 980.847 221.809 980.93 222.078C981.012 222.346 981.246 222.849 981.83 223.151C982.099 223.289 982.38 223.365 982.676 223.365C983.212 223.365 983.92 223.103 984.298 222.381C984.608 221.796 984.505 221.252 984.422 220.983C984.34 220.715 984.106 220.213 983.522 219.91C983.253 219.772 982.972 219.703 982.683 219.703L982.683 219.696Z" fill="white"/>
</g>
<g style="mix-blend-mode:screen">
<path d="M961.25 400.787C960.679 400.484 959.971 400.711 959.669 401.283C959.366 401.854 959.593 402.563 960.163 402.866C960.734 403.168 961.442 402.941 961.745 402.37C962.047 401.799 961.82 401.09 961.25 400.787Z" fill="white"/>
</g>
<g style="mix-blend-mode:screen">
<path d="M986.28 297.183C985.614 296.832 984.789 297.093 984.438 297.761C984.088 298.428 984.349 299.254 985.016 299.605C985.682 299.956 986.507 299.695 986.858 299.027C987.209 298.36 986.947 297.534 986.28 297.183Z" fill="white"/>
</g>
<g style="mix-blend-mode:screen">
<path d="M921.796 107.436C919.933 106.458 917.63 107.181 916.661 109.046C915.685 110.911 916.406 113.217 918.269 114.187C920.132 115.158 922.435 114.442 923.405 112.577C924.381 110.712 923.659 108.406 921.796 107.436Z" fill="white"/>
</g>
<g style="mix-blend-mode:screen">
<path d="M885.651 343.821C883.692 342.795 881.272 343.552 880.248 345.514C879.223 347.475 879.98 349.898 881.939 350.923C883.898 351.949 886.318 351.192 887.342 349.23C888.366 347.269 887.61 344.846 885.651 343.821Z" fill="white"/>
</g>
<g style="mix-blend-mode:screen">
<path d="M1068.94 330.488C1067.99 329.986 1066.81 330.357 1066.31 331.314C1065.81 332.271 1066.18 333.455 1067.14 333.95C1068.09 334.453 1069.27 334.081 1069.77 333.124C1070.27 332.168 1069.9 330.984 1068.94 330.488Z" fill="white"/>
</g>
<g opacity="0.5">
<g style="mix-blend-mode:screen">
<path d="M723.722 327.883C722.789 327.398 721.64 327.76 721.155 328.689C720.67 329.623 721.031 330.774 721.959 331.259C722.892 331.745 724.042 331.383 724.527 330.454C725.011 329.52 724.65 328.369 723.722 327.883Z" fill="#191919"/>
</g>
<g style="mix-blend-mode:screen">
<path d="M867.352 299.936C867.321 299.936 867.224 299.946 867.172 300.044C867.162 300.065 867.131 300.116 867.156 300.199C867.182 300.276 867.239 300.307 867.254 300.318C867.285 300.333 867.316 300.343 867.347 300.343C867.378 300.343 867.476 300.333 867.528 300.235C867.579 300.137 867.543 300.013 867.445 299.961C867.414 299.946 867.389 299.936 867.358 299.936L867.352 299.936Z" fill="#191919"/>
</g>
<g style="mix-blend-mode:screen">
<path d="M636.815 219.334C635.774 218.792 634.495 219.195 633.949 220.233C633.407 221.275 633.81 222.555 634.846 223.103C635.882 223.65 637.166 223.242 637.713 222.204C638.254 221.162 637.852 219.882 636.815 219.334Z" fill="#191919"/>
</g>
<g style="mix-blend-mode:screen">
<path d="M934.832 181.564C934.409 181.564 933.847 181.77 933.548 182.343C933.306 182.808 933.383 183.231 933.45 183.448C933.517 183.665 933.697 184.057 934.161 184.3C934.373 184.408 934.595 184.465 934.827 184.465C935.249 184.465 935.811 184.258 936.11 183.685C936.353 183.221 936.275 182.797 936.208 182.581C936.141 182.364 935.961 181.972 935.497 181.729C935.285 181.621 935.064 181.564 934.832 181.564Z" fill="#191919"/>
</g>
<g style="mix-blend-mode:screen">
<path d="M975.315 341.633C974.867 341.633 974.279 341.849 973.965 342.448C973.712 342.933 973.789 343.383 973.861 343.61C973.934 343.837 974.124 344.25 974.609 344.503C974.831 344.616 975.063 344.678 975.31 344.678C975.759 344.678 976.347 344.461 976.661 343.863C976.914 343.377 976.836 342.928 976.764 342.701C976.692 342.474 976.501 342.061 976.017 341.808C975.795 341.695 975.563 341.633 975.315 341.633Z" fill="#191919"/>
</g>
<g style="mix-blend-mode:screen">
<path d="M849.118 267.298C848.758 267.298 848.283 267.473 848.031 267.959C847.824 268.351 847.891 268.712 847.948 268.893C848.005 269.074 848.159 269.409 848.551 269.616C848.727 269.708 848.917 269.755 849.113 269.755C849.474 269.755 849.949 269.579 850.201 269.094C850.407 268.702 850.34 268.341 850.284 268.16C850.227 267.979 850.072 267.644 849.68 267.437C849.5 267.344 849.314 267.298 849.118 267.298Z" fill="#191919"/>
</g>
<g style="mix-blend-mode:screen">
<path d="M1034.33 185.567C1033.91 185.567 1033.35 185.773 1033.05 186.346C1032.81 186.811 1032.89 187.234 1032.95 187.451C1033.02 187.663 1033.2 188.06 1033.66 188.303C1033.88 188.411 1034.1 188.468 1034.33 188.468C1034.75 188.468 1035.31 188.261 1035.61 187.688C1035.98 186.981 1035.71 186.104 1035 185.737C1034.79 185.629 1034.57 185.572 1034.33 185.572L1034.33 185.567Z" fill="#191919"/>
</g>
<g style="mix-blend-mode:screen">
<path d="M1064.27 237.394C1063.26 236.867 1062.03 237.26 1061.51 238.261C1060.98 239.268 1061.37 240.507 1062.37 241.028C1063.38 241.554 1064.61 241.162 1065.14 240.161C1065.66 239.154 1065.27 237.915 1064.27 237.394Z" fill="#191919"/>
</g>
<g style="mix-blend-mode:screen">
<path d="M910.112 246.352C909.72 246.145 909.23 246.3 909.024 246.692C908.818 247.085 908.973 247.575 909.364 247.782C909.756 247.988 910.246 247.833 910.452 247.441C910.659 247.049 910.504 246.558 910.112 246.352Z" fill="#191919"/>
</g>
<g style="mix-blend-mode:screen">
<path d="M936.014 301.201C935.117 300.731 934.014 301.077 933.544 301.975C933.075 302.873 933.421 303.978 934.318 304.447C935.215 304.917 936.318 304.571 936.787 303.673C937.257 302.775 936.911 301.67 936.014 301.201Z" fill="#191919"/>
</g>
<g style="mix-blend-mode:screen">
<path d="M789.942 287.485C789.514 287.258 788.983 287.428 788.756 287.856C788.529 288.285 788.699 288.816 789.127 289.044C789.555 289.271 790.086 289.1 790.313 288.672C790.54 288.243 790.37 287.712 789.942 287.485Z" fill="#191919"/>
</g>
<g style="mix-blend-mode:screen">
<path d="M773.905 115.212C772.972 114.727 771.822 115.088 771.337 116.017C770.853 116.951 771.214 118.102 772.142 118.588C773.075 119.073 774.225 118.712 774.709 117.782C775.194 116.848 774.833 115.697 773.905 115.212Z" fill="#191919"/>
</g>
<g style="mix-blend-mode:screen">
<path d="M884.131 214.557C882.95 213.937 881.491 214.397 880.872 215.579C880.253 216.761 880.712 218.222 881.893 218.841C883.074 219.461 884.533 219.001 885.152 217.819C885.77 216.637 885.311 215.176 884.131 214.557Z" fill="#191919"/>
</g>
<g style="mix-blend-mode:screen">
<path d="M1093.95 286.223C1093.72 286.223 1093.42 286.337 1093.25 286.646C1093.05 287.028 1093.2 287.508 1093.59 287.71C1093.7 287.772 1093.82 287.797 1093.95 287.797C1094.18 287.797 1094.48 287.684 1094.65 287.374C1094.77 287.137 1094.75 286.915 1094.7 286.775C1094.65 286.636 1094.55 286.44 1094.31 286.311C1094.2 286.249 1094.08 286.218 1093.95 286.218L1093.95 286.223Z" fill="#191919"/>
</g>
<g style="mix-blend-mode:screen">
<path d="M845.242 157.916C844.17 157.354 842.839 157.772 842.277 158.846C841.715 159.924 842.133 161.251 843.205 161.814C844.278 162.376 845.608 161.958 846.17 160.885C846.732 159.806 846.314 158.479 845.242 157.916Z" fill="#191919"/>
</g>
<g style="mix-blend-mode:screen">
<path d="M767.767 202.764C766.261 201.974 764.405 202.558 763.616 204.065C762.828 205.572 763.41 207.431 764.916 208.22C766.421 209.01 768.277 208.427 769.066 206.92C769.855 205.412 769.272 203.554 767.767 202.764Z" fill="#191919"/>
</g>
<g style="mix-blend-mode:screen">
<path d="M782.323 373.953C781.534 373.54 780.559 373.844 780.147 374.634C779.734 375.424 780.039 376.4 780.827 376.812C781.616 377.225 782.591 376.921 783.003 376.131C783.416 375.341 783.111 374.366 782.323 373.953Z" fill="#191919"/>
</g>
<g style="mix-blend-mode:screen">
<path d="M982.682 220.154C982.28 220.154 981.749 220.35 981.46 220.892C981.228 221.331 981.306 221.738 981.368 221.94C981.429 222.141 981.605 222.518 982.043 222.745C982.244 222.848 982.455 222.905 982.677 222.905C983.079 222.905 983.61 222.709 983.894 222.167C984.126 221.728 984.049 221.32 983.987 221.119C983.925 220.918 983.75 220.541 983.311 220.314C983.11 220.21 982.899 220.159 982.682 220.159L982.682 220.154Z" fill="#191919"/>
</g>
<g style="mix-blend-mode:screen">
<path d="M961.115 401.047C960.687 400.82 960.156 400.99 959.929 401.419C959.702 401.847 959.872 402.379 960.3 402.606C960.728 402.833 961.259 402.663 961.486 402.234C961.713 401.806 961.543 401.274 961.115 401.047Z" fill="#191919"/>
</g>
<g style="mix-blend-mode:screen">
<path d="M986.123 297.486C985.623 297.222 985.004 297.419 984.741 297.919C984.478 298.42 984.674 299.039 985.174 299.303C985.674 299.566 986.293 299.37 986.556 298.869C986.819 298.368 986.623 297.749 986.123 297.486Z" fill="#191919"/>
</g>
<g style="mix-blend-mode:screen">
<path d="M921.355 108.277C919.958 107.544 918.231 108.086 917.504 109.485C916.772 110.884 917.313 112.613 918.711 113.341C920.108 114.069 921.835 113.532 922.562 112.133C923.294 110.734 922.753 109.005 921.355 108.277Z" fill="#191919"/>
</g>
<g style="mix-blend-mode:screen">
<path d="M885.188 344.708C883.719 343.939 881.904 344.506 881.136 345.978C880.367 347.449 880.934 349.266 882.404 350.035C883.873 350.804 885.688 350.236 886.456 348.765C887.225 347.294 886.657 345.477 885.188 344.708Z" fill="#191919"/>
</g>
<g style="mix-blend-mode:screen">
<path d="M1068.72 330.92C1068 330.544 1067.12 330.822 1066.74 331.54C1066.37 332.257 1066.65 333.145 1067.36 333.517C1068.08 333.894 1068.97 333.615 1069.34 332.897C1069.71 332.18 1069.44 331.292 1068.72 330.92Z" fill="#191919"/>
</g>
</g>
<g style="mix-blend-mode:screen">
<path d="M724.015 1015.32C722.771 1014.67 721.238 1015.16 720.592 1016.39C719.946 1017.64 720.427 1019.17 721.664 1019.82C722.909 1020.47 724.442 1019.99 725.088 1018.75C725.734 1017.5 725.253 1015.97 724.015 1015.32Z" fill="white"/>
</g>
<g style="mix-blend-mode:screen">
<path d="M867.354 987.868C867.312 987.868 867.182 987.881 867.113 988.012C867.099 988.04 867.058 988.109 867.092 988.219C867.127 988.322 867.202 988.363 867.223 988.377C867.264 988.398 867.306 988.411 867.347 988.411C867.388 988.411 867.519 988.398 867.587 988.267C867.656 988.136 867.608 987.971 867.477 987.902C867.436 987.881 867.402 987.868 867.361 987.868L867.354 987.868Z" fill="white"/>
</g>
<g style="mix-blend-mode:screen">
<path d="M637.143 906.704C635.755 905.981 634.05 906.518 633.321 907.902C632.599 909.292 633.136 910.999 634.517 911.728C635.899 912.458 637.611 911.914 638.339 910.531C639.061 909.141 638.525 907.434 637.143 906.704Z" fill="white"/>
</g>
<g style="mix-blend-mode:screen">
<path d="M934.832 869.081C934.269 869.081 933.519 869.357 933.121 870.121C932.797 870.74 932.901 871.305 932.99 871.594C933.079 871.883 933.32 872.406 933.939 872.729C934.22 872.874 934.516 872.949 934.825 872.949C935.389 872.949 936.138 872.674 936.537 871.91C936.86 871.291 936.757 870.726 936.668 870.437C936.578 870.148 936.338 869.625 935.719 869.302C935.437 869.157 935.142 869.081 934.832 869.081Z" fill="white"/>
</g>
<g style="mix-blend-mode:screen">
<path d="M975.316 1029.13C974.718 1029.13 973.934 1029.41 973.515 1030.21C973.178 1030.86 973.281 1031.46 973.377 1031.76C973.473 1032.06 973.728 1032.62 974.374 1032.95C974.67 1033.1 974.979 1033.19 975.309 1033.19C975.907 1033.19 976.691 1032.9 977.11 1032.1C977.447 1031.45 977.344 1030.85 977.247 1030.55C977.151 1030.25 976.897 1029.7 976.251 1029.36C975.955 1029.21 975.646 1029.13 975.316 1029.13Z" fill="white"/>
</g>
<g style="mix-blend-mode:screen">
<path d="M849.119 954.89C848.637 954.89 848.005 955.124 847.668 955.771C847.393 956.294 847.482 956.776 847.558 957.017C847.634 957.258 847.84 957.705 848.362 957.98C848.596 958.104 848.85 958.166 849.112 958.166C849.593 958.166 850.225 957.932 850.562 957.285C850.837 956.762 850.748 956.28 850.672 956.04C850.597 955.799 850.39 955.351 849.868 955.076C849.627 954.952 849.38 954.89 849.119 954.89Z" fill="white"/>
</g>
<g style="mix-blend-mode:screen">
<path d="M1034.34 873.084C1033.77 873.084 1033.02 873.359 1032.62 874.123C1032.3 874.743 1032.4 875.307 1032.49 875.596C1032.58 875.878 1032.82 876.408 1033.44 876.732C1033.72 876.876 1034.02 876.952 1034.33 876.952C1034.89 876.952 1035.64 876.677 1036.04 875.913C1036.54 874.97 1036.16 873.8 1035.22 873.311C1034.94 873.166 1034.64 873.091 1034.34 873.091L1034.34 873.084Z" fill="white"/>
</g>
<g style="mix-blend-mode:screen">
<path d="M1064.58 924.79C1063.24 924.088 1061.59 924.611 1060.9 925.946C1060.2 927.289 1060.72 928.94 1062.05 929.636C1063.4 930.338 1065.04 929.814 1065.74 928.479C1066.44 927.137 1065.92 925.485 1064.58 924.79Z" fill="white"/>
</g>
<g style="mix-blend-mode:screen">
<path d="M910.237 934.113C909.714 933.838 909.061 934.045 908.786 934.568C908.511 935.091 908.717 935.745 909.24 936.02C909.762 936.295 910.415 936.089 910.69 935.566C910.965 935.043 910.759 934.389 910.237 934.113Z" fill="white"/>
</g>
<g style="mix-blend-mode:screen">
<path d="M936.297 988.659C935.101 988.032 933.629 988.493 933.004 989.691C932.378 990.889 932.839 992.361 934.035 992.988C935.231 993.614 936.702 993.153 937.328 991.955C937.953 990.758 937.493 989.285 936.297 988.659Z" fill="white"/>
</g>
<g style="mix-blend-mode:screen">
<path d="M790.077 975.224C789.506 974.922 788.798 975.149 788.496 975.72C788.193 976.291 788.42 977 788.991 977.303C789.561 977.606 790.269 977.379 790.572 976.807C790.874 976.236 790.647 975.527 790.077 975.224Z" fill="white"/>
</g>
<g style="mix-blend-mode:screen">
<path d="M774.199 802.649C772.955 802.002 771.422 802.484 770.775 803.723C770.129 804.969 770.611 806.503 771.848 807.15C773.092 807.797 774.625 807.316 775.271 806.077C775.918 804.831 775.436 803.296 774.199 802.649Z" fill="white"/>
</g>
<g style="mix-blend-mode:screen">
<path d="M884.503 901.843C882.929 901.017 880.983 901.63 880.158 903.206C879.333 904.782 879.945 906.73 881.519 907.556C883.094 908.382 885.039 907.769 885.864 906.193C886.689 904.617 886.077 902.669 884.503 901.843Z" fill="white"/>
</g>
<g style="mix-blend-mode:screen">
<path d="M1093.95 973.962C1093.64 973.962 1093.24 974.113 1093.02 974.526C1092.75 975.036 1092.95 975.676 1093.46 975.944C1093.61 976.027 1093.78 976.061 1093.94 976.061C1094.25 976.061 1094.66 975.91 1094.88 975.497C1095.04 975.18 1095.01 974.884 1094.95 974.698C1094.89 974.512 1094.75 974.251 1094.43 974.079C1094.28 973.996 1094.12 973.955 1093.95 973.955L1093.95 973.962Z" fill="white"/>
</g>
<g style="mix-blend-mode:screen">
<path d="M845.581 845.268C844.151 844.518 842.378 845.075 841.628 846.507C840.879 847.945 841.436 849.714 842.866 850.464C844.296 851.214 846.069 850.657 846.819 849.225C847.568 847.787 847.011 846.018 845.581 845.268Z" fill="white"/>
</g>
<g style="mix-blend-mode:screen">
<path d="M768.242 889.855C766.235 888.802 763.76 889.58 762.708 891.59C761.657 893.599 762.433 896.077 764.441 897.13C766.448 898.183 768.923 897.405 769.975 895.396C771.026 893.386 770.25 890.908 768.242 889.855Z" fill="white"/>
</g>
<g style="mix-blend-mode:screen">
<path d="M782.571 1061.48C781.519 1060.93 780.22 1061.33 779.67 1062.38C779.12 1063.44 779.526 1064.74 780.578 1065.29C781.629 1065.84 782.929 1065.43 783.479 1064.38C784.029 1063.33 783.623 1062.03 782.571 1061.48Z" fill="white"/>
</g>
<g style="mix-blend-mode:screen">
<path d="M982.683 907.696C982.147 907.696 981.439 907.958 981.054 908.681C980.744 909.266 980.847 909.809 980.93 910.078C981.012 910.346 981.246 910.849 981.83 911.151C982.099 911.289 982.38 911.365 982.676 911.365C983.212 911.365 983.92 911.103 984.298 910.381C984.608 909.796 984.505 909.252 984.422 908.983C984.34 908.715 984.106 908.213 983.522 907.91C983.253 907.772 982.972 907.703 982.683 907.703L982.683 907.696Z" fill="white"/>
</g>
<g style="mix-blend-mode:screen">
<path d="M961.25 1088.79C960.679 1088.48 959.971 1088.71 959.669 1089.28C959.366 1089.85 959.593 1090.56 960.163 1090.87C960.734 1091.17 961.442 1090.94 961.745 1090.37C962.047 1089.8 961.82 1089.09 961.25 1088.79Z" fill="white"/>
</g>
<g style="mix-blend-mode:screen">
<path d="M986.28 985.182C985.614 984.831 984.789 985.093 984.438 985.761C984.088 986.428 984.349 987.254 985.016 987.605C985.682 987.956 986.507 987.695 986.858 987.027C987.209 986.359 986.947 985.533 986.28 985.182Z" fill="white"/>
</g>
<g style="mix-blend-mode:screen">
<path d="M921.796 795.436C919.933 794.458 917.63 795.181 916.661 797.046C915.685 798.911 916.406 801.217 918.269 802.187C920.132 803.158 922.435 802.442 923.405 800.577C924.381 798.712 923.659 796.406 921.796 795.436Z" fill="white"/>
</g>
<g style="mix-blend-mode:screen">
<path d="M885.651 1031.82C883.692 1030.79 881.272 1031.55 880.248 1033.51C879.223 1035.48 879.98 1037.9 881.939 1038.92C883.898 1039.95 886.318 1039.19 887.342 1037.23C888.366 1035.27 887.61 1032.85 885.651 1031.82Z" fill="white"/>
</g>
<g style="mix-blend-mode:screen">
<path d="M1068.94 1018.49C1067.99 1017.99 1066.81 1018.36 1066.31 1019.31C1065.81 1020.27 1066.18 1021.45 1067.14 1021.95C1068.09 1022.45 1069.27 1022.08 1069.77 1021.12C1070.27 1020.17 1069.9 1018.98 1068.94 1018.49Z" fill="white"/>
</g>
<g opacity="0.5">
<g style="mix-blend-mode:screen">
<path d="M723.722 1015.88C722.789 1015.4 721.64 1015.76 721.155 1016.69C720.67 1017.62 721.031 1018.77 721.959 1019.26C722.892 1019.74 724.042 1019.38 724.527 1018.45C725.011 1017.52 724.65 1016.37 723.722 1015.88Z" fill="#191919"/>
</g>
<g style="mix-blend-mode:screen">
<path d="M867.352 987.936C867.321 987.936 867.224 987.946 867.172 988.044C867.162 988.065 867.131 988.116 867.156 988.199C867.182 988.276 867.239 988.307 867.254 988.318C867.285 988.333 867.316 988.344 867.347 988.344C867.378 988.344 867.476 988.333 867.528 988.235C867.579 988.137 867.543 988.013 867.445 987.962C867.414 987.946 867.389 987.936 867.358 987.936L867.352 987.936Z" fill="#191919"/>
</g>
<g style="mix-blend-mode:screen">
<path d="M636.815 907.334C635.774 906.792 634.495 907.195 633.949 908.233C633.407 909.275 633.81 910.555 634.846 911.103C635.882 911.65 637.166 911.242 637.713 910.204C638.254 909.162 637.852 907.882 636.815 907.334Z" fill="#191919"/>
</g>
<g style="mix-blend-mode:screen">
<path d="M934.832 869.564C934.409 869.564 933.847 869.77 933.548 870.343C933.306 870.808 933.383 871.231 933.45 871.448C933.517 871.665 933.697 872.057 934.161 872.3C934.373 872.408 934.595 872.465 934.827 872.465C935.249 872.465 935.811 872.258 936.11 871.685C936.353 871.221 936.275 870.798 936.208 870.581C936.141 870.364 935.961 869.972 935.497 869.729C935.285 869.621 935.064 869.564 934.832 869.564Z" fill="#191919"/>
</g>
<g style="mix-blend-mode:screen">
<path d="M975.315 1029.63C974.867 1029.63 974.279 1029.85 973.965 1030.45C973.712 1030.93 973.789 1031.38 973.861 1031.61C973.934 1031.84 974.124 1032.25 974.609 1032.5C974.831 1032.62 975.063 1032.68 975.31 1032.68C975.759 1032.68 976.347 1032.46 976.661 1031.86C976.914 1031.38 976.836 1030.93 976.764 1030.7C976.692 1030.47 976.501 1030.06 976.017 1029.81C975.795 1029.69 975.563 1029.63 975.315 1029.63Z" fill="#191919"/>
</g>
<g style="mix-blend-mode:screen">
<path d="M849.118 955.298C848.758 955.298 848.283 955.474 848.031 955.959C847.824 956.351 847.891 956.712 847.948 956.893C848.005 957.074 848.159 957.409 848.551 957.616C848.727 957.709 848.917 957.755 849.113 957.755C849.474 957.755 849.949 957.58 850.201 957.094C850.407 956.702 850.34 956.341 850.284 956.16C850.227 955.979 850.072 955.644 849.68 955.437C849.5 955.345 849.314 955.298 849.118 955.298Z" fill="#191919"/>
</g>
<g style="mix-blend-mode:screen">
<path d="M1034.33 873.567C1033.91 873.567 1033.35 873.773 1033.05 874.346C1032.81 874.811 1032.89 875.234 1032.95 875.451C1033.02 875.663 1033.2 876.06 1033.66 876.303C1033.88 876.411 1034.1 876.468 1034.33 876.468C1034.75 876.468 1035.31 876.262 1035.61 875.689C1035.98 874.981 1035.71 874.104 1035 873.737C1034.79 873.629 1034.57 873.572 1034.33 873.572L1034.33 873.567Z" fill="#191919"/>
</g>
<g style="mix-blend-mode:screen">
<path d="M1064.27 925.394C1063.26 924.868 1062.03 925.26 1061.51 926.261C1060.98 927.268 1061.37 928.507 1062.37 929.028C1063.38 929.555 1064.61 929.162 1065.14 928.161C1065.66 927.154 1065.27 925.915 1064.27 925.394Z" fill="#191919"/>
</g>
<g style="mix-blend-mode:screen">
<path d="M910.112 934.352C909.72 934.145 909.23 934.3 909.024 934.693C908.818 935.085 908.973 935.575 909.364 935.782C909.756 935.988 910.246 935.833 910.452 935.441C910.659 935.049 910.504 934.558 910.112 934.352Z" fill="#191919"/>
</g>
<g style="mix-blend-mode:screen">
<path d="M936.014 989.201C935.117 988.731 934.014 989.077 933.544 989.975C933.075 990.873 933.421 991.978 934.318 992.448C935.215 992.917 936.318 992.571 936.787 991.673C937.257 990.775 936.911 989.67 936.014 989.201Z" fill="#191919"/>
</g>
<g style="mix-blend-mode:screen">
<path d="M789.942 975.485C789.514 975.258 788.983 975.428 788.756 975.856C788.529 976.285 788.699 976.817 789.127 977.044C789.555 977.271 790.086 977.1 790.313 976.672C790.54 976.244 790.37 975.712 789.942 975.485Z" fill="#191919"/>
</g>
<g style="mix-blend-mode:screen">
<path d="M773.905 803.212C772.972 802.727 771.822 803.088 771.337 804.017C770.853 804.951 771.214 806.103 772.142 806.588C773.075 807.073 774.225 806.712 774.709 805.783C775.194 804.848 774.833 803.697 773.905 803.212Z" fill="#191919"/>
</g>
<g style="mix-blend-mode:screen">
<path d="M884.131 902.557C882.95 901.937 881.491 902.397 880.872 903.579C880.253 904.761 880.712 906.222 881.893 906.841C883.074 907.461 884.533 907.001 885.152 905.819C885.77 904.637 885.311 903.176 884.131 902.557Z" fill="#191919"/>
</g>
<g style="mix-blend-mode:screen">
<path d="M1093.95 974.223C1093.72 974.223 1093.42 974.337 1093.25 974.646C1093.05 975.028 1093.2 975.509 1093.59 975.71C1093.7 975.772 1093.82 975.798 1093.95 975.798C1094.18 975.798 1094.48 975.684 1094.65 975.374C1094.77 975.137 1094.75 974.915 1094.7 974.776C1094.65 974.636 1094.55 974.44 1094.31 974.311C1094.2 974.249 1094.08 974.218 1093.95 974.218L1093.95 974.223Z" fill="#191919"/>
</g>
<g style="mix-blend-mode:screen">
<path d="M845.242 845.917C844.17 845.354 842.839 845.772 842.277 846.846C841.715 847.925 842.133 849.251 843.205 849.814C844.278 850.376 845.608 849.958 846.17 848.885C846.732 847.806 846.314 846.479 845.242 845.917Z" fill="#191919"/>
</g>
<g style="mix-blend-mode:screen">
<path d="M767.767 890.764C766.261 889.975 764.405 890.558 763.616 892.065C762.828 893.572 763.41 895.431 764.916 896.221C766.421 897.01 768.277 896.427 769.066 894.92C769.855 893.412 769.272 891.554 767.767 890.764Z" fill="#191919"/>
</g>
<g style="mix-blend-mode:screen">
<path d="M782.323 1061.95C781.534 1061.54 780.559 1061.84 780.147 1062.63C779.734 1063.42 780.039 1064.4 780.827 1064.81C781.616 1065.23 782.591 1064.92 783.003 1064.13C783.416 1063.34 783.111 1062.37 782.323 1061.95Z" fill="#191919"/>
</g>
<g style="mix-blend-mode:screen">
<path d="M982.682 908.154C982.28 908.154 981.749 908.35 981.46 908.892C981.228 909.331 981.306 909.738 981.368 909.94C981.429 910.141 981.605 910.518 982.043 910.745C982.244 910.848 982.455 910.905 982.677 910.905C983.079 910.905 983.61 910.709 983.894 910.167C984.126 909.728 984.049 909.32 983.987 909.119C983.925 908.918 983.75 908.541 983.311 908.314C983.11 908.21 982.899 908.159 982.682 908.159L982.682 908.154Z" fill="#191919"/>
</g>
<g style="mix-blend-mode:screen">
<path d="M961.115 1089.05C960.687 1088.82 960.156 1088.99 959.929 1089.42C959.702 1089.85 959.872 1090.38 960.3 1090.61C960.728 1090.83 961.259 1090.66 961.486 1090.23C961.713 1089.81 961.543 1089.27 961.115 1089.05Z" fill="#191919"/>
</g>
<g style="mix-blend-mode:screen">
<path d="M986.123 985.486C985.623 985.223 985.004 985.419 984.741 985.919C984.478 986.42 984.674 987.04 985.174 987.303C985.674 987.566 986.293 987.37 986.556 986.869C986.819 986.369 986.623 985.749 986.123 985.486Z" fill="#191919"/>
</g>
<g style="mix-blend-mode:screen">
<path d="M921.355 796.277C919.958 795.544 918.231 796.086 917.504 797.485C916.772 798.884 917.313 800.613 918.711 801.341C920.108 802.069 921.835 801.532 922.562 800.133C923.294 798.735 922.753 797.005 921.355 796.277Z" fill="#191919"/>
</g>
<g style="mix-blend-mode:screen">
<path d="M885.188 1032.71C883.719 1031.94 881.904 1032.51 881.136 1033.98C880.367 1035.45 880.934 1037.27 882.404 1038.03C883.873 1038.8 885.688 1038.24 886.456 1036.77C887.225 1035.29 886.657 1033.48 885.188 1032.71Z" fill="#191919"/>
</g>
<g style="mix-blend-mode:screen">
<path d="M1068.72 1018.92C1068 1018.54 1067.12 1018.82 1066.74 1019.54C1066.37 1020.26 1066.65 1021.15 1067.36 1021.52C1068.08 1021.89 1068.97 1021.62 1069.34 1020.9C1069.71 1020.18 1069.44 1019.29 1068.72 1018.92Z" fill="#191919"/>
</g>
</g>
<g style="mix-blend-mode:screen">
<path d="M1208.98 759.321C1210.23 758.674 1211.76 759.155 1212.41 760.394C1213.05 761.64 1212.57 763.175 1211.34 763.822C1210.09 764.469 1208.56 763.987 1207.91 762.748C1207.27 761.502 1207.75 759.968 1208.98 759.321Z" fill="white"/>
</g>
<g style="mix-blend-mode:screen">
<path d="M1065.65 731.868C1065.69 731.868 1065.82 731.881 1065.89 732.012C1065.9 732.04 1065.94 732.109 1065.91 732.219C1065.87 732.322 1065.8 732.363 1065.78 732.377C1065.74 732.398 1065.69 732.411 1065.65 732.411C1065.61 732.411 1065.48 732.398 1065.41 732.267C1065.34 732.136 1065.39 731.971 1065.52 731.902C1065.56 731.881 1065.6 731.868 1065.64 731.868L1065.65 731.868Z" fill="white"/>
</g>
<g style="mix-blend-mode:screen">
<path d="M1295.86 650.704C1297.25 649.982 1298.95 650.518 1299.68 651.902C1300.4 653.292 1299.86 654.999 1298.48 655.729C1297.1 656.458 1295.39 655.914 1294.66 654.531C1293.94 653.141 1294.47 651.434 1295.86 650.704Z" fill="white"/>
</g>
<g style="mix-blend-mode:screen">
<path d="M998.168 613.081C998.731 613.081 999.481 613.357 999.879 614.121C1000.2 614.74 1000.1 615.305 1000.01 615.594C999.921 615.883 999.68 616.406 999.061 616.729C998.78 616.874 998.484 616.949 998.175 616.949C997.611 616.949 996.862 616.674 996.463 615.91C996.14 615.291 996.243 614.726 996.332 614.437C996.422 614.148 996.662 613.625 997.281 613.302C997.563 613.157 997.858 613.081 998.168 613.081Z" fill="white"/>
</g>
<g style="mix-blend-mode:screen">
<path d="M957.684 773.126C958.282 773.126 959.066 773.415 959.485 774.213C959.822 774.86 959.719 775.459 959.623 775.762C959.527 776.064 959.272 776.615 958.626 776.952C958.33 777.104 958.021 777.186 957.691 777.186C957.093 777.186 956.309 776.897 955.89 776.099C955.553 775.452 955.656 774.853 955.753 774.55C955.849 774.247 956.103 773.697 956.749 773.36C957.045 773.208 957.354 773.126 957.684 773.126Z" fill="white"/>
</g>
<g style="mix-blend-mode:screen">
<path d="M1083.88 698.89C1084.36 698.89 1085 699.124 1085.33 699.771C1085.61 700.294 1085.52 700.776 1085.44 701.017C1085.37 701.258 1085.16 701.705 1084.64 701.98C1084.4 702.104 1084.15 702.166 1083.89 702.166C1083.41 702.166 1082.77 701.932 1082.44 701.285C1082.16 700.762 1082.25 700.28 1082.33 700.04C1082.4 699.799 1082.61 699.351 1083.13 699.076C1083.37 698.952 1083.62 698.89 1083.88 698.89Z" fill="white"/>
</g>
<g style="mix-blend-mode:screen">
<path d="M898.665 617.084C899.229 617.084 899.978 617.359 900.377 618.123C900.7 618.743 900.597 619.307 900.507 619.596C900.418 619.878 900.177 620.408 899.558 620.732C899.277 620.876 898.981 620.952 898.672 620.952C898.108 620.952 897.359 620.677 896.96 619.913C896.465 618.97 896.836 617.8 897.778 617.311C898.06 617.166 898.355 617.091 898.665 617.091L898.665 617.084Z" fill="white"/>
</g>
<g style="mix-blend-mode:screen">
<path d="M868.416 668.79C869.756 668.088 871.406 668.611 872.1 669.946C872.801 671.289 872.279 672.94 870.945 673.636C869.605 674.338 867.955 673.814 867.261 672.479C866.56 671.137 867.082 669.485 868.416 668.79Z" fill="white"/>
</g>
<g style="mix-blend-mode:screen">
<path d="M1022.76 678.113C1023.29 677.838 1023.94 678.045 1024.21 678.568C1024.49 679.091 1024.28 679.745 1023.76 680.02C1023.24 680.295 1022.58 680.089 1022.31 679.566C1022.03 679.043 1022.24 678.389 1022.76 678.113Z" fill="white"/>
</g>
<g style="mix-blend-mode:screen">
<path d="M996.703 732.659C997.899 732.032 999.371 732.493 999.996 733.691C1000.62 734.889 1000.16 736.361 998.965 736.988C997.769 737.614 996.298 737.153 995.672 735.955C995.047 734.758 995.507 733.285 996.703 732.659Z" fill="white"/>
</g>
<g style="mix-blend-mode:screen">
<path d="M1142.92 719.224C1143.49 718.922 1144.2 719.149 1144.5 719.72C1144.81 720.291 1144.58 721 1144.01 721.303C1143.44 721.606 1142.73 721.379 1142.43 720.807C1142.13 720.236 1142.35 719.527 1142.92 719.224Z" fill="white"/>
</g>
<g style="mix-blend-mode:screen">
<path d="M1158.8 546.649C1160.05 546.002 1161.58 546.484 1162.22 547.723C1162.87 548.969 1162.39 550.503 1161.15 551.15C1159.91 551.797 1158.37 551.315 1157.73 550.077C1157.08 548.831 1157.56 547.296 1158.8 546.649Z" fill="white"/>
</g>
<g style="mix-blend-mode:screen">
<path d="M1048.5 645.843C1050.07 645.017 1052.02 645.63 1052.84 647.206C1053.67 648.782 1053.05 650.73 1051.48 651.556C1049.91 652.382 1047.96 651.769 1047.14 650.193C1046.31 648.617 1046.92 646.669 1048.5 645.843Z" fill="white"/>
</g>
<g style="mix-blend-mode:screen">
<path d="M839.048 717.962C839.358 717.962 839.763 718.113 839.983 718.526C840.251 719.036 840.052 719.676 839.537 719.944C839.385 720.027 839.22 720.061 839.055 720.061C838.746 720.061 838.34 719.91 838.12 719.497C837.955 719.18 837.99 718.884 838.052 718.698C838.114 718.512 838.251 718.251 838.567 718.079C838.718 717.996 838.883 717.955 839.048 717.955L839.048 717.962Z" fill="white"/>
</g>
<g style="mix-blend-mode:screen">
<path d="M1087.42 589.268C1088.85 588.518 1090.62 589.075 1091.37 590.507C1092.12 591.945 1091.56 593.714 1090.13 594.464C1088.7 595.214 1086.93 594.657 1086.18 593.225C1085.43 591.787 1085.99 590.018 1087.42 589.268Z" fill="white"/>
</g>
<g style="mix-blend-mode:screen">
<path d="M1164.76 633.855C1166.77 632.802 1169.24 633.58 1170.29 635.59C1171.34 637.599 1170.57 640.077 1168.56 641.13C1166.55 642.183 1164.08 641.405 1163.03 639.396C1161.97 637.386 1162.75 634.908 1164.76 633.855Z" fill="white"/>
</g>
<g style="mix-blend-mode:screen">
<path d="M1150.43 805.476C1151.48 804.925 1152.78 805.331 1153.33 806.384C1153.88 807.437 1153.47 808.738 1152.42 809.289C1151.37 809.839 1150.07 809.433 1149.52 808.38C1148.97 807.327 1149.38 806.026 1150.43 805.476Z" fill="white"/>
</g>
<g style="mix-blend-mode:screen">
<path d="M950.317 651.696C950.853 651.696 951.561 651.958 951.946 652.681C952.256 653.266 952.153 653.809 952.07 654.078C951.988 654.346 951.754 654.849 951.17 655.151C950.901 655.289 950.62 655.365 950.324 655.365C949.788 655.365 949.08 655.103 948.702 654.381C948.392 653.796 948.495 653.252 948.578 652.983C948.66 652.715 948.894 652.213 949.478 651.91C949.747 651.772 950.028 651.703 950.317 651.703L950.317 651.696Z" fill="white"/>
</g>
<g style="mix-blend-mode:screen">
<path d="M971.75 832.787C972.321 832.484 973.029 832.711 973.331 833.283C973.634 833.854 973.407 834.563 972.837 834.866C972.266 835.168 971.558 834.941 971.255 834.37C970.953 833.799 971.18 833.09 971.75 832.787Z" fill="white"/>
</g>
<g style="mix-blend-mode:screen">
<path d="M946.72 729.182C947.386 728.831 948.211 729.093 948.562 729.761C948.912 730.428 948.651 731.254 947.984 731.605C947.318 731.956 946.493 731.695 946.142 731.027C945.791 730.359 946.053 729.533 946.72 729.182Z" fill="white"/>
</g>
<g style="mix-blend-mode:screen">
<path d="M1011.2 539.436C1013.07 538.458 1015.37 539.181 1016.34 541.046C1017.32 542.911 1016.59 545.217 1014.73 546.187C1012.87 547.158 1010.56 546.442 1009.6 544.577C1008.62 542.712 1009.34 540.406 1011.2 539.436Z" fill="white"/>
</g>
<g style="mix-blend-mode:screen">
<path d="M1047.35 775.821C1049.31 774.795 1051.73 775.552 1052.75 777.514C1053.78 779.475 1053.02 781.898 1051.06 782.923C1049.1 783.949 1046.68 783.192 1045.66 781.23C1044.63 779.269 1045.39 776.846 1047.35 775.821Z" fill="white"/>
</g>
<g style="mix-blend-mode:screen">
<path d="M864.055 762.488C865.011 761.986 866.193 762.358 866.688 763.314C867.19 764.271 866.819 765.455 865.863 765.95C864.908 766.453 863.725 766.081 863.231 765.124C862.729 764.168 863.1 762.984 864.055 762.488Z" fill="white"/>
</g>
<g opacity="0.5">
<g style="mix-blend-mode:screen">
<path d="M1209.28 759.884C1210.21 759.398 1211.36 759.76 1211.85 760.689C1212.33 761.623 1211.97 762.774 1211.04 763.259C1210.11 763.745 1208.96 763.383 1208.47 762.454C1207.99 761.52 1208.35 760.369 1209.28 759.884Z" fill="#191919"/>
</g>
<g style="mix-blend-mode:screen">
<path d="M1065.65 731.936C1065.68 731.936 1065.78 731.946 1065.83 732.044C1065.84 732.065 1065.87 732.116 1065.84 732.199C1065.82 732.276 1065.76 732.307 1065.75 732.318C1065.71 732.333 1065.68 732.344 1065.65 732.344C1065.62 732.344 1065.52 732.333 1065.47 732.235C1065.42 732.137 1065.46 732.013 1065.55 731.962C1065.59 731.946 1065.61 731.936 1065.64 731.936L1065.65 731.936Z" fill="#191919"/>
</g>
<g style="mix-blend-mode:screen">
<path d="M1296.18 651.334C1297.23 650.792 1298.5 651.195 1299.05 652.233C1299.59 653.275 1299.19 654.556 1298.15 655.103C1297.12 655.65 1295.83 655.242 1295.29 654.204C1294.75 653.162 1295.15 651.882 1296.18 651.334Z" fill="#191919"/>
</g>
<g style="mix-blend-mode:screen">
<path d="M998.168 613.564C998.591 613.564 999.153 613.77 999.452 614.343C999.694 614.808 999.617 615.231 999.55 615.448C999.483 615.665 999.303 616.057 998.839 616.3C998.627 616.408 998.405 616.465 998.173 616.465C997.751 616.465 997.189 616.258 996.89 615.685C996.647 615.221 996.725 614.798 996.792 614.581C996.859 614.364 997.039 613.972 997.503 613.729C997.715 613.621 997.936 613.564 998.168 613.564Z" fill="#191919"/>
</g>
<g style="mix-blend-mode:screen">
<path d="M957.685 773.633C958.133 773.633 958.721 773.849 959.035 774.448C959.288 774.933 959.211 775.383 959.139 775.61C959.066 775.837 958.876 776.25 958.391 776.503C958.169 776.616 957.937 776.678 957.69 776.678C957.241 776.678 956.653 776.461 956.339 775.863C956.086 775.377 956.164 774.928 956.236 774.701C956.308 774.474 956.499 774.061 956.983 773.808C957.205 773.695 957.437 773.633 957.685 773.633Z" fill="#191919"/>
</g>
<g style="mix-blend-mode:screen">
<path d="M1083.88 699.298C1084.24 699.298 1084.72 699.474 1084.97 699.959C1085.18 700.351 1085.11 700.712 1085.05 700.893C1085 701.074 1084.84 701.409 1084.45 701.616C1084.27 701.709 1084.08 701.755 1083.89 701.755C1083.53 701.755 1083.05 701.58 1082.8 701.094C1082.59 700.702 1082.66 700.341 1082.72 700.16C1082.77 699.979 1082.93 699.644 1083.32 699.437C1083.5 699.345 1083.69 699.298 1083.88 699.298Z" fill="#191919"/>
</g>
<g style="mix-blend-mode:screen">
<path d="M898.665 617.567C899.088 617.567 899.65 617.773 899.949 618.346C900.191 618.811 900.114 619.234 900.047 619.451C899.98 619.663 899.8 620.06 899.336 620.303C899.124 620.411 898.903 620.468 898.67 620.468C898.248 620.468 897.686 620.262 897.387 619.689C897.015 618.981 897.294 618.104 898 617.737C898.212 617.629 898.433 617.572 898.665 617.572L898.665 617.567Z" fill="#191919"/>
</g>
<g style="mix-blend-mode:screen">
<path d="M868.731 669.394C869.737 668.868 870.974 669.26 871.495 670.261C872.021 671.268 871.629 672.507 870.628 673.028C869.623 673.555 868.386 673.162 867.865 672.161C867.339 671.154 867.731 669.915 868.731 669.394Z" fill="#191919"/>
</g>
<g style="mix-blend-mode:screen">
<path d="M1022.89 678.352C1023.28 678.145 1023.77 678.3 1023.98 678.693C1024.18 679.085 1024.03 679.575 1023.64 679.782C1023.24 679.988 1022.75 679.833 1022.55 679.441C1022.34 679.049 1022.5 678.558 1022.89 678.352Z" fill="#191919"/>
</g>
<g style="mix-blend-mode:screen">
<path d="M996.986 733.201C997.883 732.731 998.986 733.077 999.456 733.975C999.925 734.873 999.579 735.978 998.682 736.448C997.785 736.917 996.682 736.571 996.213 735.673C995.743 734.775 996.089 733.67 996.986 733.201Z" fill="#191919"/>
</g>
<g style="mix-blend-mode:screen">
<path d="M1143.06 719.485C1143.49 719.258 1144.02 719.428 1144.24 719.856C1144.47 720.285 1144.3 720.817 1143.87 721.044C1143.44 721.271 1142.91 721.1 1142.69 720.672C1142.46 720.244 1142.63 719.712 1143.06 719.485Z" fill="#191919"/>
</g>
<g style="mix-blend-mode:screen">
<path d="M1159.09 547.212C1160.03 546.727 1161.18 547.088 1161.66 548.017C1162.15 548.951 1161.79 550.103 1160.86 550.588C1159.93 551.073 1158.78 550.712 1158.29 549.783C1157.81 548.848 1158.17 547.697 1159.09 547.212Z" fill="#191919"/>
</g>
<g style="mix-blend-mode:screen">
<path d="M1048.87 646.557C1050.05 645.937 1051.51 646.397 1052.13 647.579C1052.75 648.761 1052.29 650.222 1051.11 650.841C1049.93 651.461 1048.47 651.001 1047.85 649.819C1047.23 648.637 1047.69 647.176 1048.87 646.557Z" fill="#191919"/>
</g>
<g style="mix-blend-mode:screen">
<path d="M839.048 718.223C839.28 718.223 839.585 718.337 839.749 718.646C839.951 719.028 839.801 719.509 839.414 719.71C839.301 719.772 839.177 719.798 839.053 719.798C838.821 719.798 838.517 719.684 838.352 719.374C838.229 719.137 838.254 718.915 838.301 718.776C838.347 718.636 838.45 718.44 838.687 718.311C838.801 718.249 838.925 718.218 839.048 718.218L839.048 718.223Z" fill="#191919"/>
</g>
<g style="mix-blend-mode:screen">
<path d="M1087.76 589.917C1088.83 589.354 1090.16 589.772 1090.72 590.846C1091.28 591.925 1090.87 593.251 1089.79 593.814C1088.72 594.376 1087.39 593.958 1086.83 592.885C1086.27 591.806 1086.69 590.479 1087.76 589.917Z" fill="#191919"/>
</g>
<g style="mix-blend-mode:screen">
<path d="M1165.23 634.764C1166.74 633.975 1168.59 634.558 1169.38 636.065C1170.17 637.572 1169.59 639.431 1168.08 640.221C1166.58 641.01 1164.72 640.427 1163.93 638.92C1163.15 637.412 1163.73 635.554 1165.23 634.764Z" fill="#191919"/>
</g>
<g style="mix-blend-mode:screen">
<path d="M1150.68 805.953C1151.47 805.54 1152.44 805.845 1152.85 806.634C1153.27 807.424 1152.96 808.4 1152.17 808.813C1151.38 809.226 1150.41 808.921 1150 808.131C1149.58 807.341 1149.89 806.366 1150.68 805.953Z" fill="#191919"/>
</g>
<g style="mix-blend-mode:screen">
<path d="M950.318 652.154C950.72 652.154 951.251 652.35 951.54 652.892C951.772 653.331 951.694 653.739 951.632 653.94C951.571 654.141 951.395 654.518 950.957 654.745C950.756 654.848 950.545 654.905 950.323 654.905C949.921 654.905 949.39 654.709 949.106 654.167C948.874 653.728 948.951 653.32 949.013 653.119C949.075 652.918 949.25 652.541 949.689 652.314C949.89 652.211 950.101 652.159 950.318 652.159L950.318 652.154Z" fill="#191919"/>
</g>
<g style="mix-blend-mode:screen">
<path d="M971.885 833.047C972.313 832.82 972.844 832.99 973.071 833.419C973.298 833.847 973.128 834.379 972.7 834.606C972.272 834.833 971.741 834.663 971.514 834.235C971.287 833.806 971.457 833.274 971.885 833.047Z" fill="#191919"/>
</g>
<g style="mix-blend-mode:screen">
<path d="M946.877 729.486C947.377 729.223 947.996 729.419 948.259 729.919C948.522 730.42 948.326 731.04 947.826 731.303C947.326 731.566 946.707 731.37 946.444 730.869C946.181 730.369 946.377 729.749 946.877 729.486Z" fill="#191919"/>
</g>
<g style="mix-blend-mode:screen">
<path d="M1011.64 540.277C1013.04 539.544 1014.77 540.086 1015.5 541.485C1016.23 542.884 1015.69 544.613 1014.29 545.341C1012.89 546.069 1011.17 545.532 1010.44 544.133C1009.71 542.735 1010.25 541.005 1011.64 540.277Z" fill="#191919"/>
</g>
<g style="mix-blend-mode:screen">
<path d="M1047.81 776.708C1049.28 775.939 1051.1 776.507 1051.86 777.978C1052.63 779.449 1052.07 781.266 1050.6 782.035C1049.13 782.804 1047.31 782.236 1046.54 780.765C1045.78 779.294 1046.34 777.477 1047.81 776.708Z" fill="#191919"/>
</g>
<g style="mix-blend-mode:screen">
<path d="M864.281 762.921C864.998 762.544 865.885 762.823 866.256 763.54C866.632 764.258 866.354 765.145 865.637 765.517C864.921 765.894 864.034 765.615 863.663 764.898C863.286 764.18 863.565 763.292 864.281 762.921Z" fill="#191919"/>
</g>
</g>
</g>
</mask>
<g mask="url(#mask0_3852_7891)">
<rect width="1320" height="1320" fill="#6C5682"/>
</g>
<defs>
<linearGradient id="paint0_linear_3852_7891" x1="660" y1="209" x2="660" y2="1110.31" gradientUnits="userSpaceOnUse">
<stop stop-color="#F60109" stop-opacity="0"/>
<stop offset="0.5" stop-color="#F60109"/>
<stop offset="1" stop-color="#F60109" stop-opacity="0"/>
</linearGradient>
<linearGradient id="paint1_linear_3852_7891" x1="660" y1="209" x2="660" y2="1110.31" gradientUnits="userSpaceOnUse">
<stop stop-color="#F60109" stop-opacity="0"/>
<stop offset="0.5" stop-color="#F60109"/>
<stop offset="1" stop-color="#F60109" stop-opacity="0"/>
</linearGradient>
<linearGradient id="paint2_linear_3852_7891" x1="309.375" y1="209" x2="309.375" y2="1110.31" gradientUnits="userSpaceOnUse">
<stop stop-color="#F60109" stop-opacity="0"/>
<stop offset="0.5" stop-color="#F60109"/>
<stop offset="1" stop-color="#F60109" stop-opacity="0"/>
</linearGradient>
<linearGradient id="paint3_linear_3852_7891" x1="309.375" y1="209" x2="309.375" y2="1110.31" gradientUnits="userSpaceOnUse">
<stop stop-color="#F60109" stop-opacity="0"/>
<stop offset="0.5" stop-color="#F60109"/>
<stop offset="1" stop-color="#F60109" stop-opacity="0"/>
</linearGradient>
<linearGradient id="paint4_linear_3852_7891" x1="1010.62" y1="209" x2="1010.63" y2="1110.31" gradientUnits="userSpaceOnUse">
<stop stop-color="#F60109" stop-opacity="0"/>
<stop offset="0.5" stop-color="#F60109"/>
<stop offset="1" stop-color="#F60109" stop-opacity="0"/>
</linearGradient>
<linearGradient id="paint5_linear_3852_7891" x1="1010.62" y1="209" x2="1010.63" y2="1110.31" gradientUnits="userSpaceOnUse">
<stop stop-color="#F60109" stop-opacity="0"/>
<stop offset="0.5" stop-color="#F60109"/>
<stop offset="1" stop-color="#F60109" stop-opacity="0"/>
</linearGradient>
<linearGradient id="paint6_linear_3852_7891" x1="660" y1="0" x2="660" y2="1320" gradientUnits="userSpaceOnUse">
<stop stop-color="white" stop-opacity="0"/>
<stop offset="0.5" stop-color="white"/>
<stop offset="1" stop-color="white"/>
</linearGradient>
<radialGradient id="paint7_radial_3852_7891" cx="0" cy="0" r="1" gradientUnits="userSpaceOnUse" gradientTransform="translate(660 2.60266e-05) rotate(90) scale(1320 1113.28)">
<stop stop-color="#F60109"/>
<stop offset="1" stop-color="#F60109" stop-opacity="0"/>
</radialGradient>
<linearGradient id="paint8_linear_3852_7891" x1="660" y1="0" x2="660" y2="1320" gradientUnits="userSpaceOnUse">
<stop stop-color="#F60109"/>
<stop offset="0.883224" stop-color="#F60109" stop-opacity="0"/>
</linearGradient>
<linearGradient id="paint9_linear_3852_7891" x1="660" y1="0" x2="660" y2="1320" gradientUnits="userSpaceOnUse">
<stop stop-color="#F60109"/>
<stop offset="0.863225" stop-color="#F60109" stop-opacity="0"/>
</linearGradient>
<linearGradient id="paint10_linear_3852_7891" x1="660" y1="0" x2="660" y2="1320" gradientUnits="userSpaceOnUse">
<stop stop-color="#F60109"/>
<stop offset="0.868225" stop-color="#F60109" stop-opacity="0"/>
</linearGradient>
<radialGradient id="paint11_radial_3852_7891" cx="0" cy="0" r="1" gradientUnits="userSpaceOnUse" gradientTransform="translate(660 6.36924e-06) rotate(90) scale(1169.44 388.056)">
<stop stop-color="#FF7A00"/>
<stop offset="1" stop-color="#F60109" stop-opacity="0"/>
</radialGradient>
<linearGradient id="paint12_linear_3852_7891" x1="660" y1="137.5" x2="660" y2="1143.31" gradientUnits="userSpaceOnUse">
<stop stop-color="#F60109"/>
<stop offset="0.863225" stop-color="#F60109" stop-opacity="0"/>
</linearGradient>
<radialGradient id="paint13_radial_3852_7891" cx="0" cy="0" r="1" gradientUnits="userSpaceOnUse" gradientTransform="translate(660 1.39975e-06) rotate(90) scale(981.75 97.1605)">
<stop stop-color="#FF333A"/>
<stop offset="1" stop-color="#F60109" stop-opacity="0"/>
</radialGradient>
<clipPath id="clip0_3852_7891">
<rect width="1320" height="1320" fill="white"/>
</clipPath>
</defs>
</svg>
