<svg width="140" height="140" viewBox="0 0 140 140" fill="none" xmlns="http://www.w3.org/2000/svg">
<path fill-rule="evenodd" clip-rule="evenodd" d="M129.901 134.167C128.846 134.167 127.856 133.735 127.025 132.905L60.9973 66.8769C59.7672 65.6468 59.4157 64.0013 60.0548 62.4676C60.7257 60.854 62.3393 59.7357 64.0008 59.7357C65.0552 59.7357 66.0457 60.1671 66.8764 60.9978L132.904 127.026C134.134 128.256 134.486 129.901 133.847 131.435C133.176 133.049 131.562 134.167 129.901 134.167ZM106.129 134.167C105.074 134.167 104.084 133.735 103.253 132.905L60.9973 90.6488C59.7672 89.4187 59.4157 87.7732 60.0548 86.2395C60.7257 84.626 62.3393 83.5077 64.0008 83.5077C65.0552 83.5077 66.0457 83.939 66.8764 84.7698L109.132 127.026C110.362 128.256 110.714 129.901 110.075 131.435C109.404 133.049 107.79 134.167 106.129 134.167ZM82.3569 134.167C81.3025 134.167 80.312 133.735 79.4813 132.905L60.9973 114.421C59.7672 113.191 59.4157 111.545 60.0548 110.027C60.7257 108.414 62.3393 107.296 64.0008 107.296C65.0552 107.296 66.0457 107.727 66.8764 108.542L85.3604 127.026C86.5905 128.256 86.942 129.901 86.3029 131.435C85.632 133.049 84.0184 134.167 82.3569 134.167ZM9.98671 134.135C7.6862 134.135 5.83301 132.266 5.83301 129.981V9.9872C5.83301 7.38315 7.95778 5.8335 10.0187 5.8335C11.105 5.8335 12.1434 6.26484 12.9262 7.04765L49.2871 43.4085C50.0699 44.1913 50.5012 45.2457 50.5012 46.348V129.965C50.5012 132.266 48.6321 134.119 46.3476 134.119H9.98671V134.135ZM42.1779 125.812V48.0734L14.1564 20.036V125.827H42.1939L42.1779 125.812Z" fill="url(#paint0_linear_4080_2617)" fill-opacity="0.4"/>
<defs>
<linearGradient id="paint0_linear_4080_2617" x1="69.9965" y1="5.8335" x2="69.9965" y2="134.167" gradientUnits="userSpaceOnUse">
<stop stop-color="white"/>
<stop offset="1" stop-color="white" stop-opacity="0.1"/>
</linearGradient>
</defs>
</svg>
