<svg width="140" height="140" viewBox="0 0 140 140" fill="none" xmlns="http://www.w3.org/2000/svg">
<path d="M32.1255 29.806C31.6653 30.1471 31.2757 30.5768 30.9792 31.0707C30.6826 31.5645 30.4849 32.1127 30.3972 32.684C30.3095 33.2554 30.3336 33.8386 30.4681 34.4005C30.6026 34.9624 30.8449 35.4919 31.1812 35.9588C31.5174 36.4257 31.941 36.8209 32.4278 37.1217C32.9146 37.4225 33.4551 37.6231 34.0183 37.7121C34.5815 37.8011 35.1565 37.7766 35.7104 37.6401C36.2643 37.5037 36.7863 37.2579 37.2465 36.9168C46.8033 29.9923 58.2541 26.2698 69.9984 26.2698C81.7427 26.2698 93.1935 29.9923 102.75 36.9168C103.21 37.2579 103.732 37.5037 104.286 37.6401C104.84 37.7766 105.415 37.8011 105.978 37.7121C106.542 37.6231 107.082 37.4225 107.569 37.1217C108.056 36.8209 108.479 36.4257 108.816 35.9588C109.152 35.4919 109.394 34.9624 109.529 34.4005C109.663 33.8386 109.687 33.2554 109.6 32.684C109.512 32.1127 109.314 31.5645 109.018 31.0707C108.721 30.5768 108.331 30.1471 107.871 29.806C96.8188 21.8023 83.5781 17.5 69.9984 17.5C56.4187 17.5 43.178 21.8023 32.1255 29.806ZM121.686 43.899C121.344 43.436 120.915 43.0459 120.425 42.7509C119.934 42.456 119.391 42.2619 118.827 42.1798C118.262 42.0977 117.687 42.1292 117.135 42.2725C116.582 42.4158 116.063 42.6681 115.607 43.015C115.15 43.3619 114.766 43.7966 114.475 44.2942C114.184 44.7918 113.993 45.3427 113.912 45.9154C113.831 46.488 113.862 47.0712 114.003 47.6317C114.144 48.1922 114.393 48.7189 114.735 49.1819C121.78 58.7279 125.554 70.3487 125.483 82.273C125.523 94.229 121.747 105.877 114.72 115.476C114.036 116.415 113.747 117.592 113.918 118.748C114.089 119.903 114.706 120.942 115.632 121.637C116.558 122.331 117.718 122.624 118.857 122.45C119.996 122.277 121.02 121.652 121.705 120.712C129.838 109.599 134.21 96.1143 134.165 82.273C134.24 68.4437 129.858 54.9684 121.686 43.899ZM24.3867 43.0185C23.9308 42.6716 23.412 42.4193 22.8599 42.2758C22.3078 42.1323 21.7333 42.1005 21.1691 42.1823C20.6049 42.264 20.0621 42.4577 19.5717 42.7523C19.0813 43.0468 18.6529 43.4365 18.311 43.899C10.1404 54.9677 5.75904 68.4417 5.83395 82.2695C5.78838 96.1121 10.159 109.598 18.2927 120.713C18.6317 121.178 19.0576 121.571 19.5462 121.869C20.0349 122.168 20.5766 122.365 21.1406 122.451C21.7045 122.537 22.2796 122.509 22.833 122.37C23.3864 122.23 23.9073 121.981 24.3659 121.638C24.8245 121.294 25.2119 120.862 25.5059 120.366C25.7999 119.87 25.9948 119.321 26.0794 118.749C26.164 118.177 26.1367 117.593 25.9991 117.032C25.8615 116.47 25.6162 115.942 25.2773 115.477C18.2507 105.878 14.475 94.2299 14.5145 82.2739C14.4417 70.3484 18.2153 58.7259 25.2599 49.1784C25.9478 48.2433 26.2421 47.0698 26.0785 45.9149C25.9148 44.7601 25.3064 43.7191 24.3867 43.0185Z" fill="url(#paint0_linear_3805_2918)" fill-opacity="0.4"/>
<path d="M73.1434 47.5754C73.1434 49.3439 71.6697 50.8175 69.9013 50.8175C68.1328 50.8175 66.6592 49.3439 66.6592 47.5754V38.2421C66.6592 36.4737 68.1328 35 69.9013 35C71.6697 35 73.1434 36.4737 73.1434 38.2421V47.5754Z" fill="url(#paint1_linear_3805_2918)" fill-opacity="0.4"/>
<path d="M41.6066 48.6561C40.3295 47.3789 38.2663 47.3789 36.9891 48.6561C35.7119 49.9333 35.7119 51.9964 36.9891 53.2736L43.5716 59.8561C44.161 60.4456 45.0452 60.8385 45.8312 60.8385C46.6172 60.8385 47.5014 60.5438 48.0909 59.8561C49.368 58.5789 49.368 56.5157 48.0909 55.2386L41.6066 48.6561Z" fill="url(#paint2_linear_3805_2918)" fill-opacity="0.4"/>
<path d="M39.1505 81.5683C39.1505 79.7998 37.6769 78.3261 35.9084 78.3261H26.5751C24.8067 78.3261 23.333 79.7998 23.333 81.5683C23.333 83.3367 24.8067 84.8104 26.5751 84.8104H35.9084C37.6769 84.8104 39.1505 83.4349 39.1505 81.5683Z" fill="url(#paint3_linear_3805_2918)" fill-opacity="0.4"/>
<path d="M104.091 78.3261H113.424C115.193 78.3261 116.666 79.7998 116.666 81.5683C116.666 83.3367 115.193 84.8104 113.424 84.8104H104.091C102.322 84.8104 100.849 83.3367 100.849 81.5683C100.849 79.7998 102.322 78.3261 104.091 78.3261Z" fill="url(#paint4_linear_3805_2918)" fill-opacity="0.4"/>
<path d="M96.3295 59.7579C95.74 60.4457 94.8558 60.7404 94.0698 60.7404C93.2838 60.7404 92.3996 60.3474 91.8102 59.7579C90.533 58.4807 90.533 56.4176 91.8102 55.1404L98.2944 48.5579C99.5716 47.2807 101.635 47.2807 102.912 48.5579C104.189 49.8351 104.189 51.8983 102.912 53.1755L96.3295 59.7579Z" fill="url(#paint5_linear_3805_2918)" fill-opacity="0.4"/>
<path d="M85.2708 96.5571C87.0164 87.478 87.9767 78.2565 88.1381 68.9978C88.2043 68.1338 88.0151 67.2693 87.5945 66.515C87.1739 65.7607 86.5411 65.1507 85.777 64.7632C85.0128 64.3756 84.1521 64.228 83.3049 64.3393C82.4576 64.4506 81.6624 64.8156 81.0207 65.3878C73.8907 71.1135 67.2641 77.4486 61.2125 84.3211C57.7827 88.2162 54.4073 92.6924 54.6433 97.8768C54.7089 99.3194 54.973 100.758 55.4381 102.15C56.7395 106.044 59.5092 109.257 63.1406 111.085C65.2289 112.195 67.5533 112.769 69.9108 112.758C72.7596 112.746 75.5495 111.934 77.9704 110.41C78.1991 110.266 78.4237 110.117 78.6439 109.961C82.8531 106.993 84.2983 101.615 85.2708 96.5571Z" fill="url(#paint6_linear_3805_2918)" fill-opacity="0.4"/>
<defs>
<linearGradient id="paint0_linear_3805_2918" x1="69.9997" y1="17.5" x2="69.9997" y2="122.5" gradientUnits="userSpaceOnUse">
<stop stop-color="white"/>
<stop offset="1" stop-color="white" stop-opacity="0.1"/>
</linearGradient>
<linearGradient id="paint1_linear_3805_2918" x1="69.9997" y1="35" x2="69.9997" y2="128.333" gradientUnits="userSpaceOnUse">
<stop stop-color="white"/>
<stop offset="1" stop-color="white" stop-opacity="0"/>
</linearGradient>
<linearGradient id="paint2_linear_3805_2918" x1="69.9997" y1="35" x2="69.9997" y2="128.333" gradientUnits="userSpaceOnUse">
<stop stop-color="white"/>
<stop offset="1" stop-color="white" stop-opacity="0"/>
</linearGradient>
<linearGradient id="paint3_linear_3805_2918" x1="69.9997" y1="35" x2="69.9997" y2="128.333" gradientUnits="userSpaceOnUse">
<stop stop-color="white"/>
<stop offset="1" stop-color="white" stop-opacity="0"/>
</linearGradient>
<linearGradient id="paint4_linear_3805_2918" x1="69.9997" y1="35" x2="69.9997" y2="128.333" gradientUnits="userSpaceOnUse">
<stop stop-color="white"/>
<stop offset="1" stop-color="white" stop-opacity="0"/>
</linearGradient>
<linearGradient id="paint5_linear_3805_2918" x1="69.9997" y1="35" x2="69.9997" y2="128.333" gradientUnits="userSpaceOnUse">
<stop stop-color="white"/>
<stop offset="1" stop-color="white" stop-opacity="0"/>
</linearGradient>
<linearGradient id="paint6_linear_3805_2918" x1="71.389" y1="64.3032" x2="71.389" y2="112.758" gradientUnits="userSpaceOnUse">
<stop stop-color="white"/>
<stop offset="1" stop-color="white" stop-opacity="0.1"/>
</linearGradient>
</defs>
</svg>
