<svg width="320" height="200" viewBox="0 0 320 200" fill="none" xmlns="http://www.w3.org/2000/svg">
<path d="M200 198C309.352 198 398 109.352 398 1.90735e-06C398 -109.352 309.352 -198 200 -198M200 198C90.6476 198 2 109.352 2 1.90735e-06C2 -109.352 90.6476 -198 200 -198M200 198C172.098 181.978 136.083 131.618 124.58 52.5681M200 198C227.885 181.978 263.9 131.618 275.421 52.5681M200 -198C227.885 -181.978 263.9 -131.618 275.421 -52.5683M200 -198C172.115 -181.978 136.1 -131.618 124.58 -52.5683M81.7514 -28.2785C57.992 -75.0097 53.5757 -116.28 59.9948 -140.005C88.4101 -147.691 142.006 -139.834 200 -101.816C257.978 -139.834 311.573 -147.691 340.006 -140.005C346.408 -116.28 341.991 -74.9926 318.232 -28.2785M318.232 28.2612C341.991 74.9753 346.408 116.263 340.006 140.005C311.573 147.674 257.978 139.817 200 101.799C142.023 139.817 88.4101 147.674 59.9948 140.005C53.5757 116.263 57.992 74.9924 81.7514 28.2612M386.976 -65.2867C359.999 11.9824 286.461 67.4265 200 67.4265C113.539 67.4265 40.0011 11.9995 13.0237 -65.2867M386.976 65.2697C359.999 -11.9994 286.461 -67.4436 200 -67.4436C113.539 -67.4436 40.0011 -11.9994 13.0237 65.2697" stroke="url(#paint0_linear_4839_11108)" stroke-width="4"/>
<defs>
<linearGradient id="paint0_linear_4839_11108" x1="200" y1="-198" x2="200" y2="198" gradientUnits="userSpaceOnUse">
<stop stop-color="#3E0002"/>
<stop offset="1" stop-color="#3E0002" stop-opacity="0"/>
</linearGradient>
</defs>
</svg>
