<svg width="320" height="200" viewBox="0 0 320 200" fill="none" xmlns="http://www.w3.org/2000/svg">
<path d="M240.594 -193.116C238.852 -192.954 236.903 -192.74 234.774 -192.46C225.406 -191.225 212.539 -188.69 198.534 -183.482C170.508 -173.061 137.852 -151.905 119.677 -109.058C102.027 -67.4468 72.1122 -46.8213 46.5872 -36.5693C33.8117 -31.4382 22.1369 -28.9082 13.6613 -27.662C9.42526 -27.0391 5.99359 -26.7377 3.6299 -26.592C3.08092 -26.5582 2.58967 -26.5327 2.15944 -26.5136C2.20246 -26.9966 2.25593 -27.5566 2.32192 -28.1895C2.58262 -30.6897 3.0387 -34.3252 3.81863 -38.8364C5.37896 -47.8615 8.2328 -60.3762 13.4031 -74.3097C23.7469 -102.186 43.3179 -135.631 80.2494 -158.273C148.244 -199.958 207.807 -203.386 240.594 -193.116ZM317.148 -143.809C315.018 -143.461 312.377 -142.96 309.308 -142.241C300.735 -140.232 288.816 -136.522 275.362 -129.713C248.431 -116.084 215.416 -90.0685 190.795 -40.5861C166.711 7.81644 126.542 28.6409 89.1365 30.5826C52.959 32.4606 19.6244 16.7108 5.50227 -8.6104C5.59132 -8.61069 5.68198 -8.61111 5.77426 -8.61168C8.15461 -8.62642 11.6059 -8.74004 15.9302 -9.13297C24.5776 -9.91873 36.7256 -11.8223 50.7864 -16.2912C78.925 -25.2345 114.697 -44.4453 145.362 -85.4497C175.549 -125.814 207.197 -147.232 237.487 -154.806C265.73 -161.869 293.007 -156.951 317.148 -143.809ZM11.6518 29.9044C11.652 29.8967 11.6522 29.8891 11.6524 29.8815C12.7519 29.9074 14.3247 29.9794 16.2945 30.1612C20.4315 30.543 26.3121 31.4082 33.2316 33.3433C47.066 37.2122 65.0398 45.3525 81.563 62.4574C98.7854 80.286 122.031 88.3548 140.804 91.9911C150.211 93.8133 158.55 94.5333 164.541 94.7982C165.745 94.8514 166.855 94.8863 167.86 94.908C166.461 95.8401 164.791 96.9085 162.873 98.0581C156.449 101.909 147.274 106.657 136.27 110.252C114.27 117.439 85.0936 119.988 55.8513 101.725C31.3208 86.4041 20.3414 67.9104 15.4589 53.3266C13.0122 46.0185 12.0895 39.6688 11.7771 35.1619C11.6209 32.9092 11.6174 31.1195 11.6518 29.9044ZM154.345 187.78C172.358 183.918 184.247 176.485 196.312 168.719C196.685 168.479 197.058 168.239 197.431 167.999C210.694 159.454 224.426 150.607 247.288 145.29C270.552 139.879 288.465 145.92 300.587 153.297C306.661 156.993 311.284 161.028 314.383 164.135C315.859 165.614 316.986 166.879 317.757 167.792C280.171 195.323 237.936 199.873 204.803 197.425C188.001 196.183 173.582 193.143 163.366 190.414C159.827 189.469 156.794 188.562 154.345 187.78ZM167.656 151.603C149.519 157.858 129.302 161.361 94.4691 155.808C99.7095 154.835 106.311 153.294 113.859 150.859C133.075 144.66 158.44 132.664 183.105 109.478C207.05 86.968 232.704 81.9457 253.932 84.0145C275.288 86.0958 292.065 95.3423 298.063 101.166C298.452 101.544 298.833 101.913 299.207 102.275C305.653 108.524 309.86 112.601 313.475 119.687C316.753 126.112 319.564 135.069 322.826 150.343C319.704 146.847 315.142 142.584 308.866 138.618C294.936 129.815 272.733 122.588 239.449 128.205C215.978 132.167 199.828 138.791 185.182 144.797C179.221 147.242 173.51 149.584 167.656 151.603ZM397.601 17.362C386.579 4.07205 379.558 -2.82021 373.43 -8.83649C371.593 -10.6393 369.837 -12.3634 368.077 -14.1574C359.958 -22.4346 351.547 -32.4035 334.229 -59.2439C317.127 -85.75 318.176 -103.365 322.984 -114.192C325.418 -119.672 328.879 -123.571 331.738 -126.101C333.166 -127.365 334.436 -128.281 335.339 -128.875C335.53 -129.001 335.704 -129.112 335.86 -129.209C336.349 -128.945 337.024 -128.567 337.859 -128.067C339.755 -126.931 342.476 -125.166 345.724 -122.674C352.221 -117.689 360.825 -109.797 369.171 -98.2061C385.363 -75.7211 400.686 -39.1808 397.601 17.362ZM259.236 -65.9606C264.341 -90.5146 281.807 -111.761 305.165 -123.422C304.879 -122.492 304.577 -121.429 304.274 -120.238C302.993 -115.207 301.697 -107.89 301.593 -98.6585C301.385 -80.1743 305.961 -54.0984 324.879 -23.4067C343.611 6.98376 357.805 32.3191 363.282 56.685C368.318 79.0872 365.997 100.752 352.708 124.853C352.618 123.798 352.502 122.635 352.352 121.37C351.575 114.822 349.888 105.55 346.246 94.5775C338.958 72.6207 323.855 43.8871 292.636 16.5821C262.181 -10.054 253.841 -40.0181 259.236 -65.9606ZM91.2477 45.2614C92.1616 45.3375 93.2008 45.4134 94.3597 45.4825C99.3963 45.7825 106.696 45.9524 115.799 45.4395C134.005 44.4137 159.436 40.6562 188.408 29.7401C216.822 19.0344 245.042 17.6635 269.012 27.2534C291.192 36.1273 309.982 54.4851 321.989 84.0811C321.543 83.7419 321.074 83.3913 320.582 83.0312C315.772 79.5169 308.697 75.0811 299.602 71.3661C281.382 63.9239 255.103 59.3992 222.837 70.8835C162.94 92.2024 112.637 71.0189 91.2477 45.2614Z" stroke="url(#paint0_linear_4839_12908)" stroke-width="4"/>
<defs>
<linearGradient id="paint0_linear_4839_12908" x1="200" y1="-200" x2="200" y2="200" gradientUnits="userSpaceOnUse">
<stop stop-color="#3E0002"/>
<stop offset="1" stop-color="#3E0002" stop-opacity="0"/>
</linearGradient>
</defs>
</svg>
