<svg width="140" height="140" viewBox="0 0 140 140" fill="none" xmlns="http://www.w3.org/2000/svg">
<path d="M66.8834 134.137C65.0035 134.137 63.1841 133.637 61.6074 132.637L38.2595 117.99C21.5824 107.549 11.6367 89.8136 11.6671 70.5783V36.9606C11.6671 32.2547 15.1541 28.343 19.945 27.6665C27.2222 26.6665 34.4389 24.9312 41.3523 22.5489C48.478 20.0783 55.3611 16.8724 61.8196 13.0489C63.3358 12.1371 65.0641 11.6665 66.8531 11.6665C68.6421 11.6665 70.3705 12.1371 71.8866 13.0489C78.3148 16.8724 85.1979 20.0783 92.3236 22.5489C93.87 23.0783 95.3255 23.5489 96.8112 23.9606C99.8434 22.8724 103.027 22.343 106.272 22.343C115.611 22.343 124.283 26.843 129.468 34.3724C133.592 40.3724 135.078 47.6077 133.622 54.6959C132.197 61.6959 128.073 67.7253 122.009 71.7253C121.675 90.5194 111.76 107.814 95.4467 118.019L72.1291 132.667C70.5524 133.637 68.7331 134.167 66.8531 134.167L66.8834 134.137ZM66.8834 18.6959C66.4589 18.6959 66.0344 18.8136 65.6705 19.0194C58.7874 23.1077 51.4495 26.5194 43.8387 29.1665C36.4401 31.7253 28.7687 33.5489 21.0062 34.6371C19.8237 34.8136 18.9747 35.8136 18.9747 36.9606V70.5783C18.9747 87.4312 27.6468 102.931 42.2316 112.049L65.5493 126.696C65.9434 126.931 66.3983 127.049 66.8834 127.049C67.3686 127.049 67.8234 126.931 68.2479 126.667L91.5352 112.049C104.574 103.872 113.155 90.1371 114.58 75.1665C111.881 75.99 109.092 76.4018 106.241 76.4018C97.6299 76.4018 89.352 72.4312 84.1366 65.8136C75.04 54.2547 77.011 37.8136 88.4727 28.6077C81.4077 26.0489 74.5852 22.8136 68.1569 19.0194C67.7931 18.8136 67.3686 18.6959 66.9441 18.6959H66.8834ZM106.272 29.3724C94.9009 29.3724 85.6527 38.343 85.6527 49.3724C85.6527 60.4018 94.9009 69.3724 106.272 69.3724C117.642 69.3724 126.86 60.4018 126.891 49.3724C126.891 38.343 117.642 29.3724 106.272 29.3724Z" fill="url(#paint0_linear_4080_8267)" fill-opacity="0.4"/>
<path d="M112.336 55.843C111.76 55.843 111.214 55.7253 110.699 55.4606L104.634 52.5194C103.391 51.9312 102.633 50.6959 102.633 49.3724V40.5489C102.633 38.6077 104.27 37.0194 106.272 37.0194C108.273 37.0194 109.91 38.6077 109.91 40.5489V47.1959L113.973 49.1665C115.762 50.0489 116.49 52.1665 115.611 53.9018C115.004 55.1077 113.731 55.843 112.366 55.843H112.336Z" fill="url(#paint1_linear_4080_8267)" fill-opacity="0.4"/>
<defs>
<linearGradient id="paint0_linear_4080_8267" x1="72.917" y1="11.6665" x2="72.917" y2="134.167" gradientUnits="userSpaceOnUse">
<stop stop-color="white"/>
<stop offset="1" stop-color="white" stop-opacity="0.1"/>
</linearGradient>
<linearGradient id="paint1_linear_4080_8267" x1="72.917" y1="11.6665" x2="72.917" y2="134.167" gradientUnits="userSpaceOnUse">
<stop stop-color="white"/>
<stop offset="1" stop-color="white" stop-opacity="0.1"/>
</linearGradient>
</defs>
</svg>
