<svg width="140" height="140" viewBox="0 0 140 140" fill="none" xmlns="http://www.w3.org/2000/svg">
<path fill-rule="evenodd" clip-rule="evenodd" d="M65.2885 132.686C66.6272 133.668 68.2987 134.161 70.0272 134.167C70.0182 134.167 70.0091 134.167 70 134.167H70.0561C70.0465 134.167 70.0368 134.167 70.0272 134.167C71.7558 134.161 73.3727 133.606 74.7676 132.624L97.2035 117.138C113.077 106.217 122.5 87.646 122.5 67.5322V31.9938C122.5 27.3664 119.359 23.4793 115.04 22.8006C108.029 21.7518 101.074 19.9008 94.343 17.3712C87.5 14.7181 80.8253 11.3247 74.5433 7.25257C73.2532 6.32709 71.6266 5.8335 69.9439 5.8335C68.3734 5.8952 66.8029 6.38878 65.4567 7.25257C59.1747 11.3864 52.5 14.7798 45.6571 17.3712C38.9263 19.9008 31.9712 21.7518 24.9599 22.8006C20.641 23.4793 17.5 27.3047 17.5 31.9938V67.5322C17.5 87.7077 26.9231 106.217 42.8526 117.2L65.2885 132.686ZM69.5513 14.6564C69.6635 14.533 70 14.4713 70 14.4713L70.0561 14.5947C70.2805 14.5947 70.5048 14.6564 70.6731 14.7798C77.3478 19.1604 84.5273 22.8006 91.875 25.6388C99.1106 28.3535 106.571 30.3279 114.03 31.4385C114.479 31.5002 114.76 31.747 114.76 32.1172V67.7173C114.76 84.8079 106.683 100.664 93.109 109.981L70.617 125.467C70.3365 125.652 69.4952 125.467 69.4952 125.467L47.0032 109.919C33.4856 100.541 25.4087 84.7462 25.4087 67.5939V32.0555C25.4087 31.6853 25.633 31.4385 26.0817 31.3768C33.5978 30.2045 41.0577 28.2301 48.2933 25.5154C55.641 22.7389 62.7644 19.0987 69.5513 14.6564ZM58.5592 102.423C60.0387 104.053 61.9428 104.912 64.3633 105C67.4935 105.114 69.7669 102.616 70.3381 101.844L90.9939 74.3369C92.701 71.9175 92.8148 68.7618 91.2785 66.1846C89.9697 63.8704 87.5229 62.5029 84.7915 62.5029H78.7029L81.2635 49.7748C81.7756 47.4079 81.1497 45.1463 79.5564 43.4107C78.0769 41.7802 75.9146 40.8335 73.7523 40.8335C71.3624 40.8335 69.257 41.938 67.7775 43.9366L47.1786 71.3915C45.4146 73.811 45.187 76.9141 46.6664 79.4913C48.0321 81.9107 50.4789 83.3308 53.3241 83.3308H59.4127L56.8521 96.0589C56.34 98.4257 56.9659 100.687 58.5592 102.423ZM52.6982 76.2303C52.5275 75.9674 52.5844 75.6518 52.7551 75.3888L52.812 75.231L73.4109 47.8287L73.923 47.5131L74.492 47.0924L74.6059 47.8813C74.6059 47.8929 74.6086 47.9096 74.6123 47.9319C74.6254 48.011 74.6502 48.1612 74.6059 48.4073L71.2486 65.1327C71.021 66.132 71.3055 67.1313 71.9314 67.9202C72.6142 68.7092 73.5816 69.1825 74.6059 69.1825H84.8484C85.076 69.1825 85.3036 69.3403 85.4174 69.5507C85.5881 69.8663 85.4174 70.4448 85.4174 70.4448C85.4174 70.4448 65.2602 97.3212 64.8185 97.8997C64.2424 98.6544 63.468 98.1188 63.6236 97.3212C63.7791 96.5236 66.9808 80.6484 66.9808 80.6484C67.2085 79.6491 66.9239 78.6497 66.298 77.8608C65.6152 77.0719 64.6478 76.5985 63.6236 76.5985H53.381C52.9827 76.5985 52.7551 76.3881 52.6982 76.2303Z" fill="url(#paint0_linear_4080_3415)" fill-opacity="0.4"/>
<defs>
<linearGradient id="paint0_linear_4080_3415" x1="70" y1="5.8335" x2="70" y2="134.167" gradientUnits="userSpaceOnUse">
<stop stop-color="white"/>
<stop offset="1" stop-color="white" stop-opacity="0.1"/>
</linearGradient>
</defs>
</svg>
