<svg width="1794" height="858" viewBox="0 0 1794 858" fill="none" xmlns="http://www.w3.org/2000/svg">
<g opacity="0.3" filter="url(#filter0_f_3309_8512)">
<ellipse cx="897" cy="429" rx="660" ry="192.5" fill="#B30006"/>
</g>
<path d="M1556.5 429C1556.5 455.33 1538.2 480.52 1504.85 503.518C1471.51 526.506 1423.24 547.228 1363.55 564.638C1244.17 599.457 1079.22 621 897 621C714.78 621 549.829 599.457 430.45 564.638C370.756 547.228 322.486 526.506 289.15 503.518C255.798 480.52 237.5 455.33 237.5 429C237.5 402.67 255.798 377.48 289.15 354.482C322.486 331.494 370.756 310.773 430.45 293.362C549.829 258.543 714.78 237 897 237C1079.22 237 1244.17 258.543 1363.55 293.362C1423.24 310.773 1471.51 331.494 1504.85 354.482C1538.2 377.48 1556.5 402.67 1556.5 429Z" stroke="#440002"/>
<path d="M1406.63 401.5C1406.63 420.794 1392.54 439.292 1366.76 456.209C1341.01 473.113 1303.71 488.355 1257.58 501.163C1165.32 526.776 1037.84 542.625 897 542.625C756.165 542.625 628.681 526.776 536.421 501.163C490.288 488.355 452.99 473.113 427.238 456.209C401.465 439.292 387.375 420.794 387.375 401.5C387.375 382.207 401.465 363.709 427.238 346.792C452.99 329.888 490.288 314.646 536.421 301.838C628.681 276.224 756.165 260.375 897 260.375C1037.84 260.375 1165.32 276.224 1257.58 301.838C1303.71 314.646 1341.01 329.888 1366.76 346.792C1392.54 363.709 1406.63 382.207 1406.63 401.5Z" stroke="#440002"/>
<path d="M1260.19 365.406C1260.19 371.016 1257.71 376.532 1252.93 381.908C1248.13 387.287 1241.04 392.5 1231.87 397.481C1213.52 407.443 1186.94 416.431 1154.05 423.985C1088.29 439.09 997.403 448.438 897 448.438C796.597 448.438 705.714 439.09 639.946 423.985C607.058 416.431 580.478 407.443 562.131 397.481C552.958 392.5 545.867 387.287 541.075 381.908C536.285 376.532 533.812 371.016 533.812 365.406C533.812 359.797 536.285 354.28 541.075 348.905C545.867 343.526 552.958 338.313 562.131 333.332C580.478 323.369 607.058 314.382 639.946 306.828C705.714 291.723 796.597 282.375 897 282.375C997.403 282.375 1088.29 291.723 1154.05 306.828C1186.94 314.382 1213.52 323.369 1231.87 333.332C1241.04 338.313 1248.13 343.526 1252.93 348.905C1257.71 354.28 1260.19 359.797 1260.19 365.406Z" stroke="#440002"/>
<g filter="url(#filter1_f_3309_8512)">
<g style="mix-blend-mode:screen">
<path d="M490.231 308.802C489.375 309.246 488.321 308.915 487.877 308.064C487.433 307.209 487.764 306.155 488.615 305.711C489.47 305.266 490.524 305.597 490.968 306.448C491.413 307.303 491.082 308.357 490.231 308.802Z" fill="white"/>
</g>
<g style="mix-blend-mode:screen">
<path d="M588.784 327.655C588.756 327.655 588.666 327.645 588.619 327.555C588.609 327.536 588.581 327.489 588.604 327.413C588.628 327.343 588.68 327.314 588.694 327.305C588.723 327.291 588.751 327.281 588.779 327.281C588.808 327.281 588.897 327.291 588.945 327.38C588.992 327.47 588.959 327.584 588.869 327.631C588.841 327.645 588.817 327.655 588.789 327.655H588.784Z" fill="white"/>
</g>
<g style="mix-blend-mode:screen">
<path d="M430.501 383.393C429.546 383.89 428.374 383.521 427.873 382.571C427.377 381.616 427.746 380.444 428.696 379.943C429.646 379.442 430.823 379.815 431.324 380.765C431.82 381.72 431.451 382.892 430.501 383.393Z" fill="white"/>
</g>
<g style="mix-blend-mode:screen">
<path d="M635.18 409.23C634.793 409.23 634.278 409.041 634.003 408.516C633.781 408.091 633.852 407.703 633.914 407.505C633.975 407.306 634.14 406.947 634.566 406.725C634.76 406.626 634.963 406.574 635.176 406.574C635.563 406.574 636.078 406.763 636.353 407.287C636.575 407.713 636.504 408.1 636.442 408.299C636.381 408.497 636.215 408.857 635.79 409.079C635.596 409.178 635.393 409.23 635.18 409.23Z" fill="white"/>
</g>
<g style="mix-blend-mode:screen">
<path d="M663.015 299.321C662.603 299.321 662.065 299.123 661.776 298.574C661.545 298.13 661.616 297.719 661.682 297.511C661.748 297.303 661.923 296.925 662.367 296.693C662.57 296.589 662.783 296.533 663.01 296.533C663.421 296.533 663.96 296.731 664.248 297.279C664.48 297.724 664.409 298.135 664.343 298.343C664.277 298.551 664.102 298.929 663.657 299.161C663.454 299.265 663.242 299.321 663.015 299.321Z" fill="white"/>
</g>
<g style="mix-blend-mode:screen">
<path d="M576.247 350.302C575.916 350.302 575.481 350.141 575.249 349.697C575.06 349.338 575.122 349.007 575.174 348.841C575.226 348.676 575.368 348.369 575.727 348.18C575.887 348.095 576.062 348.052 576.242 348.052C576.573 348.052 577.008 348.213 577.239 348.657C577.428 349.016 577.367 349.347 577.315 349.513C577.263 349.678 577.121 349.985 576.762 350.174C576.596 350.259 576.426 350.302 576.247 350.302Z" fill="white"/>
</g>
<g style="mix-blend-mode:screen">
<path d="M703.594 406.482C703.206 406.482 702.691 406.293 702.417 405.768C702.195 405.343 702.266 404.955 702.327 404.757C702.389 404.563 702.554 404.199 702.979 403.977C703.173 403.878 703.376 403.826 703.589 403.826C703.977 403.826 704.492 404.015 704.766 404.539C705.106 405.187 704.851 405.99 704.204 406.326C704.01 406.425 703.807 406.477 703.594 406.477V406.482Z" fill="white"/>
</g>
<g style="mix-blend-mode:screen">
<path d="M724.392 370.973C723.471 371.455 722.336 371.096 721.859 370.179C721.377 369.257 721.736 368.123 722.653 367.645C723.575 367.163 724.709 367.523 725.186 368.439C725.669 369.361 725.309 370.496 724.392 370.973Z" fill="white"/>
</g>
<g style="mix-blend-mode:screen">
<path d="M618.269 364.57C617.909 364.759 617.46 364.618 617.271 364.258C617.082 363.899 617.224 363.45 617.583 363.261C617.943 363.072 618.392 363.214 618.581 363.573C618.77 363.932 618.628 364.381 618.269 364.57Z" fill="white"/>
</g>
<g style="mix-blend-mode:screen">
<path d="M636.186 327.112C635.364 327.542 634.353 327.225 633.922 326.403C633.492 325.58 633.809 324.569 634.631 324.139C635.454 323.709 636.465 324.025 636.895 324.848C637.326 325.67 637.009 326.682 636.186 327.112Z" fill="white"/>
</g>
<g style="mix-blend-mode:screen">
<path d="M535.652 336.338C535.26 336.545 534.773 336.39 534.565 335.997C534.357 335.605 534.513 335.118 534.905 334.91C535.298 334.702 535.784 334.858 535.992 335.25C536.2 335.643 536.044 336.13 535.652 336.338Z" fill="white"/>
</g>
<g style="mix-blend-mode:screen">
<path d="M524.735 454.852C523.879 455.297 522.825 454.966 522.381 454.115C521.937 453.26 522.268 452.206 523.118 451.761C523.974 451.317 525.028 451.648 525.472 452.499C525.917 453.354 525.586 454.408 524.735 454.852Z" fill="white"/>
</g>
<g style="mix-blend-mode:screen">
<path d="M600.576 386.732C599.493 387.299 598.156 386.878 597.589 385.796C597.021 384.713 597.442 383.376 598.524 382.809C599.607 382.241 600.944 382.662 601.512 383.744C602.079 384.827 601.658 386.164 600.576 386.732Z" fill="white"/>
</g>
<g style="mix-blend-mode:screen">
<path d="M744.584 337.205C744.371 337.205 744.093 337.101 743.941 336.817C743.757 336.467 743.894 336.028 744.249 335.843C744.353 335.787 744.466 335.763 744.579 335.763C744.792 335.763 745.071 335.867 745.222 336.151C745.336 336.368 745.312 336.571 745.269 336.699C745.227 336.827 745.132 337.006 744.915 337.124C744.811 337.181 744.698 337.209 744.584 337.209V337.205Z" fill="white"/>
</g>
<g style="mix-blend-mode:screen">
<path d="M573.814 425.584C572.831 426.1 571.612 425.717 571.096 424.734C570.581 423.746 570.964 422.531 571.947 422.016C572.93 421.501 574.15 421.883 574.665 422.867C575.18 423.854 574.797 425.069 573.814 425.584Z" fill="white"/>
</g>
<g style="mix-blend-mode:screen">
<path d="M520.639 394.964C519.259 395.688 517.557 395.153 516.834 393.773C516.111 392.393 516.645 390.692 518.025 389.968C519.405 389.245 521.107 389.779 521.83 391.159C522.553 392.54 522.019 394.241 520.639 394.964Z" fill="white"/>
</g>
<g style="mix-blend-mode:screen">
<path d="M530.491 277.105C529.768 277.483 528.875 277.204 528.497 276.481C528.119 275.758 528.398 274.865 529.121 274.486C529.844 274.108 530.737 274.387 531.115 275.11C531.493 275.833 531.215 276.727 530.491 277.105Z" fill="white"/>
</g>
<g style="mix-blend-mode:screen">
<path d="M668.08 382.712C667.712 382.712 667.225 382.532 666.96 382.036C666.747 381.634 666.818 381.261 666.875 381.077C666.932 380.892 667.092 380.547 667.494 380.339C667.678 380.245 667.872 380.193 668.076 380.193C668.444 380.193 668.931 380.372 669.191 380.869C669.404 381.27 669.333 381.644 669.276 381.828C669.219 382.012 669.059 382.358 668.657 382.565C668.473 382.66 668.279 382.707 668.08 382.707V382.712Z" fill="white"/>
</g>
<g style="mix-blend-mode:screen">
<path d="M653.344 258.349C652.951 258.557 652.464 258.401 652.256 258.009C652.048 257.617 652.204 257.13 652.597 256.922C652.989 256.714 653.476 256.87 653.684 257.262C653.892 257.654 653.736 258.141 653.344 258.349Z" fill="white"/>
</g>
<g style="mix-blend-mode:screen">
<path d="M670.554 329.499C670.095 329.74 669.528 329.56 669.287 329.102C669.046 328.643 669.225 328.076 669.684 327.835C670.142 327.594 670.71 327.774 670.951 328.232C671.192 328.691 671.012 329.258 670.554 329.499Z" fill="white"/>
</g>
<g style="mix-blend-mode:screen">
<path d="M626.217 459.806C624.936 460.477 623.352 459.981 622.686 458.7C622.015 457.419 622.511 455.836 623.792 455.17C625.073 454.503 626.656 454.995 627.323 456.276C627.994 457.556 627.498 459.14 626.217 459.806Z" fill="white"/>
</g>
<g style="mix-blend-mode:screen">
<path d="M601.365 297.471C600.018 298.175 598.354 297.655 597.65 296.308C596.946 294.961 597.466 293.297 598.813 292.593C600.16 291.888 601.824 292.408 602.528 293.755C603.232 295.103 602.712 296.766 601.365 297.471Z" fill="white"/>
</g>
<g style="mix-blend-mode:screen">
<path d="M727.39 306.626C726.733 306.971 725.92 306.716 725.58 306.059C725.235 305.402 725.49 304.589 726.147 304.249C726.804 303.904 727.617 304.159 727.957 304.816C728.302 305.473 728.047 306.286 727.39 306.626Z" fill="white"/>
</g>
</g>
<g style="mix-blend-mode:screen">
<path d="M490.013 308.382C489.388 308.707 488.619 308.464 488.296 307.846C487.972 307.221 488.215 306.453 488.833 306.13C489.458 305.805 490.226 306.048 490.549 306.666C490.873 307.291 490.631 308.059 490.013 308.382Z" fill="#191919"/>
<path d="M490.013 308.382C489.388 308.707 488.619 308.464 488.296 307.846C487.972 307.221 488.215 306.453 488.833 306.13C489.458 305.805 490.226 306.048 490.549 306.666C490.873 307.291 490.631 308.059 490.013 308.382Z" stroke="black" stroke-width="0.945312"/>
</g>
<g style="mix-blend-mode:screen">
<path d="M588.809 327.478L588.958 327.524C588.971 327.481 588.969 327.433 588.949 327.39L588.801 327.464L588.809 327.478ZM588.809 327.478L588.789 327.471L588.789 327.47M588.86 327.636C588.835 327.647 588.814 327.655 588.789 327.655H588.784C588.783 327.655 588.781 327.654 588.779 327.654C588.747 327.653 588.663 327.641 588.619 327.555L588.779 327.475L588.779 327.475L588.86 327.636ZM588.955 327.53C588.944 327.562 588.925 327.59 588.899 327.611L588.813 327.483L588.955 327.53ZM588.945 327.38C588.945 327.381 588.946 327.382 588.946 327.383L588.798 327.461L588.797 327.458L588.789 327.447L588.784 327.439L588.779 327.432L588.741 327.376L588.704 327.3C588.729 327.289 588.754 327.281 588.779 327.281C588.781 327.281 588.782 327.281 588.784 327.281C588.785 327.281 588.787 327.281 588.789 327.281C588.824 327.284 588.902 327.299 588.945 327.38Z" fill="#191919"/>
<path d="M588.809 327.478L588.958 327.524C588.971 327.481 588.969 327.433 588.949 327.39L588.801 327.464L588.809 327.478ZM588.809 327.478L588.789 327.471L588.789 327.47M588.86 327.636C588.835 327.647 588.814 327.655 588.789 327.655H588.784C588.783 327.655 588.781 327.654 588.779 327.654C588.747 327.653 588.663 327.641 588.619 327.555L588.779 327.475L588.779 327.475L588.86 327.636ZM588.955 327.53C588.944 327.562 588.925 327.59 588.899 327.611L588.813 327.483L588.955 327.53ZM588.945 327.38C588.945 327.381 588.946 327.382 588.946 327.383L588.798 327.461L588.797 327.458L588.789 327.447L588.784 327.439L588.779 327.432L588.741 327.376L588.704 327.3C588.729 327.289 588.754 327.281 588.779 327.281C588.781 327.281 588.782 327.281 588.784 327.281C588.785 327.281 588.787 327.281 588.789 327.281C588.824 327.284 588.902 327.299 588.945 327.38Z" stroke="black" stroke-width="0.945312"/>
</g>
<g style="mix-blend-mode:screen">
<path d="M430.905 380.985C431.28 381.708 431.001 382.594 430.282 382.975C429.559 383.35 428.672 383.071 428.292 382.352C427.917 381.628 428.196 380.741 428.916 380.361C429.631 379.984 430.523 380.263 430.905 380.985Z" fill="#191919"/>
<path d="M430.905 380.985C431.28 381.708 431.001 382.594 430.282 382.975C429.559 383.35 428.672 383.071 428.292 382.352C427.917 381.628 428.196 380.741 428.916 380.361C429.631 379.984 430.523 380.263 430.905 380.985Z" stroke="black" stroke-width="0.945312"/>
</g>
<g style="mix-blend-mode:screen">
<path d="M635.18 408.757C634.927 408.757 634.597 408.632 634.422 408.298L634.422 408.297C634.28 408.025 634.324 407.779 634.365 407.645C634.405 407.516 634.51 407.288 634.783 407.145C634.914 407.078 635.044 407.046 635.176 407.046C635.429 407.046 635.759 407.172 635.934 407.506C636.076 407.779 636.032 408.025 635.991 408.159C635.951 408.288 635.845 408.516 635.573 408.659C635.442 408.726 635.312 408.757 635.18 408.757Z" fill="#191919"/>
<path d="M635.18 408.757C634.927 408.757 634.597 408.632 634.422 408.298L634.422 408.297C634.28 408.025 634.324 407.779 634.365 407.645C634.405 407.516 634.51 407.288 634.783 407.145C634.914 407.078 635.044 407.046 635.176 407.046C635.429 407.046 635.759 407.172 635.934 407.506C636.076 407.779 636.032 408.025 635.991 408.159C635.951 408.288 635.845 408.516 635.573 408.659C635.442 408.726 635.312 408.757 635.18 408.757Z" stroke="black" stroke-width="0.945312"/>
</g>
<g style="mix-blend-mode:screen">
<path d="M663.015 298.849C662.737 298.849 662.384 298.714 662.195 298.355C662.042 298.062 662.088 297.792 662.132 297.654C662.177 297.512 662.293 297.266 662.584 297.113C662.727 297.04 662.866 297.005 663.01 297.005C663.287 297.005 663.641 297.14 663.83 297.499C663.982 297.792 663.936 298.062 663.892 298.2C663.847 298.342 663.732 298.588 663.441 298.741C663.297 298.814 663.158 298.849 663.015 298.849Z" fill="#191919"/>
<path d="M663.015 298.849C662.737 298.849 662.384 298.714 662.195 298.355C662.042 298.062 662.088 297.792 662.132 297.654C662.177 297.512 662.293 297.266 662.584 297.113C662.727 297.04 662.866 297.005 663.01 297.005C663.287 297.005 663.641 297.14 663.83 297.499C663.982 297.792 663.936 298.062 663.892 298.2C663.847 298.342 663.732 298.588 663.441 298.741C663.297 298.814 663.158 298.849 663.015 298.849Z" stroke="black" stroke-width="0.945312"/>
</g>
<g style="mix-blend-mode:screen">
<path d="M575.669 349.478L575.669 349.478L575.668 349.477C575.56 349.272 575.593 349.084 575.625 348.983C575.656 348.885 575.738 348.708 575.947 348.598L575.947 348.598L575.948 348.597C576.04 348.549 576.138 348.525 576.242 348.525C576.438 348.525 576.688 348.621 576.82 348.876L576.82 348.876L576.821 348.877C576.929 349.082 576.896 349.27 576.864 349.371L577.315 349.513L576.864 349.371C576.833 349.469 576.751 349.645 576.544 349.755C576.442 349.807 576.347 349.829 576.247 349.829C576.05 349.829 575.801 349.733 575.669 349.478Z" fill="#191919"/>
<path d="M575.669 349.478L575.669 349.478L575.668 349.477C575.56 349.272 575.593 349.084 575.625 348.983C575.656 348.885 575.738 348.708 575.947 348.598L575.947 348.598L575.948 348.597C576.04 348.549 576.138 348.525 576.242 348.525C576.438 348.525 576.688 348.621 576.82 348.876L576.82 348.876L576.821 348.877C576.929 349.082 576.896 349.27 576.864 349.371L577.315 349.513L576.864 349.371C576.833 349.469 576.751 349.645 576.544 349.755C576.442 349.807 576.347 349.829 576.247 349.829C576.05 349.829 575.801 349.733 575.669 349.478Z" stroke="black" stroke-width="0.945312"/>
</g>
<g style="mix-blend-mode:screen">
<path d="M703.987 405.906C704.402 405.69 704.565 405.173 704.348 404.759L704.347 404.758C704.172 404.423 703.843 404.298 703.589 404.298C703.457 404.298 703.328 404.33 703.197 404.397C702.927 404.538 702.82 404.768 702.778 404.898C702.737 405.033 702.694 405.278 702.836 405.549L703.987 405.906ZM703.987 405.906C703.856 405.973 703.726 406.005 703.594 406.005H703.507C703.269 405.979 702.991 405.847 702.836 405.549L703.987 405.906Z" fill="#191919"/>
<path d="M703.987 405.906C704.402 405.69 704.565 405.173 704.348 404.759L704.347 404.758C704.172 404.423 703.843 404.298 703.589 404.298C703.457 404.298 703.328 404.33 703.197 404.397C702.927 404.538 702.82 404.768 702.778 404.898C702.737 405.033 702.694 405.278 702.836 405.549L703.987 405.906ZM703.987 405.906C703.856 405.973 703.726 406.005 703.594 406.005H703.507C703.269 405.979 702.991 405.847 702.836 405.549L703.987 405.906Z" stroke="black" stroke-width="0.945312"/>
</g>
<g style="mix-blend-mode:screen">
<path d="M724.174 370.554L724.173 370.554C723.483 370.915 722.635 370.646 722.278 369.961L722.278 369.96C721.917 369.27 722.186 368.421 722.871 368.065L722.872 368.064C723.562 367.703 724.41 367.972 724.767 368.658L724.768 368.659C725.128 369.348 724.859 370.197 724.174 370.554Z" fill="#191919"/>
<path d="M724.174 370.554L724.173 370.554C723.483 370.915 722.635 370.646 722.278 369.961L722.278 369.96C721.917 369.27 722.186 368.421 722.871 368.065L722.872 368.064C723.562 367.703 724.41 367.972 724.767 368.658L724.768 368.659C725.128 369.348 724.859 370.197 724.174 370.554Z" stroke="black" stroke-width="0.945312"/>
</g>
<g style="mix-blend-mode:screen">
<path d="M618.049 364.152C617.923 364.218 617.758 364.169 617.69 364.038C617.623 363.912 617.673 363.748 617.803 363.679C617.929 363.613 618.094 363.662 618.162 363.793C618.229 363.919 618.179 364.083 618.049 364.152Z" fill="#191919"/>
<path d="M618.049 364.152C617.923 364.218 617.758 364.169 617.69 364.038C617.623 363.912 617.673 363.748 617.803 363.679C617.929 363.613 618.094 363.662 618.162 363.793C618.229 363.919 618.179 364.083 618.049 364.152Z" stroke="black" stroke-width="0.945312"/>
</g>
<g style="mix-blend-mode:screen">
<path d="M635.967 326.693C635.376 327.002 634.65 326.775 634.341 326.184C634.032 325.592 634.259 324.867 634.85 324.557C635.442 324.248 636.168 324.476 636.477 325.067C636.786 325.658 636.558 326.384 635.967 326.693Z" fill="#191919"/>
<path d="M635.967 326.693C635.376 327.002 634.65 326.775 634.341 326.184C634.032 325.592 634.259 324.867 634.85 324.557C635.442 324.248 636.168 324.476 636.477 325.067C636.786 325.658 636.558 326.384 635.967 326.693Z" stroke="black" stroke-width="0.945312"/>
</g>
<g style="mix-blend-mode:screen">
<path d="M535.431 335.92C535.275 336.003 535.071 335.943 534.983 335.776C534.9 335.62 534.959 335.417 535.127 335.328C535.282 335.245 535.486 335.304 535.575 335.472C535.657 335.628 535.598 335.831 535.431 335.92Z" fill="#191919"/>
<path d="M535.431 335.92C535.275 336.003 535.071 335.943 534.983 335.776C534.9 335.62 534.959 335.417 535.127 335.328C535.282 335.245 535.486 335.304 535.575 335.472C535.657 335.628 535.598 335.831 535.431 335.92Z" stroke="black" stroke-width="0.945312"/>
</g>
<g style="mix-blend-mode:screen">
<path d="M524.517 454.433C523.891 454.758 523.123 454.515 522.8 453.897C522.476 453.272 522.719 452.504 523.337 452.181C523.962 451.856 524.73 452.099 525.053 452.717C525.377 453.342 525.135 454.11 524.517 454.433Z" fill="#191919"/>
<path d="M524.517 454.433C523.891 454.758 523.123 454.515 522.8 453.897C522.476 453.272 522.719 452.504 523.337 452.181C523.962 451.856 524.73 452.099 525.053 452.717C525.377 453.342 525.135 454.11 524.517 454.433Z" stroke="black" stroke-width="0.945312"/>
</g>
<g style="mix-blend-mode:screen">
<path d="M600.356 386.313C599.506 386.759 598.454 386.429 598.007 385.576C597.562 384.726 597.892 383.674 598.744 383.227C599.594 382.782 600.646 383.112 601.093 383.964C601.538 384.814 601.208 385.866 600.356 386.313Z" fill="#191919"/>
<path d="M600.356 386.313C599.506 386.759 598.454 386.429 598.007 385.576C597.562 384.726 597.892 383.674 598.744 383.227C599.594 382.782 600.646 383.112 601.093 383.964C601.538 384.814 601.208 385.866 600.356 386.313Z" stroke="black" stroke-width="0.945312"/>
</g>
<g style="mix-blend-mode:screen">
<path d="M744.689 336.709C744.669 336.72 744.648 336.728 744.628 336.732H744.584C744.508 336.732 744.411 336.693 744.359 336.596C744.298 336.479 744.344 336.327 744.467 336.263L744.467 336.263L744.475 336.258C744.499 336.245 744.532 336.236 744.579 336.236C744.656 336.236 744.752 336.274 744.804 336.371C744.843 336.447 744.834 336.511 744.821 336.549C744.803 336.604 744.769 336.666 744.689 336.709L744.689 336.709L744.689 336.709Z" fill="#191919"/>
<path d="M744.689 336.709C744.669 336.72 744.648 336.728 744.628 336.732H744.584C744.508 336.732 744.411 336.693 744.359 336.596C744.298 336.479 744.344 336.327 744.467 336.263L744.467 336.263L744.475 336.258C744.499 336.245 744.532 336.236 744.579 336.236C744.656 336.236 744.752 336.274 744.804 336.371C744.843 336.447 744.834 336.511 744.821 336.549C744.803 336.604 744.769 336.666 744.689 336.709L744.689 336.709L744.689 336.709Z" stroke="black" stroke-width="0.945312"/>
</g>
<g style="mix-blend-mode:screen">
<path d="M573.595 425.166C572.844 425.559 571.91 425.267 571.515 424.515C571.121 423.758 571.414 422.829 572.167 422.434C572.918 422.041 573.852 422.333 574.246 423.085C574.64 423.842 574.347 424.771 573.595 425.166Z" fill="#191919"/>
<path d="M573.595 425.166C572.844 425.559 571.91 425.267 571.515 424.515C571.121 423.758 571.414 422.829 572.167 422.434C572.918 422.041 573.852 422.333 574.246 423.085C574.64 423.842 574.347 424.771 573.595 425.166Z" stroke="black" stroke-width="0.945312"/>
</g>
<g style="mix-blend-mode:screen">
<path d="M520.42 394.546C519.271 395.147 517.855 394.704 517.253 393.554C516.651 392.406 517.095 390.989 518.245 390.387C519.393 389.785 520.809 390.229 521.412 391.379C522.013 392.527 521.569 393.943 520.42 394.546Z" fill="#191919"/>
<path d="M520.42 394.546C519.271 395.147 517.855 394.704 517.253 393.554C516.651 392.406 517.095 390.989 518.245 390.387C519.393 389.785 520.809 390.229 521.412 391.379C522.013 392.527 521.569 393.943 520.42 394.546Z" stroke="black" stroke-width="0.945312"/>
</g>
<g style="mix-blend-mode:screen">
<path d="M530.272 276.686C529.78 276.944 529.173 276.753 528.916 276.262C528.658 275.77 528.848 275.162 529.34 274.905C529.832 274.648 530.44 274.838 530.696 275.329C530.954 275.822 530.764 276.429 530.272 276.686Z" fill="#191919"/>
<path d="M530.272 276.686C529.78 276.944 529.173 276.753 528.916 276.262C528.658 275.77 528.848 275.162 529.34 274.905C529.832 274.648 530.44 274.838 530.696 275.329C530.954 275.822 530.764 276.429 530.272 276.686Z" stroke="black" stroke-width="0.945312"/>
</g>
<g style="mix-blend-mode:screen">
<path d="M668.772 381.088L668.772 381.088L668.773 381.09C668.903 381.336 668.863 381.565 668.824 381.689C668.789 381.803 668.689 382.016 668.44 382.145C668.321 382.206 668.201 382.235 668.08 382.235H667.997C667.779 382.21 667.524 382.088 667.377 381.814C667.248 381.569 667.288 381.34 667.327 381.216C667.362 381.102 667.462 380.889 667.711 380.759C667.836 380.695 667.956 380.665 668.076 380.665C668.31 380.665 668.611 380.781 668.772 381.088Z" fill="#191919"/>
<path d="M668.772 381.088L668.772 381.088L668.773 381.09C668.903 381.336 668.863 381.565 668.824 381.689C668.789 381.803 668.689 382.016 668.44 382.145C668.321 382.206 668.201 382.235 668.08 382.235H667.997C667.779 382.21 667.524 382.088 667.377 381.814C667.248 381.569 667.288 381.34 667.327 381.216C667.362 381.102 667.462 380.889 667.711 380.759C667.836 380.695 667.956 380.665 668.076 380.665C668.31 380.665 668.611 380.781 668.772 381.088Z" stroke="black" stroke-width="0.945312"/>
</g>
<g style="mix-blend-mode:screen">
<path d="M653.122 257.932C652.966 258.014 652.763 257.955 652.674 257.788C652.591 257.632 652.651 257.428 652.818 257.339C652.974 257.257 653.177 257.316 653.266 257.484C653.349 257.639 653.29 257.843 653.122 257.932Z" fill="#191919"/>
<path d="M653.122 257.932C652.966 258.014 652.763 257.955 652.674 257.788C652.591 257.632 652.651 257.428 652.818 257.339C652.974 257.257 653.177 257.316 653.266 257.484C653.349 257.639 653.29 257.843 653.122 257.932Z" stroke="black" stroke-width="0.945312"/>
</g>
<g style="mix-blend-mode:screen">
<path d="M670.334 329.081C670.109 329.199 669.826 329.112 669.705 328.882C669.587 328.657 669.674 328.374 669.904 328.253C670.129 328.135 670.411 328.222 670.532 328.452C670.65 328.677 670.564 328.96 670.334 329.081Z" fill="#191919"/>
<path d="M670.334 329.081C670.109 329.199 669.826 329.112 669.705 328.882C669.587 328.657 669.674 328.374 669.904 328.253C670.129 328.135 670.411 328.222 670.532 328.452C670.65 328.677 670.564 328.96 670.334 329.081Z" stroke="black" stroke-width="0.945312"/>
</g>
<g style="mix-blend-mode:screen">
<path d="M625.998 459.387L625.997 459.388C624.948 459.938 623.651 459.531 623.105 458.482L623.105 458.482L623.105 458.481C622.555 457.431 622.962 456.134 624.01 455.589C625.062 455.042 626.359 455.447 626.903 456.494L626.904 456.495C627.454 457.545 627.047 458.842 625.998 459.387Z" fill="#191919"/>
<path d="M625.998 459.387L625.997 459.388C624.948 459.938 623.651 459.531 623.105 458.482L623.105 458.482L623.105 458.481C622.555 457.431 622.962 456.134 624.01 455.589C625.062 455.042 626.359 455.447 626.903 456.494L626.904 456.495C627.454 457.545 627.047 458.842 625.998 459.387Z" stroke="black" stroke-width="0.945312"/>
</g>
<g style="mix-blend-mode:screen">
<path d="M601.146 297.052C600.03 297.635 598.652 297.204 598.069 296.089C597.485 294.973 597.916 293.595 599.032 293.012C600.148 292.428 601.526 292.859 602.109 293.974C602.692 295.091 602.261 296.469 601.146 297.052Z" fill="#191919"/>
<path d="M601.146 297.052C600.03 297.635 598.652 297.204 598.069 296.089C597.485 294.973 597.916 293.595 599.032 293.012C600.148 292.428 601.526 292.859 602.109 293.974C602.692 295.091 602.261 296.469 601.146 297.052Z" stroke="black" stroke-width="0.945312"/>
</g>
<g style="mix-blend-mode:screen">
<path d="M727.172 306.207L727.172 306.207L727.17 306.208C726.745 306.431 726.219 306.265 725.999 305.842L725.999 305.842L725.998 305.839C725.775 305.414 725.941 304.888 726.364 304.669L726.364 304.669L726.367 304.667C726.792 304.444 727.318 304.61 727.537 305.034L727.537 305.034L727.539 305.036C727.762 305.461 727.596 305.987 727.172 306.207Z" fill="#191919"/>
<path d="M727.172 306.207L727.172 306.207L727.17 306.208C726.745 306.431 726.219 306.265 725.999 305.842L725.999 305.842L725.998 305.839C725.775 305.414 725.941 304.888 726.364 304.669L726.364 304.669L726.367 304.667C726.792 304.444 727.318 304.61 727.537 305.034L727.537 305.034L727.539 305.036C727.762 305.461 727.596 305.987 727.172 306.207Z" stroke="black" stroke-width="0.945312"/>
</g>
<g filter="url(#filter2_f_3309_8512)">
<g style="mix-blend-mode:screen">
<path d="M1095.7 561.274C1094.85 560.83 1093.79 561.16 1093.35 562.011C1092.9 562.867 1093.24 563.921 1094.09 564.365C1094.94 564.809 1096 564.478 1096.44 563.628C1096.88 562.772 1096.55 561.718 1095.7 561.274Z" fill="white"/>
</g>
<g style="mix-blend-mode:screen">
<path d="M1194.26 542.42C1194.23 542.42 1194.14 542.43 1194.09 542.519C1194.08 542.538 1194.05 542.586 1194.08 542.661C1194.1 542.732 1194.15 542.76 1194.17 542.77C1194.19 542.784 1194.22 542.794 1194.25 542.794C1194.28 542.794 1194.37 542.784 1194.42 542.694C1194.46 542.605 1194.43 542.491 1194.34 542.444C1194.31 542.43 1194.29 542.42 1194.26 542.42H1194.26Z" fill="white"/>
</g>
<g style="mix-blend-mode:screen">
<path d="M1035.97 486.682C1035.02 486.186 1033.85 486.555 1033.34 487.505C1032.85 488.459 1033.22 489.632 1034.17 490.133C1035.12 490.634 1036.29 490.26 1036.8 489.31C1037.29 488.355 1036.92 487.183 1035.97 486.682Z" fill="white"/>
</g>
<g style="mix-blend-mode:screen">
<path d="M1240.65 460.845C1240.26 460.845 1239.75 461.034 1239.48 461.558C1239.25 461.984 1239.32 462.371 1239.39 462.57C1239.45 462.768 1239.61 463.127 1240.04 463.35C1240.23 463.449 1240.43 463.501 1240.65 463.501C1241.03 463.501 1241.55 463.312 1241.82 462.787C1242.05 462.362 1241.98 461.974 1241.91 461.776C1241.85 461.577 1241.69 461.218 1241.26 460.996C1241.07 460.897 1240.86 460.845 1240.65 460.845Z" fill="white"/>
</g>
<g style="mix-blend-mode:screen">
<path d="M1268.49 570.754C1268.08 570.754 1267.54 570.953 1267.25 571.501C1267.02 571.945 1267.09 572.357 1267.15 572.565C1267.22 572.773 1267.39 573.151 1267.84 573.382C1268.04 573.486 1268.25 573.543 1268.48 573.543C1268.89 573.543 1269.43 573.344 1269.72 572.796C1269.95 572.352 1269.88 571.941 1269.81 571.733C1269.75 571.525 1269.57 571.147 1269.13 570.915C1268.93 570.811 1268.71 570.754 1268.49 570.754Z" fill="white"/>
</g>
<g style="mix-blend-mode:screen">
<path d="M1181.72 519.774C1181.39 519.774 1180.95 519.934 1180.72 520.379C1180.53 520.738 1180.59 521.069 1180.65 521.234C1180.7 521.4 1180.84 521.707 1181.2 521.896C1181.36 521.981 1181.53 522.023 1181.71 522.023C1182.04 522.023 1182.48 521.863 1182.71 521.418C1182.9 521.059 1182.84 520.728 1182.79 520.563C1182.73 520.398 1182.59 520.09 1182.23 519.901C1182.07 519.816 1181.9 519.774 1181.72 519.774Z" fill="white"/>
</g>
<g style="mix-blend-mode:screen">
<path d="M1309.07 463.594C1308.68 463.594 1308.16 463.783 1307.89 464.307C1307.67 464.733 1307.74 465.12 1307.8 465.319C1307.86 465.513 1308.03 465.877 1308.45 466.099C1308.64 466.198 1308.85 466.25 1309.06 466.25C1309.45 466.25 1309.96 466.061 1310.24 465.536C1310.58 464.889 1310.32 464.085 1309.68 463.75C1309.48 463.65 1309.28 463.598 1309.07 463.598V463.594Z" fill="white"/>
</g>
<g style="mix-blend-mode:screen">
<path d="M1329.86 499.103C1328.94 498.621 1327.81 498.98 1327.33 499.897C1326.85 500.818 1327.21 501.953 1328.12 502.43C1329.05 502.912 1330.18 502.553 1330.66 501.636C1331.14 500.714 1330.78 499.58 1329.86 499.103Z" fill="white"/>
</g>
<g style="mix-blend-mode:screen">
<path d="M1223.74 505.505C1223.38 505.316 1222.93 505.458 1222.74 505.817C1222.55 506.176 1222.7 506.625 1223.06 506.815C1223.41 507.004 1223.86 506.862 1224.05 506.503C1224.24 506.143 1224.1 505.694 1223.74 505.505Z" fill="white"/>
</g>
<g style="mix-blend-mode:screen">
<path d="M1241.66 542.964C1240.84 542.534 1239.82 542.85 1239.39 543.673C1238.96 544.495 1239.28 545.507 1240.1 545.937C1240.93 546.367 1241.94 546.05 1242.37 545.228C1242.8 544.406 1242.48 543.394 1241.66 542.964Z" fill="white"/>
</g>
<g style="mix-blend-mode:screen">
<path d="M1141.12 533.738C1140.73 533.53 1140.24 533.686 1140.04 534.078C1139.83 534.471 1139.98 534.957 1140.38 535.165C1140.77 535.373 1141.26 535.217 1141.46 534.825C1141.67 534.433 1141.52 533.946 1141.12 533.738Z" fill="white"/>
</g>
<g style="mix-blend-mode:screen">
<path d="M1130.21 415.223C1129.35 414.779 1128.3 415.11 1127.85 415.96C1127.41 416.816 1127.74 417.87 1128.59 418.314C1129.45 418.759 1130.5 418.428 1130.94 417.577C1131.39 416.721 1131.06 415.667 1130.21 415.223Z" fill="white"/>
</g>
<g style="mix-blend-mode:screen">
<path d="M1206.05 483.344C1204.96 482.777 1203.63 483.197 1203.06 484.28C1202.49 485.362 1202.91 486.7 1204 487.267C1205.08 487.834 1206.42 487.413 1206.98 486.331C1207.55 485.249 1207.13 483.911 1206.05 483.344Z" fill="white"/>
</g>
<g style="mix-blend-mode:screen">
<path d="M1350.06 532.871C1349.84 532.871 1349.56 532.975 1349.41 533.258C1349.23 533.608 1349.37 534.048 1349.72 534.232C1349.82 534.289 1349.94 534.312 1350.05 534.312C1350.26 534.312 1350.54 534.209 1350.69 533.925C1350.81 533.708 1350.78 533.504 1350.74 533.377C1350.7 533.249 1350.6 533.069 1350.39 532.951C1350.28 532.895 1350.17 532.866 1350.06 532.866V532.871Z" fill="white"/>
</g>
<g style="mix-blend-mode:screen">
<path d="M1179.29 444.491C1178.3 443.976 1177.08 444.359 1176.57 445.342C1176.05 446.33 1176.44 447.545 1177.42 448.06C1178.4 448.575 1179.62 448.192 1180.14 447.209C1180.65 446.221 1180.27 445.006 1179.29 444.491Z" fill="white"/>
</g>
<g style="mix-blend-mode:screen">
<path d="M1126.11 475.111C1124.73 474.388 1123.03 474.922 1122.31 476.302C1121.58 477.682 1122.12 479.384 1123.5 480.107C1124.88 480.83 1126.58 480.296 1127.3 478.916C1128.03 477.536 1127.49 475.834 1126.11 475.111Z" fill="white"/>
</g>
<g style="mix-blend-mode:screen">
<path d="M1135.96 592.971C1135.24 592.592 1134.35 592.871 1133.97 593.595C1133.59 594.318 1133.87 595.211 1134.59 595.589C1135.32 595.967 1136.21 595.688 1136.59 594.965C1136.97 594.242 1136.69 593.349 1135.96 592.971Z" fill="white"/>
</g>
<g style="mix-blend-mode:screen">
<path d="M1273.55 487.364C1273.18 487.364 1272.7 487.543 1272.43 488.039C1272.22 488.441 1272.29 488.815 1272.35 488.999C1272.4 489.183 1272.56 489.528 1272.97 489.736C1273.15 489.831 1273.34 489.883 1273.55 489.883C1273.92 489.883 1274.4 489.703 1274.66 489.207C1274.88 488.805 1274.8 488.432 1274.75 488.247C1274.69 488.063 1274.53 487.718 1274.13 487.51C1273.94 487.416 1273.75 487.368 1273.55 487.368V487.364Z" fill="white"/>
</g>
<g style="mix-blend-mode:screen">
<path d="M1258.82 611.726C1258.42 611.518 1257.94 611.674 1257.73 612.067C1257.52 612.459 1257.68 612.946 1258.07 613.154C1258.46 613.362 1258.95 613.206 1259.16 612.813C1259.36 612.421 1259.21 611.934 1258.82 611.726Z" fill="white"/>
</g>
<g style="mix-blend-mode:screen">
<path d="M1276.03 540.577C1275.57 540.336 1275 540.515 1274.76 540.974C1274.52 541.432 1274.7 541.999 1275.16 542.24C1275.61 542.482 1276.18 542.302 1276.42 541.843C1276.66 541.385 1276.48 540.818 1276.03 540.577Z" fill="white"/>
</g>
<g style="mix-blend-mode:screen">
<path d="M1231.69 410.269C1230.41 409.598 1228.82 410.094 1228.16 411.375C1227.49 412.656 1227.98 414.24 1229.26 414.906C1230.54 415.572 1232.13 415.081 1232.79 413.8C1233.47 412.519 1232.97 410.936 1231.69 410.269Z" fill="white"/>
</g>
<g style="mix-blend-mode:screen">
<path d="M1206.84 572.605C1205.49 571.901 1203.83 572.421 1203.12 573.768C1202.42 575.115 1202.94 576.779 1204.28 577.483C1205.63 578.187 1207.3 577.667 1208 576.32C1208.7 574.973 1208.18 573.309 1206.84 572.605Z" fill="white"/>
</g>
<g style="mix-blend-mode:screen">
<path d="M1332.86 563.449C1332.2 563.104 1331.39 563.359 1331.05 564.016C1330.71 564.673 1330.96 565.486 1331.62 565.827C1332.28 566.172 1333.09 565.916 1333.43 565.259C1333.77 564.602 1333.52 563.789 1332.86 563.449Z" fill="white"/>
</g>
</g>
<g style="mix-blend-mode:screen">
<path d="M1095.38 561.903C1094.87 561.638 1094.24 561.837 1093.98 562.339C1093.71 562.849 1093.91 563.474 1094.41 563.736C1094.92 564.001 1095.55 563.802 1095.81 563.3C1096.08 562.79 1095.88 562.165 1095.38 561.903Z" fill="#191919"/>
<path d="M1095.38 561.903C1094.87 561.638 1094.24 561.837 1093.98 562.339C1093.71 562.849 1093.91 563.474 1094.41 563.736C1094.92 564.001 1095.55 563.802 1095.81 563.3C1096.08 562.79 1095.88 562.165 1095.38 561.903Z" stroke="black" stroke-width="1.41797"/>
</g>
<g style="mix-blend-mode:screen">
<path d="M1194.28 542.597L1194.43 542.551C1194.44 542.594 1194.44 542.642 1194.42 542.685L1194.27 542.61L1194.28 542.597ZM1194.28 542.597L1194.26 542.603L1194.26 542.605M1194.33 542.439C1194.31 542.428 1194.29 542.42 1194.26 542.42H1194.26C1194.25 542.42 1194.25 542.42 1194.25 542.42C1194.22 542.421 1194.14 542.434 1194.09 542.519L1194.25 542.6L1194.25 542.6L1194.33 542.439ZM1194.43 542.544C1194.42 542.513 1194.4 542.485 1194.37 542.463L1194.29 542.592L1194.43 542.544ZM1194.42 542.694C1194.42 542.693 1194.42 542.693 1194.42 542.692L1194.27 542.614L1194.27 542.616L1194.26 542.628L1194.26 542.635L1194.25 542.642L1194.21 542.699L1194.18 542.775C1194.2 542.786 1194.23 542.794 1194.25 542.794C1194.25 542.794 1194.25 542.794 1194.26 542.793C1194.26 542.793 1194.26 542.793 1194.26 542.793C1194.3 542.791 1194.37 542.776 1194.42 542.694Z" fill="#191919"/>
<path d="M1194.28 542.597L1194.43 542.551C1194.44 542.594 1194.44 542.642 1194.42 542.685L1194.27 542.61L1194.28 542.597ZM1194.28 542.597L1194.26 542.603L1194.26 542.605M1194.33 542.439C1194.31 542.428 1194.29 542.42 1194.26 542.42H1194.26C1194.25 542.42 1194.25 542.42 1194.25 542.42C1194.22 542.421 1194.14 542.434 1194.09 542.519L1194.25 542.6L1194.25 542.6L1194.33 542.439ZM1194.43 542.544C1194.42 542.513 1194.4 542.485 1194.37 542.463L1194.29 542.592L1194.43 542.544ZM1194.42 542.694C1194.42 542.693 1194.42 542.693 1194.42 542.692L1194.27 542.614L1194.27 542.616L1194.26 542.628L1194.26 542.635L1194.25 542.642L1194.21 542.699L1194.18 542.775C1194.2 542.786 1194.23 542.794 1194.25 542.794C1194.25 542.794 1194.25 542.794 1194.26 542.793C1194.26 542.793 1194.26 542.793 1194.26 542.793C1194.3 542.791 1194.37 542.776 1194.42 542.694Z" stroke="black" stroke-width="1.41797"/>
</g>
<g style="mix-blend-mode:screen">
<path d="M1036.17 488.981C1036.48 488.374 1036.25 487.63 1035.64 487.31C1035.04 486.996 1034.29 487.23 1033.97 487.833C1033.66 488.441 1033.89 489.186 1034.5 489.505C1035.1 489.821 1035.85 489.589 1036.17 488.981Z" fill="#191919"/>
<path d="M1036.17 488.981C1036.48 488.374 1036.25 487.63 1035.64 487.31C1035.04 486.996 1034.29 487.23 1033.97 487.833C1033.66 488.441 1033.89 489.186 1034.5 489.505C1035.1 489.821 1035.85 489.589 1036.17 488.981Z" stroke="black" stroke-width="1.41797"/>
</g>
<g style="mix-blend-mode:screen">
<path d="M1240.65 461.554C1240.47 461.554 1240.23 461.647 1240.1 461.886L1241.2 462.459C1241.3 462.262 1241.27 462.087 1241.24 461.985C1241.21 461.891 1241.13 461.729 1240.94 461.626C1240.84 461.575 1240.74 461.554 1240.65 461.554ZM1240.1 461.887C1240 462.083 1240.03 462.258 1240.06 462.36C1240.09 462.454 1240.17 462.616 1240.36 462.72C1240.46 462.771 1240.56 462.792 1240.65 462.792C1240.83 462.792 1241.07 462.699 1241.2 462.459L1240.1 461.887Z" fill="#191919"/>
<path d="M1240.65 461.554C1240.47 461.554 1240.23 461.647 1240.1 461.886L1241.2 462.459C1241.3 462.262 1241.27 462.087 1241.24 461.985C1241.21 461.891 1241.13 461.729 1240.94 461.626C1240.84 461.575 1240.74 461.554 1240.65 461.554ZM1240.1 461.887C1240 462.083 1240.03 462.258 1240.06 462.36C1240.09 462.454 1240.17 462.616 1240.36 462.72C1240.46 462.771 1240.56 462.792 1240.65 462.792C1240.83 462.792 1241.07 462.699 1241.2 462.459L1240.1 461.887Z" stroke="black" stroke-width="1.41797"/>
</g>
<g style="mix-blend-mode:screen">
<path d="M1268.49 571.463C1268.28 571.463 1268.02 571.566 1267.88 571.83C1267.76 572.048 1267.8 572.248 1267.83 572.35C1267.86 572.459 1267.95 572.64 1268.16 572.752C1268.28 572.81 1268.38 572.834 1268.48 572.834C1268.69 572.834 1268.95 572.731 1269.09 572.467C1269.21 572.249 1269.17 572.05 1269.14 571.948C1269.1 571.838 1269.02 571.658 1268.8 571.545C1268.69 571.487 1268.59 571.463 1268.49 571.463Z" fill="#191919"/>
<path d="M1268.49 571.463C1268.28 571.463 1268.02 571.566 1267.88 571.83C1267.76 572.048 1267.8 572.248 1267.83 572.35C1267.86 572.459 1267.95 572.64 1268.16 572.752C1268.28 572.81 1268.38 572.834 1268.48 572.834C1268.69 572.834 1268.95 572.731 1269.09 572.467C1269.21 572.249 1269.17 572.05 1269.14 571.948C1269.1 571.838 1269.02 571.658 1268.8 571.545C1268.69 571.487 1268.59 571.463 1268.49 571.463Z" stroke="black" stroke-width="1.41797"/>
</g>
<g style="mix-blend-mode:screen">
<path d="M1181.35 520.706L1181.35 520.706L1181.35 520.709C1181.28 520.837 1181.3 520.953 1181.32 521.022C1181.34 521.086 1181.4 521.198 1181.53 521.268L1181.53 521.268L1181.53 521.269C1181.59 521.299 1181.65 521.314 1181.71 521.314C1181.84 521.314 1182 521.25 1182.08 521.091L1182.08 521.091L1182.08 521.088C1182.15 520.96 1182.13 520.844 1182.11 520.776L1182.11 520.776C1182.09 520.711 1182.04 520.6 1181.91 520.53C1181.84 520.495 1181.78 520.483 1181.72 520.483C1181.59 520.483 1181.43 520.547 1181.35 520.706Z" fill="#191919"/>
<path d="M1181.35 520.706L1181.35 520.706L1181.35 520.709C1181.28 520.837 1181.3 520.953 1181.32 521.022C1181.34 521.086 1181.4 521.198 1181.53 521.268L1181.53 521.268L1181.53 521.269C1181.59 521.299 1181.65 521.314 1181.71 521.314C1181.84 521.314 1182 521.25 1182.08 521.091L1182.08 521.091L1182.08 521.088C1182.15 520.96 1182.13 520.844 1182.11 520.776L1182.11 520.776C1182.09 520.711 1182.04 520.6 1181.91 520.53C1181.84 520.495 1181.78 520.483 1181.72 520.483C1181.59 520.483 1181.43 520.547 1181.35 520.706Z" stroke="black" stroke-width="1.41797"/>
</g>
<g style="mix-blend-mode:screen">
<path d="M1309.35 464.38C1309.65 464.536 1309.77 464.909 1309.61 465.206L1309.61 465.208L1309.61 465.208C1309.48 465.448 1309.25 465.541 1309.06 465.541C1308.97 465.541 1308.88 465.52 1308.78 465.469C1308.58 465.368 1308.51 465.205 1308.48 465.107C1308.44 465.005 1308.42 464.831 1308.52 464.636L1309.35 464.38ZM1309.35 464.38C1309.25 464.329 1309.16 464.307 1309.07 464.307H1308.99C1308.82 464.329 1308.63 464.427 1308.52 464.636L1309.35 464.38Z" fill="#191919"/>
<path d="M1309.35 464.38C1309.65 464.536 1309.77 464.909 1309.61 465.206L1309.61 465.208L1309.61 465.208C1309.48 465.448 1309.25 465.541 1309.06 465.541C1308.97 465.541 1308.88 465.52 1308.78 465.469C1308.58 465.368 1308.51 465.205 1308.48 465.107C1308.44 465.005 1308.42 464.831 1308.52 464.636L1309.35 464.38ZM1309.35 464.38C1309.25 464.329 1309.16 464.307 1309.07 464.307H1308.99C1308.82 464.329 1308.63 464.427 1308.52 464.636L1309.35 464.38Z" stroke="black" stroke-width="1.41797"/>
</g>
<g style="mix-blend-mode:screen">
<path d="M1329.54 499.731L1329.54 499.731C1328.96 499.431 1328.26 499.655 1327.96 500.224L1327.96 500.225C1327.66 500.799 1327.88 501.505 1328.45 501.801L1328.45 501.801L1328.45 501.802C1329.03 502.102 1329.73 501.878 1330.03 501.309L1330.03 501.307C1330.33 500.733 1330.11 500.028 1329.54 499.731Z" fill="#191919"/>
<path d="M1329.54 499.731L1329.54 499.731C1328.96 499.431 1328.26 499.655 1327.96 500.224L1327.96 500.225C1327.66 500.799 1327.88 501.505 1328.45 501.801L1328.45 501.801L1328.45 501.802C1329.03 502.102 1329.73 501.878 1330.03 501.309L1330.03 501.307C1330.33 500.733 1330.11 500.028 1329.54 499.731Z" stroke="black" stroke-width="1.41797"/>
</g>
<g style="mix-blend-mode:screen">
<path d="M1223.41 506.133C1223.41 506.131 1223.41 506.131 1223.4 506.13C1223.4 506.13 1223.4 506.13 1223.39 506.132C1223.38 506.136 1223.37 506.142 1223.37 506.147C1223.37 506.15 1223.37 506.152 1223.37 506.155C1223.37 506.158 1223.37 506.162 1223.37 506.167C1223.37 506.178 1223.38 506.184 1223.39 506.187C1223.39 506.189 1223.39 506.189 1223.39 506.189C1223.4 506.19 1223.4 506.189 1223.41 506.188C1223.42 506.184 1223.42 506.178 1223.42 506.172C1223.43 506.17 1223.43 506.167 1223.43 506.165C1223.43 506.162 1223.43 506.158 1223.43 506.152C1223.42 506.142 1223.42 506.136 1223.41 506.133Z" fill="#191919"/>
<path d="M1223.41 506.133C1223.41 506.131 1223.41 506.131 1223.4 506.13C1223.4 506.13 1223.4 506.13 1223.39 506.132C1223.38 506.136 1223.37 506.142 1223.37 506.147C1223.37 506.15 1223.37 506.152 1223.37 506.155C1223.37 506.158 1223.37 506.162 1223.37 506.167C1223.37 506.178 1223.38 506.184 1223.39 506.187C1223.39 506.189 1223.39 506.189 1223.39 506.189C1223.4 506.19 1223.4 506.189 1223.41 506.188C1223.42 506.184 1223.42 506.178 1223.42 506.172C1223.43 506.17 1223.43 506.167 1223.43 506.165C1223.43 506.162 1223.43 506.158 1223.43 506.152C1223.42 506.142 1223.42 506.136 1223.41 506.133Z" stroke="black" stroke-width="1.41797"/>
</g>
<g style="mix-blend-mode:screen">
<path d="M1241.33 543.592C1240.85 543.343 1240.27 543.526 1240.02 544.001C1239.77 544.477 1239.96 545.06 1240.43 545.309C1240.91 545.557 1241.49 545.375 1241.74 544.899C1241.99 544.424 1241.8 543.841 1241.33 543.592Z" fill="#191919"/>
<path d="M1241.33 543.592C1240.85 543.343 1240.27 543.526 1240.02 544.001C1239.77 544.477 1239.96 545.06 1240.43 545.309C1240.91 545.557 1241.49 545.375 1241.74 544.899C1241.99 544.424 1241.8 543.841 1241.33 543.592Z" stroke="black" stroke-width="1.41797"/>
</g>
<g style="mix-blend-mode:screen">
<path d="M1140.79 534.364C1140.75 534.345 1140.69 534.355 1140.66 534.41C1140.64 534.448 1140.65 534.51 1140.71 534.539C1140.75 534.559 1140.81 534.548 1140.84 534.493C1140.86 534.456 1140.85 534.394 1140.79 534.364Z" fill="#191919"/>
<path d="M1140.79 534.364C1140.75 534.345 1140.69 534.355 1140.66 534.41C1140.64 534.448 1140.65 534.51 1140.71 534.539C1140.75 534.559 1140.81 534.548 1140.84 534.493C1140.86 534.456 1140.85 534.394 1140.79 534.364Z" stroke="black" stroke-width="1.41797"/>
</g>
<g style="mix-blend-mode:screen">
<path d="M1129.88 415.852C1129.37 415.588 1128.74 415.786 1128.48 416.288C1128.22 416.798 1128.42 417.423 1128.92 417.685C1129.43 417.95 1130.05 417.751 1130.32 417.249C1130.58 416.739 1130.38 416.114 1129.88 415.852Z" fill="#191919"/>
<path d="M1129.88 415.852C1129.37 415.588 1128.74 415.786 1128.48 416.288C1128.22 416.798 1128.42 417.423 1128.92 417.685C1129.43 417.95 1130.05 417.751 1130.32 417.249C1130.58 416.739 1130.38 416.114 1129.88 415.852Z" stroke="black" stroke-width="1.41797"/>
</g>
<g style="mix-blend-mode:screen">
<path d="M1205.72 483.972C1204.98 483.587 1204.07 483.872 1203.69 484.609C1203.3 485.343 1203.59 486.253 1204.33 486.639C1205.06 487.024 1205.97 486.739 1206.36 486.002C1206.74 485.268 1206.46 484.358 1205.72 483.972Z" fill="#191919"/>
<path d="M1205.72 483.972C1204.98 483.587 1204.07 483.872 1203.69 484.609C1203.3 485.343 1203.59 486.253 1204.33 486.639C1205.06 487.024 1205.97 486.739 1206.36 486.002C1206.74 485.268 1206.46 484.358 1205.72 483.972Z" stroke="black" stroke-width="1.41797"/>
</g>
<g style="mix-blend-mode:screen">
<path d="M1350.06 533.581C1350.06 533.581 1350.06 533.58 1350.06 533.58L1350.04 533.589C1350.04 533.589 1350.04 533.589 1350.04 533.589C1350.04 533.589 1350.04 533.589 1350.04 533.589C1350.04 533.589 1350.04 533.589 1350.04 533.589C1350.04 533.59 1350.04 533.592 1350.04 533.595C1350.04 533.597 1350.04 533.599 1350.04 533.601C1350.04 533.601 1350.05 533.602 1350.05 533.603L1350.05 533.603L1350.05 533.603C1350.05 533.603 1350.05 533.603 1350.05 533.604L1350.05 533.603C1350.06 533.602 1350.06 533.601 1350.06 533.599L1350.06 533.598L1350.06 533.598L1350.06 533.598L1350.06 533.598L1350.06 533.597C1350.06 533.597 1350.07 533.596 1350.07 533.595C1350.06 533.588 1350.06 533.585 1350.06 533.583C1350.06 533.582 1350.06 533.582 1350.06 533.581Z" fill="#191919"/>
<path d="M1350.06 533.581C1350.06 533.581 1350.06 533.58 1350.06 533.58L1350.04 533.589C1350.04 533.589 1350.04 533.589 1350.04 533.589C1350.04 533.589 1350.04 533.589 1350.04 533.589C1350.04 533.589 1350.04 533.589 1350.04 533.589C1350.04 533.59 1350.04 533.592 1350.04 533.595C1350.04 533.597 1350.04 533.599 1350.04 533.601C1350.04 533.601 1350.05 533.602 1350.05 533.603L1350.05 533.603L1350.05 533.603C1350.05 533.603 1350.05 533.603 1350.05 533.604L1350.05 533.603C1350.06 533.602 1350.06 533.601 1350.06 533.599L1350.06 533.598L1350.06 533.598L1350.06 533.598L1350.06 533.598L1350.06 533.597C1350.06 533.597 1350.07 533.596 1350.07 533.595C1350.06 533.588 1350.06 533.585 1350.06 533.583C1350.06 533.582 1350.06 533.582 1350.06 533.581Z" stroke="black" stroke-width="1.41797"/>
</g>
<g style="mix-blend-mode:screen">
<path d="M1178.96 445.119C1178.32 444.786 1177.53 445.034 1177.2 445.671C1176.86 446.311 1177.11 447.098 1177.75 447.432C1178.38 447.765 1179.17 447.518 1179.51 446.881C1179.84 446.24 1179.59 445.453 1178.96 445.119Z" fill="#191919"/>
<path d="M1178.96 445.119C1178.32 444.786 1177.53 445.034 1177.2 445.671C1176.86 446.311 1177.11 447.098 1177.75 447.432C1178.38 447.765 1179.17 447.518 1179.51 446.881C1179.84 446.24 1179.59 445.453 1178.96 445.119Z" stroke="black" stroke-width="1.41797"/>
</g>
<g style="mix-blend-mode:screen">
<path d="M1125.78 475.739C1124.75 475.198 1123.48 475.597 1122.93 476.631C1122.39 477.664 1122.79 478.937 1123.83 479.479C1124.86 480.02 1126.13 479.621 1126.67 478.587C1127.21 477.555 1126.82 476.281 1125.78 475.739Z" fill="#191919"/>
<path d="M1125.78 475.739C1124.75 475.198 1123.48 475.597 1122.93 476.631C1122.39 477.664 1122.79 478.937 1123.83 479.479C1124.86 480.02 1126.13 479.621 1126.67 478.587C1127.21 477.555 1126.82 476.281 1125.78 475.739Z" stroke="black" stroke-width="1.41797"/>
</g>
<g style="mix-blend-mode:screen">
<path d="M1135.63 593.599C1135.26 593.402 1134.79 593.548 1134.6 593.923C1134.4 594.3 1134.55 594.765 1134.92 594.961C1135.3 595.158 1135.76 595.012 1135.96 594.637C1136.16 594.26 1136.01 593.795 1135.63 593.599Z" fill="#191919"/>
<path d="M1135.63 593.599C1135.26 593.402 1134.79 593.548 1134.6 593.923C1134.4 594.3 1134.55 594.765 1134.92 594.961C1135.3 595.158 1135.76 595.012 1135.96 594.637C1136.16 594.26 1136.01 593.795 1135.63 593.599Z" stroke="black" stroke-width="1.41797"/>
</g>
<g style="mix-blend-mode:screen">
<path d="M1272.97 489.736C1273.15 489.831 1273.34 489.883 1273.55 489.883C1273.92 489.883 1274.4 489.703 1274.66 489.207C1274.88 488.805 1274.8 488.432 1274.75 488.247C1274.69 488.063 1274.53 487.718 1274.13 487.51C1273.94 487.416 1273.75 487.368 1273.55 487.368V488.073C1273.53 488.073 1273.51 488.074 1273.48 488.077M1272.97 489.736C1272.56 489.528 1272.4 489.183 1272.35 488.999C1272.29 488.815 1272.22 488.441 1272.43 488.039C1272.54 487.837 1272.68 487.688 1272.84 487.581V488.077H1273.48M1272.97 489.736L1273.29 489.107C1273.29 489.106 1273.29 489.106 1273.29 489.106M1272.97 489.736L1273.29 489.105C1273.29 489.106 1273.29 489.106 1273.29 489.106M1273.48 488.077C1273.33 488.098 1273.16 488.185 1273.06 488.372M1273.48 488.077H1273.55C1273.63 488.077 1273.72 488.096 1273.8 488.14M1273.06 488.372C1272.97 488.539 1273 488.696 1273.02 488.79C1273.05 488.869 1273.12 489.016 1273.29 489.106M1273.06 488.372C1273.06 488.372 1273.06 488.373 1273.06 488.373L1272.43 488.039L1273.06 488.371C1273.06 488.371 1273.06 488.372 1273.06 488.372ZM1273.8 488.14C1273.8 488.14 1273.8 488.14 1273.8 488.14L1274.13 487.51L1273.81 488.141C1273.8 488.141 1273.8 488.141 1273.8 488.14ZM1273.8 488.14C1273.98 488.23 1274.05 488.378 1274.07 488.456C1274.1 488.55 1274.12 488.707 1274.04 488.875L1274.03 488.878L1274.03 488.878C1273.92 489.09 1273.71 489.174 1273.55 489.174C1273.47 489.174 1273.39 489.155 1273.29 489.106" fill="#191919"/>
<path d="M1272.97 489.736C1273.15 489.831 1273.34 489.883 1273.55 489.883C1273.92 489.883 1274.4 489.703 1274.66 489.207C1274.88 488.805 1274.8 488.432 1274.75 488.247C1274.69 488.063 1274.53 487.718 1274.13 487.51C1273.94 487.416 1273.75 487.368 1273.55 487.368V488.073C1273.53 488.073 1273.51 488.074 1273.48 488.077M1272.97 489.736C1272.56 489.528 1272.4 489.183 1272.35 488.999C1272.29 488.815 1272.22 488.441 1272.43 488.039C1272.54 487.837 1272.68 487.688 1272.84 487.581V488.077H1273.48M1272.97 489.736L1273.29 489.107C1273.29 489.106 1273.29 489.106 1273.29 489.106M1272.97 489.736L1273.29 489.105C1273.29 489.106 1273.29 489.106 1273.29 489.106M1273.48 488.077C1273.33 488.098 1273.16 488.185 1273.06 488.372M1273.48 488.077H1273.55C1273.63 488.077 1273.72 488.096 1273.8 488.14M1273.06 488.372C1272.97 488.539 1273 488.696 1273.02 488.79C1273.05 488.869 1273.12 489.016 1273.29 489.106M1273.06 488.372C1273.06 488.372 1273.06 488.373 1273.06 488.373L1272.43 488.039L1273.06 488.371C1273.06 488.371 1273.06 488.372 1273.06 488.372ZM1273.8 488.14C1273.8 488.14 1273.8 488.14 1273.8 488.14L1274.13 487.51L1273.81 488.141C1273.8 488.141 1273.8 488.141 1273.8 488.14ZM1273.8 488.14C1273.98 488.23 1274.05 488.378 1274.07 488.456C1274.1 488.55 1274.12 488.707 1274.04 488.875L1274.03 488.878L1274.03 488.878C1273.92 489.09 1273.71 489.174 1273.55 489.174C1273.47 489.174 1273.39 489.155 1273.29 489.106" stroke="black" stroke-width="1.41797"/>
</g>
<g style="mix-blend-mode:screen">
<path d="M1258.48 612.353C1258.45 612.333 1258.38 612.343 1258.35 612.399C1258.33 612.436 1258.35 612.498 1258.4 612.527C1258.44 612.547 1258.5 612.537 1258.53 612.481C1258.55 612.444 1258.54 612.382 1258.48 612.353L1258.82 611.726L1258.48 612.353Z" fill="#191919"/>
<path d="M1258.48 612.353C1258.45 612.333 1258.38 612.343 1258.35 612.399C1258.33 612.436 1258.35 612.498 1258.4 612.527C1258.44 612.547 1258.5 612.537 1258.53 612.481C1258.55 612.444 1258.54 612.382 1258.48 612.353L1258.82 611.726L1258.48 612.353Z" stroke="black" stroke-width="1.41797"/>
</g>
<g style="mix-blend-mode:screen">
<path d="M1275.7 541.204C1275.59 541.147 1275.45 541.188 1275.39 541.304C1275.33 541.412 1275.37 541.552 1275.49 541.613C1275.59 541.67 1275.73 541.629 1275.79 541.513C1275.85 541.405 1275.81 541.265 1275.7 541.204Z" fill="#191919"/>
<path d="M1275.7 541.204C1275.59 541.147 1275.45 541.188 1275.39 541.304C1275.33 541.412 1275.37 541.552 1275.49 541.613C1275.59 541.67 1275.73 541.629 1275.79 541.513C1275.85 541.405 1275.81 541.265 1275.7 541.204Z" stroke="black" stroke-width="1.41797"/>
</g>
<g style="mix-blend-mode:screen">
<path d="M1231.36 410.898L1231.36 410.897C1230.43 410.408 1229.27 410.77 1228.79 411.703L1228.79 411.703L1228.79 411.704C1228.3 412.638 1228.66 413.792 1229.59 414.277C1230.53 414.765 1231.68 414.403 1232.17 413.473L1232.17 413.471C1232.66 412.537 1232.29 411.383 1231.36 410.898Z" fill="#191919"/>
<path d="M1231.36 410.898L1231.36 410.897C1230.43 410.408 1229.27 410.77 1228.79 411.703L1228.79 411.703L1228.79 411.704C1228.3 412.638 1228.66 413.792 1229.59 414.277C1230.53 414.765 1231.68 414.403 1232.17 413.473L1232.17 413.471C1232.66 412.537 1232.29 411.383 1231.36 410.898Z" stroke="black" stroke-width="1.41797"/>
</g>
<g style="mix-blend-mode:screen">
<path d="M1206.51 573.233C1205.51 572.71 1204.27 573.097 1203.75 574.096C1203.23 575.097 1203.61 576.332 1204.61 576.855C1205.61 577.378 1206.85 576.991 1207.37 575.992C1207.89 574.991 1207.51 573.756 1206.51 573.233Z" fill="#191919"/>
<path d="M1206.51 573.233C1205.51 572.71 1204.27 573.097 1203.75 574.096C1203.23 575.097 1203.61 576.332 1204.61 576.855C1205.61 577.378 1206.85 576.991 1207.37 575.992C1207.89 574.991 1207.51 573.756 1206.51 573.233Z" stroke="black" stroke-width="1.41797"/>
</g>
<g style="mix-blend-mode:screen">
<path d="M1332.54 564.079L1332.54 564.079L1332.53 564.077C1332.22 563.914 1331.84 564.036 1331.68 564.342L1331.68 564.342L1331.68 564.346C1331.52 564.656 1331.64 565.038 1331.94 565.197L1331.94 565.197L1331.95 565.199C1332.26 565.362 1332.64 565.24 1332.8 564.933L1332.8 564.933L1332.8 564.93C1332.96 564.62 1332.84 564.238 1332.54 564.079Z" fill="#191919"/>
<path d="M1332.54 564.079L1332.54 564.079L1332.53 564.077C1332.22 563.914 1331.84 564.036 1331.68 564.342L1331.68 564.342L1331.68 564.346C1331.52 564.656 1331.64 565.038 1331.94 565.197L1331.94 565.197L1331.95 565.199C1332.26 565.362 1332.64 565.24 1332.8 564.933L1332.8 564.933L1332.8 564.93C1332.96 564.62 1332.84 564.238 1332.54 564.079Z" stroke="black" stroke-width="1.41797"/>
</g>
<defs>
<filter id="filter0_f_3309_8512" x="0.671875" y="0.171997" width="1792.66" height="857.656" filterUnits="userSpaceOnUse" color-interpolation-filters="sRGB">
<feFlood flood-opacity="0" result="BackgroundImageFix"/>
<feBlend mode="normal" in="SourceGraphic" in2="BackgroundImageFix" result="shape"/>
<feGaussianBlur stdDeviation="118.164" result="effect1_foregroundBlur_3309_8512"/>
</filter>
<filter id="filter1_f_3309_8512" x="399.293" y="228.47" width="374.371" height="259.995" filterUnits="userSpaceOnUse" color-interpolation-filters="sRGB">
<feFlood flood-opacity="0" result="BackgroundImageFix"/>
<feBlend mode="normal" in="SourceGraphic" in2="BackgroundImageFix" result="shape"/>
<feGaussianBlur stdDeviation="14.1797" result="effect1_foregroundBlur_3309_8512"/>
</filter>
<filter id="filter2_f_3309_8512" x="1004.76" y="381.611" width="374.371" height="259.995" filterUnits="userSpaceOnUse" color-interpolation-filters="sRGB">
<feFlood flood-opacity="0" result="BackgroundImageFix"/>
<feBlend mode="normal" in="SourceGraphic" in2="BackgroundImageFix" result="shape"/>
<feGaussianBlur stdDeviation="14.1797" result="effect1_foregroundBlur_3309_8512"/>
</filter>
</defs>
</svg>
