<svg width="1458" height="742" viewBox="0 0 1458 742" fill="none" xmlns="http://www.w3.org/2000/svg">
<g filter="url(#filter0_f_3654_19701)">
<ellipse cx="729" cy="364" rx="489" ry="124" fill="#191919"/>
</g>
<path d="M1328.44 383.84C1328.44 407.672 1311.87 430.536 1281.52 451.462C1251.18 472.372 1207.25 491.233 1152.88 507.084C1044.17 538.785 893.94 558.402 727.969 558.402C561.997 558.402 411.767 538.785 303.053 507.084C248.691 491.233 204.753 472.372 174.422 451.462C144.069 430.536 127.5 407.672 127.5 383.84C127.5 360.008 144.069 337.144 174.422 316.218C204.753 295.308 248.691 276.447 303.053 260.595C411.767 228.895 561.997 209.277 727.969 209.277C893.94 209.277 1044.17 228.895 1152.88 260.595C1207.25 276.447 1251.18 295.308 1281.52 316.218C1311.87 337.144 1328.44 360.008 1328.44 383.84Z" stroke="#191919" stroke-width="1.5"/>
<path d="M1191.62 358.746C1191.62 376.153 1178.91 392.913 1155.47 408.295C1132.06 423.657 1098.14 437.52 1056.15 449.174C972.194 472.479 856.163 486.902 727.969 486.902C599.774 486.902 483.743 472.479 399.785 449.174C357.8 437.52 323.878 423.657 300.469 408.295C277.03 392.913 264.312 376.153 264.312 358.746C264.312 341.339 277.03 324.579 300.469 309.197C323.878 293.835 357.8 279.972 399.785 268.318C483.743 245.014 599.774 230.59 727.969 230.59C856.163 230.59 972.194 245.014 1056.15 268.318C1098.14 279.972 1132.06 293.835 1155.47 309.197C1178.91 324.579 1191.62 341.339 1191.62 358.746Z" stroke="#191919" stroke-width="1.5"/>
<path d="M1058.25 326.09C1058.25 331.123 1056.04 336.097 1051.71 340.972C1047.38 345.851 1040.96 350.594 1032.63 355.136C1015.96 364.218 991.798 372.422 961.875 379.32C902.04 393.114 819.341 401.652 727.969 401.652C636.596 401.652 553.898 393.114 494.063 379.32C464.139 372.422 439.975 364.218 423.311 355.136C414.978 350.594 408.555 345.851 404.224 340.972C399.897 336.097 397.688 331.123 397.688 326.09C397.688 321.057 399.897 316.083 404.224 311.208C408.555 306.329 414.978 301.586 423.311 297.044C439.975 287.961 464.139 279.758 494.063 272.86C553.898 259.066 636.596 250.527 727.969 250.527C819.341 250.527 902.04 259.066 961.875 272.86C991.798 279.758 1015.96 287.961 1032.63 297.044C1040.96 301.586 1047.38 306.329 1051.71 311.208C1056.04 316.083 1058.25 321.057 1058.25 326.09Z" stroke="#191919" stroke-width="1.5"/>
<g filter="url(#filter1_f_3654_19701)">
<g style="mix-blend-mode:screen">
<path d="M189.04 224.861C187.906 225.45 186.509 225.012 185.921 223.884C185.332 222.751 185.771 221.354 186.898 220.766C188.031 220.177 189.428 220.615 190.016 221.742C190.605 222.876 190.167 224.273 189.04 224.861Z" fill="white"/>
</g>
<g style="mix-blend-mode:screen">
<path d="M319.618 249.84C319.581 249.84 319.462 249.828 319.399 249.709C319.387 249.684 319.349 249.621 319.38 249.521C319.412 249.427 319.481 249.389 319.499 249.377C319.537 249.358 319.574 249.346 319.612 249.346C319.65 249.346 319.769 249.358 319.831 249.477C319.894 249.596 319.85 249.746 319.731 249.809C319.693 249.828 319.662 249.84 319.625 249.84H319.618Z" fill="white"/>
</g>
<g style="mix-blend-mode:screen">
<path d="M109.899 323.691C108.634 324.349 107.081 323.86 106.418 322.601C105.76 321.336 106.248 319.783 107.507 319.12C108.766 318.456 110.325 318.95 110.989 320.209C111.647 321.474 111.158 323.027 109.899 323.691Z" fill="white"/>
</g>
<g style="mix-blend-mode:screen">
<path d="M381.091 357.926C380.577 357.926 379.895 357.675 379.532 356.98C379.237 356.417 379.331 355.903 379.413 355.64C379.494 355.377 379.713 354.901 380.277 354.607C380.534 354.475 380.803 354.406 381.085 354.406C381.598 354.406 382.281 354.657 382.644 355.352C382.938 355.916 382.844 356.429 382.763 356.692C382.682 356.955 382.462 357.431 381.899 357.725C381.642 357.857 381.373 357.926 381.091 357.926Z" fill="white"/>
</g>
<g style="mix-blend-mode:screen">
<path d="M417.971 212.3C417.426 212.3 416.712 212.037 416.33 211.311C416.023 210.722 416.117 210.177 416.205 209.902C416.292 209.626 416.524 209.125 417.113 208.818C417.382 208.681 417.664 208.605 417.964 208.605C418.509 208.605 419.223 208.868 419.605 209.595C419.912 210.184 419.818 210.728 419.73 211.004C419.643 211.28 419.411 211.781 418.822 212.087C418.553 212.225 418.271 212.3 417.971 212.3Z" fill="white"/>
</g>
<g style="mix-blend-mode:screen">
<path d="M303.006 279.846C302.568 279.846 301.991 279.633 301.685 279.045C301.434 278.569 301.516 278.13 301.584 277.911C301.653 277.692 301.841 277.285 302.317 277.034C302.53 276.922 302.762 276.865 303 276.865C303.438 276.865 304.014 277.078 304.321 277.667C304.572 278.143 304.49 278.581 304.421 278.8C304.352 279.02 304.165 279.427 303.689 279.677C303.469 279.79 303.244 279.846 303.006 279.846Z" fill="white"/>
</g>
<g style="mix-blend-mode:screen">
<path d="M471.736 354.283C471.223 354.283 470.54 354.033 470.177 353.338C469.883 352.774 469.977 352.26 470.058 351.997C470.14 351.741 470.359 351.258 470.922 350.964C471.179 350.833 471.448 350.764 471.73 350.764C472.244 350.764 472.926 351.014 473.29 351.709C473.74 352.567 473.402 353.632 472.544 354.077C472.288 354.208 472.018 354.277 471.736 354.277V354.283Z" fill="white"/>
</g>
<g style="mix-blend-mode:screen">
<path d="M499.293 307.236C498.072 307.875 496.569 307.399 495.936 306.184C495.298 304.963 495.774 303.46 496.989 302.827C498.21 302.188 499.713 302.664 500.345 303.879C500.984 305.1 500.508 306.603 499.293 307.236Z" fill="white"/>
</g>
<g style="mix-blend-mode:screen">
<path d="M358.684 298.752C358.208 299.003 357.613 298.815 357.362 298.339C357.112 297.863 357.3 297.268 357.775 297.017C358.251 296.767 358.846 296.955 359.097 297.431C359.347 297.907 359.159 298.502 358.684 298.752Z" fill="white"/>
</g>
<g style="mix-blend-mode:screen">
<path d="M382.424 249.121C381.334 249.691 379.994 249.272 379.424 248.182C378.854 247.092 379.274 245.752 380.364 245.182C381.453 244.612 382.794 245.032 383.363 246.122C383.933 247.211 383.514 248.551 382.424 249.121Z" fill="white"/>
</g>
<g style="mix-blend-mode:screen">
<path d="M249.22 261.346C248.7 261.621 248.055 261.415 247.78 260.895C247.504 260.375 247.711 259.73 248.23 259.454C248.75 259.179 249.395 259.386 249.671 259.905C249.946 260.425 249.74 261.07 249.22 261.346Z" fill="white"/>
</g>
<g style="mix-blend-mode:screen">
<path d="M234.755 418.373C233.622 418.962 232.225 418.523 231.637 417.396C231.048 416.262 231.486 414.866 232.614 414.277C233.747 413.689 235.144 414.127 235.732 415.254C236.321 416.388 235.883 417.784 234.755 418.373Z" fill="white"/>
</g>
<g style="mix-blend-mode:screen">
<path d="M335.242 328.116C333.808 328.868 332.035 328.311 331.284 326.877C330.532 325.442 331.09 323.67 332.524 322.919C333.958 322.167 335.73 322.724 336.482 324.159C337.233 325.593 336.676 327.365 335.242 328.116Z" fill="white"/>
</g>
<g style="mix-blend-mode:screen">
<path d="M526.046 262.494C525.764 262.494 525.395 262.356 525.194 261.981C524.95 261.517 525.132 260.935 525.602 260.69C525.739 260.615 525.89 260.584 526.04 260.584C526.322 260.584 526.691 260.722 526.892 261.098C527.042 261.386 527.011 261.655 526.954 261.824C526.898 261.993 526.773 262.231 526.485 262.388C526.347 262.463 526.196 262.5 526.046 262.5V262.494Z" fill="white"/>
</g>
<g style="mix-blend-mode:screen">
<path d="M299.784 379.594C298.481 380.277 296.865 379.77 296.183 378.467C295.5 377.158 296.007 375.549 297.31 374.866C298.613 374.184 300.228 374.691 300.911 375.994C301.593 377.302 301.086 378.912 299.784 379.594Z" fill="white"/>
</g>
<g style="mix-blend-mode:screen">
<path d="M229.329 339.023C227.5 339.982 225.246 339.274 224.288 337.445C223.33 335.617 224.037 333.362 225.866 332.404C227.694 331.446 229.949 332.153 230.907 333.982C231.865 335.811 231.158 338.065 229.329 339.023Z" fill="white"/>
</g>
<g style="mix-blend-mode:screen">
<path d="M242.382 182.865C241.424 183.366 240.24 182.996 239.739 182.038C239.238 181.08 239.608 179.896 240.566 179.395C241.524 178.894 242.708 179.264 243.209 180.222C243.71 181.18 243.34 182.364 242.382 182.865Z" fill="white"/>
</g>
<g style="mix-blend-mode:screen">
<path d="M424.682 322.789C424.194 322.789 423.549 322.551 423.198 321.894C422.916 321.361 423.01 320.866 423.085 320.622C423.161 320.378 423.373 319.921 423.906 319.645C424.15 319.52 424.407 319.451 424.676 319.451C425.165 319.451 425.81 319.689 426.154 320.347C426.436 320.879 426.342 321.374 426.267 321.618C426.192 321.862 425.979 322.319 425.446 322.595C425.202 322.72 424.945 322.783 424.682 322.783V322.789Z" fill="white"/>
</g>
<g style="mix-blend-mode:screen">
<path d="M405.156 158.014C404.637 158.289 403.992 158.083 403.716 157.563C403.441 157.043 403.647 156.398 404.167 156.122C404.687 155.847 405.332 156.053 405.607 156.573C405.883 157.093 405.676 157.738 405.156 158.014Z" fill="white"/>
</g>
<g style="mix-blend-mode:screen">
<path d="M427.959 252.284C427.352 252.603 426.6 252.365 426.281 251.758C425.961 251.15 426.199 250.399 426.807 250.08C427.414 249.76 428.166 249.998 428.485 250.606C428.805 251.213 428.567 251.965 427.959 252.284Z" fill="white"/>
</g>
<g style="mix-blend-mode:screen">
<path d="M369.215 424.936C367.518 425.825 365.42 425.167 364.537 423.47C363.648 421.773 364.305 419.675 366.002 418.792C367.7 417.909 369.798 418.56 370.681 420.258C371.57 421.955 370.912 424.053 369.215 424.936Z" fill="white"/>
</g>
<g style="mix-blend-mode:screen">
<path d="M336.288 209.848C334.503 210.781 332.298 210.092 331.365 208.307C330.432 206.522 331.121 204.318 332.906 203.385C334.691 202.452 336.895 203.141 337.828 204.925C338.761 206.71 338.072 208.915 336.288 209.848Z" fill="white"/>
</g>
<g style="mix-blend-mode:screen">
<path d="M503.265 221.979C502.395 222.436 501.318 222.098 500.867 221.227C500.41 220.357 500.748 219.28 501.618 218.829C502.489 218.372 503.566 218.71 504.017 219.58C504.474 220.451 504.136 221.528 503.265 221.979Z" fill="white"/>
</g>
</g>
<g style="mix-blend-mode:screen">
<path d="M188.809 224.418C187.919 224.88 186.825 224.534 186.364 223.653C185.903 222.763 186.248 221.669 187.129 221.209C188.019 220.747 189.113 221.092 189.573 221.973C190.035 222.863 189.69 223.957 188.809 224.418Z" fill="#191919"/>
<path d="M188.809 224.418C187.919 224.88 186.825 224.534 186.364 223.653C185.903 222.763 186.248 221.669 187.129 221.209C188.019 220.747 189.113 221.092 189.573 221.973C190.035 222.863 189.69 223.957 188.809 224.418Z" stroke="black"/>
</g>
<g style="mix-blend-mode:screen">
<path d="M319.652 249.606L319.848 249.667C319.866 249.61 319.864 249.547 319.837 249.49L319.64 249.588L319.652 249.606ZM319.652 249.606L319.625 249.597L319.625 249.596M319.718 249.815C319.686 249.83 319.658 249.84 319.625 249.84H319.618C319.616 249.84 319.614 249.84 319.612 249.84C319.569 249.839 319.459 249.822 319.399 249.709L319.612 249.602L319.612 249.602L319.718 249.815ZM319.845 249.676C319.831 249.717 319.805 249.755 319.77 249.783L319.657 249.613L319.845 249.676ZM319.831 249.477C319.832 249.478 319.832 249.479 319.833 249.48L319.637 249.584L319.635 249.58L319.625 249.565L319.618 249.555L319.612 249.546L319.562 249.471L319.512 249.371C319.545 249.355 319.579 249.346 319.612 249.346C319.614 249.346 319.616 249.346 319.618 249.346C319.62 249.346 319.622 249.346 319.625 249.346C319.671 249.349 319.774 249.369 319.831 249.477Z" fill="#191919"/>
<path d="M319.652 249.606L319.848 249.667C319.866 249.61 319.864 249.547 319.837 249.49L319.64 249.588L319.652 249.606ZM319.652 249.606L319.625 249.597L319.625 249.596M319.718 249.815C319.686 249.83 319.658 249.84 319.625 249.84H319.618C319.616 249.84 319.614 249.84 319.612 249.84C319.569 249.839 319.459 249.822 319.399 249.709L319.612 249.602L319.612 249.602L319.718 249.815ZM319.845 249.676C319.831 249.717 319.805 249.755 319.77 249.783L319.657 249.613L319.845 249.676ZM319.831 249.477C319.832 249.478 319.832 249.479 319.833 249.48L319.637 249.584L319.635 249.58L319.625 249.565L319.618 249.555L319.612 249.546L319.562 249.471L319.512 249.371C319.545 249.355 319.579 249.346 319.612 249.346C319.614 249.346 319.616 249.346 319.618 249.346C319.62 249.346 319.622 249.346 319.625 249.346C319.671 249.349 319.774 249.369 319.831 249.477Z" stroke="black"/>
</g>
<g style="mix-blend-mode:screen">
<path d="M110.546 320.441C111.075 321.461 110.682 322.712 109.668 323.248C108.648 323.777 107.397 323.384 106.86 322.37C106.331 321.349 106.725 320.097 107.74 319.562C108.751 319.029 110.009 319.424 110.546 320.441Z" fill="#191919"/>
<path d="M110.546 320.441C111.075 321.461 110.682 322.712 109.668 323.248C108.648 323.777 107.397 323.384 106.86 322.37C106.331 321.349 106.725 320.097 107.74 319.562C108.751 319.029 110.009 319.424 110.546 320.441Z" stroke="black"/>
</g>
<g style="mix-blend-mode:screen">
<path d="M381.091 357.426C380.719 357.426 380.233 357.243 379.975 356.749L382.201 355.583C382.411 355.986 382.346 356.349 382.285 356.544L382.763 356.692L382.285 356.544C382.227 356.734 382.071 357.071 381.669 357.281C381.478 357.379 381.287 357.426 381.091 357.426ZM379.975 356.749C379.765 356.347 379.83 355.983 379.89 355.788C379.949 355.598 380.105 355.261 380.507 355.051C380.697 354.953 380.888 354.906 381.085 354.906C381.456 354.906 381.943 355.089 382.201 355.583L379.975 356.749Z" fill="#191919"/>
<path d="M381.091 357.426C380.719 357.426 380.233 357.243 379.975 356.749L382.201 355.583C382.411 355.986 382.346 356.349 382.285 356.544L382.763 356.692L382.285 356.544C382.227 356.734 382.071 357.071 381.669 357.281C381.478 357.379 381.287 357.426 381.091 357.426ZM379.975 356.749C379.765 356.347 379.83 355.983 379.89 355.788C379.949 355.598 380.105 355.261 380.507 355.051C380.697 354.953 380.888 354.906 381.085 354.906C381.456 354.906 381.943 355.089 382.201 355.583L379.975 356.749Z" stroke="black"/>
</g>
<g style="mix-blend-mode:screen">
<path d="M417.971 211.8C417.567 211.8 417.05 211.605 416.773 211.079C416.55 210.65 416.617 210.254 416.681 210.053C416.747 209.847 416.916 209.486 417.342 209.263C417.548 209.158 417.752 209.105 417.964 209.105C418.368 209.105 418.885 209.301 419.162 209.827C419.386 210.256 419.318 210.652 419.254 210.852C419.188 211.058 419.019 211.42 418.593 211.643C418.387 211.748 418.183 211.8 417.971 211.8Z" fill="#191919"/>
<path d="M417.971 211.8C417.567 211.8 417.05 211.605 416.773 211.079C416.55 210.65 416.617 210.254 416.681 210.053C416.747 209.847 416.916 209.486 417.342 209.263C417.548 209.158 417.752 209.105 417.964 209.105C418.368 209.105 418.885 209.301 419.162 209.827C419.386 210.256 419.318 210.652 419.254 210.852C419.188 211.058 419.019 211.42 418.593 211.643C418.387 211.748 418.183 211.8 417.971 211.8Z" stroke="black"/>
</g>
<g style="mix-blend-mode:screen">
<path d="M302.128 278.813L302.128 278.813L302.127 278.812C301.962 278.499 302.014 278.212 302.061 278.061C302.108 277.913 302.233 277.643 302.55 277.477L302.55 277.477L302.551 277.476C302.691 277.402 302.842 277.365 303 277.365C303.296 277.365 303.676 277.51 303.878 277.898L303.878 277.898L303.879 277.9C304.043 278.213 303.992 278.5 303.944 278.65C303.898 278.798 303.773 279.067 303.458 279.234C303.307 279.311 303.16 279.346 303.006 279.346C302.71 279.346 302.33 279.201 302.128 278.813Z" fill="#191919"/>
<path d="M302.128 278.813L302.128 278.813L302.127 278.812C301.962 278.499 302.014 278.212 302.061 278.061C302.108 277.913 302.233 277.643 302.55 277.477L302.55 277.477L302.551 277.476C302.691 277.402 302.842 277.365 303 277.365C303.296 277.365 303.676 277.51 303.878 277.898L303.878 277.898L303.879 277.9C304.043 278.213 303.992 278.5 303.944 278.65C303.898 278.798 303.773 279.067 303.458 279.234C303.307 279.311 303.16 279.346 303.006 279.346C302.71 279.346 302.33 279.201 302.128 278.813Z" stroke="black"/>
</g>
<g style="mix-blend-mode:screen">
<path d="M472.847 351.942L472.846 351.941C472.588 351.447 472.102 351.264 471.73 351.264C471.534 351.264 471.343 351.311 471.152 351.408C470.753 351.617 470.596 351.958 470.535 352.147C470.475 352.342 470.411 352.705 470.62 353.106L472.847 351.942ZM472.847 351.942C473.168 352.553 472.928 353.314 472.315 353.632C472.124 353.73 471.933 353.777 471.736 353.777H471.615M472.847 351.942L471.615 353.777M471.615 353.777C471.265 353.741 470.851 353.548 470.62 353.106L471.615 353.777Z" fill="#191919"/>
<path d="M472.847 351.942L472.846 351.941C472.588 351.447 472.102 351.264 471.73 351.264C471.534 351.264 471.343 351.311 471.152 351.408C470.753 351.617 470.596 351.958 470.535 352.147C470.475 352.342 470.411 352.705 470.62 353.106L472.847 351.942ZM472.847 351.942C473.168 352.553 472.928 353.314 472.315 353.632C472.124 353.73 471.933 353.777 471.736 353.777H471.615M472.847 351.942L471.615 353.777M471.615 353.777C471.265 353.741 470.851 353.548 470.62 353.106L471.615 353.777Z" stroke="black"/>
</g>
<g style="mix-blend-mode:screen">
<path d="M499.062 306.792L499.061 306.793C498.085 307.303 496.885 306.923 496.38 305.953L496.379 305.952C495.869 304.976 496.25 303.775 497.219 303.271L497.219 303.271L497.22 303.27C498.196 302.76 499.397 303.14 499.902 304.11L499.902 304.111C500.413 305.087 500.032 306.287 499.062 306.792Z" fill="#191919"/>
<path d="M499.062 306.792L499.061 306.793C498.085 307.303 496.885 306.923 496.38 305.953L496.379 305.952C495.869 304.976 496.25 303.775 497.219 303.271L497.219 303.271L497.22 303.27C498.196 302.76 499.397 303.14 499.902 304.11L499.902 304.111C500.413 305.087 500.032 306.287 499.062 306.792Z" stroke="black"/>
</g>
<g style="mix-blend-mode:screen">
<path d="M358.451 298.31C358.222 298.43 357.928 298.34 357.805 298.106C357.684 297.877 357.774 297.583 358.008 297.46C358.237 297.339 358.531 297.429 358.654 297.664C358.775 297.893 358.685 298.186 358.451 298.31Z" fill="#191919"/>
<path d="M358.451 298.31C358.222 298.43 357.928 298.34 357.805 298.106C357.684 297.877 357.774 297.583 358.008 297.46C358.237 297.339 358.531 297.429 358.654 297.664C358.775 297.893 358.685 298.186 358.451 298.31Z" stroke="black"/>
</g>
<g style="mix-blend-mode:screen">
<path d="M382.192 248.678C381.347 249.12 380.309 248.795 379.867 247.95C379.425 247.105 379.75 246.067 380.595 245.625C381.44 245.183 382.478 245.508 382.92 246.353C383.362 247.198 383.037 248.236 382.192 248.678Z" fill="#191919"/>
<path d="M382.192 248.678C381.347 249.12 380.309 248.795 379.867 247.95C379.425 247.105 379.75 246.067 380.595 245.625C381.44 245.183 382.478 245.508 382.92 246.353C383.362 247.198 383.037 248.236 382.192 248.678Z" stroke="black"/>
</g>
<g style="mix-blend-mode:screen">
<path d="M248.986 260.904C248.716 261.047 248.371 260.943 248.221 260.661C248.078 260.391 248.183 260.046 248.465 259.896C248.734 259.753 249.08 259.857 249.229 260.139C249.372 260.409 249.268 260.754 248.986 260.904Z" fill="#191919"/>
<path d="M248.986 260.904C248.716 261.047 248.371 260.943 248.221 260.661C248.078 260.391 248.183 260.046 248.465 259.896C248.734 259.753 249.08 259.857 249.229 260.139C249.372 260.409 249.268 260.754 248.986 260.904Z" stroke="black"/>
</g>
<g style="mix-blend-mode:screen">
<path d="M234.524 417.929C233.635 418.391 232.541 418.046 232.08 417.165C231.618 416.275 231.963 415.181 232.845 414.721C233.734 414.259 234.828 414.604 235.289 415.485C235.751 416.375 235.405 417.469 234.524 417.929Z" fill="#191919"/>
<path d="M234.524 417.929C233.635 418.391 232.541 418.046 232.08 417.165C231.618 416.275 231.963 415.181 232.845 414.721C233.734 414.259 234.828 414.604 235.289 415.485C235.751 416.375 235.405 417.469 234.524 417.929Z" stroke="black"/>
</g>
<g style="mix-blend-mode:screen">
<path d="M335.01 327.674C333.821 328.296 332.351 327.835 331.727 326.644C331.104 325.456 331.565 323.985 332.756 323.362C333.944 322.739 335.415 323.2 336.039 324.391C336.662 325.579 336.2 327.05 335.01 327.674Z" fill="#191919"/>
<path d="M335.01 327.674C333.821 328.296 332.351 327.835 331.727 326.644C331.104 325.456 331.565 323.985 332.756 323.362C333.944 322.739 335.415 323.2 336.039 324.391C336.662 325.579 336.2 327.05 335.01 327.674Z" stroke="black"/>
</g>
<g style="mix-blend-mode:screen">
<path d="M526.245 261.949C526.203 261.971 526.16 261.986 526.117 261.994H526.046C525.908 261.994 525.732 261.925 525.636 261.746C525.523 261.53 525.608 261.251 525.832 261.134L525.832 261.134L525.841 261.129C525.894 261.101 525.959 261.084 526.04 261.084C526.177 261.084 526.353 261.153 526.449 261.331C526.521 261.469 526.505 261.591 526.48 261.666C526.449 261.758 526.388 261.871 526.246 261.948L526.245 261.949Z" fill="#191919"/>
<path d="M526.245 261.949C526.203 261.971 526.16 261.986 526.117 261.994H526.046C525.908 261.994 525.732 261.925 525.636 261.746C525.523 261.53 525.608 261.251 525.832 261.134L525.832 261.134L525.841 261.129C525.894 261.101 525.959 261.084 526.04 261.084C526.177 261.084 526.353 261.153 526.449 261.331C526.521 261.469 526.505 261.591 526.48 261.666C526.449 261.758 526.388 261.871 526.246 261.948L526.245 261.949Z" stroke="black"/>
</g>
<g style="mix-blend-mode:screen">
<path d="M299.552 379.152C298.494 379.706 297.181 379.294 296.626 378.236C296.071 377.171 296.484 375.864 297.542 375.309C298.599 374.755 299.913 375.167 300.468 376.225C301.022 377.289 300.61 378.597 299.552 379.152Z" fill="#191919"/>
<path d="M299.552 379.152C298.494 379.706 297.181 379.294 296.626 378.236C296.071 377.171 296.484 375.864 297.542 375.309C298.599 374.755 299.913 375.167 300.468 376.225C301.022 377.289 300.61 378.597 299.552 379.152Z" stroke="black"/>
</g>
<g style="mix-blend-mode:screen">
<path d="M229.097 338.58C227.514 339.41 225.561 338.798 224.731 337.213C223.901 335.63 224.513 333.677 226.098 332.847C227.681 332.017 229.634 332.629 230.464 334.214C231.294 335.797 230.682 337.75 229.097 338.58Z" fill="#191919"/>
<path d="M229.097 338.58C227.514 339.41 225.561 338.798 224.731 337.213C223.901 335.63 224.513 333.677 226.098 332.847C227.681 332.017 229.634 332.629 230.464 334.214C231.294 335.797 230.682 337.75 229.097 338.58Z" stroke="black"/>
</g>
<g style="mix-blend-mode:screen">
<path d="M242.15 182.422C241.436 182.795 240.555 182.519 240.182 181.806C239.809 181.092 240.085 180.211 240.797 179.838C241.511 179.465 242.393 179.741 242.765 180.454C243.139 181.168 242.863 182.049 242.15 182.422Z" fill="#191919"/>
<path d="M242.15 182.422C241.436 182.795 240.555 182.519 240.182 181.806C239.809 181.092 240.085 180.211 240.797 179.838C241.511 179.465 242.393 179.741 242.765 180.454C243.139 181.168 242.863 182.049 242.15 182.422Z" stroke="black"/>
</g>
<g style="mix-blend-mode:screen">
<path d="M425.711 320.579L425.711 320.579L425.712 320.581C425.907 320.948 425.845 321.29 425.789 321.471C425.737 321.64 425.588 321.958 425.217 322.15C425.042 322.24 424.863 322.283 424.682 322.283H424.565C424.241 322.248 423.859 322.069 423.64 321.659C423.446 321.292 423.508 320.95 423.563 320.769C423.615 320.6 423.764 320.282 424.135 320.09C424.317 319.997 424.496 319.951 424.676 319.951C425.022 319.951 425.472 320.121 425.711 320.579ZM426.267 321.618C426.192 321.862 425.979 322.319 425.446 322.595L424.182 322.711C423.813 322.595 423.437 322.342 423.198 321.894C422.916 321.361 423.01 320.866 423.085 320.622C423.161 320.378 423.373 319.921 423.906 319.645C424.15 319.52 424.407 319.451 424.676 319.451C425.165 319.451 425.81 319.689 426.154 320.347C426.436 320.879 426.342 321.374 426.267 321.618Z" fill="#191919"/>
<path d="M425.711 320.579L425.711 320.579L425.712 320.581C425.907 320.948 425.845 321.29 425.789 321.471C425.737 321.64 425.588 321.958 425.217 322.15C425.042 322.24 424.863 322.283 424.682 322.283H424.565C424.241 322.248 423.859 322.069 423.64 321.659C423.446 321.292 423.508 320.95 423.563 320.769C423.615 320.6 423.764 320.282 424.135 320.09C424.317 319.997 424.496 319.951 424.676 319.951C425.022 319.951 425.472 320.121 425.711 320.579ZM426.267 321.618C426.192 321.862 425.979 322.319 425.446 322.595L424.182 322.711C423.813 322.595 423.437 322.342 423.198 321.894C422.916 321.361 423.01 320.866 423.085 320.622C423.161 320.378 423.373 319.921 423.906 319.645C424.15 319.52 424.407 319.451 424.676 319.451C425.165 319.451 425.81 319.689 426.154 320.347C426.436 320.879 426.342 321.374 426.267 321.618Z" stroke="black"/>
</g>
<g style="mix-blend-mode:screen">
<path d="M404.922 157.572C404.653 157.715 404.307 157.611 404.158 157.329C404.015 157.059 404.119 156.714 404.401 156.564C404.671 156.421 405.016 156.525 405.166 156.807C405.309 157.077 405.204 157.422 404.922 157.572Z" fill="#191919"/>
<path d="M404.922 157.572C404.653 157.715 404.307 157.611 404.158 157.329C404.015 157.059 404.119 156.714 404.401 156.564C404.671 156.421 405.016 156.525 405.166 156.807C405.309 157.077 405.204 157.422 404.922 157.572Z" stroke="black"/>
</g>
<g style="mix-blend-mode:screen">
<path d="M427.726 251.841C427.366 252.031 426.916 251.891 426.723 251.525C426.534 251.165 426.674 250.714 427.039 250.522C427.4 250.333 427.85 250.472 428.043 250.838C428.232 251.199 428.092 251.649 427.726 251.841Z" fill="#191919"/>
<path d="M427.726 251.841C427.366 252.031 426.916 251.891 426.723 251.525C426.534 251.165 426.674 250.714 427.039 250.522C427.4 250.333 427.85 250.472 428.043 250.838C428.232 251.199 428.092 251.649 427.726 251.841Z" stroke="black"/>
</g>
<g style="mix-blend-mode:screen">
<path d="M368.984 424.492L368.983 424.493C367.531 425.254 365.736 424.691 364.981 423.239L364.98 423.238C364.219 421.786 364.782 419.991 366.233 419.236C367.688 418.479 369.483 419.039 370.237 420.488L370.238 420.49C370.999 421.942 370.436 423.737 368.984 424.492Z" fill="#191919"/>
<path d="M368.984 424.492L368.983 424.493C367.531 425.254 365.736 424.691 364.981 423.239L364.98 423.238C364.219 421.786 364.782 419.991 366.233 419.236C367.688 418.479 369.483 419.039 370.237 420.488L370.238 420.49C370.999 421.942 370.436 423.737 368.984 424.492Z" stroke="black"/>
</g>
<g style="mix-blend-mode:screen">
<path d="M336.056 209.405C334.515 210.21 332.613 209.615 331.808 208.076C331.003 206.535 331.598 204.633 333.138 203.828C334.678 203.023 336.58 203.617 337.385 205.157C338.191 206.698 337.596 208.6 336.056 209.405Z" fill="#191919"/>
<path d="M336.056 209.405C334.515 210.21 332.613 209.615 331.808 208.076C331.003 206.535 331.598 204.633 333.138 203.828C334.678 203.023 336.58 203.617 337.385 205.157C338.191 206.698 337.596 208.6 336.056 209.405Z" stroke="black"/>
</g>
<g style="mix-blend-mode:screen">
<path d="M503.035 221.535L503.035 221.535L503.033 221.536C502.407 221.865 501.634 221.621 501.311 220.997L501.311 220.997L501.31 220.995C500.981 220.369 501.225 219.596 501.848 219.273L501.848 219.273L501.851 219.271C502.477 218.943 503.25 219.187 503.573 219.81L503.573 219.81L503.574 219.813C503.903 220.439 503.659 221.212 503.035 221.535Z" fill="#191919"/>
<path d="M503.035 221.535L503.035 221.535L503.033 221.536C502.407 221.865 501.634 221.621 501.311 220.997L501.311 220.997L501.31 220.995C500.981 220.369 501.225 219.596 501.848 219.273L501.848 219.273L501.851 219.271C502.477 218.943 503.25 219.187 503.573 219.81L503.573 219.81L503.574 219.813C503.903 220.439 503.659 221.212 503.035 221.535Z" stroke="black"/>
</g>
<g filter="url(#filter2_f_3654_19701)">
<g style="mix-blend-mode:screen">
<path d="M991.266 559.367C990.133 558.778 988.736 559.217 988.147 560.344C987.559 561.478 987.997 562.874 989.124 563.463C990.258 564.051 991.654 563.613 992.243 562.486C992.832 561.352 992.393 559.956 991.266 559.367Z" fill="white"/>
</g>
<g style="mix-blend-mode:screen">
<path d="M1121.84 534.388C1121.81 534.388 1121.69 534.4 1121.63 534.519C1121.61 534.544 1121.58 534.607 1121.61 534.707C1121.64 534.801 1121.71 534.839 1121.73 534.851C1121.76 534.87 1121.8 534.883 1121.84 534.883C1121.88 534.883 1122 534.87 1122.06 534.751C1122.12 534.632 1122.08 534.482 1121.96 534.419C1121.92 534.4 1121.89 534.388 1121.85 534.388H1121.84Z" fill="white"/>
</g>
<g style="mix-blend-mode:screen">
<path d="M912.126 460.537C910.861 459.88 909.308 460.368 908.644 461.627C907.987 462.892 908.475 464.445 909.734 465.109C910.993 465.773 912.552 465.278 913.216 464.019C913.873 462.754 913.385 461.201 912.126 460.537Z" fill="white"/>
</g>
<g style="mix-blend-mode:screen">
<path d="M1183.32 426.303C1182.8 426.303 1182.12 426.553 1181.76 427.248C1181.46 427.812 1181.56 428.325 1181.64 428.588C1181.72 428.851 1181.94 429.327 1182.5 429.622C1182.76 429.753 1183.03 429.822 1183.31 429.822C1183.82 429.822 1184.51 429.572 1184.87 428.876C1185.16 428.313 1185.07 427.799 1184.99 427.536C1184.91 427.273 1184.69 426.797 1184.13 426.503C1183.87 426.371 1183.6 426.303 1183.32 426.303Z" fill="white"/>
</g>
<g style="mix-blend-mode:screen">
<path d="M1220.2 571.928C1219.65 571.928 1218.94 572.191 1218.56 572.917C1218.25 573.506 1218.34 574.051 1218.43 574.326C1218.52 574.602 1218.75 575.103 1219.34 575.41C1219.61 575.548 1219.89 575.623 1220.19 575.623C1220.74 575.623 1221.45 575.36 1221.83 574.633C1222.14 574.045 1222.04 573.5 1221.96 573.224C1221.87 572.949 1221.64 572.448 1221.05 572.141C1220.78 572.003 1220.5 571.928 1220.2 571.928Z" fill="white"/>
</g>
<g style="mix-blend-mode:screen">
<path d="M1105.23 504.382C1104.79 504.382 1104.22 504.595 1103.91 505.184C1103.66 505.66 1103.74 506.098 1103.81 506.317C1103.88 506.536 1104.07 506.943 1104.54 507.194C1104.76 507.307 1104.99 507.363 1105.23 507.363C1105.66 507.363 1106.24 507.15 1106.55 506.561C1106.8 506.085 1106.72 505.647 1106.65 505.428C1106.58 505.209 1106.39 504.802 1105.92 504.551C1105.7 504.438 1105.47 504.382 1105.23 504.382Z" fill="white"/>
</g>
<g style="mix-blend-mode:screen">
<path d="M1273.96 429.945C1273.45 429.945 1272.77 430.196 1272.4 430.891C1272.11 431.454 1272.2 431.968 1272.28 432.231C1272.37 432.488 1272.59 432.97 1273.15 433.264C1273.41 433.396 1273.67 433.465 1273.96 433.465C1274.47 433.465 1275.15 433.214 1275.52 432.519C1275.97 431.661 1275.63 430.596 1274.77 430.152C1274.51 430.02 1274.24 429.951 1273.96 429.951V429.945Z" fill="white"/>
</g>
<g style="mix-blend-mode:screen">
<path d="M1301.52 476.992C1300.3 476.354 1298.8 476.83 1298.16 478.045C1297.52 479.266 1298 480.769 1299.22 481.401C1300.44 482.04 1301.94 481.564 1302.57 480.349C1303.21 479.128 1302.73 477.625 1301.52 476.992Z" fill="white"/>
</g>
<g style="mix-blend-mode:screen">
<path d="M1160.91 485.476C1160.43 485.226 1159.84 485.414 1159.59 485.889C1159.34 486.365 1159.53 486.96 1160 487.211C1160.48 487.461 1161.07 487.274 1161.32 486.798C1161.57 486.322 1161.39 485.727 1160.91 485.476Z" fill="white"/>
</g>
<g style="mix-blend-mode:screen">
<path d="M1184.65 535.107C1183.56 534.537 1182.22 534.957 1181.65 536.046C1181.08 537.136 1181.5 538.476 1182.59 539.046C1183.68 539.616 1185.02 539.196 1185.59 538.107C1186.16 537.017 1185.74 535.677 1184.65 535.107Z" fill="white"/>
</g>
<g style="mix-blend-mode:screen">
<path d="M1051.45 522.883C1050.93 522.607 1050.28 522.814 1050.01 523.333C1049.73 523.853 1049.94 524.498 1050.46 524.774C1050.98 525.049 1051.62 524.843 1051.9 524.323C1052.17 523.803 1051.97 523.158 1051.45 522.883Z" fill="white"/>
</g>
<g style="mix-blend-mode:screen">
<path d="M1036.98 365.856C1035.85 365.267 1034.45 365.705 1033.86 366.833C1033.27 367.966 1033.71 369.363 1034.84 369.951C1035.97 370.54 1037.37 370.102 1037.96 368.974C1038.55 367.841 1038.11 366.444 1036.98 365.856Z" fill="white"/>
</g>
<g style="mix-blend-mode:screen">
<path d="M1137.47 456.112C1136.03 455.36 1134.26 455.918 1133.51 457.352C1132.76 458.786 1133.32 460.558 1134.75 461.31C1136.18 462.061 1137.96 461.504 1138.71 460.07C1139.46 458.636 1138.9 456.863 1137.47 456.112Z" fill="white"/>
</g>
<g style="mix-blend-mode:screen">
<path d="M1328.27 521.734C1327.99 521.734 1327.62 521.872 1327.42 522.248C1327.18 522.711 1327.36 523.294 1327.83 523.538C1327.97 523.613 1328.12 523.644 1328.27 523.644C1328.55 523.644 1328.92 523.507 1329.12 523.131C1329.27 522.843 1329.24 522.573 1329.18 522.404C1329.12 522.235 1329 521.997 1328.71 521.841C1328.57 521.766 1328.42 521.728 1328.27 521.728V521.734Z" fill="white"/>
</g>
<g style="mix-blend-mode:screen">
<path d="M1102.01 404.634C1100.71 403.951 1099.09 404.458 1098.41 405.761C1097.73 407.07 1098.23 408.679 1099.54 409.362C1100.84 410.045 1102.45 409.537 1103.14 408.235C1103.82 406.926 1103.31 405.316 1102.01 404.634Z" fill="white"/>
</g>
<g style="mix-blend-mode:screen">
<path d="M1031.56 445.205C1029.73 444.247 1027.47 444.954 1026.51 446.783C1025.56 448.612 1026.26 450.866 1028.09 451.824C1029.92 452.783 1032.18 452.075 1033.13 450.246C1034.09 448.418 1033.38 446.163 1031.56 445.205Z" fill="white"/>
</g>
<g style="mix-blend-mode:screen">
<path d="M1044.61 601.363C1043.65 600.862 1042.47 601.232 1041.97 602.19C1041.46 603.148 1041.83 604.332 1042.79 604.833C1043.75 605.334 1044.93 604.964 1045.44 604.006C1045.94 603.048 1045.57 601.864 1044.61 601.363Z" fill="white"/>
</g>
<g style="mix-blend-mode:screen">
<path d="M1226.91 461.439C1226.42 461.439 1225.78 461.677 1225.42 462.335C1225.14 462.867 1225.24 463.362 1225.31 463.606C1225.39 463.85 1225.6 464.307 1226.13 464.583C1226.38 464.708 1226.63 464.777 1226.9 464.777C1227.39 464.777 1228.04 464.539 1228.38 463.882C1228.66 463.349 1228.57 462.855 1228.49 462.61C1228.42 462.366 1228.21 461.909 1227.67 461.633C1227.43 461.508 1227.17 461.445 1226.91 461.445V461.439Z" fill="white"/>
</g>
<g style="mix-blend-mode:screen">
<path d="M1207.38 626.215C1206.86 625.939 1206.22 626.146 1205.94 626.666C1205.67 627.185 1205.87 627.83 1206.39 628.106C1206.91 628.381 1207.56 628.175 1207.83 627.655C1208.11 627.135 1207.9 626.49 1207.38 626.215Z" fill="white"/>
</g>
<g style="mix-blend-mode:screen">
<path d="M1230.19 531.944C1229.58 531.625 1228.83 531.863 1228.51 532.47C1228.19 533.078 1228.43 533.829 1229.03 534.149C1229.64 534.468 1230.39 534.23 1230.71 533.623C1231.03 533.015 1230.79 532.264 1230.19 531.944Z" fill="white"/>
</g>
<g style="mix-blend-mode:screen">
<path d="M1171.44 359.293C1169.74 358.403 1167.65 359.061 1166.76 360.758C1165.87 362.455 1166.53 364.553 1168.23 365.436C1169.93 366.319 1172.02 365.668 1172.91 363.971C1173.8 362.274 1173.14 360.176 1171.44 359.293Z" fill="white"/>
</g>
<g style="mix-blend-mode:screen">
<path d="M1138.51 574.381C1136.73 573.447 1134.52 574.136 1133.59 575.921C1132.66 577.706 1133.35 579.91 1135.13 580.843C1136.92 581.777 1139.12 581.088 1140.05 579.303C1140.99 577.518 1140.3 575.314 1138.51 574.381Z" fill="white"/>
</g>
<g style="mix-blend-mode:screen">
<path d="M1305.49 562.249C1304.62 561.792 1303.54 562.13 1303.09 563.001C1302.64 563.871 1302.97 564.949 1303.84 565.399C1304.72 565.857 1305.79 565.518 1306.24 564.648C1306.7 563.777 1306.36 562.7 1305.49 562.249Z" fill="white"/>
</g>
</g>
<g style="mix-blend-mode:screen">
<path d="M991.035 559.811C990.145 559.349 989.051 559.694 988.591 560.575C988.129 561.465 988.474 562.559 989.355 563.019C990.245 563.481 991.339 563.136 991.8 562.255C992.261 561.365 991.916 560.271 991.035 559.811Z" fill="#191919"/>
<path d="M991.035 559.811C990.145 559.349 989.051 559.694 988.591 560.575C988.129 561.465 988.474 562.559 989.355 563.019C990.245 563.481 991.339 563.136 991.8 562.255C992.261 561.365 991.916 560.271 991.035 559.811Z" stroke="black"/>
</g>
<g style="mix-blend-mode:screen">
<path d="M1121.88 534.622L1122.07 534.561C1122.09 534.618 1122.09 534.681 1122.06 534.738L1121.87 534.64L1121.88 534.622ZM1121.88 534.622L1121.85 534.631L1121.85 534.632M1121.95 534.413C1121.91 534.398 1121.88 534.388 1121.85 534.388H1121.84C1121.84 534.388 1121.84 534.388 1121.84 534.388C1121.8 534.389 1121.69 534.406 1121.63 534.519L1121.84 534.626L1121.84 534.626L1121.95 534.413ZM1122.07 534.552C1122.06 534.511 1122.03 534.473 1122 534.445L1121.88 534.615L1122.07 534.552ZM1122.06 534.751C1122.06 534.75 1122.06 534.749 1122.06 534.748L1121.86 534.645L1121.86 534.648L1121.85 534.663L1121.84 534.673L1121.84 534.682L1121.79 534.757L1121.74 534.857C1121.77 534.873 1121.81 534.883 1121.84 534.883C1121.84 534.883 1121.84 534.883 1121.84 534.882C1121.85 534.882 1121.85 534.882 1121.85 534.882C1121.9 534.879 1122 534.859 1122.06 534.751Z" fill="#191919"/>
<path d="M1121.88 534.622L1122.07 534.561C1122.09 534.618 1122.09 534.681 1122.06 534.738L1121.87 534.64L1121.88 534.622ZM1121.88 534.622L1121.85 534.631L1121.85 534.632M1121.95 534.413C1121.91 534.398 1121.88 534.388 1121.85 534.388H1121.84C1121.84 534.388 1121.84 534.388 1121.84 534.388C1121.8 534.389 1121.69 534.406 1121.63 534.519L1121.84 534.626L1121.84 534.626L1121.95 534.413ZM1122.07 534.552C1122.06 534.511 1122.03 534.473 1122 534.445L1121.88 534.615L1122.07 534.552ZM1122.06 534.751C1122.06 534.75 1122.06 534.749 1122.06 534.748L1121.86 534.645L1121.86 534.648L1121.85 534.663L1121.84 534.673L1121.84 534.682L1121.79 534.757L1121.74 534.857C1121.77 534.873 1121.81 534.883 1121.84 534.883C1121.84 534.883 1121.84 534.883 1121.84 534.882C1121.85 534.882 1121.85 534.882 1121.85 534.882C1121.9 534.879 1122 534.859 1122.06 534.751Z" stroke="black"/>
</g>
<g style="mix-blend-mode:screen">
<path d="M912.773 463.787C913.302 462.767 912.909 461.516 911.894 460.98C910.874 460.451 909.623 460.844 909.087 461.859C908.558 462.879 908.951 464.131 909.967 464.666C910.977 465.199 912.235 464.804 912.773 463.787Z" fill="#191919"/>
<path d="M912.773 463.787C913.302 462.767 912.909 461.516 911.894 460.98C910.874 460.451 909.623 460.844 909.087 461.859C908.558 462.879 908.951 464.131 909.967 464.666C910.977 465.199 912.235 464.804 912.773 463.787Z" stroke="black"/>
</g>
<g style="mix-blend-mode:screen">
<path d="M1183.32 426.803C1182.95 426.803 1182.46 426.985 1182.2 427.48L1184.43 428.645C1184.64 428.243 1184.57 427.879 1184.51 427.684L1184.99 427.536L1184.51 427.684C1184.45 427.495 1184.3 427.158 1183.9 426.947C1183.7 426.85 1183.51 426.803 1183.32 426.803ZM1182.2 427.48C1181.99 427.882 1182.06 428.246 1182.12 428.44C1182.18 428.63 1182.33 428.967 1182.73 429.178C1182.92 429.275 1183.11 429.322 1183.31 429.322C1183.68 429.322 1184.17 429.139 1184.43 428.645L1182.2 427.48Z" fill="#191919"/>
<path d="M1183.32 426.803C1182.95 426.803 1182.46 426.985 1182.2 427.48L1184.43 428.645C1184.64 428.243 1184.57 427.879 1184.51 427.684L1184.99 427.536L1184.51 427.684C1184.45 427.495 1184.3 427.158 1183.9 426.947C1183.7 426.85 1183.51 426.803 1183.32 426.803ZM1182.2 427.48C1181.99 427.882 1182.06 428.246 1182.12 428.44C1182.18 428.63 1182.33 428.967 1182.73 429.178C1182.92 429.275 1183.11 429.322 1183.31 429.322C1183.68 429.322 1184.17 429.139 1184.43 428.645L1182.2 427.48Z" stroke="black"/>
</g>
<g style="mix-blend-mode:screen">
<path d="M1220.2 572.428C1219.79 572.428 1219.28 572.624 1219 573.149C1218.78 573.578 1218.84 573.974 1218.91 574.175C1218.97 574.381 1219.14 574.743 1219.57 574.966C1219.77 575.071 1219.98 575.123 1220.19 575.123C1220.59 575.123 1221.11 574.927 1221.39 574.401C1221.61 573.972 1221.54 573.577 1221.48 573.376C1221.42 573.17 1221.25 572.808 1220.82 572.585C1220.61 572.48 1220.41 572.428 1220.2 572.428Z" fill="#191919"/>
<path d="M1220.2 572.428C1219.79 572.428 1219.28 572.624 1219 573.149C1218.78 573.578 1218.84 573.974 1218.91 574.175C1218.97 574.381 1219.14 574.743 1219.57 574.966C1219.77 575.071 1219.98 575.123 1220.19 575.123C1220.59 575.123 1221.11 574.927 1221.39 574.401C1221.61 573.972 1221.54 573.577 1221.48 573.376C1221.42 573.17 1221.25 572.808 1220.82 572.585C1220.61 572.48 1220.41 572.428 1220.2 572.428Z" stroke="black"/>
</g>
<g style="mix-blend-mode:screen">
<path d="M1104.35 505.415L1104.35 505.415L1104.35 505.417C1104.19 505.729 1104.24 506.016 1104.29 506.167C1104.33 506.315 1104.46 506.585 1104.78 506.751L1104.78 506.751L1104.78 506.752C1104.92 506.826 1105.07 506.863 1105.23 506.863C1105.52 506.863 1105.9 506.718 1106.1 506.33L1106.1 506.33L1106.11 506.329C1106.27 506.016 1106.22 505.729 1106.17 505.578C1106.12 505.43 1106 505.161 1105.68 504.995C1105.53 504.917 1105.39 504.882 1105.23 504.882C1104.94 504.882 1104.56 505.027 1104.35 505.415Z" fill="#191919"/>
<path d="M1104.35 505.415L1104.35 505.415L1104.35 505.417C1104.19 505.729 1104.24 506.016 1104.29 506.167C1104.33 506.315 1104.46 506.585 1104.78 506.751L1104.78 506.751L1104.78 506.752C1104.92 506.826 1105.07 506.863 1105.23 506.863C1105.52 506.863 1105.9 506.718 1106.1 506.33L1106.1 506.33L1106.11 506.329C1106.27 506.016 1106.22 505.729 1106.17 505.578C1106.12 505.43 1106 505.161 1105.68 504.995C1105.53 504.917 1105.39 504.882 1105.23 504.882C1104.94 504.882 1104.56 505.027 1104.35 505.415Z" stroke="black"/>
</g>
<g style="mix-blend-mode:screen">
<path d="M1275.07 432.286L1275.07 432.287C1274.81 432.782 1274.33 432.965 1273.96 432.965C1273.76 432.965 1273.57 432.917 1273.38 432.82C1272.98 432.611 1272.82 432.271 1272.76 432.081C1272.7 431.886 1272.64 431.523 1272.85 431.122L1275.07 432.286ZM1275.07 432.286C1275.39 431.675 1275.15 430.914 1274.54 430.596C1274.35 430.499 1274.16 430.451 1273.96 430.451H1273.84M1275.07 432.286L1273.84 430.451M1273.84 430.451C1273.49 430.487 1273.08 430.68 1272.85 431.122L1273.84 430.451Z" fill="#191919"/>
<path d="M1275.07 432.286L1275.07 432.287C1274.81 432.782 1274.33 432.965 1273.96 432.965C1273.76 432.965 1273.57 432.917 1273.38 432.82C1272.98 432.611 1272.82 432.271 1272.76 432.081C1272.7 431.886 1272.64 431.523 1272.85 431.122L1275.07 432.286ZM1275.07 432.286C1275.39 431.675 1275.15 430.914 1274.54 430.596C1274.35 430.499 1274.16 430.451 1273.96 430.451H1273.84M1275.07 432.286L1273.84 430.451M1273.84 430.451C1273.49 430.487 1273.08 430.68 1272.85 431.122L1273.84 430.451Z" stroke="black"/>
</g>
<g style="mix-blend-mode:screen">
<path d="M1301.29 477.436L1301.29 477.435C1300.31 476.925 1299.11 477.306 1298.61 478.275L1298.61 478.276C1298.1 479.252 1298.48 480.453 1299.45 480.958L1299.45 480.958L1299.45 480.958C1300.42 481.469 1301.62 481.088 1302.13 480.118L1302.13 480.117C1302.64 479.141 1302.26 477.941 1301.29 477.436Z" fill="#191919"/>
<path d="M1301.29 477.436L1301.29 477.435C1300.31 476.925 1299.11 477.306 1298.61 478.275L1298.61 478.276C1298.1 479.252 1298.48 480.453 1299.45 480.958L1299.45 480.958L1299.45 480.958C1300.42 481.469 1301.62 481.088 1302.13 480.118L1302.13 480.117C1302.64 479.141 1302.26 477.941 1301.29 477.436Z" stroke="black"/>
</g>
<g style="mix-blend-mode:screen">
<path d="M1160.68 485.919C1160.45 485.798 1160.15 485.888 1160.03 486.122C1159.91 486.351 1160 486.645 1160.23 486.768C1160.46 486.889 1160.76 486.799 1160.88 486.565C1161 486.336 1160.91 486.042 1160.68 485.919Z" fill="#191919"/>
<path d="M1160.68 485.919C1160.45 485.798 1160.15 485.888 1160.03 486.122C1159.91 486.351 1160 486.645 1160.23 486.768C1160.46 486.889 1160.76 486.799 1160.88 486.565C1161 486.336 1160.91 486.042 1160.68 485.919Z" stroke="black"/>
</g>
<g style="mix-blend-mode:screen">
<path d="M1184.42 535.55C1183.57 535.108 1182.54 535.433 1182.09 536.278C1181.65 537.123 1181.98 538.161 1182.82 538.603C1183.67 539.045 1184.71 538.72 1185.15 537.875C1185.59 537.03 1185.26 535.992 1184.42 535.55Z" fill="#191919"/>
<path d="M1184.42 535.55C1183.57 535.108 1182.54 535.433 1182.09 536.278C1181.65 537.123 1181.98 538.161 1182.82 538.603C1183.67 539.045 1184.71 538.72 1185.15 537.875C1185.59 537.03 1185.26 535.992 1184.42 535.55Z" stroke="black"/>
</g>
<g style="mix-blend-mode:screen">
<path d="M1051.21 523.324C1050.94 523.181 1050.6 523.286 1050.45 523.568C1050.31 523.837 1050.41 524.183 1050.69 524.332C1050.96 524.475 1051.31 524.371 1051.46 524.089C1051.6 523.819 1051.49 523.474 1051.21 523.324Z" fill="#191919"/>
<path d="M1051.21 523.324C1050.94 523.181 1050.6 523.286 1050.45 523.568C1050.31 523.837 1050.41 524.183 1050.69 524.332C1050.96 524.475 1051.31 524.371 1051.46 524.089C1051.6 523.819 1051.49 523.474 1051.21 523.324Z" stroke="black"/>
</g>
<g style="mix-blend-mode:screen">
<path d="M1036.75 366.299C1035.86 365.837 1034.77 366.182 1034.31 367.063C1033.84 367.953 1034.19 369.047 1035.07 369.508C1035.96 369.97 1037.05 369.624 1037.52 368.743C1037.98 367.853 1037.63 366.759 1036.75 366.299Z" fill="#191919"/>
<path d="M1036.75 366.299C1035.86 365.837 1034.77 366.182 1034.31 367.063C1033.84 367.953 1034.19 369.047 1035.07 369.508C1035.96 369.97 1037.05 369.624 1037.52 368.743C1037.98 367.853 1037.63 366.759 1036.75 366.299Z" stroke="black"/>
</g>
<g style="mix-blend-mode:screen">
<path d="M1137.24 456.555C1136.05 455.932 1134.58 456.393 1133.95 457.584C1133.33 458.772 1133.79 460.243 1134.98 460.867C1136.17 461.49 1137.64 461.028 1138.27 459.838C1138.89 458.649 1138.43 457.179 1137.24 456.555Z" fill="#191919"/>
<path d="M1137.24 456.555C1136.05 455.932 1134.58 456.393 1133.95 457.584C1133.33 458.772 1133.79 460.243 1134.98 460.867C1136.17 461.49 1137.64 461.028 1138.27 459.838C1138.89 458.649 1138.43 457.179 1137.24 456.555Z" stroke="black"/>
</g>
<g style="mix-blend-mode:screen">
<path d="M1328.47 522.28C1328.43 522.257 1328.39 522.242 1328.34 522.234H1328.27C1328.14 522.234 1327.96 522.303 1327.86 522.482C1327.75 522.699 1327.83 522.977 1328.06 523.094L1328.06 523.094L1328.07 523.099C1328.12 523.128 1328.19 523.144 1328.27 523.144C1328.4 523.144 1328.58 523.076 1328.68 522.897C1328.75 522.76 1328.73 522.637 1328.71 522.562C1328.68 522.471 1328.61 522.357 1328.47 522.28L1328.47 522.28Z" fill="#191919"/>
<path d="M1328.47 522.28C1328.43 522.257 1328.39 522.242 1328.34 522.234H1328.27C1328.14 522.234 1327.96 522.303 1327.86 522.482C1327.75 522.699 1327.83 522.977 1328.06 523.094L1328.06 523.094L1328.07 523.099C1328.12 523.128 1328.19 523.144 1328.27 523.144C1328.4 523.144 1328.58 523.076 1328.68 522.897C1328.75 522.76 1328.73 522.637 1328.71 522.562C1328.68 522.471 1328.61 522.357 1328.47 522.28L1328.47 522.28Z" stroke="black"/>
</g>
<g style="mix-blend-mode:screen">
<path d="M1101.78 405.077C1100.72 404.523 1099.41 404.934 1098.85 405.993C1098.3 407.057 1098.71 408.364 1099.77 408.919C1100.83 409.473 1102.14 409.062 1102.69 408.003C1103.25 406.939 1102.84 405.631 1101.78 405.077Z" fill="#191919"/>
<path d="M1101.78 405.077C1100.72 404.523 1099.41 404.934 1098.85 405.993C1098.3 407.057 1098.71 408.364 1099.77 408.919C1100.83 409.473 1102.14 409.062 1102.69 408.003C1103.25 406.939 1102.84 405.631 1101.78 405.077Z" stroke="black"/>
</g>
<g style="mix-blend-mode:screen">
<path d="M1031.32 445.648C1029.74 444.818 1027.79 445.43 1026.96 447.015C1026.13 448.598 1026.74 450.551 1028.32 451.382C1029.91 452.211 1031.86 451.599 1032.69 450.014C1033.52 448.431 1032.91 446.478 1031.32 445.648Z" fill="#191919"/>
<path d="M1031.32 445.648C1029.74 444.818 1027.79 445.43 1026.96 447.015C1026.13 448.598 1026.74 450.551 1028.32 451.382C1029.91 452.211 1031.86 451.599 1032.69 450.014C1033.52 448.431 1032.91 446.478 1031.32 445.648Z" stroke="black"/>
</g>
<g style="mix-blend-mode:screen">
<path d="M1044.38 601.807C1043.66 601.433 1042.78 601.709 1042.41 602.422C1042.04 603.136 1042.31 604.017 1043.02 604.39C1043.74 604.763 1044.62 604.487 1044.99 603.775C1045.37 603.061 1045.09 602.179 1044.38 601.807Z" fill="#191919"/>
<path d="M1044.38 601.807C1043.66 601.433 1042.78 601.709 1042.41 602.422C1042.04 603.136 1042.31 604.017 1043.02 604.39C1043.74 604.763 1044.62 604.487 1044.99 603.775C1045.37 603.061 1045.09 602.179 1044.38 601.807Z" stroke="black"/>
</g>
<g style="mix-blend-mode:screen">
<path d="M1227.94 463.65L1227.94 463.65L1227.94 463.648C1228.13 463.28 1228.07 462.938 1228.02 462.757C1227.96 462.588 1227.81 462.27 1227.44 462.078C1227.27 461.988 1227.09 461.945 1226.91 461.945H1226.79C1226.47 461.98 1226.09 462.159 1225.87 462.569C1225.67 462.936 1225.73 463.278 1225.79 463.459C1225.84 463.628 1225.99 463.946 1226.36 464.138C1226.54 464.232 1226.72 464.277 1226.9 464.277C1227.25 464.277 1227.7 464.107 1227.94 463.65ZM1228.49 462.61C1228.42 462.366 1228.21 461.909 1227.67 461.633L1226.41 461.518C1226.04 461.633 1225.66 461.887 1225.42 462.335C1225.14 462.867 1225.24 463.362 1225.31 463.606C1225.39 463.85 1225.6 464.307 1226.13 464.583C1226.38 464.708 1226.63 464.777 1226.9 464.777C1227.39 464.777 1228.04 464.539 1228.38 463.882C1228.66 463.349 1228.57 462.855 1228.49 462.61Z" fill="#191919"/>
<path d="M1227.94 463.65L1227.94 463.65L1227.94 463.648C1228.13 463.28 1228.07 462.938 1228.02 462.757C1227.96 462.588 1227.81 462.27 1227.44 462.078C1227.27 461.988 1227.09 461.945 1226.91 461.945H1226.79C1226.47 461.98 1226.09 462.159 1225.87 462.569C1225.67 462.936 1225.73 463.278 1225.79 463.459C1225.84 463.628 1225.99 463.946 1226.36 464.138C1226.54 464.232 1226.72 464.277 1226.9 464.277C1227.25 464.277 1227.7 464.107 1227.94 463.65ZM1228.49 462.61C1228.42 462.366 1228.21 461.909 1227.67 461.633L1226.41 461.518C1226.04 461.633 1225.66 461.887 1225.42 462.335C1225.14 462.867 1225.24 463.362 1225.31 463.606C1225.39 463.85 1225.6 464.307 1226.13 464.583C1226.38 464.708 1226.63 464.777 1226.9 464.777C1227.39 464.777 1228.04 464.539 1228.38 463.882C1228.66 463.349 1228.57 462.855 1228.49 462.61Z" stroke="black"/>
</g>
<g style="mix-blend-mode:screen">
<path d="M1207.15 626.656C1206.88 626.513 1206.53 626.618 1206.38 626.9C1206.24 627.169 1206.35 627.515 1206.63 627.664C1206.9 627.807 1207.24 627.703 1207.39 627.421C1207.54 627.151 1207.43 626.806 1207.15 626.656Z" fill="#191919"/>
<path d="M1207.15 626.656C1206.88 626.513 1206.53 626.618 1206.38 626.9C1206.24 627.169 1206.35 627.515 1206.63 627.664C1206.9 627.807 1207.24 627.703 1207.39 627.421C1207.54 627.151 1207.43 626.806 1207.15 626.656Z" stroke="black"/>
</g>
<g style="mix-blend-mode:screen">
<path d="M1229.95 532.387C1229.59 532.197 1229.14 532.337 1228.95 532.703C1228.76 533.063 1228.9 533.514 1229.27 533.706C1229.63 533.896 1230.08 533.756 1230.27 533.39C1230.46 533.03 1230.32 532.579 1229.95 532.387Z" fill="#191919"/>
<path d="M1229.95 532.387C1229.59 532.197 1229.14 532.337 1228.95 532.703C1228.76 533.063 1228.9 533.514 1229.27 533.706C1229.63 533.896 1230.08 533.756 1230.27 533.39C1230.46 533.03 1230.32 532.579 1229.95 532.387Z" stroke="black"/>
</g>
<g style="mix-blend-mode:screen">
<path d="M1171.21 359.736L1171.21 359.736C1169.76 358.974 1167.96 359.538 1167.21 360.989L1167.21 360.99C1166.45 362.443 1167.01 364.238 1168.46 364.993C1169.91 365.749 1171.71 365.19 1172.46 363.74L1172.46 363.739C1173.23 362.286 1172.66 360.491 1171.21 359.736Z" fill="#191919"/>
<path d="M1171.21 359.736L1171.21 359.736C1169.76 358.974 1167.96 359.538 1167.21 360.989L1167.21 360.99C1166.45 362.443 1167.01 364.238 1168.46 364.993C1169.91 365.749 1171.71 365.19 1172.46 363.74L1172.46 363.739C1173.23 362.286 1172.66 360.491 1171.21 359.736Z" stroke="black"/>
</g>
<g style="mix-blend-mode:screen">
<path d="M1138.28 574.824C1136.74 574.018 1134.84 574.613 1134.03 576.153C1133.23 577.693 1133.82 579.595 1135.36 580.4C1136.9 581.206 1138.81 580.611 1139.61 579.071C1140.42 577.531 1139.82 575.629 1138.28 574.824Z" fill="#191919"/>
<path d="M1138.28 574.824C1136.74 574.018 1134.84 574.613 1134.03 576.153C1133.23 577.693 1133.82 579.595 1135.36 580.4C1136.9 581.206 1138.81 580.611 1139.61 579.071C1140.42 577.531 1139.82 575.629 1138.28 574.824Z" stroke="black"/>
</g>
<g style="mix-blend-mode:screen">
<path d="M1305.26 562.693L1305.26 562.693L1305.26 562.692C1304.63 562.363 1303.86 562.607 1303.54 563.231L1303.54 563.231L1303.54 563.233C1303.21 563.859 1303.45 564.632 1304.07 564.955L1304.07 564.955L1304.08 564.957C1304.7 565.285 1305.48 565.042 1305.8 564.418L1305.8 564.418L1305.8 564.415C1306.13 563.79 1305.89 563.016 1305.26 562.693Z" fill="#191919"/>
<path d="M1305.26 562.693L1305.26 562.693L1305.26 562.692C1304.63 562.363 1303.86 562.607 1303.54 563.231L1303.54 563.231L1303.54 563.233C1303.21 563.859 1303.45 564.632 1304.07 564.955L1304.07 564.955L1304.08 564.957C1304.7 565.285 1305.48 565.042 1305.8 564.418L1305.8 564.418L1305.8 564.415C1306.13 563.79 1305.89 563.016 1305.26 562.693Z" stroke="black"/>
</g>
<defs>
<filter id="filter0_f_3654_19701" x="0" y="0" width="1458" height="728" filterUnits="userSpaceOnUse" color-interpolation-filters="sRGB">
<feFlood flood-opacity="0" result="BackgroundImageFix"/>
<feBlend mode="normal" in="SourceGraphic" in2="BackgroundImageFix" result="shape"/>
<feGaussianBlur stdDeviation="120" result="effect1_foregroundBlur_3654_19701"/>
</filter>
<filter id="filter1_f_3654_19701" x="64.875" y="114.75" width="503.376" height="351.832" filterUnits="userSpaceOnUse" color-interpolation-filters="sRGB">
<feFlood flood-opacity="0" result="BackgroundImageFix"/>
<feBlend mode="normal" in="SourceGraphic" in2="BackgroundImageFix" result="shape"/>
<feGaussianBlur stdDeviation="20.625" result="effect1_foregroundBlur_3654_19701"/>
</filter>
<filter id="filter2_f_3654_19701" x="867.102" y="317.646" width="503.376" height="351.832" filterUnits="userSpaceOnUse" color-interpolation-filters="sRGB">
<feFlood flood-opacity="0" result="BackgroundImageFix"/>
<feBlend mode="normal" in="SourceGraphic" in2="BackgroundImageFix" result="shape"/>
<feGaussianBlur stdDeviation="20.625" result="effect1_foregroundBlur_3654_19701"/>
</filter>
</defs>
</svg>
