<svg width="1920" height="1386" viewBox="0 0 1920 1386" fill="none" xmlns="http://www.w3.org/2000/svg">
<g filter="url(#filter0_f_3654_19701)">
<ellipse cx="960" cy="693" rx="660" ry="192.387" fill="#191919"/>
</g>
<path d="M1619 693C1619 719.065 1600.87 744.109 1567.57 767.062C1534.29 789.994 1486.08 810.685 1426.41 828.078C1307.09 862.86 1142.19 884.387 960 884.387C777.813 884.387 612.912 862.86 493.589 828.078C433.921 810.685 385.708 789.994 352.434 767.062C319.128 744.109 301 719.065 301 693C301 666.935 319.128 641.891 352.434 618.938C385.708 596.006 433.921 575.315 493.589 557.922C612.912 523.14 777.813 501.613 960 501.613C1142.19 501.613 1307.09 523.14 1426.41 557.922C1486.08 575.315 1534.29 596.006 1567.57 618.938C1600.87 641.891 1619 666.935 1619 693Z" stroke="#191919" stroke-width="2"/>
<path d="M1469.12 665.516C1469.12 684.538 1455.22 702.894 1429.49 719.775C1403.8 736.628 1366.56 751.844 1320.45 764.638C1228.24 790.222 1100.8 806.058 960 806.058C819.197 806.058 691.76 790.222 599.555 764.638C553.445 751.844 516.203 736.628 490.512 719.775C464.779 702.894 450.875 684.538 450.875 665.516C450.875 646.495 464.779 628.138 490.512 611.258C516.203 594.404 553.445 579.188 599.555 566.395C691.76 540.811 819.197 524.974 960 524.974C1100.8 524.974 1228.24 540.811 1320.45 566.395C1366.56 579.188 1403.8 594.404 1429.49 611.258C1455.22 628.138 1469.12 646.495 1469.12 665.516Z" stroke="#191919" stroke-width="2"/>
<path d="M1322.69 629.444C1322.69 634.892 1320.29 640.292 1315.55 645.603C1310.81 650.92 1303.78 656.097 1294.63 661.06C1276.34 670.985 1249.81 679.955 1216.94 687.5C1151.22 702.586 1060.38 711.926 960 711.926C859.623 711.926 768.779 702.586 703.058 687.5C670.189 679.955 643.659 670.985 625.37 661.06C616.225 656.097 609.188 650.92 604.448 645.603C599.713 640.292 597.312 634.892 597.312 629.444C597.312 623.995 599.713 618.595 604.448 613.284C609.188 607.967 616.225 602.79 625.37 597.827C643.659 587.902 670.189 578.932 703.058 571.387C768.779 556.301 859.623 546.961 960 546.961C1060.38 546.961 1151.22 556.301 1216.94 571.387C1249.81 578.932 1276.34 587.902 1294.63 597.827C1303.78 602.79 1310.81 607.967 1315.55 613.284C1320.29 618.595 1322.69 623.995 1322.69 629.444Z" stroke="#191919" stroke-width="2"/>
<g filter="url(#filter1_f_3654_19701)">
<g style="mix-blend-mode:screen">
<path d="M99.3978 438.958C97.5878 439.898 95.3578 439.198 94.4178 437.398C93.4778 435.588 94.1778 433.358 95.9778 432.418C97.7878 431.478 100.018 432.178 100.958 433.978C101.898 435.788 101.198 438.018 99.3978 438.958Z" fill="white"/>
</g>
<g style="mix-blend-mode:screen">
<path d="M307.907 478.845C307.847 478.845 307.657 478.825 307.557 478.635C307.537 478.595 307.477 478.495 307.527 478.335C307.577 478.185 307.687 478.125 307.717 478.105C307.777 478.075 307.837 478.055 307.897 478.055C307.957 478.055 308.147 478.075 308.247 478.265C308.347 478.455 308.277 478.695 308.087 478.795C308.027 478.825 307.977 478.845 307.917 478.845H307.907Z" fill="white"/>
</g>
<g style="mix-blend-mode:screen">
<path d="M406.067 651.435C405.247 651.435 404.157 651.035 403.577 649.925C403.107 649.025 403.257 648.205 403.387 647.785C403.517 647.365 403.867 646.605 404.767 646.135C405.177 645.925 405.607 645.815 406.057 645.815C406.877 645.815 407.967 646.215 408.547 647.325C409.017 648.225 408.867 649.045 408.737 649.465C408.607 649.885 408.257 650.645 407.357 651.115C406.947 651.325 406.517 651.435 406.067 651.435Z" fill="white"/>
</g>
<g style="mix-blend-mode:screen">
<path d="M464.957 418.9C464.087 418.9 462.947 418.48 462.337 417.32C461.847 416.38 461.997 415.51 462.137 415.07C462.277 414.63 462.647 413.83 463.587 413.34C464.017 413.12 464.467 413 464.947 413C465.817 413 466.957 413.42 467.567 414.58C468.057 415.52 467.907 416.39 467.767 416.83C467.627 417.27 467.257 418.07 466.317 418.56C465.887 418.78 465.437 418.9 464.957 418.9Z" fill="white"/>
</g>
<g style="mix-blend-mode:screen">
<path d="M281.381 526.76C280.681 526.76 279.761 526.42 279.271 525.48C278.871 524.72 279.001 524.02 279.111 523.67C279.221 523.32 279.521 522.67 280.281 522.27C280.621 522.09 280.991 522 281.371 522C282.071 522 282.991 522.34 283.481 523.28C283.881 524.04 283.751 524.74 283.641 525.09C283.531 525.44 283.231 526.09 282.471 526.49C282.121 526.67 281.761 526.76 281.381 526.76Z" fill="white"/>
</g>
<g style="mix-blend-mode:screen">
<path d="M550.81 645.62C549.99 645.62 548.9 645.22 548.32 644.11C547.85 643.21 548 642.39 548.13 641.97C548.26 641.56 548.61 640.79 549.51 640.32C549.92 640.11 550.35 640 550.8 640C551.62 640 552.71 640.4 553.29 641.51C554.01 642.88 553.47 644.58 552.1 645.29C551.69 645.5 551.26 645.61 550.81 645.61V645.62Z" fill="white"/>
</g>
<g style="mix-blend-mode:screen">
<path d="M594.814 570.494C592.864 571.514 590.464 570.754 589.454 568.814C588.434 566.864 589.194 564.464 591.134 563.454C593.084 562.434 595.484 563.194 596.494 565.134C597.514 567.084 596.754 569.484 594.814 570.494Z" fill="white"/>
</g>
<g style="mix-blend-mode:screen">
<path d="M370.287 556.947C369.527 557.347 368.577 557.047 368.177 556.287C367.777 555.527 368.077 554.577 368.837 554.177C369.597 553.777 370.547 554.077 370.947 554.837C371.347 555.597 371.047 556.547 370.287 556.947Z" fill="white"/>
</g>
<g style="mix-blend-mode:screen">
<path d="M408.196 477.696C406.456 478.606 404.316 477.936 403.406 476.196C402.496 474.456 403.166 472.316 404.906 471.406C406.646 470.496 408.786 471.166 409.696 472.906C410.606 474.646 409.936 476.786 408.196 477.696Z" fill="white"/>
</g>
<g style="mix-blend-mode:screen">
<path d="M195.495 497.215C194.665 497.655 193.635 497.325 193.195 496.495C192.755 495.665 193.085 494.635 193.915 494.195C194.745 493.755 195.775 494.085 196.215 494.915C196.655 495.745 196.325 496.775 195.495 497.215Z" fill="white"/>
</g>
<g style="mix-blend-mode:screen">
<path d="M172.398 747.958C170.588 748.898 168.358 748.198 167.418 746.398C166.478 744.588 167.178 742.358 168.978 741.418C170.788 740.478 173.018 741.178 173.958 742.978C174.898 744.788 174.198 747.018 172.398 747.958Z" fill="white"/>
</g>
<g style="mix-blend-mode:screen">
<path d="M332.854 603.834C330.564 605.034 327.734 604.144 326.534 601.854C325.334 599.564 326.224 596.734 328.514 595.534C330.804 594.334 333.634 595.224 334.834 597.514C336.034 599.804 335.144 602.634 332.854 603.834Z" fill="white"/>
</g>
<g style="mix-blend-mode:screen">
<path d="M637.533 499.05C637.083 499.05 636.493 498.83 636.173 498.23C635.783 497.49 636.073 496.56 636.823 496.17C637.043 496.05 637.283 496 637.523 496C637.973 496 638.563 496.22 638.883 496.82C639.123 497.28 639.073 497.71 638.983 497.98C638.893 498.25 638.693 498.63 638.233 498.88C638.013 499 637.773 499.06 637.533 499.06V499.05Z" fill="white"/>
</g>
<g style="mix-blend-mode:screen">
<path d="M276.235 686.035C274.155 687.125 271.575 686.315 270.485 684.235C269.395 682.145 270.205 679.575 272.285 678.485C274.365 677.395 276.945 678.205 278.035 680.285C279.125 682.375 278.315 684.945 276.235 686.035Z" fill="white"/>
</g>
<g style="mix-blend-mode:screen">
<path d="M163.732 621.252C160.812 622.782 157.212 621.652 155.682 618.732C154.152 615.812 155.282 612.212 158.202 610.682C161.122 609.152 164.722 610.282 166.252 613.202C167.782 616.122 166.652 619.722 163.732 621.252Z" fill="white"/>
</g>
<g style="mix-blend-mode:screen">
<path d="M184.577 371.897C183.047 372.697 181.157 372.107 180.357 370.577C179.557 369.047 180.147 367.157 181.677 366.357C183.207 365.557 185.097 366.147 185.897 367.677C186.697 369.207 186.107 371.097 184.577 371.897Z" fill="white"/>
</g>
<g style="mix-blend-mode:screen">
<path d="M475.674 595.33C474.894 595.33 473.864 594.95 473.304 593.9C472.854 593.05 473.004 592.26 473.124 591.87C473.244 591.48 473.584 590.75 474.434 590.31C474.824 590.11 475.234 590 475.664 590C476.444 590 477.474 590.38 478.024 591.43C478.474 592.28 478.324 593.07 478.204 593.46C478.084 593.85 477.744 594.58 476.894 595.02C476.504 595.22 476.094 595.32 475.674 595.32V595.33Z" fill="white"/>
</g>
<g style="mix-blend-mode:screen">
<path d="M444.495 332.215C443.665 332.655 442.635 332.325 442.195 331.495C441.755 330.665 442.085 329.635 442.915 329.195C443.745 328.755 444.775 329.085 445.215 329.915C445.655 330.745 445.325 331.775 444.495 332.215Z" fill="white"/>
</g>
<g style="mix-blend-mode:screen">
<path d="M480.907 482.747C479.937 483.257 478.737 482.877 478.227 481.907C477.717 480.937 478.097 479.737 479.067 479.227C480.037 478.717 481.237 479.097 481.747 480.067C482.257 481.037 481.877 482.237 480.907 482.747Z" fill="white"/>
</g>
<g style="mix-blend-mode:screen">
<path d="M387.103 758.439C384.393 759.859 381.043 758.809 379.633 756.099C378.213 753.389 379.263 750.039 381.973 748.629C384.683 747.219 388.033 748.259 389.443 750.969C390.863 753.679 389.813 757.029 387.103 758.439Z" fill="white"/>
</g>
<g style="mix-blend-mode:screen">
<path d="M334.524 414.984C331.674 416.474 328.154 415.374 326.664 412.524C325.174 409.674 326.274 406.154 329.124 404.664C331.974 403.174 335.494 404.274 336.984 407.124C338.474 409.974 337.374 413.494 334.524 414.984Z" fill="white"/>
</g>
<g style="mix-blend-mode:screen">
<path d="M601.155 434.355C599.765 435.085 598.045 434.545 597.325 433.155C596.595 431.765 597.135 430.045 598.525 429.325C599.915 428.595 601.635 429.135 602.355 430.525C603.085 431.915 602.545 433.635 601.155 434.355Z" fill="white"/>
</g>
</g>
<g style="mix-blend-mode:screen">
<path d="M98.9358 438.071C97.6131 438.757 95.9883 438.243 95.3047 436.936C94.6185 435.613 95.1321 433.988 96.4397 433.305C97.7624 432.618 99.3873 433.132 100.071 434.44C100.757 435.762 100.243 437.387 98.9358 438.071Z" fill="#191919"/>
<path d="M98.9358 438.071C97.6131 438.757 95.9883 438.243 95.3047 436.936C94.6185 435.613 95.1321 433.988 96.4397 433.305C97.7624 432.618 99.3873 433.132 100.071 434.44C100.757 435.762 100.243 437.387 98.9358 438.071Z" stroke="black" stroke-width="2"/>
</g>
<g style="mix-blend-mode:screen">
<path d="M307.961 478.471L308.275 478.569C308.303 478.478 308.299 478.377 308.257 478.285L307.942 478.443L307.961 478.471ZM307.961 478.471L307.918 478.458L307.917 478.455M308.067 478.805C308.016 478.83 307.97 478.845 307.917 478.845H307.907C307.904 478.845 307.901 478.845 307.897 478.845C307.828 478.843 307.652 478.816 307.557 478.635L307.897 478.465L307.897 478.465L308.067 478.805ZM308.27 478.583C308.247 478.649 308.206 478.709 308.15 478.754L307.969 478.483L308.27 478.583ZM308.247 478.265C308.248 478.267 308.249 478.269 308.25 478.271L307.937 478.435L307.934 478.43L307.917 478.405L307.907 478.39L307.897 478.375L307.817 478.255L307.737 478.096C307.791 478.071 307.844 478.055 307.897 478.055C307.9 478.055 307.904 478.055 307.907 478.056C307.91 478.056 307.914 478.056 307.917 478.056C307.992 478.061 308.157 478.093 308.247 478.265Z" fill="#191919"/>
<path d="M307.961 478.471L308.275 478.569C308.303 478.478 308.299 478.377 308.257 478.285L307.942 478.443L307.961 478.471ZM307.961 478.471L307.918 478.458L307.917 478.455M308.067 478.805C308.016 478.83 307.97 478.845 307.917 478.845H307.907C307.904 478.845 307.901 478.845 307.897 478.845C307.828 478.843 307.652 478.816 307.557 478.635L307.897 478.465L307.897 478.465L308.067 478.805ZM308.27 478.583C308.247 478.649 308.206 478.709 308.15 478.754L307.969 478.483L308.27 478.583ZM308.247 478.265C308.248 478.267 308.249 478.269 308.25 478.271L307.937 478.435L307.934 478.43L307.917 478.405L307.907 478.39L307.897 478.375L307.817 478.255L307.737 478.096C307.791 478.071 307.844 478.055 307.897 478.055C307.9 478.055 307.904 478.055 307.907 478.056C307.91 478.056 307.914 478.056 307.917 478.056C307.992 478.061 308.157 478.093 308.247 478.265Z" stroke="black" stroke-width="2"/>
</g>
<g style="mix-blend-mode:screen">
<path d="M406.067 650.435C405.531 650.435 404.833 650.17 404.463 649.463L407.661 647.789C407.962 648.365 407.87 648.886 407.782 649.17C407.697 649.443 407.474 649.925 406.898 650.227C406.62 650.369 406.346 650.435 406.067 650.435ZM404.463 649.462C404.162 648.885 404.255 648.365 404.342 648.081C404.427 647.808 404.65 647.326 405.227 647.024C405.505 646.882 405.778 646.815 406.057 646.815C406.593 646.815 407.291 647.08 407.661 647.788L404.463 649.462Z" fill="#191919"/>
<path d="M406.067 650.435C405.531 650.435 404.833 650.17 404.463 649.463L407.661 647.789C407.962 648.365 407.87 648.886 407.782 649.17C407.697 649.443 407.474 649.925 406.898 650.227C406.62 650.369 406.346 650.435 406.067 650.435ZM404.463 649.462C404.162 648.885 404.255 648.365 404.342 648.081C404.427 647.808 404.65 647.326 405.227 647.024C405.505 646.882 405.778 646.815 406.057 646.815C406.593 646.815 407.291 647.08 407.661 647.788L404.463 649.462Z" stroke="black" stroke-width="2"/>
</g>
<g style="mix-blend-mode:screen">
<path d="M464.957 417.9C464.37 417.9 463.622 417.615 463.223 416.856C462.9 416.235 462.997 415.664 463.09 415.373C463.185 415.072 463.43 414.551 464.046 414.228C464.349 414.074 464.643 414 464.947 414C465.533 414 466.281 414.285 466.681 415.044C467.004 415.665 466.906 416.236 466.814 416.527C466.718 416.828 466.473 417.349 465.858 417.672C465.554 417.826 465.261 417.9 464.957 417.9Z" fill="#191919"/>
<path d="M464.957 417.9C464.37 417.9 463.622 417.615 463.223 416.856C462.9 416.235 462.997 415.664 463.09 415.373C463.185 415.072 463.43 414.551 464.046 414.228C464.349 414.074 464.643 414 464.947 414C465.533 414 466.281 414.285 466.681 415.044C467.004 415.665 466.906 416.236 466.814 416.527C466.718 416.828 466.473 417.349 465.858 417.672C465.554 417.826 465.261 417.9 464.957 417.9Z" stroke="black" stroke-width="2"/>
</g>
<g style="mix-blend-mode:screen">
<path d="M280.158 525.018L280.158 525.018L280.156 525.014C279.928 524.58 279.998 524.183 280.065 523.97C280.131 523.762 280.306 523.387 280.747 523.155L280.747 523.155L280.749 523.154C280.943 523.051 281.152 523 281.371 523C281.787 523 282.314 523.204 282.595 523.742L282.595 523.742L282.596 523.746C282.825 524.18 282.754 524.577 282.687 524.79C282.622 524.997 282.448 525.371 282.01 525.603C281.796 525.712 281.593 525.76 281.381 525.76C280.966 525.76 280.439 525.556 280.158 525.018Z" fill="#191919"/>
<path d="M280.158 525.018L280.158 525.018L280.156 525.014C279.928 524.58 279.998 524.183 280.065 523.97C280.131 523.762 280.306 523.387 280.747 523.155L280.747 523.155L280.749 523.154C280.943 523.051 281.152 523 281.371 523C281.787 523 282.314 523.204 282.595 523.742L282.595 523.742L282.596 523.746C282.825 524.18 282.754 524.577 282.687 524.79C282.622 524.997 282.448 525.371 282.01 525.603C281.796 525.712 281.593 525.76 281.381 525.76C280.966 525.76 280.439 525.556 280.158 525.018Z" stroke="black" stroke-width="2"/>
</g>
<g style="mix-blend-mode:screen">
<path d="M551.642 644.401C552.521 643.944 552.865 642.851 552.405 641.975L552.404 641.973C552.034 641.265 551.337 641 550.8 641C550.521 641 550.248 641.066 549.97 641.208C549.399 641.508 549.172 641.994 549.085 642.269C548.997 642.554 548.907 643.072 549.207 643.647L551.642 644.401ZM551.642 644.401C551.364 644.543 551.09 644.61 550.81 644.61H550.627C550.123 644.556 549.536 644.277 549.207 643.647L551.642 644.401Z" fill="#191919"/>
<path d="M551.642 644.401C552.521 643.944 552.865 642.851 552.405 641.975L552.404 641.973C552.034 641.265 551.337 641 550.8 641C550.521 641 550.248 641.066 549.97 641.208C549.399 641.508 549.172 641.994 549.085 642.269C548.997 642.554 548.907 643.072 549.207 643.647L551.642 644.401ZM551.642 644.401C551.364 644.543 551.09 644.61 550.81 644.61H550.627C550.123 644.556 549.536 644.277 549.207 643.647L551.642 644.401Z" stroke="black" stroke-width="2"/>
</g>
<g style="mix-blend-mode:screen">
<path d="M594.352 569.607L594.35 569.608C592.891 570.371 591.095 569.802 590.341 568.352L590.34 568.35C589.576 566.891 590.146 565.095 591.595 564.341L591.595 564.341L591.597 564.34C593.057 563.576 594.852 564.146 595.607 565.595L595.607 565.597C596.371 567.057 595.802 568.852 594.352 569.607Z" fill="#191919"/>
<path d="M594.352 569.607L594.35 569.608C592.891 570.371 591.095 569.802 590.341 568.352L590.34 568.35C589.576 566.891 590.146 565.095 591.595 564.341L591.595 564.341L591.597 564.34C593.057 563.576 594.852 564.146 595.607 565.595L595.607 565.597C596.371 567.057 595.802 568.852 594.352 569.607Z" stroke="black" stroke-width="2"/>
</g>
<g style="mix-blend-mode:screen">
<path d="M369.822 556.063C369.556 556.203 369.208 556.098 369.062 555.822C368.922 555.556 369.027 555.208 369.303 555.062C369.569 554.922 369.917 555.027 370.063 555.303C370.203 555.569 370.098 555.917 369.822 556.063Z" fill="#191919"/>
<path d="M369.822 556.063C369.556 556.203 369.208 556.098 369.062 555.822C368.922 555.556 369.027 555.208 369.303 555.062C369.569 554.922 369.917 555.027 370.063 555.303C370.203 555.569 370.098 555.917 369.822 556.063Z" stroke="black" stroke-width="2"/>
</g>
<g style="mix-blend-mode:screen">
<path d="M407.733 476.81C406.482 477.464 404.946 476.983 404.292 475.733C403.638 474.482 404.119 472.946 405.37 472.292C406.62 471.638 408.156 472.119 408.81 473.37C409.464 474.62 408.983 476.156 407.733 476.81Z" fill="#191919"/>
<path d="M407.733 476.81C406.482 477.464 404.946 476.983 404.292 475.733C403.638 474.482 404.119 472.946 405.37 472.292C406.62 471.638 408.156 472.119 408.81 473.37C409.464 474.62 408.983 476.156 407.733 476.81Z" stroke="black" stroke-width="2"/>
</g>
<g style="mix-blend-mode:screen">
<path d="M195.027 496.332C194.697 496.507 194.267 496.382 194.079 496.027C193.904 495.697 194.029 495.267 194.384 495.079C194.713 494.904 195.144 495.029 195.332 495.384C195.507 495.713 195.382 496.144 195.027 496.332Z" fill="#191919"/>
<path d="M195.027 496.332C194.697 496.507 194.267 496.382 194.079 496.027C193.904 495.697 194.029 495.267 194.384 495.079C194.713 494.904 195.144 495.029 195.332 495.384C195.507 495.713 195.382 496.144 195.027 496.332Z" stroke="black" stroke-width="2"/>
</g>
<g style="mix-blend-mode:screen">
<path d="M171.936 747.071C170.613 747.757 168.988 747.244 168.305 745.936C167.619 744.613 168.132 742.988 169.44 742.305C170.762 741.618 172.387 742.132 173.071 743.44C173.757 744.762 173.243 746.387 171.936 747.071Z" fill="#191919"/>
<path d="M171.936 747.071C170.613 747.757 168.988 747.244 168.305 745.936C167.619 744.613 168.132 742.988 169.44 742.305C170.762 741.618 172.387 742.132 173.071 743.44C173.757 744.762 173.243 746.387 171.936 747.071Z" stroke="black" stroke-width="2"/>
</g>
<g style="mix-blend-mode:screen">
<path d="M332.39 602.949C330.591 603.891 328.365 603.193 327.42 601.39C326.478 599.591 327.176 597.365 328.979 596.42C330.777 595.478 333.004 596.176 333.949 597.979C334.891 599.777 334.193 602.004 332.39 602.949Z" fill="#191919"/>
<path d="M332.39 602.949C330.591 603.891 328.365 603.193 327.42 601.39C326.478 599.591 327.176 597.365 328.979 596.42C330.777 595.478 333.004 596.176 333.949 597.979C334.891 599.777 334.193 602.004 332.39 602.949Z" stroke="black" stroke-width="2"/>
</g>
<g style="mix-blend-mode:screen">
<path d="M637.754 498.002C637.712 498.025 637.669 498.041 637.627 498.05H637.533C637.372 498.05 637.168 497.968 637.057 497.762C636.928 497.515 637.025 497.192 637.285 497.057L637.293 497.053L637.302 497.048C637.352 497.021 637.422 497 637.523 497C637.685 497 637.888 497.082 637.999 497.287C638.081 497.446 638.062 497.582 638.035 497.664C637.996 497.779 637.925 497.91 637.756 498.001L637.754 498.002Z" fill="#191919"/>
<path d="M637.754 498.002C637.712 498.025 637.669 498.041 637.627 498.05H637.533C637.372 498.05 637.168 497.968 637.057 497.762C636.928 497.515 637.025 497.192 637.285 497.057L637.293 497.053L637.302 497.048C637.352 497.021 637.422 497 637.523 497C637.685 497 637.888 497.082 637.999 497.287C638.081 497.446 638.062 497.582 638.035 497.664C637.996 497.779 637.925 497.91 637.756 498.001L637.754 498.002Z" stroke="black" stroke-width="2"/>
</g>
<g style="mix-blend-mode:screen">
<path d="M275.771 685.149C274.182 685.982 272.206 685.363 271.371 683.772C270.537 682.171 271.158 680.205 272.749 679.371C274.338 678.538 276.314 679.157 277.149 680.748C277.983 682.349 277.363 684.315 275.771 685.149Z" fill="#191919"/>
<path d="M275.771 685.149C274.182 685.982 272.206 685.363 271.371 683.772C270.537 682.171 271.158 680.205 272.749 679.371C274.338 678.538 276.314 679.157 277.149 680.748C277.983 682.349 277.363 684.315 275.771 685.149Z" stroke="black" stroke-width="2"/>
</g>
<g style="mix-blend-mode:screen">
<path d="M163.268 620.367C160.839 621.639 157.843 620.7 156.568 618.268C155.295 615.839 156.234 612.843 158.666 611.568C161.096 610.295 164.092 611.234 165.367 613.666C166.639 616.096 165.7 619.092 163.268 620.367Z" fill="#191919"/>
<path d="M163.268 620.367C160.839 621.639 157.843 620.7 156.568 618.268C155.295 615.839 156.234 612.843 158.666 611.568C161.096 610.295 164.092 611.234 165.367 613.666C166.639 616.096 165.7 619.092 163.268 620.367Z" stroke="black" stroke-width="2"/>
</g>
<g style="mix-blend-mode:screen">
<path d="M184.114 371.011C183.072 371.555 181.787 371.153 181.243 370.114C180.698 369.072 181.101 367.787 182.14 367.243C183.182 366.698 184.467 367.101 185.011 368.14C185.555 369.182 185.153 370.467 184.114 371.011Z" fill="#191919"/>
<path d="M184.114 371.011C183.072 371.555 181.787 371.153 181.243 370.114C180.698 369.072 181.101 367.787 182.14 367.243C183.182 366.698 184.467 367.101 185.011 368.14C185.555 369.182 185.153 370.467 184.114 371.011Z" stroke="black" stroke-width="2"/>
</g>
<g style="mix-blend-mode:screen">
<path d="M477.138 591.894L477.138 591.894L477.14 591.898C477.415 592.418 477.329 592.903 477.248 593.166C477.174 593.406 476.962 593.858 476.436 594.131C476.183 594.26 475.93 594.32 475.674 594.32H475.498C475.036 594.268 474.497 594.011 474.187 593.431C473.913 592.911 473.999 592.427 474.08 592.164C474.154 591.924 474.365 591.472 474.892 591.199C475.157 591.063 475.412 591 475.664 591C476.159 591 476.798 591.244 477.138 591.894Z" fill="#191919"/>
<path d="M477.138 591.894L477.138 591.894L477.14 591.898C477.415 592.418 477.329 592.903 477.248 593.166C477.174 593.406 476.962 593.858 476.436 594.131C476.183 594.26 475.93 594.32 475.674 594.32H475.498C475.036 594.268 474.497 594.011 474.187 593.431C473.913 592.911 473.999 592.427 474.08 592.164C474.154 591.924 474.365 591.472 474.892 591.199C475.157 591.063 475.412 591 475.664 591C476.159 591 476.798 591.244 477.138 591.894Z" stroke="black" stroke-width="2"/>
</g>
<g style="mix-blend-mode:screen">
<path d="M444.027 331.332C443.697 331.507 443.267 331.382 443.079 331.027C442.904 330.697 443.029 330.267 443.384 330.079C443.713 329.904 444.144 330.029 444.332 330.384C444.507 330.713 444.382 331.144 444.027 331.332Z" fill="#191919"/>
<path d="M444.027 331.332C443.697 331.507 443.267 331.382 443.079 331.027C442.904 330.697 443.029 330.267 443.384 330.079C443.713 329.904 444.144 330.029 444.332 330.384C444.507 330.713 444.382 331.144 444.027 331.332Z" stroke="black" stroke-width="2"/>
</g>
<g style="mix-blend-mode:screen">
<path d="M480.441 481.862C479.966 482.112 479.368 481.928 479.112 481.441C478.862 480.966 479.045 480.368 479.532 480.112C480.008 479.862 480.606 480.046 480.862 480.532C481.112 481.008 480.928 481.606 480.441 481.862Z" fill="#191919"/>
<path d="M480.441 481.862C479.966 482.112 479.368 481.928 479.112 481.441C478.862 480.966 479.045 480.368 479.532 480.112C480.008 479.862 480.606 480.046 480.862 480.532C481.112 481.008 480.928 481.606 480.441 481.862Z" stroke="black" stroke-width="2"/>
</g>
<g style="mix-blend-mode:screen">
<path d="M386.641 757.551L386.639 757.553C384.418 758.716 381.674 757.855 380.52 755.637L380.52 755.637L380.519 755.634C379.355 753.414 380.216 750.67 382.435 749.516C384.659 748.358 387.403 749.215 388.556 751.43L388.557 751.433C389.721 753.653 388.86 756.397 386.641 757.551Z" fill="#191919"/>
<path d="M386.641 757.551L386.639 757.553C384.418 758.716 381.674 757.855 380.52 755.637L380.52 755.637L380.519 755.634C379.355 753.414 380.216 750.67 382.435 749.516C384.659 748.358 387.403 749.215 388.556 751.43L388.557 751.433C389.721 753.653 388.86 756.397 386.641 757.551Z" stroke="black" stroke-width="2"/>
</g>
<g style="mix-blend-mode:screen">
<path d="M334.061 414.098C331.7 415.333 328.784 414.421 327.551 412.061C326.316 409.7 327.228 406.784 329.588 405.551C331.949 404.316 334.865 405.228 336.098 407.588C337.333 409.949 336.421 412.865 334.061 414.098Z" fill="#191919"/>
<path d="M334.061 414.098C331.7 415.333 328.784 414.421 327.551 412.061C326.316 409.7 327.228 406.784 329.588 405.551C331.949 404.316 334.865 405.228 336.098 407.588C337.333 409.949 336.421 412.865 334.061 414.098Z" stroke="black" stroke-width="2"/>
</g>
<g style="mix-blend-mode:screen">
<path d="M600.696 433.468L600.696 433.468L600.69 433.47C599.79 433.943 598.678 433.592 598.213 432.696L598.213 432.696L598.211 432.691C597.738 431.79 598.089 430.678 598.985 430.213L598.985 430.213L598.99 430.211C599.891 429.738 601.003 430.089 601.468 430.985L601.468 430.985L601.47 430.99C601.943 431.891 601.592 433.003 600.696 433.468Z" fill="#191919"/>
<path d="M600.696 433.468L600.696 433.468L600.69 433.47C599.79 433.943 598.678 433.592 598.213 432.696L598.213 432.696L598.211 432.691C597.738 431.79 598.089 430.678 598.985 430.213L598.985 430.213L598.99 430.211C599.891 429.738 601.003 430.089 601.468 430.985L601.468 430.985L601.47 430.99C601.943 431.891 601.592 433.003 600.696 433.468Z" stroke="black" stroke-width="2"/>
</g>
<g filter="url(#filter2_f_3654_19701)">
<g style="mix-blend-mode:screen">
<path d="M1380.4 973.114C1378.59 972.174 1376.36 972.874 1375.42 974.674C1374.48 976.484 1375.18 978.714 1376.98 979.654C1378.79 980.594 1381.02 979.894 1381.96 978.094C1382.9 976.284 1382.2 974.054 1380.4 973.114Z" fill="white"/>
</g>
<g style="mix-blend-mode:screen">
<path d="M1588.91 933.226C1588.85 933.226 1588.66 933.246 1588.56 933.436C1588.54 933.476 1588.48 933.576 1588.53 933.736C1588.58 933.886 1588.69 933.946 1588.72 933.966C1588.78 933.996 1588.84 934.016 1588.9 934.016C1588.96 934.016 1589.15 933.996 1589.25 933.806C1589.35 933.616 1589.28 933.376 1589.09 933.276C1589.03 933.246 1588.98 933.226 1588.92 933.226H1588.91Z" fill="white"/>
</g>
<g style="mix-blend-mode:screen">
<path d="M1254.03 815.3C1252.01 814.25 1249.53 815.03 1248.47 817.04C1247.42 819.06 1248.2 821.54 1250.21 822.6C1252.22 823.66 1254.71 822.87 1255.77 820.86C1256.82 818.84 1256.04 816.36 1254.03 815.3Z" fill="white"/>
</g>
<g style="mix-blend-mode:screen">
<path d="M1687.07 760.636C1686.25 760.636 1685.16 761.036 1684.58 762.146C1684.11 763.046 1684.26 763.866 1684.39 764.286C1684.52 764.706 1684.87 765.466 1685.77 765.936C1686.18 766.146 1686.61 766.256 1687.06 766.256C1687.88 766.256 1688.97 765.856 1689.55 764.746C1690.02 763.846 1689.87 763.026 1689.74 762.606C1689.61 762.186 1689.26 761.426 1688.36 760.956C1687.95 760.746 1687.52 760.636 1687.07 760.636Z" fill="white"/>
</g>
<g style="mix-blend-mode:screen">
<path d="M1745.96 993.172C1745.09 993.172 1743.95 993.592 1743.34 994.752C1742.85 995.692 1743 996.562 1743.14 997.002C1743.28 997.442 1743.65 998.242 1744.59 998.732C1745.02 998.952 1745.47 999.072 1745.95 999.072C1746.82 999.072 1747.96 998.652 1748.57 997.492C1749.06 996.552 1748.91 995.682 1748.77 995.242C1748.63 994.802 1748.26 994.002 1747.32 993.512C1746.89 993.292 1746.44 993.172 1745.96 993.172Z" fill="white"/>
</g>
<g style="mix-blend-mode:screen">
<path d="M1562.38 885.312C1561.68 885.312 1560.76 885.652 1560.27 886.592C1559.87 887.352 1560 888.052 1560.11 888.402C1560.22 888.752 1560.52 889.402 1561.28 889.802C1561.62 889.982 1561.99 890.072 1562.37 890.072C1563.07 890.072 1563.99 889.732 1564.48 888.792C1564.88 888.032 1564.75 887.332 1564.64 886.982C1564.53 886.632 1564.23 885.982 1563.47 885.582C1563.12 885.402 1562.76 885.312 1562.38 885.312Z" fill="white"/>
</g>
<g style="mix-blend-mode:screen">
<path d="M1831.81 766.452C1830.99 766.452 1829.9 766.852 1829.32 767.962C1828.85 768.862 1829 769.682 1829.13 770.102C1829.26 770.512 1829.61 771.282 1830.51 771.752C1830.92 771.962 1831.35 772.072 1831.8 772.072C1832.62 772.072 1833.71 771.672 1834.29 770.562C1835.01 769.192 1834.47 767.492 1833.1 766.782C1832.69 766.572 1832.26 766.462 1831.81 766.462V766.452Z" fill="white"/>
</g>
<g style="mix-blend-mode:screen">
<path d="M1875.81 841.578C1873.86 840.558 1871.46 841.318 1870.45 843.258C1869.43 845.208 1870.19 847.608 1872.13 848.618C1874.08 849.638 1876.48 848.878 1877.49 846.938C1878.51 844.988 1877.75 842.588 1875.81 841.578Z" fill="white"/>
</g>
<g style="mix-blend-mode:screen">
<path d="M1651.29 855.124C1650.53 854.724 1649.58 855.024 1649.18 855.784C1648.78 856.544 1649.08 857.494 1649.84 857.894C1650.6 858.294 1651.55 857.994 1651.95 857.234C1652.35 856.474 1652.05 855.524 1651.29 855.124Z" fill="white"/>
</g>
<g style="mix-blend-mode:screen">
<path d="M1689.2 934.375C1687.46 933.465 1685.32 934.135 1684.41 935.875C1683.5 937.615 1684.17 939.755 1685.91 940.665C1687.65 941.575 1689.79 940.905 1690.7 939.165C1691.61 937.425 1690.94 935.285 1689.2 934.375Z" fill="white"/>
</g>
<g style="mix-blend-mode:screen">
<path d="M1476.5 914.856C1475.67 914.416 1474.64 914.746 1474.2 915.576C1473.76 916.406 1474.09 917.436 1474.92 917.876C1475.75 918.316 1476.78 917.986 1477.22 917.156C1477.66 916.326 1477.33 915.296 1476.5 914.856Z" fill="white"/>
</g>
<g style="mix-blend-mode:screen">
<path d="M1453.4 664.114C1451.59 663.174 1449.36 663.874 1448.42 665.674C1447.48 667.484 1448.18 669.714 1449.98 670.654C1451.79 671.594 1454.02 670.894 1454.96 669.094C1455.9 667.284 1455.2 665.054 1453.4 664.114Z" fill="white"/>
</g>
<g style="mix-blend-mode:screen">
<path d="M1613.85 808.237C1611.56 807.037 1608.73 807.927 1607.53 810.217C1606.33 812.507 1607.22 815.337 1609.51 816.537C1611.8 817.737 1614.63 816.847 1615.83 814.557C1617.03 812.267 1616.14 809.437 1613.85 808.237Z" fill="white"/>
</g>
<g style="mix-blend-mode:screen">
<path d="M1918.53 913.022C1918.08 913.022 1917.49 913.242 1917.17 913.842C1916.78 914.582 1917.07 915.512 1917.82 915.902C1918.04 916.022 1918.28 916.072 1918.52 916.072C1918.97 916.072 1919.56 915.852 1919.88 915.252C1920.12 914.792 1920.07 914.362 1919.98 914.092C1919.89 913.822 1919.69 913.442 1919.23 913.192C1919.01 913.072 1918.77 913.012 1918.53 913.012V913.022Z" fill="white"/>
</g>
<g style="mix-blend-mode:screen">
<path d="M1557.24 726.037C1555.16 724.947 1552.58 725.757 1551.49 727.837C1550.4 729.927 1551.21 732.497 1553.29 733.587C1555.37 734.677 1557.95 733.867 1559.04 731.787C1560.13 729.697 1559.32 727.127 1557.24 726.037Z" fill="white"/>
</g>
<g style="mix-blend-mode:screen">
<path d="M1444.73 790.819C1441.81 789.289 1438.21 790.419 1436.68 793.339C1435.15 796.259 1436.28 799.859 1439.2 801.389C1442.12 802.919 1445.72 801.789 1447.25 798.869C1448.78 795.949 1447.65 792.349 1444.73 790.819Z" fill="white"/>
</g>
<g style="mix-blend-mode:screen">
<path d="M1465.58 1040.17C1464.05 1039.37 1462.16 1039.96 1461.36 1041.49C1460.56 1043.02 1461.15 1044.91 1462.68 1045.71C1464.21 1046.51 1466.1 1045.92 1466.9 1044.39C1467.7 1042.86 1467.11 1040.97 1465.58 1040.17Z" fill="white"/>
</g>
<g style="mix-blend-mode:screen">
<path d="M1756.67 816.742C1755.89 816.742 1754.86 817.122 1754.3 818.172C1753.85 819.022 1754 819.812 1754.12 820.202C1754.24 820.592 1754.58 821.322 1755.43 821.762C1755.82 821.962 1756.23 822.072 1756.66 822.072C1757.44 822.072 1758.47 821.692 1759.02 820.642C1759.47 819.792 1759.32 819.002 1759.2 818.612C1759.08 818.222 1758.74 817.492 1757.89 817.052C1757.5 816.852 1757.09 816.752 1756.67 816.752V816.742Z" fill="white"/>
</g>
<g style="mix-blend-mode:screen">
<path d="M1725.5 1079.86C1724.67 1079.42 1723.64 1079.75 1723.2 1080.58C1722.76 1081.41 1723.09 1082.44 1723.92 1082.88C1724.75 1083.32 1725.78 1082.99 1726.22 1082.16C1726.66 1081.33 1726.33 1080.3 1725.5 1079.86Z" fill="white"/>
</g>
<g style="mix-blend-mode:screen">
<path d="M1761.91 929.325C1760.94 928.815 1759.74 929.195 1759.23 930.165C1758.72 931.135 1759.1 932.335 1760.07 932.845C1761.04 933.355 1762.24 932.975 1762.75 932.005C1763.26 931.035 1762.88 929.835 1761.91 929.325Z" fill="white"/>
</g>
<g style="mix-blend-mode:screen">
<path d="M1668.1 653.633C1665.39 652.213 1662.04 653.263 1660.63 655.973C1659.21 658.683 1660.26 662.033 1662.97 663.443C1665.68 664.853 1669.03 663.813 1670.44 661.103C1671.86 658.393 1670.81 655.043 1668.1 653.633Z" fill="white"/>
</g>
<g style="mix-blend-mode:screen">
<path d="M1615.52 997.087C1612.67 995.597 1609.15 996.697 1607.66 999.547C1606.17 1002.4 1607.27 1005.92 1610.12 1007.41C1612.97 1008.9 1616.49 1007.8 1617.98 1004.95C1619.47 1002.1 1618.37 998.577 1615.52 997.087Z" fill="white"/>
</g>
<g style="mix-blend-mode:screen">
<path d="M1882.16 977.716C1880.77 976.986 1879.05 977.526 1878.33 978.916C1877.6 980.306 1878.14 982.026 1879.53 982.746C1880.92 983.476 1882.64 982.936 1883.36 981.546C1884.09 980.156 1883.55 978.436 1882.16 977.716Z" fill="white"/>
</g>
</g>
<g style="mix-blend-mode:screen">
<path d="M1379.7 974.444C1378.63 973.885 1377.3 974.305 1376.75 975.367C1376.19 976.446 1376.61 977.768 1377.67 978.323C1378.75 978.883 1380.07 978.462 1380.63 977.401C1381.19 976.322 1380.77 974.999 1379.7 974.444Z" fill="#191919"/>
<path d="M1379.7 974.444C1378.63 973.885 1377.3 974.305 1376.75 975.367C1376.19 976.446 1376.61 977.768 1377.67 978.323C1378.75 978.883 1380.07 978.462 1380.63 977.401C1381.19 976.322 1380.77 974.999 1379.7 974.444Z" stroke="black" stroke-width="3"/>
</g>
<g style="mix-blend-mode:screen">
<path d="M1588.96 933.601L1589.27 933.503C1589.3 933.593 1589.3 933.695 1589.26 933.786L1588.94 933.629L1588.96 933.601ZM1588.96 933.601L1588.92 933.614L1588.92 933.616M1589.07 933.266C1589.02 933.242 1588.97 933.226 1588.92 933.226H1588.91C1588.9 933.226 1588.9 933.226 1588.9 933.226C1588.83 933.229 1588.65 933.256 1588.56 933.436L1588.9 933.606L1588.9 933.606L1589.07 933.266ZM1589.27 933.489C1589.25 933.423 1589.21 933.363 1589.15 933.317L1588.97 933.589L1589.27 933.489ZM1589.25 933.806C1589.25 933.804 1589.25 933.803 1589.25 933.801L1588.94 933.636L1588.93 933.641L1588.92 933.666L1588.91 933.681L1588.9 933.696L1588.82 933.816L1588.74 933.976C1588.79 934 1588.84 934.016 1588.9 934.016C1588.9 934.016 1588.9 934.016 1588.91 934.016C1588.91 934.016 1588.91 934.016 1588.92 934.015C1588.99 934.011 1589.16 933.978 1589.25 933.806Z" fill="#191919"/>
<path d="M1588.96 933.601L1589.27 933.503C1589.3 933.593 1589.3 933.695 1589.26 933.786L1588.94 933.629L1588.96 933.601ZM1588.96 933.601L1588.92 933.614L1588.92 933.616M1589.07 933.266C1589.02 933.242 1588.97 933.226 1588.92 933.226H1588.91C1588.9 933.226 1588.9 933.226 1588.9 933.226C1588.83 933.229 1588.65 933.256 1588.56 933.436L1588.9 933.606L1588.9 933.606L1589.07 933.266ZM1589.27 933.489C1589.25 933.423 1589.21 933.363 1589.15 933.317L1588.97 933.589L1589.27 933.489ZM1589.25 933.806C1589.25 933.804 1589.25 933.803 1589.25 933.801L1588.94 933.636L1588.93 933.641L1588.92 933.666L1588.91 933.681L1588.9 933.696L1588.82 933.816L1588.74 933.976C1588.79 934 1588.84 934.016 1588.9 934.016C1588.9 934.016 1588.9 934.016 1588.91 934.016C1588.91 934.016 1588.91 934.016 1588.92 934.015C1588.99 934.011 1589.16 933.978 1589.25 933.806Z" stroke="black" stroke-width="3"/>
</g>
<g style="mix-blend-mode:screen">
<path d="M1253.33 816.629C1252.05 815.964 1250.47 816.458 1249.8 817.736C1249.13 819.021 1249.63 820.598 1250.91 821.273C1252.17 821.94 1253.76 821.45 1254.44 820.164C1255.1 818.88 1254.61 817.305 1253.33 816.629Z" fill="#191919"/>
<path d="M1253.33 816.629C1252.05 815.964 1250.47 816.458 1249.8 817.736C1249.13 819.021 1249.63 820.598 1250.91 821.273C1252.17 821.94 1253.76 821.45 1254.44 820.164C1255.1 818.88 1254.61 817.305 1253.33 816.629Z" stroke="black" stroke-width="3"/>
</g>
<g style="mix-blend-mode:screen">
<path d="M1687.07 762.136C1686.67 762.136 1686.17 762.334 1685.91 762.84L1688.22 764.051C1688.43 763.636 1688.37 763.265 1688.3 763.05C1688.24 762.85 1688.08 762.507 1687.67 762.288C1687.46 762.181 1687.26 762.136 1687.07 762.136ZM1685.91 762.841C1685.69 763.256 1685.75 763.627 1685.82 763.843C1685.88 764.042 1686.04 764.385 1686.46 764.604C1686.67 764.711 1686.86 764.756 1687.06 764.756C1687.45 764.756 1687.95 764.559 1688.22 764.052L1685.91 762.841Z" fill="#191919"/>
<path d="M1687.07 762.136C1686.67 762.136 1686.17 762.334 1685.91 762.84L1688.22 764.051C1688.43 763.636 1688.37 763.265 1688.3 763.05C1688.24 762.85 1688.08 762.507 1687.67 762.288C1687.46 762.181 1687.26 762.136 1687.07 762.136ZM1685.91 762.841C1685.69 763.256 1685.75 763.627 1685.82 763.843C1685.88 764.042 1686.04 764.385 1686.46 764.604C1686.67 764.711 1686.86 764.756 1687.06 764.756C1687.45 764.756 1687.95 764.559 1688.22 764.052L1685.91 762.841Z" stroke="black" stroke-width="3"/>
</g>
<g style="mix-blend-mode:screen">
<path d="M1745.96 994.672C1745.51 994.672 1744.96 994.89 1744.67 995.447C1744.43 995.909 1744.5 996.331 1744.57 996.547C1744.64 996.778 1744.82 997.16 1745.28 997.399C1745.51 997.521 1745.73 997.572 1745.95 997.572C1746.39 997.572 1746.94 997.353 1747.24 996.796C1747.48 996.334 1747.41 995.912 1747.34 995.696C1747.26 995.465 1747.08 995.083 1746.63 994.844C1746.39 994.722 1746.17 994.672 1745.96 994.672Z" fill="#191919"/>
<path d="M1745.96 994.672C1745.51 994.672 1744.96 994.89 1744.67 995.447C1744.43 995.909 1744.5 996.331 1744.57 996.547C1744.64 996.778 1744.82 997.16 1745.28 997.399C1745.51 997.521 1745.73 997.572 1745.95 997.572C1746.39 997.572 1746.94 997.353 1747.24 996.796C1747.48 996.334 1747.41 995.912 1747.34 995.696C1747.26 995.465 1747.08 995.083 1746.63 994.844C1746.39 994.722 1746.17 994.672 1745.96 994.672Z" stroke="black" stroke-width="3"/>
</g>
<g style="mix-blend-mode:screen">
<path d="M1561.6 887.285L1561.6 887.285L1561.6 887.29C1561.46 887.561 1561.5 887.807 1561.54 887.952C1561.59 888.089 1561.7 888.326 1561.98 888.474L1561.98 888.474L1561.98 888.476C1562.1 888.54 1562.23 888.572 1562.37 888.572C1562.64 888.572 1562.98 888.435 1563.15 888.098L1563.15 888.098L1563.15 888.093C1563.3 887.822 1563.26 887.576 1563.21 887.431C1563.17 887.295 1563.06 887.061 1562.78 886.912C1562.63 886.838 1562.51 886.812 1562.38 886.812C1562.11 886.812 1561.78 886.948 1561.6 887.285Z" fill="#191919"/>
<path d="M1561.6 887.285L1561.6 887.285L1561.6 887.29C1561.46 887.561 1561.5 887.807 1561.54 887.952C1561.59 888.089 1561.7 888.326 1561.98 888.474L1561.98 888.474L1561.98 888.476C1562.1 888.54 1562.23 888.572 1562.37 888.572C1562.64 888.572 1562.98 888.435 1563.15 888.098L1563.15 888.098L1563.15 888.093C1563.3 887.822 1563.26 887.576 1563.21 887.431C1563.17 887.295 1563.06 887.061 1562.78 886.912C1562.63 886.838 1562.51 886.812 1562.38 886.812C1562.11 886.812 1561.78 886.948 1561.6 887.285Z" stroke="black" stroke-width="3"/>
</g>
<g style="mix-blend-mode:screen">
<path d="M1832.96 769.867L1832.96 769.867C1832.7 770.374 1832.19 770.572 1831.8 770.572C1831.61 770.572 1831.41 770.527 1831.2 770.419C1830.79 770.205 1830.63 769.86 1830.56 769.653C1830.5 769.437 1830.43 769.068 1830.65 768.656L1832.96 769.867ZM1832.96 769.867L1832.96 769.864C1833.29 769.235 1833.05 768.445 1832.41 768.115C1832.2 768.007 1832 767.962 1831.81 767.962H1831.65M1832.96 769.867L1831.65 767.962M1831.65 767.962C1831.29 768.007 1830.88 768.214 1830.65 768.656L1831.65 767.962Z" fill="#191919"/>
<path d="M1832.96 769.867L1832.96 769.867C1832.7 770.374 1832.19 770.572 1831.8 770.572C1831.61 770.572 1831.41 770.527 1831.2 770.419C1830.79 770.205 1830.63 769.86 1830.56 769.653C1830.5 769.437 1830.43 769.068 1830.65 768.656L1832.96 769.867ZM1832.96 769.867L1832.96 769.864C1833.29 769.235 1833.05 768.445 1832.41 768.115C1832.2 768.007 1832 767.962 1831.81 767.962H1831.65M1832.96 769.867L1831.65 767.962M1831.65 767.962C1831.29 768.007 1830.88 768.214 1830.65 768.656L1831.65 767.962Z" stroke="black" stroke-width="3"/>
</g>
<g style="mix-blend-mode:screen">
<path d="M1875.12 842.908L1875.12 842.907C1873.9 842.272 1872.41 842.746 1871.78 843.951L1871.78 843.953C1871.15 845.168 1871.62 846.66 1872.83 847.287L1872.83 847.287L1872.83 847.289C1874.04 847.924 1875.54 847.45 1876.16 846.245L1876.16 846.243C1876.8 845.028 1876.33 843.536 1875.12 842.908Z" fill="#191919"/>
<path d="M1875.12 842.908L1875.12 842.907C1873.9 842.272 1872.41 842.746 1871.78 843.951L1871.78 843.953C1871.15 845.168 1871.62 846.66 1872.83 847.287L1872.83 847.287L1872.83 847.289C1874.04 847.924 1875.54 847.45 1876.16 846.245L1876.16 846.243C1876.8 845.028 1876.33 843.536 1875.12 842.908Z" stroke="black" stroke-width="3"/>
</g>
<g style="mix-blend-mode:screen">
<path d="M1650.59 856.451C1650.58 856.448 1650.58 856.447 1650.57 856.447C1650.57 856.446 1650.56 856.447 1650.55 856.45C1650.52 856.457 1650.51 856.47 1650.5 856.483C1650.5 856.489 1650.5 856.493 1650.5 856.498C1650.5 856.505 1650.5 856.514 1650.5 856.525C1650.51 856.548 1650.52 856.56 1650.54 856.567C1650.54 856.57 1650.55 856.571 1650.55 856.571C1650.56 856.572 1650.57 856.571 1650.58 856.568C1650.6 856.561 1650.61 856.548 1650.62 856.535C1650.62 856.529 1650.62 856.525 1650.62 856.52C1650.63 856.514 1650.62 856.504 1650.62 856.493C1650.61 856.47 1650.6 856.458 1650.59 856.451Z" fill="#191919"/>
<path d="M1650.59 856.451C1650.58 856.448 1650.58 856.447 1650.57 856.447C1650.57 856.446 1650.56 856.447 1650.55 856.45C1650.52 856.457 1650.51 856.47 1650.5 856.483C1650.5 856.489 1650.5 856.493 1650.5 856.498C1650.5 856.505 1650.5 856.514 1650.5 856.525C1650.51 856.548 1650.52 856.56 1650.54 856.567C1650.54 856.57 1650.55 856.571 1650.55 856.571C1650.56 856.572 1650.57 856.571 1650.58 856.568C1650.6 856.561 1650.61 856.548 1650.62 856.535C1650.62 856.529 1650.62 856.525 1650.62 856.52C1650.63 856.514 1650.62 856.504 1650.62 856.493C1650.61 856.47 1650.6 856.458 1650.59 856.451Z" stroke="black" stroke-width="3"/>
</g>
<g style="mix-blend-mode:screen">
<path d="M1688.5 935.705C1687.49 935.178 1686.26 935.565 1685.74 936.57C1685.21 937.577 1685.6 938.81 1686.6 939.336C1687.61 939.862 1688.84 939.476 1689.37 938.47C1689.89 937.464 1689.51 936.231 1688.5 935.705Z" fill="#191919"/>
<path d="M1688.5 935.705C1687.49 935.178 1686.26 935.565 1685.74 936.57C1685.21 937.577 1685.6 938.81 1686.6 939.336C1687.61 939.862 1688.84 939.476 1689.37 938.47C1689.89 937.464 1689.51 936.231 1688.5 935.705Z" stroke="black" stroke-width="3"/>
</g>
<g style="mix-blend-mode:screen">
<path d="M1475.79 916.181C1475.71 916.139 1475.58 916.162 1475.52 916.279C1475.48 916.358 1475.5 916.489 1475.62 916.551C1475.7 916.593 1475.83 916.57 1475.89 916.454C1475.93 916.374 1475.91 916.243 1475.79 916.181Z" fill="#191919"/>
<path d="M1475.79 916.181C1475.71 916.139 1475.58 916.162 1475.52 916.279C1475.48 916.358 1475.5 916.489 1475.62 916.551C1475.7 916.593 1475.83 916.57 1475.89 916.454C1475.93 916.374 1475.91 916.243 1475.79 916.181Z" stroke="black" stroke-width="3"/>
</g>
<g style="mix-blend-mode:screen">
<path d="M1452.7 665.444C1451.63 664.885 1450.3 665.305 1449.75 666.367C1449.19 667.446 1449.61 668.768 1450.67 669.323C1451.75 669.883 1453.07 669.462 1453.63 668.401C1454.19 667.322 1453.77 665.999 1452.7 665.444Z" fill="#191919"/>
<path d="M1452.7 665.444C1451.63 664.885 1450.3 665.305 1449.75 666.367C1449.19 667.446 1449.61 668.768 1450.67 669.323C1451.75 669.883 1453.07 669.462 1453.63 668.401C1454.19 667.322 1453.77 665.999 1452.7 665.444Z" stroke="black" stroke-width="3"/>
</g>
<g style="mix-blend-mode:screen">
<path d="M1613.16 809.566C1611.6 808.752 1609.68 809.354 1608.86 810.913C1608.05 812.467 1608.65 814.391 1610.21 815.209C1611.76 816.022 1613.69 815.42 1614.51 813.861C1615.32 812.308 1614.72 810.383 1613.16 809.566Z" fill="#191919"/>
<path d="M1613.16 809.566C1611.6 808.752 1609.68 809.354 1608.86 810.913C1608.05 812.467 1608.65 814.391 1610.21 815.209C1611.76 816.022 1613.69 815.42 1614.51 813.861C1615.32 812.308 1614.72 810.383 1613.16 809.566Z" stroke="black" stroke-width="3"/>
</g>
<g style="mix-blend-mode:screen">
<path d="M1918.54 914.524C1918.54 914.523 1918.54 914.523 1918.54 914.522L1918.5 914.541C1918.5 914.542 1918.5 914.542 1918.5 914.542C1918.5 914.541 1918.5 914.541 1918.5 914.542C1918.5 914.542 1918.5 914.542 1918.5 914.542C1918.5 914.543 1918.5 914.547 1918.5 914.553C1918.5 914.559 1918.51 914.563 1918.51 914.565C1918.51 914.566 1918.51 914.567 1918.51 914.568C1918.51 914.568 1918.51 914.569 1918.52 914.571L1918.52 914.571C1918.52 914.571 1918.52 914.571 1918.52 914.572C1918.52 914.571 1918.52 914.571 1918.53 914.57C1918.53 914.568 1918.54 914.565 1918.55 914.563C1918.55 914.562 1918.55 914.561 1918.55 914.561L1918.55 914.561L1918.55 914.56L1918.55 914.56L1918.55 914.558C1918.55 914.557 1918.55 914.556 1918.56 914.553C1918.55 914.54 1918.55 914.532 1918.54 914.528C1918.54 914.526 1918.54 914.525 1918.54 914.524Z" fill="#191919"/>
<path d="M1918.54 914.524C1918.54 914.523 1918.54 914.523 1918.54 914.522L1918.5 914.541C1918.5 914.542 1918.5 914.542 1918.5 914.542C1918.5 914.541 1918.5 914.541 1918.5 914.542C1918.5 914.542 1918.5 914.542 1918.5 914.542C1918.5 914.543 1918.5 914.547 1918.5 914.553C1918.5 914.559 1918.51 914.563 1918.51 914.565C1918.51 914.566 1918.51 914.567 1918.51 914.568C1918.51 914.568 1918.51 914.569 1918.52 914.571L1918.52 914.571C1918.52 914.571 1918.52 914.571 1918.52 914.572C1918.52 914.571 1918.52 914.571 1918.53 914.57C1918.53 914.568 1918.54 914.565 1918.55 914.563C1918.55 914.562 1918.55 914.561 1918.55 914.561L1918.55 914.561L1918.55 914.56L1918.55 914.56L1918.55 914.558C1918.55 914.557 1918.55 914.556 1918.56 914.553C1918.55 914.54 1918.55 914.532 1918.54 914.528C1918.54 914.526 1918.54 914.525 1918.54 914.524Z" stroke="black" stroke-width="3"/>
</g>
<g style="mix-blend-mode:screen">
<path d="M1556.54 727.365C1555.2 726.661 1553.52 727.184 1552.81 728.531C1552.11 729.887 1552.63 731.552 1553.98 732.258C1555.32 732.962 1557 732.439 1557.71 731.092C1558.41 729.736 1557.89 728.071 1556.54 727.365Z" fill="#191919"/>
<path d="M1556.54 727.365C1555.2 726.661 1553.52 727.184 1552.81 728.531C1552.11 729.887 1552.63 731.552 1553.98 732.258C1555.32 732.962 1557 732.439 1557.71 731.092C1558.41 729.736 1557.89 728.071 1556.54 727.365Z" stroke="black" stroke-width="3"/>
</g>
<g style="mix-blend-mode:screen">
<path d="M1444.04 792.148C1441.85 791.003 1439.16 791.847 1438.01 794.035C1436.87 796.219 1437.71 798.914 1439.9 800.061C1442.08 801.205 1444.78 800.361 1445.92 798.173C1447.07 795.989 1446.22 793.294 1444.04 792.148Z" fill="#191919"/>
<path d="M1444.04 792.148C1441.85 791.003 1439.16 791.847 1438.01 794.035C1436.87 796.219 1437.71 798.914 1439.9 800.061C1442.08 801.205 1444.78 800.361 1445.92 798.173C1447.07 795.989 1446.22 793.294 1444.04 792.148Z" stroke="black" stroke-width="3"/>
</g>
<g style="mix-blend-mode:screen">
<path d="M1464.88 1041.5C1464.08 1041.09 1463.1 1041.4 1462.69 1042.19C1462.27 1042.99 1462.58 1043.97 1463.37 1044.39C1464.17 1044.8 1465.15 1044.49 1465.57 1043.7C1465.98 1042.9 1465.68 1041.92 1464.88 1041.5Z" fill="#191919"/>
<path d="M1464.88 1041.5C1464.08 1041.09 1463.1 1041.4 1462.69 1042.19C1462.27 1042.99 1462.58 1043.97 1463.37 1044.39C1464.17 1044.8 1465.15 1044.49 1465.57 1043.7C1465.98 1042.9 1465.68 1041.92 1464.88 1041.5Z" stroke="black" stroke-width="3"/>
</g>
<g style="mix-blend-mode:screen">
<path d="M1757.77 819.053C1757.72 818.887 1757.57 818.575 1757.21 818.385C1757.02 818.291 1756.85 818.252 1756.67 818.252H1756.53C1756.21 818.294 1755.84 818.479 1755.63 818.875C1755.44 819.229 1755.5 819.561 1755.56 819.76C1755.61 819.926 1755.76 820.238 1756.12 820.428C1756.32 820.532 1756.5 820.572 1756.66 820.572C1757.02 820.572 1757.46 820.395 1757.7 819.946L1757.7 819.946L1757.7 819.94C1757.89 819.585 1757.83 819.253 1757.77 819.053Z" fill="#191919"/>
<path d="M1757.77 819.053C1757.72 818.887 1757.57 818.575 1757.21 818.385C1757.02 818.291 1756.85 818.252 1756.67 818.252H1756.53C1756.21 818.294 1755.84 818.479 1755.63 818.875C1755.44 819.229 1755.5 819.561 1755.56 819.76C1755.61 819.926 1755.76 820.238 1756.12 820.428C1756.32 820.532 1756.5 820.572 1756.66 820.572C1757.02 820.572 1757.46 820.395 1757.7 819.946L1757.7 819.946L1757.7 819.94C1757.89 819.585 1757.83 819.253 1757.77 819.053Z" stroke="black" stroke-width="3"/>
</g>
<g style="mix-blend-mode:screen">
<path d="M1724.79 1081.18C1724.71 1081.14 1724.58 1081.16 1724.52 1081.28C1724.48 1081.36 1724.5 1081.49 1724.62 1081.55C1724.7 1081.59 1724.83 1081.57 1724.89 1081.45C1724.93 1081.37 1724.91 1081.24 1724.79 1081.18Z" fill="#191919"/>
<path d="M1724.79 1081.18C1724.71 1081.14 1724.58 1081.16 1724.52 1081.28C1724.48 1081.36 1724.5 1081.49 1724.62 1081.55C1724.7 1081.59 1724.83 1081.57 1724.89 1081.45C1724.93 1081.37 1724.91 1081.24 1724.79 1081.18Z" stroke="black" stroke-width="3"/>
</g>
<g style="mix-blend-mode:screen">
<path d="M1761.21 930.652C1760.98 930.532 1760.68 930.618 1760.55 930.863C1760.43 931.091 1760.52 931.388 1760.76 931.517C1760.99 931.637 1761.29 931.552 1761.42 931.307C1761.54 931.078 1761.45 930.781 1761.21 930.652Z" fill="#191919"/>
<path d="M1761.21 930.652C1760.98 930.532 1760.68 930.618 1760.55 930.863C1760.43 931.091 1760.52 931.388 1760.76 931.517C1760.99 931.637 1761.29 931.552 1761.42 931.307C1761.54 931.078 1761.45 930.781 1761.21 930.652Z" stroke="black" stroke-width="3"/>
</g>
<g style="mix-blend-mode:screen">
<path d="M1667.41 654.964L1667.41 654.962C1665.43 653.926 1662.99 654.693 1661.96 656.665L1661.96 656.665L1661.96 656.669C1660.93 658.645 1661.69 661.086 1663.67 662.112C1665.65 663.144 1668.09 662.379 1669.11 660.411L1669.11 660.407C1670.15 658.431 1669.38 655.99 1667.41 654.964Z" fill="#191919"/>
<path d="M1667.41 654.964L1667.41 654.962C1665.43 653.926 1662.99 654.693 1661.96 656.665L1661.96 656.665L1661.96 656.669C1660.93 658.645 1661.69 661.086 1663.67 662.112C1665.65 663.144 1668.09 662.379 1669.11 660.411L1669.11 660.407C1670.15 658.431 1669.38 655.99 1667.41 654.964Z" stroke="black" stroke-width="3"/>
</g>
<g style="mix-blend-mode:screen">
<path d="M1614.83 998.416C1612.71 997.31 1610.1 998.127 1608.99 1000.24C1607.89 1002.36 1608.7 1004.97 1610.82 1006.08C1612.94 1007.18 1615.55 1006.37 1616.66 1004.25C1617.76 1002.14 1616.94 999.522 1614.83 998.416Z" fill="#191919"/>
<path d="M1614.83 998.416C1612.71 997.31 1610.1 998.127 1608.99 1000.24C1607.89 1002.36 1608.7 1004.97 1610.82 1006.08C1612.94 1007.18 1615.55 1006.37 1616.66 1004.25C1617.76 1002.14 1616.94 999.522 1614.83 998.416Z" stroke="black" stroke-width="3"/>
</g>
<g style="mix-blend-mode:screen">
<path d="M1881.47 979.048L1881.47 979.048L1881.46 979.044C1880.8 978.7 1879.99 978.957 1879.66 979.606L1879.66 979.606L1879.65 979.614C1879.31 980.269 1879.57 981.078 1880.22 981.414L1880.22 981.414L1880.22 981.418C1880.88 981.762 1881.69 981.506 1882.02 980.856L1882.02 980.856L1882.03 980.849C1882.37 980.193 1882.11 979.384 1881.47 979.048Z" fill="#191919"/>
<path d="M1881.47 979.048L1881.47 979.048L1881.46 979.044C1880.8 978.7 1879.99 978.957 1879.66 979.606L1879.66 979.606L1879.65 979.614C1879.31 980.269 1879.57 981.078 1880.22 981.414L1880.22 981.414L1880.22 981.418C1880.88 981.762 1881.69 981.506 1882.02 980.856L1882.02 980.856L1882.03 980.849C1882.37 980.193 1882.11 979.384 1881.47 979.048Z" stroke="black" stroke-width="3"/>
</g>
<defs>
<filter id="filter0_f_3654_19701" x="-200" y="0.612915" width="2320" height="1384.77" filterUnits="userSpaceOnUse" color-interpolation-filters="sRGB">
<feFlood flood-opacity="0" result="BackgroundImageFix"/>
<feBlend mode="normal" in="SourceGraphic" in2="BackgroundImageFix" result="shape"/>
<feGaussianBlur stdDeviation="250" result="effect1_foregroundBlur_3654_19701"/>
</filter>
<filter id="filter1_f_3654_19701" x="-93" y="269" width="792.058" height="550.072" filterUnits="userSpaceOnUse" color-interpolation-filters="sRGB">
<feFlood flood-opacity="0" result="BackgroundImageFix"/>
<feBlend mode="normal" in="SourceGraphic" in2="BackgroundImageFix" result="shape"/>
<feGaussianBlur stdDeviation="30" result="effect1_foregroundBlur_3654_19701"/>
</filter>
<filter id="filter2_f_3654_19701" x="1188" y="593" width="792.058" height="550.072" filterUnits="userSpaceOnUse" color-interpolation-filters="sRGB">
<feFlood flood-opacity="0" result="BackgroundImageFix"/>
<feBlend mode="normal" in="SourceGraphic" in2="BackgroundImageFix" result="shape"/>
<feGaussianBlur stdDeviation="30" result="effect1_foregroundBlur_3654_19701"/>
</filter>
</defs>
</svg>
