<svg width="320" height="200" viewBox="0 0 320 200" fill="none" xmlns="http://www.w3.org/2000/svg">
<path d="M330.85 66.9055L330.849 66.9051C303.298 50.9958 286.328 21.5857 286.328 -10.2339V-32.6408L286.727 -32.4102L295.996 -27.0578L326.568 -9.40421C349.923 4.08179 377.586 20.0559 395.636 30.4777C392.193 52.5917 385.529 72.6956 375.078 92.4468C370.334 89.7075 365.589 86.9682 360.844 84.2287C350.846 78.4558 340.845 72.6822 330.85 66.9055ZM69.1506 66.9051L69.1503 66.9053C59.409 72.5328 49.6681 78.1575 39.9288 83.7813C34.9262 86.67 29.924 89.5584 24.9224 92.4468C14.4706 72.6956 7.80748 52.5916 4.36428 30.4776C19.4205 21.7832 34.4772 13.0889 49.5339 4.39453C70.9157 -7.95221 92.2975 -20.299 113.678 -32.646V-10.2339C113.678 21.5854 96.7023 50.9956 69.1506 66.9051ZM76.6129 79.8375L75.613 78.1054L76.6129 79.8375C90.3925 71.8826 105.766 67.9053 121.141 67.9053C136.516 67.9053 151.889 71.8826 165.669 79.8375C169.38 81.9809 173.097 84.1273 176.814 86.2736C179.567 87.8628 182.319 89.452 185.069 91.04L184.668 91.2714L175.399 96.625L144.829 114.282C121.475 127.771 93.8138 143.747 75.7674 154.169C58.3357 140.136 44.2579 124.304 32.3842 105.38C39.5909 101.219 46.8013 97.0545 54.0115 92.8898C61.547 88.5371 69.0823 84.1846 76.6129 79.8375ZM323.387 79.8374L323.387 79.8375C330.924 84.1883 338.466 88.5448 346.009 92.9015C353.212 97.0623 360.416 101.223 367.615 105.379C355.735 124.304 341.664 140.136 324.239 154.169C299.764 140.032 275.289 125.898 250.814 111.764C238.852 104.856 226.891 97.9485 214.929 91.0404L221.012 87.528C225.907 84.702 231.507 81.4683 234.331 79.8374C261.883 63.9279 295.834 63.9279 323.387 79.8374ZM221.602 69.9439L222.602 71.6758L221.602 69.944C208.245 77.6595 191.773 77.6674 178.417 69.9538L173.075 66.8689C145.547 50.9675 128.604 21.5655 128.604 -10.2339V-16.3463C128.604 -31.7655 136.828 -46.0132 150.178 -53.7224L150.178 -53.7225L155.472 -56.7795L155.472 -56.7796C183.024 -72.6959 216.976 -72.6959 244.528 -56.7796L245.529 -58.5115L244.528 -56.7796C245.915 -55.9788 247.746 -54.9212 249.81 -53.7295C263.16 -46.0196 271.396 -31.7641 271.396 -16.3459V-10.2339C271.396 21.5853 254.421 50.9955 226.862 66.905L226.861 66.9056C225.48 67.7037 223.657 68.7571 221.602 69.9439ZM192.538 -197.935V-146.851C192.538 -115.031 175.562 -85.6213 148.01 -69.7119C143.228 -66.9511 138.446 -64.1894 133.665 -61.4279C131.978 -60.4534 130.291 -59.4789 128.604 -58.5044V-184.756C149.466 -192.836 170.213 -197.114 192.538 -197.935ZM42.7752 -8.93941L43.7754 -7.20747L42.7752 -8.93939C33.7683 -3.73776 24.7615 1.46399 15.7546 6.6658L2.5242 14.3068C-3.3591 -66.5847 40.7013 -142.921 113.678 -178.265V-131.778C113.678 -81.1024 86.6501 -34.2778 42.7752 -8.93941ZM88.8446 163.85C99.9676 157.427 114.356 149.118 129.095 140.607C172.97 115.272 227.028 115.271 270.903 140.607L277.16 144.22C288.492 150.763 299.823 157.307 311.155 163.85C244.061 209.383 155.939 209.383 88.8446 163.85ZM286.328 -131.776V-178.265C359.298 -142.921 403.359 -66.5847 397.476 14.3065C386.355 7.88304 371.972 -0.423935 357.237 -8.93307C313.362 -34.2708 286.328 -81.1 286.328 -131.776ZM267.928 -58.1949L268.928 -59.9269C266.183 -61.512 263.435 -63.0999 260.687 -64.6879C257.787 -66.3634 254.887 -68.0391 251.991 -69.7118C224.438 -85.6213 207.462 -115.031 207.462 -146.851V-197.935C229.793 -197.114 250.535 -192.837 271.396 -184.756V-58.5016L268.928 -59.9269L267.928 -58.1949Z" stroke="url(#paint0_linear_4799_31938)" stroke-width="4"/>
<defs>
<linearGradient id="paint0_linear_4799_31938" x1="200" y1="-200" x2="200" y2="200" gradientUnits="userSpaceOnUse">
<stop stop-color="#3E0002"/>
<stop offset="1" stop-color="#3E0002" stop-opacity="0"/>
</linearGradient>
</defs>
</svg>
