<svg width="656" height="463" viewBox="0 0 656 463" fill="none" xmlns="http://www.w3.org/2000/svg">
<g filter="url(#filter0_f_3444_18079)">
<g style="mix-blend-mode:screen">
<path d="M490.406 315.304C491.849 314.554 493.628 315.112 494.378 316.548C495.127 317.992 494.569 319.77 493.134 320.52C491.69 321.27 489.911 320.711 489.162 319.276C488.412 317.832 488.97 316.054 490.406 315.304Z" fill="white"/>
</g>
<g style="mix-blend-mode:screen">
<path d="M324.109 283.492C324.157 283.492 324.309 283.508 324.388 283.659C324.404 283.691 324.452 283.771 324.412 283.899C324.372 284.018 324.285 284.066 324.261 284.082C324.213 284.106 324.165 284.122 324.117 284.122C324.069 284.122 323.918 284.106 323.838 283.955C323.758 283.803 323.814 283.612 323.966 283.532C324.013 283.508 324.053 283.492 324.101 283.492L324.109 283.492Z" fill="white"/>
</g>
<g style="mix-blend-mode:screen">
<path d="M591.193 189.441C592.804 188.604 594.782 189.226 595.627 190.829C596.465 192.44 595.843 194.418 594.24 195.263C592.637 196.108 590.651 195.478 589.805 193.875C588.968 192.264 589.59 190.286 591.193 189.441Z" fill="white"/>
</g>
<g style="mix-blend-mode:screen">
<path d="M245.822 145.844C246.476 145.844 247.345 146.163 247.808 147.049C248.183 147.767 248.063 148.421 247.96 148.756C247.856 149.09 247.577 149.697 246.859 150.071C246.532 150.239 246.189 150.327 245.83 150.327C245.176 150.327 244.307 150.008 243.844 149.122C243.469 148.405 243.589 147.751 243.693 147.416C243.796 147.081 244.076 146.475 244.793 146.1C245.12 145.932 245.463 145.844 245.822 145.844Z" fill="white"/>
</g>
<g style="mix-blend-mode:screen">
<path d="M198.855 331.301C199.549 331.301 200.458 331.636 200.944 332.561C201.335 333.311 201.216 334.005 201.104 334.355C200.992 334.706 200.697 335.344 199.947 335.735C199.605 335.911 199.246 336.006 198.863 336.006C198.169 336.006 197.26 335.671 196.773 334.746C196.382 333.997 196.502 333.303 196.614 332.952C196.725 332.601 197.02 331.963 197.77 331.572C198.113 331.397 198.472 331.301 198.855 331.301Z" fill="white"/>
</g>
<g style="mix-blend-mode:screen">
<path d="M345.265 245.278C345.823 245.278 346.557 245.55 346.948 246.299C347.267 246.905 347.163 247.464 347.075 247.743C346.987 248.022 346.748 248.54 346.142 248.859C345.871 249.003 345.576 249.075 345.273 249.075C344.714 249.075 343.981 248.804 343.59 248.054C343.271 247.448 343.375 246.889 343.462 246.61C343.55 246.331 343.789 245.813 344.395 245.494C344.675 245.35 344.962 245.278 345.265 245.278Z" fill="white"/>
</g>
<g style="mix-blend-mode:screen">
<path d="M130.382 150.482C131.036 150.482 131.905 150.801 132.368 151.686C132.742 152.404 132.623 153.058 132.519 153.393C132.415 153.72 132.136 154.334 131.419 154.709C131.092 154.877 130.749 154.964 130.39 154.964C129.736 154.964 128.866 154.645 128.404 153.76C127.83 152.667 128.26 151.312 129.353 150.745C129.68 150.578 130.023 150.49 130.382 150.49L130.382 150.482Z" fill="white"/>
</g>
<g style="mix-blend-mode:screen">
<path d="M95.2872 210.399C96.8424 209.586 98.7565 210.192 99.562 211.739C100.376 213.294 99.7694 215.208 98.2222 216.014C96.667 216.827 94.7528 216.221 93.9473 214.674C93.1338 213.119 93.74 211.205 95.2872 210.399Z" fill="white"/>
</g>
<g style="mix-blend-mode:screen">
<path d="M274.358 221.202C274.964 220.883 275.722 221.123 276.041 221.729C276.36 222.335 276.121 223.093 275.515 223.412C274.909 223.731 274.151 223.491 273.832 222.885C273.513 222.279 273.752 221.522 274.358 221.202Z" fill="white"/>
</g>
<g style="mix-blend-mode:screen">
<path d="M244.123 284.409C245.511 283.683 247.218 284.217 247.944 285.605C248.669 286.993 248.135 288.699 246.747 289.425C245.36 290.151 243.653 289.616 242.927 288.229C242.201 286.841 242.736 285.134 244.123 284.409Z" fill="white"/>
</g>
<g style="mix-blend-mode:screen">
<path d="M413.764 268.841C414.426 268.49 415.247 268.754 415.598 269.416C415.949 270.078 415.686 270.899 415.024 271.25C414.362 271.601 413.54 271.338 413.189 270.676C412.839 270.014 413.102 269.192 413.764 268.841Z" fill="white"/>
</g>
<g style="mix-blend-mode:screen">
<path d="M432.185 68.864C433.629 68.1143 435.407 68.6726 436.157 70.1081C436.907 71.5517 436.348 73.3302 434.913 74.0799C433.469 74.8296 431.691 74.2713 430.941 72.8357C430.191 71.3922 430.75 69.6137 432.185 68.864Z" fill="white"/>
</g>
<g style="mix-blend-mode:screen">
<path d="M304.213 183.808C306.039 182.851 308.296 183.561 309.254 185.387C310.211 187.214 309.501 189.471 307.674 190.428C305.848 191.385 303.591 190.675 302.634 188.849C301.677 187.022 302.387 184.765 304.213 183.808Z" fill="white"/>
</g>
<g style="mix-blend-mode:screen">
<path d="M61.2156 267.378C61.5745 267.378 62.045 267.554 62.3002 268.032C62.6113 268.622 62.38 269.364 61.7818 269.675C61.6064 269.771 61.415 269.811 61.2235 269.811C60.8647 269.811 60.3941 269.635 60.1389 269.157C59.9475 268.79 59.9874 268.447 60.0591 268.231C60.1309 268.016 60.2904 267.713 60.6573 267.514C60.8328 267.418 61.0242 267.37 61.2156 267.37L61.2156 267.378Z" fill="white"/>
</g>
<g style="mix-blend-mode:screen">
<path d="M349.369 118.25C351.028 117.381 353.086 118.027 353.955 119.686C354.824 121.352 354.178 123.402 352.519 124.271C350.86 125.141 348.803 124.495 347.933 122.836C347.064 121.169 347.71 119.119 349.369 118.25Z" fill="white"/>
</g>
<g style="mix-blend-mode:screen">
<path d="M439.096 169.916C441.425 168.696 444.296 169.597 445.516 171.926C446.737 174.255 445.835 177.126 443.507 178.346C441.178 179.567 438.306 178.665 437.086 176.337C435.866 174.008 436.767 171.137 439.096 169.916Z" fill="white"/>
</g>
<g style="mix-blend-mode:screen">
<path d="M422.472 368.788C423.692 368.15 425.199 368.62 425.837 369.84C426.475 371.061 426.005 372.568 424.785 373.206C423.564 373.844 422.057 373.374 421.419 372.153C420.781 370.933 421.252 369.426 422.472 368.788Z" fill="white"/>
</g>
<g style="mix-blend-mode:screen">
<path d="M190.307 190.591C190.929 190.591 191.75 190.894 192.197 191.731C192.556 192.409 192.436 193.039 192.341 193.35C192.245 193.661 191.974 194.244 191.296 194.595C190.985 194.754 190.658 194.842 190.315 194.842C189.693 194.842 188.871 194.539 188.433 193.701C188.074 193.023 188.193 192.393 188.289 192.082C188.385 191.771 188.656 191.189 189.334 190.838C189.645 190.679 189.972 190.599 190.307 190.599L190.307 190.591Z" fill="white"/>
</g>
<g style="mix-blend-mode:screen">
<path d="M215.173 400.436C215.835 400.085 216.656 400.348 217.007 401.01C217.358 401.672 217.095 402.493 216.433 402.844C215.771 403.195 214.95 402.932 214.599 402.27C214.248 401.608 214.511 400.787 215.173 400.436Z" fill="white"/>
</g>
<g style="mix-blend-mode:screen">
<path d="M186.134 280.38C186.907 279.974 187.865 280.277 188.271 281.05C188.678 281.824 188.375 282.781 187.601 283.188C186.828 283.595 185.871 283.291 185.464 282.518C185.057 281.744 185.36 280.787 186.134 280.38Z" fill="white"/>
</g>
<g style="mix-blend-mode:screen">
<path d="M260.947 60.5049C263.108 59.3724 265.78 60.2098 266.904 62.3711C268.037 64.5325 267.199 67.2042 265.038 68.3287C262.877 69.4533 260.205 68.6238 259.08 66.4625C257.948 64.3012 258.785 61.6294 260.947 60.5049Z" fill="white"/>
</g>
<g style="mix-blend-mode:screen">
<path d="M302.881 334.424C305.154 333.236 307.961 334.113 309.15 336.386C310.338 338.659 309.461 341.466 307.188 342.655C304.915 343.843 302.107 342.966 300.919 340.693C299.731 338.42 300.608 335.612 302.881 334.424Z" fill="white"/>
</g>
<g style="mix-blend-mode:screen">
<path d="M90.2288 318.974C91.3374 318.392 92.7092 318.823 93.2834 319.931C93.8656 321.04 93.4349 322.412 92.3263 322.986C91.2178 323.568 89.846 323.138 89.2717 322.029C88.6895 320.92 89.1202 319.549 90.2288 318.974Z" fill="white"/>
</g>
</g>
<g style="mix-blend-mode:screen">
<path d="M490.868 316.191C491.824 315.695 492.998 316.067 493.491 317.01C493.987 317.966 493.615 319.14 492.672 319.633C491.715 320.129 490.542 319.757 490.049 318.814C489.553 317.857 489.925 316.684 490.868 316.191Z" fill="#191919"/>
<path d="M490.868 316.191C491.824 315.695 492.998 316.067 493.491 317.01C493.987 317.966 493.615 319.14 492.672 319.633C491.715 320.129 490.542 319.757 490.049 318.814C489.553 317.857 489.925 316.684 490.868 316.191Z" stroke="black" stroke-width="2"/>
</g>
<g style="mix-blend-mode:screen">
<mask id="path-25-inside-1_3444_18079" fill="white">
<path d="M324.109 283.492C324.157 283.492 324.309 283.508 324.388 283.659C324.404 283.691 324.452 283.771 324.412 283.899C324.372 284.018 324.285 284.066 324.261 284.082C324.213 284.106 324.165 284.122 324.117 284.122C324.069 284.122 323.918 284.106 323.838 283.955C323.758 283.803 323.814 283.612 323.966 283.532C324.013 283.508 324.053 283.492 324.101 283.492L324.109 283.492Z"/>
</mask>
<path d="M324.109 283.492C324.157 283.492 324.309 283.508 324.388 283.659C324.404 283.691 324.452 283.771 324.412 283.899C324.372 284.018 324.285 284.066 324.261 284.082C324.213 284.106 324.165 284.122 324.117 284.122C324.069 284.122 323.918 284.106 323.838 283.955C323.758 283.803 323.814 283.612 323.966 283.532C324.013 283.508 324.053 283.492 324.101 283.492L324.109 283.492Z" fill="#191919"/>
<path d="M324.388 283.659L326.177 282.765L326.168 282.746L326.158 282.728L324.388 283.659ZM324.412 283.899L326.31 284.531L326.316 284.513L326.321 284.495L324.412 283.899ZM324.261 284.082L325.155 285.871L325.266 285.815L325.37 285.746L324.261 284.082ZM323.966 283.532L323.071 281.743L323.053 281.752L323.034 281.762L323.966 283.532ZM324.109 285.492C323.948 285.492 323.714 285.47 323.453 285.359C323.158 285.233 322.828 284.989 322.618 284.591L326.158 282.728C325.553 281.578 324.412 281.492 324.109 281.492L324.109 285.492ZM322.599 284.554C322.643 284.641 322.526 284.431 322.47 284.182C322.406 283.899 322.413 283.592 322.503 283.302L326.321 284.495C326.452 284.077 326.454 283.668 326.372 283.304C326.299 282.976 326.149 282.71 326.177 282.765L322.599 284.554ZM322.515 283.266C322.614 282.969 322.781 282.745 322.94 282.591C323.077 282.459 323.259 282.346 323.151 282.418L325.37 285.746C325.286 285.802 325.524 285.657 325.721 285.467C325.94 285.256 326.171 284.948 326.31 284.531L322.515 283.266ZM323.366 282.293C323.455 282.249 323.728 282.122 324.117 282.122L324.117 286.122C324.602 286.122 324.971 285.963 325.155 285.871L323.366 282.293ZM324.117 282.122C324.278 282.122 324.512 282.144 324.773 282.255C325.068 282.381 325.398 282.625 325.608 283.023L322.068 284.886C322.673 286.036 323.814 286.122 324.117 286.122L324.117 282.122ZM325.608 283.023C326.024 283.813 325.758 284.848 324.897 285.302L323.034 281.762C321.87 282.375 321.493 283.793 322.068 284.886L325.608 283.023ZM324.86 285.321C324.847 285.327 324.539 285.492 324.101 285.492L324.101 281.492C323.568 281.492 323.18 281.689 323.071 281.743L324.86 285.321ZM324.101 285.492L324.109 285.492L324.109 281.492L324.101 281.492L324.101 285.492Z" fill="black" mask="url(#path-25-inside-1_3444_18079)"/>
</g>
<g style="mix-blend-mode:screen">
<path d="M590.691 193.412C590.111 192.291 590.542 190.917 591.657 190.327C592.777 189.746 594.152 190.178 594.742 191.293C595.323 192.414 594.89 193.79 593.773 194.379C592.667 194.962 591.284 194.531 590.691 193.412Z" fill="#191919"/>
<path d="M590.691 193.412C590.111 192.291 590.542 190.917 591.657 190.327C592.777 189.746 594.152 190.178 594.742 191.293C595.323 192.414 594.89 193.79 593.773 194.379C592.667 194.962 591.284 194.531 590.691 193.412Z" stroke="black" stroke-width="2"/>
</g>
<g style="mix-blend-mode:screen">
<path d="M245.822 146.844C246.193 146.844 246.669 147.029 246.922 147.512L244.731 148.659C244.525 148.265 244.586 147.91 244.648 147.711C244.706 147.523 244.858 147.195 245.253 146.988C245.448 146.889 245.634 146.844 245.822 146.844ZM246.922 147.512C247.128 147.907 247.066 148.261 247.004 148.46C246.946 148.648 246.794 148.976 246.4 149.183C246.205 149.282 246.018 149.327 245.83 149.327C245.46 149.327 244.983 149.143 244.731 148.659L246.922 147.512Z" fill="#191919"/>
<path d="M245.822 146.844C246.193 146.844 246.669 147.029 246.922 147.512L244.731 148.659C244.525 148.265 244.586 147.91 244.648 147.711C244.706 147.523 244.858 147.195 245.253 146.988C245.448 146.889 245.634 146.844 245.822 146.844ZM246.922 147.512C247.128 147.907 247.066 148.261 247.004 148.46C246.946 148.648 246.794 148.976 246.4 149.183C246.205 149.282 246.018 149.327 245.83 149.327C245.46 149.327 244.983 149.143 244.731 148.659L246.922 147.512Z" stroke="black" stroke-width="2"/>
</g>
<g style="mix-blend-mode:screen">
<path d="M198.855 332.301C199.266 332.301 199.782 332.501 200.058 333.025C200.282 333.455 200.215 333.851 200.151 334.052C200.084 334.264 199.914 334.624 199.489 334.847C199.272 334.957 199.07 335.006 198.863 335.006C198.452 335.006 197.935 334.806 197.659 334.282C197.435 333.852 197.503 333.457 197.567 333.255C197.634 333.043 197.804 332.684 198.229 332.46C198.445 332.35 198.648 332.301 198.855 332.301Z" fill="#191919"/>
<path d="M198.855 332.301C199.266 332.301 199.782 332.501 200.058 333.025C200.282 333.455 200.215 333.851 200.151 334.052C200.084 334.264 199.914 334.624 199.489 334.847C199.272 334.957 199.07 335.006 198.863 335.006C198.452 335.006 197.935 334.806 197.659 334.282C197.435 333.852 197.503 333.457 197.567 333.255C197.634 333.043 197.804 332.684 198.229 332.46C198.445 332.35 198.648 332.301 198.855 332.301Z" stroke="black" stroke-width="2"/>
</g>
<g style="mix-blend-mode:screen">
<path d="M346.061 246.762L346.061 246.762L346.063 246.765C346.21 247.045 346.166 247.301 346.121 247.443C346.078 247.58 345.964 247.823 345.676 247.974L345.676 247.974L345.674 247.976C345.549 248.042 345.415 248.075 345.273 248.075C344.999 248.075 344.658 247.939 344.477 247.592L344.477 247.592L344.475 247.588C344.327 247.308 344.372 247.053 344.416 246.91C344.459 246.774 344.573 246.532 344.857 246.381C345 246.308 345.13 246.278 345.265 246.278C345.539 246.278 345.88 246.414 346.061 246.762Z" fill="#191919"/>
<path d="M346.061 246.762L346.061 246.762L346.063 246.765C346.21 247.045 346.166 247.301 346.121 247.443C346.078 247.58 345.964 247.823 345.676 247.974L345.676 247.974L345.674 247.976C345.549 248.042 345.415 248.075 345.273 248.075C344.999 248.075 344.658 247.939 344.477 247.592L344.477 247.592L344.475 247.588C344.327 247.308 344.372 247.053 344.416 246.91C344.459 246.774 344.573 246.532 344.857 246.381C345 246.308 345.13 246.278 345.265 246.278C345.539 246.278 345.88 246.414 346.061 246.762Z" stroke="black" stroke-width="2"/>
</g>
<g style="mix-blend-mode:screen">
<path d="M129.29 153.297L129.29 153.297C129.543 153.78 130.019 153.964 130.39 153.964C130.578 153.964 130.764 153.92 130.959 153.821C131.348 153.616 131.504 153.286 131.565 153.094C131.626 152.895 131.686 152.542 131.481 152.15L129.29 153.297ZM129.29 153.297L129.289 153.295M129.29 153.297L129.289 153.295M129.289 153.295C128.974 152.696 129.21 151.947 129.811 151.634C130.006 151.535 130.193 151.49 130.382 151.49L130.518 151.49M129.289 153.295L130.518 151.49M130.518 151.49C130.862 151.53 131.259 151.724 131.481 152.149L130.518 151.49Z" fill="#191919"/>
<path d="M129.29 153.297L129.29 153.297C129.543 153.78 130.019 153.964 130.39 153.964C130.578 153.964 130.764 153.92 130.959 153.821C131.348 153.616 131.504 153.286 131.565 153.094C131.626 152.895 131.686 152.542 131.481 152.15L129.29 153.297ZM129.29 153.297L129.289 153.295M129.29 153.297L129.289 153.295M129.289 153.295C128.974 152.696 129.21 151.947 129.811 151.634C130.006 151.535 130.193 151.49 130.382 151.49L130.518 151.49M129.289 153.295L130.518 151.49M130.518 151.49C130.862 151.53 131.259 151.724 131.481 152.149L130.518 151.49Z" stroke="black" stroke-width="2"/>
</g>
<g style="mix-blend-mode:screen">
<path d="M95.749 211.286L95.7507 211.285C96.8155 210.728 98.1247 211.144 98.6751 212.201L98.6759 212.202C99.2329 213.267 98.8175 214.576 97.7604 215.127L97.7604 215.127L97.7587 215.128C96.6939 215.685 95.3846 215.269 94.8343 214.212L94.8334 214.21C94.2764 213.146 94.6919 211.836 95.749 211.286Z" fill="#191919"/>
<path d="M95.749 211.286L95.7507 211.285C96.8155 210.728 98.1247 211.144 98.6751 212.201L98.6759 212.202C99.2329 213.267 98.8175 214.576 97.7604 215.127L97.7604 215.127L97.7587 215.128C96.6939 215.685 95.3846 215.269 94.8343 214.212L94.8334 214.21C94.2764 213.146 94.6919 211.836 95.749 211.286Z" stroke="black" stroke-width="2"/>
</g>
<g style="mix-blend-mode:screen">
<path d="M274.824 222.087C274.936 222.028 275.092 222.072 275.156 222.195C275.215 222.307 275.172 222.462 275.049 222.527C274.937 222.586 274.781 222.542 274.717 222.42C274.658 222.307 274.701 222.152 274.824 222.087Z" fill="#191919"/>
<path d="M274.824 222.087C274.936 222.028 275.092 222.072 275.156 222.195C275.215 222.307 275.172 222.462 275.049 222.527C274.937 222.586 274.781 222.542 274.717 222.42C274.658 222.307 274.701 222.152 274.824 222.087Z" stroke="black" stroke-width="2"/>
</g>
<g style="mix-blend-mode:screen">
<path d="M244.587 285.295C245.485 284.825 246.588 285.17 247.057 286.068C247.527 286.967 247.182 288.069 246.284 288.539C245.385 289.009 244.283 288.664 243.813 287.765C243.343 286.867 243.689 285.764 244.587 285.295Z" fill="#191919"/>
<path d="M244.587 285.295C245.485 284.825 246.588 285.17 247.057 286.068C247.527 286.967 247.182 288.069 246.284 288.539C245.385 289.009 244.283 288.664 243.813 287.765C243.343 286.867 243.689 285.764 244.587 285.295Z" stroke="black" stroke-width="2"/>
</g>
<g style="mix-blend-mode:screen">
<path d="M414.232 269.725C414.394 269.639 414.616 269.697 414.715 269.884C414.8 270.046 414.742 270.267 414.555 270.366C414.394 270.452 414.172 270.394 414.073 270.207C413.987 270.046 414.046 269.824 414.232 269.725Z" fill="#191919"/>
<path d="M414.232 269.725C414.394 269.639 414.616 269.697 414.715 269.884C414.8 270.046 414.742 270.267 414.555 270.366C414.394 270.452 414.172 270.394 414.073 270.207C413.987 270.046 414.046 269.824 414.232 269.725Z" stroke="black" stroke-width="2"/>
</g>
<g style="mix-blend-mode:screen">
<path d="M432.647 69.7509C433.603 69.255 434.777 69.6268 435.27 70.57C435.766 71.5262 435.394 72.6997 434.451 73.1929C433.495 73.6889 432.321 73.317 431.828 72.3738C431.332 71.4176 431.704 70.2442 432.647 69.7509Z" fill="#191919"/>
<path d="M432.647 69.7509C433.603 69.255 434.777 69.6268 435.27 70.57C435.766 71.5262 435.394 72.6997 434.451 73.1929C433.495 73.6889 432.321 73.317 431.828 72.3738C431.332 71.4176 431.704 70.2442 432.647 69.7509Z" stroke="black" stroke-width="2"/>
</g>
<g style="mix-blend-mode:screen">
<path d="M304.677 184.694C306.012 183.994 307.666 184.512 308.368 185.852C309.067 187.187 308.549 188.84 307.21 189.542C305.875 190.242 304.221 189.724 303.52 188.385C302.82 187.049 303.338 185.396 304.677 184.694Z" fill="#191919"/>
<path d="M304.677 184.694C306.012 183.994 307.666 184.512 308.368 185.852C309.067 187.187 308.549 188.84 307.21 189.542C305.875 190.242 304.221 189.724 303.52 188.385C302.82 187.049 303.338 185.396 304.677 184.694Z" stroke="black" stroke-width="2"/>
</g>
<g style="mix-blend-mode:screen">
<path d="M61.1362 268.392C61.1467 268.386 61.157 268.381 61.167 268.378L61.2156 268.378C61.2404 268.378 61.2848 268.386 61.3262 268.408C61.3588 268.425 61.3897 268.451 61.4166 268.5C61.4663 268.597 61.4285 268.732 61.3205 268.788L61.3117 268.792L61.303 268.797C61.2974 268.8 61.2759 268.811 61.2235 268.811C61.1987 268.811 61.1543 268.803 61.1129 268.781C61.0807 268.763 61.0501 268.738 61.0234 268.69C61.0042 268.652 61.0004 268.625 60.9998 268.606C60.9991 268.582 61.0037 268.56 61.0078 268.548C61.0184 268.516 61.0326 268.487 61.0506 268.463C61.0659 268.442 61.0895 268.417 61.1348 268.392L61.1348 268.392L61.1362 268.392Z" fill="#191919"/>
<path d="M61.1362 268.392C61.1467 268.386 61.157 268.381 61.167 268.378L61.2156 268.378C61.2404 268.378 61.2848 268.386 61.3262 268.408C61.3588 268.425 61.3897 268.451 61.4166 268.5C61.4663 268.597 61.4285 268.732 61.3205 268.788L61.3117 268.792L61.303 268.797C61.2974 268.8 61.2759 268.811 61.2235 268.811C61.1987 268.811 61.1543 268.803 61.1129 268.781C61.0807 268.763 61.0501 268.738 61.0234 268.69C61.0042 268.652 61.0004 268.625 60.9998 268.606C60.9991 268.582 61.0037 268.56 61.0078 268.548C61.0184 268.516 61.0326 268.487 61.0506 268.463C61.0659 268.442 61.0895 268.417 61.1348 268.392L61.1348 268.392L61.1362 268.392Z" stroke="black" stroke-width="2"/>
</g>
<g style="mix-blend-mode:screen">
<path d="M349.833 119.136C351.001 118.524 352.455 118.978 353.069 120.149C353.682 121.326 353.226 122.772 352.055 123.386C350.887 123.998 349.434 123.543 348.82 122.373C348.206 121.195 348.663 119.749 349.833 119.136Z" fill="#191919"/>
<path d="M349.833 119.136C351.001 118.524 352.455 118.978 353.069 120.149C353.682 121.326 353.226 122.772 352.055 123.386C350.887 123.998 349.434 123.543 348.82 122.373C348.206 121.195 348.663 119.749 349.833 119.136Z" stroke="black" stroke-width="2"/>
</g>
<g style="mix-blend-mode:screen">
<path d="M439.56 170.802C441.398 169.839 443.666 170.549 444.631 172.39C445.594 174.229 444.883 176.496 443.042 177.461C441.204 178.424 438.937 177.714 437.972 175.873C437.009 174.034 437.719 171.767 439.56 170.802Z" fill="#191919"/>
<path d="M439.56 170.802C441.398 169.839 443.666 170.549 444.631 172.39C445.594 174.229 444.883 176.496 443.042 177.461C441.204 178.424 438.937 177.714 437.972 175.873C437.009 174.034 437.719 171.767 439.56 170.802Z" stroke="black" stroke-width="2"/>
</g>
<g style="mix-blend-mode:screen">
<path d="M422.935 369.674C423.667 369.291 424.57 369.574 424.951 370.304C425.334 371.036 425.051 371.938 424.321 372.32C423.589 372.703 422.687 372.42 422.305 371.69C421.922 370.958 422.205 370.055 422.935 369.674Z" fill="#191919"/>
<path d="M422.935 369.674C423.667 369.291 424.57 369.574 424.951 370.304C425.334 371.036 425.051 371.938 424.321 372.32C423.589 372.703 422.687 372.42 422.305 371.69C421.922 370.958 422.205 370.055 422.935 369.674Z" stroke="black" stroke-width="2"/>
</g>
<g style="mix-blend-mode:screen">
<path d="M189.318 193.237L189.318 193.237L189.316 193.233C189.132 192.886 189.188 192.561 189.245 192.376C189.294 192.215 189.437 191.911 189.792 191.727C189.966 191.638 190.136 191.599 190.307 191.599L190.436 191.599C190.748 191.637 191.106 191.813 191.314 192.201C191.497 192.548 191.441 192.872 191.385 193.056C191.335 193.218 191.192 193.521 190.838 193.706C190.651 193.801 190.48 193.842 190.315 193.842C189.977 193.842 189.547 193.674 189.318 193.237Z" fill="#191919"/>
<path d="M189.318 193.237L189.318 193.237L189.316 193.233C189.132 192.886 189.188 192.561 189.245 192.376C189.294 192.215 189.437 191.911 189.792 191.727C189.966 191.638 190.136 191.599 190.307 191.599L190.436 191.599C190.748 191.637 191.106 191.813 191.314 192.201C191.497 192.548 191.441 192.872 191.385 193.056C191.335 193.218 191.192 193.521 190.838 193.706C190.651 193.801 190.48 193.842 190.315 193.842C189.977 193.842 189.547 193.674 189.318 193.237Z" stroke="black" stroke-width="2"/>
</g>
<g style="mix-blend-mode:screen">
<path d="M215.641 401.319C215.803 401.233 216.025 401.292 216.124 401.478C216.209 401.64 216.151 401.862 215.965 401.961C215.803 402.046 215.581 401.988 215.482 401.802C215.397 401.64 215.455 401.418 215.641 401.319Z" fill="#191919"/>
<path d="M215.641 401.319C215.803 401.233 216.025 401.292 216.124 401.478C216.209 401.64 216.151 401.862 215.965 401.961C215.803 402.046 215.581 401.988 215.482 401.802C215.397 401.64 215.455 401.418 215.641 401.319Z" stroke="black" stroke-width="2"/>
</g>
<g style="mix-blend-mode:screen">
<path d="M186.599 281.266C186.878 281.119 187.234 281.225 187.386 281.516C187.533 281.795 187.426 282.15 187.136 282.303C186.857 282.449 186.502 282.343 186.349 282.052C186.202 281.773 186.309 281.418 186.599 281.266Z" fill="#191919"/>
<path d="M186.599 281.266C186.878 281.119 187.234 281.225 187.386 281.516C187.533 281.795 187.426 282.15 187.136 282.303C186.857 282.449 186.502 282.343 186.349 282.052C186.202 281.773 186.309 281.418 186.599 281.266Z" stroke="black" stroke-width="2"/>
</g>
<g style="mix-blend-mode:screen">
<path d="M261.408 61.392L261.408 61.392L261.411 61.3907C263.083 60.5145 265.149 61.1633 266.017 62.8327L266.017 62.8327L266.019 62.8353C266.895 64.5073 266.246 66.573 264.576 67.4416C262.9 68.3138 260.835 67.6675 259.967 66.0009L259.967 66.0009L259.966 65.9984C259.09 64.3263 259.739 62.2606 261.408 61.392Z" fill="#191919"/>
<path d="M261.408 61.392L261.408 61.392L261.411 61.3907C263.083 60.5145 265.149 61.1633 266.017 62.8327L266.017 62.8327L266.019 62.8353C266.895 64.5073 266.246 66.573 264.576 67.4416C262.9 68.3138 260.835 67.6675 259.967 66.0009L259.967 66.0009L259.966 65.9984C259.09 64.3263 259.739 62.2606 261.408 61.392Z" stroke="black" stroke-width="2"/>
</g>
<g style="mix-blend-mode:screen">
<path d="M303.344 335.31C305.129 334.377 307.332 335.067 308.264 336.849C309.196 338.634 308.507 340.836 306.724 341.768C304.94 342.701 302.737 342.012 301.805 340.229C300.872 338.445 301.562 336.242 303.344 335.31Z" fill="#191919"/>
<path d="M303.344 335.31C305.129 334.377 307.332 335.067 308.264 336.849C309.196 338.634 308.507 340.836 306.724 341.768C304.94 342.701 302.737 342.012 301.805 340.229C300.872 338.445 301.562 336.242 303.344 335.31Z" stroke="black" stroke-width="2"/>
</g>
<g style="mix-blend-mode:screen">
<path d="M90.6887 319.862L90.6887 319.862L90.6937 319.86C91.3128 319.535 92.077 319.777 92.3954 320.391L92.3954 320.391L92.3981 320.396C92.7232 321.015 92.4812 321.78 91.8664 322.098L91.8664 322.098L91.8614 322.101C91.2423 322.426 90.4781 322.184 90.1597 321.569L90.1597 321.569L90.157 321.564C89.8319 320.945 90.0739 320.181 90.6887 319.862Z" fill="#191919"/>
<path d="M90.6887 319.862L90.6887 319.862L90.6937 319.86C91.3128 319.535 92.077 319.777 92.3954 320.391L92.3954 320.391L92.3981 320.396C92.7232 321.015 92.4812 321.78 91.8664 322.098L91.8664 322.098L91.8614 322.101C91.2423 322.426 90.4781 322.184 90.1597 321.569L90.1597 321.569L90.157 321.564C89.8319 320.945 90.0739 320.181 90.6887 319.862Z" stroke="black" stroke-width="2"/>
</g>
<defs>
<filter id="filter0_f_3444_18079" x="0" y="0" width="656" height="463" filterUnits="userSpaceOnUse" color-interpolation-filters="sRGB">
<feFlood flood-opacity="0" result="BackgroundImageFix"/>
<feBlend mode="normal" in="SourceGraphic" in2="BackgroundImageFix" result="shape"/>
<feGaussianBlur stdDeviation="30" result="effect1_foregroundBlur_3444_18079"/>
</filter>
</defs>
</svg>
