<svg width="140" height="140" viewBox="0 0 140 140" fill="none" xmlns="http://www.w3.org/2000/svg">
<path fill-rule="evenodd" clip-rule="evenodd" d="M64.9713 134.167C49.4828 134.167 36.8104 121.384 36.8104 105.648C36.8104 97.5511 40.2299 89.8613 46.1638 84.5141L46.5158 84.2085L46.8678 83.4446V24.1668C46.8678 14.0835 54.9641 5.8335 64.9713 5.8335C74.9785 5.8335 83.0747 14.0326 83.0747 24.1668V83.9029L83.4267 84.2085C89.7126 89.8613 93.1322 97.5511 93.1322 105.648C93.1322 121.333 80.5101 134.167 64.9713 134.167ZM64.9713 11.9446C58.3333 11.9446 52.9023 17.4446 52.9023 24.1668V85.3798C52.9023 86.3474 52.4497 87.2641 51.6954 87.8242C46.1638 92.0002 42.8448 98.6715 42.8448 105.648C42.8448 118.023 52.7515 128.056 64.9713 128.056C77.1911 128.056 87.0977 118.023 87.0977 105.648C87.0977 98.6715 83.7787 92.0002 78.2471 87.8242C77.4928 87.2641 77.0402 86.3474 77.0402 85.3798V24.1668C77.0402 17.4446 71.6092 11.9446 64.9713 11.9446ZM11.667 35.0002C11.667 41.4168 16.917 46.6668 23.3337 46.6668C29.7503 46.6668 35.0003 41.4168 35.0003 35.0002C35.0003 28.5835 29.7503 23.3335 23.3337 23.3335C16.917 23.3335 11.667 28.5835 11.667 35.0002ZM17.0516 35.0002C17.0516 31.545 19.8785 28.7181 23.3337 28.7181C26.7888 28.7181 29.6157 31.545 29.6157 35.0002C29.6157 38.4553 26.7888 41.2822 23.3337 41.2822C19.8785 41.2822 17.0516 38.4553 17.0516 35.0002ZM93.3337 61.3891C93.3337 63.0696 94.6914 64.4446 96.3509 64.4446H116.466C118.125 64.4446 119.483 63.0696 119.483 61.3891C119.483 59.7085 118.125 58.3335 116.466 58.3335H96.3509C94.6914 58.3335 93.3337 59.7085 93.3337 61.3891ZM96.2503 47.5926C94.6462 47.5926 93.3337 46.2176 93.3337 44.537C93.3337 42.8565 94.6462 41.4815 96.2503 41.4815H125.417C127.021 41.4815 128.334 42.8565 128.334 44.537C128.334 46.2176 127.021 47.5926 125.417 47.5926H96.2503ZM93.3337 26.3891C93.3337 28.0696 94.6914 29.4446 96.3509 29.4446H111.437C113.097 29.4446 114.454 28.0696 114.454 26.3891C114.454 24.7085 113.097 23.3335 111.437 23.3335H96.3509C94.6914 23.3335 93.3337 24.7085 93.3337 26.3891ZM52.6512 110.079C54.4616 115.325 59.44 118.889 64.9716 118.889H65.0722C72.213 118.889 78.0966 112.982 78.0966 105.7C78.0966 100.098 74.6268 95.107 69.3969 93.2228L68.0392 92.7644V39.445C68.0392 37.7644 66.6814 36.3894 65.0219 36.3894C63.3624 36.3894 62.0047 37.7644 62.0047 39.445V92.8154L60.6469 93.2737C57.3279 94.445 54.713 96.8385 53.2044 99.9959C51.6958 103.153 51.4946 106.769 52.6512 110.079Z" fill="url(#paint0_linear_4080_16471)" fill-opacity="0.4"/>
<defs>
<linearGradient id="paint0_linear_4080_16471" x1="70.0003" y1="5.8335" x2="70.0003" y2="134.167" gradientUnits="userSpaceOnUse">
<stop stop-color="white"/>
<stop offset="1" stop-color="white" stop-opacity="0.1"/>
</linearGradient>
</defs>
</svg>
