<svg width="1320" height="525" viewBox="0 0 1320 525" fill="none" xmlns="http://www.w3.org/2000/svg">
<mask id="mask0_3876_11340" style="mask-type:alpha" maskUnits="userSpaceOnUse" x="0" y="-795" width="1320" height="1320">
<path fill-rule="evenodd" clip-rule="evenodd" d="M0 347.969C533.844 14.1875 640.062 -263.219 660 -795C679.938 -263.219 786.156 14.1875 1320 347.969V525H660H0V347.969Z" fill="url(#paint0_linear_3876_11340)"/>
</mask>
<g mask="url(#mask0_3876_11340)">
<path fill-rule="evenodd" clip-rule="evenodd" d="M0 347.969C533.844 14.1875 640.062 -263.219 660 -795C679.938 -263.219 786.156 14.1875 1320 347.969V525H660H0V347.969Z" fill="url(#paint1_radial_3876_11340)" fill-opacity="0.3"/>
<path d="M660 -795L661.999 -795.075H658.001L660 -795ZM0 347.969L-1.06029 346.273L-2 346.86V347.969H0ZM1320 347.969H1322V346.86L1321.06 346.273L1320 347.969ZM1320 525V527H1322V525H1320ZM0 525H-2V527H0V525ZM658.001 -795.075C648.036 -529.272 616.51 -327.35 520.955 -150.215C425.408 26.9039 265.714 179.475 -1.06029 346.273L1.06029 349.665C268.13 182.682 428.467 29.6586 524.475 -148.316C620.475 -326.275 652.027 -528.947 661.999 -794.925L658.001 -795.075ZM658.001 -794.925C667.973 -528.947 699.525 -326.275 795.525 -148.316C891.533 29.6586 1051.87 182.682 1318.94 349.665L1321.06 346.273C1054.29 179.475 894.592 26.9039 799.045 -150.215C703.49 -327.35 671.964 -529.272 661.999 -795.075L658.001 -794.925ZM1318 347.969V525H1322V347.969H1318ZM1320 523H660V527H1320V523ZM0 527H660V523H0V527ZM-2 347.969V525H2V347.969H-2Z" fill="url(#paint2_linear_3876_11340)" fill-opacity="0.8"/>
<path opacity="0.75" d="M206.25 347.969C573.268 14.1875 646.293 -263.219 660 -795C673.707 -263.219 746.732 14.1875 1113.75 347.969V525H206.25V347.969Z" stroke="url(#paint3_linear_3876_11340)" stroke-opacity="0.8" stroke-width="2"/>
<path opacity="0.5" d="M412.5 347.969C612.691 14.1875 652.523 -263.219 660 -795C667.477 -263.219 707.309 14.1875 907.5 347.969V525H412.5V347.969Z" stroke="url(#paint4_linear_3876_11340)" stroke-opacity="0.8" stroke-width="2"/>
<g filter="url(#filter0_f_3876_11340)">
<path d="M352.688 217.599C601.258 -78.1105 650.717 -323.875 660 -795C669.283 -323.875 718.742 -78.1105 967.312 217.599V374.438H352.688V217.599Z" fill="url(#paint5_radial_3876_11340)"/>
</g>
<g filter="url(#filter1_f_3876_11340)">
<path fill-rule="evenodd" clip-rule="evenodd" d="M660 -657.5C649.865 -252.77 595.871 -41.6401 324.5 212.396V347.131H375.11C375.087 347.157 375.064 347.182 375.041 347.207H374.037V348.312C374.372 347.944 374.707 347.576 375.041 347.207H944.958C945.293 347.576 945.628 347.944 945.963 348.312V347.207H944.958C944.935 347.182 944.913 347.157 944.89 347.131H995.5V212.396C724.129 -41.6401 670.135 -252.77 660 -657.5ZM660 -657.5C668.625 -253.366 714.518 93.1826 944.89 347.131H375.11C605.482 93.1826 651.375 -253.366 660 -657.5Z" fill="url(#paint6_linear_3876_11340)"/>
</g>
<g filter="url(#filter2_f_3876_11340)">
<path d="M528 55.083C634.769 -193.167 656.012 -399.488 660 -795C663.988 -399.488 685.231 -193.167 792 55.083V186.75H528V55.083Z" fill="url(#paint7_radial_3876_11340)"/>
</g>
</g>
<defs>
<filter id="filter0_f_3876_11340" x="272.688" y="-875" width="774.625" height="1329.44" filterUnits="userSpaceOnUse" color-interpolation-filters="sRGB">
<feFlood flood-opacity="0" result="BackgroundImageFix"/>
<feBlend mode="normal" in="SourceGraphic" in2="BackgroundImageFix" result="shape"/>
<feGaussianBlur stdDeviation="40" result="effect1_foregroundBlur_3876_11340"/>
</filter>
<filter id="filter1_f_3876_11340" x="224.5" y="-757.5" width="871" height="1205.81" filterUnits="userSpaceOnUse" color-interpolation-filters="sRGB">
<feFlood flood-opacity="0" result="BackgroundImageFix"/>
<feBlend mode="normal" in="SourceGraphic" in2="BackgroundImageFix" result="shape"/>
<feGaussianBlur stdDeviation="50" result="effect1_foregroundBlur_3876_11340"/>
</filter>
<filter id="filter2_f_3876_11340" x="488" y="-835" width="344" height="1061.75" filterUnits="userSpaceOnUse" color-interpolation-filters="sRGB">
<feFlood flood-opacity="0" result="BackgroundImageFix"/>
<feBlend mode="normal" in="SourceGraphic" in2="BackgroundImageFix" result="shape"/>
<feGaussianBlur stdDeviation="20" result="effect1_foregroundBlur_3876_11340"/>
</filter>
<linearGradient id="paint0_linear_3876_11340" x1="660" y1="-795" x2="660" y2="525" gradientUnits="userSpaceOnUse">
<stop stop-color="white" stop-opacity="0"/>
<stop offset="0.5" stop-color="white"/>
<stop offset="1" stop-color="white"/>
</linearGradient>
<radialGradient id="paint1_radial_3876_11340" cx="0" cy="0" r="1" gradientUnits="userSpaceOnUse" gradientTransform="translate(660 -795) rotate(90) scale(1320 1113.28)">
<stop stop-color="#F60109"/>
<stop offset="1" stop-color="#F60109" stop-opacity="0"/>
</radialGradient>
<linearGradient id="paint2_linear_3876_11340" x1="660" y1="-795" x2="660" y2="525" gradientUnits="userSpaceOnUse">
<stop stop-color="#F60109"/>
<stop offset="0.883224" stop-color="#F60109" stop-opacity="0"/>
</linearGradient>
<linearGradient id="paint3_linear_3876_11340" x1="660" y1="-795" x2="660" y2="525" gradientUnits="userSpaceOnUse">
<stop stop-color="#F60109"/>
<stop offset="0.863225" stop-color="#F60109" stop-opacity="0"/>
</linearGradient>
<linearGradient id="paint4_linear_3876_11340" x1="660" y1="-795" x2="660" y2="525" gradientUnits="userSpaceOnUse">
<stop stop-color="#F60109"/>
<stop offset="0.868225" stop-color="#F60109" stop-opacity="0"/>
</linearGradient>
<radialGradient id="paint5_radial_3876_11340" cx="0" cy="0" r="1" gradientUnits="userSpaceOnUse" gradientTransform="translate(660 -795) rotate(90) scale(1169.44 388.056)">
<stop stop-color="#FF7A00"/>
<stop offset="1" stop-color="#F60109" stop-opacity="0"/>
</radialGradient>
<linearGradient id="paint6_linear_3876_11340" x1="660" y1="-657.5" x2="660" y2="348.312" gradientUnits="userSpaceOnUse">
<stop stop-color="#F60109"/>
<stop offset="0.863225" stop-color="#F60109" stop-opacity="0"/>
</linearGradient>
<radialGradient id="paint7_radial_3876_11340" cx="0" cy="0" r="1" gradientUnits="userSpaceOnUse" gradientTransform="translate(660 -795) rotate(90) scale(981.75 97.1605)">
<stop stop-color="#FF333A"/>
<stop offset="1" stop-color="#F60109" stop-opacity="0"/>
</radialGradient>
</defs>
</svg>
