<svg width="1320" height="525" viewBox="0 0 1320 525" fill="none" xmlns="http://www.w3.org/2000/svg">
<g clip-path="url(#clip0_3789_22268)">
<g opacity="0.2" filter="url(#filter0_f_3789_22268)">
<circle cx="660" cy="-135" r="288" fill="#F60109"/>
</g>
<mask id="mask0_3789_22268" style="mask-type:alpha" maskUnits="userSpaceOnUse" x="180" y="-795" width="960" height="832">
<path fill-rule="evenodd" clip-rule="evenodd" d="M660 -795C660 -374.233 483.279 -265.272 344.295 -179.578C254.223 -124.042 180 -78.2784 180 36.25V-795H660ZM1140 36.25C1140 -78.2784 1065.78 -124.042 975.705 -179.578C836.721 -265.272 660 -374.233 660 -795H1140V36.25Z" fill="#D9D9D9"/>
</mask>
<g mask="url(#mask0_3789_22268)">
<rect x="453.75" y="-586" width="412.5" height="901.312" fill="url(#paint0_linear_3789_22268)" fill-opacity="0.1"/>
<rect x="454.75" y="-585" width="410.5" height="899.312" stroke="url(#paint1_linear_3789_22268)" stroke-opacity="0.2" stroke-width="2"/>
<rect x="206.25" y="-586" width="206.25" height="901.312" fill="url(#paint2_linear_3789_22268)" fill-opacity="0.1"/>
<rect x="207.25" y="-585" width="204.25" height="899.312" stroke="url(#paint3_linear_3789_22268)" stroke-opacity="0.2" stroke-width="2"/>
<rect x="907.5" y="-586" width="206.25" height="901.312" fill="url(#paint4_linear_3789_22268)" fill-opacity="0.1"/>
<rect x="908.5" y="-585" width="204.25" height="899.312" stroke="url(#paint5_linear_3789_22268)" stroke-opacity="0.2" stroke-width="2"/>
</g>
<mask id="mask1_3789_22268" style="mask-type:alpha" maskUnits="userSpaceOnUse" x="180" y="-795" width="960" height="960">
<path fill-rule="evenodd" clip-rule="evenodd" d="M344.295 -179.578C483.279 -265.272 660 -374.233 660 -795C660 -374.233 836.721 -265.272 975.705 -179.578C1065.78 -124.042 1140 -78.2784 1140 36.25V165H660H180V36.25C180 -78.2784 254.223 -124.042 344.295 -179.578Z" fill="url(#paint6_linear_3789_22268)"/>
</mask>
<g mask="url(#mask1_3789_22268)">
<path d="M344.295 -179.578C483.279 -265.272 660 -374.233 660 -795C660 -374.233 836.721 -265.272 975.705 -179.578C1065.78 -124.042 1140 -78.2784 1140 36.25V165H180V36.25C180 -78.2784 254.223 -124.042 344.295 -179.578Z" fill="url(#paint7_radial_3789_22268)" fill-opacity="0.3" stroke="url(#paint8_linear_3789_22268)" stroke-opacity="0.8" stroke-width="4"/>
<path opacity="0.75" d="M463.878 -179.578C550.217 -265.272 659.998 -374.233 659.998 -795C659.998 -374.233 769.779 -265.272 856.118 -179.578C912.072 -124.042 958.18 -78.2784 958.18 36.25V165H361.816V36.25C361.816 -78.2784 407.924 -124.042 463.878 -179.578Z" stroke="url(#paint9_linear_3789_22268)" stroke-opacity="0.8" stroke-width="2"/>
<path opacity="0.5" d="M570.073 -179.578C609.662 -265.272 660.001 -374.233 660.001 -795C660.001 -374.233 710.339 -265.272 749.929 -179.578C775.586 -124.042 796.728 -78.2784 796.728 36.25V165H523.273V36.25C523.273 -78.2784 544.416 -124.042 570.073 -179.578Z" stroke="url(#paint10_linear_3789_22268)" stroke-opacity="0.8" stroke-width="2"/>
<g filter="url(#filter1_f_3789_22268)">
<path fill-rule="evenodd" clip-rule="evenodd" d="M659.998 -793.722C659.776 -374.012 550.129 -265.185 463.878 -179.578C407.924 -124.042 361.816 -78.2784 361.816 36.25V165H523.271V36.25C523.271 -78.2784 544.413 -124.042 570.07 -179.578C609.619 -265.185 659.896 -374.012 659.998 -793.722ZM659.998 -794.221C660.06 -374.099 710.361 -265.219 749.926 -179.578C775.583 -124.042 796.725 -78.2784 796.725 36.25V165H958.18V36.25C958.18 -78.2784 912.072 -124.042 856.118 -179.578C769.779 -265.272 659.998 -374.233 659.998 -795C659.998 -794.74 659.998 -794.48 659.998 -794.221Z" fill="url(#paint11_linear_3789_22268)"/>
</g>
<g filter="url(#filter2_f_3789_22268)">
<path d="M588.25 -305.46C619.837 -373.625 660.001 -460.299 660.001 -795C660.001 -460.299 700.165 -373.625 731.752 -305.46C752.223 -261.284 769.092 -224.881 769.092 -133.778V-31.3636H550.91V-133.778C550.91 -224.881 567.779 -261.284 588.25 -305.46Z" fill="url(#paint12_radial_3789_22268)"/>
</g>
</g>
<g opacity="0.4">
<g filter="url(#filter3_f_3789_22268)">
<g style="mix-blend-mode:screen">
<path d="M275.015 73.6793C273.771 74.3262 272.238 73.8444 271.592 72.6056C270.946 71.3598 271.427 69.825 272.664 69.1781C273.909 68.5311 275.442 69.0129 276.088 70.2517C276.734 71.4975 276.253 73.0323 275.015 73.6793Z" fill="white"/>
</g>
<g style="mix-blend-mode:screen">
<path d="M418.353 101.132C418.311 101.132 418.181 101.118 418.112 100.988C418.098 100.96 418.057 100.891 418.091 100.781C418.126 100.678 418.201 100.637 418.222 100.623C418.263 100.602 418.305 100.589 418.346 100.589C418.387 100.589 418.518 100.602 418.586 100.733C418.655 100.864 418.607 101.029 418.476 101.098C418.435 101.118 418.401 101.132 418.36 101.132L418.353 101.132Z" fill="white"/>
</g>
<g style="mix-blend-mode:screen">
<path d="M188.143 182.296C186.755 183.018 185.05 182.482 184.321 181.098C183.599 179.708 184.136 178.001 185.517 177.271C186.899 176.542 188.611 177.086 189.339 178.469C190.061 179.859 189.525 181.566 188.143 182.296Z" fill="white"/>
</g>
<g style="mix-blend-mode:screen">
<path d="M485.834 219.919C485.271 219.919 484.521 219.643 484.122 218.879C483.799 218.26 483.903 217.695 483.992 217.406C484.081 217.117 484.322 216.594 484.941 216.271C485.222 216.126 485.518 216.051 485.827 216.051C486.391 216.051 487.14 216.326 487.539 217.09C487.862 217.709 487.759 218.274 487.67 218.563C487.58 218.852 487.34 219.375 486.721 219.698C486.439 219.843 486.144 219.919 485.834 219.919Z" fill="white"/>
</g>
<g style="mix-blend-mode:screen">
<path d="M526.318 59.8744C525.72 59.8744 524.936 59.5853 524.517 58.7869C524.18 58.1399 524.283 57.5412 524.379 57.2383C524.475 56.9355 524.73 56.3849 525.376 56.0476C525.671 55.8962 525.981 55.8136 526.311 55.8136C526.909 55.8136 527.693 56.1027 528.112 56.9011C528.449 57.548 528.346 58.1468 528.249 58.4497C528.153 58.7525 527.899 59.3031 527.253 59.6403C526.957 59.7918 526.648 59.8744 526.318 59.8744Z" fill="white"/>
</g>
<g style="mix-blend-mode:screen">
<path d="M400.118 134.11C399.636 134.11 399.004 133.876 398.667 133.229C398.392 132.706 398.481 132.224 398.557 131.983C398.633 131.742 398.839 131.295 399.361 131.02C399.595 130.896 399.849 130.834 400.111 130.834C400.592 130.834 401.224 131.068 401.561 131.715C401.836 132.238 401.747 132.72 401.671 132.96C401.596 133.201 401.389 133.649 400.867 133.924C400.626 134.048 400.379 134.11 400.118 134.11Z" fill="white"/>
</g>
<g style="mix-blend-mode:screen">
<path d="M585.334 215.916C584.771 215.916 584.021 215.641 583.622 214.877C583.299 214.257 583.403 213.693 583.492 213.404C583.581 213.122 583.822 212.592 584.441 212.268C584.722 212.124 585.018 212.048 585.327 212.048C585.891 212.048 586.64 212.323 587.039 213.087C587.534 214.03 587.163 215.2 586.221 215.689C585.939 215.834 585.644 215.909 585.334 215.909L585.334 215.916Z" fill="white"/>
</g>
<g style="mix-blend-mode:screen">
<path d="M615.586 164.21C614.246 164.912 612.596 164.389 611.902 163.054C611.2 161.711 611.723 160.06 613.057 159.364C614.397 158.662 616.047 159.186 616.741 160.521C617.442 161.863 616.92 163.515 615.586 164.21Z" fill="white"/>
</g>
<g style="mix-blend-mode:screen">
<path d="M461.237 154.887C460.714 155.162 460.061 154.955 459.786 154.432C459.511 153.909 459.717 153.255 460.24 152.98C460.762 152.705 461.415 152.911 461.69 153.434C461.965 153.957 461.759 154.611 461.237 154.887Z" fill="white"/>
</g>
<g style="mix-blend-mode:screen">
<path d="M487.295 100.341C486.099 100.968 484.627 100.506 484.002 99.3089C483.376 98.1113 483.837 96.6384 485.033 96.0121C486.229 95.3858 487.7 95.8469 488.326 97.0445C488.951 98.2421 488.491 99.7149 487.295 100.341Z" fill="white"/>
</g>
<g style="mix-blend-mode:screen">
<path d="M341.079 113.775C340.508 114.078 339.8 113.851 339.498 113.28C339.195 112.709 339.422 112 339.993 111.697C340.563 111.394 341.271 111.621 341.574 112.192C341.876 112.764 341.649 113.473 341.079 113.775Z" fill="white"/>
</g>
<g style="mix-blend-mode:screen">
<path d="M325.199 286.351C323.955 286.998 322.422 286.516 321.775 285.277C321.129 284.031 321.611 282.497 322.848 281.85C324.092 281.203 325.625 281.684 326.271 282.923C326.918 284.169 326.436 285.704 325.199 286.351Z" fill="white"/>
</g>
<g style="mix-blend-mode:screen">
<path d="M435.505 187.157C433.931 187.983 431.985 187.37 431.16 185.794C430.335 184.218 430.947 182.27 432.521 181.444C434.096 180.618 436.041 181.231 436.866 182.807C437.691 184.383 437.079 186.331 435.505 187.157Z" fill="white"/>
</g>
<g style="mix-blend-mode:screen">
<path d="M644.953 115.038C644.643 115.038 644.238 114.887 644.018 114.474C643.75 113.965 643.949 113.324 644.464 113.056C644.616 112.973 644.781 112.939 644.946 112.939C645.255 112.939 645.661 113.09 645.881 113.503C646.046 113.82 646.011 114.116 645.949 114.302C645.887 114.488 645.75 114.749 645.434 114.921C645.282 115.004 645.117 115.045 644.953 115.045L644.953 115.038Z" fill="white"/>
</g>
<g style="mix-blend-mode:screen">
<path d="M396.579 243.732C395.149 244.482 393.376 243.925 392.626 242.493C391.877 241.055 392.434 239.286 393.864 238.536C395.294 237.785 397.067 238.343 397.817 239.775C398.566 241.213 398.009 242.982 396.579 243.732Z" fill="white"/>
</g>
<g style="mix-blend-mode:screen">
<path d="M319.241 199.145C317.234 200.198 314.759 199.42 313.707 197.41C312.656 195.401 313.432 192.923 315.44 191.87C317.447 190.817 319.922 191.595 320.974 193.604C322.025 195.614 321.249 198.092 319.241 199.145Z" fill="white"/>
</g>
<g style="mix-blend-mode:screen">
<path d="M333.572 27.5241C332.52 28.0747 331.221 27.6686 330.671 26.6156C330.121 25.5626 330.527 24.2617 331.579 23.7111C332.63 23.1605 333.93 23.5666 334.48 24.6196C335.029 25.6727 334.624 26.9735 333.572 27.5241Z" fill="white"/>
</g>
<g style="mix-blend-mode:screen">
<path d="M533.682 181.304C533.146 181.304 532.438 181.042 532.053 180.319C531.743 179.734 531.846 179.191 531.929 178.922C532.011 178.654 532.245 178.151 532.829 177.849C533.098 177.711 533.379 177.635 533.675 177.635C534.211 177.635 534.919 177.897 535.297 178.619C535.607 179.204 535.504 179.748 535.421 180.017C535.339 180.285 535.105 180.787 534.521 181.09C534.252 181.228 533.971 181.297 533.682 181.297L533.682 181.304Z" fill="white"/>
</g>
<g style="mix-blend-mode:screen">
<path d="M512.251 0.21302C511.68 0.515854 510.972 0.288729 510.669 -0.282525C510.367 -0.853779 510.594 -1.56268 511.164 -1.86552C511.735 -2.16835 512.443 -1.94123 512.746 -1.36997C513.048 -0.798718 512.821 -0.0898129 512.251 0.21302Z" fill="white"/>
</g>
<g style="mix-blend-mode:screen">
<path d="M537.28 103.817C536.613 104.168 535.788 103.907 535.437 103.239C535.087 102.572 535.348 101.746 536.015 101.395C536.681 101.044 537.506 101.305 537.857 101.973C538.208 102.64 537.946 103.466 537.28 103.817Z" fill="white"/>
</g>
<g style="mix-blend-mode:screen">
<path d="M472.797 293.564C470.934 294.542 468.631 293.819 467.662 291.954C466.686 290.089 467.407 287.783 469.27 286.813C471.133 285.842 473.436 286.558 474.406 288.423C475.382 290.288 474.66 292.594 472.797 293.564Z" fill="white"/>
</g>
<g style="mix-blend-mode:screen">
<path d="M436.653 57.1794C434.694 58.2049 432.274 57.4478 431.25 55.4863C430.225 53.5248 430.982 51.1021 432.941 50.0766C434.9 49.0511 437.32 49.8082 438.344 51.7697C439.368 53.7312 438.612 56.1539 436.653 57.1794Z" fill="white"/>
</g>
<g style="mix-blend-mode:screen">
<path d="M619.943 70.5117C618.987 71.0141 617.805 70.6425 617.31 69.6858C616.808 68.7291 617.179 67.5453 618.135 67.0497C619.09 66.5473 620.273 66.919 620.768 67.8757C621.269 68.8323 620.898 70.0161 619.943 70.5117Z" fill="white"/>
</g>
</g>
<g opacity="0.5">
<g style="mix-blend-mode:screen">
<path d="M274.72 73.1166C273.787 73.6018 272.638 73.2405 272.153 72.3113C271.668 71.377 272.029 70.2259 272.957 69.7407C273.89 69.2555 275.04 69.6168 275.525 70.5459C276.009 71.4803 275.649 72.6314 274.72 73.1166Z" fill="#191919"/>
</g>
<g style="mix-blend-mode:screen">
<path d="M418.35 101.064C418.32 101.064 418.222 101.054 418.17 100.956C418.16 100.935 418.129 100.884 418.155 100.801C418.18 100.724 418.237 100.693 418.253 100.682C418.283 100.667 418.314 100.657 418.345 100.657C418.376 100.657 418.474 100.667 418.526 100.765C418.577 100.863 418.541 100.987 418.443 101.039C418.412 101.054 418.387 101.064 418.356 101.064L418.35 101.064Z" fill="#191919"/>
</g>
<g style="mix-blend-mode:screen">
<path d="M187.814 181.666C186.773 182.208 185.494 181.805 184.948 180.767C184.407 179.725 184.809 178.445 185.845 177.897C186.881 177.35 188.165 177.758 188.712 178.796C189.253 179.838 188.851 181.118 187.814 181.666Z" fill="#191919"/>
</g>
<g style="mix-blend-mode:screen">
<path d="M485.832 219.436C485.409 219.436 484.847 219.23 484.548 218.657C484.306 218.192 484.383 217.769 484.45 217.552C484.517 217.335 484.697 216.943 485.161 216.7C485.373 216.592 485.595 216.535 485.827 216.535C486.249 216.535 486.811 216.742 487.11 217.315C487.353 217.779 487.275 218.203 487.208 218.419C487.141 218.636 486.961 219.028 486.497 219.271C486.285 219.379 486.064 219.436 485.832 219.436Z" fill="#191919"/>
</g>
<g style="mix-blend-mode:screen">
<path d="M526.313 59.3673C525.865 59.3673 525.277 59.1505 524.963 58.5517C524.71 58.0665 524.787 57.6174 524.86 57.3903C524.932 57.1632 525.122 56.7502 525.607 56.4973C525.829 56.3837 526.061 56.3218 526.308 56.3218C526.757 56.3218 527.345 56.5386 527.659 57.1374C527.912 57.6226 527.834 58.0717 527.762 58.2988C527.69 58.5259 527.499 58.9389 527.015 59.1918C526.793 59.3054 526.561 59.3673 526.313 59.3673Z" fill="#191919"/>
</g>
<g style="mix-blend-mode:screen">
<path d="M400.118 133.702C399.758 133.702 399.283 133.527 399.031 133.041C398.824 132.649 398.891 132.288 398.948 132.107C399.005 131.926 399.159 131.591 399.551 131.384C399.727 131.292 399.917 131.245 400.113 131.245C400.474 131.245 400.949 131.421 401.201 131.906C401.407 132.298 401.34 132.659 401.284 132.84C401.227 133.021 401.072 133.356 400.68 133.563C400.5 133.656 400.314 133.702 400.118 133.702Z" fill="#191919"/>
</g>
<g style="mix-blend-mode:screen">
<path d="M585.332 215.433C584.909 215.433 584.347 215.227 584.048 214.654C583.806 214.189 583.883 213.766 583.95 213.549C584.017 213.337 584.197 212.94 584.661 212.697C584.873 212.589 585.095 212.532 585.327 212.532C585.749 212.532 586.311 212.739 586.61 213.311C586.982 214.019 586.703 214.896 585.997 215.263C585.785 215.371 585.564 215.428 585.332 215.428L585.332 215.433Z" fill="#191919"/>
</g>
<g style="mix-blend-mode:screen">
<path d="M615.267 163.606C614.262 164.133 613.024 163.74 612.503 162.739C611.978 161.732 612.369 160.493 613.37 159.972C614.375 159.445 615.612 159.838 616.133 160.839C616.659 161.846 616.267 163.085 615.267 163.606Z" fill="#191919"/>
</g>
<g style="mix-blend-mode:screen">
<path d="M461.113 154.648C460.721 154.855 460.231 154.7 460.025 154.308C459.819 153.915 459.974 153.425 460.365 153.218C460.757 153.012 461.247 153.167 461.453 153.559C461.659 153.951 461.505 154.442 461.113 154.648Z" fill="#191919"/>
</g>
<g style="mix-blend-mode:screen">
<path d="M487.011 99.7994C486.114 100.269 485.011 99.9233 484.541 99.0251C484.072 98.127 484.418 97.0223 485.315 96.5526C486.212 96.0828 487.315 96.4287 487.784 97.3269C488.254 98.225 487.908 99.3297 487.011 99.7994Z" fill="#191919"/>
</g>
<g style="mix-blend-mode:screen">
<path d="M340.943 113.515C340.515 113.742 339.984 113.572 339.757 113.144C339.53 112.715 339.7 112.184 340.128 111.956C340.556 111.729 341.087 111.9 341.314 112.328C341.541 112.756 341.371 113.288 340.943 113.515Z" fill="#191919"/>
</g>
<g style="mix-blend-mode:screen">
<path d="M324.904 285.788C323.971 286.273 322.821 285.912 322.336 284.983C321.852 284.049 322.213 282.897 323.141 282.412C324.074 281.927 325.224 282.288 325.708 283.217C326.193 284.152 325.832 285.303 324.904 285.788Z" fill="#191919"/>
</g>
<g style="mix-blend-mode:screen">
<path d="M435.128 186.443C433.947 187.063 432.488 186.603 431.869 185.421C431.251 184.239 431.709 182.778 432.89 182.159C434.071 181.539 435.53 181.999 436.149 183.181C436.767 184.363 436.308 185.824 435.128 186.443Z" fill="#191919"/>
</g>
<g style="mix-blend-mode:screen">
<path d="M644.951 114.777C644.719 114.777 644.415 114.663 644.25 114.354C644.048 113.972 644.198 113.492 644.585 113.29C644.698 113.228 644.822 113.203 644.946 113.203C645.178 113.203 645.482 113.316 645.647 113.626C645.77 113.863 645.745 114.085 645.698 114.225C645.652 114.364 645.549 114.56 645.312 114.689C645.198 114.751 645.074 114.782 644.951 114.782L644.951 114.777Z" fill="#191919"/>
</g>
<g style="mix-blend-mode:screen">
<path d="M396.242 243.083C395.17 243.646 393.839 243.228 393.277 242.154C392.715 241.075 393.133 239.749 394.205 239.186C395.278 238.624 396.608 239.042 397.17 240.115C397.732 241.194 397.314 242.521 396.242 243.083Z" fill="#191919"/>
</g>
<g style="mix-blend-mode:screen">
<path d="M318.768 198.236C317.262 199.026 315.406 198.442 314.617 196.935C313.829 195.428 314.411 193.569 315.917 192.78C317.422 191.99 319.278 192.573 320.067 194.08C320.856 195.588 320.273 197.446 318.768 198.236Z" fill="#191919"/>
</g>
<g style="mix-blend-mode:screen">
<path d="M333.321 27.0472C332.532 27.4601 331.557 27.1556 331.145 26.3658C330.732 25.576 331.037 24.6004 331.826 24.1875C332.614 23.7745 333.589 24.0791 334.001 24.8688C334.414 25.6586 334.11 26.6342 333.321 27.0472Z" fill="#191919"/>
</g>
<g style="mix-blend-mode:screen">
<path d="M533.679 180.846C533.277 180.846 532.746 180.65 532.457 180.108C532.225 179.669 532.303 179.262 532.365 179.06C532.427 178.859 532.602 178.482 533.04 178.255C533.241 178.152 533.453 178.095 533.674 178.095C534.076 178.095 534.607 178.291 534.891 178.833C535.123 179.272 535.046 179.68 534.984 179.881C534.922 180.082 534.747 180.459 534.308 180.686C534.107 180.79 533.896 180.841 533.679 180.841L533.679 180.846Z" fill="#191919"/>
</g>
<g style="mix-blend-mode:screen">
<path d="M512.115 -0.0471743C511.687 0.179951 511.156 0.00960675 510.929 -0.418833C510.702 -0.847274 510.872 -1.37895 511.3 -1.60608C511.728 -1.8332 512.259 -1.66286 512.486 -1.23442C512.713 -0.805978 512.543 -0.274299 512.115 -0.0471743Z" fill="#191919"/>
</g>
<g style="mix-blend-mode:screen">
<path d="M537.124 103.514C536.624 103.777 536.005 103.581 535.742 103.081C535.479 102.58 535.675 101.96 536.175 101.697C536.675 101.434 537.294 101.63 537.557 102.131C537.82 102.631 537.624 103.251 537.124 103.514Z" fill="#191919"/>
</g>
<g style="mix-blend-mode:screen">
<path d="M472.354 292.723C470.956 293.456 469.229 292.914 468.502 291.515C467.77 290.116 468.311 288.387 469.709 287.659C471.106 286.931 472.833 287.468 473.56 288.867C474.292 290.266 473.751 291.995 472.354 292.723Z" fill="#191919"/>
</g>
<g style="mix-blend-mode:screen">
<path d="M436.188 56.2922C434.719 57.0613 432.904 56.4935 432.136 55.0224C431.367 53.5512 431.934 51.7342 433.404 50.9651C434.873 50.196 436.688 50.7638 437.456 52.2349C438.225 53.7061 437.657 55.5231 436.188 56.2922Z" fill="#191919"/>
</g>
<g style="mix-blend-mode:screen">
<path d="M619.717 70.0795C619 70.4563 618.113 70.1776 617.742 69.4601C617.366 68.7426 617.644 67.8547 618.361 67.4831C619.077 67.1062 619.964 67.385 620.335 68.1025C620.712 68.82 620.433 69.7079 619.717 70.0795Z" fill="#191919"/>
</g>
</g>
</g>
<g opacity="0.4">
<g filter="url(#filter4_f_3789_22268)">
<g style="mix-blend-mode:screen">
<path d="M724.015 220.321C722.771 219.674 721.238 220.156 720.592 221.394C719.946 222.64 720.427 224.175 721.664 224.822C722.909 225.469 724.442 224.987 725.088 223.748C725.734 222.502 725.253 220.968 724.015 220.321Z" fill="white"/>
</g>
<g style="mix-blend-mode:screen">
<path d="M867.353 192.868C867.311 192.868 867.181 192.882 867.112 193.012C867.098 193.04 867.057 193.109 867.091 193.219C867.126 193.322 867.201 193.363 867.222 193.377C867.263 193.398 867.305 193.411 867.346 193.411C867.387 193.411 867.518 193.398 867.586 193.267C867.655 193.136 867.607 192.971 867.476 192.902C867.435 192.882 867.401 192.868 867.36 192.868L867.353 192.868Z" fill="white"/>
</g>
<g style="mix-blend-mode:screen">
<path d="M637.143 111.704C635.755 110.982 634.05 111.518 633.321 112.902C632.599 114.292 633.136 115.999 634.517 116.729C635.899 117.458 637.611 116.914 638.339 115.531C639.061 114.141 638.525 112.434 637.143 111.704Z" fill="white"/>
</g>
<g style="mix-blend-mode:screen">
<path d="M934.834 74.0814C934.271 74.0814 933.521 74.3567 933.122 75.1206C932.799 75.7401 932.903 76.3045 932.992 76.5935C933.081 76.8826 933.322 77.4057 933.941 77.7292C934.222 77.8737 934.518 77.9494 934.827 77.9494C935.391 77.9494 936.14 77.6741 936.539 76.9101C936.862 76.2907 936.759 75.7263 936.67 75.4373C936.58 75.1482 936.34 74.6251 935.721 74.3016C935.439 74.1571 935.144 74.0814 934.834 74.0814Z" fill="white"/>
</g>
<g style="mix-blend-mode:screen">
<path d="M975.318 234.126C974.72 234.126 973.936 234.415 973.517 235.213C973.18 235.86 973.283 236.459 973.379 236.762C973.475 237.064 973.73 237.615 974.376 237.952C974.671 238.104 974.981 238.186 975.311 238.186C975.909 238.186 976.693 237.897 977.112 237.099C977.449 236.452 977.346 235.853 977.249 235.55C977.153 235.247 976.899 234.697 976.253 234.36C975.957 234.208 975.648 234.126 975.318 234.126Z" fill="white"/>
</g>
<g style="mix-blend-mode:screen">
<path d="M849.118 159.89C848.636 159.89 848.004 160.124 847.667 160.771C847.392 161.294 847.481 161.776 847.557 162.017C847.633 162.258 847.839 162.705 848.361 162.98C848.595 163.104 848.849 163.166 849.111 163.166C849.592 163.166 850.224 162.932 850.561 162.285C850.836 161.762 850.747 161.28 850.671 161.04C850.596 160.799 850.389 160.351 849.867 160.076C849.626 159.952 849.379 159.89 849.118 159.89Z" fill="white"/>
</g>
<g style="mix-blend-mode:screen">
<path d="M1034.33 78.0839C1033.77 78.0839 1033.02 78.3592 1032.62 79.1232C1032.3 79.7426 1032.4 80.307 1032.49 80.596C1032.58 80.8782 1032.82 81.4082 1033.44 81.7317C1033.72 81.8762 1034.02 81.9519 1034.33 81.9519C1034.89 81.9519 1035.64 81.6766 1036.04 80.9126C1036.53 79.9697 1036.16 78.7997 1035.22 78.311C1034.94 78.1665 1034.64 78.0908 1034.33 78.0908L1034.33 78.0839Z" fill="white"/>
</g>
<g style="mix-blend-mode:screen">
<path d="M1064.59 129.79C1063.25 129.088 1061.6 129.611 1060.9 130.946C1060.2 132.289 1060.72 133.94 1062.06 134.635C1063.4 135.338 1065.05 134.814 1065.74 133.479C1066.44 132.137 1065.92 130.485 1064.59 129.79Z" fill="white"/>
</g>
<g style="mix-blend-mode:screen">
<path d="M910.237 139.113C909.714 138.838 909.061 139.045 908.786 139.568C908.511 140.091 908.717 140.745 909.24 141.02C909.762 141.295 910.415 141.089 910.69 140.566C910.965 140.043 910.759 139.389 910.237 139.113Z" fill="white"/>
</g>
<g style="mix-blend-mode:screen">
<path d="M936.295 193.659C935.099 193.032 933.627 193.494 933.002 194.691C932.376 195.889 932.837 197.362 934.033 197.988C935.229 198.614 936.7 198.153 937.326 196.955C937.951 195.758 937.491 194.285 936.295 193.659Z" fill="white"/>
</g>
<g style="mix-blend-mode:screen">
<path d="M790.079 180.224C789.508 179.922 788.8 180.149 788.498 180.72C788.195 181.291 788.422 182 788.993 182.303C789.563 182.606 790.271 182.379 790.574 181.807C790.876 181.236 790.649 180.527 790.079 180.224Z" fill="white"/>
</g>
<g style="mix-blend-mode:screen">
<path d="M774.199 7.64915C772.955 7.00219 771.422 7.48397 770.775 8.72283C770.129 9.96857 770.611 11.5034 771.848 12.1504C773.092 12.7973 774.625 12.3155 775.271 11.0767C775.918 9.83092 775.436 8.29611 774.199 7.64915Z" fill="white"/>
</g>
<g style="mix-blend-mode:screen">
<path d="M884.505 106.843C882.931 106.017 880.985 106.63 880.16 108.206C879.335 109.782 879.947 111.73 881.521 112.556C883.096 113.382 885.041 112.769 885.866 111.193C886.691 109.617 886.079 107.669 884.505 106.843Z" fill="white"/>
</g>
<g style="mix-blend-mode:screen">
<path d="M1093.95 178.962C1093.64 178.962 1093.24 179.113 1093.02 179.526C1092.75 180.035 1092.95 180.676 1093.46 180.944C1093.62 181.027 1093.78 181.061 1093.95 181.061C1094.25 181.061 1094.66 180.91 1094.88 180.497C1095.05 180.18 1095.01 179.884 1094.95 179.698C1094.89 179.512 1094.75 179.251 1094.43 179.079C1094.28 178.996 1094.12 178.955 1093.95 178.955L1093.95 178.962Z" fill="white"/>
</g>
<g style="mix-blend-mode:screen">
<path d="M845.579 50.2679C844.149 49.5177 842.376 50.0752 841.626 51.5068C840.877 52.9453 841.434 54.7141 842.864 55.4643C844.294 56.2145 846.067 55.657 846.817 54.2254C847.566 52.787 847.009 51.0181 845.579 50.2679Z" fill="white"/>
</g>
<g style="mix-blend-mode:screen">
<path d="M768.241 94.8551C766.234 93.8021 763.759 94.5798 762.707 96.5895C761.656 98.5992 762.432 101.077 764.44 102.13C766.447 103.183 768.922 102.405 769.974 100.396C771.025 98.3859 770.249 95.9081 768.241 94.8551Z" fill="white"/>
</g>
<g style="mix-blend-mode:screen">
<path d="M782.572 266.476C781.52 265.925 780.221 266.331 779.671 267.384C779.121 268.437 779.527 269.738 780.579 270.289C781.63 270.839 782.93 270.433 783.48 269.38C784.029 268.327 783.624 267.027 782.572 266.476Z" fill="white"/>
</g>
<g style="mix-blend-mode:screen">
<path d="M982.682 112.696C982.146 112.696 981.438 112.958 981.053 113.681C980.743 114.266 980.846 114.809 980.929 115.078C981.011 115.346 981.245 115.849 981.829 116.151C982.098 116.289 982.379 116.365 982.675 116.365C983.211 116.365 983.919 116.103 984.297 115.381C984.607 114.796 984.504 114.252 984.421 113.983C984.339 113.715 984.105 113.213 983.521 112.91C983.252 112.772 982.971 112.703 982.682 112.703L982.682 112.696Z" fill="white"/>
</g>
<g style="mix-blend-mode:screen">
<path d="M961.251 293.787C960.68 293.484 959.972 293.711 959.669 294.283C959.367 294.854 959.594 295.563 960.164 295.866C960.735 296.168 961.443 295.941 961.746 295.37C962.048 294.799 961.821 294.09 961.251 293.787Z" fill="white"/>
</g>
<g style="mix-blend-mode:screen">
<path d="M986.28 190.183C985.613 189.832 984.788 190.093 984.437 190.761C984.087 191.428 984.348 192.254 985.015 192.605C985.681 192.956 986.506 192.695 986.857 192.027C987.208 191.36 986.946 190.534 986.28 190.183Z" fill="white"/>
</g>
<g style="mix-blend-mode:screen">
<path d="M921.797 0.435644C919.934 -0.541683 917.631 0.180986 916.662 2.04616C915.686 3.91134 916.407 6.21701 918.27 7.18745C920.133 8.15789 922.436 7.44211 923.406 5.57693C924.382 3.71175 923.66 1.40609 921.797 0.435644Z" fill="white"/>
</g>
<g style="mix-blend-mode:screen">
<path d="M885.653 236.821C883.694 235.795 881.274 236.552 880.25 238.514C879.225 240.475 879.982 242.898 881.941 243.923C883.9 244.949 886.32 244.192 887.344 242.23C888.368 240.269 887.612 237.846 885.653 236.821Z" fill="white"/>
</g>
<g style="mix-blend-mode:screen">
<path d="M1068.94 223.488C1067.99 222.986 1066.8 223.357 1066.31 224.314C1065.81 225.271 1066.18 226.455 1067.13 226.95C1068.09 227.453 1069.27 227.081 1069.77 226.124C1070.27 225.168 1069.9 223.984 1068.94 223.488Z" fill="white"/>
</g>
</g>
<g opacity="0.5">
<g style="mix-blend-mode:screen">
<path d="M723.72 220.883C722.787 220.398 721.638 220.76 721.153 221.689C720.668 222.623 721.029 223.774 721.957 224.259C722.89 224.745 724.04 224.383 724.525 223.454C725.009 222.52 724.649 221.369 723.72 220.883Z" fill="#191919"/>
</g>
<g style="mix-blend-mode:screen">
<path d="M867.35 192.936C867.32 192.936 867.222 192.946 867.17 193.044C867.16 193.065 867.129 193.116 867.155 193.199C867.18 193.276 867.237 193.307 867.253 193.318C867.283 193.333 867.314 193.343 867.345 193.343C867.376 193.343 867.474 193.333 867.526 193.235C867.577 193.137 867.541 193.013 867.443 192.961C867.412 192.946 867.387 192.936 867.356 192.936L867.35 192.936Z" fill="#191919"/>
</g>
<g style="mix-blend-mode:screen">
<path d="M636.814 112.334C635.773 111.792 634.494 112.195 633.948 113.233C633.407 114.275 633.809 115.555 634.845 116.103C635.881 116.65 637.165 116.242 637.712 115.204C638.253 114.162 637.851 112.882 636.814 112.334Z" fill="#191919"/>
</g>
<g style="mix-blend-mode:screen">
<path d="M934.832 74.5638C934.409 74.5638 933.847 74.7702 933.548 75.3432C933.306 75.8078 933.383 76.2311 933.45 76.4479C933.517 76.6647 933.697 77.057 934.161 77.2996C934.373 77.408 934.595 77.4648 934.827 77.4648C935.249 77.4648 935.811 77.2583 936.11 76.6853C936.353 76.2208 936.275 75.7975 936.208 75.5807C936.141 75.3639 935.961 74.9716 935.497 74.729C935.285 74.6206 935.064 74.5638 934.832 74.5638Z" fill="#191919"/>
</g>
<g style="mix-blend-mode:screen">
<path d="M975.313 234.633C974.865 234.633 974.277 234.849 973.963 235.448C973.71 235.933 973.787 236.383 973.86 236.61C973.932 236.837 974.122 237.25 974.607 237.503C974.829 237.616 975.061 237.678 975.308 237.678C975.757 237.678 976.345 237.461 976.659 236.863C976.912 236.377 976.834 235.928 976.762 235.701C976.69 235.474 976.499 235.061 976.015 234.808C975.793 234.695 975.561 234.633 975.313 234.633Z" fill="#191919"/>
</g>
<g style="mix-blend-mode:screen">
<path d="M849.118 160.298C848.758 160.298 848.283 160.473 848.031 160.959C847.824 161.351 847.891 161.712 847.948 161.893C848.005 162.074 848.159 162.409 848.551 162.616C848.727 162.708 848.917 162.755 849.113 162.755C849.474 162.755 849.949 162.579 850.201 162.094C850.407 161.702 850.34 161.341 850.284 161.16C850.227 160.979 850.072 160.644 849.68 160.437C849.5 160.344 849.314 160.298 849.118 160.298Z" fill="#191919"/>
</g>
<g style="mix-blend-mode:screen">
<path d="M1034.33 78.567C1033.91 78.567 1033.35 78.7734 1033.05 79.3464C1032.81 79.811 1032.88 80.2343 1032.95 80.4511C1033.02 80.6627 1033.2 81.0602 1033.66 81.3028C1033.87 81.4112 1034.09 81.468 1034.33 81.468C1034.75 81.468 1035.31 81.2615 1035.61 80.6885C1035.98 79.9813 1035.7 79.1038 1035 78.7373C1034.79 78.6289 1034.56 78.5721 1034.33 78.5721L1034.33 78.567Z" fill="#191919"/>
</g>
<g style="mix-blend-mode:screen">
<path d="M1064.27 130.394C1063.26 129.867 1062.02 130.26 1061.5 131.261C1060.98 132.268 1061.37 133.507 1062.37 134.028C1063.37 134.555 1064.61 134.162 1065.13 133.161C1065.66 132.154 1065.27 130.915 1064.27 130.394Z" fill="#191919"/>
</g>
<g style="mix-blend-mode:screen">
<path d="M910.113 139.352C909.721 139.145 909.231 139.3 909.025 139.692C908.819 140.085 908.974 140.575 909.365 140.782C909.757 140.988 910.247 140.833 910.453 140.441C910.659 140.049 910.505 139.558 910.113 139.352Z" fill="#191919"/>
</g>
<g style="mix-blend-mode:screen">
<path d="M936.011 194.201C935.114 193.731 934.011 194.077 933.541 194.975C933.072 195.873 933.418 196.978 934.315 197.447C935.212 197.917 936.315 197.571 936.784 196.673C937.254 195.775 936.908 194.67 936.011 194.201Z" fill="#191919"/>
</g>
<g style="mix-blend-mode:screen">
<path d="M789.943 180.485C789.515 180.258 788.984 180.428 788.757 180.856C788.53 181.285 788.7 181.816 789.128 182.044C789.556 182.271 790.087 182.1 790.314 181.672C790.541 181.244 790.371 180.712 789.943 180.485Z" fill="#191919"/>
</g>
<g style="mix-blend-mode:screen">
<path d="M773.904 8.21188C772.971 7.72665 771.821 8.08799 771.336 9.01714C770.852 9.95146 771.213 11.1026 772.141 11.5878C773.074 12.073 774.224 11.7117 774.708 10.7825C775.193 9.84822 774.832 8.6971 773.904 8.21188Z" fill="#191919"/>
</g>
<g style="mix-blend-mode:screen">
<path d="M884.128 107.557C882.947 106.937 881.488 107.397 880.869 108.579C880.251 109.761 880.709 111.222 881.89 111.841C883.071 112.461 884.53 112.001 885.149 110.819C885.767 109.637 885.308 108.176 884.128 107.557Z" fill="#191919"/>
</g>
<g style="mix-blend-mode:screen">
<path d="M1093.95 179.223C1093.72 179.223 1093.41 179.337 1093.25 179.646C1093.05 180.028 1093.2 180.508 1093.58 180.71C1093.7 180.772 1093.82 180.797 1093.95 180.797C1094.18 180.797 1094.48 180.684 1094.65 180.374C1094.77 180.137 1094.74 179.915 1094.7 179.775C1094.65 179.636 1094.55 179.44 1094.31 179.311C1094.2 179.249 1094.07 179.218 1093.95 179.218L1093.95 179.223Z" fill="#191919"/>
</g>
<g style="mix-blend-mode:screen">
<path d="M845.242 50.9165C844.17 50.3539 842.839 50.772 842.277 51.8457C841.715 52.9245 842.133 54.2511 843.205 54.8138C844.278 55.3764 845.608 54.9583 846.17 53.8846C846.732 52.8058 846.314 51.4792 845.242 50.9165Z" fill="#191919"/>
</g>
<g style="mix-blend-mode:screen">
<path d="M767.768 95.7642C766.262 94.9745 764.406 95.5578 763.617 97.0651C762.829 98.5723 763.411 100.431 764.917 101.22C766.422 102.01 768.278 101.427 769.067 99.9196C769.856 98.4123 769.273 96.554 767.768 95.7642Z" fill="#191919"/>
</g>
<g style="mix-blend-mode:screen">
<path d="M782.321 266.953C781.532 266.54 780.557 266.844 780.145 267.634C779.732 268.424 780.037 269.4 780.826 269.813C781.614 270.226 782.589 269.921 783.001 269.131C783.414 268.341 783.11 267.366 782.321 266.953Z" fill="#191919"/>
</g>
<g style="mix-blend-mode:screen">
<path d="M982.679 113.154C982.277 113.154 981.746 113.35 981.457 113.892C981.225 114.331 981.303 114.738 981.365 114.94C981.427 115.141 981.602 115.518 982.04 115.745C982.241 115.848 982.453 115.905 982.674 115.905C983.076 115.905 983.607 115.709 983.891 115.167C984.123 114.728 984.046 114.32 983.984 114.119C983.922 113.918 983.747 113.541 983.308 113.314C983.107 113.21 982.896 113.159 982.679 113.159L982.679 113.154Z" fill="#191919"/>
</g>
<g style="mix-blend-mode:screen">
<path d="M961.115 294.047C960.687 293.82 960.156 293.99 959.929 294.419C959.702 294.847 959.872 295.379 960.3 295.606C960.728 295.833 961.259 295.663 961.486 295.234C961.713 294.806 961.543 294.274 961.115 294.047Z" fill="#191919"/>
</g>
<g style="mix-blend-mode:screen">
<path d="M986.124 190.486C985.624 190.223 985.005 190.419 984.742 190.919C984.479 191.42 984.675 192.04 985.175 192.303C985.675 192.566 986.294 192.37 986.557 191.869C986.82 191.369 986.624 190.749 986.124 190.486Z" fill="#191919"/>
</g>
<g style="mix-blend-mode:screen">
<path d="M921.354 1.27735C919.956 0.544353 918.229 1.08635 917.502 2.48524C916.77 3.88412 917.311 5.61337 918.709 6.3412C920.106 7.06904 921.833 6.5322 922.56 5.13331C923.292 3.73443 922.751 2.00518 921.354 1.27735Z" fill="#191919"/>
</g>
<g style="mix-blend-mode:screen">
<path d="M885.188 237.708C883.719 236.939 881.904 237.506 881.136 238.978C880.367 240.449 880.934 242.266 882.404 243.035C883.873 243.804 885.688 243.236 886.456 241.765C887.225 240.294 886.657 238.477 885.188 237.708Z" fill="#191919"/>
</g>
<g style="mix-blend-mode:screen">
<path d="M1068.72 223.92C1068 223.544 1067.11 223.822 1066.74 224.54C1066.37 225.257 1066.64 226.145 1067.36 226.517C1068.08 226.894 1068.96 226.615 1069.34 225.898C1069.71 225.18 1069.43 224.292 1068.72 223.92Z" fill="#191919"/>
</g>
</g>
</g>
<g filter="url(#filter5_f_3789_22268)">
<g style="mix-blend-mode:screen">
<path d="M1150.43 10.4759C1151.48 9.92531 1152.78 10.3314 1153.33 11.3844C1153.88 12.4374 1153.47 13.7383 1152.42 14.2889C1151.37 14.8395 1150.07 14.4334 1149.52 13.3804C1148.97 12.3273 1149.38 11.0265 1150.43 10.4759Z" fill="white"/>
</g>
<g style="mix-blend-mode:screen">
<path d="M971.749 37.787C972.32 37.4841 973.028 37.7113 973.331 38.2825C973.633 38.8538 973.406 39.5627 972.836 39.8655C972.265 40.1684 971.557 39.9412 971.254 39.37C970.952 38.7987 971.179 38.0898 971.749 37.787Z" fill="white"/>
</g>
</g>
<g opacity="0.5">
<g style="mix-blend-mode:screen">
<path d="M1150.68 10.9528C1151.47 10.5399 1152.44 10.8444 1152.86 11.6342C1153.27 12.424 1152.96 13.3996 1152.17 13.8125C1151.39 14.2255 1150.41 13.9209 1150 13.1312C1149.59 12.3414 1149.89 11.3658 1150.68 10.9528Z" fill="#191919"/>
</g>
<g style="mix-blend-mode:screen">
<path d="M971.885 38.0472C972.313 37.82 972.844 37.9904 973.071 38.4188C973.298 38.8473 973.128 39.379 972.7 39.6061C972.272 39.8332 971.741 39.6629 971.514 39.2344C971.287 38.806 971.457 38.2743 971.885 38.0472Z" fill="#191919"/>
</g>
</g>
</g>
<defs>
<filter id="filter0_f_3789_22268" x="-28" y="-823" width="1376" height="1376" filterUnits="userSpaceOnUse" color-interpolation-filters="sRGB">
<feFlood flood-opacity="0" result="BackgroundImageFix"/>
<feBlend mode="normal" in="SourceGraphic" in2="BackgroundImageFix" result="shape"/>
<feGaussianBlur stdDeviation="200" result="effect1_foregroundBlur_3789_22268"/>
</filter>
<filter id="filter1_f_3789_22268" x="261.816" y="-895" width="796.363" height="1160" filterUnits="userSpaceOnUse" color-interpolation-filters="sRGB">
<feFlood flood-opacity="0" result="BackgroundImageFix"/>
<feBlend mode="normal" in="SourceGraphic" in2="BackgroundImageFix" result="shape"/>
<feGaussianBlur stdDeviation="50" result="effect1_foregroundBlur_3789_22268"/>
</filter>
<filter id="filter2_f_3789_22268" x="510.91" y="-835" width="298.184" height="843.636" filterUnits="userSpaceOnUse" color-interpolation-filters="sRGB">
<feFlood flood-opacity="0" result="BackgroundImageFix"/>
<feBlend mode="normal" in="SourceGraphic" in2="BackgroundImageFix" result="shape"/>
<feGaussianBlur stdDeviation="20" result="effect1_foregroundBlur_3789_22268"/>
</filter>
<filter id="filter3_f_3789_22268" x="124" y="-62" width="582" height="416" filterUnits="userSpaceOnUse" color-interpolation-filters="sRGB">
<feFlood flood-opacity="0" result="BackgroundImageFix"/>
<feBlend mode="normal" in="SourceGraphic" in2="BackgroundImageFix" result="shape"/>
<feGaussianBlur stdDeviation="30" result="effect1_foregroundBlur_3789_22268"/>
</filter>
<filter id="filter4_f_3789_22268" x="573" y="-60" width="582" height="416" filterUnits="userSpaceOnUse" color-interpolation-filters="sRGB">
<feFlood flood-opacity="0" result="BackgroundImageFix"/>
<feBlend mode="normal" in="SourceGraphic" in2="BackgroundImageFix" result="shape"/>
<feGaussianBlur stdDeviation="30" result="effect1_foregroundBlur_3789_22268"/>
</filter>
<filter id="filter5_f_3789_22268" x="778" y="-316" width="582" height="416" filterUnits="userSpaceOnUse" color-interpolation-filters="sRGB">
<feFlood flood-opacity="0" result="BackgroundImageFix"/>
<feBlend mode="normal" in="SourceGraphic" in2="BackgroundImageFix" result="shape"/>
<feGaussianBlur stdDeviation="30" result="effect1_foregroundBlur_3789_22268"/>
</filter>
<linearGradient id="paint0_linear_3789_22268" x1="660" y1="-586" x2="660" y2="315.312" gradientUnits="userSpaceOnUse">
<stop stop-color="#F60109" stop-opacity="0"/>
<stop offset="0.5" stop-color="#F60109"/>
<stop offset="1" stop-color="#F60109" stop-opacity="0"/>
</linearGradient>
<linearGradient id="paint1_linear_3789_22268" x1="660" y1="-586" x2="660" y2="315.312" gradientUnits="userSpaceOnUse">
<stop stop-color="#F60109" stop-opacity="0"/>
<stop offset="0.5" stop-color="#F60109"/>
<stop offset="1" stop-color="#F60109" stop-opacity="0"/>
</linearGradient>
<linearGradient id="paint2_linear_3789_22268" x1="309.375" y1="-586" x2="309.375" y2="315.312" gradientUnits="userSpaceOnUse">
<stop stop-color="#F60109" stop-opacity="0"/>
<stop offset="0.5" stop-color="#F60109"/>
<stop offset="1" stop-color="#F60109" stop-opacity="0"/>
</linearGradient>
<linearGradient id="paint3_linear_3789_22268" x1="309.375" y1="-586" x2="309.375" y2="315.312" gradientUnits="userSpaceOnUse">
<stop stop-color="#F60109" stop-opacity="0"/>
<stop offset="0.5" stop-color="#F60109"/>
<stop offset="1" stop-color="#F60109" stop-opacity="0"/>
</linearGradient>
<linearGradient id="paint4_linear_3789_22268" x1="1010.62" y1="-586" x2="1010.62" y2="315.312" gradientUnits="userSpaceOnUse">
<stop stop-color="#F60109" stop-opacity="0"/>
<stop offset="0.5" stop-color="#F60109"/>
<stop offset="1" stop-color="#F60109" stop-opacity="0"/>
</linearGradient>
<linearGradient id="paint5_linear_3789_22268" x1="1010.62" y1="-586" x2="1010.62" y2="315.312" gradientUnits="userSpaceOnUse">
<stop stop-color="#F60109" stop-opacity="0"/>
<stop offset="0.5" stop-color="#F60109"/>
<stop offset="1" stop-color="#F60109" stop-opacity="0"/>
</linearGradient>
<linearGradient id="paint6_linear_3789_22268" x1="240" y1="-795" x2="240" y2="165" gradientUnits="userSpaceOnUse">
<stop stop-color="white" stop-opacity="0"/>
<stop offset="0.5" stop-color="white"/>
<stop offset="1" stop-color="white"/>
</linearGradient>
<radialGradient id="paint7_radial_3789_22268" cx="0" cy="0" r="1" gradientUnits="userSpaceOnUse" gradientTransform="translate(660 -795) rotate(90) scale(960 809.655)">
<stop stop-color="#F60109"/>
<stop offset="1" stop-color="#F60109" stop-opacity="0"/>
</radialGradient>
<linearGradient id="paint8_linear_3789_22268" x1="660" y1="-795" x2="660" y2="165" gradientUnits="userSpaceOnUse">
<stop stop-color="#F60109"/>
<stop offset="0.868225" stop-color="#F60109" stop-opacity="0"/>
</linearGradient>
<linearGradient id="paint9_linear_3789_22268" x1="659.998" y1="-795" x2="659.998" y2="165" gradientUnits="userSpaceOnUse">
<stop stop-color="#F60109"/>
<stop offset="0.868225" stop-color="#F60109" stop-opacity="0"/>
</linearGradient>
<linearGradient id="paint10_linear_3789_22268" x1="660.001" y1="-795" x2="660.001" y2="165" gradientUnits="userSpaceOnUse">
<stop stop-color="#F60109"/>
<stop offset="0.868225" stop-color="#F60109" stop-opacity="0"/>
</linearGradient>
<linearGradient id="paint11_linear_3789_22268" x1="659.998" y1="-795" x2="659.998" y2="165" gradientUnits="userSpaceOnUse">
<stop stop-color="#F60109"/>
<stop offset="0.863225" stop-color="#F60109" stop-opacity="0"/>
</linearGradient>
<radialGradient id="paint12_radial_3789_22268" cx="0" cy="0" r="1" gradientUnits="userSpaceOnUse" gradientTransform="translate(660.001 -795) rotate(90) scale(763.636 80.2979)">
<stop stop-color="#FF333A"/>
<stop offset="1" stop-color="#F60109" stop-opacity="0"/>
</radialGradient>
<clipPath id="clip0_3789_22268">
<rect width="1320" height="1320" fill="white" transform="translate(0 -795)"/>
</clipPath>
</defs>
</svg>
