<svg width="1320" height="660" viewBox="0 0 1320 660" fill="none" xmlns="http://www.w3.org/2000/svg">
<g clip-path="url(#clip0_3789_22268)">
<g opacity="0.2" filter="url(#filter0_f_3789_22268)">
<circle cx="660" r="288" fill="#F60109"/>
</g>
<mask id="mask0_3789_22268" style="mask-type:alpha" maskUnits="userSpaceOnUse" x="180" y="-660" width="960" height="832">
<path fill-rule="evenodd" clip-rule="evenodd" d="M660 -660C660 -239.233 483.279 -130.272 344.295 -44.5779C254.223 10.9579 180 56.7216 180 171.25V-660H660ZM1140 171.25C1140 56.7216 1065.78 10.9579 975.705 -44.5779C836.721 -130.272 660 -239.233 660 -660H1140V171.25Z" fill="#D9D9D9"/>
</mask>
<g mask="url(#mask0_3789_22268)">
<rect x="453.75" y="-451" width="412.5" height="901.312" fill="url(#paint0_linear_3789_22268)" fill-opacity="0.1"/>
<rect x="454.75" y="-450" width="410.5" height="899.312" stroke="url(#paint1_linear_3789_22268)" stroke-opacity="0.2" stroke-width="2"/>
<rect x="206.25" y="-451" width="206.25" height="901.312" fill="url(#paint2_linear_3789_22268)" fill-opacity="0.1"/>
<rect x="207.25" y="-450" width="204.25" height="899.312" stroke="url(#paint3_linear_3789_22268)" stroke-opacity="0.2" stroke-width="2"/>
<rect x="907.5" y="-451" width="206.25" height="901.312" fill="url(#paint4_linear_3789_22268)" fill-opacity="0.1"/>
<rect x="908.5" y="-450" width="204.25" height="899.312" stroke="url(#paint5_linear_3789_22268)" stroke-opacity="0.2" stroke-width="2"/>
</g>
<mask id="mask1_3789_22268" style="mask-type:alpha" maskUnits="userSpaceOnUse" x="180" y="-660" width="960" height="960">
<path fill-rule="evenodd" clip-rule="evenodd" d="M344.295 -44.5779C483.279 -130.272 660 -239.233 660 -660C660 -239.233 836.721 -130.272 975.705 -44.5779C1065.78 10.9579 1140 56.7216 1140 171.25V300H660H180V171.25C180 56.7216 254.223 10.9579 344.295 -44.5779Z" fill="url(#paint6_linear_3789_22268)"/>
</mask>
<g mask="url(#mask1_3789_22268)">
<path d="M344.295 -44.5779C483.279 -130.272 660 -239.233 660 -660C660 -239.233 836.721 -130.272 975.705 -44.5779C1065.78 10.9579 1140 56.7216 1140 171.25V300H180V171.25C180 56.7216 254.223 10.9579 344.295 -44.5779Z" fill="url(#paint7_radial_3789_22268)" fill-opacity="0.3" stroke="url(#paint8_linear_3789_22268)" stroke-opacity="0.8" stroke-width="4"/>
<path opacity="0.75" d="M463.878 -44.5779C550.217 -130.272 659.998 -239.233 659.998 -660C659.998 -239.233 769.779 -130.272 856.118 -44.5779C912.072 10.9579 958.18 56.7216 958.18 171.25V300H361.816V171.25C361.816 56.7216 407.924 10.9579 463.878 -44.5779Z" stroke="url(#paint9_linear_3789_22268)" stroke-opacity="0.8" stroke-width="2"/>
<path opacity="0.5" d="M570.073 -44.5779C609.662 -130.272 660.001 -239.233 660.001 -660C660.001 -239.233 710.339 -130.272 749.929 -44.5779C775.586 10.9579 796.728 56.7216 796.728 171.25V300H523.273V171.25C523.273 56.7216 544.416 10.9579 570.073 -44.5779Z" stroke="url(#paint10_linear_3789_22268)" stroke-opacity="0.8" stroke-width="2"/>
<g filter="url(#filter1_f_3789_22268)">
<path fill-rule="evenodd" clip-rule="evenodd" d="M659.998 -658.722C659.776 -239.012 550.129 -130.185 463.878 -44.5779C407.924 10.9579 361.816 56.7216 361.816 171.25V300H523.271V171.25C523.271 56.7216 544.413 10.9579 570.07 -44.5779C609.619 -130.185 659.896 -239.012 659.998 -658.722ZM659.998 -659.221C660.06 -239.099 710.361 -130.219 749.926 -44.5779C775.583 10.9579 796.725 56.7216 796.725 171.25V300H958.18V171.25C958.18 56.7216 912.072 10.9579 856.118 -44.5779C769.779 -130.272 659.998 -239.233 659.998 -660C659.998 -659.74 659.998 -659.48 659.998 -659.221Z" fill="url(#paint11_linear_3789_22268)"/>
</g>
<g filter="url(#filter2_f_3789_22268)">
<path d="M588.25 -170.46C619.837 -238.625 660.001 -325.299 660.001 -660C660.001 -325.299 700.165 -238.625 731.752 -170.46C752.223 -126.284 769.092 -89.8806 769.092 1.22156V103.636H550.91V1.22156C550.91 -89.8806 567.779 -126.284 588.25 -170.46Z" fill="url(#paint12_radial_3789_22268)"/>
</g>
</g>
<g opacity="0.4">
<g filter="url(#filter3_f_3789_22268)">
<g style="mix-blend-mode:screen">
<path d="M275.015 208.679C273.771 209.326 272.238 208.844 271.592 207.606C270.946 206.36 271.427 204.825 272.664 204.178C273.909 203.531 275.442 204.013 276.088 205.252C276.734 206.497 276.253 208.032 275.015 208.679Z" fill="white"/>
</g>
<g style="mix-blend-mode:screen">
<path d="M418.353 236.132C418.311 236.132 418.181 236.118 418.112 235.988C418.098 235.96 418.057 235.891 418.091 235.781C418.126 235.678 418.201 235.637 418.222 235.623C418.263 235.602 418.305 235.588 418.346 235.588C418.387 235.588 418.518 235.602 418.586 235.733C418.655 235.864 418.607 236.029 418.476 236.098C418.435 236.118 418.401 236.132 418.36 236.132L418.353 236.132Z" fill="white"/>
</g>
<g style="mix-blend-mode:screen">
<path d="M188.143 317.296C186.755 318.018 185.05 317.482 184.321 316.098C183.599 314.708 184.136 313.001 185.517 312.271C186.899 311.542 188.611 312.086 189.339 313.469C190.061 314.859 189.525 316.566 188.143 317.296Z" fill="white"/>
</g>
<g style="mix-blend-mode:screen">
<path d="M485.834 354.919C485.271 354.919 484.521 354.643 484.122 353.879C483.799 353.26 483.903 352.695 483.992 352.406C484.081 352.117 484.322 351.594 484.941 351.271C485.222 351.126 485.518 351.051 485.827 351.051C486.391 351.051 487.14 351.326 487.539 352.09C487.862 352.709 487.759 353.274 487.67 353.563C487.58 353.852 487.34 354.375 486.721 354.698C486.439 354.843 486.144 354.919 485.834 354.919Z" fill="white"/>
</g>
<g style="mix-blend-mode:screen">
<path d="M526.318 194.874C525.72 194.874 524.936 194.585 524.517 193.787C524.18 193.14 524.283 192.541 524.379 192.238C524.475 191.935 524.73 191.385 525.376 191.048C525.671 190.896 525.981 190.814 526.311 190.814C526.909 190.814 527.693 191.103 528.112 191.901C528.449 192.548 528.346 193.147 528.249 193.45C528.153 193.752 527.899 194.303 527.253 194.64C526.957 194.792 526.648 194.874 526.318 194.874Z" fill="white"/>
</g>
<g style="mix-blend-mode:screen">
<path d="M400.118 269.11C399.636 269.11 399.004 268.876 398.667 268.229C398.392 267.706 398.481 267.224 398.557 266.983C398.633 266.742 398.839 266.295 399.361 266.02C399.595 265.896 399.849 265.834 400.111 265.834C400.592 265.834 401.224 266.068 401.561 266.715C401.836 267.238 401.747 267.72 401.671 267.96C401.596 268.201 401.389 268.649 400.867 268.924C400.626 269.048 400.379 269.11 400.118 269.11Z" fill="white"/>
</g>
<g style="mix-blend-mode:screen">
<path d="M585.334 350.916C584.771 350.916 584.021 350.641 583.622 349.877C583.299 349.257 583.403 348.693 583.492 348.404C583.581 348.122 583.822 347.592 584.441 347.268C584.722 347.124 585.018 347.048 585.327 347.048C585.891 347.048 586.64 347.323 587.039 348.087C587.534 349.03 587.163 350.2 586.221 350.689C585.939 350.833 585.644 350.909 585.334 350.909L585.334 350.916Z" fill="white"/>
</g>
<g style="mix-blend-mode:screen">
<path d="M615.586 299.21C614.246 299.912 612.596 299.389 611.902 298.054C611.2 296.711 611.723 295.06 613.057 294.364C614.397 293.662 616.047 294.186 616.741 295.521C617.442 296.863 616.92 298.515 615.586 299.21Z" fill="white"/>
</g>
<g style="mix-blend-mode:screen">
<path d="M461.237 289.887C460.714 290.162 460.061 289.955 459.786 289.432C459.511 288.909 459.717 288.255 460.24 287.98C460.762 287.705 461.415 287.911 461.69 288.434C461.965 288.957 461.759 289.611 461.237 289.887Z" fill="white"/>
</g>
<g style="mix-blend-mode:screen">
<path d="M487.295 235.341C486.099 235.968 484.627 235.506 484.002 234.309C483.376 233.111 483.837 231.638 485.033 231.012C486.229 230.386 487.7 230.847 488.326 232.045C488.951 233.242 488.491 234.715 487.295 235.341Z" fill="white"/>
</g>
<g style="mix-blend-mode:screen">
<path d="M341.079 248.775C340.508 249.078 339.8 248.851 339.498 248.28C339.195 247.709 339.422 247 339.993 246.697C340.563 246.394 341.271 246.621 341.574 247.192C341.876 247.764 341.649 248.473 341.079 248.775Z" fill="white"/>
</g>
<g style="mix-blend-mode:screen">
<path d="M325.199 421.351C323.955 421.998 322.422 421.516 321.775 420.277C321.129 419.031 321.611 417.497 322.848 416.85C324.092 416.203 325.625 416.684 326.271 417.923C326.918 419.169 326.436 420.704 325.199 421.351Z" fill="white"/>
</g>
<g style="mix-blend-mode:screen">
<path d="M435.505 322.157C433.931 322.983 431.985 322.37 431.16 320.794C430.335 319.218 430.947 317.27 432.521 316.444C434.096 315.618 436.041 316.231 436.866 317.807C437.691 319.383 437.079 321.331 435.505 322.157Z" fill="white"/>
</g>
<g style="mix-blend-mode:screen">
<path d="M644.953 250.038C644.643 250.038 644.238 249.887 644.018 249.474C643.75 248.964 643.949 248.324 644.464 248.056C644.616 247.973 644.781 247.939 644.946 247.939C645.255 247.939 645.661 248.09 645.881 248.503C646.046 248.82 646.011 249.116 645.949 249.302C645.887 249.488 645.75 249.749 645.434 249.921C645.282 250.004 645.117 250.045 644.953 250.045L644.953 250.038Z" fill="white"/>
</g>
<g style="mix-blend-mode:screen">
<path d="M396.579 378.732C395.149 379.482 393.376 378.925 392.626 377.493C391.877 376.055 392.434 374.286 393.864 373.536C395.294 372.785 397.067 373.343 397.817 374.775C398.566 376.213 398.009 377.982 396.579 378.732Z" fill="white"/>
</g>
<g style="mix-blend-mode:screen">
<path d="M319.241 334.145C317.234 335.198 314.759 334.42 313.707 332.41C312.656 330.401 313.432 327.923 315.44 326.87C317.447 325.817 319.922 326.595 320.974 328.604C322.025 330.614 321.249 333.092 319.241 334.145Z" fill="white"/>
</g>
<g style="mix-blend-mode:screen">
<path d="M333.572 162.524C332.52 163.075 331.221 162.669 330.671 161.616C330.121 160.562 330.527 159.262 331.579 158.711C332.63 158.16 333.93 158.567 334.48 159.62C335.029 160.673 334.624 161.973 333.572 162.524Z" fill="white"/>
</g>
<g style="mix-blend-mode:screen">
<path d="M533.682 316.304C533.146 316.304 532.438 316.042 532.053 315.319C531.743 314.734 531.846 314.191 531.929 313.922C532.011 313.654 532.245 313.151 532.829 312.849C533.098 312.711 533.379 312.635 533.675 312.635C534.211 312.635 534.919 312.897 535.297 313.619C535.607 314.204 535.504 314.748 535.421 315.017C535.339 315.285 535.105 315.787 534.521 316.09C534.252 316.228 533.971 316.297 533.682 316.297L533.682 316.304Z" fill="white"/>
</g>
<g style="mix-blend-mode:screen">
<path d="M512.251 135.213C511.68 135.516 510.972 135.289 510.669 134.717C510.367 134.146 510.594 133.437 511.164 133.134C511.735 132.832 512.443 133.059 512.746 133.63C513.048 134.201 512.821 134.91 512.251 135.213Z" fill="white"/>
</g>
<g style="mix-blend-mode:screen">
<path d="M537.28 238.817C536.613 239.168 535.788 238.907 535.437 238.239C535.087 237.572 535.348 236.746 536.015 236.395C536.681 236.044 537.506 236.305 537.857 236.973C538.208 237.64 537.946 238.466 537.28 238.817Z" fill="white"/>
</g>
<g style="mix-blend-mode:screen">
<path d="M472.797 428.564C470.934 429.542 468.631 428.819 467.662 426.954C466.686 425.089 467.407 422.783 469.27 421.812C471.133 420.842 473.436 421.558 474.406 423.423C475.382 425.288 474.66 427.594 472.797 428.564Z" fill="white"/>
</g>
<g style="mix-blend-mode:screen">
<path d="M436.653 192.179C434.694 193.205 432.274 192.448 431.25 190.486C430.225 188.525 430.982 186.102 432.941 185.077C434.9 184.051 437.32 184.808 438.344 186.77C439.368 188.731 438.612 191.154 436.653 192.179Z" fill="white"/>
</g>
<g style="mix-blend-mode:screen">
<path d="M619.943 205.512C618.987 206.014 617.805 205.642 617.31 204.686C616.808 203.729 617.179 202.545 618.135 202.05C619.09 201.547 620.273 201.919 620.768 202.876C621.269 203.832 620.898 205.016 619.943 205.512Z" fill="white"/>
</g>
</g>
<g opacity="0.5">
<g style="mix-blend-mode:screen">
<path d="M274.72 208.117C273.787 208.602 272.638 208.24 272.153 207.311C271.668 206.377 272.029 205.226 272.957 204.741C273.89 204.255 275.04 204.617 275.525 205.546C276.009 206.48 275.649 207.631 274.72 208.117Z" fill="#191919"/>
</g>
<g style="mix-blend-mode:screen">
<path d="M418.35 236.064C418.32 236.064 418.222 236.054 418.17 235.956C418.16 235.935 418.129 235.884 418.155 235.801C418.18 235.724 418.237 235.693 418.253 235.682C418.283 235.667 418.314 235.656 418.345 235.656C418.376 235.656 418.474 235.667 418.526 235.765C418.577 235.863 418.541 235.987 418.443 236.038C418.412 236.054 418.387 236.064 418.356 236.064L418.35 236.064Z" fill="#191919"/>
</g>
<g style="mix-blend-mode:screen">
<path d="M187.814 316.666C186.773 317.208 185.494 316.805 184.948 315.767C184.407 314.725 184.809 313.444 185.845 312.897C186.881 312.35 188.165 312.758 188.712 313.796C189.253 314.838 188.851 316.118 187.814 316.666Z" fill="#191919"/>
</g>
<g style="mix-blend-mode:screen">
<path d="M485.832 354.436C485.409 354.436 484.847 354.23 484.548 353.657C484.306 353.192 484.383 352.769 484.45 352.552C484.517 352.335 484.697 351.943 485.161 351.7C485.373 351.592 485.595 351.535 485.827 351.535C486.249 351.535 486.811 351.742 487.11 352.315C487.353 352.779 487.275 353.202 487.208 353.419C487.141 353.636 486.961 354.028 486.497 354.271C486.285 354.379 486.064 354.436 485.832 354.436Z" fill="#191919"/>
</g>
<g style="mix-blend-mode:screen">
<path d="M526.313 194.367C525.865 194.367 525.277 194.15 524.963 193.552C524.71 193.066 524.787 192.617 524.86 192.39C524.932 192.163 525.122 191.75 525.607 191.497C525.829 191.384 526.061 191.322 526.308 191.322C526.757 191.322 527.345 191.539 527.659 192.137C527.912 192.623 527.834 193.072 527.762 193.299C527.69 193.526 527.499 193.939 527.015 194.192C526.793 194.305 526.561 194.367 526.313 194.367Z" fill="#191919"/>
</g>
<g style="mix-blend-mode:screen">
<path d="M400.118 268.702C399.758 268.702 399.283 268.527 399.031 268.041C398.824 267.649 398.891 267.288 398.948 267.107C399.005 266.926 399.159 266.591 399.551 266.384C399.727 266.291 399.917 266.245 400.113 266.245C400.474 266.245 400.949 266.421 401.201 266.906C401.407 267.298 401.34 267.659 401.284 267.84C401.227 268.021 401.072 268.356 400.68 268.563C400.5 268.656 400.314 268.702 400.118 268.702Z" fill="#191919"/>
</g>
<g style="mix-blend-mode:screen">
<path d="M585.332 350.433C584.909 350.433 584.347 350.227 584.048 349.654C583.806 349.189 583.883 348.766 583.95 348.549C584.017 348.337 584.197 347.94 584.661 347.697C584.873 347.589 585.095 347.532 585.327 347.532C585.749 347.532 586.311 347.738 586.61 348.311C586.982 349.019 586.703 349.896 585.997 350.263C585.785 350.371 585.564 350.428 585.332 350.428L585.332 350.433Z" fill="#191919"/>
</g>
<g style="mix-blend-mode:screen">
<path d="M615.267 298.606C614.262 299.132 613.024 298.74 612.503 297.739C611.978 296.732 612.369 295.493 613.37 294.972C614.375 294.445 615.612 294.838 616.133 295.839C616.659 296.846 616.267 298.085 615.267 298.606Z" fill="#191919"/>
</g>
<g style="mix-blend-mode:screen">
<path d="M461.113 289.648C460.721 289.855 460.231 289.7 460.025 289.307C459.819 288.915 459.974 288.425 460.365 288.218C460.757 288.012 461.247 288.167 461.453 288.559C461.659 288.951 461.505 289.442 461.113 289.648Z" fill="#191919"/>
</g>
<g style="mix-blend-mode:screen">
<path d="M487.011 234.799C486.114 235.269 485.011 234.923 484.541 234.025C484.072 233.127 484.418 232.022 485.315 231.553C486.212 231.083 487.315 231.429 487.784 232.327C488.254 233.225 487.908 234.33 487.011 234.799Z" fill="#191919"/>
</g>
<g style="mix-blend-mode:screen">
<path d="M340.943 248.515C340.515 248.742 339.984 248.572 339.757 248.144C339.53 247.715 339.7 247.183 340.128 246.956C340.556 246.729 341.087 246.9 341.314 247.328C341.541 247.756 341.371 248.288 340.943 248.515Z" fill="#191919"/>
</g>
<g style="mix-blend-mode:screen">
<path d="M324.904 420.788C323.971 421.273 322.821 420.912 322.336 419.983C321.852 419.048 322.213 417.897 323.141 417.412C324.074 416.927 325.224 417.288 325.708 418.217C326.193 419.152 325.832 420.303 324.904 420.788Z" fill="#191919"/>
</g>
<g style="mix-blend-mode:screen">
<path d="M435.128 321.443C433.947 322.063 432.488 321.603 431.869 320.421C431.251 319.239 431.709 317.778 432.89 317.159C434.071 316.539 435.53 316.999 436.149 318.181C436.767 319.363 436.308 320.824 435.128 321.443Z" fill="#191919"/>
</g>
<g style="mix-blend-mode:screen">
<path d="M644.951 249.777C644.719 249.777 644.415 249.663 644.25 249.354C644.048 248.972 644.198 248.492 644.585 248.29C644.698 248.228 644.822 248.202 644.946 248.202C645.178 248.202 645.482 248.316 645.647 248.626C645.77 248.863 645.745 249.085 645.698 249.225C645.652 249.364 645.549 249.56 645.312 249.689C645.198 249.751 645.074 249.782 644.951 249.782L644.951 249.777Z" fill="#191919"/>
</g>
<g style="mix-blend-mode:screen">
<path d="M396.242 378.083C395.17 378.646 393.839 378.228 393.277 377.154C392.715 376.075 393.133 374.749 394.205 374.186C395.278 373.624 396.608 374.042 397.17 375.115C397.732 376.194 397.314 377.521 396.242 378.083Z" fill="#191919"/>
</g>
<g style="mix-blend-mode:screen">
<path d="M318.768 333.236C317.262 334.025 315.406 333.442 314.617 331.935C313.829 330.428 314.411 328.569 315.917 327.78C317.422 326.99 319.278 327.573 320.067 329.08C320.856 330.588 320.273 332.446 318.768 333.236Z" fill="#191919"/>
</g>
<g style="mix-blend-mode:screen">
<path d="M333.321 162.047C332.532 162.46 331.557 162.155 331.145 161.366C330.732 160.576 331.037 159.6 331.826 159.187C332.614 158.774 333.589 159.079 334.001 159.869C334.414 160.659 334.11 161.634 333.321 162.047Z" fill="#191919"/>
</g>
<g style="mix-blend-mode:screen">
<path d="M533.679 315.846C533.277 315.846 532.746 315.65 532.457 315.108C532.225 314.669 532.303 314.262 532.365 314.06C532.427 313.859 532.602 313.482 533.04 313.255C533.241 313.152 533.453 313.095 533.674 313.095C534.076 313.095 534.607 313.291 534.891 313.833C535.123 314.272 535.046 314.68 534.984 314.881C534.922 315.082 534.747 315.459 534.308 315.686C534.107 315.789 533.896 315.841 533.679 315.841L533.679 315.846Z" fill="#191919"/>
</g>
<g style="mix-blend-mode:screen">
<path d="M512.115 134.953C511.687 135.18 511.156 135.01 510.929 134.581C510.702 134.153 510.872 133.621 511.3 133.394C511.728 133.167 512.259 133.337 512.486 133.765C512.713 134.194 512.543 134.726 512.115 134.953Z" fill="#191919"/>
</g>
<g style="mix-blend-mode:screen">
<path d="M537.124 238.514C536.624 238.777 536.005 238.581 535.742 238.08C535.479 237.58 535.675 236.96 536.175 236.697C536.675 236.434 537.294 236.63 537.557 237.131C537.82 237.631 537.624 238.251 537.124 238.514Z" fill="#191919"/>
</g>
<g style="mix-blend-mode:screen">
<path d="M472.354 427.723C470.956 428.456 469.229 427.914 468.502 426.515C467.77 425.116 468.311 423.387 469.709 422.659C471.106 421.931 472.833 422.468 473.56 423.867C474.292 425.265 473.751 426.995 472.354 427.723Z" fill="#191919"/>
</g>
<g style="mix-blend-mode:screen">
<path d="M436.188 191.292C434.719 192.061 432.904 191.493 432.136 190.022C431.367 188.551 431.934 186.734 433.404 185.965C434.873 185.196 436.688 185.764 437.456 187.235C438.225 188.706 437.657 190.523 436.188 191.292Z" fill="#191919"/>
</g>
<g style="mix-blend-mode:screen">
<path d="M619.717 205.079C619 205.456 618.113 205.178 617.742 204.46C617.366 203.743 617.644 202.855 618.361 202.483C619.077 202.106 619.964 202.385 620.335 203.102C620.712 203.82 620.433 204.708 619.717 205.079Z" fill="#191919"/>
</g>
</g>
</g>
<g opacity="0.4">
<g filter="url(#filter4_f_3789_22268)">
<g style="mix-blend-mode:screen">
<path d="M724.015 355.321C722.771 354.674 721.238 355.155 720.592 356.394C719.946 357.64 720.427 359.175 721.664 359.822C722.909 360.469 724.442 359.987 725.088 358.748C725.734 357.502 725.253 355.968 724.015 355.321Z" fill="white"/>
</g>
<g style="mix-blend-mode:screen">
<path d="M867.353 327.868C867.311 327.868 867.181 327.881 867.112 328.012C867.098 328.04 867.057 328.109 867.091 328.219C867.126 328.322 867.201 328.363 867.222 328.377C867.263 328.398 867.305 328.411 867.346 328.411C867.387 328.411 867.518 328.398 867.586 328.267C867.655 328.136 867.607 327.971 867.476 327.902C867.435 327.881 867.401 327.868 867.36 327.868L867.353 327.868Z" fill="white"/>
</g>
<g style="mix-blend-mode:screen">
<path d="M637.143 246.704C635.755 245.981 634.05 246.518 633.321 247.902C632.599 249.292 633.136 250.999 634.517 251.728C635.899 252.458 637.611 251.914 638.339 250.531C639.061 249.141 638.525 247.434 637.143 246.704Z" fill="white"/>
</g>
<g style="mix-blend-mode:screen">
<path d="M934.834 209.081C934.271 209.081 933.521 209.357 933.122 210.121C932.799 210.74 932.903 211.304 932.992 211.593C933.081 211.883 933.322 212.406 933.941 212.729C934.222 212.874 934.518 212.949 934.827 212.949C935.391 212.949 936.14 212.674 936.539 211.91C936.862 211.291 936.759 210.726 936.67 210.437C936.58 210.148 936.34 209.625 935.721 209.302C935.439 209.157 935.144 209.081 934.834 209.081Z" fill="white"/>
</g>
<g style="mix-blend-mode:screen">
<path d="M975.318 369.126C974.72 369.126 973.936 369.415 973.517 370.213C973.18 370.86 973.283 371.459 973.379 371.762C973.475 372.064 973.73 372.615 974.376 372.952C974.671 373.104 974.981 373.186 975.311 373.186C975.909 373.186 976.693 372.897 977.112 372.099C977.449 371.452 977.346 370.853 977.249 370.55C977.153 370.247 976.899 369.697 976.253 369.36C975.957 369.208 975.648 369.126 975.318 369.126Z" fill="white"/>
</g>
<g style="mix-blend-mode:screen">
<path d="M849.118 294.89C848.636 294.89 848.004 295.124 847.667 295.771C847.392 296.294 847.481 296.776 847.557 297.017C847.633 297.258 847.839 297.705 848.361 297.98C848.595 298.104 848.849 298.166 849.111 298.166C849.592 298.166 850.224 297.932 850.561 297.285C850.836 296.762 850.747 296.28 850.671 296.039C850.596 295.799 850.389 295.351 849.867 295.076C849.626 294.952 849.379 294.89 849.118 294.89Z" fill="white"/>
</g>
<g style="mix-blend-mode:screen">
<path d="M1034.33 213.084C1033.77 213.084 1033.02 213.359 1032.62 214.123C1032.3 214.743 1032.4 215.307 1032.49 215.596C1032.58 215.878 1032.82 216.408 1033.44 216.732C1033.72 216.876 1034.02 216.952 1034.33 216.952C1034.89 216.952 1035.64 216.677 1036.04 215.913C1036.53 214.97 1036.16 213.8 1035.22 213.311C1034.94 213.166 1034.64 213.091 1034.33 213.091L1034.33 213.084Z" fill="white"/>
</g>
<g style="mix-blend-mode:screen">
<path d="M1064.59 264.79C1063.25 264.088 1061.6 264.611 1060.9 265.946C1060.2 267.288 1060.72 268.94 1062.06 269.635C1063.4 270.337 1065.05 269.814 1065.74 268.479C1066.44 267.137 1065.92 265.485 1064.59 264.79Z" fill="white"/>
</g>
<g style="mix-blend-mode:screen">
<path d="M910.237 274.113C909.714 273.838 909.061 274.045 908.786 274.568C908.511 275.091 908.717 275.745 909.24 276.02C909.762 276.295 910.415 276.089 910.69 275.566C910.965 275.042 910.759 274.389 910.237 274.113Z" fill="white"/>
</g>
<g style="mix-blend-mode:screen">
<path d="M936.295 328.659C935.099 328.032 933.627 328.493 933.002 329.691C932.376 330.889 932.837 332.361 934.033 332.988C935.229 333.614 936.7 333.153 937.326 331.955C937.951 330.758 937.491 329.285 936.295 328.659Z" fill="white"/>
</g>
<g style="mix-blend-mode:screen">
<path d="M790.079 315.224C789.508 314.922 788.8 315.149 788.498 315.72C788.195 316.291 788.422 317 788.993 317.303C789.563 317.606 790.271 317.379 790.574 316.807C790.876 316.236 790.649 315.527 790.079 315.224Z" fill="white"/>
</g>
<g style="mix-blend-mode:screen">
<path d="M774.199 142.649C772.955 142.002 771.422 142.484 770.775 143.723C770.129 144.968 770.611 146.503 771.848 147.15C773.092 147.797 774.625 147.315 775.271 146.077C775.918 144.831 775.436 143.296 774.199 142.649Z" fill="white"/>
</g>
<g style="mix-blend-mode:screen">
<path d="M884.505 241.843C882.931 241.017 880.985 241.63 880.16 243.206C879.335 244.782 879.947 246.73 881.521 247.556C883.096 248.382 885.041 247.769 885.866 246.193C886.691 244.617 886.079 242.669 884.505 241.843Z" fill="white"/>
</g>
<g style="mix-blend-mode:screen">
<path d="M1093.95 313.962C1093.64 313.962 1093.24 314.113 1093.02 314.526C1092.75 315.035 1092.95 315.675 1093.46 315.944C1093.62 316.027 1093.78 316.061 1093.95 316.061C1094.25 316.061 1094.66 315.909 1094.88 315.497C1095.05 315.18 1095.01 314.884 1094.95 314.698C1094.89 314.512 1094.75 314.251 1094.43 314.079C1094.28 313.996 1094.12 313.955 1093.95 313.955L1093.95 313.962Z" fill="white"/>
</g>
<g style="mix-blend-mode:screen">
<path d="M845.579 185.268C844.149 184.518 842.376 185.075 841.626 186.507C840.877 187.945 841.434 189.714 842.864 190.464C844.294 191.214 846.067 190.657 846.817 189.225C847.566 187.787 847.009 186.018 845.579 185.268Z" fill="white"/>
</g>
<g style="mix-blend-mode:screen">
<path d="M768.241 229.855C766.234 228.802 763.759 229.58 762.707 231.589C761.656 233.599 762.432 236.077 764.44 237.13C766.447 238.183 768.922 237.405 769.974 235.396C771.025 233.386 770.249 230.908 768.241 229.855Z" fill="white"/>
</g>
<g style="mix-blend-mode:screen">
<path d="M782.572 401.476C781.52 400.925 780.221 401.331 779.671 402.384C779.121 403.437 779.527 404.738 780.579 405.289C781.63 405.839 782.93 405.433 783.48 404.38C784.029 403.327 783.624 402.026 782.572 401.476Z" fill="white"/>
</g>
<g style="mix-blend-mode:screen">
<path d="M982.682 247.696C982.146 247.696 981.438 247.958 981.053 248.68C980.743 249.266 980.846 249.809 980.929 250.078C981.011 250.346 981.245 250.848 981.829 251.151C982.098 251.289 982.379 251.365 982.675 251.365C983.211 251.365 983.919 251.103 984.297 250.38C984.607 249.795 984.504 249.252 984.421 248.983C984.339 248.715 984.105 248.212 983.521 247.91C983.252 247.772 982.971 247.703 982.682 247.703L982.682 247.696Z" fill="white"/>
</g>
<g style="mix-blend-mode:screen">
<path d="M961.251 428.787C960.68 428.484 959.972 428.711 959.669 429.282C959.367 429.854 959.594 430.563 960.164 430.865C960.735 431.168 961.443 430.941 961.746 430.37C962.048 429.799 961.821 429.09 961.251 428.787Z" fill="white"/>
</g>
<g style="mix-blend-mode:screen">
<path d="M986.28 325.183C985.613 324.832 984.788 325.093 984.437 325.761C984.087 326.428 984.348 327.254 985.015 327.605C985.681 327.956 986.506 327.695 986.857 327.027C987.208 326.359 986.946 325.534 986.28 325.183Z" fill="white"/>
</g>
<g style="mix-blend-mode:screen">
<path d="M921.797 135.436C919.934 134.458 917.631 135.181 916.662 137.046C915.686 138.911 916.407 141.217 918.27 142.187C920.133 143.158 922.436 142.442 923.406 140.577C924.382 138.712 923.66 136.406 921.797 135.436Z" fill="white"/>
</g>
<g style="mix-blend-mode:screen">
<path d="M885.653 371.821C883.694 370.795 881.274 371.552 880.25 373.514C879.225 375.475 879.982 377.898 881.941 378.923C883.9 379.949 886.32 379.192 887.344 377.23C888.368 375.269 887.612 372.846 885.653 371.821Z" fill="white"/>
</g>
<g style="mix-blend-mode:screen">
<path d="M1068.94 358.488C1067.99 357.986 1066.8 358.357 1066.31 359.314C1065.81 360.271 1066.18 361.455 1067.13 361.95C1068.09 362.453 1069.27 362.081 1069.77 361.124C1070.27 360.168 1069.9 358.984 1068.94 358.488Z" fill="white"/>
</g>
</g>
<g opacity="0.5">
<g style="mix-blend-mode:screen">
<path d="M723.72 355.883C722.787 355.398 721.638 355.759 721.153 356.689C720.668 357.623 721.029 358.774 721.957 359.259C722.89 359.744 724.04 359.383 724.525 358.454C725.009 357.52 724.649 356.369 723.72 355.883Z" fill="#191919"/>
</g>
<g style="mix-blend-mode:screen">
<path d="M867.35 327.936C867.32 327.936 867.222 327.946 867.17 328.044C867.16 328.065 867.129 328.116 867.155 328.199C867.18 328.276 867.237 328.307 867.253 328.318C867.283 328.333 867.314 328.343 867.345 328.343C867.376 328.343 867.474 328.333 867.526 328.235C867.577 328.137 867.541 328.013 867.443 327.961C867.412 327.946 867.387 327.936 867.356 327.936L867.35 327.936Z" fill="#191919"/>
</g>
<g style="mix-blend-mode:screen">
<path d="M636.814 247.334C635.773 246.792 634.494 247.195 633.948 248.233C633.407 249.275 633.809 250.555 634.845 251.103C635.881 251.65 637.165 251.242 637.712 250.204C638.253 249.162 637.851 247.882 636.814 247.334Z" fill="#191919"/>
</g>
<g style="mix-blend-mode:screen">
<path d="M934.832 209.564C934.409 209.564 933.847 209.77 933.548 210.343C933.306 210.808 933.383 211.231 933.45 211.448C933.517 211.665 933.697 212.057 934.161 212.3C934.373 212.408 934.595 212.465 934.827 212.465C935.249 212.465 935.811 212.258 936.11 211.685C936.353 211.221 936.275 210.797 936.208 210.581C936.141 210.364 935.961 209.972 935.497 209.729C935.285 209.621 935.064 209.564 934.832 209.564Z" fill="#191919"/>
</g>
<g style="mix-blend-mode:screen">
<path d="M975.313 369.633C974.865 369.633 974.277 369.849 973.963 370.448C973.71 370.933 973.787 371.383 973.86 371.61C973.932 371.837 974.122 372.25 974.607 372.503C974.829 372.616 975.061 372.678 975.308 372.678C975.757 372.678 976.345 372.461 976.659 371.863C976.912 371.377 976.834 370.928 976.762 370.701C976.69 370.474 976.499 370.061 976.015 369.808C975.793 369.695 975.561 369.633 975.313 369.633Z" fill="#191919"/>
</g>
<g style="mix-blend-mode:screen">
<path d="M849.118 295.298C848.758 295.298 848.283 295.473 848.031 295.959C847.824 296.351 847.891 296.712 847.948 296.893C848.005 297.074 848.159 297.409 848.551 297.616C848.727 297.708 848.917 297.755 849.113 297.755C849.474 297.755 849.949 297.579 850.201 297.094C850.407 296.702 850.34 296.341 850.284 296.16C850.227 295.979 850.072 295.644 849.68 295.437C849.5 295.344 849.314 295.298 849.118 295.298Z" fill="#191919"/>
</g>
<g style="mix-blend-mode:screen">
<path d="M1034.33 213.567C1033.91 213.567 1033.35 213.773 1033.05 214.346C1032.81 214.811 1032.88 215.234 1032.95 215.451C1033.02 215.663 1033.2 216.06 1033.66 216.303C1033.87 216.411 1034.09 216.468 1034.33 216.468C1034.75 216.468 1035.31 216.261 1035.61 215.688C1035.98 214.981 1035.7 214.104 1035 213.737C1034.79 213.629 1034.56 213.572 1034.33 213.572L1034.33 213.567Z" fill="#191919"/>
</g>
<g style="mix-blend-mode:screen">
<path d="M1064.27 265.394C1063.26 264.867 1062.02 265.26 1061.5 266.261C1060.98 267.268 1061.37 268.507 1062.37 269.028C1063.37 269.554 1064.61 269.162 1065.13 268.161C1065.66 267.154 1065.27 265.915 1064.27 265.394Z" fill="#191919"/>
</g>
<g style="mix-blend-mode:screen">
<path d="M910.113 274.352C909.721 274.145 909.231 274.3 909.025 274.692C908.819 275.085 908.974 275.575 909.365 275.782C909.757 275.988 910.247 275.833 910.453 275.441C910.659 275.049 910.505 274.558 910.113 274.352Z" fill="#191919"/>
</g>
<g style="mix-blend-mode:screen">
<path d="M936.011 329.201C935.114 328.731 934.011 329.077 933.541 329.975C933.072 330.873 933.418 331.978 934.315 332.447C935.212 332.917 936.315 332.571 936.784 331.673C937.254 330.775 936.908 329.67 936.011 329.201Z" fill="#191919"/>
</g>
<g style="mix-blend-mode:screen">
<path d="M789.943 315.485C789.515 315.258 788.984 315.428 788.757 315.856C788.53 316.285 788.7 316.816 789.128 317.044C789.556 317.271 790.087 317.1 790.314 316.672C790.541 316.243 790.371 315.712 789.943 315.485Z" fill="#191919"/>
</g>
<g style="mix-blend-mode:screen">
<path d="M773.904 143.212C772.971 142.727 771.821 143.088 771.336 144.017C770.852 144.951 771.213 146.103 772.141 146.588C773.074 147.073 774.224 146.712 774.708 145.782C775.193 144.848 774.832 143.697 773.904 143.212Z" fill="#191919"/>
</g>
<g style="mix-blend-mode:screen">
<path d="M884.128 242.557C882.947 241.937 881.488 242.397 880.869 243.579C880.251 244.761 880.709 246.222 881.89 246.841C883.071 247.46 884.53 247.001 885.149 245.819C885.767 244.637 885.308 243.176 884.128 242.557Z" fill="#191919"/>
</g>
<g style="mix-blend-mode:screen">
<path d="M1093.95 314.223C1093.72 314.223 1093.41 314.337 1093.25 314.646C1093.05 315.028 1093.2 315.508 1093.58 315.71C1093.7 315.772 1093.82 315.797 1093.95 315.797C1094.18 315.797 1094.48 315.684 1094.65 315.374C1094.77 315.137 1094.74 314.915 1094.7 314.775C1094.65 314.636 1094.55 314.44 1094.31 314.311C1094.2 314.249 1094.07 314.218 1093.95 314.218L1093.95 314.223Z" fill="#191919"/>
</g>
<g style="mix-blend-mode:screen">
<path d="M845.242 185.916C844.17 185.354 842.839 185.772 842.277 186.846C841.715 187.924 842.133 189.251 843.205 189.814C844.278 190.376 845.608 189.958 846.17 188.885C846.732 187.806 846.314 186.479 845.242 185.916Z" fill="#191919"/>
</g>
<g style="mix-blend-mode:screen">
<path d="M767.768 230.764C766.262 229.974 764.406 230.558 763.617 232.065C762.829 233.572 763.411 235.431 764.917 236.22C766.422 237.01 768.278 236.427 769.067 234.92C769.856 233.412 769.273 231.554 767.768 230.764Z" fill="#191919"/>
</g>
<g style="mix-blend-mode:screen">
<path d="M782.321 401.953C781.532 401.54 780.557 401.844 780.145 402.634C779.732 403.424 780.037 404.4 780.826 404.812C781.614 405.225 782.589 404.921 783.001 404.131C783.414 403.341 783.11 402.366 782.321 401.953Z" fill="#191919"/>
</g>
<g style="mix-blend-mode:screen">
<path d="M982.679 248.154C982.277 248.154 981.746 248.35 981.457 248.892C981.225 249.331 981.303 249.738 981.365 249.94C981.427 250.141 981.602 250.518 982.04 250.745C982.241 250.848 982.453 250.905 982.674 250.905C983.076 250.905 983.607 250.709 983.891 250.167C984.123 249.728 984.046 249.32 983.984 249.119C983.922 248.918 983.747 248.541 983.308 248.314C983.107 248.21 982.896 248.159 982.679 248.159L982.679 248.154Z" fill="#191919"/>
</g>
<g style="mix-blend-mode:screen">
<path d="M961.115 429.047C960.687 428.82 960.156 428.99 959.929 429.419C959.702 429.847 959.872 430.379 960.3 430.606C960.728 430.833 961.259 430.663 961.486 430.234C961.713 429.806 961.543 429.274 961.115 429.047Z" fill="#191919"/>
</g>
<g style="mix-blend-mode:screen">
<path d="M986.124 325.486C985.624 325.223 985.005 325.419 984.742 325.919C984.479 326.42 984.675 327.04 985.175 327.303C985.675 327.566 986.294 327.37 986.557 326.869C986.82 326.368 986.624 325.749 986.124 325.486Z" fill="#191919"/>
</g>
<g style="mix-blend-mode:screen">
<path d="M921.354 136.277C919.956 135.544 918.229 136.086 917.502 137.485C916.77 138.884 917.311 140.613 918.709 141.341C920.106 142.069 921.833 141.532 922.56 140.133C923.292 138.734 922.751 137.005 921.354 136.277Z" fill="#191919"/>
</g>
<g style="mix-blend-mode:screen">
<path d="M885.188 372.708C883.719 371.939 881.904 372.506 881.136 373.978C880.367 375.449 880.934 377.266 882.404 378.035C883.873 378.804 885.688 378.236 886.456 376.765C887.225 375.294 886.657 373.477 885.188 372.708Z" fill="#191919"/>
</g>
<g style="mix-blend-mode:screen">
<path d="M1068.72 358.92C1068 358.544 1067.11 358.822 1066.74 359.54C1066.37 360.257 1066.64 361.145 1067.36 361.517C1068.08 361.894 1068.96 361.615 1069.34 360.897C1069.71 360.18 1069.43 359.292 1068.72 358.92Z" fill="#191919"/>
</g>
</g>
</g>
<g filter="url(#filter5_f_3789_22268)">
</g>
<g filter="url(#filter6_f_3789_22268)">
<g style="mix-blend-mode:screen">
<path d="M1208.98 99.3207C1210.23 98.6737 1211.76 99.1555 1212.41 100.394C1213.05 101.64 1212.57 103.175 1211.34 103.822C1210.09 104.469 1208.56 103.987 1207.91 102.748C1207.27 101.502 1207.75 99.9676 1208.98 99.3207Z" fill="white"/>
</g>
<g style="mix-blend-mode:screen">
<path d="M1065.65 71.8678C1065.69 71.8678 1065.82 71.8815 1065.89 72.0123C1065.9 72.0398 1065.94 72.1087 1065.91 72.2188C1065.87 72.322 1065.8 72.3633 1065.78 72.3771C1065.74 72.3977 1065.7 72.4115 1065.65 72.4115C1065.61 72.4115 1065.48 72.3977 1065.41 72.267C1065.34 72.1362 1065.39 71.971 1065.52 71.9022C1065.56 71.8815 1065.6 71.8678 1065.64 71.8678L1065.65 71.8678Z" fill="white"/>
</g>
<g style="mix-blend-mode:screen">
<path d="M957.682 113.126C958.28 113.126 959.064 113.415 959.483 114.213C959.82 114.86 959.717 115.459 959.621 115.762C959.525 116.064 959.27 116.615 958.624 116.952C958.329 117.104 958.019 117.186 957.689 117.186C957.091 117.186 956.307 116.897 955.888 116.099C955.551 115.452 955.654 114.853 955.751 114.55C955.847 114.247 956.101 113.697 956.747 113.36C957.043 113.208 957.352 113.126 957.682 113.126Z" fill="white"/>
</g>
<g style="mix-blend-mode:screen">
<path d="M1083.88 38.8902C1084.36 38.8902 1085 39.1242 1085.33 39.7712C1085.61 40.2942 1085.52 40.776 1085.44 41.0169C1085.37 41.2578 1085.16 41.7052 1084.64 41.9805C1084.4 42.1043 1084.15 42.1663 1083.89 42.1663C1083.41 42.1663 1082.78 41.9323 1082.44 41.2853C1082.16 40.7622 1082.25 40.2805 1082.33 40.0396C1082.4 39.7987 1082.61 39.3513 1083.13 39.076C1083.37 38.9521 1083.62 38.8902 1083.88 38.8902Z" fill="white"/>
</g>
<g style="mix-blend-mode:screen">
<path d="M868.414 8.79017C869.754 8.08815 871.404 8.61122 872.098 9.94644C872.8 11.2885 872.277 12.9404 870.943 13.6355C869.603 14.3375 867.953 13.8144 867.259 12.4792C866.558 11.1371 867.08 9.48531 868.414 8.79017Z" fill="white"/>
</g>
<g style="mix-blend-mode:screen">
<path d="M1022.76 18.1134C1023.29 17.8381 1023.94 18.0446 1024.21 18.5677C1024.49 19.0907 1024.28 19.7446 1023.76 20.0199C1023.24 20.2952 1022.58 20.0887 1022.31 19.5656C1022.03 19.0426 1022.24 18.3887 1022.76 18.1134Z" fill="white"/>
</g>
<g style="mix-blend-mode:screen">
<path d="M996.705 72.6587C997.901 72.0324 999.373 72.4935 999.998 73.6911C1000.62 74.8886 1000.16 76.3615 998.967 76.9878C997.771 77.6141 996.3 77.153 995.674 75.9554C995.049 74.7579 995.509 73.285 996.705 72.6587Z" fill="white"/>
</g>
<g style="mix-blend-mode:screen">
<path d="M1142.92 59.2245C1143.49 58.9216 1144.2 59.1488 1144.5 59.72C1144.8 60.2913 1144.58 61.0002 1144.01 61.303C1143.44 61.6059 1142.73 61.3787 1142.43 60.8075C1142.12 60.2362 1142.35 59.5273 1142.92 59.2245Z" fill="white"/>
</g>
<g style="mix-blend-mode:screen">
<path d="M839.047 57.9618C839.357 57.9618 839.762 58.1132 839.982 58.5262C840.25 59.0355 840.051 59.6756 839.536 59.944C839.384 60.0266 839.219 60.061 839.054 60.061C838.745 60.061 838.339 59.9096 838.119 59.4966C837.954 59.18 837.989 58.8841 838.051 58.6982C838.113 58.5124 838.25 58.2509 838.566 58.0788C838.718 57.9962 838.883 57.9549 839.047 57.9549L839.047 57.9618Z" fill="white"/>
</g>
<g style="mix-blend-mode:screen">
<path d="M1150.43 145.476C1151.48 144.925 1152.78 145.331 1153.33 146.384C1153.88 147.437 1153.47 148.738 1152.42 149.289C1151.37 149.839 1150.07 149.433 1149.52 148.38C1148.97 147.327 1149.38 146.027 1150.43 145.476Z" fill="white"/>
</g>
<g style="mix-blend-mode:screen">
<path d="M971.749 172.787C972.32 172.484 973.028 172.711 973.331 173.283C973.633 173.854 973.406 174.563 972.836 174.866C972.265 175.168 971.557 174.941 971.254 174.37C970.952 173.799 971.179 173.09 971.749 172.787Z" fill="white"/>
</g>
<g style="mix-blend-mode:screen">
<path d="M946.72 69.1826C947.387 68.8316 948.212 69.0931 948.563 69.7607C948.913 70.4283 948.652 71.2542 947.985 71.6053C947.319 71.9563 946.494 71.6947 946.143 71.0271C945.792 70.3595 946.054 69.5336 946.72 69.1826Z" fill="white"/>
</g>
<g style="mix-blend-mode:screen">
<path d="M1047.35 115.821C1049.31 114.795 1051.73 115.552 1052.75 117.514C1053.77 119.475 1053.02 121.898 1051.06 122.923C1049.1 123.949 1046.68 123.192 1045.66 121.23C1044.63 119.269 1045.39 116.846 1047.35 115.821Z" fill="white"/>
</g>
<g style="mix-blend-mode:screen">
<path d="M864.057 102.488C865.013 101.986 866.195 102.357 866.69 103.314C867.192 104.271 866.821 105.455 865.865 105.95C864.91 106.453 863.727 106.081 863.232 105.124C862.731 104.168 863.102 102.984 864.057 102.488Z" fill="white"/>
</g>
</g>
<g opacity="0.5">
<g style="mix-blend-mode:screen">
<path d="M1209.28 99.8834C1210.21 99.3982 1211.36 99.7595 1211.85 100.689C1212.33 101.623 1211.97 102.774 1211.04 103.259C1210.11 103.745 1208.96 103.383 1208.48 102.454C1207.99 101.52 1208.35 100.369 1209.28 99.8834Z" fill="#191919"/>
</g>
<g style="mix-blend-mode:screen">
<path d="M1065.65 71.9357C1065.68 71.9357 1065.78 71.946 1065.83 72.0441C1065.84 72.0647 1065.87 72.1163 1065.85 72.1989C1065.82 72.2763 1065.76 72.3073 1065.75 72.3176C1065.72 72.3331 1065.69 72.3434 1065.65 72.3434C1065.62 72.3434 1065.53 72.3331 1065.47 72.235C1065.42 72.137 1065.46 72.0131 1065.56 71.9615C1065.59 71.946 1065.61 71.9357 1065.64 71.9357L1065.65 71.9357Z" fill="#191919"/>
</g>
<g style="mix-blend-mode:screen">
<path d="M957.687 113.633C958.135 113.633 958.723 113.849 959.037 114.448C959.29 114.933 959.213 115.383 959.14 115.61C959.068 115.837 958.878 116.25 958.393 116.503C958.171 116.616 957.939 116.678 957.692 116.678C957.243 116.678 956.655 116.461 956.341 115.863C956.088 115.377 956.166 114.928 956.238 114.701C956.31 114.474 956.501 114.061 956.985 113.808C957.207 113.695 957.439 113.633 957.687 113.633Z" fill="#191919"/>
</g>
<g style="mix-blend-mode:screen">
<path d="M1083.88 39.2979C1084.24 39.2979 1084.72 39.4734 1084.97 39.9586C1085.18 40.3509 1085.11 40.7122 1085.05 40.8929C1085 41.0736 1084.84 41.4091 1084.45 41.6156C1084.27 41.7085 1084.08 41.7549 1083.89 41.7549C1083.53 41.7549 1083.05 41.5794 1082.8 41.0942C1082.59 40.7019 1082.66 40.3406 1082.72 40.1599C1082.77 39.9792 1082.93 39.6437 1083.32 39.4372C1083.5 39.3443 1083.69 39.2979 1083.88 39.2979Z" fill="#191919"/>
</g>
<g style="mix-blend-mode:screen">
<path d="M868.733 9.39399C869.738 8.86747 870.976 9.25978 871.497 10.2612C872.022 11.2678 871.631 12.5066 870.63 13.028C869.625 13.5545 868.388 13.1622 867.867 12.1608C867.341 11.1542 867.733 9.91535 868.733 9.39399Z" fill="#191919"/>
</g>
<g style="mix-blend-mode:screen">
<path d="M1022.89 18.3517C1023.28 18.1453 1023.77 18.3001 1023.97 18.6924C1024.18 19.0847 1024.03 19.5751 1023.63 19.7816C1023.24 19.9881 1022.75 19.8332 1022.55 19.4409C1022.34 19.0486 1022.5 18.5582 1022.89 18.3517Z" fill="#191919"/>
</g>
<g style="mix-blend-mode:screen">
<path d="M996.989 73.2006C997.886 72.7308 998.989 73.0767 999.459 73.9749C999.928 74.873 999.582 75.9777 998.685 76.4474C997.788 76.9172 996.685 76.5713 996.216 75.6731C995.746 74.775 996.092 73.6703 996.989 73.2006Z" fill="#191919"/>
</g>
<g style="mix-blend-mode:screen">
<path d="M1143.06 59.4847C1143.49 59.2576 1144.02 59.4279 1144.24 59.8564C1144.47 60.2848 1144.3 60.8165 1143.87 61.0436C1143.44 61.2707 1142.91 61.1004 1142.69 60.6719C1142.46 60.2435 1142.63 59.7118 1143.06 59.4847Z" fill="#191919"/>
</g>
<g style="mix-blend-mode:screen">
<path d="M839.049 58.2231C839.281 58.2231 839.585 58.3367 839.75 58.6464C839.952 59.0284 839.802 59.5084 839.415 59.7097C839.302 59.7717 839.178 59.7975 839.054 59.7975C838.822 59.7975 838.518 59.6839 838.353 59.3742C838.23 59.1368 838.255 58.9148 838.302 58.7754C838.348 58.6361 838.451 58.4399 838.688 58.3108C838.802 58.2489 838.926 58.2179 839.049 58.2179L839.049 58.2231Z" fill="#191919"/>
</g>
<g style="mix-blend-mode:screen">
<path d="M1150.68 145.953C1151.47 145.54 1152.44 145.844 1152.86 146.634C1153.27 147.424 1152.96 148.4 1152.17 148.813C1151.39 149.226 1150.41 148.921 1150 148.131C1149.59 147.341 1149.89 146.366 1150.68 145.953Z" fill="#191919"/>
</g>
<g style="mix-blend-mode:screen">
<path d="M971.885 173.047C972.313 172.82 972.844 172.99 973.071 173.419C973.298 173.847 973.128 174.379 972.7 174.606C972.272 174.833 971.741 174.663 971.514 174.234C971.287 173.806 971.457 173.274 971.885 173.047Z" fill="#191919"/>
</g>
<g style="mix-blend-mode:screen">
<path d="M946.876 69.4858C947.376 69.2226 947.995 69.4187 948.258 69.9194C948.521 70.4202 948.325 71.0396 947.825 71.3028C947.325 71.5661 946.706 71.3699 946.443 70.8692C946.18 70.3685 946.376 69.7491 946.876 69.4858Z" fill="#191919"/>
</g>
<g style="mix-blend-mode:screen">
<path d="M1047.81 116.708C1049.28 115.939 1051.1 116.506 1051.86 117.978C1052.63 119.449 1052.07 121.266 1050.6 122.035C1049.13 122.804 1047.31 122.236 1046.54 120.765C1045.78 119.294 1046.34 117.477 1047.81 116.708Z" fill="#191919"/>
</g>
<g style="mix-blend-mode:screen">
<path d="M864.283 102.92C865 102.544 865.887 102.822 866.258 103.54C866.634 104.257 866.356 105.145 865.639 105.517C864.923 105.894 864.036 105.615 863.665 104.898C863.288 104.18 863.567 103.292 864.283 102.92Z" fill="#191919"/>
</g>
</g>
</g>
<defs>
<filter id="filter0_f_3789_22268" x="-28" y="-688" width="1376" height="1376" filterUnits="userSpaceOnUse" color-interpolation-filters="sRGB">
<feFlood flood-opacity="0" result="BackgroundImageFix"/>
<feBlend mode="normal" in="SourceGraphic" in2="BackgroundImageFix" result="shape"/>
<feGaussianBlur stdDeviation="200" result="effect1_foregroundBlur_3789_22268"/>
</filter>
<filter id="filter1_f_3789_22268" x="261.816" y="-760" width="796.363" height="1160" filterUnits="userSpaceOnUse" color-interpolation-filters="sRGB">
<feFlood flood-opacity="0" result="BackgroundImageFix"/>
<feBlend mode="normal" in="SourceGraphic" in2="BackgroundImageFix" result="shape"/>
<feGaussianBlur stdDeviation="50" result="effect1_foregroundBlur_3789_22268"/>
</filter>
<filter id="filter2_f_3789_22268" x="510.91" y="-700" width="298.184" height="843.636" filterUnits="userSpaceOnUse" color-interpolation-filters="sRGB">
<feFlood flood-opacity="0" result="BackgroundImageFix"/>
<feBlend mode="normal" in="SourceGraphic" in2="BackgroundImageFix" result="shape"/>
<feGaussianBlur stdDeviation="20" result="effect1_foregroundBlur_3789_22268"/>
</filter>
<filter id="filter3_f_3789_22268" x="124" y="72.9999" width="582" height="416" filterUnits="userSpaceOnUse" color-interpolation-filters="sRGB">
<feFlood flood-opacity="0" result="BackgroundImageFix"/>
<feBlend mode="normal" in="SourceGraphic" in2="BackgroundImageFix" result="shape"/>
<feGaussianBlur stdDeviation="30" result="effect1_foregroundBlur_3789_22268"/>
</filter>
<filter id="filter4_f_3789_22268" x="573" y="74.9999" width="582" height="416" filterUnits="userSpaceOnUse" color-interpolation-filters="sRGB">
<feFlood flood-opacity="0" result="BackgroundImageFix"/>
<feBlend mode="normal" in="SourceGraphic" in2="BackgroundImageFix" result="shape"/>
<feGaussianBlur stdDeviation="30" result="effect1_foregroundBlur_3789_22268"/>
</filter>
<filter id="filter5_f_3789_22268" x="-33" y="-393" width="582" height="416" filterUnits="userSpaceOnUse" color-interpolation-filters="sRGB">
<feFlood flood-opacity="0" result="BackgroundImageFix"/>
<feBlend mode="normal" in="SourceGraphic" in2="BackgroundImageFix" result="shape"/>
<feGaussianBlur stdDeviation="30" result="effect1_foregroundBlur_3789_22268"/>
</filter>
<filter id="filter6_f_3789_22268" x="778" y="-181" width="582" height="416" filterUnits="userSpaceOnUse" color-interpolation-filters="sRGB">
<feFlood flood-opacity="0" result="BackgroundImageFix"/>
<feBlend mode="normal" in="SourceGraphic" in2="BackgroundImageFix" result="shape"/>
<feGaussianBlur stdDeviation="30" result="effect1_foregroundBlur_3789_22268"/>
</filter>
<linearGradient id="paint0_linear_3789_22268" x1="660" y1="-451" x2="660" y2="450.312" gradientUnits="userSpaceOnUse">
<stop stop-color="#F60109" stop-opacity="0"/>
<stop offset="0.5" stop-color="#F60109"/>
<stop offset="1" stop-color="#F60109" stop-opacity="0"/>
</linearGradient>
<linearGradient id="paint1_linear_3789_22268" x1="660" y1="-451" x2="660" y2="450.312" gradientUnits="userSpaceOnUse">
<stop stop-color="#F60109" stop-opacity="0"/>
<stop offset="0.5" stop-color="#F60109"/>
<stop offset="1" stop-color="#F60109" stop-opacity="0"/>
</linearGradient>
<linearGradient id="paint2_linear_3789_22268" x1="309.375" y1="-451" x2="309.375" y2="450.312" gradientUnits="userSpaceOnUse">
<stop stop-color="#F60109" stop-opacity="0"/>
<stop offset="0.5" stop-color="#F60109"/>
<stop offset="1" stop-color="#F60109" stop-opacity="0"/>
</linearGradient>
<linearGradient id="paint3_linear_3789_22268" x1="309.375" y1="-451" x2="309.375" y2="450.312" gradientUnits="userSpaceOnUse">
<stop stop-color="#F60109" stop-opacity="0"/>
<stop offset="0.5" stop-color="#F60109"/>
<stop offset="1" stop-color="#F60109" stop-opacity="0"/>
</linearGradient>
<linearGradient id="paint4_linear_3789_22268" x1="1010.62" y1="-451" x2="1010.63" y2="450.312" gradientUnits="userSpaceOnUse">
<stop stop-color="#F60109" stop-opacity="0"/>
<stop offset="0.5" stop-color="#F60109"/>
<stop offset="1" stop-color="#F60109" stop-opacity="0"/>
</linearGradient>
<linearGradient id="paint5_linear_3789_22268" x1="1010.62" y1="-451" x2="1010.63" y2="450.312" gradientUnits="userSpaceOnUse">
<stop stop-color="#F60109" stop-opacity="0"/>
<stop offset="0.5" stop-color="#F60109"/>
<stop offset="1" stop-color="#F60109" stop-opacity="0"/>
</linearGradient>
<linearGradient id="paint6_linear_3789_22268" x1="240" y1="-660" x2="240" y2="300" gradientUnits="userSpaceOnUse">
<stop stop-color="white" stop-opacity="0"/>
<stop offset="0.5" stop-color="white"/>
<stop offset="1" stop-color="white"/>
</linearGradient>
<radialGradient id="paint7_radial_3789_22268" cx="0" cy="0" r="1" gradientUnits="userSpaceOnUse" gradientTransform="translate(660 -660) rotate(90) scale(960 809.655)">
<stop stop-color="#F60109"/>
<stop offset="1" stop-color="#F60109" stop-opacity="0"/>
</radialGradient>
<linearGradient id="paint8_linear_3789_22268" x1="660" y1="-660" x2="660" y2="300" gradientUnits="userSpaceOnUse">
<stop stop-color="#F60109"/>
<stop offset="0.868225" stop-color="#F60109" stop-opacity="0"/>
</linearGradient>
<linearGradient id="paint9_linear_3789_22268" x1="659.998" y1="-660" x2="659.998" y2="300" gradientUnits="userSpaceOnUse">
<stop stop-color="#F60109"/>
<stop offset="0.868225" stop-color="#F60109" stop-opacity="0"/>
</linearGradient>
<linearGradient id="paint10_linear_3789_22268" x1="660.001" y1="-660" x2="660.001" y2="300" gradientUnits="userSpaceOnUse">
<stop stop-color="#F60109"/>
<stop offset="0.868225" stop-color="#F60109" stop-opacity="0"/>
</linearGradient>
<linearGradient id="paint11_linear_3789_22268" x1="659.998" y1="-660" x2="659.998" y2="300" gradientUnits="userSpaceOnUse">
<stop stop-color="#F60109"/>
<stop offset="0.863225" stop-color="#F60109" stop-opacity="0"/>
</linearGradient>
<radialGradient id="paint12_radial_3789_22268" cx="0" cy="0" r="1" gradientUnits="userSpaceOnUse" gradientTransform="translate(660.001 -660) rotate(90) scale(763.636 80.2979)">
<stop stop-color="#FF333A"/>
<stop offset="1" stop-color="#F60109" stop-opacity="0"/>
</radialGradient>
<clipPath id="clip0_3789_22268">
<rect width="1320" height="1320" fill="white" transform="translate(0 -660)"/>
</clipPath>
</defs>
</svg>
