<svg width="1320" height="1320" viewBox="0 0 1320 1320" fill="none" xmlns="http://www.w3.org/2000/svg">
<g clip-path="url(#clip0_3789_22677)">
<g opacity="0.2" filter="url(#filter0_f_3789_22677)">
<circle cx="288" cy="288" r="288" transform="matrix(1 0 0 -1 372 948)" fill="#F60109"/>
</g>
<mask id="mask0_3789_22677" style="mask-type:alpha" maskUnits="userSpaceOnUse" x="180" y="488" width="960" height="832">
<path fill-rule="evenodd" clip-rule="evenodd" d="M660 1320C660 899.233 483.279 790.272 344.295 704.578C254.223 649.042 180 603.278 180 488.75V1320H660ZM1140 488.75C1140 603.278 1065.78 649.042 975.705 704.578C836.721 790.272 660 899.233 660 1320H1140V488.75Z" fill="#D9D9D9"/>
</mask>
<g mask="url(#mask0_3789_22677)">
<rect width="412.5" height="901.312" transform="matrix(1 0 0 -1 453.75 1111)" fill="url(#paint0_linear_3789_22677)" fill-opacity="0.1"/>
<rect x="1" y="-1" width="410.5" height="899.312" transform="matrix(1 0 0 -1 453.75 1109)" stroke="url(#paint1_linear_3789_22677)" stroke-opacity="0.2" stroke-width="2"/>
<rect width="206.25" height="901.312" transform="matrix(1 0 0 -1 206.25 1111)" fill="url(#paint2_linear_3789_22677)" fill-opacity="0.1"/>
<rect x="1" y="-1" width="204.25" height="899.312" transform="matrix(1 0 0 -1 206.25 1109)" stroke="url(#paint3_linear_3789_22677)" stroke-opacity="0.2" stroke-width="2"/>
<rect width="206.25" height="901.312" transform="matrix(1 0 0 -1 907.5 1111)" fill="url(#paint4_linear_3789_22677)" fill-opacity="0.1"/>
<rect x="1" y="-1" width="204.25" height="899.312" transform="matrix(1 0 0 -1 907.5 1109)" stroke="url(#paint5_linear_3789_22677)" stroke-opacity="0.2" stroke-width="2"/>
</g>
<mask id="mask1_3789_22677" style="mask-type:alpha" maskUnits="userSpaceOnUse" x="180" y="360" width="960" height="960">
<path fill-rule="evenodd" clip-rule="evenodd" d="M344.295 704.578C483.279 790.272 660 899.233 660 1320C660 899.233 836.721 790.272 975.705 704.578C1065.78 649.042 1140 603.278 1140 488.75V360H660H180V488.75C180 603.278 254.223 649.042 344.295 704.578Z" fill="url(#paint6_linear_3789_22677)"/>
</mask>
<g mask="url(#mask1_3789_22677)">
<path d="M344.295 704.578C483.279 790.272 660 899.233 660 1320C660 899.233 836.721 790.272 975.705 704.578C1065.78 649.042 1140 603.278 1140 488.75V360H180V488.75C180 603.278 254.223 649.042 344.295 704.578Z" fill="url(#paint7_radial_3789_22677)" fill-opacity="0.3" stroke="url(#paint8_linear_3789_22677)" stroke-opacity="0.8" stroke-width="4"/>
<path opacity="0.75" d="M463.878 704.578C550.217 790.272 659.998 899.233 659.998 1320C659.998 899.233 769.779 790.272 856.118 704.578C912.072 649.042 958.18 603.278 958.18 488.75V360H361.816V488.75C361.816 603.278 407.924 649.042 463.878 704.578Z" stroke="url(#paint9_linear_3789_22677)" stroke-opacity="0.8" stroke-width="2"/>
<path opacity="0.5" d="M570.073 704.578C609.662 790.272 660.001 899.233 660.001 1320C660.001 899.233 710.339 790.272 749.929 704.578C775.586 649.042 796.728 603.278 796.728 488.75V360H523.273V488.75C523.273 603.278 544.416 649.042 570.073 704.578Z" stroke="url(#paint10_linear_3789_22677)" stroke-opacity="0.8" stroke-width="2"/>
<g filter="url(#filter1_f_3789_22677)">
<path fill-rule="evenodd" clip-rule="evenodd" d="M659.998 1318.72C659.776 899.012 550.129 790.185 463.878 704.578C407.924 649.042 361.816 603.278 361.816 488.75V360H523.271V488.75C523.271 603.278 544.413 649.042 570.07 704.578C609.619 790.185 659.896 899.012 659.998 1318.72ZM659.998 1319.22C660.06 899.099 710.361 790.219 749.926 704.578C775.583 649.042 796.725 603.278 796.725 488.75V360H958.18V488.75C958.18 603.278 912.072 649.042 856.118 704.578C769.779 790.272 659.998 899.233 659.998 1320C659.998 1319.74 659.998 1319.48 659.998 1319.22Z" fill="url(#paint11_linear_3789_22677)"/>
</g>
<g filter="url(#filter2_f_3789_22677)">
<path d="M588.25 830.46C619.837 898.625 660.001 985.299 660.001 1320C660.001 985.299 700.165 898.625 731.752 830.46C752.223 786.284 769.092 749.881 769.092 658.778V556.364H550.91V658.778C550.91 749.881 567.779 786.284 588.25 830.46Z" fill="url(#paint12_radial_3789_22677)"/>
</g>
</g>
<g opacity="0.4">
<g filter="url(#filter3_f_3789_22677)">
<g style="mix-blend-mode:screen">
<path d="M275.015 451.321C273.771 450.674 272.238 451.156 271.592 452.394C270.946 453.64 271.427 455.175 272.664 455.822C273.909 456.469 275.442 455.987 276.088 454.748C276.734 453.503 276.253 451.968 275.015 451.321Z" fill="white"/>
</g>
<g style="mix-blend-mode:screen">
<path d="M418.353 423.868C418.311 423.868 418.181 423.882 418.112 424.012C418.098 424.04 418.057 424.109 418.091 424.219C418.126 424.322 418.201 424.363 418.222 424.377C418.263 424.398 418.305 424.411 418.346 424.411C418.387 424.411 418.518 424.398 418.586 424.267C418.655 424.136 418.607 423.971 418.476 423.902C418.435 423.882 418.401 423.868 418.36 423.868L418.353 423.868Z" fill="white"/>
</g>
<g style="mix-blend-mode:screen">
<path d="M188.143 342.704C186.755 341.982 185.05 342.518 184.321 343.902C183.599 345.292 184.136 346.999 185.517 347.729C186.899 348.458 188.611 347.914 189.339 346.531C190.061 345.141 189.525 343.434 188.143 342.704Z" fill="white"/>
</g>
<g style="mix-blend-mode:screen">
<path d="M485.834 305.081C485.271 305.081 484.521 305.357 484.122 306.121C483.799 306.74 483.903 307.304 483.992 307.594C484.081 307.883 484.322 308.406 484.941 308.729C485.222 308.874 485.518 308.949 485.827 308.949C486.391 308.949 487.14 308.674 487.539 307.91C487.862 307.291 487.759 306.726 487.67 306.437C487.58 306.148 487.34 305.625 486.721 305.302C486.439 305.157 486.144 305.081 485.834 305.081Z" fill="white"/>
</g>
<g style="mix-blend-mode:screen">
<path d="M526.318 465.126C525.72 465.126 524.936 465.415 524.517 466.213C524.18 466.86 524.283 467.459 524.379 467.762C524.475 468.065 524.73 468.615 525.376 468.952C525.671 469.104 525.981 469.186 526.311 469.186C526.909 469.186 527.693 468.897 528.112 468.099C528.449 467.452 528.346 466.853 528.249 466.55C528.153 466.248 527.899 465.697 527.253 465.36C526.957 465.208 526.648 465.126 526.318 465.126Z" fill="white"/>
</g>
<g style="mix-blend-mode:screen">
<path d="M400.118 390.89C399.636 390.89 399.004 391.124 398.667 391.771C398.392 392.294 398.481 392.776 398.557 393.017C398.633 393.258 398.839 393.705 399.361 393.98C399.595 394.104 399.849 394.166 400.111 394.166C400.592 394.166 401.224 393.932 401.561 393.285C401.836 392.762 401.747 392.28 401.671 392.04C401.596 391.799 401.389 391.351 400.867 391.076C400.626 390.952 400.379 390.89 400.118 390.89Z" fill="white"/>
</g>
<g style="mix-blend-mode:screen">
<path d="M585.334 309.084C584.771 309.084 584.021 309.359 583.622 310.123C583.299 310.743 583.403 311.307 583.492 311.596C583.581 311.878 583.822 312.408 584.441 312.732C584.722 312.876 585.018 312.952 585.327 312.952C585.891 312.952 586.64 312.677 587.039 311.913C587.534 310.97 587.163 309.8 586.221 309.311C585.939 309.166 585.644 309.091 585.334 309.091L585.334 309.084Z" fill="white"/>
</g>
<g style="mix-blend-mode:screen">
<path d="M615.586 360.79C614.246 360.088 612.596 360.611 611.902 361.946C611.2 363.289 611.723 364.94 613.057 365.635C614.397 366.338 616.047 365.814 616.741 364.479C617.442 363.137 616.92 361.485 615.586 360.79Z" fill="white"/>
</g>
<g style="mix-blend-mode:screen">
<path d="M461.237 370.113C460.714 369.838 460.061 370.045 459.786 370.568C459.511 371.091 459.717 371.745 460.24 372.02C460.762 372.295 461.415 372.089 461.69 371.566C461.965 371.043 461.759 370.389 461.237 370.113Z" fill="white"/>
</g>
<g style="mix-blend-mode:screen">
<path d="M487.295 424.659C486.099 424.032 484.627 424.494 484.002 425.691C483.376 426.889 483.837 428.362 485.033 428.988C486.229 429.614 487.7 429.153 488.326 427.955C488.951 426.758 488.491 425.285 487.295 424.659Z" fill="white"/>
</g>
<g style="mix-blend-mode:screen">
<path d="M341.079 411.224C340.508 410.922 339.8 411.149 339.498 411.72C339.195 412.291 339.422 413 339.993 413.303C340.563 413.606 341.271 413.379 341.574 412.807C341.876 412.236 341.649 411.527 341.079 411.224Z" fill="white"/>
</g>
<g style="mix-blend-mode:screen">
<path d="M325.199 238.649C323.955 238.002 322.422 238.484 321.775 239.723C321.129 240.969 321.611 242.503 322.848 243.15C324.092 243.797 325.625 243.315 326.271 242.077C326.918 240.831 326.436 239.296 325.199 238.649Z" fill="white"/>
</g>
<g style="mix-blend-mode:screen">
<path d="M435.505 337.843C433.931 337.017 431.985 337.63 431.16 339.206C430.335 340.782 430.947 342.73 432.521 343.556C434.096 344.382 436.041 343.769 436.866 342.193C437.691 340.617 437.079 338.669 435.505 337.843Z" fill="white"/>
</g>
<g style="mix-blend-mode:screen">
<path d="M644.953 409.962C644.643 409.962 644.238 410.113 644.018 410.526C643.75 411.035 643.949 411.675 644.464 411.944C644.616 412.027 644.781 412.061 644.946 412.061C645.255 412.061 645.661 411.909 645.881 411.497C646.046 411.18 646.011 410.884 645.949 410.698C645.887 410.512 645.75 410.251 645.434 410.079C645.282 409.996 645.117 409.955 644.953 409.955L644.953 409.962Z" fill="white"/>
</g>
<g style="mix-blend-mode:screen">
<path d="M396.579 281.268C395.149 280.518 393.376 281.075 392.626 282.507C391.877 283.945 392.434 285.714 393.864 286.464C395.294 287.214 397.067 286.657 397.817 285.225C398.566 283.787 398.009 282.018 396.579 281.268Z" fill="white"/>
</g>
<g style="mix-blend-mode:screen">
<path d="M319.241 325.855C317.234 324.802 314.759 325.58 313.707 327.59C312.656 329.599 313.432 332.077 315.44 333.13C317.447 334.183 319.922 333.405 320.974 331.396C322.025 329.386 321.249 326.908 319.241 325.855Z" fill="white"/>
</g>
<g style="mix-blend-mode:screen">
<path d="M333.572 497.476C332.52 496.925 331.221 497.331 330.671 498.384C330.121 499.437 330.527 500.738 331.579 501.289C332.63 501.839 333.93 501.433 334.48 500.38C335.029 499.327 334.624 498.026 333.572 497.476Z" fill="white"/>
</g>
<g style="mix-blend-mode:screen">
<path d="M533.682 343.696C533.146 343.696 532.438 343.958 532.053 344.681C531.743 345.266 531.846 345.809 531.929 346.078C532.011 346.346 532.245 346.849 532.829 347.151C533.098 347.289 533.379 347.365 533.675 347.365C534.211 347.365 534.919 347.103 535.297 346.381C535.607 345.796 535.504 345.252 535.421 344.983C535.339 344.715 535.105 344.213 534.521 343.91C534.252 343.772 533.971 343.703 533.682 343.703L533.682 343.696Z" fill="white"/>
</g>
<g style="mix-blend-mode:screen">
<path d="M512.251 524.787C511.68 524.484 510.972 524.711 510.669 525.283C510.367 525.854 510.594 526.563 511.164 526.866C511.735 527.168 512.443 526.941 512.746 526.37C513.048 525.799 512.821 525.09 512.251 524.787Z" fill="white"/>
</g>
<g style="mix-blend-mode:screen">
<path d="M537.28 421.183C536.613 420.832 535.788 421.093 535.437 421.761C535.087 422.428 535.348 423.254 536.015 423.605C536.681 423.956 537.506 423.695 537.857 423.027C538.208 422.36 537.946 421.534 537.28 421.183Z" fill="white"/>
</g>
<g style="mix-blend-mode:screen">
<path d="M472.797 231.436C470.934 230.458 468.631 231.181 467.662 233.046C466.686 234.911 467.407 237.217 469.27 238.187C471.133 239.158 473.436 238.442 474.406 236.577C475.382 234.712 474.66 232.406 472.797 231.436Z" fill="white"/>
</g>
<g style="mix-blend-mode:screen">
<path d="M436.653 467.821C434.694 466.795 432.274 467.552 431.25 469.514C430.225 471.475 430.982 473.898 432.941 474.923C434.9 475.949 437.32 475.192 438.344 473.23C439.368 471.269 438.612 468.846 436.653 467.821Z" fill="white"/>
</g>
<g style="mix-blend-mode:screen">
<path d="M619.943 454.488C618.987 453.986 617.805 454.357 617.31 455.314C616.808 456.271 617.179 457.455 618.135 457.95C619.09 458.453 620.273 458.081 620.768 457.124C621.269 456.168 620.898 454.984 619.943 454.488Z" fill="white"/>
</g>
</g>
<g opacity="0.5">
<g style="mix-blend-mode:screen">
<path d="M274.72 451.883C273.787 451.398 272.638 451.76 272.153 452.689C271.668 453.623 272.029 454.774 272.957 455.259C273.89 455.745 275.04 455.383 275.525 454.454C276.009 453.52 275.649 452.369 274.72 451.883Z" fill="#191919"/>
</g>
<g style="mix-blend-mode:screen">
<path d="M418.35 423.936C418.32 423.936 418.222 423.946 418.17 424.044C418.16 424.065 418.129 424.116 418.155 424.199C418.18 424.276 418.237 424.307 418.253 424.318C418.283 424.333 418.314 424.343 418.345 424.343C418.376 424.343 418.474 424.333 418.526 424.235C418.577 424.137 418.541 424.013 418.443 423.961C418.412 423.946 418.387 423.936 418.356 423.936L418.35 423.936Z" fill="#191919"/>
</g>
<g style="mix-blend-mode:screen">
<path d="M187.814 343.334C186.773 342.792 185.494 343.195 184.948 344.233C184.407 345.275 184.809 346.555 185.845 347.103C186.881 347.65 188.165 347.242 188.712 346.204C189.253 345.162 188.851 343.882 187.814 343.334Z" fill="#191919"/>
</g>
<g style="mix-blend-mode:screen">
<path d="M485.832 305.564C485.409 305.564 484.847 305.77 484.548 306.343C484.306 306.808 484.383 307.231 484.45 307.448C484.517 307.665 484.697 308.057 485.161 308.3C485.373 308.408 485.595 308.465 485.827 308.465C486.249 308.465 486.811 308.258 487.11 307.685C487.353 307.221 487.275 306.797 487.208 306.581C487.141 306.364 486.961 305.972 486.497 305.729C486.285 305.621 486.064 305.564 485.832 305.564Z" fill="#191919"/>
</g>
<g style="mix-blend-mode:screen">
<path d="M526.313 465.633C525.865 465.633 525.277 465.849 524.963 466.448C524.71 466.933 524.787 467.383 524.86 467.61C524.932 467.837 525.122 468.25 525.607 468.503C525.829 468.616 526.061 468.678 526.308 468.678C526.757 468.678 527.345 468.461 527.659 467.863C527.912 467.377 527.834 466.928 527.762 466.701C527.69 466.474 527.499 466.061 527.015 465.808C526.793 465.695 526.561 465.633 526.313 465.633Z" fill="#191919"/>
</g>
<g style="mix-blend-mode:screen">
<path d="M400.118 391.298C399.758 391.298 399.283 391.473 399.031 391.959C398.824 392.351 398.891 392.712 398.948 392.893C399.005 393.074 399.159 393.409 399.551 393.616C399.727 393.708 399.917 393.755 400.113 393.755C400.474 393.755 400.949 393.579 401.201 393.094C401.407 392.702 401.34 392.341 401.284 392.16C401.227 391.979 401.072 391.644 400.68 391.437C400.5 391.344 400.314 391.298 400.118 391.298Z" fill="#191919"/>
</g>
<g style="mix-blend-mode:screen">
<path d="M585.332 309.567C584.909 309.567 584.347 309.773 584.048 310.346C583.806 310.811 583.883 311.234 583.95 311.451C584.017 311.663 584.197 312.06 584.661 312.303C584.873 312.411 585.095 312.468 585.327 312.468C585.749 312.468 586.311 312.261 586.61 311.688C586.982 310.981 586.703 310.104 585.997 309.737C585.785 309.629 585.564 309.572 585.332 309.572L585.332 309.567Z" fill="#191919"/>
</g>
<g style="mix-blend-mode:screen">
<path d="M615.267 361.394C614.262 360.867 613.024 361.26 612.503 362.261C611.978 363.268 612.369 364.507 613.37 365.028C614.375 365.554 615.612 365.162 616.133 364.161C616.659 363.154 616.267 361.915 615.267 361.394Z" fill="#191919"/>
</g>
<g style="mix-blend-mode:screen">
<path d="M461.113 370.352C460.721 370.145 460.231 370.3 460.025 370.692C459.819 371.085 459.974 371.575 460.365 371.782C460.757 371.988 461.247 371.833 461.453 371.441C461.659 371.049 461.505 370.558 461.113 370.352Z" fill="#191919"/>
</g>
<g style="mix-blend-mode:screen">
<path d="M487.011 425.201C486.114 424.731 485.011 425.077 484.541 425.975C484.072 426.873 484.418 427.978 485.315 428.447C486.212 428.917 487.315 428.571 487.784 427.673C488.254 426.775 487.908 425.67 487.011 425.201Z" fill="#191919"/>
</g>
<g style="mix-blend-mode:screen">
<path d="M340.943 411.485C340.515 411.258 339.984 411.428 339.757 411.856C339.53 412.285 339.7 412.816 340.128 413.044C340.556 413.271 341.087 413.1 341.314 412.672C341.541 412.243 341.371 411.712 340.943 411.485Z" fill="#191919"/>
</g>
<g style="mix-blend-mode:screen">
<path d="M324.904 239.212C323.971 238.727 322.821 239.088 322.336 240.017C321.852 240.951 322.213 242.103 323.141 242.588C324.074 243.073 325.224 242.712 325.708 241.782C326.193 240.848 325.832 239.697 324.904 239.212Z" fill="#191919"/>
</g>
<g style="mix-blend-mode:screen">
<path d="M435.128 338.557C433.947 337.937 432.488 338.397 431.869 339.579C431.251 340.761 431.709 342.222 432.89 342.841C434.071 343.46 435.53 343.001 436.149 341.819C436.767 340.637 436.308 339.176 435.128 338.557Z" fill="#191919"/>
</g>
<g style="mix-blend-mode:screen">
<path d="M644.951 410.223C644.719 410.223 644.415 410.337 644.25 410.646C644.048 411.028 644.198 411.508 644.585 411.71C644.698 411.772 644.822 411.797 644.946 411.797C645.178 411.797 645.482 411.684 645.647 411.374C645.77 411.137 645.745 410.915 645.698 410.775C645.652 410.636 645.549 410.44 645.312 410.311C645.198 410.249 645.074 410.218 644.951 410.218L644.951 410.223Z" fill="#191919"/>
</g>
<g style="mix-blend-mode:screen">
<path d="M396.242 281.916C395.17 281.354 393.839 281.772 393.277 282.846C392.715 283.924 393.133 285.251 394.205 285.814C395.278 286.376 396.608 285.958 397.17 284.885C397.732 283.806 397.314 282.479 396.242 281.916Z" fill="#191919"/>
</g>
<g style="mix-blend-mode:screen">
<path d="M318.768 326.764C317.262 325.974 315.406 326.558 314.617 328.065C313.829 329.572 314.411 331.431 315.917 332.22C317.422 333.01 319.278 332.427 320.067 330.92C320.856 329.412 320.273 327.554 318.768 326.764Z" fill="#191919"/>
</g>
<g style="mix-blend-mode:screen">
<path d="M333.321 497.953C332.532 497.54 331.557 497.844 331.145 498.634C330.732 499.424 331.037 500.4 331.826 500.812C332.614 501.225 333.589 500.921 334.001 500.131C334.414 499.341 334.11 498.366 333.321 497.953Z" fill="#191919"/>
</g>
<g style="mix-blend-mode:screen">
<path d="M533.679 344.154C533.277 344.154 532.746 344.35 532.457 344.892C532.225 345.331 532.303 345.738 532.365 345.94C532.427 346.141 532.602 346.518 533.04 346.745C533.241 346.848 533.453 346.905 533.674 346.905C534.076 346.905 534.607 346.709 534.891 346.167C535.123 345.728 535.046 345.32 534.984 345.119C534.922 344.918 534.747 344.541 534.308 344.314C534.107 344.21 533.896 344.159 533.679 344.159L533.679 344.154Z" fill="#191919"/>
</g>
<g style="mix-blend-mode:screen">
<path d="M512.115 525.047C511.687 524.82 511.156 524.99 510.929 525.419C510.702 525.847 510.872 526.379 511.3 526.606C511.728 526.833 512.259 526.663 512.486 526.234C512.713 525.806 512.543 525.274 512.115 525.047Z" fill="#191919"/>
</g>
<g style="mix-blend-mode:screen">
<path d="M537.124 421.486C536.624 421.222 536.005 421.419 535.742 421.919C535.479 422.42 535.675 423.039 536.175 423.303C536.675 423.566 537.294 423.37 537.557 422.869C537.82 422.368 537.624 421.749 537.124 421.486Z" fill="#191919"/>
</g>
<g style="mix-blend-mode:screen">
<path d="M472.354 232.277C470.956 231.544 469.229 232.086 468.502 233.485C467.77 234.884 468.311 236.613 469.709 237.341C471.106 238.069 472.833 237.532 473.56 236.133C474.292 234.734 473.751 233.005 472.354 232.277Z" fill="#191919"/>
</g>
<g style="mix-blend-mode:screen">
<path d="M436.188 468.708C434.719 467.939 432.904 468.506 432.136 469.978C431.367 471.449 431.934 473.266 433.404 474.035C434.873 474.804 436.688 474.236 437.456 472.765C438.225 471.294 437.657 469.477 436.188 468.708Z" fill="#191919"/>
</g>
<g style="mix-blend-mode:screen">
<path d="M619.717 454.92C619 454.544 618.113 454.822 617.742 455.54C617.366 456.257 617.644 457.145 618.361 457.517C619.077 457.894 619.964 457.615 620.335 456.897C620.712 456.18 620.433 455.292 619.717 454.92Z" fill="#191919"/>
</g>
</g>
</g>
<g opacity="0.4">
<g filter="url(#filter4_f_3789_22677)">
<g style="mix-blend-mode:screen">
<path d="M724.015 304.679C722.771 305.326 721.238 304.844 720.592 303.606C719.946 302.36 720.427 300.825 721.664 300.178C722.909 299.531 724.442 300.013 725.088 301.252C725.734 302.498 725.253 304.032 724.015 304.679Z" fill="white"/>
</g>
<g style="mix-blend-mode:screen">
<path d="M867.353 332.132C867.311 332.132 867.181 332.118 867.112 331.988C867.098 331.96 867.057 331.891 867.091 331.781C867.126 331.678 867.201 331.637 867.222 331.623C867.263 331.602 867.305 331.589 867.346 331.589C867.387 331.589 867.518 331.602 867.586 331.733C867.655 331.864 867.607 332.029 867.476 332.098C867.435 332.118 867.401 332.132 867.36 332.132L867.353 332.132Z" fill="white"/>
</g>
<g style="mix-blend-mode:screen">
<path d="M637.143 413.296C635.755 414.018 634.05 413.482 633.321 412.098C632.599 410.708 633.136 409.001 634.517 408.271C635.899 407.542 637.611 408.086 638.339 409.469C639.061 410.859 638.525 412.566 637.143 413.296Z" fill="white"/>
</g>
<g style="mix-blend-mode:screen">
<path d="M934.834 450.919C934.271 450.919 933.521 450.643 933.122 449.879C932.799 449.26 932.903 448.695 932.992 448.406C933.081 448.117 933.322 447.594 933.941 447.271C934.222 447.126 934.518 447.051 934.827 447.051C935.391 447.051 936.14 447.326 936.539 448.09C936.862 448.709 936.759 449.274 936.67 449.563C936.58 449.852 936.34 450.375 935.721 450.698C935.439 450.843 935.144 450.919 934.834 450.919Z" fill="white"/>
</g>
<g style="mix-blend-mode:screen">
<path d="M975.318 290.874C974.72 290.874 973.936 290.585 973.517 289.787C973.18 289.14 973.283 288.541 973.379 288.238C973.475 287.936 973.73 287.385 974.376 287.048C974.671 286.896 974.981 286.814 975.311 286.814C975.909 286.814 976.693 287.103 977.112 287.901C977.449 288.548 977.346 289.147 977.249 289.45C977.153 289.753 976.899 290.303 976.253 290.64C975.957 290.792 975.648 290.874 975.318 290.874Z" fill="white"/>
</g>
<g style="mix-blend-mode:screen">
<path d="M849.118 365.11C848.636 365.11 848.004 364.876 847.667 364.229C847.392 363.706 847.481 363.224 847.557 362.983C847.633 362.742 847.839 362.295 848.361 362.02C848.595 361.896 848.849 361.834 849.111 361.834C849.592 361.834 850.224 362.068 850.561 362.715C850.836 363.238 850.747 363.72 850.671 363.96C850.596 364.201 850.389 364.649 849.867 364.924C849.626 365.048 849.379 365.11 849.118 365.11Z" fill="white"/>
</g>
<g style="mix-blend-mode:screen">
<path d="M1034.33 446.916C1033.77 446.916 1033.02 446.641 1032.62 445.877C1032.3 445.257 1032.4 444.693 1032.49 444.404C1032.58 444.122 1032.82 443.592 1033.44 443.268C1033.72 443.124 1034.02 443.048 1034.33 443.048C1034.89 443.048 1035.64 443.323 1036.04 444.087C1036.53 445.03 1036.16 446.2 1035.22 446.689C1034.94 446.834 1034.64 446.909 1034.33 446.909L1034.33 446.916Z" fill="white"/>
</g>
<g style="mix-blend-mode:screen">
<path d="M1064.59 395.21C1063.25 395.912 1061.6 395.389 1060.9 394.054C1060.2 392.711 1060.72 391.06 1062.06 390.364C1063.4 389.662 1065.05 390.186 1065.74 391.521C1066.44 392.863 1065.92 394.515 1064.59 395.21Z" fill="white"/>
</g>
<g style="mix-blend-mode:screen">
<path d="M910.237 385.887C909.714 386.162 909.061 385.955 908.786 385.432C908.511 384.909 908.717 384.255 909.24 383.98C909.762 383.705 910.415 383.911 910.69 384.434C910.965 384.957 910.759 385.611 910.237 385.887Z" fill="white"/>
</g>
<g style="mix-blend-mode:screen">
<path d="M936.295 331.341C935.099 331.968 933.627 331.506 933.002 330.309C932.376 329.111 932.837 327.638 934.033 327.012C935.229 326.386 936.7 326.847 937.326 328.045C937.951 329.242 937.491 330.715 936.295 331.341Z" fill="white"/>
</g>
<g style="mix-blend-mode:screen">
<path d="M790.079 344.776C789.508 345.078 788.8 344.851 788.498 344.28C788.195 343.709 788.422 343 788.993 342.697C789.563 342.394 790.271 342.621 790.574 343.193C790.876 343.764 790.649 344.473 790.079 344.776Z" fill="white"/>
</g>
<g style="mix-blend-mode:screen">
<path d="M774.199 517.351C772.955 517.998 771.422 517.516 770.775 516.277C770.129 515.031 770.611 513.497 771.848 512.85C773.092 512.203 774.625 512.685 775.271 513.923C775.918 515.169 775.436 516.704 774.199 517.351Z" fill="white"/>
</g>
<g style="mix-blend-mode:screen">
<path d="M884.505 418.157C882.931 418.983 880.985 418.37 880.16 416.794C879.335 415.218 879.947 413.27 881.521 412.444C883.096 411.618 885.041 412.231 885.866 413.807C886.691 415.383 886.079 417.331 884.505 418.157Z" fill="white"/>
</g>
<g style="mix-blend-mode:screen">
<path d="M1093.95 346.038C1093.64 346.038 1093.24 345.887 1093.02 345.474C1092.75 344.965 1092.95 344.324 1093.46 344.056C1093.62 343.973 1093.78 343.939 1093.95 343.939C1094.25 343.939 1094.66 344.09 1094.88 344.503C1095.05 344.82 1095.01 345.116 1094.95 345.302C1094.89 345.488 1094.75 345.749 1094.43 345.921C1094.28 346.004 1094.12 346.045 1093.95 346.045L1093.95 346.038Z" fill="white"/>
</g>
<g style="mix-blend-mode:screen">
<path d="M845.579 474.732C844.149 475.482 842.376 474.925 841.626 473.493C840.877 472.055 841.434 470.286 842.864 469.536C844.294 468.786 846.067 469.343 846.817 470.775C847.566 472.213 847.009 473.982 845.579 474.732Z" fill="white"/>
</g>
<g style="mix-blend-mode:screen">
<path d="M768.241 430.145C766.234 431.198 763.759 430.42 762.707 428.41C761.656 426.401 762.432 423.923 764.44 422.87C766.447 421.817 768.922 422.595 769.974 424.604C771.025 426.614 770.249 429.092 768.241 430.145Z" fill="white"/>
</g>
<g style="mix-blend-mode:screen">
<path d="M782.572 258.524C781.52 259.075 780.221 258.669 779.671 257.616C779.121 256.563 779.527 255.262 780.579 254.711C781.63 254.161 782.93 254.567 783.48 255.62C784.029 256.673 783.624 257.973 782.572 258.524Z" fill="white"/>
</g>
<g style="mix-blend-mode:screen">
<path d="M982.682 412.304C982.146 412.304 981.438 412.042 981.053 411.319C980.743 410.734 980.846 410.191 980.929 409.922C981.011 409.654 981.245 409.151 981.829 408.849C982.098 408.711 982.379 408.635 982.675 408.635C983.211 408.635 983.919 408.897 984.297 409.619C984.607 410.204 984.504 410.748 984.421 411.017C984.339 411.285 984.105 411.787 983.521 412.09C983.252 412.228 982.971 412.297 982.682 412.297L982.682 412.304Z" fill="white"/>
</g>
<g style="mix-blend-mode:screen">
<path d="M961.251 231.213C960.68 231.516 959.972 231.289 959.669 230.717C959.367 230.146 959.594 229.437 960.164 229.134C960.735 228.832 961.443 229.059 961.746 229.63C962.048 230.201 961.821 230.91 961.251 231.213Z" fill="white"/>
</g>
<g style="mix-blend-mode:screen">
<path d="M986.28 334.817C985.613 335.168 984.788 334.907 984.437 334.239C984.087 333.572 984.348 332.746 985.015 332.395C985.681 332.044 986.506 332.305 986.857 332.973C987.208 333.64 986.946 334.466 986.28 334.817Z" fill="white"/>
</g>
<g style="mix-blend-mode:screen">
<path d="M921.797 524.564C919.934 525.542 917.631 524.819 916.662 522.954C915.686 521.089 916.407 518.783 918.27 517.813C920.133 516.842 922.436 517.558 923.406 519.423C924.382 521.288 923.66 523.594 921.797 524.564Z" fill="white"/>
</g>
<g style="mix-blend-mode:screen">
<path d="M885.653 288.179C883.694 289.205 881.274 288.448 880.25 286.486C879.225 284.525 879.982 282.102 881.941 281.077C883.9 280.051 886.32 280.808 887.344 282.77C888.368 284.731 887.612 287.154 885.653 288.179Z" fill="white"/>
</g>
<g style="mix-blend-mode:screen">
<path d="M1068.94 301.512C1067.99 302.014 1066.8 301.643 1066.31 300.686C1065.81 299.729 1066.18 298.545 1067.13 298.05C1068.09 297.547 1069.27 297.919 1069.77 298.876C1070.27 299.832 1069.9 301.016 1068.94 301.512Z" fill="white"/>
</g>
</g>
<g opacity="0.5">
<g style="mix-blend-mode:screen">
<path d="M723.72 304.117C722.787 304.602 721.638 304.24 721.153 303.311C720.668 302.377 721.029 301.226 721.957 300.741C722.89 300.255 724.04 300.617 724.525 301.546C725.009 302.48 724.649 303.631 723.72 304.117Z" fill="#191919"/>
</g>
<g style="mix-blend-mode:screen">
<path d="M867.35 332.064C867.32 332.064 867.222 332.054 867.17 331.956C867.16 331.935 867.129 331.884 867.155 331.801C867.18 331.724 867.237 331.693 867.253 331.682C867.283 331.667 867.314 331.657 867.345 331.657C867.376 331.657 867.474 331.667 867.526 331.765C867.577 331.863 867.541 331.987 867.443 332.039C867.412 332.054 867.387 332.064 867.356 332.064L867.35 332.064Z" fill="#191919"/>
</g>
<g style="mix-blend-mode:screen">
<path d="M636.814 412.666C635.773 413.208 634.494 412.805 633.948 411.767C633.407 410.725 633.809 409.445 634.845 408.897C635.881 408.35 637.165 408.758 637.712 409.796C638.253 410.838 637.851 412.118 636.814 412.666Z" fill="#191919"/>
</g>
<g style="mix-blend-mode:screen">
<path d="M934.832 450.436C934.409 450.436 933.847 450.23 933.548 449.657C933.306 449.192 933.383 448.769 933.45 448.552C933.517 448.335 933.697 447.943 934.161 447.7C934.373 447.592 934.595 447.535 934.827 447.535C935.249 447.535 935.811 447.742 936.11 448.315C936.353 448.779 936.275 449.202 936.208 449.419C936.141 449.636 935.961 450.028 935.497 450.271C935.285 450.379 935.064 450.436 934.832 450.436Z" fill="#191919"/>
</g>
<g style="mix-blend-mode:screen">
<path d="M975.313 290.367C974.865 290.367 974.277 290.151 973.963 289.552C973.71 289.067 973.787 288.617 973.86 288.39C973.932 288.163 974.122 287.75 974.607 287.497C974.829 287.384 975.061 287.322 975.308 287.322C975.757 287.322 976.345 287.539 976.659 288.137C976.912 288.623 976.834 289.072 976.762 289.299C976.69 289.526 976.499 289.939 976.015 290.192C975.793 290.305 975.561 290.367 975.313 290.367Z" fill="#191919"/>
</g>
<g style="mix-blend-mode:screen">
<path d="M849.118 364.702C848.758 364.702 848.283 364.527 848.031 364.041C847.824 363.649 847.891 363.288 847.948 363.107C848.005 362.926 848.159 362.591 848.551 362.384C848.727 362.292 848.917 362.245 849.113 362.245C849.474 362.245 849.949 362.421 850.201 362.906C850.407 363.298 850.34 363.659 850.284 363.84C850.227 364.021 850.072 364.356 849.68 364.563C849.5 364.656 849.314 364.702 849.118 364.702Z" fill="#191919"/>
</g>
<g style="mix-blend-mode:screen">
<path d="M1034.33 446.433C1033.91 446.433 1033.35 446.227 1033.05 445.654C1032.81 445.189 1032.88 444.766 1032.95 444.549C1033.02 444.337 1033.2 443.94 1033.66 443.697C1033.87 443.589 1034.09 443.532 1034.33 443.532C1034.75 443.532 1035.31 443.738 1035.61 444.311C1035.98 445.019 1035.7 445.896 1035 446.263C1034.79 446.371 1034.56 446.428 1034.33 446.428L1034.33 446.433Z" fill="#191919"/>
</g>
<g style="mix-blend-mode:screen">
<path d="M1064.27 394.606C1063.26 395.132 1062.02 394.74 1061.5 393.739C1060.98 392.732 1061.37 391.493 1062.37 390.972C1063.37 390.445 1064.61 390.838 1065.13 391.839C1065.66 392.846 1065.27 394.085 1064.27 394.606Z" fill="#191919"/>
</g>
<g style="mix-blend-mode:screen">
<path d="M910.113 385.648C909.721 385.855 909.231 385.7 909.025 385.308C908.819 384.915 908.974 384.425 909.365 384.218C909.757 384.012 910.247 384.167 910.453 384.559C910.659 384.951 910.505 385.442 910.113 385.648Z" fill="#191919"/>
</g>
<g style="mix-blend-mode:screen">
<path d="M936.011 330.799C935.114 331.269 934.011 330.923 933.541 330.025C933.072 329.127 933.418 328.022 934.315 327.553C935.212 327.083 936.315 327.429 936.784 328.327C937.254 329.225 936.908 330.33 936.011 330.799Z" fill="#191919"/>
</g>
<g style="mix-blend-mode:screen">
<path d="M789.943 344.515C789.515 344.742 788.984 344.572 788.757 344.144C788.53 343.715 788.7 343.184 789.128 342.956C789.556 342.729 790.087 342.9 790.314 343.328C790.541 343.756 790.371 344.288 789.943 344.515Z" fill="#191919"/>
</g>
<g style="mix-blend-mode:screen">
<path d="M773.904 516.788C772.971 517.273 771.821 516.912 771.336 515.983C770.852 515.049 771.213 513.897 772.141 513.412C773.074 512.927 774.224 513.288 774.708 514.217C775.193 515.152 774.832 516.303 773.904 516.788Z" fill="#191919"/>
</g>
<g style="mix-blend-mode:screen">
<path d="M884.128 417.443C882.947 418.063 881.488 417.603 880.869 416.421C880.251 415.239 880.709 413.778 881.89 413.159C883.071 412.539 884.53 412.999 885.149 414.181C885.767 415.363 885.308 416.824 884.128 417.443Z" fill="#191919"/>
</g>
<g style="mix-blend-mode:screen">
<path d="M1093.95 345.777C1093.72 345.777 1093.41 345.663 1093.25 345.354C1093.05 344.972 1093.2 344.492 1093.58 344.29C1093.7 344.228 1093.82 344.203 1093.95 344.203C1094.18 344.203 1094.48 344.316 1094.65 344.626C1094.77 344.863 1094.74 345.085 1094.7 345.225C1094.65 345.364 1094.55 345.56 1094.31 345.689C1094.2 345.751 1094.07 345.782 1093.95 345.782L1093.95 345.777Z" fill="#191919"/>
</g>
<g style="mix-blend-mode:screen">
<path d="M845.242 474.083C844.17 474.646 842.839 474.228 842.277 473.154C841.715 472.075 842.133 470.749 843.205 470.186C844.278 469.624 845.608 470.042 846.17 471.115C846.732 472.194 846.314 473.521 845.242 474.083Z" fill="#191919"/>
</g>
<g style="mix-blend-mode:screen">
<path d="M767.768 429.236C766.262 430.026 764.406 429.442 763.617 427.935C762.829 426.428 763.411 424.569 764.917 423.78C766.422 422.99 768.278 423.573 769.067 425.08C769.856 426.588 769.273 428.446 767.768 429.236Z" fill="#191919"/>
</g>
<g style="mix-blend-mode:screen">
<path d="M782.321 258.047C781.532 258.46 780.557 258.156 780.145 257.366C779.732 256.576 780.037 255.6 780.826 255.187C781.614 254.774 782.589 255.079 783.001 255.869C783.414 256.659 783.11 257.634 782.321 258.047Z" fill="#191919"/>
</g>
<g style="mix-blend-mode:screen">
<path d="M982.679 411.846C982.277 411.846 981.746 411.65 981.457 411.108C981.225 410.669 981.303 410.262 981.365 410.06C981.427 409.859 981.602 409.482 982.04 409.255C982.241 409.152 982.453 409.095 982.674 409.095C983.076 409.095 983.607 409.291 983.891 409.833C984.123 410.272 984.046 410.68 983.984 410.881C983.922 411.082 983.747 411.459 983.308 411.686C983.107 411.79 982.896 411.841 982.679 411.841L982.679 411.846Z" fill="#191919"/>
</g>
<g style="mix-blend-mode:screen">
<path d="M961.115 230.953C960.687 231.18 960.156 231.01 959.929 230.581C959.702 230.153 959.872 229.621 960.3 229.394C960.728 229.167 961.259 229.337 961.486 229.766C961.713 230.194 961.543 230.726 961.115 230.953Z" fill="#191919"/>
</g>
<g style="mix-blend-mode:screen">
<path d="M986.124 334.514C985.624 334.777 985.005 334.581 984.742 334.081C984.479 333.58 984.675 332.96 985.175 332.697C985.675 332.434 986.294 332.63 986.557 333.131C986.82 333.631 986.624 334.251 986.124 334.514Z" fill="#191919"/>
</g>
<g style="mix-blend-mode:screen">
<path d="M921.354 523.723C919.956 524.456 918.229 523.914 917.502 522.515C916.77 521.116 917.311 519.387 918.709 518.659C920.106 517.931 921.833 518.468 922.56 519.867C923.292 521.266 922.751 522.995 921.354 523.723Z" fill="#191919"/>
</g>
<g style="mix-blend-mode:screen">
<path d="M885.188 287.292C883.719 288.061 881.904 287.494 881.136 286.022C880.367 284.551 880.934 282.734 882.404 281.965C883.873 281.196 885.688 281.764 886.456 283.235C887.225 284.706 886.657 286.523 885.188 287.292Z" fill="#191919"/>
</g>
<g style="mix-blend-mode:screen">
<path d="M1068.72 301.08C1068 301.456 1067.11 301.178 1066.74 300.46C1066.37 299.743 1066.64 298.855 1067.36 298.483C1068.08 298.106 1068.96 298.385 1069.34 299.102C1069.71 299.82 1069.43 300.708 1068.72 301.08Z" fill="#191919"/>
</g>
</g>
</g>
<g filter="url(#filter5_f_3789_22677)">
<g style="mix-blend-mode:screen">
<path d="M118.015 917.321C116.771 916.674 115.238 917.156 114.592 918.394C113.946 919.64 114.427 921.175 115.664 921.822C116.909 922.469 118.442 921.987 119.088 920.748C119.734 919.503 119.253 917.968 118.015 917.321Z" fill="white"/>
</g>
<g style="mix-blend-mode:screen">
<path d="M261.353 889.868C261.311 889.868 261.181 889.882 261.112 890.012C261.098 890.04 261.057 890.109 261.091 890.219C261.126 890.322 261.201 890.363 261.222 890.377C261.263 890.398 261.305 890.411 261.346 890.411C261.387 890.411 261.518 890.398 261.586 890.267C261.655 890.136 261.607 889.971 261.476 889.902C261.435 889.882 261.401 889.868 261.36 889.868L261.353 889.868Z" fill="white"/>
</g>
<g style="mix-blend-mode:screen">
<path d="M31.1433 808.704C29.7547 807.982 28.0498 808.518 27.3211 809.902C26.5993 811.292 27.1355 812.999 28.5173 813.729C29.899 814.458 31.6107 813.914 32.3394 812.531C33.0612 811.141 32.525 809.434 31.1433 808.704Z" fill="white"/>
</g>
<g style="mix-blend-mode:screen">
<path d="M328.834 771.081C328.271 771.081 327.521 771.357 327.122 772.121C326.799 772.74 326.903 773.305 326.992 773.594C327.081 773.883 327.322 774.406 327.941 774.729C328.222 774.874 328.518 774.949 328.827 774.949C329.391 774.949 330.14 774.674 330.539 773.91C330.862 773.291 330.759 772.726 330.67 772.437C330.58 772.148 330.34 771.625 329.721 771.302C329.439 771.157 329.144 771.081 328.834 771.081Z" fill="white"/>
</g>
<g style="mix-blend-mode:screen">
<path d="M369.318 931.126C368.72 931.126 367.936 931.415 367.517 932.213C367.18 932.86 367.283 933.459 367.379 933.762C367.475 934.065 367.73 934.615 368.376 934.952C368.671 935.104 368.981 935.186 369.311 935.186C369.909 935.186 370.693 934.897 371.112 934.099C371.449 933.452 371.346 932.853 371.249 932.55C371.153 932.248 370.899 931.697 370.253 931.36C369.957 931.208 369.648 931.126 369.318 931.126Z" fill="white"/>
</g>
<g style="mix-blend-mode:screen">
<path d="M243.118 856.89C242.636 856.89 242.004 857.124 241.667 857.771C241.392 858.294 241.481 858.776 241.557 859.017C241.633 859.258 241.839 859.705 242.361 859.98C242.595 860.104 242.849 860.166 243.111 860.166C243.592 860.166 244.224 859.932 244.561 859.285C244.836 858.762 244.747 858.28 244.671 858.04C244.596 857.799 244.389 857.351 243.867 857.076C243.626 856.952 243.379 856.89 243.118 856.89Z" fill="white"/>
</g>
<g style="mix-blend-mode:screen">
<path d="M428.334 775.084C427.771 775.084 427.021 775.359 426.622 776.123C426.299 776.743 426.403 777.307 426.492 777.596C426.581 777.878 426.822 778.408 427.441 778.732C427.722 778.876 428.018 778.952 428.327 778.952C428.891 778.952 429.64 778.677 430.039 777.913C430.534 776.97 430.163 775.8 429.221 775.311C428.939 775.166 428.644 775.091 428.334 775.091L428.334 775.084Z" fill="white"/>
</g>
<g style="mix-blend-mode:screen">
<path d="M458.586 826.79C457.246 826.088 455.596 826.611 454.902 827.946C454.2 829.289 454.723 830.94 456.057 831.636C457.397 832.338 459.047 831.814 459.741 830.479C460.442 829.137 459.92 827.485 458.586 826.79Z" fill="white"/>
</g>
<g style="mix-blend-mode:screen">
<path d="M304.237 836.113C303.714 835.838 303.061 836.045 302.786 836.568C302.511 837.091 302.717 837.745 303.24 838.02C303.762 838.295 304.415 838.089 304.69 837.566C304.965 837.043 304.759 836.389 304.237 836.113Z" fill="white"/>
</g>
<g style="mix-blend-mode:screen">
<path d="M330.295 890.659C329.099 890.032 327.627 890.494 327.002 891.691C326.376 892.889 326.837 894.362 328.033 894.988C329.229 895.614 330.7 895.153 331.326 893.955C331.951 892.758 331.491 891.285 330.295 890.659Z" fill="white"/>
</g>
<g style="mix-blend-mode:screen">
<path d="M184.079 877.224C183.508 876.922 182.8 877.149 182.498 877.72C182.195 878.291 182.422 879 182.993 879.303C183.563 879.606 184.271 879.379 184.574 878.807C184.876 878.236 184.649 877.527 184.079 877.224Z" fill="white"/>
</g>
<g style="mix-blend-mode:screen">
<path d="M168.199 704.649C166.955 704.002 165.422 704.484 164.775 705.723C164.129 706.969 164.611 708.503 165.848 709.15C167.092 709.797 168.625 709.315 169.271 708.077C169.918 706.831 169.436 705.296 168.199 704.649Z" fill="white"/>
</g>
<g style="mix-blend-mode:screen">
<path d="M278.505 803.843C276.931 803.017 274.985 803.63 274.16 805.206C273.335 806.782 273.947 808.73 275.521 809.556C277.096 810.382 279.041 809.769 279.866 808.193C280.691 806.617 280.079 804.669 278.505 803.843Z" fill="white"/>
</g>
<g style="mix-blend-mode:screen">
<path d="M487.953 875.962C487.643 875.962 487.238 876.113 487.018 876.526C486.75 877.035 486.949 877.675 487.464 877.944C487.616 878.027 487.781 878.061 487.946 878.061C488.255 878.061 488.661 877.909 488.881 877.497C489.046 877.18 489.011 876.884 488.949 876.698C488.887 876.512 488.75 876.251 488.434 876.079C488.282 875.996 488.117 875.955 487.953 875.955L487.953 875.962Z" fill="white"/>
</g>
<g style="mix-blend-mode:screen">
<path d="M239.579 747.268C238.149 746.518 236.376 747.075 235.626 748.507C234.877 749.945 235.434 751.714 236.864 752.464C238.294 753.214 240.067 752.657 240.817 751.225C241.566 749.787 241.009 748.018 239.579 747.268Z" fill="white"/>
</g>
<g style="mix-blend-mode:screen">
<path d="M162.241 791.855C160.234 790.802 157.759 791.58 156.707 793.59C155.656 795.599 156.432 798.077 158.44 799.13C160.447 800.183 162.922 799.405 163.974 797.396C165.025 795.386 164.249 792.908 162.241 791.855Z" fill="white"/>
</g>
<g style="mix-blend-mode:screen">
<path d="M176.572 963.476C175.52 962.925 174.221 963.331 173.671 964.384C173.121 965.437 173.527 966.738 174.579 967.289C175.63 967.839 176.93 967.433 177.48 966.38C178.029 965.327 177.624 964.026 176.572 963.476Z" fill="white"/>
</g>
<g style="mix-blend-mode:screen">
<path d="M376.682 809.696C376.146 809.696 375.438 809.958 375.053 810.681C374.743 811.266 374.846 811.809 374.929 812.078C375.011 812.346 375.245 812.849 375.829 813.151C376.098 813.289 376.379 813.365 376.675 813.365C377.211 813.365 377.919 813.103 378.297 812.381C378.607 811.796 378.504 811.252 378.421 810.983C378.339 810.715 378.105 810.213 377.521 809.91C377.252 809.772 376.971 809.703 376.682 809.703L376.682 809.696Z" fill="white"/>
</g>
<g style="mix-blend-mode:screen">
<path d="M355.251 990.787C354.68 990.484 353.972 990.711 353.669 991.283C353.367 991.854 353.594 992.563 354.164 992.866C354.735 993.168 355.443 992.941 355.746 992.37C356.048 991.799 355.821 991.09 355.251 990.787Z" fill="white"/>
</g>
<g style="mix-blend-mode:screen">
<path d="M380.28 887.183C379.613 886.832 378.788 887.093 378.437 887.761C378.087 888.428 378.348 889.254 379.015 889.605C379.681 889.956 380.506 889.695 380.857 889.027C381.208 888.36 380.946 887.534 380.28 887.183Z" fill="white"/>
</g>
<g style="mix-blend-mode:screen">
<path d="M315.797 697.436C313.934 696.458 311.631 697.181 310.662 699.046C309.686 700.911 310.407 703.217 312.27 704.187C314.133 705.158 316.436 704.442 317.406 702.577C318.382 700.712 317.66 698.406 315.797 697.436Z" fill="white"/>
</g>
<g style="mix-blend-mode:screen">
<path d="M279.653 933.821C277.694 932.795 275.274 933.552 274.25 935.514C273.225 937.475 273.982 939.898 275.941 940.923C277.9 941.949 280.32 941.192 281.344 939.23C282.368 937.269 281.612 934.846 279.653 933.821Z" fill="white"/>
</g>
<g style="mix-blend-mode:screen">
<path d="M462.943 920.488C461.987 919.986 460.805 920.357 460.31 921.314C459.808 922.271 460.179 923.455 461.135 923.95C462.09 924.453 463.273 924.081 463.768 923.124C464.269 922.168 463.898 920.984 462.943 920.488Z" fill="white"/>
</g>
</g>
<g opacity="0.5">
<g style="mix-blend-mode:screen">
<path d="M117.72 917.883C116.787 917.398 115.638 917.76 115.153 918.689C114.668 919.623 115.029 920.774 115.957 921.259C116.89 921.745 118.04 921.383 118.525 920.454C119.009 919.52 118.649 918.369 117.72 917.883Z" fill="#191919"/>
</g>
<g style="mix-blend-mode:screen">
<path d="M261.35 889.936C261.32 889.936 261.222 889.946 261.17 890.044C261.16 890.065 261.129 890.116 261.155 890.199C261.18 890.276 261.237 890.307 261.253 890.318C261.283 890.333 261.314 890.343 261.345 890.343C261.376 890.343 261.474 890.333 261.526 890.235C261.577 890.137 261.541 890.013 261.443 889.961C261.412 889.946 261.387 889.936 261.356 889.936L261.35 889.936Z" fill="#191919"/>
</g>
<g style="mix-blend-mode:screen">
<path d="M30.8145 809.334C29.773 808.792 28.4944 809.195 27.9479 810.233C27.4065 811.275 27.8087 812.555 28.845 813.103C29.8813 813.65 31.1651 813.242 31.7116 812.204C32.253 811.162 31.8508 809.882 30.8145 809.334Z" fill="#191919"/>
</g>
<g style="mix-blend-mode:screen">
<path d="M328.832 771.564C328.409 771.564 327.847 771.77 327.548 772.343C327.306 772.808 327.383 773.231 327.45 773.448C327.517 773.665 327.697 774.057 328.161 774.3C328.373 774.408 328.595 774.465 328.827 774.465C329.249 774.465 329.811 774.258 330.11 773.685C330.353 773.221 330.275 772.797 330.208 772.581C330.141 772.364 329.961 771.972 329.497 771.729C329.285 771.621 329.064 771.564 328.832 771.564Z" fill="#191919"/>
</g>
<g style="mix-blend-mode:screen">
<path d="M369.313 931.633C368.865 931.633 368.277 931.849 367.963 932.448C367.71 932.933 367.787 933.383 367.86 933.61C367.932 933.837 368.122 934.25 368.607 934.503C368.829 934.616 369.061 934.678 369.308 934.678C369.757 934.678 370.345 934.461 370.659 933.863C370.912 933.377 370.834 932.928 370.762 932.701C370.69 932.474 370.499 932.061 370.015 931.808C369.793 931.695 369.561 931.633 369.313 931.633Z" fill="#191919"/>
</g>
<g style="mix-blend-mode:screen">
<path d="M243.118 857.298C242.758 857.298 242.283 857.473 242.031 857.959C241.824 858.351 241.891 858.712 241.948 858.893C242.005 859.074 242.159 859.409 242.551 859.616C242.727 859.708 242.917 859.755 243.113 859.755C243.474 859.755 243.949 859.579 244.201 859.094C244.407 858.702 244.34 858.341 244.284 858.16C244.227 857.979 244.072 857.644 243.68 857.437C243.5 857.344 243.314 857.298 243.118 857.298Z" fill="#191919"/>
</g>
<g style="mix-blend-mode:screen">
<path d="M428.332 775.567C427.909 775.567 427.347 775.773 427.048 776.346C426.806 776.811 426.883 777.234 426.95 777.451C427.017 777.663 427.197 778.06 427.661 778.303C427.873 778.411 428.095 778.468 428.327 778.468C428.749 778.468 429.311 778.261 429.61 777.688C429.982 776.981 429.703 776.104 428.997 775.737C428.785 775.629 428.564 775.572 428.332 775.572L428.332 775.567Z" fill="#191919"/>
</g>
<g style="mix-blend-mode:screen">
<path d="M458.267 827.394C457.262 826.867 456.024 827.26 455.503 828.261C454.978 829.268 455.369 830.507 456.37 831.028C457.375 831.554 458.612 831.162 459.133 830.161C459.659 829.154 459.267 827.915 458.267 827.394Z" fill="#191919"/>
</g>
<g style="mix-blend-mode:screen">
<path d="M304.113 836.352C303.721 836.145 303.231 836.3 303.025 836.692C302.819 837.085 302.974 837.575 303.365 837.782C303.757 837.988 304.247 837.833 304.453 837.441C304.659 837.049 304.505 836.558 304.113 836.352Z" fill="#191919"/>
</g>
<g style="mix-blend-mode:screen">
<path d="M330.011 891.201C329.114 890.731 328.011 891.077 327.541 891.975C327.072 892.873 327.418 893.978 328.315 894.447C329.212 894.917 330.315 894.571 330.784 893.673C331.254 892.775 330.908 891.67 330.011 891.201Z" fill="#191919"/>
</g>
<g style="mix-blend-mode:screen">
<path d="M183.943 877.485C183.515 877.258 182.984 877.428 182.757 877.856C182.53 878.285 182.7 878.816 183.128 879.044C183.556 879.271 184.087 879.1 184.314 878.672C184.541 878.243 184.371 877.712 183.943 877.485Z" fill="#191919"/>
</g>
<g style="mix-blend-mode:screen">
<path d="M167.904 705.212C166.971 704.727 165.821 705.088 165.336 706.017C164.852 706.951 165.213 708.102 166.141 708.588C167.074 709.073 168.224 708.712 168.708 707.782C169.193 706.848 168.832 705.697 167.904 705.212Z" fill="#191919"/>
</g>
<g style="mix-blend-mode:screen">
<path d="M278.128 804.557C276.947 803.937 275.488 804.397 274.869 805.579C274.251 806.761 274.709 808.222 275.89 808.841C277.071 809.461 278.53 809.001 279.149 807.819C279.767 806.637 279.308 805.176 278.128 804.557Z" fill="#191919"/>
</g>
<g style="mix-blend-mode:screen">
<path d="M487.951 876.223C487.719 876.223 487.415 876.337 487.25 876.646C487.048 877.028 487.198 877.508 487.585 877.71C487.698 877.772 487.822 877.797 487.946 877.797C488.178 877.797 488.482 877.684 488.647 877.374C488.77 877.137 488.745 876.915 488.698 876.775C488.652 876.636 488.549 876.44 488.312 876.311C488.198 876.249 488.074 876.218 487.951 876.218L487.951 876.223Z" fill="#191919"/>
</g>
<g style="mix-blend-mode:screen">
<path d="M239.242 747.916C238.17 747.354 236.839 747.772 236.277 748.846C235.715 749.924 236.133 751.251 237.205 751.814C238.278 752.376 239.608 751.958 240.17 750.885C240.732 749.806 240.314 748.479 239.242 747.916Z" fill="#191919"/>
</g>
<g style="mix-blend-mode:screen">
<path d="M161.768 792.764C160.262 791.974 158.406 792.558 157.617 794.065C156.829 795.572 157.411 797.431 158.917 798.22C160.422 799.01 162.278 798.427 163.067 796.92C163.856 795.412 163.273 793.554 161.768 792.764Z" fill="#191919"/>
</g>
<g style="mix-blend-mode:screen">
<path d="M176.321 963.953C175.532 963.54 174.557 963.844 174.145 964.634C173.732 965.424 174.037 966.4 174.826 966.812C175.614 967.225 176.589 966.921 177.001 966.131C177.414 965.341 177.11 964.366 176.321 963.953Z" fill="#191919"/>
</g>
<g style="mix-blend-mode:screen">
<path d="M376.679 810.154C376.277 810.154 375.746 810.35 375.457 810.892C375.225 811.331 375.303 811.738 375.365 811.94C375.427 812.141 375.602 812.518 376.04 812.745C376.241 812.848 376.453 812.905 376.674 812.905C377.076 812.905 377.607 812.709 377.891 812.167C378.123 811.728 378.046 811.32 377.984 811.119C377.922 810.918 377.747 810.541 377.308 810.314C377.107 810.21 376.896 810.159 376.679 810.159L376.679 810.154Z" fill="#191919"/>
</g>
<g style="mix-blend-mode:screen">
<path d="M355.115 991.047C354.687 990.82 354.156 990.99 353.929 991.419C353.702 991.847 353.872 992.379 354.3 992.606C354.728 992.833 355.259 992.663 355.486 992.234C355.713 991.806 355.543 991.274 355.115 991.047Z" fill="#191919"/>
</g>
<g style="mix-blend-mode:screen">
<path d="M380.124 887.486C379.624 887.222 379.005 887.419 378.742 887.919C378.479 888.42 378.675 889.039 379.175 889.303C379.675 889.566 380.294 889.37 380.557 888.869C380.82 888.368 380.624 887.749 380.124 887.486Z" fill="#191919"/>
</g>
<g style="mix-blend-mode:screen">
<path d="M315.354 698.277C313.956 697.544 312.229 698.086 311.502 699.485C310.77 700.884 311.311 702.613 312.709 703.341C314.106 704.069 315.833 703.532 316.56 702.133C317.292 700.734 316.751 699.005 315.354 698.277Z" fill="#191919"/>
</g>
<g style="mix-blend-mode:screen">
<path d="M279.188 934.708C277.719 933.939 275.904 934.506 275.136 935.978C274.367 937.449 274.934 939.266 276.404 940.035C277.873 940.804 279.688 940.236 280.456 938.765C281.225 937.294 280.657 935.477 279.188 934.708Z" fill="#191919"/>
</g>
<g style="mix-blend-mode:screen">
<path d="M462.717 920.92C462 920.544 461.113 920.822 460.742 921.54C460.366 922.257 460.644 923.145 461.361 923.517C462.077 923.894 462.964 923.615 463.335 922.897C463.712 922.18 463.433 921.292 462.717 920.92Z" fill="#191919"/>
</g>
</g>
<g filter="url(#filter6_f_3789_22677)">
<g style="mix-blend-mode:screen">
<path d="M724.015 992.679C722.771 993.326 721.238 992.844 720.592 991.606C719.946 990.36 720.427 988.825 721.664 988.178C722.909 987.531 724.442 988.013 725.088 989.252C725.734 990.497 725.253 992.032 724.015 992.679Z" fill="white"/>
</g>
<g style="mix-blend-mode:screen">
<path d="M867.353 1020.13C867.311 1020.13 867.181 1020.12 867.112 1019.99C867.098 1019.96 867.057 1019.89 867.091 1019.78C867.126 1019.68 867.201 1019.64 867.222 1019.62C867.263 1019.6 867.305 1019.59 867.346 1019.59C867.387 1019.59 867.518 1019.6 867.586 1019.73C867.655 1019.86 867.607 1020.03 867.476 1020.1C867.435 1020.12 867.401 1020.13 867.36 1020.13L867.353 1020.13Z" fill="white"/>
</g>
<g style="mix-blend-mode:screen">
<path d="M637.143 1101.3C635.755 1102.02 634.05 1101.48 633.321 1100.1C632.599 1098.71 633.136 1097 634.517 1096.27C635.899 1095.54 637.611 1096.09 638.339 1097.47C639.061 1098.86 638.525 1100.57 637.143 1101.3Z" fill="white"/>
</g>
<g style="mix-blend-mode:screen">
<path d="M934.834 1138.92C934.271 1138.92 933.521 1138.64 933.122 1137.88C932.799 1137.26 932.903 1136.7 932.992 1136.41C933.081 1136.12 933.322 1135.59 933.941 1135.27C934.222 1135.13 934.518 1135.05 934.827 1135.05C935.391 1135.05 936.14 1135.33 936.539 1136.09C936.862 1136.71 936.759 1137.27 936.67 1137.56C936.58 1137.85 936.34 1138.37 935.721 1138.7C935.439 1138.84 935.144 1138.92 934.834 1138.92Z" fill="white"/>
</g>
<g style="mix-blend-mode:screen">
<path d="M975.318 978.874C974.72 978.874 973.936 978.585 973.517 977.787C973.18 977.14 973.283 976.541 973.379 976.238C973.475 975.935 973.73 975.385 974.376 975.048C974.671 974.896 974.981 974.814 975.311 974.814C975.909 974.814 976.693 975.103 977.112 975.901C977.449 976.548 977.346 977.147 977.249 977.45C977.153 977.752 976.899 978.303 976.253 978.64C975.957 978.792 975.648 978.874 975.318 978.874Z" fill="white"/>
</g>
<g style="mix-blend-mode:screen">
<path d="M849.118 1053.11C848.636 1053.11 848.004 1052.88 847.667 1052.23C847.392 1051.71 847.481 1051.22 847.557 1050.98C847.633 1050.74 847.839 1050.29 848.361 1050.02C848.595 1049.9 848.849 1049.83 849.111 1049.83C849.592 1049.83 850.224 1050.07 850.561 1050.71C850.836 1051.24 850.747 1051.72 850.671 1051.96C850.596 1052.2 850.389 1052.65 849.867 1052.92C849.626 1053.05 849.379 1053.11 849.118 1053.11Z" fill="white"/>
</g>
<g style="mix-blend-mode:screen">
<path d="M1034.33 1134.92C1033.77 1134.92 1033.02 1134.64 1032.62 1133.88C1032.3 1133.26 1032.4 1132.69 1032.49 1132.4C1032.58 1132.12 1032.82 1131.59 1033.44 1131.27C1033.72 1131.12 1034.02 1131.05 1034.33 1131.05C1034.89 1131.05 1035.64 1131.32 1036.04 1132.09C1036.53 1133.03 1036.16 1134.2 1035.22 1134.69C1034.94 1134.83 1034.64 1134.91 1034.33 1134.91L1034.33 1134.92Z" fill="white"/>
</g>
<g style="mix-blend-mode:screen">
<path d="M1064.59 1083.21C1063.25 1083.91 1061.6 1083.39 1060.9 1082.05C1060.2 1080.71 1060.72 1079.06 1062.06 1078.36C1063.4 1077.66 1065.05 1078.19 1065.74 1079.52C1066.44 1080.86 1065.92 1082.51 1064.59 1083.21Z" fill="white"/>
</g>
<g style="mix-blend-mode:screen">
<path d="M910.237 1073.89C909.714 1074.16 909.061 1073.96 908.786 1073.43C908.511 1072.91 908.717 1072.26 909.24 1071.98C909.762 1071.7 910.415 1071.91 910.69 1072.43C910.965 1072.96 910.759 1073.61 910.237 1073.89Z" fill="white"/>
</g>
<g style="mix-blend-mode:screen">
<path d="M936.295 1019.34C935.099 1019.97 933.627 1019.51 933.002 1018.31C932.376 1017.11 932.837 1015.64 934.033 1015.01C935.229 1014.39 936.7 1014.85 937.326 1016.04C937.951 1017.24 937.491 1018.71 936.295 1019.34Z" fill="white"/>
</g>
<g style="mix-blend-mode:screen">
<path d="M790.079 1032.78C789.508 1033.08 788.8 1032.85 788.498 1032.28C788.195 1031.71 788.422 1031 788.993 1030.7C789.563 1030.39 790.271 1030.62 790.574 1031.19C790.876 1031.76 790.649 1032.47 790.079 1032.78Z" fill="white"/>
</g>
<g style="mix-blend-mode:screen">
<path d="M774.199 1205.35C772.955 1206 771.422 1205.52 770.775 1204.28C770.129 1203.03 770.611 1201.5 771.848 1200.85C773.092 1200.2 774.625 1200.68 775.271 1201.92C775.918 1203.17 775.436 1204.7 774.199 1205.35Z" fill="white"/>
</g>
<g style="mix-blend-mode:screen">
<path d="M884.505 1106.16C882.931 1106.98 880.985 1106.37 880.16 1104.79C879.335 1103.22 879.947 1101.27 881.521 1100.44C883.096 1099.62 885.041 1100.23 885.866 1101.81C886.691 1103.38 886.079 1105.33 884.505 1106.16Z" fill="white"/>
</g>
<g style="mix-blend-mode:screen">
<path d="M1093.95 1034.04C1093.64 1034.04 1093.24 1033.89 1093.02 1033.47C1092.75 1032.96 1092.95 1032.32 1093.46 1032.06C1093.62 1031.97 1093.78 1031.94 1093.95 1031.94C1094.25 1031.94 1094.66 1032.09 1094.88 1032.5C1095.05 1032.82 1095.01 1033.12 1094.95 1033.3C1094.89 1033.49 1094.75 1033.75 1094.43 1033.92C1094.28 1034 1094.12 1034.05 1093.95 1034.05L1093.95 1034.04Z" fill="white"/>
</g>
<g style="mix-blend-mode:screen">
<path d="M845.579 1162.73C844.149 1163.48 842.376 1162.92 841.626 1161.49C840.877 1160.05 841.434 1158.29 842.864 1157.54C844.294 1156.79 846.067 1157.34 846.817 1158.77C847.566 1160.21 847.009 1161.98 845.579 1162.73Z" fill="white"/>
</g>
<g style="mix-blend-mode:screen">
<path d="M768.241 1118.14C766.234 1119.2 763.759 1118.42 762.707 1116.41C761.656 1114.4 762.432 1111.92 764.44 1110.87C766.447 1109.82 768.922 1110.59 769.974 1112.6C771.025 1114.61 770.249 1117.09 768.241 1118.14Z" fill="white"/>
</g>
<g style="mix-blend-mode:screen">
<path d="M782.572 946.524C781.52 947.075 780.221 946.669 779.671 945.616C779.121 944.563 779.527 943.262 780.579 942.711C781.63 942.161 782.93 942.567 783.48 943.62C784.029 944.673 783.624 945.974 782.572 946.524Z" fill="white"/>
</g>
<g style="mix-blend-mode:screen">
<path d="M982.682 1100.3C982.146 1100.3 981.438 1100.04 981.053 1099.32C980.743 1098.73 980.846 1098.19 980.929 1097.92C981.011 1097.65 981.245 1097.15 981.829 1096.85C982.098 1096.71 982.379 1096.64 982.675 1096.64C983.211 1096.64 983.919 1096.9 984.297 1097.62C984.607 1098.2 984.504 1098.75 984.421 1099.02C984.339 1099.29 984.105 1099.79 983.521 1100.09C983.252 1100.23 982.971 1100.3 982.682 1100.3L982.682 1100.3Z" fill="white"/>
</g>
<g style="mix-blend-mode:screen">
<path d="M961.251 919.213C960.68 919.516 959.972 919.289 959.669 918.717C959.367 918.146 959.594 917.437 960.164 917.134C960.735 916.832 961.443 917.059 961.746 917.63C962.048 918.201 961.821 918.91 961.251 919.213Z" fill="white"/>
</g>
<g style="mix-blend-mode:screen">
<path d="M986.28 1022.82C985.613 1023.17 984.788 1022.91 984.437 1022.24C984.087 1021.57 984.348 1020.75 985.015 1020.39C985.681 1020.04 986.506 1020.31 986.857 1020.97C987.208 1021.64 986.946 1022.47 986.28 1022.82Z" fill="white"/>
</g>
<g style="mix-blend-mode:screen">
<path d="M921.797 1212.56C919.934 1213.54 917.631 1212.82 916.662 1210.95C915.686 1209.09 916.407 1206.78 918.27 1205.81C920.133 1204.84 922.436 1205.56 923.406 1207.42C924.382 1209.29 923.66 1211.59 921.797 1212.56Z" fill="white"/>
</g>
<g style="mix-blend-mode:screen">
<path d="M885.653 976.179C883.694 977.205 881.274 976.448 880.25 974.486C879.225 972.525 879.982 970.102 881.941 969.077C883.9 968.051 886.32 968.808 887.344 970.77C888.368 972.731 887.612 975.154 885.653 976.179Z" fill="white"/>
</g>
<g style="mix-blend-mode:screen">
<path d="M1068.94 989.512C1067.99 990.014 1066.8 989.643 1066.31 988.686C1065.81 987.729 1066.18 986.545 1067.13 986.05C1068.09 985.547 1069.27 985.919 1069.77 986.876C1070.27 987.832 1069.9 989.016 1068.94 989.512Z" fill="white"/>
</g>
</g>
<g opacity="0.5">
<g style="mix-blend-mode:screen">
<path d="M723.72 992.117C722.787 992.602 721.638 992.24 721.153 991.311C720.668 990.377 721.029 989.226 721.957 988.741C722.89 988.255 724.04 988.617 724.525 989.546C725.009 990.48 724.649 991.631 723.72 992.117Z" fill="#191919"/>
</g>
<g style="mix-blend-mode:screen">
<path d="M867.35 1020.06C867.32 1020.06 867.222 1020.05 867.17 1019.96C867.16 1019.94 867.129 1019.88 867.155 1019.8C867.18 1019.72 867.237 1019.69 867.253 1019.68C867.283 1019.67 867.314 1019.66 867.345 1019.66C867.376 1019.66 867.474 1019.67 867.526 1019.77C867.577 1019.86 867.541 1019.99 867.443 1020.04C867.412 1020.05 867.387 1020.06 867.356 1020.06L867.35 1020.06Z" fill="#191919"/>
</g>
<g style="mix-blend-mode:screen">
<path d="M636.814 1100.67C635.773 1101.21 634.494 1100.81 633.948 1099.77C633.407 1098.72 633.809 1097.44 634.845 1096.9C635.881 1096.35 637.165 1096.76 637.712 1097.8C638.253 1098.84 637.851 1100.12 636.814 1100.67Z" fill="#191919"/>
</g>
<g style="mix-blend-mode:screen">
<path d="M934.832 1138.44C934.409 1138.44 933.847 1138.23 933.548 1137.66C933.306 1137.19 933.383 1136.77 933.45 1136.55C933.517 1136.34 933.697 1135.94 934.161 1135.7C934.373 1135.59 934.595 1135.54 934.827 1135.54C935.249 1135.54 935.811 1135.74 936.11 1136.31C936.353 1136.78 936.275 1137.2 936.208 1137.42C936.141 1137.64 935.961 1138.03 935.497 1138.27C935.285 1138.38 935.064 1138.44 934.832 1138.44Z" fill="#191919"/>
</g>
<g style="mix-blend-mode:screen">
<path d="M975.313 978.367C974.865 978.367 974.277 978.151 973.963 977.552C973.71 977.067 973.787 976.617 973.86 976.39C973.932 976.163 974.122 975.75 974.607 975.497C974.829 975.384 975.061 975.322 975.308 975.322C975.757 975.322 976.345 975.539 976.659 976.137C976.912 976.623 976.834 977.072 976.762 977.299C976.69 977.526 976.499 977.939 976.015 978.192C975.793 978.305 975.561 978.367 975.313 978.367Z" fill="#191919"/>
</g>
<g style="mix-blend-mode:screen">
<path d="M849.118 1052.7C848.758 1052.7 848.283 1052.53 848.031 1052.04C847.824 1051.65 847.891 1051.29 847.948 1051.11C848.005 1050.93 848.159 1050.59 848.551 1050.38C848.727 1050.29 848.917 1050.25 849.113 1050.25C849.474 1050.25 849.949 1050.42 850.201 1050.91C850.407 1051.3 850.34 1051.66 850.284 1051.84C850.227 1052.02 850.072 1052.36 849.68 1052.56C849.5 1052.66 849.314 1052.7 849.118 1052.7Z" fill="#191919"/>
</g>
<g style="mix-blend-mode:screen">
<path d="M1034.33 1134.43C1033.91 1134.43 1033.35 1134.23 1033.05 1133.65C1032.81 1133.19 1032.88 1132.77 1032.95 1132.55C1033.02 1132.34 1033.2 1131.94 1033.66 1131.7C1033.87 1131.59 1034.09 1131.53 1034.33 1131.53C1034.75 1131.53 1035.31 1131.74 1035.61 1132.31C1035.98 1133.02 1035.7 1133.9 1035 1134.26C1034.79 1134.37 1034.56 1134.43 1034.33 1134.43L1034.33 1134.43Z" fill="#191919"/>
</g>
<g style="mix-blend-mode:screen">
<path d="M1064.27 1082.61C1063.26 1083.13 1062.02 1082.74 1061.5 1081.74C1060.98 1080.73 1061.37 1079.49 1062.37 1078.97C1063.37 1078.45 1064.61 1078.84 1065.13 1079.84C1065.66 1080.85 1065.27 1082.08 1064.27 1082.61Z" fill="#191919"/>
</g>
<g style="mix-blend-mode:screen">
<path d="M910.113 1073.65C909.721 1073.85 909.231 1073.7 909.025 1073.31C908.819 1072.92 908.974 1072.42 909.365 1072.22C909.757 1072.01 910.247 1072.17 910.453 1072.56C910.659 1072.95 910.505 1073.44 910.113 1073.65Z" fill="#191919"/>
</g>
<g style="mix-blend-mode:screen">
<path d="M936.011 1018.8C935.114 1019.27 934.011 1018.92 933.541 1018.03C933.072 1017.13 933.418 1016.02 934.315 1015.55C935.212 1015.08 936.315 1015.43 936.784 1016.33C937.254 1017.23 936.908 1018.33 936.011 1018.8Z" fill="#191919"/>
</g>
<g style="mix-blend-mode:screen">
<path d="M789.943 1032.52C789.515 1032.74 788.984 1032.57 788.757 1032.14C788.53 1031.72 788.7 1031.18 789.128 1030.96C789.556 1030.73 790.087 1030.9 790.314 1031.33C790.541 1031.76 790.371 1032.29 789.943 1032.52Z" fill="#191919"/>
</g>
<g style="mix-blend-mode:screen">
<path d="M773.904 1204.79C772.971 1205.27 771.821 1204.91 771.336 1203.98C770.852 1203.05 771.213 1201.9 772.141 1201.41C773.074 1200.93 774.224 1201.29 774.708 1202.22C775.193 1203.15 774.832 1204.3 773.904 1204.79Z" fill="#191919"/>
</g>
<g style="mix-blend-mode:screen">
<path d="M884.128 1105.44C882.947 1106.06 881.488 1105.6 880.869 1104.42C880.251 1103.24 880.709 1101.78 881.89 1101.16C883.071 1100.54 884.53 1101 885.149 1102.18C885.767 1103.36 885.308 1104.82 884.128 1105.44Z" fill="#191919"/>
</g>
<g style="mix-blend-mode:screen">
<path d="M1093.95 1033.78C1093.72 1033.78 1093.41 1033.66 1093.25 1033.35C1093.05 1032.97 1093.2 1032.49 1093.58 1032.29C1093.7 1032.23 1093.82 1032.2 1093.95 1032.2C1094.18 1032.2 1094.48 1032.32 1094.65 1032.63C1094.77 1032.86 1094.74 1033.09 1094.7 1033.22C1094.65 1033.36 1094.55 1033.56 1094.31 1033.69C1094.2 1033.75 1094.07 1033.78 1093.95 1033.78L1093.95 1033.78Z" fill="#191919"/>
</g>
<g style="mix-blend-mode:screen">
<path d="M845.242 1162.08C844.17 1162.65 842.839 1162.23 842.277 1161.15C841.715 1160.08 842.133 1158.75 843.205 1158.19C844.278 1157.62 845.608 1158.04 846.17 1159.12C846.732 1160.19 846.314 1161.52 845.242 1162.08Z" fill="#191919"/>
</g>
<g style="mix-blend-mode:screen">
<path d="M767.768 1117.24C766.262 1118.03 764.406 1117.44 763.617 1115.93C762.829 1114.43 763.411 1112.57 764.917 1111.78C766.422 1110.99 768.278 1111.57 769.067 1113.08C769.856 1114.59 769.273 1116.45 767.768 1117.24Z" fill="#191919"/>
</g>
<g style="mix-blend-mode:screen">
<path d="M782.321 946.047C781.532 946.46 780.557 946.156 780.145 945.366C779.732 944.576 780.037 943.6 780.826 943.188C781.614 942.775 782.589 943.079 783.001 943.869C783.414 944.659 783.11 945.634 782.321 946.047Z" fill="#191919"/>
</g>
<g style="mix-blend-mode:screen">
<path d="M982.679 1099.85C982.277 1099.85 981.746 1099.65 981.457 1099.11C981.225 1098.67 981.303 1098.26 981.365 1098.06C981.427 1097.86 981.602 1097.48 982.04 1097.25C982.241 1097.15 982.453 1097.09 982.674 1097.09C983.076 1097.09 983.607 1097.29 983.891 1097.83C984.123 1098.27 984.046 1098.68 983.984 1098.88C983.922 1099.08 983.747 1099.46 983.308 1099.69C983.107 1099.79 982.896 1099.84 982.679 1099.84L982.679 1099.85Z" fill="#191919"/>
</g>
<g style="mix-blend-mode:screen">
<path d="M961.115 918.953C960.687 919.18 960.156 919.01 959.929 918.581C959.702 918.153 959.872 917.621 960.3 917.394C960.728 917.167 961.259 917.337 961.486 917.766C961.713 918.194 961.543 918.726 961.115 918.953Z" fill="#191919"/>
</g>
<g style="mix-blend-mode:screen">
<path d="M986.124 1022.51C985.624 1022.78 985.005 1022.58 984.742 1022.08C984.479 1021.58 984.675 1020.96 985.175 1020.7C985.675 1020.43 986.294 1020.63 986.557 1021.13C986.82 1021.63 986.624 1022.25 986.124 1022.51Z" fill="#191919"/>
</g>
<g style="mix-blend-mode:screen">
<path d="M921.354 1211.72C919.956 1212.46 918.229 1211.91 917.502 1210.51C916.77 1209.12 917.311 1207.39 918.709 1206.66C920.106 1205.93 921.833 1206.47 922.56 1207.87C923.292 1209.27 922.751 1210.99 921.354 1211.72Z" fill="#191919"/>
</g>
<g style="mix-blend-mode:screen">
<path d="M885.188 975.292C883.719 976.061 881.904 975.494 881.136 974.022C880.367 972.551 880.934 970.734 882.404 969.965C883.873 969.196 885.688 969.764 886.456 971.235C887.225 972.706 886.657 974.523 885.188 975.292Z" fill="#191919"/>
</g>
<g style="mix-blend-mode:screen">
<path d="M1068.72 989.08C1068 989.456 1067.11 989.178 1066.74 988.46C1066.37 987.743 1066.64 986.855 1067.36 986.483C1068.08 986.106 1068.96 986.385 1069.34 987.103C1069.71 987.82 1069.43 988.708 1068.72 989.08Z" fill="#191919"/>
</g>
</g>
<g filter="url(#filter7_f_3789_22677)">
<g style="mix-blend-mode:screen">
<path d="M1208.98 560.679C1210.23 561.326 1211.76 560.844 1212.41 559.606C1213.05 558.36 1212.57 556.825 1211.34 556.178C1210.09 555.531 1208.56 556.013 1207.91 557.252C1207.27 558.497 1207.75 560.032 1208.98 560.679Z" fill="white"/>
</g>
<g style="mix-blend-mode:screen">
<path d="M1065.65 588.132C1065.69 588.132 1065.82 588.118 1065.89 587.988C1065.9 587.96 1065.94 587.891 1065.91 587.781C1065.87 587.678 1065.8 587.637 1065.78 587.623C1065.74 587.602 1065.7 587.589 1065.65 587.589C1065.61 587.589 1065.48 587.602 1065.41 587.733C1065.34 587.864 1065.39 588.029 1065.52 588.098C1065.56 588.118 1065.6 588.132 1065.64 588.132L1065.65 588.132Z" fill="white"/>
</g>
<g style="mix-blend-mode:screen">
<path d="M1295.86 669.296C1297.25 670.018 1298.95 669.482 1299.68 668.098C1300.4 666.708 1299.86 665.001 1298.48 664.271C1297.1 663.542 1295.39 664.086 1294.66 665.469C1293.94 666.859 1294.47 668.566 1295.86 669.296Z" fill="white"/>
</g>
<g style="mix-blend-mode:screen">
<path d="M998.166 706.919C998.729 706.919 999.479 706.643 999.878 705.879C1000.2 705.26 1000.1 704.695 1000.01 704.406C999.919 704.117 999.678 703.594 999.059 703.271C998.778 703.126 998.482 703.051 998.173 703.051C997.609 703.051 996.86 703.326 996.461 704.09C996.138 704.709 996.241 705.274 996.33 705.563C996.42 705.852 996.66 706.375 997.279 706.698C997.561 706.843 997.856 706.919 998.166 706.919Z" fill="white"/>
</g>
<g style="mix-blend-mode:screen">
<path d="M957.682 546.874C958.28 546.874 959.064 546.585 959.483 545.787C959.82 545.14 959.717 544.541 959.621 544.238C959.525 543.935 959.27 543.385 958.624 543.048C958.329 542.896 958.019 542.814 957.689 542.814C957.091 542.814 956.307 543.103 955.888 543.901C955.551 544.548 955.654 545.147 955.751 545.45C955.847 545.752 956.101 546.303 956.747 546.64C957.043 546.792 957.352 546.874 957.682 546.874Z" fill="white"/>
</g>
<g style="mix-blend-mode:screen">
<path d="M1083.88 621.11C1084.36 621.11 1085 620.876 1085.33 620.229C1085.61 619.706 1085.52 619.224 1085.44 618.983C1085.37 618.742 1085.16 618.295 1084.64 618.02C1084.4 617.896 1084.15 617.834 1083.89 617.834C1083.41 617.834 1082.78 618.068 1082.44 618.715C1082.16 619.238 1082.25 619.72 1082.33 619.96C1082.4 620.201 1082.61 620.649 1083.13 620.924C1083.37 621.048 1083.62 621.11 1083.88 621.11Z" fill="white"/>
</g>
<g style="mix-blend-mode:screen">
<path d="M898.666 702.916C899.229 702.916 899.979 702.641 900.378 701.877C900.701 701.257 900.597 700.693 900.508 700.404C900.419 700.122 900.178 699.592 899.559 699.268C899.278 699.124 898.982 699.048 898.673 699.048C898.109 699.048 897.36 699.323 896.961 700.087C896.466 701.03 896.837 702.2 897.779 702.689C898.061 702.834 898.356 702.909 898.666 702.909L898.666 702.916Z" fill="white"/>
</g>
<g style="mix-blend-mode:screen">
<path d="M868.414 651.21C869.754 651.912 871.404 651.389 872.098 650.054C872.8 648.711 872.277 647.06 870.943 646.364C869.603 645.662 867.953 646.186 867.259 647.521C866.558 648.863 867.08 650.515 868.414 651.21Z" fill="white"/>
</g>
<g style="mix-blend-mode:screen">
<path d="M1022.76 641.887C1023.29 642.162 1023.94 641.955 1024.21 641.432C1024.49 640.909 1024.28 640.255 1023.76 639.98C1023.24 639.705 1022.58 639.911 1022.31 640.434C1022.03 640.957 1022.24 641.611 1022.76 641.887Z" fill="white"/>
</g>
<g style="mix-blend-mode:screen">
<path d="M996.705 587.341C997.901 587.968 999.373 587.506 999.998 586.309C1000.62 585.111 1000.16 583.638 998.967 583.012C997.771 582.386 996.3 582.847 995.674 584.045C995.049 585.242 995.509 586.715 996.705 587.341Z" fill="white"/>
</g>
<g style="mix-blend-mode:screen">
<path d="M1142.92 600.776C1143.49 601.078 1144.2 600.851 1144.5 600.28C1144.8 599.709 1144.58 599 1144.01 598.697C1143.44 598.394 1142.73 598.621 1142.43 599.193C1142.12 599.764 1142.35 600.473 1142.92 600.776Z" fill="white"/>
</g>
<g style="mix-blend-mode:screen">
<path d="M1158.8 773.351C1160.05 773.998 1161.58 773.516 1162.22 772.277C1162.87 771.031 1162.39 769.497 1161.15 768.85C1159.91 768.203 1158.37 768.685 1157.73 769.923C1157.08 771.169 1157.56 772.704 1158.8 773.351Z" fill="white"/>
</g>
<g style="mix-blend-mode:screen">
<path d="M1048.5 674.157C1050.07 674.983 1052.01 674.37 1052.84 672.794C1053.66 671.218 1053.05 669.27 1051.48 668.444C1049.9 667.618 1047.96 668.231 1047.13 669.807C1046.31 671.383 1046.92 673.331 1048.5 674.157Z" fill="white"/>
</g>
<g style="mix-blend-mode:screen">
<path d="M839.047 602.038C839.357 602.038 839.762 601.887 839.982 601.474C840.25 600.965 840.051 600.325 839.536 600.056C839.384 599.973 839.219 599.939 839.054 599.939C838.745 599.939 838.339 600.091 838.119 600.503C837.954 600.82 837.989 601.116 838.051 601.302C838.113 601.488 838.25 601.749 838.566 601.921C838.718 602.004 838.883 602.045 839.047 602.045L839.047 602.038Z" fill="white"/>
</g>
<g style="mix-blend-mode:screen">
<path d="M1087.42 730.732C1088.85 731.482 1090.62 730.925 1091.37 729.493C1092.12 728.055 1091.57 726.286 1090.14 725.536C1088.71 724.786 1086.93 725.343 1086.18 726.775C1085.43 728.213 1085.99 729.982 1087.42 730.732Z" fill="white"/>
</g>
<g style="mix-blend-mode:screen">
<path d="M1164.76 686.145C1166.77 687.198 1169.24 686.42 1170.29 684.41C1171.34 682.401 1170.57 679.923 1168.56 678.87C1166.55 677.817 1164.08 678.595 1163.03 680.604C1161.97 682.614 1162.75 685.092 1164.76 686.145Z" fill="white"/>
</g>
<g style="mix-blend-mode:screen">
<path d="M1150.43 514.524C1151.48 515.075 1152.78 514.669 1153.33 513.616C1153.88 512.563 1153.47 511.262 1152.42 510.711C1151.37 510.161 1150.07 510.567 1149.52 511.62C1148.97 512.673 1149.38 513.974 1150.43 514.524Z" fill="white"/>
</g>
<g style="mix-blend-mode:screen">
<path d="M950.318 668.304C950.854 668.304 951.562 668.042 951.947 667.319C952.257 666.734 952.154 666.191 952.071 665.922C951.989 665.654 951.755 665.151 951.171 664.849C950.902 664.711 950.621 664.635 950.325 664.635C949.789 664.635 949.081 664.897 948.703 665.619C948.393 666.204 948.496 666.748 948.579 667.017C948.661 667.285 948.895 667.787 949.479 668.09C949.748 668.228 950.029 668.297 950.318 668.297L950.318 668.304Z" fill="white"/>
</g>
<g style="mix-blend-mode:screen">
<path d="M971.749 487.213C972.32 487.516 973.028 487.289 973.331 486.717C973.633 486.146 973.406 485.437 972.836 485.134C972.265 484.832 971.557 485.059 971.254 485.63C970.952 486.201 971.179 486.91 971.749 487.213Z" fill="white"/>
</g>
<g style="mix-blend-mode:screen">
<path d="M946.72 590.817C947.387 591.168 948.212 590.907 948.563 590.239C948.913 589.572 948.652 588.746 947.985 588.395C947.319 588.044 946.494 588.305 946.143 588.973C945.792 589.64 946.054 590.466 946.72 590.817Z" fill="white"/>
</g>
<g style="mix-blend-mode:screen">
<path d="M1011.2 780.564C1013.07 781.542 1015.37 780.819 1016.34 778.954C1017.31 777.089 1016.59 774.783 1014.73 773.813C1012.87 772.842 1010.56 773.558 1009.59 775.423C1008.62 777.288 1009.34 779.594 1011.2 780.564Z" fill="white"/>
</g>
<g style="mix-blend-mode:screen">
<path d="M1047.35 544.179C1049.31 545.205 1051.73 544.448 1052.75 542.486C1053.77 540.525 1053.02 538.102 1051.06 537.077C1049.1 536.051 1046.68 536.808 1045.66 538.77C1044.63 540.731 1045.39 543.154 1047.35 544.179Z" fill="white"/>
</g>
<g style="mix-blend-mode:screen">
<path d="M864.057 557.512C865.013 558.014 866.195 557.643 866.69 556.686C867.192 555.729 866.821 554.545 865.865 554.05C864.91 553.547 863.727 553.919 863.232 554.876C862.731 555.832 863.102 557.016 864.057 557.512Z" fill="white"/>
</g>
</g>
<g opacity="0.5">
<g style="mix-blend-mode:screen">
<path d="M1209.28 560.117C1210.21 560.602 1211.36 560.24 1211.85 559.311C1212.33 558.377 1211.97 557.226 1211.04 556.741C1210.11 556.255 1208.96 556.617 1208.48 557.546C1207.99 558.48 1208.35 559.631 1209.28 560.117Z" fill="#191919"/>
</g>
<g style="mix-blend-mode:screen">
<path d="M1065.65 588.064C1065.68 588.064 1065.78 588.054 1065.83 587.956C1065.84 587.935 1065.87 587.884 1065.85 587.801C1065.82 587.724 1065.76 587.693 1065.75 587.682C1065.72 587.667 1065.69 587.657 1065.65 587.657C1065.62 587.657 1065.53 587.667 1065.47 587.765C1065.42 587.863 1065.46 587.987 1065.56 588.039C1065.59 588.054 1065.61 588.064 1065.64 588.064L1065.65 588.064Z" fill="#191919"/>
</g>
<g style="mix-blend-mode:screen">
<path d="M1296.19 668.666C1297.23 669.208 1298.51 668.805 1299.05 667.767C1299.59 666.725 1299.19 665.445 1298.16 664.897C1297.12 664.35 1295.83 664.758 1295.29 665.796C1294.75 666.838 1295.15 668.118 1296.19 668.666Z" fill="#191919"/>
</g>
<g style="mix-blend-mode:screen">
<path d="M998.168 706.436C998.591 706.436 999.153 706.23 999.452 705.657C999.694 705.192 999.617 704.769 999.55 704.552C999.483 704.335 999.303 703.943 998.839 703.7C998.627 703.592 998.405 703.535 998.173 703.535C997.751 703.535 997.189 703.742 996.89 704.315C996.647 704.779 996.725 705.203 996.792 705.419C996.859 705.636 997.039 706.028 997.503 706.271C997.715 706.379 997.936 706.436 998.168 706.436Z" fill="#191919"/>
</g>
<g style="mix-blend-mode:screen">
<path d="M957.687 546.367C958.135 546.367 958.723 546.151 959.037 545.552C959.29 545.067 959.213 544.617 959.14 544.39C959.068 544.163 958.878 543.75 958.393 543.497C958.171 543.384 957.939 543.322 957.692 543.322C957.243 543.322 956.655 543.539 956.341 544.137C956.088 544.623 956.166 545.072 956.238 545.299C956.31 545.526 956.501 545.939 956.985 546.192C957.207 546.305 957.439 546.367 957.687 546.367Z" fill="#191919"/>
</g>
<g style="mix-blend-mode:screen">
<path d="M1083.88 620.702C1084.24 620.702 1084.72 620.527 1084.97 620.041C1085.18 619.649 1085.11 619.288 1085.05 619.107C1085 618.926 1084.84 618.591 1084.45 618.384C1084.27 618.292 1084.08 618.245 1083.89 618.245C1083.53 618.245 1083.05 618.421 1082.8 618.906C1082.59 619.298 1082.66 619.659 1082.72 619.84C1082.77 620.021 1082.93 620.356 1083.32 620.563C1083.5 620.656 1083.69 620.702 1083.88 620.702Z" fill="#191919"/>
</g>
<g style="mix-blend-mode:screen">
<path d="M898.668 702.433C899.091 702.433 899.653 702.227 899.952 701.654C900.194 701.189 900.117 700.766 900.05 700.549C899.983 700.337 899.803 699.94 899.339 699.697C899.127 699.589 898.905 699.532 898.673 699.532C898.251 699.532 897.689 699.739 897.39 700.312C897.018 701.019 897.297 701.896 898.003 702.263C898.215 702.371 898.436 702.428 898.668 702.428L898.668 702.433Z" fill="#191919"/>
</g>
<g style="mix-blend-mode:screen">
<path d="M868.733 650.606C869.738 651.133 870.976 650.74 871.497 649.739C872.022 648.732 871.631 647.493 870.63 646.972C869.625 646.446 868.388 646.838 867.867 647.839C867.341 648.846 867.733 650.085 868.733 650.606Z" fill="#191919"/>
</g>
<g style="mix-blend-mode:screen">
<path d="M1022.89 641.648C1023.28 641.855 1023.77 641.7 1023.97 641.308C1024.18 640.915 1024.03 640.425 1023.63 640.218C1023.24 640.012 1022.75 640.167 1022.55 640.559C1022.34 640.951 1022.5 641.442 1022.89 641.648Z" fill="#191919"/>
</g>
<g style="mix-blend-mode:screen">
<path d="M996.989 586.799C997.886 587.269 998.989 586.923 999.459 586.025C999.928 585.127 999.582 584.022 998.685 583.553C997.788 583.083 996.685 583.429 996.216 584.327C995.746 585.225 996.092 586.33 996.989 586.799Z" fill="#191919"/>
</g>
<g style="mix-blend-mode:screen">
<path d="M1143.06 600.515C1143.49 600.742 1144.02 600.572 1144.24 600.144C1144.47 599.715 1144.3 599.184 1143.87 598.956C1143.44 598.729 1142.91 598.9 1142.69 599.328C1142.46 599.757 1142.63 600.288 1143.06 600.515Z" fill="#191919"/>
</g>
<g style="mix-blend-mode:screen">
<path d="M1159.1 772.788C1160.03 773.273 1161.18 772.912 1161.66 771.983C1162.15 771.049 1161.79 769.898 1160.86 769.412C1159.93 768.927 1158.78 769.288 1158.29 770.218C1157.81 771.152 1158.17 772.303 1159.1 772.788Z" fill="#191919"/>
</g>
<g style="mix-blend-mode:screen">
<path d="M1048.87 673.443C1050.05 674.063 1051.51 673.603 1052.13 672.421C1052.75 671.239 1052.29 669.778 1051.11 669.159C1049.93 668.539 1048.47 668.999 1047.85 670.181C1047.23 671.363 1047.69 672.824 1048.87 673.443Z" fill="#191919"/>
</g>
<g style="mix-blend-mode:screen">
<path d="M839.049 601.777C839.281 601.777 839.585 601.663 839.75 601.354C839.952 600.972 839.802 600.492 839.415 600.29C839.302 600.228 839.178 600.203 839.054 600.203C838.822 600.203 838.518 600.316 838.353 600.626C838.23 600.863 838.255 601.085 838.302 601.225C838.348 601.364 838.451 601.56 838.688 601.689C838.802 601.751 838.926 601.782 839.049 601.782L839.049 601.777Z" fill="#191919"/>
</g>
<g style="mix-blend-mode:screen">
<path d="M1087.76 730.084C1088.83 730.646 1090.16 730.228 1090.72 729.154C1091.28 728.076 1090.87 726.749 1089.79 726.186C1088.72 725.624 1087.39 726.042 1086.83 727.115C1086.27 728.194 1086.69 729.521 1087.76 730.084Z" fill="#191919"/>
</g>
<g style="mix-blend-mode:screen">
<path d="M1165.23 685.236C1166.74 686.026 1168.59 685.442 1169.38 683.935C1170.17 682.428 1169.59 680.569 1168.08 679.78C1166.58 678.99 1164.72 679.573 1163.93 681.08C1163.14 682.588 1163.73 684.446 1165.23 685.236Z" fill="#191919"/>
</g>
<g style="mix-blend-mode:screen">
<path d="M1150.68 514.047C1151.47 514.46 1152.44 514.156 1152.86 513.366C1153.27 512.576 1152.96 511.6 1152.17 511.188C1151.39 510.775 1150.41 511.079 1150 511.869C1149.59 512.659 1149.89 513.634 1150.68 514.047Z" fill="#191919"/>
</g>
<g style="mix-blend-mode:screen">
<path d="M950.321 667.846C950.723 667.846 951.254 667.65 951.543 667.108C951.775 666.669 951.697 666.262 951.635 666.06C951.573 665.859 951.398 665.482 950.96 665.255C950.759 665.152 950.547 665.095 950.326 665.095C949.924 665.095 949.393 665.291 949.109 665.833C948.877 666.272 948.954 666.68 949.016 666.881C949.078 667.082 949.253 667.459 949.692 667.686C949.893 667.79 950.104 667.841 950.321 667.841L950.321 667.846Z" fill="#191919"/>
</g>
<g style="mix-blend-mode:screen">
<path d="M971.885 486.953C972.313 487.18 972.844 487.01 973.071 486.581C973.298 486.153 973.128 485.621 972.7 485.394C972.272 485.167 971.741 485.337 971.514 485.766C971.287 486.194 971.457 486.726 971.885 486.953Z" fill="#191919"/>
</g>
<g style="mix-blend-mode:screen">
<path d="M946.876 590.514C947.376 590.778 947.995 590.581 948.258 590.081C948.521 589.58 948.325 588.961 947.825 588.697C947.325 588.434 946.706 588.63 946.443 589.131C946.18 589.632 946.376 590.251 946.876 590.514Z" fill="#191919"/>
</g>
<g style="mix-blend-mode:screen">
<path d="M1011.65 779.723C1013.04 780.456 1014.77 779.914 1015.5 778.515C1016.23 777.116 1015.69 775.387 1014.29 774.659C1012.89 773.931 1011.17 774.468 1010.44 775.867C1009.71 777.266 1010.25 778.995 1011.65 779.723Z" fill="#191919"/>
</g>
<g style="mix-blend-mode:screen">
<path d="M1047.81 543.292C1049.28 544.061 1051.1 543.494 1051.86 542.022C1052.63 540.551 1052.07 538.734 1050.6 537.965C1049.13 537.196 1047.31 537.764 1046.54 539.235C1045.78 540.706 1046.34 542.523 1047.81 543.292Z" fill="#191919"/>
</g>
<g style="mix-blend-mode:screen">
<path d="M864.283 557.08C865 557.456 865.887 557.178 866.258 556.46C866.634 555.743 866.356 554.855 865.639 554.483C864.923 554.106 864.036 554.385 863.665 555.103C863.288 555.82 863.567 556.708 864.283 557.08Z" fill="#191919"/>
</g>
</g>
</g>
<defs>
<filter id="filter0_f_3789_22677" x="-28" y="-28" width="1376" height="1376" filterUnits="userSpaceOnUse" color-interpolation-filters="sRGB">
<feFlood flood-opacity="0" result="BackgroundImageFix"/>
<feBlend mode="normal" in="SourceGraphic" in2="BackgroundImageFix" result="shape"/>
<feGaussianBlur stdDeviation="200" result="effect1_foregroundBlur_3789_22677"/>
</filter>
<filter id="filter1_f_3789_22677" x="261.816" y="260" width="796.363" height="1160" filterUnits="userSpaceOnUse" color-interpolation-filters="sRGB">
<feFlood flood-opacity="0" result="BackgroundImageFix"/>
<feBlend mode="normal" in="SourceGraphic" in2="BackgroundImageFix" result="shape"/>
<feGaussianBlur stdDeviation="50" result="effect1_foregroundBlur_3789_22677"/>
</filter>
<filter id="filter2_f_3789_22677" x="510.91" y="516.364" width="298.184" height="843.636" filterUnits="userSpaceOnUse" color-interpolation-filters="sRGB">
<feFlood flood-opacity="0" result="BackgroundImageFix"/>
<feBlend mode="normal" in="SourceGraphic" in2="BackgroundImageFix" result="shape"/>
<feGaussianBlur stdDeviation="20" result="effect1_foregroundBlur_3789_22677"/>
</filter>
<filter id="filter3_f_3789_22677" x="124" y="171" width="582" height="416" filterUnits="userSpaceOnUse" color-interpolation-filters="sRGB">
<feFlood flood-opacity="0" result="BackgroundImageFix"/>
<feBlend mode="normal" in="SourceGraphic" in2="BackgroundImageFix" result="shape"/>
<feGaussianBlur stdDeviation="30" result="effect1_foregroundBlur_3789_22677"/>
</filter>
<filter id="filter4_f_3789_22677" x="573" y="169" width="582" height="416" filterUnits="userSpaceOnUse" color-interpolation-filters="sRGB">
<feFlood flood-opacity="0" result="BackgroundImageFix"/>
<feBlend mode="normal" in="SourceGraphic" in2="BackgroundImageFix" result="shape"/>
<feGaussianBlur stdDeviation="30" result="effect1_foregroundBlur_3789_22677"/>
</filter>
<filter id="filter5_f_3789_22677" x="-33" y="637" width="582" height="416" filterUnits="userSpaceOnUse" color-interpolation-filters="sRGB">
<feFlood flood-opacity="0" result="BackgroundImageFix"/>
<feBlend mode="normal" in="SourceGraphic" in2="BackgroundImageFix" result="shape"/>
<feGaussianBlur stdDeviation="30" result="effect1_foregroundBlur_3789_22677"/>
</filter>
<filter id="filter6_f_3789_22677" x="573" y="857" width="582" height="416" filterUnits="userSpaceOnUse" color-interpolation-filters="sRGB">
<feFlood flood-opacity="0" result="BackgroundImageFix"/>
<feBlend mode="normal" in="SourceGraphic" in2="BackgroundImageFix" result="shape"/>
<feGaussianBlur stdDeviation="30" result="effect1_foregroundBlur_3789_22677"/>
</filter>
<filter id="filter7_f_3789_22677" x="778" y="425" width="582" height="416" filterUnits="userSpaceOnUse" color-interpolation-filters="sRGB">
<feFlood flood-opacity="0" result="BackgroundImageFix"/>
<feBlend mode="normal" in="SourceGraphic" in2="BackgroundImageFix" result="shape"/>
<feGaussianBlur stdDeviation="30" result="effect1_foregroundBlur_3789_22677"/>
</filter>
<linearGradient id="paint0_linear_3789_22677" x1="206.25" y1="0" x2="206.25" y2="901.312" gradientUnits="userSpaceOnUse">
<stop stop-color="#F60109" stop-opacity="0"/>
<stop offset="0.5" stop-color="#F60109"/>
<stop offset="1" stop-color="#F60109" stop-opacity="0"/>
</linearGradient>
<linearGradient id="paint1_linear_3789_22677" x1="206.25" y1="0" x2="206.25" y2="901.312" gradientUnits="userSpaceOnUse">
<stop stop-color="#F60109" stop-opacity="0"/>
<stop offset="0.5" stop-color="#F60109"/>
<stop offset="1" stop-color="#F60109" stop-opacity="0"/>
</linearGradient>
<linearGradient id="paint2_linear_3789_22677" x1="103.125" y1="0" x2="103.125" y2="901.312" gradientUnits="userSpaceOnUse">
<stop stop-color="#F60109" stop-opacity="0"/>
<stop offset="0.5" stop-color="#F60109"/>
<stop offset="1" stop-color="#F60109" stop-opacity="0"/>
</linearGradient>
<linearGradient id="paint3_linear_3789_22677" x1="103.125" y1="0" x2="103.125" y2="901.312" gradientUnits="userSpaceOnUse">
<stop stop-color="#F60109" stop-opacity="0"/>
<stop offset="0.5" stop-color="#F60109"/>
<stop offset="1" stop-color="#F60109" stop-opacity="0"/>
</linearGradient>
<linearGradient id="paint4_linear_3789_22677" x1="103.125" y1="0" x2="103.125" y2="901.312" gradientUnits="userSpaceOnUse">
<stop stop-color="#F60109" stop-opacity="0"/>
<stop offset="0.5" stop-color="#F60109"/>
<stop offset="1" stop-color="#F60109" stop-opacity="0"/>
</linearGradient>
<linearGradient id="paint5_linear_3789_22677" x1="103.125" y1="0" x2="103.125" y2="901.312" gradientUnits="userSpaceOnUse">
<stop stop-color="#F60109" stop-opacity="0"/>
<stop offset="0.5" stop-color="#F60109"/>
<stop offset="1" stop-color="#F60109" stop-opacity="0"/>
</linearGradient>
<linearGradient id="paint6_linear_3789_22677" x1="240" y1="1320" x2="240" y2="360" gradientUnits="userSpaceOnUse">
<stop stop-color="white" stop-opacity="0"/>
<stop offset="0.5" stop-color="white"/>
<stop offset="1" stop-color="white"/>
</linearGradient>
<radialGradient id="paint7_radial_3789_22677" cx="0" cy="0" r="1" gradientUnits="userSpaceOnUse" gradientTransform="translate(660 1320) rotate(-90) scale(960 809.655)">
<stop stop-color="#F60109"/>
<stop offset="1" stop-color="#F60109" stop-opacity="0"/>
</radialGradient>
<linearGradient id="paint8_linear_3789_22677" x1="660" y1="1320" x2="660" y2="360" gradientUnits="userSpaceOnUse">
<stop stop-color="#F60109"/>
<stop offset="0.868225" stop-color="#F60109" stop-opacity="0"/>
</linearGradient>
<linearGradient id="paint9_linear_3789_22677" x1="659.998" y1="1320" x2="659.998" y2="360" gradientUnits="userSpaceOnUse">
<stop stop-color="#F60109"/>
<stop offset="0.868225" stop-color="#F60109" stop-opacity="0"/>
</linearGradient>
<linearGradient id="paint10_linear_3789_22677" x1="660.001" y1="1320" x2="660.001" y2="360" gradientUnits="userSpaceOnUse">
<stop stop-color="#F60109"/>
<stop offset="0.868225" stop-color="#F60109" stop-opacity="0"/>
</linearGradient>
<linearGradient id="paint11_linear_3789_22677" x1="659.998" y1="1320" x2="659.998" y2="360" gradientUnits="userSpaceOnUse">
<stop stop-color="#F60109"/>
<stop offset="0.863225" stop-color="#F60109" stop-opacity="0"/>
</linearGradient>
<radialGradient id="paint12_radial_3789_22677" cx="0" cy="0" r="1" gradientUnits="userSpaceOnUse" gradientTransform="translate(660.001 1320) rotate(-90) scale(763.636 80.2979)">
<stop stop-color="#FF333A"/>
<stop offset="1" stop-color="#F60109" stop-opacity="0"/>
</radialGradient>
<clipPath id="clip0_3789_22677">
<rect width="1320" height="1320" fill="white" transform="matrix(1 0 0 -1 0 1320)"/>
</clipPath>
</defs>
</svg>
