<svg width="16" height="16" viewBox="0 0 16 16" fill="none" xmlns="http://www.w3.org/2000/svg">
<path d="M13.2087 4.2515L8.27133 2.0575C8.09867 1.98083 7.902 1.98083 7.73 2.0575L2.792 4.25217C2.31 4.46617 2 4.9435 2 5.47017V12.6668C2 13.4035 2.59667 14.0002 3.33333 14.0002H12.6667C13.4033 14.0002 14 13.4035 14 12.6668V5.47017C14 4.94283 13.69 4.4655 13.2087 4.2515ZM10.6667 12.6668H9.33333C8.96533 12.6668 8.66667 12.3682 8.66667 12.0002V10.6668C8.66667 10.2988 8.96533 10.0002 9.33333 10.0002H10.6667C11.0347 10.0002 11.3333 10.2988 11.3333 10.6668V12.0002C11.3333 12.3682 11.0347 12.6668 10.6667 12.6668ZM8.66667 8.66683H7.33333C6.96533 8.66683 6.66667 8.36817 6.66667 8.00017V6.66683C6.66667 6.29883 6.96533 6.00017 7.33333 6.00017H8.66667C9.03467 6.00017 9.33333 6.29883 9.33333 6.66683V8.00017C9.33333 8.36817 9.03467 8.66683 8.66667 8.66683ZM7.33333 10.6668V12.0002C7.33333 12.3682 7.03467 12.6668 6.66667 12.6668H5.33333C4.96533 12.6668 4.66667 12.3682 4.66667 12.0002V10.6668C4.66667 10.2988 4.96533 10.0002 5.33333 10.0002H6.66667C7.03467 10.0002 7.33333 10.2988 7.33333 10.6668Z" fill="white"/>
</svg>
