<svg width="16" height="16" viewBox="0 0 16 16" fill="none" xmlns="http://www.w3.org/2000/svg">
<path fill-rule="evenodd" clip-rule="evenodd" d="M3.33398 6.34309C3.33398 3.94447 5.42332 2 8.00065 2C10.578 2 12.6673 3.94447 12.6673 6.34309C12.6673 8.72292 11.1779 12.8333 8.85403 13.8264C8.3123 14.0579 7.689 14.0579 7.14727 13.8264C4.82342 12.8333 3.33398 8.72292 3.33398 6.34309ZM8.00065 8C8.73703 8 9.33398 7.40305 9.33398 6.66667C9.33398 5.93029 8.73703 5.33333 8.00065 5.33333C7.26427 5.33333 6.66732 5.93029 6.66732 6.66667C6.66732 7.40305 7.26427 8 8.00065 8Z" fill="#2D2D2D"/>
</svg>
