<svg width="16" height="16" viewBox="0 0 16 16" fill="none" xmlns="http://www.w3.org/2000/svg">
<path fill-rule="evenodd" clip-rule="evenodd" d="M3.33203 6.34309C3.33203 3.94447 5.42137 2 7.9987 2C10.576 2 12.6654 3.94447 12.6654 6.34309C12.6654 8.72292 11.1759 12.8333 8.85208 13.8264C8.31035 14.0579 7.68705 14.0579 7.14532 13.8264C4.82147 12.8333 3.33203 8.72292 3.33203 6.34309ZM7.9987 8C8.73508 8 9.33203 7.40305 9.33203 6.66667C9.33203 5.93029 8.73508 5.33333 7.9987 5.33333C7.26232 5.33333 6.66536 5.93029 6.66536 6.66667C6.66536 7.40305 7.26232 8 7.9987 8Z" fill="white"/>
</svg>
