<svg width="360" height="773" viewBox="0 0 360 773" fill="none" xmlns="http://www.w3.org/2000/svg">
<g clip-path="url(#clip0_4022_23209)">
<g clip-path="url(#clip1_4022_23209)">
<g opacity="0.2" filter="url(#filter0_f_4022_23209)">
<circle cx="183" cy="-8" r="288" fill="#F60109"/>
</g>
<mask id="mask0_4022_23209" style="mask-type:alpha" maskUnits="userSpaceOnUse" x="-138" y="-449" width="1020" height="960">
<path fill-rule="evenodd" clip-rule="evenodd" d="M402.001 -449H-137.715V191.732H45.9306C-24.9228 237.726 -77.9987 285.401 -77.9987 382.25V511H882.001V382.25C882.001 267.722 807.779 221.958 717.707 166.422C646.724 122.656 565.899 72.8214 503.799 -21.5202V-449H402.001ZM402.001 -449C402.001 -243.128 444.307 -111.9 503.799 -21.5202V191.732H45.9306C58.8649 183.335 72.3915 174.995 86.2959 166.422C225.28 80.7281 402.001 -28.2331 402.001 -449Z" fill="#D9D9D9"/>
</mask>
<g mask="url(#mask0_4022_23209)">
<rect x="45.2188" y="-309.507" width="275.65" height="601.562" fill="url(#paint0_linear_4022_23209)" fill-opacity="0.1"/>
<rect x="46.2188" y="-308.507" width="273.65" height="599.562" stroke="url(#paint1_linear_4022_23209)" stroke-opacity="0.2" stroke-width="2"/>
<rect x="-120.172" y="-309.507" width="137.825" height="601.562" fill="url(#paint2_linear_4022_23209)" fill-opacity="0.1"/>
<rect x="-119.172" y="-308.507" width="135.825" height="599.562" stroke="url(#paint3_linear_4022_23209)" stroke-opacity="0.2" stroke-width="2"/>
<rect x="348.434" y="-309.507" width="137.825" height="601.562" fill="url(#paint4_linear_4022_23209)" fill-opacity="0.1"/>
<rect x="349.434" y="-308.507" width="135.825" height="599.562" stroke="url(#paint5_linear_4022_23209)" stroke-opacity="0.2" stroke-width="2"/>
</g>
<mask id="mask1_4022_23209" style="mask-type:alpha" maskUnits="userSpaceOnUse" x="-78" y="-449" width="960" height="960">
<path fill-rule="evenodd" clip-rule="evenodd" d="M86.2946 166.422C225.279 80.7282 402 -28.2331 402 -449C402 -28.2331 578.721 80.7282 717.705 166.422C807.777 221.958 882 267.722 882 382.25V511H402H-78V382.25C-78 267.722 -3.77737 221.958 86.2946 166.422Z" fill="url(#paint6_linear_4022_23209)"/>
</mask>
<g mask="url(#mask1_4022_23209)">
<path d="M86.2946 166.422C225.279 80.7281 402 -28.2331 402 -449C402 -28.2331 578.721 80.7281 717.705 166.422C807.777 221.958 882 267.722 882 382.25V511H-78V382.25C-78 267.722 -3.77737 221.958 86.2946 166.422Z" fill="url(#paint7_radial_4022_23209)" fill-opacity="0.3" stroke="url(#paint8_linear_4022_23209)" stroke-opacity="0.8" stroke-width="4"/>
<path opacity="0.75" d="M205.878 166.422C292.217 80.7282 401.998 -28.2331 401.998 -449C401.998 -28.2331 511.779 80.7282 598.118 166.422C654.072 221.958 700.18 267.722 700.18 382.25V511H103.816V382.25C103.816 267.722 149.924 221.958 205.878 166.422Z" stroke="url(#paint9_linear_4022_23209)" stroke-opacity="0.8" stroke-width="2"/>
<path opacity="0.5" d="M312.073 166.422C351.662 80.7282 402.001 -28.2331 402.001 -449C402.001 -28.2331 452.339 80.7282 491.929 166.422C517.586 221.958 538.728 267.722 538.728 382.25V511H265.273V382.25C265.273 267.722 286.416 221.958 312.073 166.422Z" stroke="url(#paint10_linear_4022_23209)" stroke-opacity="0.8" stroke-width="2"/>
<g filter="url(#filter1_f_4022_23209)">
<path fill-rule="evenodd" clip-rule="evenodd" d="M401.998 -447.722C401.776 -28.0123 292.129 80.815 205.878 166.422C149.924 221.958 103.816 267.722 103.816 382.25V511H265.271V382.25C265.271 267.722 286.413 221.958 312.07 166.422C351.619 80.815 401.896 -28.0123 401.998 -447.722ZM401.998 -448.221C402.06 -28.0986 452.361 80.7811 491.926 166.422C517.583 221.958 538.725 267.722 538.725 382.25V511H700.18V382.25C700.18 267.722 654.072 221.958 598.118 166.422C511.779 80.7281 401.998 -28.2331 401.998 -449C401.998 -448.74 401.998 -448.48 401.998 -448.221Z" fill="url(#paint11_linear_4022_23209)"/>
</g>
<g filter="url(#filter2_f_4022_23209)">
<path d="M330.25 40.5403C361.837 -27.6253 402.001 -114.299 402.001 -449C402.001 -114.299 442.165 -27.6253 473.752 40.5403C494.223 84.7165 511.092 121.119 511.092 212.222V314.636H292.91V212.222C292.91 121.119 309.779 84.7165 330.25 40.5403Z" fill="url(#paint12_radial_4022_23209)"/>
</g>
</g>
<g opacity="0.4">
<g filter="url(#filter3_f_4022_23209)">
<g style="mix-blend-mode:screen">
<path d="M160.353 8.13216C160.311 8.13216 160.181 8.11839 160.112 7.98762C160.098 7.96009 160.057 7.89127 160.091 7.78115C160.126 7.67791 160.201 7.63661 160.222 7.62285C160.263 7.6022 160.305 7.58844 160.346 7.58844C160.387 7.58844 160.518 7.6022 160.586 7.73297C160.655 7.86374 160.607 8.02892 160.476 8.09775C160.435 8.11839 160.401 8.13216 160.36 8.13216L160.353 8.13216Z" fill="white"/>
</g>
<g style="mix-blend-mode:screen">
<path d="M227.834 126.919C227.271 126.919 226.521 126.643 226.122 125.879C225.799 125.26 225.903 124.695 225.992 124.406C226.081 124.117 226.322 123.594 226.941 123.271C227.222 123.126 227.518 123.051 227.827 123.051C228.391 123.051 229.14 123.326 229.539 124.09C229.862 124.709 229.759 125.274 229.67 125.563C229.58 125.852 229.34 126.375 228.721 126.698C228.439 126.843 228.144 126.919 227.834 126.919Z" fill="white"/>
</g>
<g style="mix-blend-mode:screen">
<path d="M142.118 41.1098C141.636 41.1098 141.004 40.8757 140.667 40.2288C140.392 39.7057 140.481 39.2239 140.557 38.983C140.633 38.7421 140.839 38.2948 141.361 38.0195C141.595 37.8956 141.849 37.8336 142.111 37.8336C142.592 37.8336 143.224 38.0677 143.561 38.7146C143.836 39.2377 143.747 39.7195 143.671 39.9604C143.596 40.2013 143.389 40.6486 142.867 40.9239C142.626 41.0478 142.379 41.1098 142.118 41.1098Z" fill="white"/>
</g>
<g style="mix-blend-mode:screen">
<path d="M327.334 122.916C326.771 122.916 326.021 122.641 325.622 121.877C325.299 121.257 325.403 120.693 325.492 120.404C325.581 120.122 325.822 119.592 326.441 119.268C326.722 119.124 327.018 119.048 327.327 119.048C327.891 119.048 328.64 119.323 329.039 120.087C329.534 121.03 329.163 122.2 328.221 122.689C327.939 122.833 327.644 122.909 327.334 122.909L327.334 122.916Z" fill="white"/>
</g>
<g style="mix-blend-mode:screen">
<path d="M357.586 71.2098C356.246 71.9118 354.596 71.3887 353.902 70.0535C353.2 68.7114 353.723 67.0596 355.057 66.3645C356.397 65.6624 358.047 66.1855 358.741 67.5207C359.442 68.8628 358.92 70.5146 357.586 71.2098Z" fill="white"/>
</g>
<g style="mix-blend-mode:screen">
<path d="M203.237 61.8865C202.714 62.1618 202.061 61.9554 201.786 61.4323C201.511 60.9092 201.717 60.2554 202.24 59.9801C202.762 59.7048 203.415 59.9112 203.69 60.4343C203.965 60.9574 203.759 61.6112 203.237 61.8865Z" fill="white"/>
</g>
<g style="mix-blend-mode:screen">
<path d="M229.295 7.34126C228.099 7.96757 226.627 7.50644 226.002 6.30887C225.376 5.1113 225.837 3.63843 227.033 3.01212C228.229 2.3858 229.7 2.84693 230.326 4.0445C230.951 5.24207 230.491 6.71494 229.295 7.34126Z" fill="white"/>
</g>
<g style="mix-blend-mode:screen">
<path d="M83.0787 20.7755C82.5081 21.0783 81.8001 20.8512 81.4976 20.2799C81.1951 19.7087 81.422 18.9998 81.9926 18.6969C82.5631 18.3941 83.2712 18.6212 83.5737 19.1925C83.8762 19.7637 83.6493 20.4726 83.0787 20.7755Z" fill="white"/>
</g>
<g style="mix-blend-mode:screen">
<path d="M67.1989 193.351C65.9547 193.998 64.4217 193.516 63.7755 192.277C63.1293 191.031 63.6105 189.497 64.8479 188.85C66.0922 188.203 67.6252 188.684 68.2714 189.923C68.9176 191.169 68.4363 192.704 67.1989 193.351Z" fill="white"/>
</g>
<g style="mix-blend-mode:screen">
<path d="M177.505 94.1568C175.931 94.9827 173.985 94.3702 173.16 92.794C172.335 91.2179 172.947 89.2702 174.521 88.4443C176.096 87.6183 178.041 88.2309 178.866 89.807C179.691 91.3831 179.079 93.3309 177.505 94.1568Z" fill="white"/>
</g>
<g style="mix-blend-mode:screen">
<path d="M138.579 150.732C137.149 151.482 135.376 150.925 134.626 149.493C133.877 148.055 134.434 146.286 135.864 145.536C137.294 144.785 139.067 145.343 139.817 146.775C140.566 148.213 140.009 149.982 138.579 150.732Z" fill="white"/>
</g>
<g style="mix-blend-mode:screen">
<path d="M61.2413 106.145C59.2339 107.198 56.7591 106.42 55.7073 104.41C54.6556 102.401 55.4324 99.923 57.4397 98.87C59.447 97.8169 61.9218 98.5947 62.9736 100.604C64.0254 102.614 63.2486 105.092 61.2413 106.145Z" fill="white"/>
</g>
<g style="mix-blend-mode:screen">
<path d="M275.682 88.3036C275.146 88.3036 274.438 88.0421 274.053 87.3194C273.743 86.7344 273.846 86.1907 273.929 85.9222C274.011 85.6538 274.245 85.1514 274.829 84.8486C275.098 84.7109 275.379 84.6352 275.675 84.6352C276.211 84.6352 276.919 84.8967 277.297 85.6194C277.607 86.2044 277.504 86.7481 277.421 87.0166C277.339 87.285 277.105 87.7874 276.521 88.0902C276.252 88.2279 275.971 88.2967 275.682 88.2967L275.682 88.3036Z" fill="white"/>
</g>
<g style="mix-blend-mode:screen">
<path d="M279.28 10.8174C278.613 11.1684 277.788 10.9068 277.437 10.2392C277.087 9.57161 277.348 8.7457 278.015 8.39469C278.681 8.04368 279.506 8.30522 279.857 8.97283C280.208 9.64044 279.946 10.4663 279.28 10.8174Z" fill="white"/>
</g>
<g style="mix-blend-mode:screen">
<path d="M214.797 200.564C212.934 201.542 210.631 200.819 209.662 198.954C208.686 197.089 209.407 194.783 211.27 193.812C213.133 192.842 215.436 193.558 216.406 195.423C217.382 197.288 216.66 199.594 214.797 200.564Z" fill="white"/>
</g>
</g>
<g opacity="0.5">
<g style="mix-blend-mode:screen">
<path d="M160.35 8.06432C160.32 8.06432 160.222 8.05399 160.17 7.95592C160.16 7.93527 160.129 7.88365 160.155 7.80106C160.18 7.72363 160.237 7.69266 160.253 7.68233C160.283 7.66685 160.314 7.65652 160.345 7.65652C160.376 7.65652 160.474 7.66685 160.526 7.76493C160.577 7.863 160.541 7.98689 160.443 8.03851C160.412 8.05399 160.387 8.06432 160.356 8.06432L160.35 8.06432Z" fill="#191919"/>
</g>
<g style="mix-blend-mode:screen">
<path d="M227.832 126.436C227.409 126.436 226.847 126.23 226.548 125.657C226.306 125.192 226.383 124.769 226.45 124.552C226.517 124.335 226.697 123.943 227.161 123.7C227.373 123.592 227.595 123.535 227.827 123.535C228.249 123.535 228.811 123.742 229.11 124.315C229.353 124.779 229.275 125.202 229.208 125.419C229.141 125.636 228.961 126.028 228.497 126.271C228.285 126.379 228.064 126.436 227.832 126.436Z" fill="#191919"/>
</g>
<g style="mix-blend-mode:screen">
<path d="M142.118 40.7021C141.758 40.7021 141.283 40.5266 141.031 40.0414C140.824 39.6491 140.891 39.2877 140.948 39.1071C141.005 38.9264 141.159 38.5909 141.551 38.3844C141.727 38.2915 141.917 38.245 142.113 38.245C142.474 38.245 142.949 38.4205 143.201 38.9058C143.407 39.2981 143.34 39.6594 143.284 39.8401C143.227 40.0207 143.072 40.3563 142.68 40.5627C142.5 40.6556 142.314 40.7021 142.118 40.7021Z" fill="#191919"/>
</g>
<g style="mix-blend-mode:screen">
<path d="M327.332 122.433C326.909 122.433 326.347 122.227 326.048 121.654C325.806 121.189 325.883 120.766 325.95 120.549C326.017 120.337 326.197 119.94 326.661 119.697C326.873 119.589 327.095 119.532 327.327 119.532C327.749 119.532 328.311 119.738 328.61 120.311C328.982 121.019 328.703 121.896 327.997 122.263C327.785 122.371 327.564 122.428 327.332 122.428L327.332 122.433Z" fill="#191919"/>
</g>
<g style="mix-blend-mode:screen">
<path d="M357.267 70.6059C356.262 71.1325 355.024 70.7402 354.503 69.7387C353.978 68.7322 354.369 67.4933 355.37 66.9719C356.375 66.4454 357.612 66.8377 358.133 67.8392C358.659 68.8457 358.267 70.0846 357.267 70.6059Z" fill="#191919"/>
</g>
<g style="mix-blend-mode:screen">
<path d="M203.113 61.6482C202.721 61.8547 202.231 61.6999 202.025 61.3076C201.819 60.9152 201.974 60.4249 202.365 60.2184C202.757 60.0119 203.247 60.1668 203.453 60.5591C203.659 60.9514 203.505 61.4418 203.113 61.6482Z" fill="#191919"/>
</g>
<g style="mix-blend-mode:screen">
<path d="M229.011 6.79937C228.114 7.26911 227.011 6.92326 226.541 6.02508C226.072 5.1269 226.418 4.02225 227.315 3.55251C228.212 3.08278 229.315 3.42863 229.784 4.3268C230.254 5.22498 229.908 6.32963 229.011 6.79937Z" fill="#191919"/>
</g>
<g style="mix-blend-mode:screen">
<path d="M82.9428 20.5153C82.5149 20.7424 81.9838 20.572 81.757 20.1436C81.5301 19.7152 81.7003 19.1835 82.1282 18.9564C82.5561 18.7292 83.0872 18.8996 83.314 19.328C83.5409 19.7565 83.3708 20.2881 82.9428 20.5153Z" fill="#191919"/>
</g>
<g style="mix-blend-mode:screen">
<path d="M66.9041 192.788C65.9709 193.273 64.8211 192.912 64.3365 191.983C63.8519 191.049 64.2128 189.897 65.1408 189.412C66.074 188.927 67.2238 189.288 67.7084 190.217C68.1931 191.152 67.8321 192.303 66.9041 192.788Z" fill="#191919"/>
</g>
<g style="mix-blend-mode:screen">
<path d="M177.128 93.4432C175.947 94.0627 174.488 93.6033 173.869 92.4212C173.251 91.2391 173.709 89.7783 174.89 89.1588C176.071 88.5394 177.53 88.9988 178.149 90.1809C178.767 91.363 178.308 92.8238 177.128 93.4432Z" fill="#191919"/>
</g>
<g style="mix-blend-mode:screen">
<path d="M138.242 150.083C137.17 150.646 135.839 150.228 135.277 149.154C134.715 148.075 135.133 146.749 136.205 146.186C137.278 145.624 138.608 146.042 139.17 147.115C139.732 148.194 139.314 149.521 138.242 150.083Z" fill="#191919"/>
</g>
<g style="mix-blend-mode:screen">
<path d="M60.7678 105.236C59.2624 106.025 57.4063 105.442 56.6174 103.935C55.8286 102.428 56.4112 100.569 57.9167 99.7795C59.4222 98.9897 61.2783 99.573 62.0671 101.08C62.856 102.588 62.2733 104.446 60.7678 105.236Z" fill="#191919"/>
</g>
<g style="mix-blend-mode:screen">
<path d="M275.679 87.8462C275.277 87.8462 274.746 87.6501 274.457 87.1081C274.225 86.6693 274.303 86.2615 274.365 86.0602C274.427 85.8589 274.602 85.4821 275.04 85.2549C275.241 85.1517 275.453 85.0949 275.674 85.0949C276.076 85.0949 276.607 85.2911 276.891 85.8331C277.123 86.2718 277.046 86.6796 276.984 86.8809C276.922 87.0823 276.747 87.4591 276.308 87.6862C276.107 87.7894 275.896 87.8411 275.679 87.8411L275.679 87.8462Z" fill="#191919"/>
</g>
<g style="mix-blend-mode:screen">
<path d="M279.124 10.5141C278.624 10.7774 278.005 10.5812 277.742 10.0805C277.479 9.57981 277.675 8.96038 278.175 8.69712C278.675 8.43387 279.294 8.63002 279.557 9.13073C279.82 9.63144 279.624 10.2509 279.124 10.5141Z" fill="#191919"/>
</g>
<g style="mix-blend-mode:screen">
<path d="M214.354 199.723C212.956 200.456 211.229 199.914 210.502 198.515C209.77 197.116 210.311 195.387 211.709 194.659C213.106 193.931 214.833 194.468 215.56 195.867C216.292 197.266 215.751 198.995 214.354 199.723Z" fill="#191919"/>
</g>
</g>
</g>
<g opacity="0.4">
<g filter="url(#filter4_f_4022_23209)">
</g>
</g>
</g>
<g clip-path="url(#clip2_4022_23209)">
<g opacity="0.2" filter="url(#filter5_f_4022_23209)">
<circle cx="288" cy="288" r="288" transform="matrix(1 0 0 -1 -105 1069.65)" fill="#F60109"/>
</g>
<mask id="mask2_4022_23209" style="mask-type:alpha" maskUnits="userSpaceOnUse" x="-138" y="262" width="1020" height="961">
<path fill-rule="evenodd" clip-rule="evenodd" d="M402.001 1222.65H-137.715V581.921H45.9306C-24.9228 535.926 -77.9987 488.251 -77.9987 391.402V262.652H882.001V391.402C882.001 505.931 807.779 551.694 717.707 607.23C646.724 650.996 565.899 700.831 503.799 795.172V1222.65H402.001ZM402.001 1222.65C402.001 1016.78 444.307 885.553 503.799 795.172V581.921H45.9306C58.8649 590.317 72.3915 598.657 86.2959 607.23C225.28 692.924 402.001 801.885 402.001 1222.65Z" fill="#D9D9D9"/>
</mask>
<g mask="url(#mask2_4022_23209)">
<rect width="275.65" height="601.562" transform="matrix(1 0 0 -1 45.2188 1083.16)" fill="url(#paint13_linear_4022_23209)" fill-opacity="0.1"/>
<rect x="1" y="-1" width="273.65" height="599.562" transform="matrix(1 0 0 -1 45.2188 1081.16)" stroke="url(#paint14_linear_4022_23209)" stroke-opacity="0.2" stroke-width="2"/>
<rect width="137.825" height="601.562" transform="matrix(1 0 0 -1 -120.172 1083.16)" fill="url(#paint15_linear_4022_23209)" fill-opacity="0.1"/>
<rect x="1" y="-1" width="135.825" height="599.562" transform="matrix(1 0 0 -1 -120.172 1081.16)" stroke="url(#paint16_linear_4022_23209)" stroke-opacity="0.2" stroke-width="2"/>
<rect width="137.825" height="601.562" transform="matrix(1 0 0 -1 348.434 1083.16)" fill="url(#paint17_linear_4022_23209)" fill-opacity="0.1"/>
<rect x="1" y="-1" width="135.825" height="599.562" transform="matrix(1 0 0 -1 348.434 1081.16)" stroke="url(#paint18_linear_4022_23209)" stroke-opacity="0.2" stroke-width="2"/>
</g>
<mask id="mask3_4022_23209" style="mask-type:alpha" maskUnits="userSpaceOnUse" x="-78" y="262" width="960" height="961">
<path fill-rule="evenodd" clip-rule="evenodd" d="M86.2946 607.23C225.279 692.924 402 801.885 402 1222.65C402 801.885 578.721 692.924 717.705 607.23C807.777 551.694 882 505.931 882 391.402V262.652H402H-78V391.402C-78 505.931 -3.77737 551.694 86.2946 607.23Z" fill="url(#paint19_linear_4022_23209)"/>
</mask>
<g mask="url(#mask3_4022_23209)">
<path d="M86.2946 607.23C225.279 692.924 402 801.885 402 1222.65C402 801.885 578.721 692.924 717.705 607.23C807.777 551.694 882 505.931 882 391.402V262.652H-78V391.402C-78 505.931 -3.77737 551.694 86.2946 607.23Z" fill="url(#paint20_radial_4022_23209)" fill-opacity="0.3" stroke="url(#paint21_linear_4022_23209)" stroke-opacity="0.8" stroke-width="4"/>
<path opacity="0.75" d="M205.878 607.23C292.217 692.924 401.998 801.885 401.998 1222.65C401.998 801.885 511.779 692.924 598.118 607.23C654.072 551.694 700.18 505.931 700.18 391.402V262.652H103.816V391.402C103.816 505.931 149.924 551.694 205.878 607.23Z" stroke="url(#paint22_linear_4022_23209)" stroke-opacity="0.8" stroke-width="2"/>
<path opacity="0.5" d="M312.073 607.23C351.662 692.924 402.001 801.885 402.001 1222.65C402.001 801.885 452.339 692.924 491.929 607.23C517.586 551.694 538.728 505.931 538.728 391.402V262.652H265.273V391.402C265.273 505.931 286.416 551.694 312.073 607.23Z" stroke="url(#paint23_linear_4022_23209)" stroke-opacity="0.8" stroke-width="2"/>
<g filter="url(#filter6_f_4022_23209)">
<path fill-rule="evenodd" clip-rule="evenodd" d="M401.998 1221.37C401.776 801.664 292.129 692.837 205.878 607.23C149.924 551.694 103.816 505.931 103.816 391.402V262.652H265.271V391.402C265.271 505.931 286.413 551.694 312.07 607.23C351.619 692.837 401.896 801.664 401.998 1221.37ZM401.998 1221.87C402.06 801.751 452.361 692.871 491.926 607.23C517.583 551.694 538.725 505.931 538.725 391.402V262.652H700.18V391.402C700.18 505.931 654.072 551.694 598.118 607.23C511.779 692.924 401.998 801.885 401.998 1222.65C401.998 1222.39 401.998 1222.13 401.998 1221.87Z" fill="url(#paint24_linear_4022_23209)"/>
</g>
<g filter="url(#filter7_f_4022_23209)">
<path d="M330.25 733.112C361.837 801.277 402.001 887.951 402.001 1222.65C402.001 887.951 442.165 801.277 473.752 733.112C494.223 688.936 511.092 652.533 511.092 561.431V459.016H292.91V561.431C292.91 652.533 309.779 688.936 330.25 733.112Z" fill="url(#paint25_radial_4022_23209)"/>
</g>
</g>
<g opacity="0.4">
<g filter="url(#filter8_f_4022_23209)">
<g style="mix-blend-mode:screen">
<path d="M160.353 765.52C160.311 765.52 160.181 765.534 160.112 765.664C160.098 765.692 160.057 765.761 160.091 765.871C160.126 765.974 160.201 766.015 160.222 766.029C160.263 766.05 160.305 766.064 160.346 766.064C160.387 766.064 160.518 766.05 160.586 765.919C160.655 765.788 160.607 765.623 160.476 765.554C160.435 765.534 160.401 765.52 160.36 765.52L160.353 765.52Z" fill="white"/>
</g>
<g style="mix-blend-mode:screen">
<path d="M227.834 646.734C227.271 646.734 226.521 647.009 226.122 647.773C225.799 648.392 225.903 648.957 225.992 649.246C226.081 649.535 226.322 650.058 226.941 650.381C227.222 650.526 227.518 650.602 227.827 650.602C228.391 650.602 229.14 650.326 229.539 649.562C229.862 648.943 229.759 648.378 229.67 648.089C229.58 647.8 229.34 647.277 228.721 646.954C228.439 646.809 228.144 646.734 227.834 646.734Z" fill="white"/>
</g>
<g style="mix-blend-mode:screen">
<path d="M142.118 732.542C141.636 732.542 141.004 732.776 140.667 733.423C140.392 733.946 140.481 734.428 140.557 734.669C140.633 734.91 140.839 735.357 141.361 735.633C141.595 735.756 141.849 735.818 142.111 735.818C142.592 735.818 143.224 735.584 143.561 734.937C143.836 734.414 143.747 733.933 143.671 733.692C143.596 733.451 143.389 733.003 142.867 732.728C142.626 732.604 142.379 732.542 142.118 732.542Z" fill="white"/>
</g>
<g style="mix-blend-mode:screen">
<path d="M327.334 650.736C326.771 650.736 326.021 651.011 325.622 651.775C325.299 652.395 325.403 652.959 325.492 653.248C325.581 653.53 325.822 654.06 326.441 654.384C326.722 654.528 327.018 654.604 327.327 654.604C327.891 654.604 328.64 654.329 329.039 653.565C329.534 652.622 329.163 651.452 328.221 650.963C327.939 650.819 327.644 650.743 327.334 650.743L327.334 650.736Z" fill="white"/>
</g>
<g style="mix-blend-mode:screen">
<path d="M357.586 702.442C356.246 701.74 354.596 702.263 353.902 703.599C353.2 704.941 353.723 706.593 355.057 707.288C356.397 707.99 358.047 707.467 358.741 706.131C359.442 704.789 358.92 703.137 357.586 702.442Z" fill="white"/>
</g>
<g style="mix-blend-mode:screen">
<path d="M203.237 711.766C202.714 711.49 202.061 711.697 201.786 712.22C201.511 712.743 201.717 713.397 202.24 713.672C202.762 713.947 203.415 713.741 203.69 713.218C203.965 712.695 203.759 712.041 203.237 711.766Z" fill="white"/>
</g>
<g style="mix-blend-mode:screen">
<path d="M229.295 766.311C228.099 765.685 226.627 766.146 226.002 767.343C225.376 768.541 225.837 770.014 227.033 770.64C228.229 771.266 229.7 770.805 230.326 769.608C230.951 768.41 230.491 766.937 229.295 766.311Z" fill="white"/>
</g>
<g style="mix-blend-mode:screen">
<path d="M83.0787 752.877C82.5081 752.574 81.8001 752.801 81.4976 753.372C81.1951 753.943 81.422 754.652 81.9926 754.955C82.5631 755.258 83.2712 755.031 83.5737 754.46C83.8762 753.888 83.6493 753.179 83.0787 752.877Z" fill="white"/>
</g>
<g style="mix-blend-mode:screen">
<path d="M67.1989 580.301C65.9547 579.654 64.4217 580.136 63.7755 581.375C63.1293 582.621 63.6105 584.155 64.8479 584.802C66.0922 585.449 67.6252 584.968 68.2714 583.729C68.9176 582.483 68.4363 580.948 67.1989 580.301Z" fill="white"/>
</g>
<g style="mix-blend-mode:screen">
<path d="M177.505 679.495C175.931 678.669 173.985 679.282 173.16 680.858C172.335 682.434 172.947 684.382 174.521 685.208C176.096 686.034 178.041 685.421 178.866 683.845C179.691 682.269 179.079 680.321 177.505 679.495Z" fill="white"/>
</g>
<g style="mix-blend-mode:screen">
<path d="M138.579 622.92C137.149 622.17 135.376 622.727 134.626 624.159C133.877 625.597 134.434 627.366 135.864 628.116C137.294 628.867 139.067 628.309 139.817 626.878C140.566 625.439 140.009 623.67 138.579 622.92Z" fill="white"/>
</g>
<g style="mix-blend-mode:screen">
<path d="M61.2413 667.507C59.2339 666.454 56.7591 667.232 55.7073 669.242C54.6556 671.251 55.4324 673.729 57.4397 674.782C59.447 675.835 61.9218 675.057 62.9736 673.048C64.0254 671.038 63.2486 668.56 61.2413 667.507Z" fill="white"/>
</g>
<g style="mix-blend-mode:screen">
<path d="M275.682 685.348C275.146 685.348 274.438 685.61 274.053 686.333C273.743 686.918 273.846 687.461 273.929 687.73C274.011 687.998 274.245 688.501 274.829 688.803C275.098 688.941 275.379 689.017 275.675 689.017C276.211 689.017 276.919 688.755 277.297 688.033C277.607 687.448 277.504 686.904 277.421 686.635C277.339 686.367 277.105 685.865 276.521 685.562C276.252 685.424 275.971 685.355 275.682 685.355L275.682 685.348Z" fill="white"/>
</g>
<g style="mix-blend-mode:screen">
<path d="M279.28 762.835C278.613 762.484 277.788 762.745 277.437 763.413C277.087 764.08 277.348 764.906 278.015 765.257C278.681 765.608 279.506 765.347 279.857 764.679C280.208 764.012 279.946 763.186 279.28 762.835Z" fill="white"/>
</g>
<g style="mix-blend-mode:screen">
<path d="M214.797 573.088C212.934 572.11 210.631 572.833 209.662 574.698C208.686 576.563 209.407 578.869 211.27 579.84C213.133 580.81 215.436 580.094 216.406 578.229C217.382 576.364 216.66 574.058 214.797 573.088Z" fill="white"/>
</g>
</g>
<g opacity="0.5">
<g style="mix-blend-mode:screen">
<path d="M160.35 765.588C160.32 765.588 160.222 765.598 160.17 765.696C160.16 765.717 160.129 765.768 160.155 765.851C160.18 765.928 160.237 765.959 160.253 765.97C160.283 765.985 160.314 765.995 160.345 765.995C160.376 765.995 160.474 765.985 160.526 765.887C160.577 765.789 160.541 765.665 160.443 765.613C160.412 765.598 160.387 765.588 160.356 765.588L160.35 765.588Z" fill="#191919"/>
</g>
<g style="mix-blend-mode:screen">
<path d="M227.832 647.216C227.409 647.216 226.847 647.422 226.548 647.995C226.306 648.46 226.383 648.883 226.45 649.1C226.517 649.317 226.697 649.709 227.161 649.952C227.373 650.06 227.595 650.117 227.827 650.117C228.249 650.117 228.811 649.91 229.11 649.337C229.353 648.873 229.275 648.45 229.208 648.233C229.141 648.016 228.961 647.624 228.497 647.381C228.285 647.273 228.064 647.216 227.832 647.216Z" fill="#191919"/>
</g>
<g style="mix-blend-mode:screen">
<path d="M142.118 732.95C141.758 732.95 141.283 733.125 141.031 733.611C140.824 734.003 140.891 734.364 140.948 734.545C141.005 734.726 141.159 735.061 141.551 735.268C141.727 735.361 141.917 735.407 142.113 735.407C142.474 735.407 142.949 735.231 143.201 734.746C143.407 734.354 143.34 733.993 143.284 733.812C143.227 733.631 143.072 733.296 142.68 733.089C142.5 732.996 142.314 732.95 142.118 732.95Z" fill="#191919"/>
</g>
<g style="mix-blend-mode:screen">
<path d="M327.332 651.219C326.909 651.219 326.347 651.425 326.048 651.998C325.806 652.463 325.883 652.886 325.95 653.103C326.017 653.315 326.197 653.712 326.661 653.955C326.873 654.063 327.095 654.12 327.327 654.12C327.749 654.12 328.311 653.914 328.61 653.341C328.982 652.633 328.703 651.756 327.997 651.389C327.785 651.281 327.564 651.224 327.332 651.224L327.332 651.219Z" fill="#191919"/>
</g>
<g style="mix-blend-mode:screen">
<path d="M357.267 703.046C356.262 702.52 355.024 702.912 354.503 703.913C353.978 704.92 354.369 706.159 355.37 706.68C356.375 707.207 357.612 706.814 358.133 705.813C358.659 704.806 358.267 703.567 357.267 703.046Z" fill="#191919"/>
</g>
<g style="mix-blend-mode:screen">
<path d="M203.113 712.004C202.721 711.797 202.231 711.952 202.025 712.344C201.819 712.737 201.974 713.227 202.365 713.434C202.757 713.64 203.247 713.485 203.453 713.093C203.659 712.701 203.505 712.21 203.113 712.004Z" fill="#191919"/>
</g>
<g style="mix-blend-mode:screen">
<path d="M229.011 766.853C228.114 766.383 227.011 766.729 226.541 767.627C226.072 768.525 226.418 769.63 227.315 770.1C228.212 770.569 229.315 770.223 229.784 769.325C230.254 768.427 229.908 767.322 229.011 766.853Z" fill="#191919"/>
</g>
<g style="mix-blend-mode:screen">
<path d="M82.9428 753.137C82.5149 752.91 81.9838 753.08 81.757 753.508C81.5301 753.937 81.7003 754.469 82.1282 754.696C82.5561 754.923 83.0872 754.752 83.314 754.324C83.5409 753.896 83.3708 753.364 82.9428 753.137Z" fill="#191919"/>
</g>
<g style="mix-blend-mode:screen">
<path d="M66.9041 580.864C65.9709 580.379 64.8211 580.74 64.3365 581.669C63.8519 582.603 64.2128 583.755 65.1408 584.24C66.074 584.725 67.2238 584.364 67.7084 583.435C68.1931 582.5 67.8321 581.349 66.9041 580.864Z" fill="#191919"/>
</g>
<g style="mix-blend-mode:screen">
<path d="M177.128 680.209C175.947 679.589 174.488 680.049 173.869 681.231C173.251 682.413 173.709 683.874 174.89 684.493C176.071 685.113 177.53 684.653 178.149 683.471C178.767 682.289 178.308 680.828 177.128 680.209Z" fill="#191919"/>
</g>
<g style="mix-blend-mode:screen">
<path d="M138.242 623.569C137.17 623.006 135.839 623.424 135.277 624.498C134.715 625.577 135.133 626.903 136.205 627.466C137.278 628.028 138.608 627.61 139.17 626.537C139.732 625.458 139.314 624.131 138.242 623.569Z" fill="#191919"/>
</g>
<g style="mix-blend-mode:screen">
<path d="M60.7678 668.416C59.2624 667.627 57.4063 668.21 56.6174 669.717C55.8286 671.224 56.4112 673.083 57.9167 673.873C59.4222 674.662 61.2783 674.079 62.0671 672.572C62.856 671.064 62.2733 669.206 60.7678 668.416Z" fill="#191919"/>
</g>
<g style="mix-blend-mode:screen">
<path d="M275.679 685.806C275.277 685.806 274.746 686.002 274.457 686.544C274.225 686.983 274.303 687.391 274.365 687.592C274.427 687.793 274.602 688.17 275.04 688.397C275.241 688.5 275.453 688.557 275.674 688.557C276.076 688.557 276.607 688.361 276.891 687.819C277.123 687.38 277.046 686.972 276.984 686.771C276.922 686.57 276.747 686.193 276.308 685.966C276.107 685.863 275.896 685.811 275.679 685.811L275.679 685.806Z" fill="#191919"/>
</g>
<g style="mix-blend-mode:screen">
<path d="M279.124 763.138C278.624 762.875 278.005 763.071 277.742 763.571C277.479 764.072 277.675 764.692 278.175 764.955C278.675 765.218 279.294 765.022 279.557 764.521C279.82 764.021 279.624 763.401 279.124 763.138Z" fill="#191919"/>
</g>
<g style="mix-blend-mode:screen">
<path d="M214.354 573.929C212.956 573.196 211.229 573.738 210.502 575.137C209.77 576.536 210.311 578.265 211.709 578.993C213.106 579.721 214.833 579.184 215.56 577.785C216.292 576.386 215.751 574.657 214.354 573.929Z" fill="#191919"/>
</g>
</g>
</g>
<g opacity="0.4">
<g filter="url(#filter9_f_4022_23209)">
</g>
</g>
</g>
<g clip-path="url(#clip3_4022_23209)">
<mask id="mask4_4022_23209" style="mask-type:alpha" maskUnits="userSpaceOnUse" x="-242" y="550" width="883" height="228">
<mask id="path-89-inside-1_4022_23209" fill="white">
<path d="M-241.621 550.287H640.379V777.287H-241.621V550.287Z"/>
</mask>
<path d="M-241.621 550.287H640.379V777.287H-241.621V550.287Z" fill="url(#paint26_linear_4022_23209)"/>
<path d="M638.379 550.287V777.287H642.379V550.287H638.379ZM-239.621 777.287V550.287H-243.621V777.287H-239.621Z" fill="url(#paint27_linear_4022_23209)" mask="url(#path-89-inside-1_4022_23209)"/>
</mask>
<g mask="url(#mask4_4022_23209)">
<mask id="path-91-inside-2_4022_23209" fill="white">
<path d="M-241.621 550.287H640.379V777.287H-241.621V550.287Z"/>
</mask>
<path d="M-241.621 550.287H640.379V777.287H-241.621V550.287Z" fill="#0D0D0D"/>
<path d="M638.379 550.287V777.287H642.379V550.287H638.379ZM-239.621 777.287V550.287H-243.621V777.287H-239.621Z" fill="#191919" mask="url(#path-91-inside-2_4022_23209)"/>
</g>
</g>
</g>
<defs>
<filter id="filter0_f_4022_23209" x="-505" y="-696" width="1376" height="1376" filterUnits="userSpaceOnUse" color-interpolation-filters="sRGB">
<feFlood flood-opacity="0" result="BackgroundImageFix"/>
<feBlend mode="normal" in="SourceGraphic" in2="BackgroundImageFix" result="shape"/>
<feGaussianBlur stdDeviation="200" result="effect1_foregroundBlur_4022_23209"/>
</filter>
<filter id="filter1_f_4022_23209" x="3.81641" y="-549" width="796.363" height="1160" filterUnits="userSpaceOnUse" color-interpolation-filters="sRGB">
<feFlood flood-opacity="0" result="BackgroundImageFix"/>
<feBlend mode="normal" in="SourceGraphic" in2="BackgroundImageFix" result="shape"/>
<feGaussianBlur stdDeviation="50" result="effect1_foregroundBlur_4022_23209"/>
</filter>
<filter id="filter2_f_4022_23209" x="252.91" y="-489" width="298.184" height="843.636" filterUnits="userSpaceOnUse" color-interpolation-filters="sRGB">
<feFlood flood-opacity="0" result="BackgroundImageFix"/>
<feBlend mode="normal" in="SourceGraphic" in2="BackgroundImageFix" result="shape"/>
<feGaussianBlur stdDeviation="20" result="effect1_foregroundBlur_4022_23209"/>
</filter>
<filter id="filter3_f_4022_23209" x="-134" y="-155" width="582" height="416" filterUnits="userSpaceOnUse" color-interpolation-filters="sRGB">
<feFlood flood-opacity="0" result="BackgroundImageFix"/>
<feBlend mode="normal" in="SourceGraphic" in2="BackgroundImageFix" result="shape"/>
<feGaussianBlur stdDeviation="30" result="effect1_foregroundBlur_4022_23209"/>
</filter>
<filter id="filter4_f_4022_23209" x="315" y="-153" width="582" height="416" filterUnits="userSpaceOnUse" color-interpolation-filters="sRGB">
<feFlood flood-opacity="0" result="BackgroundImageFix"/>
<feBlend mode="normal" in="SourceGraphic" in2="BackgroundImageFix" result="shape"/>
<feGaussianBlur stdDeviation="30" result="effect1_foregroundBlur_4022_23209"/>
</filter>
<filter id="filter5_f_4022_23209" x="-505" y="93.6521" width="1376" height="1376" filterUnits="userSpaceOnUse" color-interpolation-filters="sRGB">
<feFlood flood-opacity="0" result="BackgroundImageFix"/>
<feBlend mode="normal" in="SourceGraphic" in2="BackgroundImageFix" result="shape"/>
<feGaussianBlur stdDeviation="200" result="effect1_foregroundBlur_4022_23209"/>
</filter>
<filter id="filter6_f_4022_23209" x="3.81641" y="162.652" width="796.363" height="1160" filterUnits="userSpaceOnUse" color-interpolation-filters="sRGB">
<feFlood flood-opacity="0" result="BackgroundImageFix"/>
<feBlend mode="normal" in="SourceGraphic" in2="BackgroundImageFix" result="shape"/>
<feGaussianBlur stdDeviation="50" result="effect1_foregroundBlur_4022_23209"/>
</filter>
<filter id="filter7_f_4022_23209" x="252.91" y="419.016" width="298.184" height="843.636" filterUnits="userSpaceOnUse" color-interpolation-filters="sRGB">
<feFlood flood-opacity="0" result="BackgroundImageFix"/>
<feBlend mode="normal" in="SourceGraphic" in2="BackgroundImageFix" result="shape"/>
<feGaussianBlur stdDeviation="20" result="effect1_foregroundBlur_4022_23209"/>
</filter>
<filter id="filter8_f_4022_23209" x="-134" y="512.652" width="582" height="416" filterUnits="userSpaceOnUse" color-interpolation-filters="sRGB">
<feFlood flood-opacity="0" result="BackgroundImageFix"/>
<feBlend mode="normal" in="SourceGraphic" in2="BackgroundImageFix" result="shape"/>
<feGaussianBlur stdDeviation="30" result="effect1_foregroundBlur_4022_23209"/>
</filter>
<filter id="filter9_f_4022_23209" x="315" y="510.652" width="582" height="416" filterUnits="userSpaceOnUse" color-interpolation-filters="sRGB">
<feFlood flood-opacity="0" result="BackgroundImageFix"/>
<feBlend mode="normal" in="SourceGraphic" in2="BackgroundImageFix" result="shape"/>
<feGaussianBlur stdDeviation="30" result="effect1_foregroundBlur_4022_23209"/>
</filter>
<linearGradient id="paint0_linear_4022_23209" x1="183.044" y1="-309.507" x2="183.044" y2="292.054" gradientUnits="userSpaceOnUse">
<stop stop-color="#F60109" stop-opacity="0"/>
<stop offset="0.5" stop-color="#F60109"/>
<stop offset="1" stop-color="#F60109" stop-opacity="0"/>
</linearGradient>
<linearGradient id="paint1_linear_4022_23209" x1="183.044" y1="-309.507" x2="183.044" y2="292.054" gradientUnits="userSpaceOnUse">
<stop stop-color="#F60109" stop-opacity="0"/>
<stop offset="0.5" stop-color="#F60109"/>
<stop offset="1" stop-color="#F60109" stop-opacity="0"/>
</linearGradient>
<linearGradient id="paint2_linear_4022_23209" x1="-51.2592" y1="-309.507" x2="-51.2592" y2="292.054" gradientUnits="userSpaceOnUse">
<stop stop-color="#F60109" stop-opacity="0"/>
<stop offset="0.5" stop-color="#F60109"/>
<stop offset="1" stop-color="#F60109" stop-opacity="0"/>
</linearGradient>
<linearGradient id="paint3_linear_4022_23209" x1="-51.2592" y1="-309.507" x2="-51.2592" y2="292.054" gradientUnits="userSpaceOnUse">
<stop stop-color="#F60109" stop-opacity="0"/>
<stop offset="0.5" stop-color="#F60109"/>
<stop offset="1" stop-color="#F60109" stop-opacity="0"/>
</linearGradient>
<linearGradient id="paint4_linear_4022_23209" x1="417.346" y1="-309.507" x2="417.346" y2="292.054" gradientUnits="userSpaceOnUse">
<stop stop-color="#F60109" stop-opacity="0"/>
<stop offset="0.5" stop-color="#F60109"/>
<stop offset="1" stop-color="#F60109" stop-opacity="0"/>
</linearGradient>
<linearGradient id="paint5_linear_4022_23209" x1="417.346" y1="-309.507" x2="417.346" y2="292.054" gradientUnits="userSpaceOnUse">
<stop stop-color="#F60109" stop-opacity="0"/>
<stop offset="0.5" stop-color="#F60109"/>
<stop offset="1" stop-color="#F60109" stop-opacity="0"/>
</linearGradient>
<linearGradient id="paint6_linear_4022_23209" x1="-18" y1="-449" x2="-18" y2="511" gradientUnits="userSpaceOnUse">
<stop stop-color="white" stop-opacity="0"/>
<stop offset="0.5" stop-color="white"/>
<stop offset="1" stop-color="white"/>
</linearGradient>
<radialGradient id="paint7_radial_4022_23209" cx="0" cy="0" r="1" gradientUnits="userSpaceOnUse" gradientTransform="translate(402 -449) rotate(90) scale(960 809.655)">
<stop stop-color="#F60109"/>
<stop offset="1" stop-color="#F60109" stop-opacity="0"/>
</radialGradient>
<linearGradient id="paint8_linear_4022_23209" x1="402" y1="-449" x2="402" y2="511" gradientUnits="userSpaceOnUse">
<stop stop-color="#F60109"/>
<stop offset="0.868225" stop-color="#F60109" stop-opacity="0"/>
</linearGradient>
<linearGradient id="paint9_linear_4022_23209" x1="401.998" y1="-449" x2="401.998" y2="511" gradientUnits="userSpaceOnUse">
<stop stop-color="#F60109"/>
<stop offset="0.868225" stop-color="#F60109" stop-opacity="0"/>
</linearGradient>
<linearGradient id="paint10_linear_4022_23209" x1="402.001" y1="-449" x2="402.001" y2="511" gradientUnits="userSpaceOnUse">
<stop stop-color="#F60109"/>
<stop offset="0.868225" stop-color="#F60109" stop-opacity="0"/>
</linearGradient>
<linearGradient id="paint11_linear_4022_23209" x1="401.998" y1="-449" x2="401.998" y2="511" gradientUnits="userSpaceOnUse">
<stop stop-color="#F60109"/>
<stop offset="0.863225" stop-color="#F60109" stop-opacity="0"/>
</linearGradient>
<radialGradient id="paint12_radial_4022_23209" cx="0" cy="0" r="1" gradientUnits="userSpaceOnUse" gradientTransform="translate(402.001 -449) rotate(90) scale(763.636 80.2979)">
<stop stop-color="#FF333A"/>
<stop offset="1" stop-color="#F60109" stop-opacity="0"/>
</radialGradient>
<linearGradient id="paint13_linear_4022_23209" x1="137.825" y1="0" x2="137.825" y2="601.562" gradientUnits="userSpaceOnUse">
<stop stop-color="#F60109" stop-opacity="0"/>
<stop offset="0.5" stop-color="#F60109"/>
<stop offset="1" stop-color="#F60109" stop-opacity="0"/>
</linearGradient>
<linearGradient id="paint14_linear_4022_23209" x1="137.825" y1="0" x2="137.825" y2="601.562" gradientUnits="userSpaceOnUse">
<stop stop-color="#F60109" stop-opacity="0"/>
<stop offset="0.5" stop-color="#F60109"/>
<stop offset="1" stop-color="#F60109" stop-opacity="0"/>
</linearGradient>
<linearGradient id="paint15_linear_4022_23209" x1="68.9126" y1="0" x2="68.9126" y2="601.562" gradientUnits="userSpaceOnUse">
<stop stop-color="#F60109" stop-opacity="0"/>
<stop offset="0.5" stop-color="#F60109"/>
<stop offset="1" stop-color="#F60109" stop-opacity="0"/>
</linearGradient>
<linearGradient id="paint16_linear_4022_23209" x1="68.9126" y1="0" x2="68.9126" y2="601.562" gradientUnits="userSpaceOnUse">
<stop stop-color="#F60109" stop-opacity="0"/>
<stop offset="0.5" stop-color="#F60109"/>
<stop offset="1" stop-color="#F60109" stop-opacity="0"/>
</linearGradient>
<linearGradient id="paint17_linear_4022_23209" x1="68.9126" y1="0" x2="68.9126" y2="601.562" gradientUnits="userSpaceOnUse">
<stop stop-color="#F60109" stop-opacity="0"/>
<stop offset="0.5" stop-color="#F60109"/>
<stop offset="1" stop-color="#F60109" stop-opacity="0"/>
</linearGradient>
<linearGradient id="paint18_linear_4022_23209" x1="68.9126" y1="0" x2="68.9126" y2="601.562" gradientUnits="userSpaceOnUse">
<stop stop-color="#F60109" stop-opacity="0"/>
<stop offset="0.5" stop-color="#F60109"/>
<stop offset="1" stop-color="#F60109" stop-opacity="0"/>
</linearGradient>
<linearGradient id="paint19_linear_4022_23209" x1="-18" y1="1222.65" x2="-18" y2="262.652" gradientUnits="userSpaceOnUse">
<stop stop-color="white" stop-opacity="0"/>
<stop offset="0.5" stop-color="white"/>
<stop offset="1" stop-color="white"/>
</linearGradient>
<radialGradient id="paint20_radial_4022_23209" cx="0" cy="0" r="1" gradientUnits="userSpaceOnUse" gradientTransform="translate(402 1222.65) rotate(-90) scale(960 809.655)">
<stop stop-color="#F60109"/>
<stop offset="1" stop-color="#F60109" stop-opacity="0"/>
</radialGradient>
<linearGradient id="paint21_linear_4022_23209" x1="402" y1="1222.65" x2="402" y2="262.652" gradientUnits="userSpaceOnUse">
<stop stop-color="#F60109"/>
<stop offset="0.868225" stop-color="#F60109" stop-opacity="0"/>
</linearGradient>
<linearGradient id="paint22_linear_4022_23209" x1="401.998" y1="1222.65" x2="401.998" y2="262.652" gradientUnits="userSpaceOnUse">
<stop stop-color="#F60109"/>
<stop offset="0.868225" stop-color="#F60109" stop-opacity="0"/>
</linearGradient>
<linearGradient id="paint23_linear_4022_23209" x1="402.001" y1="1222.65" x2="402.001" y2="262.652" gradientUnits="userSpaceOnUse">
<stop stop-color="#F60109"/>
<stop offset="0.868225" stop-color="#F60109" stop-opacity="0"/>
</linearGradient>
<linearGradient id="paint24_linear_4022_23209" x1="401.998" y1="1222.65" x2="401.998" y2="262.652" gradientUnits="userSpaceOnUse">
<stop stop-color="#F60109"/>
<stop offset="0.863225" stop-color="#F60109" stop-opacity="0"/>
</linearGradient>
<radialGradient id="paint25_radial_4022_23209" cx="0" cy="0" r="1" gradientUnits="userSpaceOnUse" gradientTransform="translate(402.001 1222.65) rotate(-90) scale(763.636 80.2979)">
<stop stop-color="#FF333A"/>
<stop offset="1" stop-color="#F60109" stop-opacity="0"/>
</radialGradient>
<linearGradient id="paint26_linear_4022_23209" x1="199.379" y1="550.287" x2="199.379" y2="777.287" gradientUnits="userSpaceOnUse">
<stop stop-color="#131313" stop-opacity="0"/>
<stop offset="1" stop-color="#131313"/>
</linearGradient>
<linearGradient id="paint27_linear_4022_23209" x1="199.379" y1="550.287" x2="199.379" y2="777.287" gradientUnits="userSpaceOnUse">
<stop stop-color="#2D2D2D" stop-opacity="0"/>
<stop offset="1" stop-color="#2D2D2D"/>
</linearGradient>
<clipPath id="clip0_4022_23209">
<rect width="360" height="773" fill="white"/>
</clipPath>
<clipPath id="clip1_4022_23209">
<rect width="882.082" height="881.006" fill="white" transform="translate(-258 -449)"/>
</clipPath>
<clipPath id="clip2_4022_23209">
<rect width="882.082" height="881.006" fill="white" transform="matrix(1 0 0 -1 -258 1222.65)"/>
</clipPath>
<clipPath id="clip3_4022_23209">
<rect width="882.082" height="226.975" fill="white" transform="translate(-241.621 550.287)"/>
</clipPath>
</defs>
</svg>
