<svg width="16" height="16" viewBox="0 0 16 16" fill="none" xmlns="http://www.w3.org/2000/svg">
<path d="M7.45867 1.57398L2.792 3.64798C2.31 3.86198 2 4.33932 2 4.86665V12.6667C2 13.4033 2.59667 14 3.33333 14H12.6667C13.4033 14 14 13.4033 14 12.6667V4.86665C14 4.33998 13.69 3.86198 13.208 3.64798L8.54133 1.57398C8.19667 1.42065 7.80333 1.42065 7.45867 1.57398ZM6 12H4.66667V10.6667H6V12ZM6 9.33332H4.66667V7.99998H6V9.33332ZM6 6.66665H4.66667V5.33332H6V6.66665ZM8.66667 12H7.33333V10.6667H8.66667V12ZM8.66667 9.33332H7.33333V7.99998H8.66667V9.33332ZM8.66667 6.66665H7.33333V5.33332H8.66667V6.66665ZM11.3333 12H10V10.6667H11.3333V12ZM11.3333 9.33332H10V7.99998H11.3333V9.33332ZM11.3333 6.66665H10V5.33332H11.3333V6.66665Z" fill="white"/>
</svg>
