<svg width="16" height="16" viewBox="0 0 16 16" fill="none" xmlns="http://www.w3.org/2000/svg">
<g clip-path="url(#clip0_6253_30878)">
<g clip-path="url(#clip1_6253_30878)">
<rect width="16" height="16" fill="#007A3D"/>
</g>
<path d="M3.80795 8.33041C3.68364 8.66485 3.55239 8.98677 3.44476 9.3175C3.36008 9.57841 3.32889 9.85186 3.40404 10.1258C3.48612 10.4245 3.67389 10.6318 3.9197 10.7824C4.22637 10.97 4.564 11.0516 4.91095 11.0832C5.57214 11.1435 6.21168 11.0577 6.81873 10.7464C7.24819 10.5263 7.51154 10.1884 7.57435 9.67119C7.64603 9.08093 7.62069 8.50737 7.37748 7.96164C7.32962 7.85403 7.26682 7.75407 7.21505 7.64808C7.20011 7.61769 7.1843 7.57177 7.19513 7.54579C7.30212 7.28998 7.41452 7.03671 7.53948 6.75121C7.65166 6.97664 7.74825 7.17842 7.85264 7.37556C7.8782 7.4238 7.92238 7.47343 7.96894 7.49454C8.26283 7.62674 8.57361 7.62697 8.88417 7.60563C8.92207 7.60308 8.9669 7.55067 8.99094 7.50938C9.30107 6.97595 9.65452 6.47869 10.0693 6.03362C10.4097 5.66834 10.7777 5.339 11.2097 5.10336C11.422 4.98763 11.6405 4.877 11.8882 4.8988C12.3197 4.93637 12.6603 5.15206 12.9183 5.52176C13.0376 5.69269 12.9984 5.88612 12.9726 6.07003C12.8587 6.87738 12.4334 7.44096 11.7644 7.80811C11.281 8.07343 10.7621 8.22279 10.2302 8.31069C9.81413 8.37958 9.39268 8.41158 8.97297 8.4524C8.89565 8.46006 8.86035 8.48487 8.83804 8.56466C8.76701 8.81954 8.68839 9.07188 8.61259 9.32538C8.60198 9.3611 8.59072 9.39658 8.57924 9.43369C8.47853 9.37594 8.43392 9.26322 8.45861 9.13729C8.49499 8.95244 8.53376 8.76806 8.57079 8.58321C8.57816 8.54657 8.58206 8.50922 8.58704 8.47536C8.38931 8.4466 8.20132 8.41947 8.01052 8.39187C7.99385 8.58623 7.98237 8.78244 7.9592 8.97702C7.8756 9.6749 7.68112 10.3347 7.32746 10.9308C7.09507 11.3227 6.74964 11.5732 6.34704 11.733C5.71573 11.9835 5.06103 12.0607 4.39941 11.952C3.66414 11.8309 3.14264 11.2717 3.02483 10.5305C2.9579 10.1098 3.03046 9.70435 3.19224 9.3219C3.32889 8.99906 3.49024 8.68827 3.64552 8.37471C3.70075 8.26315 3.70724 8.26686 3.80795 8.33064V8.33041ZM9.3275 7.56319C9.33443 7.57455 9.34136 7.58615 9.34829 7.59775C9.47022 7.58754 9.59193 7.57641 9.71386 7.56736C10.4779 7.51101 11.206 7.30134 11.8958 6.95113C12.1013 6.84676 12.2824 6.6858 12.4717 6.54618C12.531 6.50235 12.5395 6.44483 12.4808 6.38314C12.4037 6.3022 12.3368 6.20919 12.256 6.13335C11.9272 5.82512 11.5699 5.71936 11.1508 5.93343C10.6055 6.21221 10.1362 6.59558 9.7275 7.06733C9.5889 7.22736 9.46069 7.39782 9.32771 7.56365L9.3275 7.56319ZM9.40308 3.71318C9.61077 3.89942 9.8085 4.07661 10.014 4.26099C10.1704 4.01329 10.3185 3.77858 10.471 3.53715C10.2648 3.3574 10.0671 3.18508 9.85485 3C9.69957 3.24515 9.55295 3.47638 9.40286 3.71318H9.40308Z" fill="white"/>
</g>
<rect x="0.5" y="0.5" width="15" height="15" rx="7.5" stroke="white"/>
<defs>
<clipPath id="clip0_6253_30878">
<rect width="16" height="16" rx="8" fill="white"/>
</clipPath>
<clipPath id="clip1_6253_30878">
<rect width="16" height="16" rx="8" fill="white"/>
</clipPath>
</defs>
</svg>
