<svg width="16" height="16" viewBox="0 0 16 16" fill="none" xmlns="http://www.w3.org/2000/svg">
<g clip-path="url(#clip0_6253_38851)">
<g clip-path="url(#clip1_6253_38851)">
<rect width="16" height="16" fill="#DD0000"/>
<path d="M6.52937 5.05614L7.51573 7.0999L9.72686 7.42688L8.12811 9.01474L8.50486 11.2636L6.52937 10.2027L4.55341 11.2636L4.93062 9.01474L3.33325 7.42688L5.5407 7.0999L6.52937 5.05614ZM10.0045 3.33325L10.2779 3.90018L10.8931 3.99098L10.449 4.43276L10.5528 5.05614L10.0045 4.76162L9.45664 5.05614L9.56039 4.43276L9.11678 3.99098L9.73055 3.90018L10.0045 3.33325ZM11.7803 5.3723L12.0542 5.93876L12.6666 6.03003L12.2244 6.47275L12.3286 7.09519L11.7803 6.80114L11.2325 7.09519L11.3362 6.47275L10.8931 6.03003L11.5059 5.93876L11.7803 5.3723ZM11.7803 8.64494L12.0542 9.21281L12.6666 9.30361L12.2244 9.74539L12.3286 10.3688L11.7803 10.0752L11.2325 10.3688L11.3362 9.74539L10.8931 9.30361L11.5059 9.21281L11.7803 8.64494ZM10.0045 10.9437L10.2779 11.5106L10.8931 11.601L10.449 12.0423L10.5528 12.6666L10.0045 12.3739L9.45664 12.6666L9.56039 12.0423L9.11678 11.601L9.73055 11.5106L10.0045 10.9437Z" fill="#F9CB38"/>
</g>
</g>
<rect x="0.5" y="0.5" width="15" height="15" rx="7.5" stroke="white"/>
<defs>
<clipPath id="clip0_6253_38851">
<rect width="16" height="16" rx="8" fill="white"/>
</clipPath>
<clipPath id="clip1_6253_38851">
<rect width="16" height="16" rx="8" fill="white"/>
</clipPath>
</defs>
</svg>
