<svg width="16" height="16" viewBox="0 0 16 16" fill="none" xmlns="http://www.w3.org/2000/svg">
<g clip-path="url(#clip0_4212_1506)">
<g clip-path="url(#clip1_4212_1506)">
<rect x="-0.666748" width="17.3333" height="16" fill="#002495"/>
<path d="M5.71922 0H10.2806V4.68614L14.54 1.33333H16.6666V3.41435L14.0995 5.4359H16.6666V10.5641H14.0986L16.6666 12.5857V14.6667H14.5391L10.2806 11.3139V16H5.71922V11.3139L1.45983 14.6667H-0.666748V12.5857L1.90038 10.5641H-0.666748V5.4359H1.90127L-0.666748 3.41435V1.33333H1.46072L5.71922 4.68614V0Z" fill="white"/>
<path d="M9.36834 0H6.6315V6.46154H-0.666748V9.53846H6.6315V16H9.36834V9.53846H16.6666V6.46154H9.36834V0Z" fill="#DD0000"/>
<path d="M15.3338 1.33331H16.6666V1.53639L11.7139 5.43588H10.2806V5.3118L15.3338 1.33331Z" fill="#DD0000"/>
<path d="M16.6666 13.2123V14.4636L11.713 10.5641H13.303L16.6666 13.2123Z" fill="#DD0000"/>
<path d="M0.666037 1.33331H-0.666748V1.53639L4.28598 5.43588H5.71922V5.3118L0.666037 1.33331Z" fill="#DD0000"/>
<path d="M-0.666748 13.2123V14.4636L4.28687 10.5641H2.69684L-0.666748 13.2123Z" fill="#DD0000"/>
</g>
</g>
<rect x="0.5" y="0.5" width="15" height="15" rx="7.5" stroke="white"/>
<defs>
<clipPath id="clip0_4212_1506">
<rect width="16" height="16" rx="8" fill="white"/>
</clipPath>
<clipPath id="clip1_4212_1506">
<rect width="16" height="16" rx="8" fill="white"/>
</clipPath>
</defs>
</svg>
