<svg width="16" height="16" viewBox="0 0 16 16" fill="none" xmlns="http://www.w3.org/2000/svg">
<g clip-path="url(#clip0_6253_34926)">
<g clip-path="url(#clip1_6253_34926)">
<rect x="16" width="16" height="8" transform="rotate(90 16 0)" fill="#DD0000"/>
<rect x="8" width="16" height="8" transform="rotate(90 8 0)" fill="#009246"/>
<path fill-rule="evenodd" clip-rule="evenodd" d="M8.00016 12.0002C10.2093 12.0002 12.0002 10.2093 12.0002 8.00016C12.0002 5.79102 10.2093 4.00016 8.00016 4.00016C5.79102 4.00016 4.00016 5.79102 4.00016 8.00016C4.00016 10.2093 5.79102 12.0002 8.00016 12.0002ZM8.00016 12.6668C10.5775 12.6668 12.6668 10.5775 12.6668 8.00016C12.6668 5.42283 10.5775 3.3335 8.00016 3.3335C5.42283 3.3335 3.3335 5.42283 3.3335 8.00016C3.3335 10.5775 5.42283 12.6668 8.00016 12.6668Z" fill="#FDFD02"/>
<path fill-rule="evenodd" clip-rule="evenodd" d="M12.0305 7.8805C12.0307 7.88052 12.0294 7.88262 12.0259 7.88673C12.0285 7.88253 12.0302 7.88048 12.0305 7.8805ZM11.8744 8.00033C11.7153 7.90452 11.4652 7.79805 11.1168 7.69853C10.3471 7.47861 9.24498 7.33366 8.00016 7.33366C6.75535 7.33366 5.65322 7.47861 4.88348 7.69853C4.53517 7.79805 4.28506 7.90451 4.12594 8.00033C4.28506 8.09614 4.53517 8.2026 4.88348 8.30212C5.65322 8.52204 6.75535 8.66699 8.00016 8.66699C9.24498 8.66699 10.3471 8.52204 11.1168 8.30212C11.4652 8.2026 11.7153 8.09614 11.8744 8.00033ZM3.96986 7.8805C3.9701 7.88048 3.97188 7.88253 3.97446 7.88673C3.97091 7.88262 3.96962 7.88052 3.96986 7.8805ZM3.96986 8.12015C3.96962 8.12013 3.97091 8.11803 3.97446 8.11392C3.97188 8.11812 3.9701 8.12018 3.96986 8.12015ZM12.0259 8.11392C12.0294 8.11803 12.0307 8.12013 12.0305 8.12015C12.0302 8.12018 12.0285 8.11812 12.0259 8.11392ZM8.00016 9.33366C10.5775 9.33366 12.6668 8.73671 12.6668 8.00033C12.6668 7.26395 10.5775 6.66699 8.00016 6.66699C5.42283 6.66699 3.3335 7.26395 3.3335 8.00033C3.3335 8.73671 5.42283 9.33366 8.00016 9.33366Z" fill="#FDFD02"/>
<path fill-rule="evenodd" clip-rule="evenodd" d="M11.4177 5.43206C11.4184 5.43214 11.4149 5.43602 11.4053 5.44347C11.4123 5.43571 11.4171 5.43198 11.4177 5.43206ZM10.8868 5.66699C10.8197 5.64677 10.7464 5.62656 10.6667 5.60665C10.0096 5.44237 9.06648 5.33366 8 5.33366C6.93352 5.33366 5.99039 5.44237 5.33326 5.60665C5.25363 5.62656 5.18031 5.64677 5.11316 5.66699C5.18031 5.68722 5.25363 5.70743 5.33326 5.72734C5.99039 5.89162 6.93352 6.00033 8 6.00033C9.06648 6.00033 10.0096 5.89162 10.6667 5.72734C10.7464 5.70743 10.8197 5.68722 10.8868 5.66699ZM4.58227 5.43206C4.58291 5.43198 4.5877 5.43571 4.59469 5.44347C4.58512 5.43602 4.58162 5.43214 4.58227 5.43206ZM4.58227 5.90192C4.58162 5.90185 4.58512 5.89797 4.59469 5.89051C4.5877 5.89827 4.58291 5.902 4.58227 5.90192ZM11.4053 5.89051C11.4149 5.89797 11.4184 5.90185 11.4177 5.90192C11.4171 5.902 11.4123 5.89827 11.4053 5.89051ZM8 6.66699C10.2091 6.66699 12 6.21928 12 5.66699C12 5.11471 10.2091 4.66699 8 4.66699C5.79086 4.66699 4 5.11471 4 5.66699C4 6.21928 5.79086 6.66699 8 6.66699Z" fill="#FDFD02"/>
<path fill-rule="evenodd" clip-rule="evenodd" d="M11.4177 10.0986C11.4184 10.0986 11.4149 10.1025 11.4053 10.11C11.4123 10.1022 11.4171 10.0985 11.4177 10.0986ZM10.8868 10.3335C10.8197 10.3133 10.7464 10.2931 10.6667 10.2732C10.0096 10.1089 9.06648 10.0002 8 10.0002C6.93352 10.0002 5.99039 10.1089 5.33326 10.2732C5.25363 10.2931 5.18031 10.3133 5.11316 10.3335C5.18031 10.3537 5.25363 10.3739 5.33326 10.3938C5.99039 10.5581 6.93352 10.6668 8 10.6668C9.06648 10.6668 10.0096 10.5581 10.6667 10.3938C10.7464 10.3739 10.8197 10.3537 10.8868 10.3335ZM4.58227 10.0986C4.58291 10.0985 4.5877 10.1022 4.59469 10.11C4.58512 10.1025 4.58162 10.0986 4.58227 10.0986ZM4.58227 10.5684C4.58162 10.5684 4.58512 10.5645 4.59469 10.557C4.5877 10.5648 4.58291 10.5685 4.58227 10.5684ZM11.4053 10.557C11.4149 10.5645 11.4184 10.5684 11.4177 10.5684C11.4171 10.5685 11.4123 10.5648 11.4053 10.557ZM8 11.3335C10.2091 11.3335 12 10.8858 12 10.3335C12 9.78121 10.2091 9.3335 8 9.3335C5.79086 9.3335 4 9.78121 4 10.3335C4 10.8858 5.79086 11.3335 8 11.3335Z" fill="#FDFD02"/>
<path fill-rule="evenodd" clip-rule="evenodd" d="M11.5503 9.91162C11.5505 9.91176 11.5483 9.91293 11.5432 9.91471C11.5475 9.91237 11.5501 9.91148 11.5503 9.91162ZM11.3552 9.93735C11.2653 9.77482 11.1019 9.55756 10.8501 9.29722C10.2934 8.72189 9.4114 8.0453 8.33336 7.42289C7.25532 6.80048 6.22838 6.37495 5.4518 6.18054C5.1004 6.09257 4.83057 6.05972 4.64485 6.06313C4.73475 6.22567 4.89812 6.44292 5.15 6.70326C5.70666 7.27859 6.58866 7.95518 7.6667 8.57759C8.74474 9.2 9.77168 9.62553 10.5483 9.81994C10.8997 9.90791 11.1695 9.94077 11.3552 9.93735ZM4.5696 5.88132C4.56982 5.88142 4.57033 5.88408 4.57046 5.88901C4.56944 5.88368 4.56937 5.88121 4.5696 5.88132ZM4.44977 6.08886C4.44957 6.08872 4.45174 6.08755 4.45687 6.08577C4.45253 6.08811 4.44997 6.089 4.44977 6.08886ZM11.4296 10.1115C11.4306 10.1168 11.4307 10.1193 11.4305 10.1192C11.4302 10.1191 11.4297 10.1164 11.4296 10.1115ZM7.33336 9.15494C9.56539 10.4436 11.6733 10.9713 12.0415 10.3336C12.4097 9.69585 10.8987 8.1342 8.6667 6.84554C6.43466 5.55688 4.32677 5.02918 3.95858 5.66691C3.59039 6.30463 5.10133 7.86628 7.33336 9.15494Z" fill="#FDFD02"/>
<path d="M5.3335 5.33301H10.6668V8.66634C10.6668 10.1391 9.47292 11.333 8.00016 11.333V11.333C6.5274 11.333 5.3335 10.1391 5.3335 8.66634V5.33301Z" fill="#DD0000"/>
<path fill-rule="evenodd" clip-rule="evenodd" d="M5.16675 5.1665H10.8334V8.6665C10.8334 10.2313 9.56489 11.4998 8.00008 11.4998C6.43527 11.4998 5.16675 10.2313 5.16675 8.6665V5.1665ZM5.50008 5.49984V8.6665C5.50008 10.0472 6.61937 11.1665 8.00008 11.1665C9.38079 11.1665 10.5001 10.0472 10.5001 8.6665V5.49984H5.50008Z" fill="white"/>
<path d="M5.3335 5.33301H10.6668V8.66634C10.6668 10.1391 9.47292 11.333 8.00016 11.333V11.333C6.5274 11.333 5.3335 10.1391 5.3335 8.66634V5.33301Z" fill="white"/>
<path fill-rule="evenodd" clip-rule="evenodd" d="M9.7335 6.26634H6.26683V8.66634C6.26683 9.62363 7.04287 10.3997 8.00016 10.3997C8.95746 10.3997 9.7335 9.62363 9.7335 8.66634V6.26634ZM5.3335 5.33301V8.66634C5.3335 10.1391 6.5274 11.333 8.00016 11.333C9.47292 11.333 10.6668 10.1391 10.6668 8.66634V5.33301H5.3335Z" fill="#DD0000"/>
<path d="M6.66675 8H7.33341V8.33333C7.33341 8.51743 7.18418 8.66667 7.00008 8.66667C6.81599 8.66667 6.66675 8.51743 6.66675 8.33333V8Z" fill="#002495"/>
<path d="M8.66675 8H9.33341V8.33333C9.33341 8.51743 9.18418 8.66667 9.00008 8.66667C8.81599 8.66667 8.66675 8.51743 8.66675 8.33333V8Z" fill="#002495"/>
<path d="M7.66675 7H8.33341V7.33333C8.33341 7.51743 8.18418 7.66667 8.00008 7.66667C7.81599 7.66667 7.66675 7.51743 7.66675 7.33333V7Z" fill="#002495"/>
<path d="M7.66675 8H8.33341V8.33333C8.33341 8.51743 8.18418 8.66667 8.00008 8.66667C7.81599 8.66667 7.66675 8.51743 7.66675 8.33333V8Z" fill="#002495"/>
<path d="M7.66675 9H8.33341V9.33333C8.33341 9.51743 8.18418 9.66667 8.00008 9.66667C7.81599 9.66667 7.66675 9.51743 7.66675 9.33333V9Z" fill="#002495"/>
</g>
</g>
<rect x="0.5" y="0.5" width="15" height="15" rx="7.5" stroke="white"/>
<defs>
<clipPath id="clip0_6253_34926">
<rect width="16" height="16" rx="8" fill="white"/>
</clipPath>
<clipPath id="clip1_6253_34926">
<rect width="16" height="16" rx="8" fill="white"/>
</clipPath>
</defs>
</svg>
