<svg width="16" height="16" viewBox="0 0 16 16" fill="none" xmlns="http://www.w3.org/2000/svg">
<g clip-path="url(#clip0_6253_38833)">
<g clip-path="url(#clip1_6253_38833)">
<rect width="16" height="5.33333" fill="#DD0000"/>
<rect y="10.6667" width="16" height="5.33333" fill="#DD0000"/>
<rect y="4" width="16" height="8" fill="#FFC400"/>
<path d="M6 7.3335V9.3335C6 9.86393 6.21071 10.3726 6.58579 10.7477C6.96086 11.1228 7.46957 11.3335 8 11.3335C8.53043 11.3335 9.03914 11.1228 9.41421 10.7477C9.78929 10.3726 10 9.86393 10 9.3335V7.3335H6Z" fill="#EA596E"/>
<path d="M8 6.66675H10V8.66675H8V6.66675Z" fill="#F4A2B2"/>
<path d="M6 6.66675H8V8.66675H6V6.66675Z" fill="#DD2E44"/>
<path d="M8 6.66675C9.10457 6.66675 10 6.21903 10 5.66675C10 5.11446 9.10457 4.66675 8 4.66675C6.89543 4.66675 6 5.11446 6 5.66675C6 6.21903 6.89543 6.66675 8 6.66675Z" fill="#EA596E"/>
<path d="M8 5.66675C9.10457 5.66675 10 5.44289 10 5.16675C10 4.89061 9.10457 4.66675 8 4.66675C6.89543 4.66675 6 4.89061 6 5.16675C6 5.44289 6.89543 5.66675 8 5.66675Z" fill="#FFAC33"/>
<path d="M4.66675 6.66675H5.33341V11.3334H4.66675V6.66675ZM10.6667 6.66675H11.3334V11.3334H10.6667V6.66675Z" fill="#99AAB5"/>
<path d="M4 10.6667H6V11.3333H4V10.6667ZM10 10.6667H12V11.3333H10V10.6667ZM4.66667 6H5.33333V6.66667H4.66667V6ZM10.6667 6H11.3333V6.66667H10.6667V6Z" fill="#66757F"/>
</g>
</g>
<rect x="0.5" y="0.5" width="15" height="15" rx="7.5" stroke="white"/>
<defs>
<clipPath id="clip0_6253_38833">
<rect width="16" height="16" rx="8" fill="white"/>
</clipPath>
<clipPath id="clip1_6253_38833">
<rect width="16" height="16" rx="8" fill="white"/>
</clipPath>
</defs>
</svg>
