<svg width="16" height="16" viewBox="0 0 16 16" fill="none" xmlns="http://www.w3.org/2000/svg">
<g clip-path="url(#clip0_6253_38450)">
<g clip-path="url(#clip1_6253_38450)">
<rect width="16" height="16" fill="#DD0000"/>
<path d="M12.2158 6.93091L13.3333 8.39236L11.5266 7.83527L13.3326 7.27491L12.2172 8.73855L12.2158 6.93091ZM9.4587 11.1455C8.98052 11.144 8.50889 11.035 8.07924 10.8265C7.64959 10.6181 7.27308 10.3157 6.978 9.94203C6.68292 9.56836 6.47694 9.13315 6.37553 8.66909C6.27412 8.20503 6.27992 7.72418 6.39249 7.26266C6.50506 6.80114 6.72148 6.37096 7.02549 6.00442C7.3295 5.63788 7.71319 5.34451 8.14775 5.14636C8.58231 4.94821 9.05643 4.85042 9.53451 4.86034C10.0126 4.87026 10.4822 4.98763 10.908 5.20364C10.3484 4.63521 9.63089 4.24527 8.8471 4.0836C8.06332 3.92192 7.2488 3.99584 6.5075 4.29591C5.76621 4.59599 5.13176 5.10861 4.68515 5.76836C4.23853 6.4281 4 7.20504 4 8C4 8.79497 4.23853 9.5719 4.68515 10.2316C5.13176 10.8914 5.76621 11.404 6.5075 11.7041C7.2488 12.0042 8.06332 12.0781 8.8471 11.9164C9.63089 11.7547 10.3484 11.3648 10.908 10.7964C10.4591 11.0235 9.96249 11.1419 9.4587 11.1418V11.1455Z" fill="white"/>
</g>
</g>
<rect x="0.5" y="0.5" width="15" height="15" rx="7.5" stroke="white"/>
<defs>
<clipPath id="clip0_6253_38450">
<rect width="16" height="16" rx="8" fill="white"/>
</clipPath>
<clipPath id="clip1_6253_38450">
<rect width="16" height="16" rx="8" fill="white"/>
</clipPath>
</defs>
</svg>
