<svg width="26" height="26" viewBox="0 0 26 26" fill="none" xmlns="http://www.w3.org/2000/svg">
<path d="M21.5505 7.74732C21.4079 7.60063 21.2382 7.4843 21.0513 7.40506C20.8644 7.32583 20.6639 7.28526 20.4615 7.28571H17.3846V6.5C17.3846 5.04131 16.8173 3.64236 15.8075 2.61091C14.7977 1.57946 13.4281 1 12 1C10.5719 1 9.20231 1.57946 8.1925 2.61091C7.18269 3.64236 6.61538 5.04131 6.61538 6.5V7.28571H3.53846C3.13044 7.28571 2.73912 7.45128 2.4506 7.74598C2.16209 8.04068 2 8.44037 2 8.85714V19.4643C2 21.3795 3.58654 23 5.46154 23H18.5385C19.4454 23.0003 20.3165 22.6381 20.9654 21.9908C21.2919 21.6726 21.552 21.2901 21.7298 20.8665C21.9076 20.4428 21.9995 19.9867 22 19.5257V8.85714C22.0006 8.65098 21.9612 8.44675 21.8841 8.25625C21.8069 8.06575 21.6935 7.89277 21.5505 7.74732ZM8.15384 6.5C8.15384 5.45808 8.55906 4.45883 9.28036 3.72208C10.0016 2.98533 10.9799 2.57143 12 2.57143C13.0201 2.57143 13.9983 2.98533 14.7196 3.72208C15.4409 4.45883 15.8461 5.45808 15.8461 6.5V7.28571H8.15384V6.5Z" fill="white"/>
<rect x="15" y="15" width="10" height="10" rx="5" fill="#F60109"/>
<rect x="15" y="15" width="10" height="10" rx="5" stroke="black" stroke-width="2"/>
</svg>
