<svg width="25" height="25" viewBox="0 0 25 25" fill="none" xmlns="http://www.w3.org/2000/svg">
<path d="M2.54421 2.54127C2.12863 2.40155 1.67944 2.62808 1.54092 3.04723C1.40239 3.46637 1.62699 3.91942 2.04257 4.05914L2.32273 4.15333C3.03807 4.39382 3.51101 4.5541 3.85943 4.71757C4.18935 4.87237 4.33199 4.99695 4.42338 5.12485C4.51478 5.25274 4.58685 5.42861 4.62813 5.79324C4.67171 6.17831 4.67291 6.68152 4.67291 7.44204L4.67291 10.292C4.67289 11.7507 4.67287 12.9265 4.79614 13.8512C4.92413 14.8113 5.19792 15.6197 5.83449 16.2617C6.47106 16.9038 7.27256 17.1799 8.22448 17.309C9.14135 17.4333 10.3071 17.4333 11.7534 17.4333H19.2144C19.6525 17.4333 20.0076 17.0751 20.0076 16.6333C20.0076 16.1915 19.6525 15.8333 19.2144 15.8333H11.8115C10.2934 15.8333 9.23469 15.8316 8.43586 15.7233C7.65984 15.6181 7.2489 15.4256 6.95621 15.1304C6.70748 14.8795 6.53231 14.5426 6.42128 13.9667H17.1226C18.1373 13.9667 18.6446 13.9667 19.0419 13.7024C19.4392 13.4382 19.6391 12.9679 20.0388 12.0273L20.492 10.9606C21.3481 8.94591 21.7762 7.93855 21.306 7.21935C20.8358 6.50015 19.7491 6.50015 17.5759 6.50015H6.25403C6.24779 6.17196 6.23413 5.87585 6.20424 5.61176C6.1457 5.09463 6.01815 4.62012 5.7103 4.18932C5.40244 3.75853 4.99645 3.48644 4.52855 3.26689C4.08835 3.06036 3.52855 2.87217 2.86612 2.64949L2.54421 2.54127Z" fill="white"/>
<path d="M8.10979 19.3C8.9859 19.3 9.69613 20.0163 9.69613 20.8999C9.69613 21.7836 8.9859 22.4999 8.10979 22.4999C7.23367 22.4999 6.52344 21.7836 6.52344 20.8999C6.52344 20.0163 7.23367 19.3 8.10979 19.3Z" fill="white"/>
<path d="M17.6279 19.3001C18.504 19.3001 19.2142 20.0164 19.2142 20.9C19.2142 21.7837 18.504 22.5 17.6279 22.5C16.7518 22.5 16.0415 21.7837 16.0415 20.9C16.0415 20.0164 16.7518 19.3001 17.6279 19.3001Z" fill="white"/>
</svg>
