<svg width="25" height="24" viewBox="0 0 25 24" fill="none" xmlns="http://www.w3.org/2000/svg">
<path d="M19.8517 7.61665L15.8929 4.05375C14.7651 3.03868 14.2012 2.53114 13.5092 2.26562L13.5 5.00011C13.5 7.35713 13.5 8.53564 14.2322 9.26787C14.9645 10.0001 16.143 10.0001 18.5 10.0001H22.0801C21.7175 9.29588 21.0684 8.71164 19.8517 7.61665Z" fill="white"/>
<path fill-rule="evenodd" clip-rule="evenodd" d="M10.5 22H14.5C18.2712 22 20.1569 22 21.3284 20.8284C22.5 19.6569 22.5 17.7712 22.5 14V13.5629C22.5 12.6901 22.5 12.0344 22.4574 11.5001H18.5L18.4051 11.5001C17.308 11.5002 16.3385 11.5003 15.5569 11.3952C14.7098 11.2813 13.8628 11.0198 13.1716 10.3285C12.4803 9.63726 12.2188 8.79028 12.1049 7.94316C11.9998 7.16164 11.9999 6.19207 12 5.09497L12.0092 2.26057C12.0095 2.17813 12.0166 2.09659 12.03 2.01666C11.6214 2 11.1358 2 10.5298 2C6.73869 2 4.84315 2 3.67157 3.17157C2.5 4.34315 2.5 6.22876 2.5 10V14C2.5 17.7712 2.5 19.6569 3.67157 20.8284C4.84315 22 6.72876 22 10.5 22ZM8.48704 19.0472C8.77554 19.3176 9.22446 19.3176 9.51296 19.0472L11.513 17.1722C11.8151 16.8889 11.8305 16.4142 11.5472 16.112C11.2639 15.8099 10.7892 15.7945 10.487 16.0778L9.75 16.7688L9.75 13.5C9.75 13.0858 9.41421 12.75 9 12.75C8.58579 12.75 8.25 13.0858 8.25 13.5V16.7688L7.51296 16.0778C7.21077 15.7945 6.73615 15.8099 6.45285 16.112C6.16955 16.4142 6.18486 16.8889 6.48704 17.1722L8.48704 19.0472Z" fill="white"/>
</svg>
