<svg width="1920" height="1080" viewBox="0 0 1920 1080" fill="none" xmlns="http://www.w3.org/2000/svg">
<g style="mix-blend-mode:color-dodge">
<path d="M1721.13 -40.2688C1844.84 2.73249 1975.35 25.1958 2107.96 26.3111C2040.53 -87.8448 1955.84 -189.615 1856.88 -275.405C1671.11 -440.239 1454.6 -565.237 1218.97 -643.704C1095.39 -686.68 964.996 -709.07 832.521 -710.063C899.514 -595.704 984.017 -493.84 1082.98 -408.155C1175.37 -325.582 1276.08 -253.246 1383.59 -192.243C1490.39 -130.001 1603.45 -79.0972 1721.13 -40.2688Z" stroke="white" stroke-width="3"/>
<path d="M1721.13 -40.2688C1844.84 2.73249 1975.35 25.1958 2107.96 26.3111C2040.53 -87.8448 1955.84 -189.615 1856.88 -275.405C1671.11 -440.239 1454.6 -565.237 1218.97 -643.704C1095.39 -686.68 964.996 -709.07 832.521 -710.063C899.514 -595.704 984.017 -493.84 1082.98 -408.155C1175.37 -325.582 1276.08 -253.246 1383.59 -192.243C1490.39 -130.001 1603.45 -79.0972 1721.13 -40.2688Z" stroke="url(#paint0_linear_1005_6033)" stroke-width="3"/>
<path d="M1721.13 -40.2688C1844.84 2.73249 1975.35 25.1958 2107.96 26.3111C2040.53 -87.8448 1955.84 -189.615 1856.88 -275.405C1671.11 -440.239 1454.6 -565.237 1218.97 -643.704C1095.39 -686.68 964.996 -709.07 832.521 -710.063C899.514 -595.704 984.017 -493.84 1082.98 -408.155C1175.37 -325.582 1276.08 -253.246 1383.59 -192.243C1490.39 -130.001 1603.45 -79.0972 1721.13 -40.2688Z" stroke="url(#paint1_linear_1005_6033)" stroke-opacity="0.4" stroke-width="3"/>
<path d="M2221.05 649.978C2023.62 622.985 1831.32 571.424 1648.29 496.402C1468.9 428.215 1295.28 346.352 1128.79 251.476C962.546 156.439 803.888 48.6613 654.073 -71.0105C497.987 -192.756 357.525 -334.048 235.647 -491.897C433.466 -465.779 626.241 -415.05 809.835 -340.798C1167.24 -200.456 1500.96 -7.78063 1801.2 231.566C1957.64 352.468 2098.58 492.923 2221.05 649.978Z" stroke="white" stroke-width="3"/>
<path d="M2221.05 649.978C2023.62 622.985 1831.32 571.424 1648.29 496.402C1468.9 428.215 1295.28 346.352 1128.79 251.476C962.546 156.439 803.888 48.6613 654.073 -71.0105C497.987 -192.756 357.525 -334.048 235.647 -491.897C433.466 -465.779 626.241 -415.05 809.835 -340.798C1167.24 -200.456 1500.96 -7.78063 1801.2 231.566C1957.64 352.468 2098.58 492.923 2221.05 649.978Z" stroke="url(#paint2_linear_1005_6033)" stroke-width="3"/>
<path d="M2221.05 649.978C2023.62 622.985 1831.32 571.424 1648.29 496.402C1468.9 428.215 1295.28 346.352 1128.79 251.476C962.546 156.439 803.888 48.6613 654.073 -71.0105C497.987 -192.756 357.525 -334.048 235.647 -491.897C433.466 -465.779 626.241 -415.05 809.835 -340.798C1167.24 -200.456 1500.96 -7.78063 1801.2 231.566C1957.64 352.468 2098.58 492.923 2221.05 649.978Z" stroke="url(#paint3_linear_1005_6033)" stroke-opacity="0.4" stroke-width="3"/>
<path d="M2058.22 1173.29C1839.29 1144.93 1625.85 1089.47 1422.43 1008.07C1224.9 931.045 1033.8 839.097 850.611 732.938C666.697 627.701 491.36 508.086 326.04 375.07C153.671 240.021 -0.991579 82.9388 -134.554 -92.7137C84.4119 -65.0236 297.859 -9.75807 501.094 71.8675C698.945 148.537 890.204 240.576 1073.3 347.231C1256.83 452.797 1432.01 572.315 1597.48 704.868C1769.62 840.481 1924.3 997.733 2058.22 1173.29Z" stroke="white" stroke-width="3"/>
<path d="M2058.22 1173.29C1839.29 1144.93 1625.85 1089.47 1422.43 1008.07C1224.9 931.045 1033.8 839.097 850.611 732.938C666.697 627.701 491.36 508.086 326.04 375.07C153.671 240.021 -0.991579 82.9388 -134.554 -92.7137C84.4119 -65.0236 297.859 -9.75807 501.094 71.8675C698.945 148.537 890.204 240.576 1073.3 347.231C1256.83 452.797 1432.01 572.315 1597.48 704.868C1769.62 840.481 1924.3 997.733 2058.22 1173.29Z" stroke="url(#paint4_linear_1005_6033)" stroke-width="3"/>
<path d="M2058.22 1173.29C1839.29 1144.93 1625.85 1089.47 1422.43 1008.07C1224.9 931.045 1033.8 839.097 850.611 732.938C666.697 627.701 491.36 508.086 326.04 375.07C153.671 240.021 -0.991579 82.9388 -134.554 -92.7137C84.4119 -65.0236 297.859 -9.75807 501.094 71.8675C698.945 148.537 890.204 240.576 1073.3 347.231C1256.83 452.797 1432.01 572.315 1597.48 704.868C1769.62 840.481 1924.3 997.733 2058.22 1173.29Z" stroke="url(#paint5_linear_1005_6033)" stroke-opacity="0.4" stroke-width="3"/>
<path d="M1686.89 1575.18C1489.25 1548.56 1296.65 1497.55 1113.17 1423.26C934.682 1353.2 761.883 1269.97 596.059 1174.2C430.199 1078.48 271.727 970.446 121.81 850.895C-34.4234 729.323 -174.906 588.017 -296.613 430.004C-99.127 456.792 93.1917 508.359 276.146 583.579C633.544 723.923 967.268 916.599 1267.51 1155.94C1423.99 1276.94 1564.79 1417.7 1686.89 1575.18Z" stroke="white" stroke-width="3"/>
<path d="M1686.89 1575.18C1489.25 1548.56 1296.65 1497.55 1113.17 1423.26C934.682 1353.2 761.883 1269.97 596.059 1174.2C430.199 1078.48 271.727 970.446 121.81 850.895C-34.4234 729.323 -174.906 588.017 -296.613 430.004C-99.127 456.792 93.1917 508.359 276.146 583.579C633.544 723.923 967.268 916.599 1267.51 1155.94C1423.99 1276.94 1564.79 1417.7 1686.89 1575.18Z" stroke="url(#paint6_linear_1005_6033)" stroke-width="3"/>
<path d="M1686.89 1575.18C1489.25 1548.56 1296.65 1497.55 1113.17 1423.26C934.682 1353.2 761.883 1269.97 596.059 1174.2C430.199 1078.48 271.727 970.446 121.81 850.895C-34.4234 729.323 -174.906 588.017 -296.613 430.004C-99.127 456.792 93.1917 508.359 276.146 583.579C633.544 723.923 967.268 916.599 1267.51 1155.94C1423.99 1276.94 1564.79 1417.7 1686.89 1575.18Z" stroke="url(#paint7_linear_1005_6033)" stroke-opacity="0.4" stroke-width="3"/>
<path d="M703.167 1722.89C827.01 1765.46 957.454 1787.92 1090 1789.47C1022.74 1675.08 938.217 1573.04 839.399 1486.93C746.933 1404.43 646.321 1331.97 539.019 1270.6C432.434 1208 319.43 1156.94 201.725 1118.22C78.0393 1075.36 -52.4284 1053.11 -184.965 1052.28C-117.866 1166.5 -33.2786 1268.22 65.7303 1353.77C157.85 1436.73 258.32 1509.47 365.628 1570.92C472.545 1632.95 585.574 1683.84 703.167 1722.89Z" stroke="white" stroke-width="3"/>
<path d="M703.167 1722.89C827.01 1765.46 957.454 1787.92 1090 1789.47C1022.74 1675.08 938.217 1573.04 839.399 1486.93C746.933 1404.43 646.321 1331.97 539.019 1270.6C432.434 1208 319.43 1156.94 201.725 1118.22C78.0393 1075.36 -52.4284 1053.11 -184.965 1052.28C-117.866 1166.5 -33.2786 1268.22 65.7303 1353.77C157.85 1436.73 258.32 1509.47 365.628 1570.92C472.545 1632.95 585.574 1683.84 703.167 1722.89Z" stroke="url(#paint8_linear_1005_6033)" stroke-width="3"/>
<path d="M703.167 1722.89C827.01 1765.46 957.454 1787.92 1090 1789.47C1022.74 1675.08 938.217 1573.04 839.399 1486.93C746.933 1404.43 646.321 1331.97 539.019 1270.6C432.434 1208 319.43 1156.94 201.725 1118.22C78.0393 1075.36 -52.4284 1053.11 -184.965 1052.28C-117.866 1166.5 -33.2786 1268.22 65.7303 1353.77C157.85 1436.73 258.32 1509.47 365.628 1570.92C472.545 1632.95 585.574 1683.84 703.167 1722.89Z" stroke="url(#paint9_linear_1005_6033)" stroke-opacity="0.4" stroke-width="3"/>
</g>
<defs>
<linearGradient id="paint0_linear_1005_6033" x1="1557.5" y1="-491.437" x2="366.5" y2="1571.44" gradientUnits="userSpaceOnUse">
<stop stop-color="#F60109"/>
<stop offset="1" stop-color="#E45E12"/>
</linearGradient>
<linearGradient id="paint1_linear_1005_6033" x1="1462.89" y1="2204.44" x2="-296.553" y2="-658.867" gradientUnits="userSpaceOnUse">
<stop offset="0.154472"/>
<stop offset="1" stop-opacity="0"/>
</linearGradient>
<linearGradient id="paint2_linear_1005_6033" x1="1557.5" y1="-491.437" x2="366.5" y2="1571.44" gradientUnits="userSpaceOnUse">
<stop stop-color="#F60109"/>
<stop offset="1" stop-color="#E45E12"/>
</linearGradient>
<linearGradient id="paint3_linear_1005_6033" x1="1462.89" y1="2204.44" x2="-296.553" y2="-658.867" gradientUnits="userSpaceOnUse">
<stop offset="0.154472"/>
<stop offset="1" stop-opacity="0"/>
</linearGradient>
<linearGradient id="paint4_linear_1005_6033" x1="1557.5" y1="-491.437" x2="366.5" y2="1571.44" gradientUnits="userSpaceOnUse">
<stop stop-color="#F60109"/>
<stop offset="1" stop-color="#E45E12"/>
</linearGradient>
<linearGradient id="paint5_linear_1005_6033" x1="1462.89" y1="2204.44" x2="-296.553" y2="-658.867" gradientUnits="userSpaceOnUse">
<stop offset="0.154472"/>
<stop offset="1" stop-opacity="0"/>
</linearGradient>
<linearGradient id="paint6_linear_1005_6033" x1="1557.5" y1="-491.437" x2="366.5" y2="1571.44" gradientUnits="userSpaceOnUse">
<stop stop-color="#F60109"/>
<stop offset="1" stop-color="#E45E12"/>
</linearGradient>
<linearGradient id="paint7_linear_1005_6033" x1="1462.89" y1="2204.44" x2="-296.553" y2="-658.867" gradientUnits="userSpaceOnUse">
<stop offset="0.154472"/>
<stop offset="1" stop-opacity="0"/>
</linearGradient>
<linearGradient id="paint8_linear_1005_6033" x1="1557.5" y1="-491.437" x2="366.5" y2="1571.44" gradientUnits="userSpaceOnUse">
<stop stop-color="#F60109"/>
<stop offset="1" stop-color="#E45E12"/>
</linearGradient>
<linearGradient id="paint9_linear_1005_6033" x1="1462.89" y1="2204.44" x2="-296.553" y2="-658.867" gradientUnits="userSpaceOnUse">
<stop offset="0.154472"/>
<stop offset="1" stop-opacity="0"/>
</linearGradient>
</defs>
</svg>
