<svg width="1440" height="840" viewBox="0 0 1440 840" fill="none" xmlns="http://www.w3.org/2000/svg">
<g style="mix-blend-mode:hard-light">
<path d="M1290.85 -160.269C1383.63 -117.268 1481.52 -94.8042 1580.97 -93.689C1530.4 -207.845 1466.88 -309.615 1392.66 -395.405C1253.33 -560.239 1090.95 -685.237 914.229 -763.704C821.539 -806.68 723.747 -829.07 624.391 -830.063C674.636 -715.704 738.013 -613.84 812.233 -528.155C881.526 -445.583 957.062 -373.246 1037.69 -312.243C1117.79 -250.001 1202.59 -199.097 1290.85 -160.269Z" stroke="white" stroke-width="3"/>
<path d="M1290.85 -160.269C1383.63 -117.268 1481.52 -94.8042 1580.97 -93.689C1530.4 -207.845 1466.88 -309.615 1392.66 -395.405C1253.33 -560.239 1090.95 -685.237 914.229 -763.704C821.539 -806.68 723.747 -829.07 624.391 -830.063C674.636 -715.704 738.013 -613.84 812.233 -528.155C881.526 -445.583 957.062 -373.246 1037.69 -312.243C1117.79 -250.001 1202.59 -199.097 1290.85 -160.269Z" stroke="url(#paint0_linear_3388_3121)" stroke-width="3"/>
<path d="M1290.85 -160.269C1383.63 -117.268 1481.52 -94.8042 1580.97 -93.689C1530.4 -207.845 1466.88 -309.615 1392.66 -395.405C1253.33 -560.239 1090.95 -685.237 914.229 -763.704C821.539 -806.68 723.747 -829.07 624.391 -830.063C674.636 -715.704 738.013 -613.84 812.233 -528.155C881.526 -445.583 957.062 -373.246 1037.69 -312.243C1117.79 -250.001 1202.59 -199.097 1290.85 -160.269Z" stroke="url(#paint1_linear_3388_3121)" stroke-opacity="0.4" stroke-width="3"/>
<path d="M1665.79 529.977C1517.71 502.985 1373.49 451.424 1236.22 376.402C1101.68 308.215 971.461 226.352 846.596 131.476C721.91 36.4385 602.916 -71.3387 490.555 -191.01C373.49 -312.756 268.144 -454.048 176.735 -611.897C325.099 -585.779 469.681 -535.05 607.376 -460.798C875.426 -320.456 1125.72 -127.781 1350.9 111.566C1468.23 232.468 1573.93 372.923 1665.79 529.977Z" stroke="white" stroke-width="3"/>
<path d="M1665.79 529.977C1517.71 502.985 1373.49 451.424 1236.22 376.402C1101.68 308.215 971.461 226.352 846.596 131.476C721.91 36.4385 602.916 -71.3387 490.555 -191.01C373.49 -312.756 268.144 -454.048 176.735 -611.897C325.099 -585.779 469.681 -535.05 607.376 -460.798C875.426 -320.456 1125.72 -127.781 1350.9 111.566C1468.23 232.468 1573.93 372.923 1665.79 529.977Z" stroke="url(#paint2_linear_3388_3121)" stroke-width="3"/>
<path d="M1665.79 529.977C1517.71 502.985 1373.49 451.424 1236.22 376.402C1101.68 308.215 971.461 226.352 846.596 131.476C721.91 36.4385 602.916 -71.3387 490.555 -191.01C373.49 -312.756 268.144 -454.048 176.735 -611.897C325.099 -585.779 469.681 -535.05 607.376 -460.798C875.426 -320.456 1125.72 -127.781 1350.9 111.566C1468.23 232.468 1573.93 372.923 1665.79 529.977Z" stroke="url(#paint3_linear_3388_3121)" stroke-opacity="0.4" stroke-width="3"/>
<path d="M1543.67 1053.29C1379.47 1024.93 1219.39 969.467 1066.82 888.07C918.675 811.045 775.349 719.097 637.958 612.938C500.023 507.701 368.52 388.086 244.53 255.07C115.253 120.021 -0.74369 -37.0612 -100.915 -212.714C63.3089 -185.024 223.395 -129.758 375.82 -48.1326C524.209 28.5374 667.653 120.576 804.974 227.231C942.621 332.797 1074.01 452.315 1198.11 584.868C1327.22 720.481 1443.22 877.733 1543.67 1053.29Z" stroke="white" stroke-width="3"/>
<path d="M1543.67 1053.29C1379.47 1024.93 1219.39 969.467 1066.82 888.07C918.675 811.045 775.349 719.097 637.958 612.938C500.023 507.701 368.52 388.086 244.53 255.07C115.253 120.021 -0.74369 -37.0612 -100.915 -212.714C63.3089 -185.024 223.395 -129.758 375.82 -48.1326C524.209 28.5374 667.653 120.576 804.974 227.231C942.621 332.797 1074.01 452.315 1198.11 584.868C1327.22 720.481 1443.22 877.733 1543.67 1053.29Z" stroke="url(#paint4_linear_3388_3121)" stroke-width="3"/>
<path d="M1543.67 1053.29C1379.47 1024.93 1219.39 969.467 1066.82 888.07C918.675 811.045 775.349 719.097 637.958 612.938C500.023 507.701 368.52 388.086 244.53 255.07C115.253 120.021 -0.74369 -37.0612 -100.915 -212.714C63.3089 -185.024 223.395 -129.758 375.82 -48.1326C524.209 28.5374 667.653 120.576 804.974 227.231C942.621 332.797 1074.01 452.315 1198.11 584.868C1327.22 720.481 1443.22 877.733 1543.67 1053.29Z" stroke="url(#paint5_linear_3388_3121)" stroke-opacity="0.4" stroke-width="3"/>
<path d="M1265.17 1455.18C1116.93 1428.56 972.49 1377.55 834.879 1303.26C701.011 1233.2 571.412 1149.97 447.044 1054.2C322.65 958.476 203.796 850.446 91.3578 730.895C-25.8176 609.323 -131.179 468.017 -222.459 310.004C-74.3452 336.792 69.8938 388.359 207.109 463.579C475.158 603.923 725.451 796.599 950.631 1035.94C1067.99 1156.94 1173.59 1297.7 1265.17 1455.18Z" stroke="white" stroke-width="3"/>
<path d="M1265.17 1455.18C1116.93 1428.56 972.49 1377.55 834.879 1303.26C701.011 1233.2 571.412 1149.97 447.044 1054.2C322.65 958.476 203.796 850.446 91.3578 730.895C-25.8176 609.323 -131.179 468.017 -222.459 310.004C-74.3452 336.792 69.8938 388.359 207.109 463.579C475.158 603.923 725.451 796.599 950.631 1035.94C1067.99 1156.94 1173.59 1297.7 1265.17 1455.18Z" stroke="url(#paint6_linear_3388_3121)" stroke-width="3"/>
<path d="M1265.17 1455.18C1116.93 1428.56 972.49 1377.55 834.879 1303.26C701.011 1233.2 571.412 1149.97 447.044 1054.2C322.65 958.476 203.796 850.446 91.3578 730.895C-25.8176 609.323 -131.179 468.017 -222.459 310.004C-74.3452 336.792 69.8938 388.359 207.109 463.579C475.158 603.923 725.451 796.599 950.631 1035.94C1067.99 1156.94 1173.59 1297.7 1265.17 1455.18Z" stroke="url(#paint7_linear_3388_3121)" stroke-opacity="0.4" stroke-width="3"/>
<path d="M527.375 1602.89C620.257 1645.46 718.09 1667.92 817.5 1669.47C767.058 1555.08 703.663 1453.04 629.549 1366.93C560.199 1284.43 484.74 1211.97 404.264 1150.6C324.325 1088 239.573 1036.94 151.294 998.218C58.5294 955.361 -39.3213 933.109 -138.724 932.275C-88.3998 1046.5 -24.959 1148.22 49.2976 1233.77C118.387 1316.73 193.74 1389.47 274.221 1450.92C354.408 1512.95 439.18 1563.84 527.375 1602.89Z" stroke="white" stroke-width="3"/>
<path d="M527.375 1602.89C620.257 1645.46 718.09 1667.92 817.5 1669.47C767.058 1555.08 703.663 1453.04 629.549 1366.93C560.199 1284.43 484.74 1211.97 404.264 1150.6C324.325 1088 239.573 1036.94 151.294 998.218C58.5294 955.361 -39.3213 933.109 -138.724 932.275C-88.3998 1046.5 -24.959 1148.22 49.2976 1233.77C118.387 1316.73 193.74 1389.47 274.221 1450.92C354.408 1512.95 439.18 1563.84 527.375 1602.89Z" stroke="url(#paint8_linear_3388_3121)" stroke-width="3"/>
<path d="M527.375 1602.89C620.257 1645.46 718.09 1667.92 817.5 1669.47C767.058 1555.08 703.663 1453.04 629.549 1366.93C560.199 1284.43 484.74 1211.97 404.264 1150.6C324.325 1088 239.573 1036.94 151.294 998.218C58.5294 955.361 -39.3213 933.109 -138.724 932.275C-88.3998 1046.5 -24.959 1148.22 49.2976 1233.77C118.387 1316.73 193.74 1389.47 274.221 1450.92C354.408 1512.95 439.18 1563.84 527.375 1602.89Z" stroke="url(#paint9_linear_3388_3121)" stroke-opacity="0.4" stroke-width="3"/>
</g>
<defs>
<linearGradient id="paint0_linear_3388_3121" x1="1168.12" y1="-611.437" x2="-161.363" y2="1115.62" gradientUnits="userSpaceOnUse">
<stop stop-color="#F60109"/>
<stop offset="1" stop-color="#E45E12"/>
</linearGradient>
<linearGradient id="paint1_linear_3388_3121" x1="1097.17" y1="2084.44" x2="-836.526" y2="-275.722" gradientUnits="userSpaceOnUse">
<stop offset="0.352309"/>
<stop offset="1" stop-opacity="0"/>
</linearGradient>
<linearGradient id="paint2_linear_3388_3121" x1="1168.12" y1="-611.437" x2="-161.363" y2="1115.62" gradientUnits="userSpaceOnUse">
<stop stop-color="#F60109"/>
<stop offset="1" stop-color="#E45E12"/>
</linearGradient>
<linearGradient id="paint3_linear_3388_3121" x1="1097.17" y1="2084.44" x2="-836.526" y2="-275.722" gradientUnits="userSpaceOnUse">
<stop offset="0.352309"/>
<stop offset="1" stop-opacity="0"/>
</linearGradient>
<linearGradient id="paint4_linear_3388_3121" x1="1168.12" y1="-611.437" x2="-161.363" y2="1115.62" gradientUnits="userSpaceOnUse">
<stop stop-color="#F60109"/>
<stop offset="1" stop-color="#E45E12"/>
</linearGradient>
<linearGradient id="paint5_linear_3388_3121" x1="1097.17" y1="2084.44" x2="-836.526" y2="-275.722" gradientUnits="userSpaceOnUse">
<stop offset="0.352309"/>
<stop offset="1" stop-opacity="0"/>
</linearGradient>
<linearGradient id="paint6_linear_3388_3121" x1="1168.12" y1="-611.437" x2="-161.363" y2="1115.62" gradientUnits="userSpaceOnUse">
<stop stop-color="#F60109"/>
<stop offset="1" stop-color="#E45E12"/>
</linearGradient>
<linearGradient id="paint7_linear_3388_3121" x1="1097.17" y1="2084.44" x2="-836.526" y2="-275.722" gradientUnits="userSpaceOnUse">
<stop offset="0.352309"/>
<stop offset="1" stop-opacity="0"/>
</linearGradient>
<linearGradient id="paint8_linear_3388_3121" x1="1168.12" y1="-611.437" x2="-161.363" y2="1115.62" gradientUnits="userSpaceOnUse">
<stop stop-color="#F60109"/>
<stop offset="1" stop-color="#E45E12"/>
</linearGradient>
<linearGradient id="paint9_linear_3388_3121" x1="1097.17" y1="2084.44" x2="-836.526" y2="-275.722" gradientUnits="userSpaceOnUse">
<stop offset="0.352309"/>
<stop offset="1" stop-opacity="0"/>
</linearGradient>
</defs>
</svg>
