<svg width="24" height="24" viewBox="0 0 24 24" fill="none" xmlns="http://www.w3.org/2000/svg">
<path d="M3.00008 4.99998C2.86757 4.9981 2.73601 5.02259 2.61304 5.072C2.49007 5.12141 2.37815 5.19477 2.28378 5.28782C2.18941 5.38086 2.11447 5.49173 2.06333 5.61399C2.01218 5.73625 1.98584 5.86745 1.98584 5.99998C1.98584 6.1325 2.01218 6.26371 2.06333 6.38596C2.11447 6.50822 2.18941 6.61909 2.28378 6.71214C2.37815 6.80518 2.49007 6.87854 2.61304 6.92796C2.73601 6.97737 2.86757 7.00185 3.00008 6.99998H21.0001C21.1326 7.00185 21.2642 6.97737 21.3871 6.92796C21.5101 6.87854 21.622 6.80518 21.7164 6.71214C21.8108 6.61909 21.8857 6.50822 21.9368 6.38596C21.988 6.26371 22.0143 6.1325 22.0143 5.99998C22.0143 5.86745 21.988 5.73625 21.9368 5.61399C21.8857 5.49173 21.8108 5.38086 21.7164 5.28782C21.622 5.19477 21.5101 5.12141 21.3871 5.072C21.2642 5.02259 21.1326 4.9981 21.0001 4.99998H3.00008ZM3.00008 11C2.86757 10.9981 2.73601 11.0226 2.61304 11.072C2.49007 11.1214 2.37815 11.1948 2.28378 11.2878C2.18941 11.3809 2.11447 11.4917 2.06333 11.614C2.01218 11.7362 1.98584 11.8675 1.98584 12C1.98584 12.1325 2.01218 12.2637 2.06333 12.386C2.11447 12.5082 2.18941 12.6191 2.28378 12.7121C2.37815 12.8052 2.49007 12.8785 2.61304 12.928C2.73601 12.9774 2.86757 13.0019 3.00008 13H21.0001C21.1326 13.0019 21.2642 12.9774 21.3871 12.928C21.5101 12.8785 21.622 12.8052 21.7164 12.7121C21.8108 12.6191 21.8857 12.5082 21.9368 12.386C21.988 12.2637 22.0143 12.1325 22.0143 12C22.0143 11.8675 21.988 11.7362 21.9368 11.614C21.8857 11.4917 21.8108 11.3809 21.7164 11.2878C21.622 11.1948 21.5101 11.1214 21.3871 11.072C21.2642 11.0226 21.1326 10.9981 21.0001 11H3.00008ZM3.00008 17C2.86757 16.9981 2.73601 17.0226 2.61304 17.072C2.49007 17.1214 2.37815 17.1948 2.28378 17.2878C2.18941 17.3809 2.11447 17.4917 2.06333 17.614C2.01218 17.7362 1.98584 17.8675 1.98584 18C1.98584 18.1325 2.01218 18.2637 2.06333 18.386C2.11447 18.5082 2.18941 18.6191 2.28378 18.7121C2.37815 18.8052 2.49007 18.8785 2.61304 18.928C2.73601 18.9774 2.86757 19.0019 3.00008 19H21.0001C21.1326 19.0019 21.2642 18.9774 21.3871 18.928C21.5101 18.8785 21.622 18.8052 21.7164 18.7121C21.8108 18.6191 21.8857 18.5082 21.9368 18.386C21.988 18.2637 22.0143 18.1325 22.0143 18C22.0143 17.8675 21.988 17.7362 21.9368 17.614C21.8857 17.4917 21.8108 17.3809 21.7164 17.2878C21.622 17.1948 21.5101 17.1214 21.3871 17.072C21.2642 17.0226 21.1326 16.9981 21.0001 17H3.00008Z" fill="white"/>
</svg>
