<svg width="420" height="300" viewBox="0 0 420 300" fill="none" xmlns="http://www.w3.org/2000/svg">
<path d="M170.93 2C183.329 2 193.349 11.9538 193.349 24.1936V228.237C193.349 236.024 189.225 243.249 182.472 247.264L100.259 296.137C98.2091 297.355 95.8618 298 93.4683 298C82.2564 298 76.2087 285.08 83.333 276.61L86.9957 272.255C97.8105 259.397 88.5504 239.935 71.7406 239.935H24.4186C12.0196 239.935 2 229.982 2 217.742V24.1936C2 11.9538 12.0197 2 24.4186 2H170.93ZM395.581 2C407.98 2 418 11.9538 418 24.1936V228.237C418 236.024 413.876 243.249 407.123 247.264L324.91 296.137C322.86 297.355 320.513 298 318.119 298C306.908 298 300.86 285.08 307.984 276.61L311.647 272.255C322.462 259.397 313.202 239.935 296.392 239.935H249.07C236.671 239.935 226.651 229.982 226.651 217.742V24.1936C226.651 11.9538 236.671 2 249.07 2H395.581Z" stroke="url(#paint0_linear_1005_6009)" stroke-width="4"/>
<path d="M170.93 2C183.329 2 193.349 11.9538 193.349 24.1936V228.237C193.349 236.024 189.225 243.249 182.472 247.264L100.259 296.137C98.2091 297.355 95.8618 298 93.4683 298C82.2564 298 76.2087 285.08 83.333 276.61L86.9957 272.255C97.8105 259.397 88.5504 239.935 71.7406 239.935H24.4186C12.0196 239.935 2 229.982 2 217.742V24.1936C2 11.9538 12.0197 2 24.4186 2H170.93ZM395.581 2C407.98 2 418 11.9538 418 24.1936V228.237C418 236.024 413.876 243.249 407.123 247.264L324.91 296.137C322.86 297.355 320.513 298 318.119 298C306.908 298 300.86 285.08 307.984 276.61L311.647 272.255C322.462 259.397 313.202 239.935 296.392 239.935H249.07C236.671 239.935 226.651 229.982 226.651 217.742V24.1936C226.651 11.9538 236.671 2 249.07 2H395.581Z" stroke="url(#paint1_linear_1005_6009)" stroke-opacity="0.8" stroke-width="4"/>
<defs>
<linearGradient id="paint0_linear_1005_6009" x1="210" y1="0" x2="210" y2="300" gradientUnits="userSpaceOnUse">
<stop stop-color="#F60109"/>
<stop offset="1" stop-color="#E45E12"/>
</linearGradient>
<linearGradient id="paint1_linear_1005_6009" x1="420" y1="300" x2="-0.249786" y2="0.350318" gradientUnits="userSpaceOnUse">
<stop offset="0.336036"/>
<stop offset="1" stop-opacity="0"/>
</linearGradient>
</defs>
</svg>
