<svg width="1920" height="1736" viewBox="0 0 1920 1736" fill="none" xmlns="http://www.w3.org/2000/svg">
<g filter="url(#filter0_f_3105_22086)">
<ellipse cx="1042.52" cy="867.903" rx="960" ry="280" transform="rotate(15 1042.52 867.903)" fill="#191919"/>
</g>
<path d="M1968.85 1116.11C1958.97 1152.97 1923.88 1181.43 1868.4 1201.18C1812.94 1220.91 1737.36 1231.85 1646.95 1233.84C1466.15 1237.82 1226.31 1205.99 970.312 1137.4C714.313 1068.8 490.696 976.445 336.106 882.6C258.805 835.674 198.814 788.405 160.658 743.589C122.478 698.745 106.323 656.558 116.2 619.696C126.077 582.834 161.161 554.376 216.648 534.63C272.1 514.896 347.688 503.956 438.096 501.967C618.898 497.99 858.734 529.815 1114.73 598.41C1370.73 667.005 1594.35 759.361 1748.94 853.207C1826.24 900.133 1886.23 947.401 1924.39 992.217C1962.57 1037.06 1978.72 1079.25 1968.85 1116.11Z" stroke="#191919" stroke-width="2"/>
<path d="M1968.85 1116.11C1958.97 1152.97 1923.88 1181.43 1868.4 1201.18C1812.94 1220.91 1737.36 1231.85 1646.95 1233.84C1466.15 1237.82 1226.31 1205.99 970.312 1137.4C714.313 1068.8 490.696 976.445 336.106 882.6C258.805 835.674 198.814 788.405 160.658 743.589C122.478 698.745 106.323 656.558 116.2 619.696C126.077 582.834 161.161 554.376 216.648 534.63C272.1 514.896 347.688 503.956 438.096 501.967C618.898 497.99 858.734 529.815 1114.73 598.41C1370.73 667.005 1594.35 759.361 1748.94 853.207C1826.24 900.133 1886.23 947.401 1924.39 992.217C1962.57 1037.06 1978.72 1079.25 1968.85 1116.11Z" stroke="url(#paint0_linear_3105_22086)" stroke-opacity="0.5" stroke-width="2"/>
<path d="M1768.63 1021.05C1761.4 1048.02 1734.76 1068.66 1692.2 1082.72C1649.69 1096.76 1591.59 1104.14 1521.96 1104.76C1382.73 1106.02 1197.67 1080.3 999.818 1027.28C801.963 974.266 628.841 904.014 508.887 833.31C448.904 797.954 402.266 762.515 372.475 729.101C342.651 695.65 329.898 664.452 337.124 637.481C344.351 610.511 370.995 589.869 413.549 575.812C456.056 561.77 514.165 554.397 583.79 553.77C723.025 552.516 908.079 578.237 1105.93 631.251C1303.79 684.266 1476.91 754.519 1596.86 825.223C1656.85 860.578 1703.48 896.017 1733.28 929.431C1763.1 962.882 1775.85 994.081 1768.63 1021.05Z" stroke="#191919" stroke-width="2"/>
<path d="M1768.63 1021.05C1761.4 1048.02 1734.76 1068.66 1692.2 1082.72C1649.69 1096.76 1591.59 1104.14 1521.96 1104.76C1382.73 1106.02 1197.67 1080.3 999.818 1027.28C801.963 974.266 628.841 904.014 508.887 833.31C448.904 797.954 402.266 762.515 372.475 729.101C342.651 695.65 329.898 664.452 337.124 637.481C344.351 610.511 370.995 589.869 413.549 575.812C456.056 561.77 514.165 554.397 583.79 553.77C723.025 552.516 908.079 578.237 1105.93 631.251C1303.79 684.266 1476.91 754.519 1596.86 825.223C1656.85 860.578 1703.48 896.017 1733.28 929.431C1763.1 962.882 1775.85 994.081 1768.63 1021.05Z" stroke="url(#paint1_linear_3105_22086)" stroke-opacity="0.5" stroke-width="2"/>
<path d="M1576.47 915.212C1574.38 923.009 1568.89 929.78 1560.17 935.505C1551.45 941.235 1539.56 945.879 1524.81 949.42C1495.32 956.502 1454.62 959.124 1405.58 957.356C1307.51 953.82 1176.33 932.744 1035.28 894.949C894.224 857.155 770.075 809.814 683.382 763.844C640.028 740.855 606.091 718.235 584.092 697.356C573.091 686.916 565.115 676.948 560.426 667.624C555.74 658.308 554.365 649.697 556.455 641.899C558.544 634.101 564.041 627.33 572.756 621.605C581.479 615.875 593.371 611.231 608.117 607.69C637.609 600.608 678.31 597.987 727.35 599.755C825.413 603.29 956.6 624.367 1097.65 662.161C1238.7 699.956 1362.85 747.296 1449.54 793.266C1492.9 816.255 1526.84 838.875 1548.84 859.754C1559.84 870.194 1567.81 880.163 1572.5 889.486C1577.19 898.802 1578.56 907.414 1576.47 915.212Z" stroke="#191919" stroke-width="2"/>
<path d="M1576.47 915.212C1574.38 923.009 1568.89 929.78 1560.17 935.505C1551.45 941.235 1539.56 945.879 1524.81 949.42C1495.32 956.502 1454.62 959.124 1405.58 957.356C1307.51 953.82 1176.33 932.744 1035.28 894.949C894.224 857.155 770.075 809.814 683.382 763.844C640.028 740.855 606.091 718.235 584.092 697.356C573.091 686.916 565.115 676.948 560.426 667.624C555.74 658.308 554.365 649.697 556.455 641.899C558.544 634.101 564.041 627.33 572.756 621.605C581.479 615.875 593.371 611.231 608.117 607.69C637.609 600.608 678.31 597.987 727.35 599.755C825.413 603.29 956.6 624.367 1097.65 662.161C1238.7 699.956 1362.85 747.296 1449.54 793.266C1492.9 816.255 1526.84 838.875 1548.84 859.754C1559.84 870.194 1567.81 880.163 1572.5 889.486C1577.19 898.802 1578.56 907.414 1576.47 915.212Z" stroke="url(#paint2_linear_3105_22086)" stroke-opacity="0.5" stroke-width="2"/>
<g filter="url(#filter1_f_3105_22086)">
<g style="mix-blend-mode:screen">
<path d="M276.996 399.777C275.004 400.217 273.031 398.963 272.589 396.981C272.15 394.99 273.403 393.017 275.385 392.575C277.377 392.135 279.349 393.389 279.792 395.371C280.231 397.362 278.978 399.335 276.996 399.777Z" fill="white"/>
</g>
<g style="mix-blend-mode:screen">
<path d="M468.077 492.272C468.019 492.256 467.84 492.188 467.793 491.978C467.784 491.934 467.752 491.822 467.842 491.681C467.929 491.549 468.05 491.519 468.085 491.508C468.15 491.494 468.213 491.491 468.271 491.506C468.329 491.522 468.508 491.59 468.555 491.799C468.603 492.009 468.473 492.223 468.263 492.27C468.198 492.283 468.144 492.29 468.086 492.274L468.077 492.272Z" fill="white"/>
</g>
<g style="mix-blend-mode:screen">
<path d="M114.086 519.506C111.863 519.998 109.669 518.602 109.166 516.387C108.674 514.164 110.07 511.97 112.285 511.466C114.501 510.963 116.702 512.37 117.206 514.586C117.697 516.809 116.302 519.003 114.086 519.506Z" fill="white"/>
</g>
<g style="mix-blend-mode:screen">
<path d="M518.222 684.387C517.43 684.174 516.481 683.506 516.208 682.284C515.987 681.293 516.344 680.539 516.578 680.167C516.813 679.795 517.347 679.152 518.338 678.931C518.789 678.834 519.233 678.839 519.667 678.955C520.459 679.168 521.409 679.836 521.682 681.058C521.903 682.049 521.546 682.803 521.311 683.175C521.077 683.547 520.542 684.19 519.551 684.411C519.101 684.508 518.657 684.503 518.222 684.387Z" fill="white"/>
</g>
<g style="mix-blend-mode:screen">
<path d="M635.29 475.016C634.449 474.791 633.457 474.09 633.168 472.812C632.938 471.777 633.308 470.976 633.557 470.587C633.806 470.198 634.371 469.521 635.406 469.291C635.878 469.19 636.344 469.191 636.807 469.315C637.648 469.54 638.64 470.241 638.929 471.519C639.159 472.554 638.789 473.355 638.54 473.744C638.291 474.133 637.726 474.81 636.691 475.04C636.219 475.141 635.753 475.141 635.29 475.016Z" fill="white"/>
</g>
<g style="mix-blend-mode:screen">
<path d="M430.054 531.688C429.377 531.507 428.577 530.941 428.347 529.906C428.157 529.068 428.464 528.426 428.661 528.116C428.857 527.806 429.315 527.256 430.153 527.067C430.528 526.981 430.909 526.99 431.276 527.088C431.952 527.269 432.753 527.836 432.983 528.87C433.172 529.708 432.866 530.351 432.669 530.66C432.472 530.97 432.014 531.52 431.176 531.71C430.792 531.793 430.421 531.787 430.054 531.688Z" fill="white"/>
</g>
<g style="mix-blend-mode:screen">
<path d="M659.539 716.232C658.747 716.019 657.797 715.351 657.524 714.129C657.303 713.138 657.66 712.384 657.895 712.012C658.126 711.65 658.664 710.997 659.655 710.776C660.105 710.679 660.549 710.684 660.984 710.8C661.776 711.013 662.725 711.681 662.998 712.903C663.339 714.413 662.377 715.915 660.87 716.247C660.42 716.343 659.976 716.338 659.541 716.222L659.539 716.232Z" fill="white"/>
</g>
<g style="mix-blend-mode:screen">
<path d="M721.487 655.054C719.339 655.535 717.218 654.179 716.744 652.044C716.264 649.896 717.619 647.775 719.754 647.301C721.902 646.821 724.023 648.176 724.497 650.311C724.977 652.459 723.622 654.581 721.487 655.054Z" fill="white"/>
</g>
<g style="mix-blend-mode:screen">
<path d="M508.117 583.858C507.28 584.047 506.44 583.512 506.25 582.674C506.06 581.837 506.596 580.997 507.433 580.807C508.271 580.617 509.111 581.153 509.301 581.991C509.49 582.828 508.955 583.668 508.117 583.858Z" fill="white"/>
</g>
<g style="mix-blend-mode:screen">
<path d="M565.246 517.118C563.33 517.547 561.436 516.346 561.007 514.43C560.579 512.514 561.78 510.62 563.696 510.191C565.612 509.763 567.506 510.964 567.935 512.88C568.363 514.796 567.162 516.69 565.246 517.118Z" fill="white"/>
</g>
<g style="mix-blend-mode:screen">
<path d="M354.741 480.921C353.825 481.132 352.916 480.546 352.705 479.631C352.495 478.715 353.081 477.806 353.996 477.595C354.912 477.385 355.821 477.971 356.031 478.886C356.242 479.802 355.656 480.711 354.741 480.921Z" fill="white"/>
</g>
<g style="mix-blend-mode:screen">
<path d="M267.533 717.142C265.542 717.581 263.569 716.328 263.127 714.346C262.687 712.355 263.941 710.382 265.922 709.94C267.914 709.5 269.887 710.753 270.329 712.735C270.769 714.727 269.515 716.7 267.533 717.142Z" fill="white"/>
</g>
<g style="mix-blend-mode:screen">
<path d="M459.824 619.459C457.302 620.025 454.799 618.433 454.232 615.91C453.666 613.388 455.258 610.885 457.78 610.318C460.303 609.752 462.806 611.344 463.373 613.866C463.939 616.389 462.347 618.892 459.824 619.459Z" fill="white"/>
</g>
<g style="mix-blend-mode:screen">
<path d="M781.242 597.101C780.807 596.985 780.294 596.62 780.14 595.957C779.955 595.142 780.476 594.318 781.301 594.136C781.545 594.077 781.79 594.091 782.021 594.153C782.456 594.269 782.969 594.634 783.123 595.297C783.236 595.803 783.076 596.206 782.919 596.443C782.762 596.681 782.471 596.996 781.962 597.118C781.718 597.177 781.471 597.173 781.239 597.111L781.242 597.101Z" fill="white"/>
</g>
<g style="mix-blend-mode:screen">
<path d="M383.859 684.204C381.568 684.719 379.285 683.269 378.771 680.977C378.259 678.676 379.707 676.404 381.998 675.889C384.289 675.375 386.571 676.825 387.086 679.116C387.598 681.417 386.15 683.69 383.859 684.204Z" fill="white"/>
</g>
<g style="mix-blend-mode:screen">
<path d="M291.957 592.511C288.74 593.233 285.555 591.21 284.833 587.993C284.111 584.777 286.135 581.592 289.351 580.87C292.568 580.148 295.752 582.171 296.474 585.388C297.197 588.604 295.173 591.789 291.957 592.511Z" fill="white"/>
</g>
<g style="mix-blend-mode:screen">
<path d="M376.629 357.047C374.944 357.424 373.271 356.365 372.895 354.68C372.518 352.995 373.577 351.322 375.262 350.945C376.947 350.569 378.62 351.628 378.996 353.313C379.373 354.998 378.314 356.67 376.629 357.047Z" fill="white"/>
</g>
<g style="mix-blend-mode:screen">
<path d="M599.978 648.208C599.225 648.007 598.328 647.373 598.059 646.214C597.845 645.276 598.194 644.552 598.411 644.206C598.628 643.861 599.145 643.244 600.08 643.039C600.508 642.946 600.933 642.946 601.348 643.058C602.102 643.259 602.998 643.893 603.258 645.05C603.472 645.987 603.123 646.711 602.906 647.057C602.689 647.403 602.172 648.02 601.237 648.225C600.809 648.317 600.387 648.308 599.981 648.199L599.978 648.208Z" fill="white"/>
</g>
<g style="mix-blend-mode:screen">
<path d="M637.961 385.99C637.046 386.2 636.136 385.615 635.926 384.699C635.716 383.783 636.301 382.874 637.217 382.664C638.132 382.454 639.042 383.039 639.252 383.954C639.462 384.87 638.877 385.78 637.961 385.99Z" fill="white"/>
</g>
<g style="mix-blend-mode:screen">
<path d="M634.172 540.816C633.103 541.057 632.042 540.38 631.8 539.311C631.559 538.242 632.237 537.181 633.305 536.94C634.374 536.698 635.435 537.376 635.677 538.445C635.918 539.513 635.241 540.574 634.172 540.816Z" fill="white"/>
</g>
<g style="mix-blend-mode:screen">
<path d="M472.21 782.835C469.225 783.506 466.261 781.624 465.6 778.642C464.93 775.657 466.811 772.692 469.794 772.032C472.776 771.371 475.743 773.243 476.404 776.226C477.074 779.211 475.193 782.175 472.21 782.835Z" fill="white"/>
</g>
<g style="mix-blend-mode:screen">
<path d="M510.315 437.476C507.177 438.177 504.062 436.204 503.36 433.065C502.658 429.927 504.632 426.811 507.77 426.11C510.909 425.408 514.024 427.382 514.726 430.52C515.428 433.659 513.454 436.774 510.315 437.476Z" fill="white"/>
</g>
<g style="mix-blend-mode:screen">
<path d="M762.848 525.196C761.316 525.541 759.794 524.575 759.459 523.046C759.113 521.514 760.08 519.992 761.609 519.657C763.141 519.311 764.662 520.278 764.998 521.807C765.343 523.339 764.377 524.86 762.848 525.196Z" fill="white"/>
</g>
</g>
<g style="mix-blend-mode:screen">
<path d="M276.779 398.801C275.324 399.121 273.887 398.205 273.565 396.765C273.245 395.309 274.162 393.873 275.602 393.551C277.057 393.23 278.493 394.147 278.815 395.587C279.136 397.042 278.219 398.479 276.779 398.801Z" fill="#191919"/>
<path d="M276.779 398.801C275.324 399.121 273.887 398.205 273.565 396.765C273.245 395.309 274.162 393.873 275.602 393.551C277.057 393.23 278.493 394.147 278.815 395.587C279.136 397.042 278.219 398.479 276.779 398.801Z" stroke="black" stroke-width="2"/>
</g>
<g style="mix-blend-mode:screen">
<path d="M468.225 491.924L468.503 492.1C468.554 492.019 468.576 491.921 468.559 491.821L468.215 491.892L468.225 491.924ZM468.225 491.924L468.188 491.9L468.187 491.898M468.241 492.274C468.185 492.285 468.138 492.288 468.086 492.274L468.077 492.272C468.074 492.271 468.07 492.27 468.067 492.269C468.001 492.249 467.838 492.177 467.793 491.978L468.165 491.902L468.165 491.902L468.241 492.274ZM468.495 492.112C468.455 492.17 468.4 492.217 468.334 492.246L468.23 491.937L468.495 492.112ZM468.555 491.799C468.556 491.801 468.556 491.803 468.556 491.805L468.212 491.883L468.21 491.878L468.2 491.849L468.194 491.832L468.189 491.815L468.142 491.678L468.107 491.504C468.164 491.494 468.22 491.492 468.271 491.506C468.274 491.507 468.278 491.508 468.281 491.509C468.284 491.51 468.287 491.511 468.291 491.512C468.361 491.536 468.512 491.61 468.555 491.799Z" fill="#191919"/>
<path d="M468.225 491.924L468.503 492.1C468.554 492.019 468.576 491.921 468.559 491.821L468.215 491.892L468.225 491.924ZM468.225 491.924L468.188 491.9L468.187 491.898M468.241 492.274C468.185 492.285 468.138 492.288 468.086 492.274L468.077 492.272C468.074 492.271 468.07 492.27 468.067 492.269C468.001 492.249 467.838 492.177 467.793 491.978L468.165 491.902L468.165 491.902L468.241 492.274ZM468.495 492.112C468.455 492.17 468.4 492.217 468.334 492.246L468.23 491.937L468.495 492.112ZM468.555 491.799C468.556 491.801 468.556 491.803 468.556 491.805L468.212 491.883L468.21 491.878L468.2 491.849L468.194 491.832L468.189 491.815L468.142 491.678L468.107 491.504C468.164 491.494 468.22 491.492 468.271 491.506C468.274 491.507 468.278 491.508 468.281 491.509C468.284 491.51 468.287 491.511 468.291 491.512C468.361 491.536 468.512 491.61 468.555 491.799Z" stroke="black" stroke-width="2"/>
</g>
<g style="mix-blend-mode:screen">
<path d="M116.23 514.805C116.6 516.488 115.545 518.148 113.867 518.531C112.184 518.901 110.525 517.846 110.141 516.168C109.771 514.484 110.827 512.823 112.507 512.442C114.175 512.062 115.845 513.121 116.23 514.805Z" fill="#191919"/>
<path d="M116.23 514.805C116.6 516.488 115.545 518.148 113.867 518.531C112.184 518.901 110.525 517.846 110.141 516.168C109.771 514.484 110.827 512.823 112.507 512.442C114.175 512.062 115.845 513.121 116.23 514.805Z" stroke="black" stroke-width="2"/>
</g>
<g style="mix-blend-mode:screen">
<path d="M518.481 683.421C517.963 683.282 517.358 682.845 517.184 682.066L520.706 681.276C520.847 681.912 520.623 682.39 520.465 682.642C520.313 682.884 519.973 683.291 519.337 683.434C519.032 683.499 518.751 683.493 518.481 683.421ZM517.184 682.066C517.042 681.43 517.266 680.952 517.425 680.7C517.577 680.458 517.917 680.051 518.552 679.908C518.857 679.843 519.139 679.849 519.408 679.921C519.927 680.06 520.531 680.497 520.706 681.276L517.184 682.066Z" fill="#191919"/>
<path d="M518.481 683.421C517.963 683.282 517.358 682.845 517.184 682.066L520.706 681.276C520.847 681.912 520.623 682.39 520.465 682.642C520.313 682.884 519.973 683.291 519.337 683.434C519.032 683.499 518.751 683.493 518.481 683.421ZM517.184 682.066C517.042 681.43 517.266 680.952 517.425 680.7C517.577 680.458 517.917 680.051 518.552 679.908C518.857 679.843 519.139 679.849 519.408 679.921C519.927 680.06 520.531 680.497 520.706 681.276L517.184 682.066Z" stroke="black" stroke-width="2"/>
</g>
<g style="mix-blend-mode:screen">
<path d="M635.549 474.05C634.982 473.899 634.334 473.429 634.144 472.593C633.992 471.91 634.235 471.383 634.399 471.126C634.57 470.86 634.941 470.42 635.619 470.268C635.952 470.197 636.255 470.202 636.548 470.281C637.115 470.433 637.763 470.902 637.953 471.738C638.104 472.421 637.862 472.948 637.698 473.205C637.527 473.471 637.156 473.911 636.478 474.063C636.145 474.134 635.842 474.129 635.549 474.05Z" fill="#191919"/>
<path d="M635.549 474.05C634.982 473.899 634.334 473.429 634.144 472.593C633.992 471.91 634.235 471.383 634.399 471.126C634.57 470.86 634.941 470.42 635.619 470.268C635.952 470.197 636.255 470.202 636.548 470.281C637.115 470.433 637.763 470.902 637.953 471.738C638.104 472.421 637.862 472.948 637.698 473.205C637.527 473.471 637.156 473.911 636.478 474.063C636.145 474.134 635.842 474.129 635.549 474.05Z" stroke="black" stroke-width="2"/>
</g>
<g style="mix-blend-mode:screen">
<path d="M429.323 529.689L429.323 529.689L429.322 529.685C429.214 529.207 429.385 528.841 429.505 528.653C429.621 528.469 429.888 528.152 430.374 528.042L430.374 528.042L430.376 528.041C430.59 527.992 430.805 527.997 431.017 528.054C431.418 528.161 431.875 528.495 432.006 529.087L432.006 529.087L432.007 529.091C432.116 529.569 431.945 529.935 431.825 530.124C431.708 530.307 431.443 530.622 430.96 530.733C430.725 530.783 430.517 530.777 430.312 530.722C429.911 530.615 429.455 530.281 429.323 529.689Z" fill="#191919"/>
<path d="M429.323 529.689L429.323 529.689L429.322 529.685C429.214 529.207 429.385 528.841 429.505 528.653C429.621 528.469 429.888 528.152 430.374 528.042L430.374 528.042L430.376 528.041C430.59 527.992 430.805 527.997 431.017 528.054C431.418 528.161 431.875 528.495 432.006 529.087L432.006 529.087L432.007 529.091C432.116 529.569 431.945 529.935 431.825 530.124C431.708 530.307 431.443 530.622 430.96 530.733C430.725 530.783 430.517 530.777 430.312 530.722C429.911 530.615 429.455 530.281 429.323 529.689Z" stroke="black" stroke-width="2"/>
</g>
<g style="mix-blend-mode:screen">
<path d="M660.658 715.269C661.624 715.056 662.24 714.089 662.022 713.124L662.022 713.121C661.848 712.342 661.243 711.905 660.725 711.766C660.455 711.694 660.174 711.688 659.869 711.753C659.239 711.894 658.895 712.305 658.739 712.548C658.581 712.8 658.359 713.278 658.5 713.911L660.658 715.269ZM660.658 715.269C660.352 715.335 660.07 715.328 659.8 715.256L659.623 715.208C659.151 715.026 658.655 714.604 658.5 713.911L660.658 715.269Z" fill="#191919"/>
<path d="M660.658 715.269C661.624 715.056 662.24 714.089 662.022 713.124L662.022 713.121C661.848 712.342 661.243 711.905 660.725 711.766C660.455 711.694 660.174 711.688 659.869 711.753C659.239 711.894 658.895 712.305 658.739 712.548C658.581 712.8 658.359 713.278 658.5 713.911L660.658 715.269ZM660.658 715.269C660.352 715.335 660.07 715.328 659.8 715.256L659.623 715.208C659.151 715.026 658.655 714.604 658.5 713.911L660.658 715.269Z" stroke="black" stroke-width="2"/>
</g>
<g style="mix-blend-mode:screen">
<path d="M721.27 654.078L721.268 654.078C719.661 654.438 718.074 653.423 717.72 651.827L717.72 651.826C717.36 650.218 718.375 648.632 719.971 648.278L719.971 648.278L719.973 648.277C721.58 647.918 723.167 648.932 723.52 650.528L723.521 650.53C723.881 652.137 722.866 653.724 721.27 654.078Z" fill="#191919"/>
<path d="M721.27 654.078L721.268 654.078C719.661 654.438 718.074 653.423 717.72 651.827L717.72 651.826C717.36 650.218 718.375 648.632 719.971 648.278L719.971 648.278L719.973 648.277C721.58 647.918 723.167 648.932 723.52 650.528L723.521 650.53C723.881 652.137 722.866 653.724 721.27 654.078Z" stroke="black" stroke-width="2"/>
</g>
<g style="mix-blend-mode:screen">
<path d="M507.896 582.882C507.603 582.949 507.294 582.758 507.225 582.453C507.159 582.16 507.35 581.851 507.654 581.782C507.948 581.716 508.256 581.907 508.325 582.211C508.392 582.505 508.201 582.813 507.896 582.882Z" fill="#191919"/>
<path d="M507.896 582.882C507.603 582.949 507.294 582.758 507.225 582.453C507.159 582.16 507.35 581.851 507.654 581.782C507.948 581.716 508.256 581.907 508.325 582.211C508.392 582.505 508.201 582.813 507.896 582.882Z" stroke="black" stroke-width="2"/>
</g>
<g style="mix-blend-mode:screen">
<path d="M565.028 516.143C563.65 516.451 562.291 515.589 561.983 514.212C561.675 512.834 562.537 511.475 563.914 511.167C565.292 510.859 566.651 511.721 566.959 513.098C567.267 514.476 566.405 515.835 565.028 516.143Z" fill="#191919"/>
<path d="M565.028 516.143C563.65 516.451 562.291 515.589 561.983 514.212C561.675 512.834 562.537 511.475 563.914 511.167C565.292 510.859 566.651 511.721 566.959 513.098C567.267 514.476 566.405 515.835 565.028 516.143Z" stroke="black" stroke-width="2"/>
</g>
<g style="mix-blend-mode:screen">
<path d="M354.517 479.947C354.153 480.03 353.77 479.798 353.68 479.407C353.597 479.043 353.829 478.66 354.22 478.57C354.584 478.487 354.967 478.719 355.057 479.11C355.14 479.474 354.908 479.857 354.517 479.947Z" fill="#191919"/>
<path d="M354.517 479.947C354.153 480.03 353.77 479.798 353.68 479.407C353.597 479.043 353.829 478.66 354.22 478.57C354.584 478.487 354.967 478.719 355.057 479.11C355.14 479.474 354.908 479.857 354.517 479.947Z" stroke="black" stroke-width="2"/>
</g>
<g style="mix-blend-mode:screen">
<path d="M267.317 716.166C265.861 716.486 264.425 715.57 264.103 714.13C263.782 712.674 264.699 711.238 266.139 710.916C267.594 710.595 269.031 711.512 269.353 712.952C269.673 714.407 268.757 715.844 267.317 716.166Z" fill="#191919"/>
<path d="M267.317 716.166C265.861 716.486 264.425 715.57 264.103 714.13C263.782 712.674 264.699 711.238 266.139 710.916C267.594 710.595 269.031 711.512 269.353 712.952C269.673 714.407 268.757 715.844 267.317 716.166Z" stroke="black" stroke-width="2"/>
</g>
<g style="mix-blend-mode:screen">
<path d="M459.605 618.483C457.624 618.928 455.654 617.677 455.208 615.691C454.763 613.71 456.014 611.74 457.999 611.294C459.981 610.849 461.951 612.1 462.397 614.086C462.842 616.067 461.591 618.037 459.605 618.483Z" fill="#191919"/>
<path d="M459.605 618.483C457.624 618.928 455.654 617.677 455.208 615.691C454.763 613.71 456.014 611.74 457.999 611.294C459.981 610.849 461.951 612.1 462.397 614.086C462.842 616.067 461.591 618.037 459.605 618.483Z" stroke="black" stroke-width="2"/>
</g>
<g style="mix-blend-mode:screen">
<path d="M781.727 596.147C781.68 596.158 781.634 596.162 781.591 596.16L781.501 596.136C781.344 596.094 781.169 595.962 781.115 595.734C781.055 595.462 781.231 595.175 781.517 595.112L781.527 595.11L781.537 595.108C781.592 595.094 781.665 595.093 781.763 595.119C781.919 595.161 782.093 595.292 782.148 595.519C782.185 595.694 782.132 595.82 782.085 595.892C782.018 595.994 781.915 596.101 781.728 596.146L781.727 596.147Z" fill="#191919"/>
<path d="M781.727 596.147C781.68 596.158 781.634 596.162 781.591 596.16L781.501 596.136C781.344 596.094 781.169 595.962 781.115 595.734C781.055 595.462 781.231 595.175 781.517 595.112L781.527 595.11L781.537 595.108C781.592 595.094 781.665 595.093 781.763 595.119C781.919 595.161 782.093 595.292 782.148 595.519C782.185 595.694 782.132 595.82 782.085 595.892C782.018 595.994 781.915 596.101 781.728 596.146L781.727 596.147Z" stroke="black" stroke-width="2"/>
</g>
<g style="mix-blend-mode:screen">
<path d="M383.64 683.229C381.89 683.622 380.141 682.513 379.747 680.759C379.355 678.997 380.464 677.259 382.217 676.865C383.967 676.472 385.716 677.581 386.11 679.334C386.502 681.096 385.393 682.835 383.64 683.229Z" fill="#191919"/>
<path d="M383.64 683.229C381.89 683.622 380.141 682.513 379.747 680.759C379.355 678.997 380.464 677.259 382.217 676.865C383.967 676.472 385.716 677.581 386.11 679.334C386.502 681.096 385.393 682.835 383.64 683.229Z" stroke="black" stroke-width="2"/>
</g>
<g style="mix-blend-mode:screen">
<path d="M291.738 591.535C289.062 592.136 286.411 590.454 285.809 587.774C285.208 585.098 286.891 582.447 289.57 581.846C292.246 581.245 294.897 582.927 295.499 585.607C296.1 588.283 294.417 590.934 291.738 591.535Z" fill="#191919"/>
<path d="M291.738 591.535C289.062 592.136 286.411 590.454 285.809 587.774C285.208 585.098 286.891 582.447 289.57 581.846C292.246 581.245 294.897 582.927 295.499 585.607C296.1 588.283 294.417 590.934 291.738 591.535Z" stroke="black" stroke-width="2"/>
</g>
<g style="mix-blend-mode:screen">
<path d="M376.411 356.071C375.264 356.328 374.126 355.606 373.87 354.462C373.614 353.315 374.335 352.177 375.48 351.921C376.627 351.665 377.764 352.386 378.02 353.531C378.277 354.678 377.556 355.815 376.411 356.071Z" fill="#191919"/>
<path d="M376.411 356.071C375.264 356.328 374.126 355.606 373.87 354.462C373.614 353.315 374.335 352.177 375.48 351.921C376.627 351.665 377.764 352.386 378.02 353.531C378.277 354.678 377.556 355.815 376.411 356.071Z" stroke="black" stroke-width="2"/>
</g>
<g style="mix-blend-mode:screen">
<path d="M602.282 645.269L602.282 645.269L602.283 645.273C602.414 645.846 602.205 646.292 602.059 646.526C601.926 646.739 601.604 647.12 601.025 647.248C600.747 647.307 600.487 647.299 600.24 647.233L600.07 647.187C599.637 647.018 599.183 646.63 599.034 645.989C598.903 645.416 599.112 644.971 599.258 644.738C599.392 644.525 599.713 644.143 600.292 644.016C600.584 643.953 600.846 643.958 601.089 644.023C601.568 644.152 602.121 644.553 602.282 645.269Z" fill="#191919"/>
<path d="M602.282 645.269L602.282 645.269L602.283 645.273C602.414 645.846 602.205 646.292 602.059 646.526C601.926 646.739 601.604 647.12 601.025 647.248C600.747 647.307 600.487 647.299 600.24 647.233L600.07 647.187C599.637 647.018 599.183 646.63 599.034 645.989C598.903 645.416 599.112 644.971 599.258 644.738C599.392 644.525 599.713 644.143 600.292 644.016C600.584 643.953 600.846 643.958 601.089 644.023C601.568 644.152 602.121 644.553 602.282 645.269Z" stroke="black" stroke-width="2"/>
</g>
<g style="mix-blend-mode:screen">
<path d="M637.738 385.015C637.374 385.099 636.991 384.866 636.901 384.475C636.817 384.112 637.049 383.728 637.441 383.638C637.804 383.555 638.188 383.787 638.277 384.178C638.361 384.542 638.129 384.925 637.738 385.015Z" fill="#191919"/>
<path d="M637.738 385.015C637.374 385.099 636.991 384.866 636.901 384.475C636.817 384.112 637.049 383.728 637.441 383.638C637.804 383.555 638.188 383.787 638.277 384.178C638.361 384.542 638.129 384.925 637.738 385.015Z" stroke="black" stroke-width="2"/>
</g>
<g style="mix-blend-mode:screen">
<path d="M633.951 539.84C633.427 539.959 632.897 539.627 632.776 539.09C632.657 538.566 632.99 538.036 633.526 537.915C634.05 537.796 634.58 538.129 634.701 538.665C634.82 539.189 634.488 539.719 633.951 539.84Z" fill="#191919"/>
<path d="M633.951 539.84C633.427 539.959 632.897 539.627 632.776 539.09C632.657 538.566 632.99 538.036 633.526 537.915C634.05 537.796 634.58 538.129 634.701 538.665C634.82 539.189 634.488 539.719 633.951 539.84Z" stroke="black" stroke-width="2"/>
</g>
<g style="mix-blend-mode:screen">
<path d="M471.994 781.859L471.991 781.86C469.545 782.409 467.117 780.867 466.576 778.426L466.576 778.426L466.576 778.423C466.027 775.976 467.569 773.549 470.01 773.008C472.459 772.466 474.887 774.004 475.427 776.442L475.428 776.445C475.977 778.891 474.435 781.318 471.994 781.859Z" fill="#191919"/>
<path d="M471.994 781.859L471.991 781.86C469.545 782.409 467.117 780.867 466.576 778.426L466.576 778.426L466.576 778.423C466.027 775.976 467.569 773.549 470.01 773.008C472.459 772.466 474.887 774.004 475.427 776.442L475.428 776.445C475.977 778.891 474.435 781.318 471.994 781.859Z" stroke="black" stroke-width="2"/>
</g>
<g style="mix-blend-mode:screen">
<path d="M510.097 436.5C507.497 437.081 504.917 435.446 504.336 432.847C503.755 430.247 505.39 427.667 507.989 427.086C510.589 426.504 513.169 428.14 513.75 430.739C514.331 433.339 512.696 435.919 510.097 436.5Z" fill="#191919"/>
<path d="M510.097 436.5C507.497 437.081 504.917 435.446 504.336 432.847C503.755 430.247 505.39 427.667 507.989 427.086C510.589 426.504 513.169 428.14 513.75 430.739C514.331 433.339 512.696 435.919 510.097 436.5Z" stroke="black" stroke-width="2"/>
</g>
<g style="mix-blend-mode:screen">
<path d="M762.633 524.219L762.633 524.219L762.628 524.22C761.635 524.444 760.652 523.817 760.435 522.831L760.435 522.831L760.434 522.826C760.21 521.833 760.838 520.85 761.824 520.633L761.824 520.633L761.829 520.632C762.821 520.408 763.805 521.036 764.021 522.022L764.021 522.022L764.023 522.027C764.246 523.019 763.619 524.003 762.633 524.219Z" fill="#191919"/>
<path d="M762.633 524.219L762.633 524.219L762.628 524.22C761.635 524.444 760.652 523.817 760.435 522.831L760.435 522.831L760.434 522.826C760.21 521.833 760.838 520.85 761.824 520.633L761.824 520.633L761.829 520.632C762.821 520.408 763.805 521.036 764.021 522.022L764.021 522.022L764.023 522.027C764.246 523.019 763.619 524.003 762.633 524.219Z" stroke="black" stroke-width="2"/>
</g>
<g filter="url(#filter2_f_3105_22086)">
<g style="mix-blend-mode:screen">
<path d="M1376.1 1247.28C1374.59 1245.9 1372.26 1246 1370.88 1247.5C1369.51 1249 1369.61 1251.34 1371.1 1252.71C1372.61 1254.09 1374.94 1253.99 1376.31 1252.49C1377.69 1250.99 1377.59 1248.65 1376.1 1247.28Z" fill="white"/>
</g>
<g style="mix-blend-mode:screen">
<path d="M1587.83 1262.72C1587.77 1262.7 1587.58 1262.67 1587.43 1262.83C1587.4 1262.86 1587.32 1262.94 1587.33 1263.11C1587.34 1263.27 1587.43 1263.36 1587.45 1263.38C1587.5 1263.43 1587.55 1263.46 1587.61 1263.48C1587.67 1263.49 1587.86 1263.52 1588 1263.37C1588.15 1263.21 1588.14 1262.96 1587.99 1262.81C1587.94 1262.77 1587.89 1262.74 1587.83 1262.72L1587.83 1262.72Z" fill="white"/>
</g>
<g style="mix-blend-mode:screen">
<path d="M1294.88 1062.14C1293.2 1060.6 1290.6 1060.71 1289.06 1062.38C1287.52 1064.06 1287.63 1066.65 1289.3 1068.2C1290.97 1069.74 1293.58 1069.62 1295.12 1067.96C1296.66 1066.28 1296.54 1063.68 1294.88 1062.14Z" fill="white"/>
</g>
<g style="mix-blend-mode:screen">
<path d="M1727.31 1121.41C1726.52 1121.2 1725.36 1121.31 1724.51 1122.23C1723.83 1122.98 1723.76 1123.81 1723.78 1124.25C1723.79 1124.68 1723.94 1125.51 1724.68 1126.2C1725.02 1126.51 1725.41 1126.72 1725.85 1126.84C1726.64 1127.05 1727.79 1126.95 1728.64 1126.03C1729.33 1125.28 1729.4 1124.45 1729.38 1124.01C1729.36 1123.57 1729.22 1122.74 1728.47 1122.06C1728.13 1121.75 1727.74 1121.53 1727.31 1121.41Z" fill="white"/>
</g>
<g style="mix-blend-mode:screen">
<path d="M1724.01 1361.27C1723.17 1361.04 1721.96 1361.15 1721.07 1362.12C1720.35 1362.9 1720.27 1363.78 1720.29 1364.24C1720.31 1364.7 1720.46 1365.57 1721.25 1366.28C1721.6 1366.61 1722.01 1366.84 1722.47 1366.96C1723.31 1367.19 1724.52 1367.08 1725.41 1366.12C1726.13 1365.33 1726.21 1364.46 1726.19 1363.99C1726.17 1363.53 1726.02 1362.66 1725.23 1361.95C1724.88 1361.62 1724.47 1361.39 1724.01 1361.27Z" fill="white"/>
</g>
<g style="mix-blend-mode:screen">
<path d="M1574.6 1209.57C1573.93 1209.39 1572.95 1209.48 1572.24 1210.26C1571.65 1210.89 1571.6 1211.6 1571.61 1211.97C1571.63 1212.33 1571.75 1213.04 1572.38 1213.62C1572.66 1213.88 1573 1214.07 1573.36 1214.17C1574.04 1214.35 1575.02 1214.26 1575.73 1213.47C1576.32 1212.84 1576.37 1212.13 1576.36 1211.77C1576.34 1211.4 1576.22 1210.7 1575.59 1210.11C1575.3 1209.85 1574.97 1209.67 1574.6 1209.57Z" fill="white"/>
</g>
<g style="mix-blend-mode:screen">
<path d="M1865.62 1164.49C1864.82 1164.28 1863.67 1164.39 1862.82 1165.31C1862.13 1166.05 1862.07 1166.89 1862.08 1167.33C1862.1 1167.75 1862.24 1168.59 1862.99 1169.28C1863.33 1169.59 1863.72 1169.8 1864.15 1169.92C1864.94 1170.13 1866.1 1170.03 1866.95 1169.11C1868 1167.97 1867.92 1166.19 1866.78 1165.15C1866.44 1164.84 1866.05 1164.62 1865.61 1164.5L1865.62 1164.49Z" fill="white"/>
</g>
<g style="mix-blend-mode:screen">
<path d="M1888.68 1248.45C1887.06 1246.96 1884.54 1247.07 1883.06 1248.68C1881.57 1250.3 1881.69 1252.82 1883.3 1254.3C1884.92 1255.79 1887.43 1255.67 1888.91 1254.06C1890.4 1252.44 1890.29 1249.93 1888.68 1248.45Z" fill="white"/>
</g>
<g style="mix-blend-mode:screen">
<path d="M1668.29 1203.42C1667.66 1202.84 1666.67 1202.88 1666.09 1203.51C1665.5 1204.14 1665.55 1205.14 1666.18 1205.72C1666.81 1206.3 1667.8 1206.26 1668.39 1205.63C1668.97 1205 1668.92 1204 1668.29 1203.42Z" fill="white"/>
</g>
<g style="mix-blend-mode:screen">
<path d="M1684.4 1289.78C1682.95 1288.45 1680.71 1288.55 1679.38 1289.99C1678.06 1291.44 1678.15 1293.68 1679.59 1295.01C1681.04 1296.34 1683.28 1296.24 1684.61 1294.8C1685.94 1293.35 1685.84 1291.11 1684.4 1289.78Z" fill="white"/>
</g>
<g style="mix-blend-mode:screen">
<path d="M1484 1215.88C1483.31 1215.24 1482.23 1215.29 1481.59 1215.98C1480.95 1216.67 1481 1217.75 1481.69 1218.39C1482.38 1219.03 1483.46 1218.97 1484.1 1218.29C1484.74 1217.6 1484.69 1216.52 1484 1215.88Z" fill="white"/>
</g>
<g style="mix-blend-mode:screen">
<path d="M1526.58 967.702C1525.08 966.326 1522.74 966.425 1521.37 967.92C1519.99 969.425 1520.09 971.76 1521.59 973.134C1523.09 974.511 1525.43 974.412 1526.8 972.916C1528.18 971.411 1528.08 969.076 1526.58 967.702Z" fill="white"/>
</g>
<g style="mix-blend-mode:screen">
<path d="M1644.27 1148.44C1642.37 1146.69 1639.41 1146.82 1637.65 1148.72C1635.9 1150.62 1636.03 1153.59 1637.93 1155.34C1639.83 1157.09 1642.8 1156.96 1644.55 1155.06C1646.3 1153.16 1646.17 1150.2 1644.27 1148.44Z" fill="white"/>
</g>
<g style="mix-blend-mode:screen">
<path d="M1911.45 1328.51C1911.01 1328.4 1910.39 1328.46 1909.92 1328.95C1909.35 1329.57 1909.39 1330.54 1910.02 1331.11C1910.2 1331.29 1910.42 1331.4 1910.65 1331.46C1911.08 1331.57 1911.71 1331.51 1912.18 1331.02C1912.53 1330.64 1912.59 1330.21 1912.57 1329.92C1912.56 1329.64 1912.46 1329.22 1912.08 1328.86C1911.9 1328.69 1911.68 1328.57 1911.45 1328.5L1911.45 1328.51Z" fill="white"/>
</g>
<g style="mix-blend-mode:screen">
<path d="M1610.86 1054.39C1609.13 1052.8 1606.43 1052.91 1604.84 1054.64C1603.24 1056.38 1603.36 1059.07 1605.09 1060.66C1606.81 1062.25 1609.52 1062.14 1611.11 1060.41C1612.7 1058.67 1612.58 1055.98 1610.86 1054.39Z" fill="white"/>
</g>
<g style="mix-blend-mode:screen">
<path d="M1485.42 1087.85C1483 1085.61 1479.23 1085.77 1476.99 1088.2C1474.76 1090.62 1474.92 1094.39 1477.34 1096.63C1479.77 1098.86 1483.54 1098.7 1485.77 1096.28C1488 1093.85 1487.85 1090.08 1485.42 1087.85Z" fill="white"/>
</g>
<g style="mix-blend-mode:screen">
<path d="M1441.02 1334.1C1439.75 1332.93 1437.77 1333.01 1436.6 1334.28C1435.43 1335.55 1435.51 1337.53 1436.78 1338.7C1438.05 1339.87 1440.03 1339.79 1441.2 1338.52C1442.37 1337.25 1442.29 1335.27 1441.02 1334.1Z" fill="white"/>
</g>
<g style="mix-blend-mode:screen">
<path d="M1780.02 1193.62C1779.27 1193.42 1778.18 1193.52 1777.36 1194.39C1776.71 1195.1 1776.65 1195.9 1776.67 1196.3C1776.68 1196.71 1776.82 1197.51 1777.53 1198.15C1777.85 1198.44 1778.22 1198.66 1778.63 1198.77C1779.39 1198.97 1780.48 1198.87 1781.28 1198C1781.94 1197.29 1782 1196.49 1781.98 1196.08C1781.97 1195.68 1781.83 1194.88 1781.12 1194.24C1780.8 1193.94 1780.43 1193.74 1780.02 1193.63L1780.02 1193.62Z" fill="white"/>
</g>
<g style="mix-blend-mode:screen">
<path d="M1681.81 1439.7C1681.12 1439.06 1680.04 1439.11 1679.4 1439.8C1678.76 1440.49 1678.81 1441.57 1679.5 1442.21C1680.19 1442.85 1681.27 1442.8 1681.91 1442.11C1682.55 1441.42 1682.5 1440.34 1681.81 1439.7Z" fill="white"/>
</g>
<g style="mix-blend-mode:screen">
<path d="M1755.94 1303.72C1755.13 1302.98 1753.88 1303.04 1753.13 1303.84C1752.39 1304.65 1752.45 1305.9 1753.25 1306.65C1754.06 1307.39 1755.31 1307.34 1756.06 1306.53C1756.8 1305.73 1756.74 1304.47 1755.94 1303.72Z" fill="white"/>
</g>
<g style="mix-blend-mode:screen">
<path d="M1736.69 1013.15C1734.44 1011.08 1730.93 1011.22 1728.87 1013.48C1726.79 1015.73 1726.94 1019.23 1729.19 1021.3C1731.45 1023.36 1734.95 1023.22 1737.01 1020.97C1739.09 1018.72 1738.94 1015.21 1736.69 1013.15Z" fill="white"/>
</g>
<g style="mix-blend-mode:screen">
<path d="M1597.01 1331.29C1594.64 1329.11 1590.96 1329.27 1588.78 1331.63C1586.6 1334 1586.75 1337.69 1589.12 1339.86C1591.49 1342.04 1595.17 1341.89 1597.35 1339.52C1599.53 1337.15 1599.37 1333.47 1597.01 1331.29Z" fill="white"/>
</g>
<g style="mix-blend-mode:screen">
<path d="M1859.57 1381.59C1858.41 1380.52 1856.61 1380.6 1855.56 1381.76C1854.49 1382.91 1854.57 1384.71 1855.72 1385.77C1856.88 1386.83 1858.68 1386.76 1859.73 1385.6C1860.8 1384.45 1860.72 1382.64 1859.57 1381.59Z" fill="white"/>
</g>
</g>
<g style="mix-blend-mode:screen">
<path d="M1375.08 1248.39C1374.19 1247.57 1372.8 1247.63 1371.99 1248.51C1371.17 1249.41 1371.23 1250.79 1372.11 1251.61C1373.01 1252.43 1374.4 1252.36 1375.21 1251.48C1376.03 1250.58 1375.97 1249.2 1375.08 1248.39Z" fill="#191919"/>
<path d="M1375.08 1248.39C1374.19 1247.57 1372.8 1247.63 1371.99 1248.51C1371.17 1249.41 1371.23 1250.79 1372.11 1251.61C1373.01 1252.43 1374.4 1252.36 1375.21 1251.48C1376.03 1250.58 1375.97 1249.2 1375.08 1248.39Z" stroke="black" stroke-width="3"/>
</g>
<g style="mix-blend-mode:screen">
<path d="M1587.78 1263.09L1588.11 1263.08C1588.11 1263.17 1588.08 1263.27 1588.02 1263.35L1587.75 1263.11L1587.78 1263.09ZM1587.78 1263.09L1587.74 1263.09L1587.73 1263.1M1587.97 1262.8C1587.93 1262.76 1587.89 1262.73 1587.83 1262.72L1587.83 1262.72C1587.82 1262.72 1587.82 1262.72 1587.82 1262.71C1587.75 1262.7 1587.57 1262.68 1587.43 1262.83L1587.72 1263.08L1587.72 1263.08L1587.97 1262.8ZM1588.11 1263.06C1588.1 1262.99 1588.08 1262.93 1588.04 1262.87L1587.79 1263.08L1588.11 1263.06ZM1588 1263.37C1588 1263.36 1588.01 1263.36 1588.01 1263.36L1587.75 1263.12L1587.74 1263.12L1587.72 1263.14L1587.71 1263.16L1587.69 1263.17L1587.59 1263.26L1587.47 1263.4C1587.51 1263.43 1587.56 1263.46 1587.61 1263.48C1587.61 1263.48 1587.62 1263.48 1587.62 1263.48C1587.62 1263.48 1587.63 1263.48 1587.63 1263.48C1587.7 1263.5 1587.87 1263.51 1588 1263.37Z" fill="#191919"/>
<path d="M1587.78 1263.09L1588.11 1263.08C1588.11 1263.17 1588.08 1263.27 1588.02 1263.35L1587.75 1263.11L1587.78 1263.09ZM1587.78 1263.09L1587.74 1263.09L1587.73 1263.1M1587.97 1262.8C1587.93 1262.76 1587.89 1262.73 1587.83 1262.72L1587.83 1262.72C1587.82 1262.72 1587.82 1262.72 1587.82 1262.71C1587.75 1262.7 1587.57 1262.68 1587.43 1262.83L1587.72 1263.08L1587.72 1263.08L1587.97 1262.8ZM1588.11 1263.06C1588.1 1262.99 1588.08 1262.93 1588.04 1262.87L1587.79 1263.08L1588.11 1263.06ZM1588 1263.37C1588 1263.36 1588.01 1263.36 1588.01 1263.36L1587.75 1263.12L1587.74 1263.12L1587.72 1263.14L1587.71 1263.16L1587.69 1263.17L1587.59 1263.26L1587.47 1263.4C1587.51 1263.43 1587.56 1263.46 1587.61 1263.48C1587.61 1263.48 1587.62 1263.48 1587.62 1263.48C1587.62 1263.48 1587.63 1263.48 1587.63 1263.48C1587.7 1263.5 1587.87 1263.51 1588 1263.37Z" stroke="black" stroke-width="3"/>
</g>
<g style="mix-blend-mode:screen">
<path d="M1293.86 1063.24C1292.79 1062.26 1291.14 1062.33 1290.16 1063.39C1289.18 1064.46 1289.26 1066.11 1290.32 1067.1C1291.37 1068.07 1293.03 1068.01 1294.02 1066.94C1294.99 1065.87 1294.92 1064.22 1293.86 1063.24Z" fill="#191919"/>
<path d="M1293.86 1063.24C1292.79 1062.26 1291.14 1062.33 1290.16 1063.39C1289.18 1064.46 1289.26 1066.11 1290.32 1067.1C1291.37 1068.07 1293.03 1068.01 1294.02 1066.94C1294.99 1065.87 1294.92 1064.22 1293.86 1063.24Z" stroke="black" stroke-width="3"/>
</g>
<g style="mix-blend-mode:screen">
<path d="M1726.92 1122.86C1726.54 1122.76 1726.01 1122.82 1725.62 1123.24L1727.54 1125.01C1727.85 1124.67 1727.89 1124.29 1727.88 1124.07C1727.87 1123.86 1727.81 1123.48 1727.46 1123.17C1727.29 1123.01 1727.11 1122.91 1726.92 1122.86ZM1725.62 1123.24C1725.3 1123.59 1725.27 1123.96 1725.28 1124.19C1725.28 1124.4 1725.35 1124.77 1725.69 1125.09C1725.87 1125.25 1726.05 1125.34 1726.23 1125.39C1726.62 1125.49 1727.15 1125.43 1727.54 1125.01L1725.62 1123.24Z" fill="#191919"/>
<path d="M1726.92 1122.86C1726.54 1122.76 1726.01 1122.82 1725.62 1123.24L1727.54 1125.01C1727.85 1124.67 1727.89 1124.29 1727.88 1124.07C1727.87 1123.86 1727.81 1123.48 1727.46 1123.17C1727.29 1123.01 1727.11 1122.91 1726.92 1122.86ZM1725.62 1123.24C1725.3 1123.59 1725.27 1123.96 1725.28 1124.19C1725.28 1124.4 1725.35 1124.77 1725.69 1125.09C1725.87 1125.25 1726.05 1125.34 1726.23 1125.39C1726.62 1125.49 1727.15 1125.43 1727.54 1125.01L1725.62 1123.24Z" stroke="black" stroke-width="3"/>
</g>
<g style="mix-blend-mode:screen">
<path d="M1723.62 1362.72C1723.19 1362.6 1722.6 1362.67 1722.17 1363.13C1721.82 1363.51 1721.78 1363.94 1721.79 1364.17C1721.8 1364.41 1721.88 1364.83 1722.26 1365.17C1722.46 1365.35 1722.65 1365.46 1722.86 1365.51C1723.29 1365.63 1723.88 1365.56 1724.31 1365.1C1724.66 1364.72 1724.7 1364.29 1724.69 1364.06C1724.68 1363.82 1724.6 1363.4 1724.22 1363.06C1724.02 1362.88 1723.83 1362.77 1723.62 1362.72Z" fill="#191919"/>
<path d="M1723.62 1362.72C1723.19 1362.6 1722.6 1362.67 1722.17 1363.13C1721.82 1363.51 1721.78 1363.94 1721.79 1364.17C1721.8 1364.41 1721.88 1364.83 1722.26 1365.17C1722.46 1365.35 1722.65 1365.46 1722.86 1365.51C1723.29 1365.63 1723.88 1365.56 1724.31 1365.1C1724.66 1364.72 1724.7 1364.29 1724.69 1364.06C1724.68 1363.82 1724.6 1363.4 1724.22 1363.06C1724.02 1362.88 1723.83 1362.77 1723.62 1362.72Z" stroke="black" stroke-width="3"/>
</g>
<g style="mix-blend-mode:screen">
<path d="M1573.34 1211.27L1573.34 1211.27L1573.34 1211.28C1573.13 1211.5 1573.1 1211.75 1573.11 1211.9C1573.12 1212.05 1573.16 1212.3 1573.4 1212.52L1573.4 1212.52L1573.4 1212.52C1573.5 1212.62 1573.62 1212.68 1573.75 1212.72C1574.02 1212.79 1574.37 1212.74 1574.63 1212.46L1574.63 1212.46L1574.63 1212.46C1574.84 1212.23 1574.86 1211.98 1574.86 1211.83C1574.85 1211.69 1574.8 1211.43 1574.57 1211.22C1574.45 1211.11 1574.34 1211.05 1574.22 1211.02C1573.95 1210.95 1573.6 1210.99 1573.34 1211.27Z" fill="#191919"/>
<path d="M1573.34 1211.27L1573.34 1211.27L1573.34 1211.28C1573.13 1211.5 1573.1 1211.75 1573.11 1211.9C1573.12 1212.05 1573.16 1212.3 1573.4 1212.52L1573.4 1212.52L1573.4 1212.52C1573.5 1212.62 1573.62 1212.68 1573.75 1212.72C1574.02 1212.79 1574.37 1212.74 1574.63 1212.46L1574.63 1212.46L1574.63 1212.46C1574.84 1212.23 1574.86 1211.98 1574.86 1211.83C1574.85 1211.69 1574.8 1211.43 1574.57 1211.22C1574.45 1211.11 1574.34 1211.05 1574.22 1211.02C1573.95 1210.95 1573.6 1210.99 1573.34 1211.27Z" stroke="black" stroke-width="3"/>
</g>
<g style="mix-blend-mode:screen">
<path d="M1865.84 1168.09L1865.84 1168.09C1865.46 1168.51 1864.92 1168.57 1864.54 1168.47C1864.35 1168.42 1864.18 1168.33 1864 1168.17C1863.66 1167.85 1863.59 1167.48 1863.58 1167.26C1863.57 1167.04 1863.61 1166.66 1863.92 1166.32L1865.84 1168.09ZM1865.84 1168.09L1865.85 1168.09C1866.33 1167.57 1866.29 1166.74 1865.77 1166.26C1865.59 1166.1 1865.41 1166 1865.23 1165.95L1865.07 1165.91M1865.84 1168.09L1865.07 1165.91M1865.07 1165.91C1864.71 1165.86 1864.26 1165.96 1863.92 1166.32L1865.07 1165.91Z" fill="#191919"/>
<path d="M1865.84 1168.09L1865.84 1168.09C1865.46 1168.51 1864.92 1168.57 1864.54 1168.47C1864.35 1168.42 1864.18 1168.33 1864 1168.17C1863.66 1167.85 1863.59 1167.48 1863.58 1167.26C1863.57 1167.04 1863.61 1166.66 1863.92 1166.32L1865.84 1168.09ZM1865.84 1168.09L1865.85 1168.09C1866.33 1167.57 1866.29 1166.74 1865.77 1166.26C1865.59 1166.1 1865.41 1166 1865.23 1165.95L1865.07 1165.91M1865.84 1168.09L1865.07 1165.91M1865.07 1165.91C1864.71 1165.86 1864.26 1165.96 1863.92 1166.32L1865.07 1165.91Z" stroke="black" stroke-width="3"/>
</g>
<g style="mix-blend-mode:screen">
<path d="M1887.66 1249.55L1887.66 1249.55C1886.65 1248.62 1885.09 1248.7 1884.17 1249.7L1884.17 1249.7C1883.24 1250.71 1883.31 1252.27 1884.31 1253.19L1884.31 1253.19L1884.31 1253.19C1885.32 1254.12 1886.89 1254.05 1887.81 1253.05L1887.81 1253.05C1888.74 1252.04 1888.66 1250.47 1887.66 1249.55Z" fill="#191919"/>
<path d="M1887.66 1249.55L1887.66 1249.55C1886.65 1248.62 1885.09 1248.7 1884.17 1249.7L1884.17 1249.7C1883.24 1250.71 1883.31 1252.27 1884.31 1253.19L1884.31 1253.19L1884.31 1253.19C1885.32 1254.12 1886.89 1254.05 1887.81 1253.05L1887.81 1253.05C1888.74 1252.04 1888.66 1250.47 1887.66 1249.55Z" stroke="black" stroke-width="3"/>
</g>
<g style="mix-blend-mode:screen">
<path d="M1667.28 1204.52C1667.27 1204.52 1667.27 1204.52 1667.26 1204.51C1667.26 1204.51 1667.25 1204.51 1667.24 1204.51C1667.21 1204.51 1667.2 1204.52 1667.19 1204.53C1667.18 1204.54 1667.18 1204.54 1667.18 1204.55C1667.18 1204.55 1667.17 1204.56 1667.17 1204.57C1667.18 1204.6 1667.18 1204.61 1667.2 1204.62C1667.2 1204.63 1667.2 1204.63 1667.21 1204.63C1667.22 1204.63 1667.22 1204.63 1667.24 1204.63C1667.26 1204.63 1667.27 1204.62 1667.28 1204.61C1667.29 1204.61 1667.29 1204.6 1667.29 1204.6C1667.3 1204.59 1667.3 1204.58 1667.3 1204.57C1667.3 1204.55 1667.29 1204.53 1667.28 1204.52Z" fill="#191919"/>
<path d="M1667.28 1204.52C1667.27 1204.52 1667.27 1204.52 1667.26 1204.51C1667.26 1204.51 1667.25 1204.51 1667.24 1204.51C1667.21 1204.51 1667.2 1204.52 1667.19 1204.53C1667.18 1204.54 1667.18 1204.54 1667.18 1204.55C1667.18 1204.55 1667.17 1204.56 1667.17 1204.57C1667.18 1204.6 1667.18 1204.61 1667.2 1204.62C1667.2 1204.63 1667.2 1204.63 1667.21 1204.63C1667.22 1204.63 1667.22 1204.63 1667.24 1204.63C1667.26 1204.63 1667.27 1204.62 1667.28 1204.61C1667.29 1204.61 1667.29 1204.6 1667.29 1204.6C1667.3 1204.59 1667.3 1204.58 1667.3 1204.57C1667.3 1204.55 1667.29 1204.53 1667.28 1204.52Z" stroke="black" stroke-width="3"/>
</g>
<g style="mix-blend-mode:screen">
<path d="M1683.38 1290.89C1682.55 1290.12 1681.26 1290.17 1680.49 1291.01C1679.72 1291.84 1679.77 1293.14 1680.61 1293.9C1681.44 1294.67 1682.74 1294.62 1683.5 1293.78C1684.27 1292.95 1684.22 1291.66 1683.38 1290.89Z" fill="#191919"/>
<path d="M1683.38 1290.89C1682.55 1290.12 1681.26 1290.17 1680.49 1291.01C1679.72 1291.84 1679.77 1293.14 1680.61 1293.9C1681.44 1294.67 1682.74 1294.62 1683.5 1293.78C1684.27 1292.95 1684.22 1291.66 1683.38 1290.89Z" stroke="black" stroke-width="3"/>
</g>
<g style="mix-blend-mode:screen">
<path d="M1482.98 1216.98C1482.91 1216.92 1482.78 1216.9 1482.69 1217C1482.63 1217.07 1482.62 1217.2 1482.71 1217.29C1482.78 1217.35 1482.91 1217.36 1483 1217.26C1483.06 1217.2 1483.07 1217.07 1482.98 1216.98Z" fill="#191919"/>
<path d="M1482.98 1216.98C1482.91 1216.92 1482.78 1216.9 1482.69 1217C1482.63 1217.07 1482.62 1217.2 1482.71 1217.29C1482.78 1217.35 1482.91 1217.36 1483 1217.26C1483.06 1217.2 1483.07 1217.07 1482.98 1216.98Z" stroke="black" stroke-width="3"/>
</g>
<g style="mix-blend-mode:screen">
<path d="M1525.57 968.808C1524.67 967.988 1523.29 968.052 1522.48 968.934C1521.66 969.831 1521.72 971.217 1522.6 972.028C1523.5 972.848 1524.89 972.784 1525.7 971.903C1526.52 971.005 1526.45 969.619 1525.57 968.808Z" fill="#191919"/>
<path d="M1525.57 968.808C1524.67 967.988 1523.29 968.052 1522.48 968.934C1521.66 969.831 1521.72 971.217 1522.6 972.028C1523.5 972.848 1524.89 972.784 1525.7 971.903C1526.52 971.005 1526.45 969.619 1525.57 968.808Z" stroke="black" stroke-width="3"/>
</g>
<g style="mix-blend-mode:screen">
<path d="M1643.26 1149.55C1641.97 1148.36 1639.95 1148.44 1638.76 1149.74C1637.57 1151.03 1637.65 1153.04 1638.95 1154.23C1640.24 1155.42 1642.25 1155.34 1643.45 1154.04C1644.63 1152.75 1644.55 1150.74 1643.26 1149.55Z" fill="#191919"/>
<path d="M1643.26 1149.55C1641.97 1148.36 1639.95 1148.44 1638.76 1149.74C1637.57 1151.03 1637.65 1153.04 1638.95 1154.23C1640.24 1155.42 1642.25 1155.34 1643.45 1154.04C1644.63 1152.75 1644.55 1150.74 1643.26 1149.55Z" stroke="black" stroke-width="3"/>
</g>
<g style="mix-blend-mode:screen">
<path d="M1911.07 1329.97C1911.07 1329.97 1911.06 1329.97 1911.06 1329.96L1911.02 1329.97C1911.02 1329.97 1911.02 1329.97 1911.02 1329.97C1911.02 1329.97 1911.02 1329.97 1911.02 1329.97C1911.02 1329.97 1911.02 1329.97 1911.02 1329.97C1911.02 1329.98 1911.02 1329.98 1911.02 1329.99C1911.02 1329.99 1911.02 1330 1911.03 1330C1911.03 1330 1911.03 1330 1911.03 1330C1911.03 1330 1911.03 1330 1911.03 1330.01L1911.03 1330.01C1911.03 1330.01 1911.03 1330.01 1911.03 1330.01C1911.04 1330.01 1911.04 1330.01 1911.04 1330.01C1911.05 1330.01 1911.06 1330.01 1911.06 1330.01C1911.06 1330.01 1911.07 1330.01 1911.07 1330.01L1911.07 1330.01L1911.07 1330.01L1911.07 1330.01L1911.07 1330C1911.07 1330 1911.07 1330 1911.07 1330C1911.07 1329.99 1911.07 1329.98 1911.07 1329.97C1911.07 1329.97 1911.07 1329.97 1911.07 1329.97Z" fill="#191919"/>
<path d="M1911.07 1329.97C1911.07 1329.97 1911.06 1329.97 1911.06 1329.96L1911.02 1329.97C1911.02 1329.97 1911.02 1329.97 1911.02 1329.97C1911.02 1329.97 1911.02 1329.97 1911.02 1329.97C1911.02 1329.97 1911.02 1329.97 1911.02 1329.97C1911.02 1329.98 1911.02 1329.98 1911.02 1329.99C1911.02 1329.99 1911.02 1330 1911.03 1330C1911.03 1330 1911.03 1330 1911.03 1330C1911.03 1330 1911.03 1330 1911.03 1330.01L1911.03 1330.01C1911.03 1330.01 1911.03 1330.01 1911.03 1330.01C1911.04 1330.01 1911.04 1330.01 1911.04 1330.01C1911.05 1330.01 1911.06 1330.01 1911.06 1330.01C1911.06 1330.01 1911.07 1330.01 1911.07 1330.01L1911.07 1330.01L1911.07 1330.01L1911.07 1330.01L1911.07 1330C1911.07 1330 1911.07 1330 1911.07 1330C1911.07 1329.99 1911.07 1329.98 1911.07 1329.97C1911.07 1329.97 1911.07 1329.97 1911.07 1329.97Z" stroke="black" stroke-width="3"/>
</g>
<g style="mix-blend-mode:screen">
<path d="M1609.84 1055.49C1608.73 1054.47 1606.97 1054.54 1605.94 1055.66C1604.91 1056.78 1604.99 1058.53 1606.1 1059.56C1607.22 1060.58 1608.97 1060.51 1610 1059.39C1611.04 1058.27 1610.96 1056.52 1609.84 1055.49Z" fill="#191919"/>
<path d="M1609.84 1055.49C1608.73 1054.47 1606.97 1054.54 1605.94 1055.66C1604.91 1056.78 1604.99 1058.53 1606.1 1059.56C1607.22 1060.58 1608.97 1060.51 1610 1059.39C1611.04 1058.27 1610.96 1056.52 1609.84 1055.49Z" stroke="black" stroke-width="3"/>
</g>
<g style="mix-blend-mode:screen">
<path d="M1484.4 1088.95C1482.59 1087.28 1479.77 1087.4 1478.1 1089.21C1476.43 1091.03 1476.54 1093.85 1478.36 1095.52C1480.17 1097.19 1482.99 1097.08 1484.67 1095.26C1486.34 1093.45 1486.22 1090.62 1484.4 1088.95Z" fill="#191919"/>
<path d="M1484.4 1088.95C1482.59 1087.28 1479.77 1087.4 1478.1 1089.21C1476.43 1091.03 1476.54 1093.85 1478.36 1095.52C1480.17 1097.19 1482.99 1097.08 1484.67 1095.26C1486.34 1093.45 1486.22 1090.62 1484.4 1088.95Z" stroke="black" stroke-width="3"/>
</g>
<g style="mix-blend-mode:screen">
<path d="M1440 1335.21C1439.34 1334.6 1438.31 1334.64 1437.7 1335.3C1437.09 1335.96 1437.14 1336.99 1437.8 1337.6C1438.46 1338.21 1439.49 1338.16 1440.1 1337.5C1440.7 1336.84 1440.66 1335.81 1440 1335.21Z" fill="#191919"/>
<path d="M1440 1335.21C1439.34 1334.6 1438.31 1334.64 1437.7 1335.3C1437.09 1335.96 1437.14 1336.99 1437.8 1337.6C1438.46 1338.21 1439.49 1338.16 1440.1 1337.5C1440.7 1336.84 1440.66 1335.81 1440 1335.21Z" stroke="black" stroke-width="3"/>
</g>
<g style="mix-blend-mode:screen">
<path d="M1780.48 1196.14C1780.48 1195.97 1780.42 1195.63 1780.11 1195.35C1779.96 1195.21 1779.8 1195.13 1779.63 1195.08L1779.49 1195.04C1779.17 1195 1778.77 1195.09 1778.46 1195.41C1778.19 1195.71 1778.16 1196.04 1778.16 1196.25C1778.17 1196.42 1778.23 1196.76 1778.54 1197.04C1778.71 1197.19 1778.86 1197.28 1779.02 1197.32C1779.36 1197.41 1779.84 1197.36 1780.18 1196.98L1780.18 1196.98L1780.19 1196.98C1780.46 1196.68 1780.49 1196.35 1780.48 1196.14Z" fill="#191919"/>
<path d="M1780.48 1196.14C1780.48 1195.97 1780.42 1195.63 1780.11 1195.35C1779.96 1195.21 1779.8 1195.13 1779.63 1195.08L1779.49 1195.04C1779.17 1195 1778.77 1195.09 1778.46 1195.41C1778.19 1195.71 1778.16 1196.04 1778.16 1196.25C1778.17 1196.42 1778.23 1196.76 1778.54 1197.04C1778.71 1197.19 1778.86 1197.28 1779.02 1197.32C1779.36 1197.41 1779.84 1197.36 1780.18 1196.98L1780.18 1196.98L1780.19 1196.98C1780.46 1196.68 1780.49 1196.35 1780.48 1196.14Z" stroke="black" stroke-width="3"/>
</g>
<g style="mix-blend-mode:screen">
<path d="M1680.79 1440.8C1680.72 1440.74 1680.59 1440.73 1680.5 1440.82C1680.44 1440.89 1680.43 1441.02 1680.52 1441.11C1680.59 1441.17 1680.72 1441.19 1680.81 1441.09C1680.87 1441.02 1680.88 1440.89 1680.79 1440.8Z" fill="#191919"/>
<path d="M1680.79 1440.8C1680.72 1440.74 1680.59 1440.73 1680.5 1440.82C1680.44 1440.89 1680.43 1441.02 1680.52 1441.11C1680.59 1441.17 1680.72 1441.19 1680.81 1441.09C1680.87 1441.02 1680.88 1440.89 1680.79 1440.8Z" stroke="black" stroke-width="3"/>
</g>
<g style="mix-blend-mode:screen">
<path d="M1754.92 1304.83C1754.73 1304.65 1754.42 1304.66 1754.24 1304.86C1754.06 1305.05 1754.07 1305.36 1754.27 1305.55C1754.46 1305.72 1754.77 1305.72 1754.96 1305.51C1755.13 1305.32 1755.13 1305.01 1754.92 1304.83Z" fill="#191919"/>
<path d="M1754.92 1304.83C1754.73 1304.65 1754.42 1304.66 1754.24 1304.86C1754.06 1305.05 1754.07 1305.36 1754.27 1305.55C1754.46 1305.72 1754.77 1305.72 1754.96 1305.51C1755.13 1305.32 1755.13 1305.01 1754.92 1304.83Z" stroke="black" stroke-width="3"/>
</g>
<g style="mix-blend-mode:screen">
<path d="M1735.67 1014.25L1735.67 1014.25C1734.03 1012.74 1731.47 1012.85 1729.97 1014.49L1729.97 1014.49L1729.97 1014.49C1728.46 1016.13 1728.57 1018.69 1730.21 1020.19C1731.85 1021.7 1734.41 1021.59 1735.91 1019.96L1735.91 1019.95C1737.42 1018.31 1737.31 1015.76 1735.67 1014.25Z" fill="#191919"/>
<path d="M1735.67 1014.25L1735.67 1014.25C1734.03 1012.74 1731.47 1012.85 1729.97 1014.49L1729.97 1014.49L1729.97 1014.49C1728.46 1016.13 1728.57 1018.69 1730.21 1020.19C1731.85 1021.7 1734.41 1021.59 1735.91 1019.96L1735.91 1019.95C1737.42 1018.31 1737.31 1015.76 1735.67 1014.25Z" stroke="black" stroke-width="3"/>
</g>
<g style="mix-blend-mode:screen">
<path d="M1595.99 1332.4C1594.23 1330.78 1591.5 1330.89 1589.88 1332.65C1588.27 1334.41 1588.38 1337.14 1590.14 1338.76C1591.89 1340.37 1594.63 1340.26 1596.24 1338.5C1597.86 1336.75 1597.75 1334.01 1595.99 1332.4Z" fill="#191919"/>
<path d="M1595.99 1332.4C1594.23 1330.78 1591.5 1330.89 1589.88 1332.65C1588.27 1334.41 1588.38 1337.14 1590.14 1338.76C1591.89 1340.37 1594.63 1340.26 1596.24 1338.5C1597.86 1336.75 1597.75 1334.01 1595.99 1332.4Z" stroke="black" stroke-width="3"/>
</g>
<g style="mix-blend-mode:screen">
<path d="M1858.56 1382.7L1858.56 1382.7L1858.55 1382.69C1858 1382.19 1857.16 1382.23 1856.66 1382.77L1856.66 1382.77L1856.66 1382.77C1856.16 1383.32 1856.2 1384.17 1856.74 1384.66L1856.74 1384.66L1856.74 1384.66C1857.29 1385.17 1858.13 1385.13 1858.63 1384.59L1858.63 1384.59L1858.63 1384.58C1859.13 1384.04 1859.1 1383.19 1858.56 1382.7Z" fill="#191919"/>
<path d="M1858.56 1382.7L1858.56 1382.7L1858.55 1382.69C1858 1382.19 1857.16 1382.23 1856.66 1382.77L1856.66 1382.77L1856.66 1382.77C1856.16 1383.32 1856.2 1384.17 1856.74 1384.66L1856.74 1384.66L1856.74 1384.66C1857.29 1385.17 1858.13 1385.13 1858.63 1384.59L1858.63 1384.59L1858.63 1384.58C1859.13 1384.04 1859.1 1383.19 1858.56 1382.7Z" stroke="black" stroke-width="3"/>
</g>
<defs>
<filter id="filter0_f_3105_22086" x="-387.64" y="0.636108" width="2860.33" height="1734.53" filterUnits="userSpaceOnUse" color-interpolation-filters="sRGB">
<feFlood flood-opacity="0" result="BackgroundImageFix"/>
<feBlend mode="normal" in="SourceGraphic" in2="BackgroundImageFix" result="shape"/>
<feGaussianBlur stdDeviation="250" result="effect1_foregroundBlur_3105_22086"/>
</filter>
<filter id="filter1_f_3105_22086" x="49.0672" y="290.869" width="794.094" height="552.102" filterUnits="userSpaceOnUse" color-interpolation-filters="sRGB">
<feFlood flood-opacity="0" result="BackgroundImageFix"/>
<feBlend mode="normal" in="SourceGraphic" in2="BackgroundImageFix" result="shape"/>
<feGaussianBlur stdDeviation="30" result="effect1_foregroundBlur_3105_22086"/>
</filter>
<filter id="filter2_f_3105_22086" x="1227.97" y="906.731" width="744.603" height="595.929" filterUnits="userSpaceOnUse" color-interpolation-filters="sRGB">
<feFlood flood-opacity="0" result="BackgroundImageFix"/>
<feBlend mode="normal" in="SourceGraphic" in2="BackgroundImageFix" result="shape"/>
<feGaussianBlur stdDeviation="30" result="effect1_foregroundBlur_3105_22086"/>
</filter>
<linearGradient id="paint0_linear_3105_22086" x1="1114.99" y1="597.444" x2="970.053" y2="1138.36" gradientUnits="userSpaceOnUse">
<stop/>
<stop offset="1" stop-opacity="0"/>
</linearGradient>
<linearGradient id="paint1_linear_3105_22086" x1="1106.19" y1="630.286" x2="999.559" y2="1028.25" gradientUnits="userSpaceOnUse">
<stop/>
<stop offset="1" stop-opacity="0"/>
</linearGradient>
<linearGradient id="paint2_linear_3105_22086" x1="1097.91" y1="661.195" x2="1035.02" y2="895.915" gradientUnits="userSpaceOnUse">
<stop/>
<stop offset="1" stop-opacity="0"/>
</linearGradient>
</defs>
</svg>
