<svg width="1920" height="1736" viewBox="0 0 1920 1736" fill="none" xmlns="http://www.w3.org/2000/svg">
<g filter="url(#filter0_f_3296_8129)">
<ellipse cx="925.523" cy="867.903" rx="960" ry="280" transform="rotate(-15 925.523 867.903)" fill="#191919"/>
</g>
<path d="M1851.85 619.696C1861.72 656.557 1845.57 698.745 1807.39 743.589C1769.23 788.405 1709.24 835.673 1631.94 882.6C1477.35 976.445 1253.73 1068.8 997.733 1137.4C741.734 1205.99 501.898 1237.82 321.096 1233.84C230.688 1231.85 155.1 1220.91 99.6485 1201.18C44.1611 1181.43 9.0769 1152.97 -0.80017 1116.11C-10.6772 1079.25 5.47771 1037.06 43.6579 992.217C81.8138 947.401 141.805 900.133 219.106 853.207C373.696 759.361 597.313 667.004 853.312 598.41C1109.31 529.815 1349.15 497.99 1529.95 501.967C1620.36 503.956 1695.94 514.896 1751.4 534.63C1806.88 554.376 1841.97 582.834 1851.85 619.696Z" stroke="#191919" stroke-width="2"/>
<path d="M1851.85 619.696C1861.72 656.557 1845.57 698.745 1807.39 743.589C1769.23 788.405 1709.24 835.673 1631.94 882.6C1477.35 976.445 1253.73 1068.8 997.733 1137.4C741.734 1205.99 501.898 1237.82 321.096 1233.84C230.688 1231.85 155.1 1220.91 99.6485 1201.18C44.1611 1181.43 9.0769 1152.97 -0.80017 1116.11C-10.6772 1079.25 5.47771 1037.06 43.6579 992.217C81.8138 947.401 141.805 900.133 219.106 853.207C373.696 759.361 597.313 667.004 853.312 598.41C1109.31 529.815 1349.15 497.99 1529.95 501.967C1620.36 503.956 1695.94 514.896 1751.4 534.63C1806.88 554.376 1841.97 582.834 1851.85 619.696Z" stroke="url(#paint0_linear_3296_8129)" stroke-opacity="0.5" stroke-width="2"/>
<path d="M1630.92 637.481C1638.15 664.451 1625.39 695.65 1595.57 729.101C1565.78 762.515 1519.14 797.954 1459.16 833.31C1339.2 904.014 1166.08 974.266 968.228 1027.28C770.374 1080.3 585.319 1106.02 446.084 1104.76C376.459 1104.13 318.351 1096.76 275.843 1082.72C233.289 1068.66 206.646 1048.02 199.419 1021.05C192.192 994.081 204.945 962.882 234.769 929.431C264.561 896.017 311.198 860.578 371.182 825.222C491.136 754.519 664.258 684.266 862.112 631.251C1059.97 578.236 1245.02 552.516 1384.26 553.77C1453.88 554.397 1511.99 561.77 1554.5 575.811C1597.05 589.869 1623.69 610.511 1630.92 637.481Z" stroke="#191919" stroke-width="2"/>
<path d="M1630.92 637.481C1638.15 664.451 1625.39 695.65 1595.57 729.101C1565.78 762.515 1519.14 797.954 1459.16 833.31C1339.2 904.014 1166.08 974.266 968.228 1027.28C770.374 1080.3 585.319 1106.02 446.084 1104.76C376.459 1104.13 318.351 1096.76 275.843 1082.72C233.289 1068.66 206.646 1048.02 199.419 1021.05C192.192 994.081 204.945 962.882 234.769 929.431C264.561 896.017 311.198 860.578 371.182 825.222C491.136 754.519 664.258 684.266 862.112 631.251C1059.97 578.236 1245.02 552.516 1384.26 553.77C1453.88 554.397 1511.99 561.77 1554.5 575.811C1597.05 589.869 1623.69 610.511 1630.92 637.481Z" stroke="url(#paint1_linear_3296_8129)" stroke-opacity="0.5" stroke-width="2"/>
<path d="M1411.59 641.899C1413.68 649.696 1412.3 658.308 1407.62 667.624C1402.93 676.948 1394.95 686.916 1383.95 697.356C1361.95 718.235 1328.02 740.855 1284.66 763.844C1197.97 809.814 1073.82 857.155 932.77 894.949C791.718 932.744 660.532 953.82 562.468 957.355C513.428 959.123 472.728 956.502 443.236 949.42C428.489 945.879 416.597 941.235 407.875 935.505C399.159 929.78 393.663 923.009 391.573 915.212C389.484 907.414 390.859 898.802 395.544 889.486C400.233 880.163 408.21 870.194 419.21 859.754C441.21 838.875 475.147 816.255 518.501 793.266C605.194 747.296 729.343 699.956 870.394 662.161C1011.45 624.366 1142.63 603.29 1240.7 599.755C1289.74 597.987 1330.44 600.608 1359.93 607.69C1374.67 611.231 1386.57 615.875 1395.29 621.605C1404 627.33 1409.5 634.101 1411.59 641.899Z" stroke="#191919" stroke-width="2"/>
<path d="M1411.59 641.899C1413.68 649.696 1412.3 658.308 1407.62 667.624C1402.93 676.948 1394.95 686.916 1383.95 697.356C1361.95 718.235 1328.02 740.855 1284.66 763.844C1197.97 809.814 1073.82 857.155 932.77 894.949C791.718 932.744 660.532 953.82 562.468 957.355C513.428 959.123 472.728 956.502 443.236 949.42C428.489 945.879 416.597 941.235 407.875 935.505C399.159 929.78 393.663 923.009 391.573 915.212C389.484 907.414 390.859 898.802 395.544 889.486C400.233 880.163 408.21 870.194 419.21 859.754C441.21 838.875 475.147 816.255 518.501 793.266C605.194 747.296 729.343 699.956 870.394 662.161C1011.45 624.366 1142.63 603.29 1240.7 599.755C1289.74 597.987 1330.44 600.608 1359.93 607.69C1374.67 611.231 1386.57 615.875 1395.29 621.605C1404 627.33 1409.5 634.101 1411.59 641.899Z" stroke="url(#paint2_linear_3296_8129)" stroke-opacity="0.5" stroke-width="2"/>
<g filter="url(#filter1_f_3296_8129)">
<g style="mix-blend-mode:screen">
<path d="M28.4938 845.257C26.9888 846.634 24.6536 846.535 23.2798 845.039C21.9033 843.534 22.0023 841.199 23.4977 839.825C25.0027 838.449 27.3379 838.548 28.7118 840.043C30.0882 841.548 29.9892 843.883 28.4938 845.257Z" fill="white"/>
</g>
<g style="mix-blend-mode:screen">
<path d="M240.222 829.82C240.164 829.835 239.975 829.865 239.83 829.708C239.8 829.674 239.716 829.593 239.723 829.426C239.732 829.268 239.823 829.181 239.847 829.154C239.897 829.11 239.95 829.075 240.008 829.059C240.066 829.044 240.255 829.014 240.4 829.172C240.546 829.329 240.541 829.579 240.383 829.725C240.333 829.769 240.29 829.802 240.232 829.817L240.222 829.82Z" fill="white"/>
</g>
<g style="mix-blend-mode:screen">
<path d="M379.707 971.123C378.915 971.335 377.758 971.231 376.911 970.309C376.224 969.561 376.157 968.73 376.174 968.291C376.19 967.852 376.332 967.027 377.079 966.34C377.421 966.031 377.808 965.814 378.243 965.697C379.035 965.485 380.191 965.589 381.039 966.511C381.726 967.259 381.793 968.09 381.776 968.529C381.759 968.968 381.618 969.793 380.87 970.48C380.528 970.789 380.142 971.007 379.707 971.123Z" fill="white"/>
</g>
<g style="mix-blend-mode:screen">
<path d="M376.405 731.27C375.565 731.495 374.355 731.384 373.466 730.422C372.749 729.64 372.669 728.761 372.69 728.3C372.711 727.839 372.862 726.97 373.643 726.254C374.001 725.93 374.405 725.698 374.869 725.573C375.709 725.348 376.919 725.459 377.808 726.421C378.525 727.203 378.605 728.082 378.584 728.543C378.562 729.004 378.412 729.873 377.631 730.589C377.272 730.913 376.869 731.145 376.405 731.27Z" fill="white"/>
</g>
<g style="mix-blend-mode:screen">
<path d="M227.001 882.967C226.325 883.148 225.349 883.058 224.632 882.277C224.049 881.646 223.993 880.936 224.009 880.57C224.025 880.203 224.146 879.498 224.777 878.914C225.059 878.653 225.393 878.47 225.76 878.372C226.436 878.19 227.413 878.281 228.129 879.062C228.712 879.692 228.768 880.402 228.752 880.769C228.736 881.135 228.615 881.841 227.984 882.424C227.693 882.688 227.368 882.868 227.001 882.967Z" fill="white"/>
</g>
<g style="mix-blend-mode:screen">
<path d="M518.013 928.044C517.221 928.256 516.064 928.152 515.217 927.23C514.53 926.482 514.463 925.651 514.479 925.212C514.499 924.782 514.638 923.948 515.385 923.261C515.727 922.952 516.114 922.734 516.549 922.618C517.341 922.406 518.497 922.51 519.345 923.432C520.395 924.569 520.313 926.351 519.174 927.391C518.832 927.7 518.445 927.918 518.01 928.034L518.013 928.044Z" fill="white"/>
</g>
<g style="mix-blend-mode:screen">
<path d="M541.073 844.088C539.453 845.578 536.938 845.465 535.461 843.853C533.971 842.233 534.084 839.718 535.696 838.24C537.316 836.75 539.831 836.863 541.308 838.476C542.798 840.095 542.685 842.61 541.073 844.088Z" fill="white"/>
</g>
<g style="mix-blend-mode:screen">
<path d="M320.691 889.115C320.061 889.698 319.065 889.655 318.482 889.024C317.899 888.393 317.943 887.398 318.574 886.815C319.204 886.232 320.199 886.276 320.783 886.906C321.366 887.537 321.322 888.532 320.691 889.115Z" fill="white"/>
</g>
<g style="mix-blend-mode:screen">
<path d="M336.796 802.753C335.351 804.082 333.111 803.989 331.781 802.544C330.452 801.099 330.545 798.858 331.991 797.529C333.436 796.2 335.676 796.293 337.006 797.738C338.335 799.183 338.242 801.424 336.796 802.753Z" fill="white"/>
</g>
<g style="mix-blend-mode:screen">
<path d="M136.395 876.658C135.707 877.298 134.627 877.246 133.987 876.558C133.347 875.87 133.4 874.79 134.087 874.15C134.775 873.51 135.856 873.562 136.495 874.25C137.135 874.938 137.083 876.018 136.395 876.658Z" fill="white"/>
</g>
<g style="mix-blend-mode:screen">
<path d="M178.982 1124.83C177.476 1126.21 175.141 1126.11 173.767 1124.62C172.391 1123.11 172.49 1120.78 173.985 1119.4C175.49 1118.03 177.826 1118.12 179.199 1119.62C180.576 1121.13 180.477 1123.46 178.982 1124.83Z" fill="white"/>
</g>
<g style="mix-blend-mode:screen">
<path d="M296.669 944.093C294.767 945.845 291.803 945.718 290.052 943.816C288.3 941.915 288.427 938.951 290.328 937.199C292.23 935.448 295.194 935.575 296.946 937.476C298.697 939.378 298.57 942.341 296.669 944.093Z" fill="white"/>
</g>
<g style="mix-blend-mode:screen">
<path d="M563.846 764.023C563.411 764.139 562.784 764.08 562.32 763.583C561.752 762.969 561.791 761.996 562.415 761.425C562.596 761.252 562.815 761.141 563.047 761.079C563.481 760.963 564.108 761.023 564.573 761.519C564.924 761.902 564.987 762.33 564.97 762.614C564.952 762.898 564.858 763.317 564.478 763.677C564.297 763.85 564.08 763.97 563.848 764.033L563.846 764.023Z" fill="white"/>
</g>
<g style="mix-blend-mode:screen">
<path d="M263.254 1038.15C261.527 1039.74 258.825 1039.62 257.234 1037.9C255.64 1036.16 255.757 1033.47 257.484 1031.88C259.211 1030.28 261.913 1030.4 263.504 1032.13C265.098 1033.86 264.981 1036.56 263.254 1038.15Z" fill="white"/>
</g>
<g style="mix-blend-mode:screen">
<path d="M137.818 1004.69C135.393 1006.92 131.623 1006.76 129.39 1004.34C127.156 1001.91 127.316 998.145 129.74 995.911C132.165 993.678 135.935 993.837 138.168 996.262C140.402 998.686 140.242 1002.46 137.818 1004.69Z" fill="white"/>
</g>
<g style="mix-blend-mode:screen">
<path d="M93.4139 758.435C92.1431 759.604 90.1648 759.523 88.996 758.252C87.8273 756.982 87.908 755.003 89.1788 753.835C90.4496 752.666 92.4279 752.747 93.5967 754.017C94.7654 755.288 94.6847 757.266 93.4139 758.435Z" fill="white"/>
</g>
<g style="mix-blend-mode:screen">
<path d="M432.421 898.914C431.667 899.116 430.574 899.016 429.761 898.146C429.107 897.442 429.047 896.64 429.062 896.232C429.077 895.824 429.217 895.031 429.924 894.386C430.249 894.092 430.616 893.88 431.032 893.769C431.785 893.567 432.878 893.667 433.681 894.539C434.336 895.244 434.396 896.045 434.381 896.453C434.366 896.861 434.226 897.654 433.519 898.299C433.194 898.593 432.824 898.796 432.418 898.905L432.421 898.914Z" fill="white"/>
</g>
<g style="mix-blend-mode:screen">
<path d="M334.206 652.834C333.518 653.474 332.437 653.422 331.798 652.734C331.158 652.046 331.21 650.966 331.898 650.326C332.586 649.686 333.666 649.738 334.306 650.426C334.946 651.114 334.893 652.194 334.206 652.834Z" fill="white"/>
</g>
<g style="mix-blend-mode:screen">
<path d="M408.337 788.813C407.532 789.557 406.274 789.5 405.531 788.695C404.787 787.89 404.843 786.633 405.648 785.889C406.453 785.146 407.711 785.202 408.454 786.007C409.198 786.812 409.142 788.069 408.337 788.813Z" fill="white"/>
</g>
<g style="mix-blend-mode:screen">
<path d="M389.083 1079.39C386.833 1081.46 383.326 1081.31 381.262 1079.06C379.189 1076.81 379.337 1073.3 381.589 1071.24C383.842 1069.18 387.347 1069.32 389.41 1071.57C391.483 1073.82 391.336 1077.33 389.083 1079.39Z" fill="white"/>
</g>
<g style="mix-blend-mode:screen">
<path d="M249.404 761.246C247.037 763.423 243.352 763.271 241.175 760.904C238.998 758.537 239.15 754.852 241.517 752.675C243.884 750.498 247.569 750.65 249.746 753.017C251.923 755.384 251.771 759.069 249.404 761.246Z" fill="white"/>
</g>
<g style="mix-blend-mode:screen">
<path d="M511.963 710.947C510.81 712.012 509.009 711.936 507.953 710.779C506.888 709.626 506.965 707.824 508.121 706.769C509.275 705.704 511.076 705.781 512.131 706.937C513.196 708.091 513.12 709.892 511.963 710.947Z" fill="white"/>
</g>
</g>
<g style="mix-blend-mode:screen">
<path d="M27.818 844.52C26.718 845.525 25.0156 845.45 24.0169 844.364C23.0118 843.264 23.0873 841.561 24.1734 840.562C25.2734 839.557 26.9759 839.633 27.9746 840.719C28.9798 841.819 28.9043 843.521 27.818 844.52Z" fill="#191919"/>
<path d="M27.818 844.52C26.718 845.525 25.0156 845.45 24.0169 844.364C23.0118 843.264 23.0873 841.561 24.1734 840.562C25.2734 839.557 26.9759 839.633 27.9746 840.719C28.9798 841.819 28.9043 843.521 27.818 844.52Z" stroke="black" stroke-width="2"/>
</g>
<g style="mix-blend-mode:screen">
<path d="M240.177 829.444L240.505 829.458C240.509 829.363 240.479 829.266 240.415 829.188L240.152 829.422L240.177 829.444ZM240.177 829.444L240.132 829.442L240.131 829.441M240.366 829.74C240.323 829.777 240.283 829.803 240.232 829.817L240.222 829.82C240.219 829.821 240.216 829.821 240.212 829.822C240.145 829.838 239.968 829.857 239.83 829.708L240.114 829.455L240.114 829.455L240.366 829.74ZM240.504 829.472C240.499 829.542 240.475 829.611 240.433 829.669L240.187 829.453L240.504 829.472ZM240.4 829.172C240.402 829.173 240.403 829.175 240.404 829.176L240.145 829.416L240.14 829.412L240.118 829.392L240.104 829.38L240.091 829.368L239.982 829.273L239.864 829.14C239.909 829.102 239.956 829.073 240.008 829.059C240.011 829.059 240.014 829.058 240.018 829.057C240.021 829.056 240.024 829.056 240.027 829.055C240.101 829.04 240.268 829.029 240.4 829.172Z" fill="#191919"/>
<path d="M240.177 829.444L240.505 829.458C240.509 829.363 240.479 829.266 240.415 829.188L240.152 829.422L240.177 829.444ZM240.177 829.444L240.132 829.442L240.131 829.441M240.366 829.74C240.323 829.777 240.283 829.803 240.232 829.817L240.222 829.82C240.219 829.821 240.216 829.821 240.212 829.822C240.145 829.838 239.968 829.857 239.83 829.708L240.114 829.455L240.114 829.455L240.366 829.74ZM240.504 829.472C240.499 829.542 240.475 829.611 240.433 829.669L240.187 829.453L240.504 829.472ZM240.4 829.172C240.402 829.173 240.403 829.175 240.404 829.176L240.145 829.416L240.14 829.412L240.118 829.392L240.104 829.38L240.091 829.368L239.982 829.273L239.864 829.14C239.909 829.102 239.956 829.073 240.008 829.059C240.011 829.059 240.014 829.058 240.018 829.057C240.021 829.056 240.024 829.056 240.027 829.055C240.101 829.04 240.268 829.029 240.4 829.172Z" stroke="black" stroke-width="2"/>
</g>
<g style="mix-blend-mode:screen">
<path d="M379.448 970.157C378.93 970.296 378.188 970.22 377.647 969.632L380.302 967.188C380.743 967.667 380.788 968.194 380.777 968.491C380.766 968.776 380.675 969.299 380.196 969.741C379.965 969.95 379.718 970.085 379.448 970.157ZM377.647 969.632C377.207 969.153 377.161 968.626 377.173 968.329C377.184 968.044 377.274 967.521 377.753 967.079C377.985 966.87 378.232 966.735 378.501 966.663C379.02 966.524 379.762 966.6 380.302 967.188L377.647 969.632Z" fill="#191919"/>
<path d="M379.448 970.157C378.93 970.296 378.188 970.22 377.647 969.632L380.302 967.188C380.743 967.667 380.788 968.194 380.777 968.491C380.766 968.776 380.675 969.299 380.196 969.741C379.965 969.95 379.718 970.085 379.448 970.157ZM377.647 969.632C377.207 969.153 377.161 968.626 377.173 968.329C377.184 968.044 377.274 967.521 377.753 967.079C377.985 966.87 378.232 966.735 378.501 966.663C379.02 966.524 379.762 966.6 380.302 967.188L377.647 969.632Z" stroke="black" stroke-width="2"/>
</g>
<g style="mix-blend-mode:screen">
<path d="M376.146 730.304C375.58 730.456 374.784 730.373 374.201 729.744C373.729 729.228 373.675 728.651 373.689 728.346C373.704 728.031 373.805 727.464 374.316 726.993C374.569 726.765 374.834 726.618 375.127 726.539C375.694 726.387 376.49 726.47 377.073 727.099C377.545 727.615 377.599 728.192 377.585 728.497C377.57 728.812 377.469 729.379 376.958 729.85C376.705 730.078 376.44 730.225 376.146 730.304Z" fill="#191919"/>
<path d="M376.146 730.304C375.58 730.456 374.784 730.373 374.201 729.744C373.729 729.228 373.675 728.651 373.689 728.346C373.704 728.031 373.805 727.464 374.316 726.993C374.569 726.765 374.834 726.618 375.127 726.539C375.694 726.387 376.49 726.47 377.073 727.099C377.545 727.615 377.599 728.192 377.585 728.497C377.57 728.812 377.469 729.379 376.958 729.85C376.705 730.078 376.44 730.225 376.146 730.304Z" stroke="black" stroke-width="2"/>
</g>
<g style="mix-blend-mode:screen">
<path d="M225.369 881.601L225.369 881.601L225.366 881.598C225.033 881.238 224.999 880.836 225.008 880.612C225.017 880.395 225.09 879.987 225.456 879.649L225.456 879.649L225.457 879.647C225.618 879.498 225.807 879.394 226.019 879.338C226.42 879.23 226.982 879.291 227.392 879.738L227.392 879.738L227.395 879.741C227.728 880.101 227.763 880.503 227.753 880.726C227.744 880.943 227.672 881.349 227.309 881.686C227.13 881.848 226.947 881.946 226.743 882.001C226.341 882.108 225.779 882.048 225.369 881.601Z" fill="#191919"/>
<path d="M225.369 881.601L225.369 881.601L225.366 881.598C225.033 881.238 224.999 880.836 225.008 880.612C225.017 880.395 225.09 879.987 225.456 879.649L225.456 879.649L225.457 879.647C225.618 879.498 225.807 879.394 226.019 879.338C226.42 879.23 226.982 879.291 227.392 879.738L227.392 879.738L227.395 879.741C227.728 880.101 227.763 880.503 227.753 880.726C227.744 880.943 227.672 881.349 227.309 881.686C227.13 881.848 226.947 881.946 226.743 882.001C226.341 882.108 225.779 882.048 225.369 881.601Z" stroke="black" stroke-width="2"/>
</g>
<g style="mix-blend-mode:screen">
<path d="M518.501 926.651C519.231 925.983 519.281 924.838 518.61 924.111L518.608 924.109C518.068 923.521 517.326 923.445 516.807 923.584C516.538 923.656 516.291 923.791 516.059 924C515.585 924.437 515.492 924.966 515.479 925.254C515.468 925.551 515.515 926.076 515.953 926.553L518.501 926.651ZM518.501 926.651C518.269 926.861 518.021 926.996 517.751 927.068L517.574 927.116C517.074 927.194 516.434 927.076 515.953 926.553L518.501 926.651Z" fill="#191919"/>
<path d="M518.501 926.651C519.231 925.983 519.281 924.838 518.61 924.111L518.608 924.109C518.068 923.521 517.326 923.445 516.807 923.584C516.538 923.656 516.291 923.791 516.059 924C515.585 924.437 515.492 924.966 515.479 925.254C515.468 925.551 515.515 926.076 515.953 926.553L518.501 926.651ZM518.501 926.651C518.269 926.861 518.021 926.996 517.751 927.068L517.574 927.116C517.074 927.194 516.434 927.076 515.953 926.553L518.501 926.651Z" stroke="black" stroke-width="2"/>
</g>
<g style="mix-blend-mode:screen">
<path d="M540.397 843.351L540.396 843.352C539.183 844.467 537.302 844.382 536.198 843.177L536.197 843.176C535.081 841.963 535.167 840.082 536.372 838.978L536.372 838.978L536.373 838.976C537.585 837.861 539.467 837.946 540.571 839.152L540.572 839.153C541.688 840.365 541.602 842.247 540.397 843.351Z" fill="#191919"/>
<path d="M540.397 843.351L540.396 843.352C539.183 844.467 537.302 844.382 536.198 843.177L536.197 843.176C535.081 841.963 535.167 840.082 536.372 838.978L536.372 838.978L536.373 838.976C537.585 837.861 539.467 837.946 540.571 839.152L540.572 839.153C541.688 840.365 541.602 842.247 540.397 843.351Z" stroke="black" stroke-width="2"/>
</g>
<g style="mix-blend-mode:screen">
<path d="M320.012 888.381C319.791 888.585 319.429 888.574 319.216 888.345C319.012 888.124 319.023 887.761 319.253 887.549C319.473 887.345 319.836 887.356 320.048 887.585C320.253 887.806 320.242 888.169 320.012 888.381Z" fill="#191919"/>
<path d="M320.012 888.381C319.791 888.585 319.429 888.574 319.216 888.345C319.012 888.124 319.023 887.761 319.253 887.549C319.473 887.345 319.836 887.356 320.048 887.585C320.253 887.806 320.242 888.169 320.012 888.381Z" stroke="black" stroke-width="2"/>
</g>
<g style="mix-blend-mode:screen">
<path d="M336.119 802.017C335.081 802.973 333.473 802.906 332.517 801.867C331.562 800.828 331.629 799.22 332.668 798.265C333.706 797.309 335.314 797.376 336.27 798.415C337.225 799.454 337.158 801.062 336.119 802.017Z" fill="#191919"/>
<path d="M336.119 802.017C335.081 802.973 333.473 802.906 332.517 801.867C331.562 800.828 331.629 799.22 332.668 798.265C333.706 797.309 335.314 797.376 336.27 798.415C337.225 799.454 337.158 801.062 336.119 802.017Z" stroke="black" stroke-width="2"/>
</g>
<g style="mix-blend-mode:screen">
<path d="M135.714 875.926C135.441 876.18 134.993 876.171 134.719 875.877C134.465 875.604 134.475 875.156 134.768 874.882C135.042 874.628 135.49 874.637 135.763 874.931C136.017 875.204 136.008 875.653 135.714 875.926Z" fill="#191919"/>
<path d="M135.714 875.926C135.441 876.18 134.993 876.171 134.719 875.877C134.465 875.604 134.475 875.156 134.768 874.882C135.042 874.628 135.49 874.637 135.763 874.931C136.017 875.204 136.008 875.653 135.714 875.926Z" stroke="black" stroke-width="2"/>
</g>
<g style="mix-blend-mode:screen">
<path d="M178.306 1124.1C177.206 1125.1 175.503 1125.03 174.505 1123.94C173.499 1122.84 173.575 1121.14 174.661 1120.14C175.761 1119.13 177.464 1119.21 178.462 1120.3C179.467 1121.4 179.392 1123.1 178.306 1124.1Z" fill="#191919"/>
<path d="M178.306 1124.1C177.206 1125.1 175.503 1125.03 174.505 1123.94C173.499 1122.84 173.575 1121.14 174.661 1120.14C175.761 1119.13 177.464 1119.21 178.462 1120.3C179.467 1121.4 179.392 1123.1 178.306 1124.1Z" stroke="black" stroke-width="2"/>
</g>
<g style="mix-blend-mode:screen">
<path d="M295.991 943.358C294.498 944.734 292.166 944.636 290.787 943.139C289.411 941.645 289.509 939.314 291.006 937.935C292.5 936.559 294.831 936.657 296.21 938.154C297.586 939.647 297.488 941.979 295.991 943.358Z" fill="#191919"/>
<path d="M295.991 943.358C294.498 944.734 292.166 944.636 290.787 943.139C289.411 941.645 289.509 939.314 291.006 937.935C292.5 936.559 294.831 936.657 296.21 938.154C297.586 939.647 297.488 941.979 295.991 943.358Z" stroke="black" stroke-width="2"/>
</g>
<g style="mix-blend-mode:screen">
<path d="M563.788 762.953C563.753 762.987 563.716 763.013 563.677 763.033L563.587 763.057C563.431 763.099 563.213 763.072 563.052 762.902C562.864 762.697 562.874 762.36 563.09 762.162L563.097 762.156L563.104 762.149C563.146 762.109 563.208 762.071 563.306 762.045C563.462 762.004 563.679 762.03 563.839 762.199C563.959 762.332 563.976 762.468 563.971 762.554C563.964 762.676 563.929 762.82 563.789 762.952L563.788 762.953Z" fill="#191919"/>
<path d="M563.788 762.953C563.753 762.987 563.716 763.013 563.677 763.033L563.587 763.057C563.431 763.099 563.213 763.072 563.052 762.902C562.864 762.697 562.874 762.36 563.09 762.162L563.097 762.156L563.104 762.149C563.146 762.109 563.208 762.071 563.306 762.045C563.462 762.004 563.679 762.03 563.839 762.199C563.959 762.332 563.976 762.468 563.971 762.554C563.964 762.676 563.929 762.82 563.789 762.952L563.788 762.953Z" stroke="black" stroke-width="2"/>
</g>
<g style="mix-blend-mode:screen">
<path d="M262.576 1037.41C261.257 1038.63 259.188 1038.54 257.97 1037.22C256.75 1035.89 256.84 1033.83 258.162 1032.61C259.481 1031.4 261.55 1031.48 262.768 1032.8C263.988 1034.13 263.898 1036.19 262.576 1037.41Z" fill="#191919"/>
<path d="M262.576 1037.41C261.257 1038.63 259.188 1038.54 257.97 1037.22C256.75 1035.89 256.84 1033.83 258.162 1032.61C259.481 1031.4 261.55 1031.48 262.768 1032.8C263.988 1034.13 263.898 1036.19 262.576 1037.41Z" stroke="black" stroke-width="2"/>
</g>
<g style="mix-blend-mode:screen">
<path d="M137.14 1003.95C135.123 1005.81 131.986 1005.68 130.125 1003.66C128.267 1001.64 128.398 998.507 130.418 996.647C132.435 994.788 135.572 994.92 137.433 996.94C139.291 998.957 139.159 1002.09 137.14 1003.95Z" fill="#191919"/>
<path d="M137.14 1003.95C135.123 1005.81 131.986 1005.68 130.125 1003.66C128.267 1001.64 128.398 998.507 130.418 996.647C132.435 994.788 135.572 994.92 137.433 996.94C139.291 998.957 139.159 1002.09 137.14 1003.95Z" stroke="black" stroke-width="2"/>
</g>
<g style="mix-blend-mode:screen">
<path d="M92.7369 757.699C91.8717 758.495 90.5261 758.439 89.7321 757.575C88.9364 756.71 88.9923 755.365 89.8558 754.571C90.7209 753.775 92.0666 753.831 92.8606 754.694C93.6563 755.559 93.6004 756.905 92.7369 757.699Z" fill="#191919"/>
<path d="M92.7369 757.699C91.8717 758.495 90.5261 758.439 89.7321 757.575C88.9364 756.71 88.9923 755.365 89.8558 754.571C90.7209 753.775 92.0666 753.831 92.8606 754.694C93.6563 755.559 93.6004 756.905 92.7369 757.699Z" stroke="black" stroke-width="2"/>
</g>
<g style="mix-blend-mode:screen">
<path d="M432.946 895.216L432.946 895.216L432.949 895.22C433.349 895.651 433.391 896.141 433.381 896.417C433.372 896.668 433.284 897.159 432.846 897.559C432.636 897.749 432.406 897.873 432.159 897.939L431.989 897.984C431.53 898.054 430.942 897.945 430.493 897.465C430.093 897.034 430.051 896.544 430.061 896.269C430.071 896.018 430.158 895.527 430.596 895.126C430.817 894.926 431.047 894.8 431.29 894.734C431.769 894.606 432.449 894.677 432.946 895.216Z" fill="#191919"/>
<path d="M432.946 895.216L432.946 895.216L432.949 895.22C433.349 895.651 433.391 896.141 433.381 896.417C433.372 896.668 433.284 897.159 432.846 897.559C432.636 897.749 432.406 897.873 432.159 897.939L431.989 897.984C431.53 898.054 430.942 897.945 430.493 897.465C430.093 897.034 430.051 896.544 430.061 896.269C430.071 896.018 430.158 895.527 430.596 895.126C430.817 894.926 431.047 894.8 431.29 894.734C431.769 894.606 432.449 894.677 432.946 895.216Z" stroke="black" stroke-width="2"/>
</g>
<g style="mix-blend-mode:screen">
<path d="M333.524 652.102C333.251 652.356 332.803 652.347 332.53 652.053C332.276 651.78 332.285 651.331 332.579 651.058C332.852 650.804 333.3 650.813 333.574 651.107C333.828 651.38 333.818 651.828 333.524 652.102Z" fill="#191919"/>
<path d="M333.524 652.102C333.251 652.356 332.803 652.347 332.53 652.053C332.276 651.78 332.285 651.331 332.579 651.058C332.852 650.804 333.3 650.813 333.574 651.107C333.828 651.38 333.818 651.828 333.524 652.102Z" stroke="black" stroke-width="2"/>
</g>
<g style="mix-blend-mode:screen">
<path d="M407.658 788.079C407.263 788.443 406.638 788.421 406.265 788.017C405.9 787.622 405.923 786.997 406.327 786.624C406.722 786.259 407.347 786.282 407.72 786.686C408.085 787.08 408.062 787.705 407.658 788.079Z" fill="#191919"/>
<path d="M407.658 788.079C407.263 788.443 406.638 788.421 406.265 788.017C405.9 787.622 405.923 786.997 406.327 786.624C406.722 786.259 407.347 786.282 407.72 786.686C408.085 787.08 408.062 787.705 407.658 788.079Z" stroke="black" stroke-width="2"/>
</g>
<g style="mix-blend-mode:screen">
<path d="M388.408 1078.65L388.406 1078.65C386.562 1080.35 383.689 1080.23 382 1078.39L382 1078.39L381.998 1078.38C380.299 1076.54 380.421 1073.67 382.265 1071.98C384.114 1070.28 386.986 1070.4 388.673 1072.24L388.675 1072.25C390.374 1074.09 390.252 1076.96 388.408 1078.65Z" fill="#191919"/>
<path d="M388.408 1078.65L388.406 1078.65C386.562 1080.35 383.689 1080.23 382 1078.39L382 1078.39L381.998 1078.38C380.299 1076.54 380.421 1073.67 382.265 1071.98C384.114 1070.28 386.986 1070.4 388.673 1072.24L388.675 1072.25C390.374 1074.09 390.252 1076.96 388.408 1078.65Z" stroke="black" stroke-width="2"/>
</g>
<g style="mix-blend-mode:screen">
<path d="M248.727 760.51C246.766 762.313 243.714 762.187 241.911 760.227C240.108 758.266 240.234 755.213 242.194 753.411C244.155 751.607 247.207 751.734 249.01 753.694C250.813 755.655 250.687 758.707 248.727 760.51Z" fill="#191919"/>
<path d="M248.727 760.51C246.766 762.313 243.714 762.187 241.911 760.227C240.108 758.266 240.234 755.213 242.194 753.411C244.155 751.607 247.207 751.734 249.01 753.694C250.813 755.655 250.687 758.707 248.727 760.51Z" stroke="black" stroke-width="2"/>
</g>
<g style="mix-blend-mode:screen">
<path d="M511.289 710.208L511.289 710.208L511.285 710.212C510.538 710.902 509.372 710.851 508.692 710.105L508.692 710.105L508.688 710.101C507.998 709.354 508.05 708.188 508.795 707.508L508.795 707.508L508.799 707.504C509.547 706.814 510.712 706.866 511.393 707.611L511.393 707.611L511.396 707.615C512.086 708.363 512.035 709.528 511.289 710.208Z" fill="#191919"/>
<path d="M511.289 710.208L511.289 710.208L511.285 710.212C510.538 710.902 509.372 710.851 508.692 710.105L508.692 710.105L508.688 710.101C507.998 709.354 508.05 708.188 508.795 707.508L508.795 707.508L508.799 707.504C509.547 706.814 510.712 706.866 511.393 707.611L511.393 707.611L511.396 707.615C512.086 708.363 512.035 709.528 511.289 710.208Z" stroke="black" stroke-width="2"/>
</g>
<g filter="url(#filter2_f_3296_8129)">
<g style="mix-blend-mode:screen">
<path d="M1404.09 1029.67C1402.1 1029.23 1400.13 1030.48 1399.69 1032.46C1399.25 1034.45 1400.5 1036.43 1402.48 1036.87C1404.48 1037.31 1406.45 1036.05 1406.89 1034.07C1407.33 1032.08 1406.08 1030.11 1404.09 1029.67Z" fill="white"/>
</g>
<g style="mix-blend-mode:screen">
<path d="M1595.18 937.171C1595.12 937.186 1594.94 937.255 1594.89 937.464C1594.88 937.508 1594.85 937.62 1594.94 937.762C1595.03 937.894 1595.15 937.923 1595.18 937.935C1595.25 937.948 1595.31 937.952 1595.37 937.936C1595.43 937.921 1595.61 937.852 1595.65 937.643C1595.7 937.433 1595.57 937.22 1595.36 937.172C1595.3 937.159 1595.24 937.153 1595.19 937.168L1595.18 937.171Z" fill="white"/>
</g>
<g style="mix-blend-mode:screen">
<path d="M1241.18 909.936C1238.96 909.445 1236.77 910.84 1236.26 913.056C1235.77 915.279 1237.17 917.473 1239.38 917.976C1241.6 918.48 1243.8 917.072 1244.3 914.856C1244.8 912.634 1243.4 910.44 1241.18 909.936Z" fill="white"/>
</g>
<g style="mix-blend-mode:screen">
<path d="M1645.32 745.056C1644.53 745.268 1643.58 745.937 1643.31 747.159C1643.09 748.15 1643.44 748.903 1643.68 749.275C1643.91 749.647 1644.45 750.291 1645.44 750.512C1645.89 750.609 1646.33 750.604 1646.77 750.487C1647.56 750.275 1648.51 749.606 1648.78 748.384C1649 747.393 1648.64 746.64 1648.41 746.268C1648.18 745.896 1647.64 745.252 1646.65 745.031C1646.2 744.935 1645.76 744.94 1645.32 745.056Z" fill="white"/>
</g>
<g style="mix-blend-mode:screen">
<path d="M1762.39 954.426C1761.55 954.652 1760.56 955.352 1760.27 956.631C1760.04 957.665 1760.41 958.467 1760.66 958.856C1760.91 959.245 1761.47 959.922 1762.5 960.152C1762.98 960.253 1763.44 960.252 1763.91 960.128C1764.75 959.903 1765.74 959.202 1766.03 957.924C1766.26 956.889 1765.89 956.087 1765.64 955.699C1765.39 955.31 1764.82 954.633 1763.79 954.403C1763.32 954.302 1762.85 954.302 1762.39 954.426Z" fill="white"/>
</g>
<g style="mix-blend-mode:screen">
<path d="M1557.15 897.755C1556.48 897.936 1555.68 898.502 1555.45 899.537C1555.26 900.375 1555.56 901.017 1555.76 901.327C1555.96 901.636 1556.41 902.187 1557.25 902.376C1557.63 902.462 1558.01 902.453 1558.37 902.355C1559.05 902.174 1559.85 901.607 1560.08 900.572C1560.27 899.735 1559.96 899.092 1559.77 898.783C1559.57 898.473 1559.11 897.923 1558.28 897.733C1557.89 897.65 1557.52 897.656 1557.15 897.755Z" fill="white"/>
</g>
<g style="mix-blend-mode:screen">
<path d="M1786.64 713.211C1785.85 713.424 1784.9 714.092 1784.62 715.314C1784.4 716.305 1784.76 717.059 1784.99 717.431C1785.23 717.793 1785.76 718.446 1786.75 718.667C1787.2 718.764 1787.65 718.759 1788.08 718.642C1788.87 718.43 1789.82 717.762 1790.1 716.539C1790.44 715.03 1789.48 713.527 1787.97 713.196C1787.52 713.099 1787.07 713.105 1786.64 713.221L1786.64 713.211Z" fill="white"/>
</g>
<g style="mix-blend-mode:screen">
<path d="M1848.59 774.389C1846.44 773.908 1844.32 775.264 1843.84 777.399C1843.36 779.546 1844.72 781.668 1846.85 782.141C1849 782.622 1851.12 781.267 1851.6 779.131C1852.08 776.984 1850.72 774.862 1848.59 774.389Z" fill="white"/>
</g>
<g style="mix-blend-mode:screen">
<path d="M1635.22 845.584C1634.38 845.395 1633.54 845.93 1633.35 846.768C1633.16 847.606 1633.69 848.446 1634.53 848.635C1635.37 848.825 1636.21 848.289 1636.4 847.452C1636.59 846.614 1636.05 845.774 1635.22 845.584Z" fill="white"/>
</g>
<g style="mix-blend-mode:screen">
<path d="M1692.34 912.324C1690.43 911.895 1688.53 913.096 1688.11 915.012C1687.68 916.929 1688.88 918.822 1690.79 919.251C1692.71 919.68 1694.6 918.479 1695.03 916.562C1695.46 914.646 1694.26 912.752 1692.34 912.324Z" fill="white"/>
</g>
<g style="mix-blend-mode:screen">
<path d="M1481.84 948.521C1480.92 948.311 1480.01 948.896 1479.8 949.812C1479.59 950.727 1480.18 951.637 1481.09 951.847C1482.01 952.057 1482.92 951.472 1483.13 950.556C1483.34 949.64 1482.76 948.731 1481.84 948.521Z" fill="white"/>
</g>
<g style="mix-blend-mode:screen">
<path d="M1394.63 712.3C1392.64 711.861 1390.67 713.114 1390.23 715.096C1389.79 717.088 1391.04 719.06 1393.02 719.503C1395.01 719.942 1396.99 718.689 1397.43 716.707C1397.87 714.715 1396.61 712.742 1394.63 712.3Z" fill="white"/>
</g>
<g style="mix-blend-mode:screen">
<path d="M1586.92 809.984C1584.4 809.417 1581.9 811.009 1581.33 813.532C1580.76 816.054 1582.36 818.558 1584.88 819.124C1587.4 819.691 1589.9 818.098 1590.47 815.576C1591.04 813.053 1589.45 810.55 1586.92 809.984Z" fill="white"/>
</g>
<g style="mix-blend-mode:screen">
<path d="M1908.34 832.341C1907.91 832.457 1907.39 832.822 1907.24 833.485C1907.05 834.3 1907.57 835.124 1908.4 835.306C1908.64 835.365 1908.89 835.351 1909.12 835.289C1909.55 835.173 1910.07 834.808 1910.22 834.145C1910.33 833.639 1910.17 833.236 1910.02 832.999C1909.86 832.761 1909.57 832.446 1909.06 832.324C1908.82 832.265 1908.57 832.269 1908.34 832.331L1908.34 832.341Z" fill="white"/>
</g>
<g style="mix-blend-mode:screen">
<path d="M1510.96 745.238C1508.67 744.724 1506.38 746.174 1505.87 748.465C1505.36 750.766 1506.81 753.039 1509.1 753.553C1511.39 754.068 1513.67 752.618 1514.18 750.326C1514.7 748.026 1513.25 745.753 1510.96 745.238Z" fill="white"/>
</g>
<g style="mix-blend-mode:screen">
<path d="M1419.06 836.932C1415.84 836.209 1412.65 838.233 1411.93 841.449C1411.21 844.666 1413.23 847.851 1416.45 848.573C1419.67 849.295 1422.85 847.272 1423.57 844.055C1424.3 840.839 1422.27 837.654 1419.06 836.932Z" fill="white"/>
</g>
<g style="mix-blend-mode:screen">
<path d="M1503.73 1072.39C1502.04 1072.02 1500.37 1073.08 1499.99 1074.76C1499.62 1076.45 1500.68 1078.12 1502.36 1078.5C1504.05 1078.87 1505.72 1077.81 1506.1 1076.13C1506.47 1074.44 1505.41 1072.77 1503.73 1072.39Z" fill="white"/>
</g>
<g style="mix-blend-mode:screen">
<path d="M1727.08 781.234C1726.32 781.436 1725.43 782.069 1725.16 783.228C1724.94 784.166 1725.29 784.89 1725.51 785.236C1725.73 785.582 1726.24 786.199 1727.18 786.404C1727.61 786.496 1728.03 786.496 1728.45 786.385C1729.2 786.183 1730.1 785.549 1730.36 784.393C1730.57 783.455 1730.22 782.731 1730 782.385C1729.79 782.04 1729.27 781.422 1728.34 781.217C1727.91 781.125 1727.49 781.135 1727.08 781.243L1727.08 781.234Z" fill="white"/>
</g>
<g style="mix-blend-mode:screen">
<path d="M1765.06 1043.45C1764.14 1043.24 1763.24 1043.83 1763.02 1044.74C1762.81 1045.66 1763.4 1046.57 1764.32 1046.78C1765.23 1046.99 1766.14 1046.4 1766.35 1045.49C1766.56 1044.57 1765.98 1043.66 1765.06 1043.45Z" fill="white"/>
</g>
<g style="mix-blend-mode:screen">
<path d="M1761.27 888.627C1760.2 888.385 1759.14 889.063 1758.9 890.132C1758.66 891.201 1759.34 892.261 1760.4 892.503C1761.47 892.744 1762.53 892.067 1762.78 890.998C1763.02 889.929 1762.34 888.868 1761.27 888.627Z" fill="white"/>
</g>
<g style="mix-blend-mode:screen">
<path d="M1599.31 646.607C1596.32 645.937 1593.36 647.818 1592.7 650.801C1592.03 653.786 1593.91 656.75 1596.89 657.41C1599.88 658.071 1602.84 656.199 1603.5 653.217C1604.17 650.232 1602.29 647.268 1599.31 646.607Z" fill="white"/>
</g>
<g style="mix-blend-mode:screen">
<path d="M1637.41 991.967C1634.28 991.265 1631.16 993.239 1630.46 996.377C1629.76 999.516 1631.73 1002.63 1634.87 1003.33C1638.01 1004.03 1641.12 1002.06 1641.82 998.922C1642.53 995.784 1640.55 992.668 1637.41 991.967Z" fill="white"/>
</g>
<g style="mix-blend-mode:screen">
<path d="M1889.95 904.247C1888.41 903.901 1886.89 904.868 1886.56 906.397C1886.21 907.929 1887.18 909.45 1888.71 909.786C1890.24 910.131 1891.76 909.165 1892.1 907.636C1892.44 906.104 1891.48 904.582 1889.95 904.247Z" fill="white"/>
</g>
</g>
<g style="mix-blend-mode:screen">
<path d="M1403.77 1031.13C1402.58 1030.87 1401.41 1031.62 1401.15 1032.79C1400.89 1033.97 1401.64 1035.14 1402.81 1035.4C1404 1035.66 1405.16 1034.92 1405.43 1033.75C1405.69 1032.56 1404.94 1031.39 1403.77 1031.13Z" fill="#191919"/>
<path d="M1403.77 1031.13C1402.58 1030.87 1401.41 1031.62 1401.15 1032.79C1400.89 1033.97 1401.64 1035.14 1402.81 1035.4C1404 1035.66 1405.16 1034.92 1405.43 1033.75C1405.69 1032.56 1404.94 1031.39 1403.77 1031.13Z" stroke="black" stroke-width="3"/>
</g>
<g style="mix-blend-mode:screen">
<path d="M1595.32 937.518L1595.6 937.343C1595.65 937.423 1595.67 937.522 1595.66 937.621L1595.31 937.55L1595.32 937.518ZM1595.32 937.518L1595.29 937.542L1595.29 937.545M1595.34 937.168C1595.28 937.158 1595.24 937.154 1595.19 937.168L1595.18 937.171C1595.17 937.171 1595.17 937.172 1595.17 937.173C1595.1 937.193 1594.94 937.265 1594.89 937.464L1595.26 937.54L1595.26 937.54L1595.34 937.168ZM1595.59 937.33C1595.55 937.273 1595.5 937.225 1595.43 937.196L1595.33 937.505L1595.59 937.33ZM1595.65 937.643C1595.65 937.641 1595.65 937.639 1595.66 937.637L1595.31 937.559L1595.31 937.565L1595.3 937.593L1595.29 937.61L1595.29 937.627L1595.24 937.764L1595.21 937.939C1595.26 937.949 1595.32 937.95 1595.37 937.936C1595.37 937.936 1595.38 937.935 1595.38 937.934C1595.38 937.933 1595.39 937.932 1595.39 937.931C1595.46 937.907 1595.61 937.833 1595.65 937.643Z" fill="#191919"/>
<path d="M1595.32 937.518L1595.6 937.343C1595.65 937.423 1595.67 937.522 1595.66 937.621L1595.31 937.55L1595.32 937.518ZM1595.32 937.518L1595.29 937.542L1595.29 937.545M1595.34 937.168C1595.28 937.158 1595.24 937.154 1595.19 937.168L1595.18 937.171C1595.17 937.171 1595.17 937.172 1595.17 937.173C1595.1 937.193 1594.94 937.265 1594.89 937.464L1595.26 937.54L1595.26 937.54L1595.34 937.168ZM1595.59 937.33C1595.55 937.273 1595.5 937.225 1595.43 937.196L1595.33 937.505L1595.59 937.33ZM1595.65 937.643C1595.65 937.641 1595.65 937.639 1595.66 937.637L1595.31 937.559L1595.31 937.565L1595.3 937.593L1595.29 937.61L1595.29 937.627L1595.24 937.764L1595.21 937.939C1595.26 937.949 1595.32 937.95 1595.37 937.936C1595.37 937.936 1595.38 937.935 1595.38 937.934C1595.38 937.933 1595.39 937.932 1595.39 937.931C1595.46 937.907 1595.61 937.833 1595.65 937.643Z" stroke="black" stroke-width="3"/>
</g>
<g style="mix-blend-mode:screen">
<path d="M1240.86 911.4C1239.44 911.09 1238.05 911.975 1237.73 913.384C1237.42 914.798 1238.3 916.193 1239.72 916.514C1241.11 916.83 1242.52 915.946 1242.84 914.528C1243.15 913.116 1242.27 911.723 1240.86 911.4Z" fill="#191919"/>
<path d="M1240.86 911.4C1239.44 911.09 1238.05 911.975 1237.73 913.384C1237.42 914.798 1238.3 916.193 1239.72 916.514C1241.11 916.83 1242.52 915.946 1242.84 914.528C1243.15 913.116 1242.27 911.723 1240.86 911.4Z" stroke="black" stroke-width="3"/>
</g>
<g style="mix-blend-mode:screen">
<path d="M1645.71 746.505C1645.33 746.607 1644.9 746.927 1644.77 747.486L1647.32 748.057C1647.42 747.6 1647.26 747.258 1647.14 747.067C1647.03 746.89 1646.79 746.601 1646.33 746.497C1646.1 746.448 1645.9 746.455 1645.71 746.505ZM1644.77 747.486C1644.67 747.943 1644.83 748.285 1644.95 748.476C1645.06 748.653 1645.3 748.943 1645.76 749.047C1645.99 749.096 1646.19 749.088 1646.38 749.038C1646.76 748.936 1647.19 748.616 1647.32 748.058L1644.77 747.486Z" fill="#191919"/>
<path d="M1645.71 746.505C1645.33 746.607 1644.9 746.927 1644.77 747.486L1647.32 748.057C1647.42 747.6 1647.26 747.258 1647.14 747.067C1647.03 746.89 1646.79 746.601 1646.33 746.497C1646.1 746.448 1645.9 746.455 1645.71 746.505ZM1644.77 747.486C1644.67 747.943 1644.83 748.285 1644.95 748.476C1645.06 748.653 1645.3 748.943 1645.76 749.047C1645.99 749.096 1646.19 749.088 1646.38 749.038C1646.76 748.936 1647.19 748.616 1647.32 748.058L1644.77 747.486Z" stroke="black" stroke-width="3"/>
</g>
<g style="mix-blend-mode:screen">
<path d="M1762.78 955.875C1762.35 955.991 1761.87 956.344 1761.73 956.959C1761.62 957.467 1761.8 957.856 1761.92 958.047C1762.05 958.251 1762.32 958.573 1762.82 958.686C1763.09 958.742 1763.31 958.735 1763.52 958.679C1763.95 958.564 1764.42 958.21 1764.56 957.596C1764.68 957.088 1764.5 956.699 1764.38 956.508C1764.24 956.303 1763.97 955.981 1763.47 955.868C1763.21 955.813 1762.99 955.819 1762.78 955.875Z" fill="#191919"/>
<path d="M1762.78 955.875C1762.35 955.991 1761.87 956.344 1761.73 956.959C1761.62 957.467 1761.8 957.856 1761.92 958.047C1762.05 958.251 1762.32 958.573 1762.82 958.686C1763.09 958.742 1763.31 958.735 1763.52 958.679C1763.95 958.564 1764.42 958.21 1764.56 957.596C1764.68 957.088 1764.5 956.699 1764.38 956.508C1764.24 956.303 1763.97 955.981 1763.47 955.868C1763.21 955.813 1762.99 955.819 1762.78 955.875Z" stroke="black" stroke-width="3"/>
</g>
<g style="mix-blend-mode:screen">
<path d="M1556.91 899.863L1556.91 899.863L1556.91 899.868C1556.84 900.167 1556.94 900.394 1557.03 900.522C1557.1 900.643 1557.27 900.843 1557.58 900.913L1557.58 900.913L1557.59 900.914C1557.72 900.945 1557.85 900.942 1557.99 900.906C1558.25 900.835 1558.53 900.618 1558.62 900.247L1558.62 900.247L1558.62 900.241C1558.69 899.943 1558.58 899.716 1558.5 899.588C1558.43 899.467 1558.26 899.269 1557.95 899.198C1557.79 899.164 1557.66 899.17 1557.54 899.203C1557.28 899.274 1556.99 899.492 1556.91 899.863Z" fill="#191919"/>
<path d="M1556.91 899.863L1556.91 899.863L1556.91 899.868C1556.84 900.167 1556.94 900.394 1557.03 900.522C1557.1 900.643 1557.27 900.843 1557.58 900.913L1557.58 900.913L1557.59 900.914C1557.72 900.945 1557.85 900.942 1557.99 900.906C1558.25 900.835 1558.53 900.618 1558.62 900.247L1558.62 900.247L1558.62 900.241C1558.69 899.943 1558.58 899.716 1558.5 899.588C1558.43 899.467 1558.26 899.269 1557.95 899.198C1557.79 899.164 1557.66 899.17 1557.54 899.203C1557.28 899.274 1556.99 899.492 1556.91 899.863Z" stroke="black" stroke-width="3"/>
</g>
<g style="mix-blend-mode:screen">
<path d="M1788.63 716.213L1788.63 716.213C1788.51 716.771 1788.08 717.091 1787.69 717.194C1787.51 717.244 1787.31 717.251 1787.07 717.202C1786.63 717.1 1786.38 716.81 1786.26 716.627C1786.14 716.435 1785.99 716.095 1786.09 715.641L1788.63 716.213ZM1788.63 716.213L1788.63 716.209C1788.79 715.516 1788.35 714.817 1787.65 714.662C1787.42 714.612 1787.22 714.62 1787.03 714.67L1786.88 714.71M1788.63 716.213L1786.88 714.71M1786.88 714.71C1786.54 714.849 1786.2 715.154 1786.09 715.641L1786.88 714.71Z" fill="#191919"/>
<path d="M1788.63 716.213L1788.63 716.213C1788.51 716.771 1788.08 717.091 1787.69 717.194C1787.51 717.244 1787.31 717.251 1787.07 717.202C1786.63 717.1 1786.38 716.81 1786.26 716.627C1786.14 716.435 1785.99 716.095 1786.09 715.641L1788.63 716.213ZM1788.63 716.213L1788.63 716.209C1788.79 715.516 1788.35 714.817 1787.65 714.662C1787.42 714.612 1787.22 714.62 1787.03 714.67L1786.88 714.71M1788.63 716.213L1786.88 714.71M1786.88 714.71C1786.54 714.849 1786.2 715.154 1786.09 715.641L1786.88 714.71Z" stroke="black" stroke-width="3"/>
</g>
<g style="mix-blend-mode:screen">
<path d="M1848.26 775.853L1848.26 775.853C1846.92 775.553 1845.6 776.398 1845.31 777.724L1845.31 777.726C1845.01 779.064 1845.85 780.383 1847.18 780.677L1847.18 780.677L1847.18 780.678C1848.52 780.977 1849.84 780.133 1850.13 778.807L1850.13 778.804C1850.43 777.466 1849.59 776.147 1848.26 775.853Z" fill="#191919"/>
<path d="M1848.26 775.853L1848.26 775.853C1846.92 775.553 1845.6 776.398 1845.31 777.724L1845.31 777.726C1845.01 779.064 1845.85 780.383 1847.18 780.677L1847.18 780.677L1847.18 780.678C1848.52 780.977 1849.84 780.133 1850.13 778.807L1850.13 778.804C1850.43 777.466 1849.59 776.147 1848.26 775.853Z" stroke="black" stroke-width="3"/>
</g>
<g style="mix-blend-mode:screen">
<path d="M1634.88 847.047C1634.88 847.046 1634.87 847.046 1634.87 847.047C1634.86 847.048 1634.85 847.051 1634.84 847.057C1634.82 847.07 1634.81 847.085 1634.81 847.099C1634.81 847.106 1634.81 847.11 1634.81 847.116C1634.81 847.122 1634.82 847.131 1634.82 847.14C1634.83 847.161 1634.85 847.169 1634.86 847.172C1634.87 847.174 1634.87 847.174 1634.88 847.173C1634.89 847.172 1634.89 847.169 1634.9 847.162C1634.93 847.15 1634.93 847.134 1634.94 847.12C1634.94 847.114 1634.94 847.109 1634.94 847.104C1634.94 847.098 1634.93 847.089 1634.93 847.079C1634.91 847.059 1634.9 847.05 1634.88 847.047Z" fill="#191919"/>
<path d="M1634.88 847.047C1634.88 847.046 1634.87 847.046 1634.87 847.047C1634.86 847.048 1634.85 847.051 1634.84 847.057C1634.82 847.07 1634.81 847.085 1634.81 847.099C1634.81 847.106 1634.81 847.11 1634.81 847.116C1634.81 847.122 1634.82 847.131 1634.82 847.14C1634.83 847.161 1634.85 847.169 1634.86 847.172C1634.87 847.174 1634.87 847.174 1634.88 847.173C1634.89 847.172 1634.89 847.169 1634.9 847.162C1634.93 847.15 1634.93 847.134 1634.94 847.12C1634.94 847.114 1634.94 847.109 1634.94 847.104C1634.94 847.098 1634.93 847.089 1634.93 847.079C1634.91 847.059 1634.9 847.05 1634.88 847.047Z" stroke="black" stroke-width="3"/>
</g>
<g style="mix-blend-mode:screen">
<path d="M1692.02 913.788C1690.91 913.54 1689.82 914.232 1689.57 915.34C1689.32 916.448 1690.01 917.539 1691.12 917.787C1692.23 918.035 1693.32 917.343 1693.57 916.235C1693.82 915.127 1693.12 914.035 1692.02 913.788Z" fill="#191919"/>
<path d="M1692.02 913.788C1690.91 913.54 1689.82 914.232 1689.57 915.34C1689.32 916.448 1690.01 917.539 1691.12 917.787C1692.23 918.035 1693.32 917.343 1693.57 916.235C1693.82 915.127 1693.12 914.035 1692.02 913.788Z" stroke="black" stroke-width="3"/>
</g>
<g style="mix-blend-mode:screen">
<path d="M1481.5 949.983C1481.42 949.963 1481.3 950.018 1481.27 950.147C1481.25 950.235 1481.3 950.355 1481.43 950.385C1481.52 950.405 1481.64 950.349 1481.67 950.22C1481.69 950.133 1481.63 950.012 1481.5 949.983Z" fill="#191919"/>
<path d="M1481.5 949.983C1481.42 949.963 1481.3 950.018 1481.27 950.147C1481.25 950.235 1481.3 950.355 1481.43 950.385C1481.52 950.405 1481.64 950.349 1481.67 950.22C1481.69 950.133 1481.63 950.012 1481.5 949.983Z" stroke="black" stroke-width="3"/>
</g>
<g style="mix-blend-mode:screen">
<path d="M1394.31 713.765C1393.12 713.504 1391.95 714.252 1391.69 715.421C1391.43 716.608 1392.18 717.776 1393.35 718.038C1394.53 718.299 1395.7 717.551 1395.96 716.382C1396.22 715.195 1395.48 714.026 1394.31 713.765Z" fill="#191919"/>
<path d="M1394.31 713.765C1393.12 713.504 1391.95 714.252 1391.69 715.421C1391.43 716.608 1392.18 717.776 1393.35 718.038C1394.53 718.299 1395.7 717.551 1395.96 716.382C1396.22 715.195 1395.48 714.026 1394.31 713.765Z" stroke="black" stroke-width="3"/>
</g>
<g style="mix-blend-mode:screen">
<path d="M1586.59 811.447C1584.88 811.063 1583.18 812.143 1582.79 813.861C1582.41 815.571 1583.49 817.275 1585.21 817.661C1586.92 818.045 1588.62 816.965 1589.01 815.247C1589.39 813.536 1588.31 811.833 1586.59 811.447Z" fill="#191919"/>
<path d="M1586.59 811.447C1584.88 811.063 1583.18 812.143 1582.79 813.861C1582.41 815.571 1583.49 817.275 1585.21 817.661C1586.92 818.045 1588.62 816.965 1589.01 815.247C1589.39 813.536 1588.31 811.833 1586.59 811.447Z" stroke="black" stroke-width="3"/>
</g>
<g style="mix-blend-mode:screen">
<path d="M1908.73 833.79C1908.73 833.79 1908.73 833.789 1908.73 833.789L1908.7 833.817C1908.7 833.818 1908.7 833.818 1908.7 833.817C1908.7 833.817 1908.7 833.817 1908.7 833.817C1908.7 833.818 1908.7 833.818 1908.7 833.818C1908.7 833.819 1908.7 833.823 1908.71 833.828C1908.71 833.833 1908.71 833.837 1908.72 833.838C1908.72 833.839 1908.72 833.84 1908.72 833.84C1908.72 833.84 1908.72 833.841 1908.72 833.842L1908.73 833.842C1908.73 833.842 1908.73 833.842 1908.73 833.841C1908.73 833.841 1908.73 833.84 1908.74 833.838C1908.74 833.834 1908.75 833.83 1908.75 833.826C1908.75 833.825 1908.75 833.824 1908.75 833.823L1908.76 833.823L1908.76 833.823L1908.76 833.822L1908.76 833.82C1908.76 833.819 1908.76 833.817 1908.76 833.814C1908.75 833.803 1908.74 833.796 1908.74 833.793C1908.74 833.792 1908.74 833.791 1908.73 833.79Z" fill="#191919"/>
<path d="M1908.73 833.79C1908.73 833.79 1908.73 833.789 1908.73 833.789L1908.7 833.817C1908.7 833.818 1908.7 833.818 1908.7 833.817C1908.7 833.817 1908.7 833.817 1908.7 833.817C1908.7 833.818 1908.7 833.818 1908.7 833.818C1908.7 833.819 1908.7 833.823 1908.71 833.828C1908.71 833.833 1908.71 833.837 1908.72 833.838C1908.72 833.839 1908.72 833.84 1908.72 833.84C1908.72 833.84 1908.72 833.841 1908.72 833.842L1908.73 833.842C1908.73 833.842 1908.73 833.842 1908.73 833.841C1908.73 833.841 1908.73 833.84 1908.74 833.838C1908.74 833.834 1908.75 833.83 1908.75 833.826C1908.75 833.825 1908.75 833.824 1908.75 833.823L1908.76 833.823L1908.76 833.823L1908.76 833.822L1908.76 833.82C1908.76 833.819 1908.76 833.817 1908.76 833.814C1908.75 833.803 1908.74 833.796 1908.74 833.793C1908.74 833.792 1908.74 833.791 1908.73 833.79Z" stroke="black" stroke-width="3"/>
</g>
<g style="mix-blend-mode:screen">
<path d="M1510.63 746.702C1509.15 746.37 1507.67 747.308 1507.33 748.792C1507 750.284 1507.94 751.756 1509.43 752.09C1510.91 752.422 1512.39 751.484 1512.72 749.999C1513.05 748.507 1512.11 747.035 1510.63 746.702Z" fill="#191919"/>
<path d="M1510.63 746.702C1509.15 746.37 1507.67 747.308 1507.33 748.792C1507 750.284 1507.94 751.756 1509.43 752.09C1510.91 752.422 1512.39 751.484 1512.72 749.999C1513.05 748.507 1512.11 747.035 1510.63 746.702Z" stroke="black" stroke-width="3"/>
</g>
<g style="mix-blend-mode:screen">
<path d="M1418.73 838.395C1416.32 837.855 1413.94 839.367 1413.4 841.778C1412.86 844.184 1414.37 846.568 1416.78 847.109C1419.18 847.649 1421.57 846.137 1422.11 843.726C1422.65 841.321 1421.14 838.936 1418.73 838.395Z" fill="#191919"/>
<path d="M1418.73 838.395C1416.32 837.855 1413.94 839.367 1413.4 841.778C1412.86 844.184 1414.37 846.568 1416.78 847.109C1419.18 847.649 1421.57 846.137 1422.11 843.726C1422.65 841.321 1421.14 838.936 1418.73 838.395Z" stroke="black" stroke-width="3"/>
</g>
<g style="mix-blend-mode:screen">
<path d="M1503.4 1073.86C1502.52 1073.66 1501.65 1074.21 1501.46 1075.09C1501.26 1075.97 1501.81 1076.84 1502.69 1077.03C1503.57 1077.23 1504.44 1076.68 1504.63 1075.8C1504.83 1074.92 1504.28 1074.05 1503.4 1073.86Z" fill="#191919"/>
<path d="M1503.4 1073.86C1502.52 1073.66 1501.65 1074.21 1501.46 1075.09C1501.26 1075.97 1501.81 1076.84 1502.69 1077.03C1503.57 1077.23 1504.44 1076.68 1504.63 1075.8C1504.83 1074.92 1504.28 1074.05 1503.4 1073.86Z" stroke="black" stroke-width="3"/>
</g>
<g style="mix-blend-mode:screen">
<path d="M1728.73 783.182C1728.64 783.036 1728.42 782.772 1728.02 782.683C1727.82 782.64 1727.64 782.647 1727.47 782.692L1727.33 782.731C1727.03 782.855 1726.72 783.128 1726.62 783.565C1726.53 783.956 1726.67 784.262 1726.78 784.439C1726.87 784.585 1727.1 784.849 1727.5 784.938C1727.72 784.985 1727.9 784.978 1728.06 784.936C1728.4 784.844 1728.78 784.559 1728.89 784.064L1728.89 784.064L1728.89 784.058C1728.98 783.666 1728.85 783.36 1728.73 783.182Z" fill="#191919"/>
<path d="M1728.73 783.182C1728.64 783.036 1728.42 782.772 1728.02 782.683C1727.82 782.64 1727.64 782.647 1727.47 782.692L1727.33 782.731C1727.03 782.855 1726.72 783.128 1726.62 783.565C1726.53 783.956 1726.67 784.262 1726.78 784.439C1726.87 784.585 1727.1 784.849 1727.5 784.938C1727.72 784.985 1727.9 784.978 1728.06 784.936C1728.4 784.844 1728.78 784.559 1728.89 784.064L1728.89 784.064L1728.89 784.058C1728.98 783.666 1728.85 783.36 1728.73 783.182Z" stroke="black" stroke-width="3"/>
</g>
<g style="mix-blend-mode:screen">
<path d="M1764.72 1044.91C1764.64 1044.89 1764.52 1044.95 1764.49 1045.08C1764.47 1045.17 1764.52 1045.29 1764.65 1045.32C1764.74 1045.34 1764.86 1045.28 1764.89 1045.15C1764.91 1045.06 1764.85 1044.94 1764.72 1044.91Z" fill="#191919"/>
<path d="M1764.72 1044.91C1764.64 1044.89 1764.52 1044.95 1764.49 1045.08C1764.47 1045.17 1764.52 1045.29 1764.65 1045.32C1764.74 1045.34 1764.86 1045.28 1764.89 1045.15C1764.91 1045.06 1764.85 1044.94 1764.72 1044.91Z" stroke="black" stroke-width="3"/>
</g>
<g style="mix-blend-mode:screen">
<path d="M1760.94 890.09C1760.69 890.033 1760.42 890.192 1760.36 890.462C1760.31 890.714 1760.46 890.979 1760.73 891.04C1760.99 891.097 1761.25 890.937 1761.31 890.667C1761.37 890.415 1761.21 890.151 1760.94 890.09Z" fill="#191919"/>
<path d="M1760.94 890.09C1760.69 890.033 1760.42 890.192 1760.36 890.462C1760.31 890.714 1760.46 890.979 1760.73 891.04C1760.99 891.097 1761.25 890.937 1761.31 890.667C1761.37 890.415 1761.21 890.151 1760.94 890.09Z" stroke="black" stroke-width="3"/>
</g>
<g style="mix-blend-mode:screen">
<path d="M1598.98 648.072L1598.98 648.071C1596.8 647.582 1594.64 648.954 1594.16 651.125L1594.16 651.125L1594.16 651.129C1593.67 653.306 1595.05 655.465 1597.22 655.946C1599.4 656.429 1601.56 655.058 1602.04 652.892L1602.04 652.888C1602.53 650.711 1601.15 648.552 1598.98 648.072Z" fill="#191919"/>
<path d="M1598.98 648.072L1598.98 648.071C1596.8 647.582 1594.64 648.954 1594.16 651.125L1594.16 651.125L1594.16 651.129C1593.67 653.306 1595.05 655.465 1597.22 655.946C1599.4 656.429 1601.56 655.058 1602.04 652.892L1602.04 652.888C1602.53 650.711 1601.15 648.552 1598.98 648.072Z" stroke="black" stroke-width="3"/>
</g>
<g style="mix-blend-mode:screen">
<path d="M1637.09 993.431C1634.76 992.909 1632.44 994.376 1631.92 996.705C1631.4 999.036 1632.87 1001.35 1635.2 1001.87C1637.53 1002.39 1639.84 1000.92 1640.36 998.595C1640.88 996.264 1639.42 993.951 1637.09 993.431Z" fill="#191919"/>
<path d="M1637.09 993.431C1634.76 992.909 1632.44 994.376 1631.92 996.705C1631.4 999.036 1632.87 1001.35 1635.2 1001.87C1637.53 1002.39 1639.84 1000.92 1640.36 998.595C1640.88 996.264 1639.42 993.951 1637.09 993.431Z" stroke="black" stroke-width="3"/>
</g>
<g style="mix-blend-mode:screen">
<path d="M1889.62 905.712L1889.62 905.712L1889.62 905.71C1888.89 905.547 1888.18 906.004 1888.02 906.719L1888.02 906.719L1888.02 906.727C1887.86 907.449 1888.32 908.164 1889.03 908.321L1889.03 908.321L1889.04 908.323C1889.76 908.486 1890.47 908.028 1890.63 907.314L1890.63 907.314L1890.63 907.306C1890.8 906.583 1890.34 905.869 1889.62 905.712Z" fill="#191919"/>
<path d="M1889.62 905.712L1889.62 905.712L1889.62 905.71C1888.89 905.547 1888.18 906.004 1888.02 906.719L1888.02 906.719L1888.02 906.727C1887.86 907.449 1888.32 908.164 1889.03 908.321L1889.03 908.321L1889.04 908.323C1889.76 908.486 1890.47 908.028 1890.63 907.314L1890.63 907.314L1890.63 907.306C1890.8 906.583 1890.34 905.869 1889.62 905.712Z" stroke="black" stroke-width="3"/>
</g>
<defs>
<filter id="filter0_f_3296_8129" x="-504.64" y="0.635742" width="2860.33" height="1734.53" filterUnits="userSpaceOnUse" color-interpolation-filters="sRGB">
<feFlood flood-opacity="0" result="BackgroundImageFix"/>
<feBlend mode="normal" in="SourceGraphic" in2="BackgroundImageFix" result="shape"/>
<feGaussianBlur stdDeviation="250" result="effect1_foregroundBlur_3296_8129"/>
</filter>
<filter id="filter1_f_3296_8129" x="-119.631" y="589.876" width="744.603" height="595.93" filterUnits="userSpaceOnUse" color-interpolation-filters="sRGB">
<feFlood flood-opacity="0" result="BackgroundImageFix"/>
<feBlend mode="normal" in="SourceGraphic" in2="BackgroundImageFix" result="shape"/>
<feGaussianBlur stdDeviation="30" result="effect1_foregroundBlur_3296_8129"/>
</filter>
<filter id="filter2_f_3296_8129" x="1176.17" y="586.472" width="794.094" height="552.101" filterUnits="userSpaceOnUse" color-interpolation-filters="sRGB">
<feFlood flood-opacity="0" result="BackgroundImageFix"/>
<feBlend mode="normal" in="SourceGraphic" in2="BackgroundImageFix" result="shape"/>
<feGaussianBlur stdDeviation="30" result="effect1_foregroundBlur_3296_8129"/>
</filter>
<linearGradient id="paint0_linear_3296_8129" x1="853.053" y1="597.444" x2="997.992" y2="1138.36" gradientUnits="userSpaceOnUse">
<stop/>
<stop offset="1" stop-opacity="0"/>
</linearGradient>
<linearGradient id="paint1_linear_3296_8129" x1="861.853" y1="630.285" x2="968.487" y2="1028.25" gradientUnits="userSpaceOnUse">
<stop/>
<stop offset="1" stop-opacity="0"/>
</linearGradient>
<linearGradient id="paint2_linear_3296_8129" x1="870.135" y1="661.195" x2="933.028" y2="895.915" gradientUnits="userSpaceOnUse">
<stop/>
<stop offset="1" stop-opacity="0"/>
</linearGradient>
</defs>
</svg>
