<svg width="300" height="80" viewBox="0 0 300 80" fill="none" xmlns="http://www.w3.org/2000/svg">
<mask id="path-1-inside-1_2440_26177" fill="white">
<path fill-rule="evenodd" clip-rule="evenodd" d="M182.037 2.62958C179.909 0.92737 177.265 0 174.541 0H12C5.37258 0 0 5.37258 0 12V79C0 79.5523 0.447714 80 0.999999 80H299C299.552 80 300 79.5523 300 79V40C300 37.5257 299.775 35.1038 299.345 32.7537C298.465 27.9448 293.893 25 289.004 25H214.209C211.485 25 208.841 24.0726 206.713 22.3704L182.037 2.62958Z"/>
</mask>
<path fill-rule="evenodd" clip-rule="evenodd" d="M182.037 2.62958C179.909 0.92737 177.265 0 174.541 0H12C5.37258 0 0 5.37258 0 12V79C0 79.5523 0.447714 80 0.999999 80H299C299.552 80 300 79.5523 300 79V40C300 37.5257 299.775 35.1038 299.345 32.7537C298.465 27.9448 293.893 25 289.004 25H214.209C211.485 25 208.841 24.0726 206.713 22.3704L182.037 2.62958Z" fill="#0D0D0D"/>
<path d="M206.713 22.3704L206.088 23.1513L206.713 22.3704ZM299.345 32.7537L300.329 32.5737L299.345 32.7537ZM182.037 2.62958L182.662 1.84871L182.037 2.62958ZM12 1H174.541V-1H12V1ZM1 12C1 5.92487 5.92487 1 12 1V-1C4.8203 -1 -1 4.8203 -1 12H1ZM1 79V12H-1V79H1ZM0.999999 79H1H-1C-1 80.1046 -0.104572 81 0.999999 81V79ZM299 79H0.999999V81H299V79ZM299 79V81C300.105 81 301 80.1046 301 79H299ZM299 40V79H301V40H299ZM298.362 32.9337C298.781 35.2247 299 37.5863 299 40H301C301 37.465 300.77 34.9829 300.329 32.5737L298.362 32.9337ZM289.004 24H214.209V26H289.004V24ZM207.338 21.5896L182.662 1.84871L181.412 3.41044L206.088 23.1513L207.338 21.5896ZM214.209 24C211.712 24 209.288 23.1499 207.338 21.5896L206.088 23.1513C208.393 24.9953 211.257 26 214.209 26V24ZM300.329 32.5737C299.34 27.1713 294.244 24 289.004 24V26C293.541 26 297.59 28.7182 298.362 32.9337L300.329 32.5737ZM174.541 1C177.038 1 179.462 1.85009 181.412 3.41044L182.662 1.84871C180.357 0.00465101 177.493 -1 174.541 -1V1Z" fill="#131313" mask="url(#path-1-inside-1_2440_26177)"/>
</svg>
