<svg width="24" height="24" viewBox="0 0 24 24" fill="none" xmlns="http://www.w3.org/2000/svg">
<path fill-rule="evenodd" clip-rule="evenodd" d="M16.7266 10.8434C16.7266 11.616 16.5744 12.381 16.2788 13.0948C15.9831 13.8086 15.5498 14.4572 15.0035 15.0035C14.4572 15.5498 13.8086 15.9831 13.0948 16.2788C12.381 16.5744 11.616 16.7266 10.8434 16.7266C10.0708 16.7266 9.30583 16.5744 8.59205 16.2788C7.87827 15.9831 7.22972 15.5498 6.68342 15.0035C6.13711 14.4572 5.70376 13.8086 5.40811 13.0948C5.11245 12.381 4.96028 11.616 4.96028 10.8434C4.96028 9.28313 5.58011 7.78672 6.68342 6.68342C7.78672 5.58011 9.28313 4.96028 10.8434 4.96028C12.4037 4.96028 13.9002 5.58011 15.0035 6.68342C16.1068 7.78672 16.7266 9.28313 16.7266 10.8434ZM15.6546 17.0404C14.0784 18.264 12.0951 18.841 10.1084 18.6538C8.1218 18.4667 6.28117 17.5294 4.96126 16.0329C3.64135 14.5364 2.94138 12.5931 3.00385 10.5986C3.06632 8.60418 3.88654 6.7085 5.29752 5.29752C6.7085 3.88654 8.60418 3.06632 10.5986 3.00385C12.5931 2.94138 14.5364 3.64135 16.0329 4.96126C17.5294 6.28117 18.4667 8.1218 18.6538 10.1084C18.841 12.0951 18.264 14.0784 17.0404 15.6546L20.6879 19.3021C20.7843 19.3919 20.8615 19.5001 20.9151 19.6204C20.9687 19.7407 20.9975 19.8705 20.9998 20.0022C21.0022 20.1338 20.978 20.2646 20.9286 20.3867C20.8793 20.5088 20.8059 20.6197 20.7128 20.7128C20.6197 20.8059 20.5088 20.8793 20.3867 20.9286C20.2646 20.978 20.1338 21.0022 20.0022 20.9998C19.8705 20.9975 19.7407 20.9687 19.6204 20.9151C19.5001 20.8615 19.3919 20.7843 19.3021 20.6879L15.6546 17.0404Z" fill="#9A9A9A" stroke="#9A9A9A"/>
</svg>
