<svg width="25" height="24" viewBox="0 0 25 24" fill="none" xmlns="http://www.w3.org/2000/svg">
<g id="icon / Product / - All">
<path id="Vector" d="M3.5 16.8102C3.50001 16.9219 3.52509 17.0323 3.57351 17.1336C3.62192 17.235 3.69251 17.3249 3.78038 17.3972L10.3675 22.8168C10.4832 22.912 10.6245 22.9731 10.7748 22.993C10.9252 23.0128 11.0782 22.9905 11.2159 22.9287C11.3535 22.8669 11.4701 22.7683 11.5517 22.6444C11.6334 22.5204 11.6767 22.3765 11.6766 22.2294L11.662 1.76967C11.662 1.62273 11.6185 1.47887 11.5368 1.35509C11.4551 1.2313 11.3386 1.13276 11.2009 1.07109C11.0633 1.00942 10.9103 0.987204 10.7601 1.00706C10.6098 1.02692 10.4686 1.08802 10.353 1.18316L3.78038 6.59026C3.69251 6.66254 3.62192 6.75247 3.57351 6.85383C3.52509 6.95518 3.50001 7.06553 3.5 7.17721L3.5 16.8102ZM12.7981 3.2199L12.7997 5.23903L14.995 3.43263L15.0071 20.5649L12.809 18.7566L12.8108 20.7779L15.2886 22.8168C15.4042 22.912 15.5455 22.9731 15.6958 22.993C15.8462 23.0128 15.9992 22.9905 16.1369 22.9287C16.2746 22.8669 16.3911 22.7683 16.4727 22.6444C16.5544 22.5204 16.5977 22.3765 16.5976 22.2294L16.5828 1.76967C16.5827 1.62277 16.5393 1.47896 16.4576 1.35522C16.3759 1.23147 16.2594 1.13296 16.1218 1.0713C15.9842 1.00964 15.8312 0.987405 15.681 1.00723C15.5308 1.02705 15.3896 1.08809 15.274 1.18316L12.7981 3.2199ZM17.7003 3.2199L17.7021 5.23903L19.8974 3.43263L19.9095 20.5649L17.7114 18.7566L17.7132 20.7779L20.191 22.8168C20.3066 22.912 20.4479 22.9731 20.5983 22.993C20.7486 23.0128 20.9016 22.9905 21.0393 22.9287C21.177 22.8669 21.2935 22.7683 21.3751 22.6444C21.4568 22.5204 21.5001 22.3765 21.5 22.2294L21.4852 1.76967C21.4852 1.62273 21.4417 1.47887 21.36 1.35509C21.2783 1.2313 21.1618 1.13276 21.0241 1.07109C20.8865 1.00942 20.7335 0.987203 20.5833 1.00706C20.433 1.02692 20.2918 1.08802 20.1762 1.18316L17.7003 3.2199Z" fill="white"/>
</g>
</svg>
