<svg width="17" height="16" viewBox="0 0 17 16" fill="none" xmlns="http://www.w3.org/2000/svg">
<g clip-path="url(#clip0_3202_308)">
<path d="M11.3204 9.80052C12.632 10.7594 15.323 10.7202 16.5 9.64977C16.5 12.2063 13.8786 13.5916 11.4988 12.7611C12.8434 13.6522 14.426 14.0608 16.5 13.4747V16H12.3628C10.147 16 8.89065 13.9042 7.242 12.2424C5.83231 10.8223 3.77728 11.0897 3.54545 12.5606C3.1986 14.7567 6.22962 14.9983 7 13.8333C7.242 15.3333 5.83333 16 5.83333 16H0.505689V10.9432C0.680451 6.94787 5.59091 4.93906 8.85683 8.74617C7.10564 4.36364 2.31818 4.93906 0.505689 7.63636C0.505689 7.63636 1.6086 2.88664 6.13636 3.09091C9.20719 3.23006 9.87419 5.75169 11.875 5.72493C13.5192 5.70263 14.1991 4.51262 13.4091 3.27273C12.5 2.18182 10.6818 2.54545 10.6818 4C9.77273 2.90909 10.5 1.09091 12.5 1.09091C17.3902 1.09091 17.6945 11.0564 11.3204 9.80052ZM0.505689 10.9432C0.497664 11.0948 0.498556 11.2491 0.505689 11.4053V10.9432ZM0.505689 0V4.93906C2.41551 0.545454 8.5 2 10.6818 0H0.505689ZM0.505689 4.93906C0.755817 4.36364 0.502123 4.94709 0.500339 4.95155L0.505689 4.93906Z" fill="white"/>
</g>
<defs>
<clipPath id="clip0_3202_308">
<rect x="0.5" width="16" height="16" rx="8" fill="white"/>
</clipPath>
</defs>
</svg>
