<svg width="16" height="16" viewBox="0 0 16 16" fill="none" xmlns="http://www.w3.org/2000/svg">
<g clip-path="url(#clip0_2245_279)">
<path d="M10.8204 9.80052C12.132 10.7594 14.823 10.7202 16 9.64977C16 12.2063 13.3786 13.5916 10.9988 12.7611C12.3434 13.6522 13.926 14.0608 16 13.4747V16H11.8628C9.64703 16 8.39065 13.9042 6.742 12.2424C5.33231 10.8223 3.27728 11.0897 3.04545 12.5606C2.6986 14.7567 5.72962 14.9983 6.5 13.8333C6.742 15.3333 5.33333 16 5.33333 16H0.00568914V10.9432C0.180451 6.94787 5.09091 4.93906 8.35683 8.74617C6.60564 4.36364 1.81818 4.93906 0.00568914 7.63636C0.00568914 7.63636 1.1086 2.88664 5.63636 3.09091C8.70719 3.23006 9.37419 5.75169 11.375 5.72493C13.0192 5.70263 13.6991 4.51262 12.9091 3.27273C12 2.18182 10.1818 2.54545 10.1818 4C9.27273 2.90909 10 1.09091 12 1.09091C16.8902 1.09091 17.1945 11.0564 10.8204 9.80052ZM0.00568914 10.9432C-0.00233566 11.0948 -0.00144401 11.2491 0.00568914 11.4053V10.9432ZM0.00568914 0V4.93906C1.91551 0.545454 8 2 10.1818 0H0.00568914ZM0.00568914 4.93906C0.255817 4.36364 0.00212278 4.94709 0.000339491 4.95155L0.00568914 4.93906Z" fill="white"/>
</g>
<defs>
<clipPath id="clip0_2245_279">
<rect width="16" height="16" rx="8" fill="white"/>
</clipPath>
</defs>
</svg>
