<svg width="15" height="16" viewBox="0 0 15 16" fill="none" xmlns="http://www.w3.org/2000/svg">
<g id="v3">
<path id="Vector" d="M7.22505 15.3486L6.77235 15.2041L6.9987 13.882L7.22505 15.3486ZM5.18383 14.6967V14.4614L4.81533 14.5791L5.18383 14.6967ZM9.03969 13.2299L8.81334 15.8555L9.26604 16L9.03969 13.2299ZM5.50072 8.68479L4.41424 8.33783L4.95748 1.47715L5.50072 8.68479ZM0.332031 7.03436L1.41851 7.38132L0.87527 0.173462L0.332031 7.03436ZM2.91649 0.825306L2.37325 7.68621L3.45973 8.03317L2.91649 0.825306ZM6.9987 2.12899L6.45546 8.9899L7.54194 9.33686L6.9987 2.12899ZM9.03992 2.78084L8.49668 9.64174L9.58315 9.9887L9.03992 2.78084ZM13.1221 4.08453L12.5789 10.9454L13.6654 11.2924L13.1221 4.08453ZM11.0809 3.43268L10.5377 10.2936L11.6241 10.6405L11.0809 3.43268ZM4.95748 8.99485L5.34227 14.0111L4.57269 14.2569L4.95748 8.99485ZM9.03969 10.2985L8.6549 12.9536L9.42448 12.7079L9.03969 10.2985ZM6.99847 9.64669L6.61368 13.6052L7.38327 13.3595L6.99847 9.64669ZM11.0807 10.9504L10.6959 12.3018L11.4655 12.0561L11.0807 10.9504ZM12.7371 11.4794V11.6499L13.0042 11.5646L12.7371 11.4794Z" fill="white"/>
<g id="Group">
<path id="Vector_2" d="M0.729249 9.33331L0.823206 9.64258L1.12674 9.73804L0.823206 9.83377L0.729249 10.143L0.635563 9.83377L0.332031 9.73804L0.635563 9.64258L0.729249 9.33331Z" fill="white"/>
<path id="Vector_3" d="M12.3975 13.3333L12.4912 13.6425L12.7947 13.7383L12.4912 13.8337L12.3975 14.143L12.3035 13.8337L12 13.7383L12.3035 13.6425L12.3975 13.3333Z" fill="white"/>
<path id="Vector_4" d="M10.7295 0.78302L10.8232 1.09229L11.1267 1.18802L10.8232 1.28348L10.7295 1.59275L10.6358 1.28348L10.332 1.18802L10.6358 1.09229L10.7295 0.78302Z" fill="white"/>
<path id="Vector_5" d="M1.29342 12.1134L1.33322 12.2444L1.46184 12.285L1.33322 12.3253L1.29342 12.4566L1.25362 12.3253L1.125 12.285L1.25362 12.2444L1.29342 12.1134Z" fill="white"/>
<path id="Vector_6" d="M10.8325 15L10.8723 15.1313L11.0009 15.1716L10.8723 15.2122L10.8325 15.3432L10.7927 15.2122L10.6641 15.1716L10.7927 15.1313L10.8325 15Z" fill="white"/>
<path id="Vector_7" d="M14.4965 0.333313L14.5363 0.464635L14.665 0.504914L14.5363 0.545469L14.4965 0.676515L14.457 0.545469L14.3281 0.504914L14.457 0.464635L14.4965 0.333313Z" fill="white"/>
<path id="Vector_8" d="M2.81074 10.2881L2.9732 10.825L3.50012 10.9908L2.9732 11.1566L2.81074 11.6935L2.64801 11.1566L2.12109 10.9908L2.64801 10.825L2.81074 10.2881Z" fill="white"/>
<path id="Vector_9" d="M13.3534 1.78302L13.5162 2.31989L14.0431 2.4857L13.5162 2.65151L13.3534 3.18811L13.191 2.65151L12.6641 2.4857L13.191 2.31989L13.3534 1.78302Z" fill="white"/>
</g>
</g>
</svg>
