<svg width="15" height="16" viewBox="0 0 15 16" fill="none" xmlns="http://www.w3.org/2000/svg">
<g id="v5">
<path id="Vector" d="M9.59363 7.86807C9.59363 7.86807 9.2459 7.55259 8.53541 7.28151L9.04298 0.0170394L9.04402 0L9.04505 0.0139413L9.59363 7.86807ZM7.83373 1.51754L7.36145 6.97583C7.72941 7.03263 8.05067 7.11473 8.32625 7.20664L7.83373 1.51754ZM6.62345 2.76297L6.17763 6.89941C6.49941 6.89425 6.79783 6.90922 7.07289 6.93865L6.62345 2.76297ZM5.41264 3.79462L4.97928 7.00733C5.27926 6.95982 5.56367 6.92936 5.83354 6.91283L5.41264 3.79462ZM4.20236 4.62387L3.75966 7.2371C4.01708 7.18805 4.30044 7.13228 4.61703 7.07187L4.20236 4.62387ZM2.99674 5.07155L2.99207 5.04779L2.98688 5.07361L2.52602 7.43899C2.79433 7.41008 3.0886 7.36206 3.43062 7.29906L2.99674 5.07155ZM1.78178 5.14074L1.32352 7.41317C1.63335 7.46894 1.92658 7.48236 2.2494 7.46223L1.78178 5.14074ZM0.570461 4.8459L0.166687 7.06516C0.487942 7.19114 0.76664 7.28409 1.02562 7.34966L0.570461 4.8459ZM5.40641 8.13193C5.40641 8.13193 5.75414 8.44741 6.46463 8.7185L5.95706 15.983L5.95602 16L5.95499 15.9861L5.40641 8.13193ZM7.16631 14.4825L7.63859 9.02417C7.27063 8.96737 6.94937 8.88527 6.67379 8.79337L7.16631 14.4825ZM8.37659 13.237L8.82241 9.10059C8.50063 9.10575 8.20221 9.09078 7.92715 9.06135L8.37659 13.237ZM9.5874 12.2054L10.0208 8.99267C9.72078 9.04018 9.43637 9.07064 9.1665 9.08717L9.5874 12.2054ZM10.7977 11.3761L11.2404 8.7629C10.983 8.81195 10.6996 8.86772 10.383 8.92813L10.7977 11.3761ZM12.0033 10.9285L12.008 10.9522L12.0132 10.9264L12.474 8.56101C12.2057 8.58992 11.9114 8.63795 11.5694 8.70094L12.0033 10.9285ZM13.2183 10.8593L13.6765 8.58683C13.3667 8.53106 13.0735 8.51764 12.7506 8.53777L13.2183 10.8593ZM14.4296 11.1541L14.8334 8.93484C14.5121 8.80886 14.2334 8.71591 13.9744 8.65034L14.4296 11.1541Z" fill="white"/>
</g>
</svg>
