<svg width="17" height="16" viewBox="0 0 17 16" fill="none" xmlns="http://www.w3.org/2000/svg">
<path d="M14.7678 12.06C15.5237 10.9079 15.9643 9.5394 15.9643 8.07141C15.9643 3.98835 12.5705 0.666687 8.3989 0.666687C4.22732 0.666687 0.833313 3.98835 0.833313 8.07141C0.833313 12.1541 4.22732 15.4759 8.3989 15.4759C9.90271 15.4759 11.3044 15.0423 12.4837 14.2988C14.1548 15.4528 15.5138 15.9609 15.9906 15.4944C16.4675 15.0275 15.9477 13.6964 14.7678 12.06ZM12.9591 10.2324C13.6346 11.0013 14.1903 11.7176 14.5864 12.3241C15.1683 13.2148 15.4067 13.8684 15.1714 14.0985C14.9439 14.3211 14.3119 14.1105 13.4465 13.5808C12.8523 13.2169 12.1477 12.7018 11.3883 12.0728C10.7502 11.544 10.0733 10.9353 9.39059 10.2671C7.2161 8.13884 5.65147 6.06786 5.41699 5.09524C5.40764 5.10295 5.38979 5.10599 5.38856 5.11797C5.38856 5.11797 5.92414 8.6149 10.3783 12.6368C9.7699 12.8905 9.10091 13.0311 8.3989 13.0311C5.60458 13.0311 3.3313 10.8061 3.3313 8.07141C3.3313 5.3365 5.60458 3.11158 8.3989 3.11158C11.193 3.11158 13.4663 5.3365 13.4663 8.07141C13.4663 8.75443 13.2154 9.63952 12.9591 10.2324Z" fill="white"/>
</svg>
