<svg width="16" height="16" viewBox="0 0 16 16" fill="none" xmlns="http://www.w3.org/2000/svg">
<g clip-path="url(#clip0_2245_60)">
<path d="M14.2679 12.06C15.0239 10.9079 15.4645 9.5394 15.4645 8.07141C15.4645 3.98835 12.0706 0.666687 7.89908 0.666687C3.72751 0.666687 0.333496 3.98835 0.333496 8.07141C0.333496 12.1541 3.72751 15.4759 7.89908 15.4759C9.40289 15.4759 10.8046 15.0423 11.9839 14.2988C13.655 15.4528 15.014 15.9609 15.4908 15.4944C15.9677 15.0275 15.4479 13.6964 14.2679 12.06ZM12.4593 10.2324C13.1347 11.0013 13.6904 11.7176 14.0866 12.3241C14.6685 13.2148 14.9069 13.8684 14.6716 14.0985C14.4441 14.3211 13.8121 14.1105 12.9467 13.5808C12.3524 13.2169 11.6479 12.7018 10.8885 12.0728C10.2504 11.544 9.57346 10.9353 8.89077 10.2671C6.71628 8.13884 5.15166 6.06786 4.91717 5.09524C4.90782 5.10295 4.88997 5.10599 4.88874 5.11797C4.88874 5.11797 5.42432 8.6149 9.87851 12.6368C9.27009 12.8905 8.60109 13.0311 7.89908 13.0311C5.10476 13.0311 2.83148 10.8061 2.83148 8.07141C2.83148 5.3365 5.10476 3.11158 7.89908 3.11158C10.6932 3.11158 12.9664 5.3365 12.9664 8.07141C12.9664 8.75443 12.7156 9.63952 12.4593 10.2324Z" fill="white"/>
</g>
<defs>
<clipPath id="clip0_2245_60">
<rect width="16" height="16" rx="8" fill="white"/>
</clipPath>
</defs>
</svg>
