<svg width="16" height="16" viewBox="0 0 16 16" fill="none" xmlns="http://www.w3.org/2000/svg">
<path d="M15.1693 15.6667C12.6762 15.916 5.83594 9.83335 4.83594 5.16669C7.83594 10.5 12.9922 14.3334 14.3359 14.3334C15.6693 14.3334 13.6693 11.5 12.5026 10.1667C14.8359 11.8334 16.8359 15.5 15.1693 15.6667Z" fill="white"/>
<path fill-rule="evenodd" clip-rule="evenodd" d="M11.1093 14.6441C10.1657 15.0863 9.11233 15.3334 8.0013 15.3334C3.95121 15.3334 0.667969 12.0501 0.667969 8.00002C0.667969 3.94993 3.95121 0.666687 8.0013 0.666687C12.0514 0.666687 15.3346 3.94993 15.3346 8.00002C15.3346 9.4922 14.889 10.8803 14.1235 12.0384L13.2086 10.9828C13.7129 10.1041 14.0013 9.08576 14.0013 8.00002C14.0013 4.68631 11.315 2.00002 8.0013 2.00002C4.68759 2.00002 2.0013 4.68631 2.0013 8.00002C2.0013 11.3137 4.68759 14 8.0013 14C8.64588 14 9.26673 13.8984 9.84867 13.7102C10.2538 14.0354 10.6668 14.3387 11.1093 14.6441Z" fill="white"/>
</svg>
