<svg width="16" height="16" viewBox="0 0 16 16" fill="none" xmlns="http://www.w3.org/2000/svg">
<g clip-path="url(#clip0_2245_848)">
<path d="M-6.99201 17.883C-11.5833 11.7974 -14.7822 4.47781 -16 -3.52806C-14.6927 -5.41713 -8.18639 -10.8793 -5.85135 -12.3917C-5.43276 -3.38059 0.323502 4.65247 5.59132 9.87397C1.69104 13.1368 -2.50232 16.0386 -6.99201 17.883ZM0.170876 -12.0729C-0.863095 -12.7237 -2.027 -13.0929 -3.25663 -13.2779C-3.29516 -12.1446 -3.17601 -10.9363 -2.87732 -9.87259L0.170876 -12.0729ZM6.19283 5.45037C13.0711 -1.00056 20.2563 -5.30894 28.33 -5.908C26.9859 -8.04512 22.1823 -14.2159 19.5541 -16C12.2015 -15.2876 3.18654 -11.1402 -1.83191 -6.97656C0.108908 -2.46841 2.80966 1.66109 6.19283 5.45037ZM26.0758 -2.94597L28.1059 0.229626C28.7039 -0.880188 29.1225 -2.07681 29.364 -3.35884C28.1818 -3.35978 27.1384 -3.20659 26.0758 -2.94597ZM10.4404 6.11938C17.1497 13.1099 22.0924 21.3473 21.6737 28.5902C21.6737 28.5902 30.4848 21.672 32 19.3739C31.3721 12.5109 26.8019 2.20756 22.947 -1.89634C18.8821 -0.185219 14.7069 2.54487 10.4404 6.11928V6.11938ZM-12.5603 21.8364C-9.13655 26.0773 -5.77551 30.1942 -3.58372 32C4.73876 31.2837 14.2432 25.7831 17.8713 23.0239C16.2044 19.0578 13.386 14.8374 9.81261 10.4503C4.50982 15.2004 -2.4155 21.4634 -12.5603 21.8364ZM19.3016 29.2059C19.3218 27.958 19.1899 26.7993 18.9136 25.9054L15.831 28.0361C17.1864 28.6876 18.4046 29.1584 19.3016 29.2059ZM-13.389 19.2383C-12.3365 19.3889 -11.1824 19.246 -9.97693 18.9617L-12.1054 15.7409C-12.6989 16.8119 -13.1328 17.9743 -13.389 19.2383Z" fill="white"/>
</g>
<defs>
<clipPath id="clip0_2245_848">
<rect width="16" height="16" rx="8" fill="white"/>
</clipPath>
</defs>
</svg>
