<svg width="17" height="16" viewBox="0 0 17 16" fill="none" xmlns="http://www.w3.org/2000/svg">
<g clip-path="url(#clip0_3202_271)">
<path d="M3.50266 11.2943C1.97222 9.26581 0.905938 6.82594 0.5 4.15731C0.935751 3.52762 3.10454 1.70691 3.88288 1.20278C4.02241 4.20647 5.94117 6.88416 7.69711 8.62466C6.39701 9.71228 4.99923 10.6795 3.50266 11.2943ZM5.89029 1.30903C5.54564 1.09209 5.15767 0.969031 4.74779 0.907375C4.73495 1.28512 4.77467 1.68791 4.87423 2.04247L5.89029 1.30903ZM7.89761 7.15013C10.1904 4.99981 12.5854 3.56369 15.2767 3.364C14.8286 2.65163 13.2274 0.594688 12.3514 0C9.90049 0.237469 6.89551 1.61994 5.2227 3.00781C5.86964 4.51053 6.76989 5.88703 7.89761 7.15013ZM14.5253 4.35134L15.202 5.40987C15.4013 5.03994 15.5408 4.64106 15.6213 4.21372C15.2273 4.21341 14.8795 4.26447 14.5253 4.35134ZM9.31346 7.37313C11.5499 9.70331 13.1975 12.4491 13.0579 14.8634C13.0579 14.8634 15.9949 12.5573 16.5 11.7913C16.2907 9.50362 14.7673 6.06919 13.4823 4.70122C12.1274 5.27159 10.7356 6.18162 9.31346 7.37309V7.37313ZM1.64656 12.6121C2.78782 14.0258 3.90816 15.3981 4.63876 16C7.41292 15.7612 10.5811 13.9277 11.7904 13.008C11.2348 11.6859 10.2953 10.2791 9.10421 8.81678C7.33661 10.4001 5.02817 12.4878 1.64656 12.6121ZM12.2672 15.0686C12.2739 14.6527 12.23 14.2664 12.1379 13.9685L11.1103 14.6787C11.5621 14.8959 11.9682 15.0528 12.2672 15.0686ZM1.37035 11.7461C1.72116 11.7963 2.10588 11.7487 2.50769 11.6539L1.79819 10.5803C1.60038 10.9373 1.45572 11.3248 1.37035 11.7461Z" fill="white"/>
</g>
<defs>
<clipPath id="clip0_3202_271">
<rect x="0.5" width="16" height="16" rx="8" fill="white"/>
</clipPath>
</defs>
</svg>
