<svg width="16" height="16" viewBox="0 0 16 16" fill="none" xmlns="http://www.w3.org/2000/svg">
<g clip-path="url(#clip0_2245_569)">
<path fill-rule="evenodd" clip-rule="evenodd" d="M13.1811 11.8064L18.9197 5.52443e-05H17.7626L13.8014 8.14964C13.7178 7.44997 13.5188 6.78463 13.2265 6.1718L16.0721 5.52443e-05H14.929L12.5782 5.094C12.2594 4.66722 11.8889 4.28085 11.4751 3.94357L13.2944 0.000165838H12.1495L10.6056 3.34594C10.2302 3.12964 9.83372 2.95142 9.42224 2.81398L10.7204 0.000110489H9.57559L8.39226 2.56176C8.05622 2.50825 7.71171 2.4805 7.36061 2.4805C7.196 2.4805 7.03272 2.48741 6.871 2.49957L8.02293 5.52443e-05H6.87976L5.62672 2.71537C5.01064 2.88468 4.42336 3.14374 3.88407 3.48407L5.49076 0H4.34591L1.58377 5.98707L1.57166 6.01123C1.49123 6.16761 1.41737 6.32723 1.35028 6.48968L1.24572 6.71769L1.25966 6.72283C1.00939 7.40625 0.872765 8.1435 0.872765 8.91138C0.872765 12.4567 3.78436 15.3423 7.36067 15.3423C9.89189 15.3423 12.0886 13.8961 13.1568 11.7942L13.1811 11.8064ZM-1.35259 12.8221L-4.99994 12.6441H-5V15.9053L-2.3389 13.8826L-1.35259 12.8221ZM21.3333 17.5013V13.715L15.0946 14.064L17.2973 15.5202L21.3333 17.5013ZM-2.142 17.6102L-0.247663 14.0726L-1.79346 14.7688L-4.99994 17.206L-4.99827 21.0234L-2.142 17.6102ZM1.95503 15.4908L1.95505 15.4908H1.9551L1.95503 15.4908ZM-1.52685 18.4946L1.95503 15.4908L0.304688 21.2117L0.297717 21.2083L-2.03744 26.3333L-4.99821 26.3332V22.6436L-1.52685 18.4946ZM15.992 16.0315L14.9185 15.6532V15.6533L16.6281 18.3512L16.6298 18.3496L21.3333 24.0791V18.6552L15.992 16.0315ZM5.05161 22.0598L5.036 15.8483L5.03594 15.8484L1.24226 21.6315L1.24739 21.6332L-0.894369 26.3333H4.48527L5.05161 22.0598ZM8.06643 16.3391L8.06637 16.3389H8.06648L8.06643 16.3391ZM8.06643 16.3391L9.95898 22.0236L10.5306 26.3333L5.53794 26.3332L6.15303 21.6867L8.06643 16.3391ZM17.2658 20.7609L13.345 16.4288L14.5054 20.5813L16.7639 26.3333H21.3333V25.5024L21.2287 25.5871L17.2658 20.7609ZM13.2856 20.3222L11.3303 16.6982L11.0236 22.122L11.583 26.3332H15.6452L13.2891 20.3308L13.2856 20.3222ZM5.16666 8.66667C5.99509 8.66667 6.66666 7.99509 6.66666 7.16667C6.66666 6.33824 5.99509 5.66667 5.16666 5.66667C4.33824 5.66667 3.66666 6.33824 3.66666 7.16667C3.66666 7.99509 4.33824 8.66667 5.16666 8.66667ZM7.33333 11.1667C7.33333 11.6269 6.96024 12 6.5 12C6.03976 12 5.66666 11.6269 5.66666 11.1667C5.66666 10.7064 6.03976 10.3333 6.5 10.3333C6.96024 10.3333 7.33333 10.7064 7.33333 11.1667ZM9.83333 7C10.1095 7 10.3333 6.77614 10.3333 6.5C10.3333 6.22386 10.1095 6 9.83333 6C9.55719 6 9.33333 6.22386 9.33333 6.5C9.33333 6.77614 9.55719 7 9.83333 7Z" fill="white"/>
</g>
<defs>
<clipPath id="clip0_2245_569">
<rect width="16" height="16" rx="8" fill="white"/>
</clipPath>
</defs>
</svg>
