<svg width="48" height="48" viewBox="0 0 48 48" fill="none" xmlns="http://www.w3.org/2000/svg">
<path d="M48 0C48 0 8.27841 42.7125 7.45374 43.5373C6.62908 44.3622 5.28634 44.3622 4.46167 43.5373C3.637 42.7125 3.637 41.3695 4.46167 40.5446C5.28634 39.7198 48 0 48 0ZM1.33216 35.1408C0.59207 35.881 0.59207 37.0654 1.33216 37.8057C2.07225 38.5459 3.25639 38.5459 3.99648 37.8057C4.73656 37.0654 36.7189 2.4111 36.7189 2.4111C36.7189 2.4111 2.07225 34.4005 1.33216 35.1408ZM25.4907 6.09121C25.4907 6.09121 3.40441 30.4666 2.77004 31.1011C2.13568 31.7356 1.11013 31.7356 0.475771 31.1011C-0.15859 30.4666 -0.15859 29.4408 0.475771 28.8063C1.11013 28.1718 25.4907 6.09121 25.4907 6.09121ZM14.7912 10.7231C14.7912 10.7231 3.73216 23.0007 3.39383 23.3391C3.05551 23.6775 2.50573 23.6775 2.1674 23.3391C1.82907 23.0007 1.82907 22.4508 2.1674 22.1124C2.50573 21.774 14.7806 10.7125 14.7806 10.7125L14.7912 10.7231ZM45.5789 11.2835C45.5789 11.2835 10.9322 43.273 10.1921 44.0026C9.45198 44.7323 9.45198 45.9273 10.1921 46.6675C10.9322 47.4078 12.1163 47.4078 12.8564 46.6675C13.5965 45.9273 45.5789 11.2835 45.5789 11.2835ZM19.1894 47.5241C18.5551 48.1586 17.5295 48.1586 16.8952 47.5241C16.2608 46.8896 16.2608 45.8638 16.8952 45.2293C17.5295 44.5948 41.8996 22.5142 41.8996 22.5142C41.8996 22.5142 19.8238 46.8896 19.1894 47.5241ZM25.8714 45.8321C25.533 46.1705 24.9833 46.1705 24.6449 45.8321C24.3066 45.4937 24.3066 44.9438 24.6449 44.6054C24.9833 44.267 37.2581 33.2056 37.2581 33.2056C37.2581 33.2056 26.1991 45.4831 25.8608 45.8215L25.8714 45.8321Z" fill="white"/>
</svg>
