<svg width="16" height="16" viewBox="0 0 16 16" fill="none" xmlns="http://www.w3.org/2000/svg">
<g id="icon / Product / Neptun">
<path id="Vector" fill-rule="evenodd" clip-rule="evenodd" d="M7.74569 3.61678L6.34659 4.4127L8.00646 0L9.66632 4.4127L8.26723 3.61678L8.42596 7.83674L7.60736 7.29252L7.74569 3.61678ZM11.8432 11.2245V12.2449H9.92029C9.45544 12.2449 9.06995 12.619 9.06995 13.0952L8.76383 16L7.24909 14.4467L6.94297 13.0952C6.94297 12.6304 6.56882 12.2449 6.09489 12.2449H4.16972V11.2132H6.92029C7.22641 11.2132 7.47358 10.9751 7.48718 10.6553L7.54387 9.17007L8.49399 9.98639L8.51666 10.6667C8.528 10.9751 8.77517 11.2245 9.08129 11.2245H11.8432ZM11.8387 5.19274H10.6006L14.0201 1.98639L11.8387 10.9388H10.113L4.46904 6.12245L4.80918 8.12925L5.3534 10.9388H4.10396L3.41235 7.30159L2.12891 1.98639L5.54841 5.19274H4.29897L4.34433 5.4195L4.35566 5.43084L10.7389 9.77098L11.8387 5.19274Z" fill="white"/>
</g>
</svg>
