<svg width="16" height="16" viewBox="0 0 16 16" fill="none" xmlns="http://www.w3.org/2000/svg">
<g clip-path="url(#clip0_2245_835)">
<path fill-rule="evenodd" clip-rule="evenodd" d="M10.7106 1.43461C10.469 1.44908 7.60405 1.62076 6.53581 4.85671C5.04406 9.57281 0.201274 7.70114 0.860115 4.40816C1.99611 -1.2697 8.77079 -0.51069 10.7262 1.43353C10.7245 1.43377 10.7192 1.43409 10.7106 1.43461ZM11.4157 5.94825C14.4525 5.30348 15.344 6.78222 15.3888 6.85655L15.3904 6.85906C16.0214 5.17591 14.6496 1.67221 11.0053 2.28763C7.84443 2.82141 8.42555 6.58311 11.4157 5.94825ZM7.74756 8.36176C3.83261 11.2404 0.621764 8.67162 0.351144 8.45511C0.341471 8.44737 0.335554 8.44264 0.333496 8.44127C0.333496 15.3139 9.40728 17.9978 13.4327 14.4043C18.9907 9.44262 13.3836 4.10336 7.74756 8.36176Z" fill="white"/>
</g>
<defs>
<clipPath id="clip0_2245_835">
<rect width="16" height="16" rx="8" fill="white"/>
</clipPath>
</defs>
</svg>
