<svg width="17" height="16" viewBox="0 0 17 16" fill="none" xmlns="http://www.w3.org/2000/svg">
<path fill-rule="evenodd" clip-rule="evenodd" d="M8.24459 3.61678L6.8455 4.4127L8.50536 0L10.1652 4.4127L8.76613 3.61678L8.92486 7.83674L8.10627 7.29252L8.24459 3.61678ZM12.3421 11.2245V12.2449H10.4192C9.95434 12.2449 9.56885 12.619 9.56885 13.0952L9.26273 16L7.74799 14.4467L7.44187 13.0952C7.44187 12.6304 7.06772 12.2449 6.59379 12.2449H4.66862V11.2132H7.41919C7.72531 11.2132 7.97248 10.9751 7.98608 10.6553L8.04277 9.17007L8.99289 9.98639L9.01556 10.6667C9.0269 10.9751 9.27407 11.2245 9.58019 11.2245H12.3421ZM12.3376 5.19274H11.0995L14.519 1.98639L12.3376 10.9388H10.6119L4.96794 6.12245L5.30808 8.12925L5.8523 10.9388H4.60286L3.91125 7.30159L2.62781 1.98639L6.04731 5.19274H4.79788L4.84323 5.4195L4.85456 5.43084L11.2378 9.77098L12.3376 5.19274Z" fill="white"/>
</svg>
