<svg width="16" height="16" viewBox="0 0 16 16" fill="none" xmlns="http://www.w3.org/2000/svg">
<path d="M14.9358 8.20169C14.6537 6.4245 13.554 5.35852 12.1308 4.31663C11.7813 4.05616 11.2734 3.68244 10.9431 3.40941C10.0396 2.6842 9.33102 1.81651 8.83729 0.795213L8.43931 0C8.02611 0.190052 7.3788 0.476057 6.97846 0.680728C5.35203 1.48459 3.96936 2.76801 3.72689 4.59399C3.67377 4.98398 3.67163 5.37932 3.70183 5.76951C3.72775 6.13109 3.79051 6.45148 3.81385 6.78361C3.83313 7.05025 3.78837 7.27408 3.63757 7.49769C3.10549 8.29249 1.98051 7.74478 1.36297 7.383C0.764921 8.56532 0.978479 10.1181 1.47949 11.2948C1.40388 10.4858 1.47457 9.64612 1.75603 8.88509C1.77788 8.82764 1.80144 8.76958 1.82736 8.71192C1.9261 8.7564 2.02828 8.79511 2.13388 8.8295C3.03502 9.12271 4.06875 8.94563 4.64774 8.16606C4.72421 8.06723 4.79082 7.96428 4.84802 7.85823C4.34507 7.32802 4.0377 6.623 4.0377 5.85064C4.0377 4.45644 5.03866 3.28257 6.38619 2.95868C6.74584 2.68503 7.15689 2.45771 7.58936 2.26148C7.68639 2.42188 7.79071 2.57898 7.90123 2.73218C7.97942 2.68894 8.05332 2.67638 8.11308 2.67638H9.17059C9.30232 2.67638 9.54994 2.74165 9.72687 3.17838C9.83525 3.44606 9.89502 3.79795 9.89502 4.1692C9.89502 4.3224 9.88473 4.47251 9.86503 4.61479C10.9341 5.34308 12.1435 5.85002 13.1085 6.67983C13.8205 7.29384 14.3106 8.15268 14.5487 9.04488C14.6438 9.39862 14.7068 9.77008 14.7398 10.138C14.7535 10.263 14.7587 10.3884 14.7666 10.5155C14.9983 9.77152 15.063 8.97116 14.9358 8.20169ZM7.94772 9.71387H7.06949C6.92062 9.71387 6.68586 9.98443 6.68586 10.6757C6.73598 10.6757 6.93605 10.6927 6.93605 10.6927L7.15367 12.0762H7.94772C7.75236 11.8254 7.63541 11.4 7.63541 10.8952C7.63541 10.3903 7.75236 9.96446 7.94772 9.71387ZM9.31196 7.73798H7.16738C6.08481 7.73798 5.20402 6.89129 5.20402 5.85064C5.20402 4.80999 6.08481 3.9633 7.16738 3.9633H7.43064C7.44777 3.67359 7.50111 3.40261 7.58507 3.18126H7.13889C6.76747 3.18126 6.40697 3.25086 6.06703 3.38799C5.03137 3.80619 4.36199 4.77272 4.36199 5.85064C4.36199 6.48875 4.60083 7.10667 5.03459 7.59076C5.56409 8.1813 6.33114 8.52002 7.13889 8.52002H9.28326C9.68103 8.52002 10.0047 8.83114 10.0047 9.21351C10.0047 9.59588 9.68103 9.90721 9.28326 9.90721H8.25445C8.18484 9.92122 8.00812 10.1975 7.96785 10.6892H9.31196C10.1583 10.6892 10.8469 10.0273 10.8469 9.21351C10.8469 8.39977 10.1583 7.73798 9.31196 7.73798ZM9.28326 6.54414H7.13889C6.74112 6.54414 6.41747 6.23301 6.41747 5.85064C6.41747 5.46827 6.74112 5.15715 7.13889 5.15715H7.58507C7.50111 4.9358 7.44777 4.66482 7.43064 4.37511H7.16738C6.32108 4.37511 5.63242 5.0369 5.63242 5.85064C5.63242 6.66439 6.32108 7.32617 7.16738 7.32617H9.31196C10.3945 7.32617 11.2753 8.17286 11.2753 9.21351C11.2753 10.2542 10.3945 11.1011 9.31196 11.1011H7.96785C8.00833 11.5954 8.18676 11.8718 8.25531 11.8831H9.28326C10.8144 11.8831 12.0602 10.6855 12.0602 9.21351C12.0602 7.74148 10.8144 6.54414 9.28326 6.54414ZM8.4603 4.1692C8.4603 3.78725 8.5222 3.42382 8.63487 3.14585C8.65779 3.08922 8.68264 3.03651 8.70941 2.98812H8.11308C8.10708 2.98812 8.1013 2.98853 8.09594 2.98977L8.09316 2.99039L8.08887 2.99142L8.07945 2.99471L8.07388 2.99698L8.07152 2.99801C8.06017 3.00315 8.04818 3.01057 8.03575 3.02004C8.03382 3.02148 8.03211 3.02292 8.03018 3.02457L8.02076 3.0326C8.01819 3.03486 8.01562 3.03733 8.01305 3.0396C8.01026 3.04228 8.00769 3.04475 8.00405 3.04845C8.00255 3.04989 8.00105 3.05134 7.99977 3.05278L7.99698 3.05628L7.99377 3.05957C7.99206 3.06122 7.99056 3.06307 7.98863 3.06534C7.97899 3.07625 7.96999 3.08778 7.961 3.10034L7.95864 3.10364C7.95714 3.10549 7.95586 3.10755 7.9535 3.11084C7.9505 3.11517 7.94772 3.1197 7.94472 3.12402L7.93808 3.1339C7.79927 3.35381 7.71317 3.74854 7.71317 4.1692C7.71317 4.58987 7.79949 4.98624 7.93915 5.20574L7.946 5.21604C7.94986 5.2218 7.95371 5.22757 7.95757 5.23313L7.95885 5.23498C7.96228 5.23992 7.96592 5.24486 7.96956 5.24939L7.97106 5.25145C7.97492 5.25639 7.97899 5.26133 7.98349 5.26669C7.98713 5.27122 7.99077 5.27534 7.99463 5.27945L7.99634 5.28131C8.00277 5.28872 8.01026 5.29634 8.01862 5.30396C8.02226 5.30725 8.0259 5.31055 8.02954 5.31343C8.03404 5.31714 8.03875 5.32064 8.04475 5.32496L8.04968 5.32805L8.05246 5.33011L8.05439 5.33114C8.06081 5.33526 8.06745 5.33876 8.07624 5.34246L8.07816 5.34329C8.08095 5.34432 8.08373 5.34514 8.08673 5.34617L8.08995 5.34679L8.0923 5.34761L8.09487 5.34802L8.09916 5.34905C8.10344 5.34987 8.10815 5.35029 8.11308 5.35029H8.70941C8.68264 5.30169 8.65779 5.24919 8.63487 5.19236C8.5222 4.91459 8.4603 4.55116 8.4603 4.1692ZM14.7072 11.4278L13.255 13.8369L9.91772 15.4268L8.78867 14.8562L7.85625 16L6.37313 14.5107L5.85005 14.3517L5.44157 14.1252L4.65481 14.6589L3.99785 13.8524L3.35825 14.4421L1.95138 13.457L1.45807 12.1537L2.06962 13.2238L3.25136 13.756L3.63671 13.3084L3.16847 12.6408L2.89515 11.9478L3.39424 12.6073L4.68994 13.8124L4.87886 13.6374L3.9051 12.262L3.67227 11.2398L4.11009 12.1988L4.78718 12.9056L6.05504 13.4052L6.62267 11.5928L6.78139 11.0858L6.95147 12.1672L7.15839 13.4828L7.85004 14.3507L8.70941 13.5479L9.82947 12.8597L10.5391 12.0766L10.2493 12.9915L9.65083 13.7993L9.95949 14.153L12.8443 13.2894L14.7072 11.4285V11.4278ZM9.17059 2.98812C9.00737 2.98812 8.77046 3.44812 8.77046 4.1692C8.77046 4.89029 9.00737 5.35029 9.17059 5.35029C9.33381 5.35029 9.57072 4.89029 9.57072 4.1692C9.57072 3.44812 9.33381 2.98812 9.17059 2.98812ZM9.24556 5.04637C9.15688 5.04637 9.02814 4.70477 9.02814 4.1692C9.02814 3.63364 9.15688 3.29204 9.24556 3.29204C9.33424 3.29204 9.46276 3.63364 9.46276 4.1692C9.46276 4.70477 9.33402 5.04637 9.24556 5.04637Z" fill="white"/>
</svg>
