<svg width="16" height="16" viewBox="0 0 16 16" fill="none" xmlns="http://www.w3.org/2000/svg">
<path d="M1.33337 8.10253C5.07191 8.10253 8.10259 5.07185 8.1026 1.33331C8.1026 5.00324 11.0231 7.99105 14.6667 8.09949V5.99998C14.6667 3.42265 12.5774 1.33331 10 1.33331H8.1026H6.00004C3.42271 1.33331 1.33337 3.42265 1.33337 5.99998V8.10253Z" fill="white"/>
<path d="M8.09955 14.6666H6.00004C3.42271 14.6666 1.33337 12.5773 1.33337 9.99998V8.10253C5.0033 8.10254 7.99111 11.023 8.09955 14.6666Z" fill="white"/>
<path d="M8.10564 14.6666C8.21206 11.0911 11.0912 8.21199 14.6667 8.10558V9.99998C14.6667 12.5773 12.5774 14.6666 10 14.6666H8.10564Z" fill="white"/>
</svg>
