<svg width="17" height="16" viewBox="0 0 17 16" fill="none" xmlns="http://www.w3.org/2000/svg">
<g clip-path="url(#clip0_3202_31)">
<path d="M16.5 0V16H15.0586C15.6089 13.3891 15.0372 11.1484 13.4736 9.56592C14.4199 12.5916 13.627 14.7039 11.282 16C13.1828 12.5105 11.2437 8.60166 8.19941 7.47416C11.6674 10.5578 9.77907 15.7993 5.8482 16H0.5V11.6363C1.40088 12.7727 2.5194 13.3391 3.84485 13.3712C2.08323 12.1822 0.96828 10.3928 0.5 7.99955V5.58577C1.66936 7.91481 3.48718 9.3233 5.80984 10.0182C2.98946 6.35736 4.19183 0.768913 9.97174 0H11.3204C9.23944 2.27552 10.1403 4.17461 11.5514 5.66338C12.6494 6.82121 14.0997 7.63829 14.4039 8.78452C14.4422 7.08881 13.0954 6.01305 12.9883 4.30038C12.8617 2.27195 14.2879 0.383565 16.5 0ZM4.49955 0L1.47848 0.0454926C0.833593 3.66795 1.91197 5.8837 4.01165 8.13514C2.70136 5.42343 2.8637 2.71171 4.49955 0Z" fill="white"/>
</g>
<defs>
<clipPath id="clip0_3202_31">
<rect x="0.5" width="16" height="16" rx="8" fill="white"/>
</clipPath>
</defs>
</svg>
