<svg width="16" height="16" viewBox="0 0 16 16" fill="none" xmlns="http://www.w3.org/2000/svg">
<g id="icon / Product / Terra">
<g clip-path="url(#clip0_2801_6888)">
<path id="Vector" d="M16 0V16H14.5586C15.1089 13.3891 14.5372 11.1484 12.9736 9.56592C13.9199 12.5916 13.127 14.7039 10.782 16C12.6828 12.5105 10.7437 8.60166 7.69941 7.47416C11.1674 10.5578 9.27907 15.7993 5.3482 16H0V11.6363C0.900881 12.7727 2.0194 13.3391 3.34485 13.3712C1.58323 12.1822 0.46828 10.3928 0 7.99955V5.58577C1.16936 7.91481 2.98718 9.3233 5.30984 10.0182C2.48946 6.35736 3.69183 0.768913 9.47174 0H10.8204C8.73944 2.27552 9.64032 4.17461 11.0514 5.66338C12.1494 6.82121 13.5997 7.63829 13.9039 8.78452C13.9422 7.08881 12.5954 6.01305 12.4883 4.30038C12.3617 2.27195 13.7879 0.383565 16 0ZM3.99955 0L0.978481 0.0454926C0.333593 3.66795 1.41197 5.8837 3.51165 8.13514C2.20136 5.42343 2.3637 2.71171 3.99955 0Z" fill="white"/>
</g>
</g>
<defs>
<clipPath id="clip0_2801_6888">
<rect width="16" height="16" rx="8" fill="white"/>
</clipPath>
</defs>
</svg>
