<svg width="512" height="513" viewBox="0 0 512 513" fill="none" xmlns="http://www.w3.org/2000/svg">
<path opacity="0.3" fill-rule="evenodd" clip-rule="evenodd" d="M254.979 176.364C285.641 176.364 310.498 151.507 310.498 120.845C310.498 90.1828 285.641 65.3262 254.979 65.3262C224.317 65.3262 199.46 90.1828 199.46 120.845C199.46 151.507 224.317 176.364 254.979 176.364ZM265.345 426.714C265.345 451.421 283.7 461.688 303.015 461.688C355.918 461.688 346.404 345.467 262.64 342.593C276.768 372.509 272.857 388.117 268.959 403.672C267.151 410.89 265.345 418.096 265.345 426.714ZM237.021 402.275C237.021 377.568 218.667 367.3 199.351 367.3C146.449 367.3 155.963 483.521 239.727 486.395C225.598 456.48 229.509 440.872 233.407 425.316C235.215 418.099 237.021 410.893 237.021 402.275ZM453.358 287.064C470.593 287.064 484.557 273.091 484.557 255.856C484.557 238.622 470.593 224.658 453.358 224.658C446.114 224.658 439.454 227.116 434.161 231.258C436.114 226.571 437.194 221.427 437.194 216.036C437.194 194.133 419.424 176.364 397.522 176.364C375.62 176.364 357.86 194.133 357.86 216.036C357.86 221.427 358.931 226.551 360.873 231.238C355.591 227.116 348.931 224.658 341.696 224.658C324.462 224.658 310.498 238.622 310.498 255.856C310.498 273.091 324.462 287.064 341.696 287.064H453.358Z" fill="white"/>
<g filter="url(#filter0_di_5415_39083)">
<path d="M74.0223 292.155L62.9721 333.372L46.699 329.013L53.3886 304.061L36.1343 314.017L27.7104 299.436L44.9646 289.481L20 282.794L24.3606 266.53L65.5984 277.574L103.665 255.614L65.5984 233.653L24.3606 244.698L20 228.433L44.9646 221.747L27.7104 211.792L36.1343 197.211L53.3886 207.166L46.699 182.214L62.9721 177.855L74.0223 219.072L112.089 241.033V197.102L81.9012 166.93L93.8137 155.023L112.089 173.289V153.379H128.937V173.289L147.212 155.023L159.124 166.93L128.937 197.102V241.033L167.003 219.072L178.053 177.855L194.326 182.214L187.637 207.166L204.891 197.211L213.315 211.792L196.061 221.747L221.025 228.433L216.665 244.698L175.427 233.653L137.361 255.614L175.427 277.574L216.665 266.53L221.025 282.794L196.061 289.481L213.315 299.436L204.891 314.017L187.637 304.061L194.326 329.013L178.053 333.372L167.003 292.155L128.937 270.185V314.116L159.124 344.288L147.212 356.194L128.937 337.928V357.838H112.089V337.928L93.8137 356.194L81.9012 344.288L112.089 314.116V270.185L74.0223 292.145V292.155ZM170.194 76.8391L162.969 61.6243C130.027 77.2651 101.375 101.256 80.1272 131.012L93.8434 140.799C113.437 113.371 139.838 91.2517 170.204 76.8391H170.194ZM92.3865 368.17L78.5514 377.778C95.2209 401.759 116.211 421.788 140.938 437.31L149.897 423.046C127.103 408.743 107.758 390.269 92.3865 368.16V368.17ZM354.53 426.365L363.023 440.906C395.53 421.937 422.596 394.657 441.307 362.029L426.689 353.658C409.444 383.741 384.49 408.882 354.53 426.365ZM430.752 164.82L445.717 157.084C424.231 115.57 389.148 81.6631 346.929 61.6243L339.704 76.8391C378.613 95.3129 410.951 126.555 430.752 164.83V164.82ZM191.046 120.721C191.046 85.4867 219.727 56.8102 254.989 56.8102C290.25 56.8102 318.931 85.4767 318.931 120.721C318.931 155.964 290.25 184.631 254.989 184.631C219.727 184.631 191.046 155.964 191.046 120.721ZM207.894 120.721C207.894 146.673 229.023 167.791 254.989 167.791C280.954 167.791 302.083 146.673 302.083 120.721C302.083 94.7681 280.954 73.6496 254.989 73.6496C229.023 73.6496 207.894 94.7681 207.894 120.721ZM263.363 17H246.515V41.7142H263.363V17ZM304.948 182.541L322.43 200.014L334.342 188.108L316.86 170.634L304.948 182.541ZM246.585 224.471H263.432V199.757H246.585V224.471ZM358.762 112.281H334.035V129.12H358.762V112.281ZM334.293 53.3136L322.38 41.4072L304.898 58.8805L316.811 70.7869L334.293 53.3136ZM151.186 129.2H175.913V112.36H151.186V129.2ZM205 58.9399L187.518 41.4666L175.605 53.373L193.087 70.8463L205 58.9399ZM492.98 255.683C492.98 277.525 475.201 295.295 453.348 295.295H341.686C319.833 295.295 302.054 277.525 302.054 255.683C302.054 233.841 319.833 216.071 341.686 216.071C344.332 216.071 346.929 216.328 349.426 216.834C349.426 216.517 349.426 216.2 349.426 215.883C349.426 189.376 371.001 167.811 397.522 167.811C424.043 167.811 445.618 189.376 445.618 215.883C445.618 216.2 445.618 216.507 445.618 216.824C448.145 216.328 450.732 216.071 453.368 216.071C475.22 216.071 493 233.841 493 255.683H492.98ZM476.132 255.683C476.132 243.133 465.915 232.91 453.348 232.91C448.868 232.91 444.607 234.178 440.91 236.595C439.344 239.884 437.402 242.994 435.113 245.857L421.951 235.347C426.411 229.77 428.77 223.034 428.77 215.873C428.77 198.657 414.756 184.641 397.522 184.641C380.288 184.641 366.274 198.647 366.274 215.873C366.274 219.379 366.839 222.787 367.969 226.046C376.155 233.306 381.318 243.895 381.318 255.673H364.47C364.47 243.123 354.253 232.9 341.686 232.9C329.119 232.9 318.902 243.113 318.902 255.673C318.902 268.233 329.119 278.446 341.686 278.446H453.348C465.905 278.446 476.132 268.233 476.132 255.673V255.683ZM392.557 304.359L368.117 328.786L380.03 340.692L404.469 316.265L392.557 304.359ZM356.918 316.265L345.006 304.359L320.567 328.786L332.479 340.692L356.918 316.265ZM415.678 328.786L427.59 340.692L452.03 316.265L440.117 304.359L415.678 328.786ZM324.818 364.02C337.484 379.769 344.55 400.293 344.213 420.342C343.708 449.94 327.157 469.83 303.025 469.83C300.974 469.83 298.952 469.731 296.97 469.533C291.886 477.14 285.067 484.371 275.949 492.425L264.79 479.805C270.885 474.416 275.761 469.652 279.656 464.788C276.742 463.382 274.057 461.698 271.638 459.746C264.919 454.328 256.911 444.155 256.911 426.454C256.911 416.796 258.874 408.961 260.776 401.373C264.572 386.228 267.853 373.142 255.008 345.972L249.112 333.491L262.917 333.966C294.968 335.066 314.264 350.915 324.798 364.02H324.818ZM292.946 430.347L275.196 413.725C274.364 417.797 273.779 421.947 273.779 426.464C273.779 440.401 280.706 447.097 288.229 450.267C290.478 444.621 291.975 438.212 292.946 430.347ZM311.449 390.021C311.449 394.697 311.419 399.105 311.35 403.285L321.647 391.507C314.452 374.173 300.032 357.66 275.89 352.45C282.203 370.626 281.678 383.672 279.587 394.776L294.383 408.634C294.542 403.027 294.601 396.866 294.601 390.031H311.449V390.021ZM326.87 411.12L309.863 430.585C308.912 439.064 307.435 446.324 305.195 452.912C321.102 451.564 327.117 435.319 327.375 420.065C327.425 417.252 327.266 414.25 326.88 411.13L326.87 411.12ZM247.358 482.519L253.254 495L239.449 494.525C207.398 493.425 188.102 477.576 177.568 464.471C164.902 448.721 157.836 428.197 158.173 408.149C158.678 378.551 175.229 358.661 199.361 358.661C201.412 358.661 203.434 358.76 205.416 358.958C210.5 351.35 217.319 344.119 226.436 336.066L237.596 348.686C231.501 354.074 226.625 358.839 222.73 363.703C225.644 365.109 228.329 366.793 230.738 368.744C237.457 374.163 245.465 384.336 245.465 402.037C245.465 411.695 243.502 419.53 241.6 427.118C237.804 442.263 234.523 455.348 247.367 482.519H247.358ZM192.532 397.916C193.484 389.437 194.961 382.176 197.2 375.589C181.294 376.936 175.278 393.181 175.021 408.436C174.971 411.249 175.13 414.25 175.516 417.371L192.523 397.906L192.532 397.916ZM226.496 476.061C220.183 457.884 220.708 444.839 222.799 433.734L208.003 419.877C207.844 425.483 207.785 431.644 207.785 438.479H190.937C190.937 433.804 190.967 429.396 191.036 425.216L180.739 436.993C187.934 454.328 202.354 470.84 226.496 476.051V476.061ZM228.617 402.037C228.617 388.1 221.689 381.404 214.167 378.234C211.917 383.88 210.421 390.289 209.45 398.154L227.2 414.785C228.032 410.714 228.617 406.564 228.617 402.047V402.037Z" fill="white"/>
</g>
<defs>
<filter id="filter0_di_5415_39083" x="10" y="15" width="493" height="498" filterUnits="userSpaceOnUse" color-interpolation-filters="sRGB">
<feFlood flood-opacity="0" result="BackgroundImageFix"/>
<feColorMatrix in="SourceAlpha" type="matrix" values="0 0 0 0 0 0 0 0 0 0 0 0 0 0 0 0 0 0 127 0" result="hardAlpha"/>
<feOffset dy="8"/>
<feGaussianBlur stdDeviation="5"/>
<feComposite in2="hardAlpha" operator="out"/>
<feColorMatrix type="matrix" values="0 0 0 0 0 0 0 0 0 0 0 0 0 0 0 0 0 0 0.25 0"/>
<feBlend mode="normal" in2="BackgroundImageFix" result="effect1_dropShadow_5415_39083"/>
<feBlend mode="normal" in="SourceGraphic" in2="effect1_dropShadow_5415_39083" result="shape"/>
<feColorMatrix in="SourceAlpha" type="matrix" values="0 0 0 0 0 0 0 0 0 0 0 0 0 0 0 0 0 0 127 0" result="hardAlpha"/>
<feOffset dy="-1"/>
<feGaussianBlur stdDeviation="1"/>
<feComposite in2="hardAlpha" operator="arithmetic" k2="-1" k3="1"/>
<feColorMatrix type="matrix" values="0 0 0 0 0 0 0 0 0 0 0 0 0 0 0 0 0 0 0.45 0"/>
<feBlend mode="normal" in2="shape" result="effect2_innerShadow_5415_39083"/>
</filter>
</defs>
</svg>
