<svg width="180" height="24" viewBox="0 0 180 24" fill="none" xmlns="http://www.w3.org/2000/svg">
<path d="M48.5694 13.6577L45.3132 7.84693L42.0147 13.6577H48.5694ZM50.282 16.7083H40.3865L38.8729 19.3754H33.693L42.2197 4.65106H48.473L56.8127 19.3754H51.681L50.282 16.7083ZM57.9826 19.3754V4.65106H75.0061V7.9457H62.5715V10.5082H74.1855V13.4136H62.5715V16.0807H75.0061V19.3928L57.9826 19.3754ZM90.6363 9.15433C90.6347 8.87906 90.5708 8.60741 90.4491 8.3583C90.3859 8.24818 90.3001 8.15204 90.1963 8.07597C90.0918 7.9999 89.9732 7.9457 89.8461 7.91669C89.5075 7.79725 89.1511 7.73057 88.7907 7.71915C88.3686 7.69006 87.8078 7.67262 87.1205 7.67262H86.8249C86.7469 7.67262 86.6439 7.67262 86.523 7.67262C85.5347 7.71915 84.7023 7.74238 84.0268 7.74238C83.4815 7.73238 82.937 7.76929 82.3988 7.8528C82.0704 7.87625 81.7584 7.99817 81.5064 8.20143C81.2989 8.45008 81.1991 8.76669 81.2287 9.08464C81.2193 9.24746 81.2521 9.40997 81.3246 9.5573C81.398 9.70455 81.508 9.83174 81.6452 9.9272C81.9916 10.1231 82.3887 10.2217 82.7904 10.2119L84.7382 10.2584C85.3412 10.2584 85.9442 10.2584 86.4809 10.2584H87.4638C87.814 10.2584 88.1455 10.2584 88.4467 10.2584C89.7197 10.2584 90.8165 10.2933 91.7518 10.3688C92.5443 10.3933 93.3244 10.5732 94.0429 10.8976C94.6419 11.1822 95.1193 11.6588 95.3939 12.2457C95.7215 13.0535 95.869 13.9185 95.8276 14.7849C95.8401 15.4388 95.7637 16.0913 95.5991 16.7257C95.4766 17.2082 95.2325 17.6541 94.8884 18.024C94.5444 18.394 94.1115 18.6765 93.6271 18.8466C93.0451 19.0574 92.4367 19.1904 91.8181 19.2418C91.4078 19.2883 90.6121 19.3405 89.4061 19.3986C88.2001 19.4567 86.7227 19.4858 84.8895 19.4858C83.0564 19.4858 81.6148 19.4335 80.4689 19.3347C79.6093 19.3105 78.7684 19.083 78.0211 18.6723C77.6965 18.4608 77.4181 18.1904 77.2004 17.8763C77.0343 17.5842 76.9102 17.2713 76.833 16.9465C76.7706 16.605 76.7402 16.2589 76.7425 15.9122V14.6746H81.3434V15.1801C81.3426 15.349 81.3816 15.5159 81.458 15.6682C81.5633 15.8244 81.7061 15.9539 81.8738 16.0458C82.1632 16.168 82.4745 16.235 82.7904 16.2435C82.9901 16.2435 83.3575 16.2435 83.8879 16.2841C84.4192 16.3248 85.1243 16.2841 85.9504 16.2841C87.0238 16.2841 87.892 16.2841 88.5613 16.2841C89.1003 16.2867 89.6378 16.236 90.1659 16.133C90.467 16.091 90.7447 15.9493 90.9499 15.7321C91.1004 15.5016 91.1722 15.2313 91.1543 14.9593C91.1683 14.695 91.0965 14.4331 90.9499 14.2097C90.804 14.0123 90.5903 13.8721 90.3469 13.8146C90.0419 13.7196 89.7252 13.6669 89.4061 13.6577C89.0559 13.6577 88.6643 13.6577 88.236 13.6577C86.7406 13.6577 85.4122 13.6577 84.2499 13.6577C83.086 13.6577 82.079 13.6286 81.2349 13.5705C80.5017 13.5286 79.7731 13.4256 79.0578 13.2625C78.532 13.1425 78.0452 12.899 77.6412 12.5536C77.2691 12.2012 77.0007 11.7601 76.8627 11.2753C76.6926 10.6181 76.6162 9.94186 76.6341 9.26475C76.6232 8.62695 76.684 7.9899 76.8151 7.36467C76.929 6.88039 77.156 6.42741 77.4781 6.03982C77.7987 5.6653 78.2137 5.37704 78.6841 5.20308C79.2785 4.97223 79.9041 4.82355 80.5415 4.76147C81.0298 4.70335 81.8137 4.63944 82.8996 4.58133C83.9847 4.52322 85.3716 4.49417 87.0238 4.49417C87.892 4.49417 88.676 4.49417 89.3632 4.49417C89.9818 4.4901 90.5996 4.5192 91.2151 4.58133C91.705 4.62688 92.1894 4.71636 92.6621 4.84862C93.0498 4.93748 93.4157 5.10158 93.7355 5.33091C94.0405 5.53705 94.3057 5.79265 94.5195 6.0863C94.716 6.34562 94.8635 6.6369 94.9532 6.94629C95.0484 7.27867 95.1092 7.61933 95.1342 7.96314C95.1342 8.31185 95.1825 8.70114 95.1825 9.12531L90.6363 9.15433ZM102.141 11.3857C102.141 12.1353 102.141 12.7686 102.141 13.2858C102.159 13.7165 102.22 14.1445 102.322 14.5641C102.402 14.8562 102.56 15.1229 102.78 15.3369C103.035 15.531 103.332 15.6663 103.649 15.7321C104.109 15.8308 104.578 15.8834 105.048 15.889C105.615 15.889 106.296 15.889 107.086 15.889C108.694 15.889 109.933 15.8735 110.801 15.8425C111.478 15.8513 112.147 15.6997 112.749 15.4009C112.966 15.2688 113.148 15.0907 113.283 14.8802C113.418 14.6698 113.501 14.4325 113.527 14.1864C113.633 13.381 113.679 12.5693 113.665 11.7575C113.678 11.0849 113.631 10.4123 113.527 9.74702C113.492 9.33097 113.307 8.94002 113.002 8.64303C112.661 8.36973 112.239 8.20887 111.796 8.18399C111.089 8.11273 110.378 8.08168 109.668 8.091H105.772C104.997 8.06199 104.221 8.16023 103.48 8.38153C103.237 8.45 103.014 8.57087 102.827 8.73497C102.64 8.89913 102.494 9.10216 102.4 9.32871C102.191 9.99478 102.104 10.6908 102.141 11.3857ZM97.3956 13.4136C97.3956 12.019 97.3956 10.8162 97.4439 9.81678C97.4603 8.94694 97.607 8.08394 97.8784 7.25426C98.1054 6.60797 98.5251 6.04025 99.0844 5.62145C99.7779 5.15124 100.578 4.84834 101.418 4.73822C102.658 4.58671 103.907 4.52069 105.156 4.54065C106.969 4.50967 109.344 4.49417 112.278 4.49417C113.119 4.4818 113.96 4.56369 114.781 4.73822C115.418 4.87146 116.019 5.135 116.542 5.51105C117.039 5.85585 117.435 6.32076 117.687 6.85913C117.987 7.50221 118.18 8.18647 118.26 8.8871C118.328 9.42298 118.358 9.96268 118.351 10.5025C118.351 11.1648 118.351 11.9377 118.351 12.8267C118.364 13.743 118.296 14.6587 118.145 15.5636C118.039 16.221 117.797 16.8512 117.434 17.4172C117.097 17.9116 116.631 18.3122 116.084 18.5794C115.424 18.8911 114.722 19.1065 113.997 19.2185C113.01 19.3616 112.016 19.4432 111.018 19.4626C109.888 19.5052 108.568 19.5265 107.056 19.5265C105.344 19.5265 103.876 19.4742 102.654 19.3696C101.609 19.3271 100.582 19.08 99.639 18.6433C98.8676 18.238 98.2622 17.5927 97.9206 16.8129C97.5235 15.7223 97.3495 14.568 97.4081 13.4136H97.3956ZM124.905 4.65106V15.6914H135.422V19.3522H120.232V4.65106H124.905ZM151.155 13.6577L147.905 7.84693L144.6 13.6577H151.155ZM152.849 16.7083H142.99L141.476 19.3754H136.297L144.823 4.65106H151.101L159.428 19.3754H154.297L152.849 16.7083ZM165.38 12.0133H172.369C172.467 12.0029 172.566 12.0029 172.664 12.0133H172.966C173.394 12.0223 173.822 11.9931 174.245 11.9261C174.508 11.8944 174.756 11.7871 174.956 11.6181C175.13 11.4431 175.235 11.2148 175.252 10.9731C175.305 10.6387 175.329 10.3004 175.323 9.96208C175.337 9.6466 175.289 9.33157 175.185 9.03233C175.122 8.81269 174.976 8.62387 174.775 8.5036C174.534 8.35717 174.258 8.27313 173.973 8.25953C173.635 8.25953 173.213 8.213 172.713 8.213H165.38V12.0133ZM165.38 15.5927V19.3871H160.682V4.65106H174.89C175.692 4.63467 176.494 4.72262 177.271 4.91254C177.861 5.04193 178.405 5.3162 178.852 5.70861C179.278 6.09726 179.579 6.59532 179.72 7.14385C179.921 7.84941 180.015 8.57959 179.997 9.31128C180.017 10.0172 179.94 10.7225 179.768 11.4089C179.664 11.8589 179.444 12.2765 179.129 12.6234C178.851 12.916 178.506 13.1427 178.122 13.2858C177.706 13.4311 177.242 13.5763 176.723 13.7274L177.929 13.9657C178.285 14.014 178.624 14.1434 178.918 14.3433C179.221 14.5513 179.452 14.843 179.581 15.1801C179.775 15.6731 179.861 16.1992 179.835 16.7257V19.3754H175.107V17.4346C175.152 16.938 175.003 16.4431 174.691 16.0458C174.431 15.7321 173.901 15.581 173.086 15.581L165.38 15.5927Z" fill="#F60109"/>
<path fill-rule="evenodd" clip-rule="evenodd" d="M17.963 3.11243C19.3778 2.8644 20.7444 2.40292 22.0136 1.74462C20.7436 1.08822 19.3773 0.626857 17.963 0.37679C15.2871 -0.125597 12.5377 -0.125597 9.86187 0.37679C8.44845 0.624398 7.08341 1.08591 5.81618 1.74462C7.08312 2.40498 8.44814 2.86812 9.86187 3.11723C11.1959 3.3723 12.553 3.4961 13.9124 3.48679C15.2719 3.49185 16.6287 3.36647 17.963 3.11243ZM26.5203 6.6168C24.4914 7.3759 22.3763 7.89474 20.2205 8.16218C18.1369 8.47094 16.033 8.63128 13.9256 8.64215C11.8195 8.6504 9.7157 8.50926 7.6307 8.21977C5.47456 7.94379 3.35975 7.41853 1.33089 6.65519C3.35866 5.88651 5.47373 5.35799 7.6307 5.08099C11.8065 4.50507 16.0447 4.50507 20.2205 5.08099C22.3754 5.34782 24.4901 5.86337 26.5203 6.6168ZM27.8471 12.0034C25.6059 12.8589 23.268 13.4502 20.8829 13.7647C18.5779 14.0877 16.2521 14.2482 13.9236 14.2447C11.5932 14.253 9.26539 14.0925 6.95932 13.7647C4.57495 13.4547 2.23804 12.8632 0 12.0034C2.23783 11.1419 4.57474 10.5488 6.95932 10.2372C9.26539 9.90946 11.5932 9.74905 13.9236 9.7573C16.2521 9.75385 18.5779 9.91419 20.8829 10.2372C23.2682 10.5533 25.6061 11.1462 27.8471 12.0034ZM26.5203 17.3808C24.4914 18.1442 22.3766 18.6694 20.2205 18.9455C18.1352 19.2334 16.0317 19.3777 13.9256 19.3774C11.8195 19.3777 9.71601 19.2334 7.6307 18.9455C5.4741 18.6718 3.35902 18.1465 1.33089 17.3808C3.35918 16.6197 5.4745 16.1008 7.6307 15.8355C11.8065 15.2596 16.0447 15.2596 20.2205 15.8355C22.3763 16.1029 24.4914 16.6218 26.5203 17.3808ZM17.963 23.6255C19.3767 23.3731 20.7426 22.9118 22.0136 22.2576C20.744 21.5984 19.3778 21.1338 17.963 20.8803C16.6287 20.6262 15.2719 20.5009 13.9124 20.5059C12.553 20.4966 11.1959 20.6204 9.86187 20.8755C8.44814 21.1246 7.08312 21.5877 5.81618 22.2481C7.08341 22.9068 8.44845 23.3683 9.86187 23.6159C11.1955 23.8757 12.5524 24.0043 13.9124 23.9999C15.2718 24.0025 16.6283 23.8772 17.963 23.6255Z" fill="#F60109"/>
</svg>
