<svg width="24" height="24" viewBox="0 0 24 24" fill="none" xmlns="http://www.w3.org/2000/svg">
<g id="award-m">
<g id="vector">
<path fill-rule="evenodd" clip-rule="evenodd" d="M11.9996 6C10.3428 6 8.99964 7.34315 8.99964 9C8.99964 10.6569 10.3428 12 11.9996 12C13.6565 12 14.9996 10.6569 14.9996 9C14.9996 7.34315 13.6565 6 11.9996 6ZM10.9996 9C10.9996 8.44772 11.4474 8 11.9996 8C12.5519 8 12.9996 8.44772 12.9996 9C12.9996 9.55228 12.5519 10 11.9996 10C11.4474 10 10.9996 9.55228 10.9996 9Z" fill="white"/>
<path fill-rule="evenodd" clip-rule="evenodd" d="M11.9996 2C8.13365 2 4.99964 5.13401 4.99964 9C4.99964 10.063 5.23658 11.0706 5.66053 11.973L2.15771 18.0401L6.52922 18.4684L9.08592 22.0401L11.9977 16.9967L14.9095 22.0401L17.4662 18.4684L21.8377 18.0401L18.337 11.9767C18.7621 11.0734 18.9996 10.0644 18.9996 9C18.9996 5.13401 15.8656 2 11.9996 2ZM5.44158 16.3522L6.91109 13.807C7.83081 14.7802 9.02669 15.4897 10.3734 15.8101L8.90568 18.3522L7.62733 16.5664L5.44158 16.3522ZM17.0858 13.8095C16.1656 14.7823 14.9694 15.4912 13.6225 15.8109L15.0898 18.3522L16.3681 16.5664L18.5539 16.3522L17.0858 13.8095ZM6.99964 9C6.99964 6.23858 9.23822 4 11.9996 4C14.7611 4 16.9996 6.23858 16.9996 9C16.9996 11.7614 14.7611 14 11.9996 14C9.23822 14 6.99964 11.7614 6.99964 9Z" fill="white"/>
</g>
</g>
</svg>
