<svg width="201" height="120" viewBox="0 0 201 120" fill="none" xmlns="http://www.w3.org/2000/svg">
<g clip-path="url(#clip0_5974_59682)">
<g clip-path="url(#clip1_5974_59682)">
<path fill-rule="evenodd" clip-rule="evenodd" d="M42.5 17H158.5V183H42.5V17ZM41.5 16H42.5H158.5H159.5V17V183V184H158.5H42.5H41.5V183V17V16ZM46 20.5H155V99.5H141.5V99H131.5V99.5L105.5 99.5V99H95.5V99.5H69.5V99H59.5V99.5H46V20.5ZM131.5 100.5L105.5 100.5V101H95.5V100.5H69.5V101H59.5V100.5H46V179.5H155V100.5H141.5V101H131.5V100.5ZM155.5 100.5V99.5V20.5V20H155H46H45.5V20.5V99.5V100.5V179.5V180H46H155H155.5V179.5V100.5ZM48 88.5H63V96.5H48V88.5ZM47.5 88H48H63H63.5V88.5V96.5V97H63H48H47.5V96.5V88.5V88ZM81 88.5H66V96.5H81V88.5ZM66 88H65.5V88.5V96.5V97H66H81H81.5V96.5V88.5V88H81H66ZM84 88.5H99V96.5H84V88.5ZM83.5 88H84H99H99.5V88.5V96.5V97H99H84H83.5V96.5V88.5V88ZM117 88.5H102V96.5H117V88.5ZM102 88H101.5V88.5V96.5V97H102H117H117.5V96.5V88.5V88H117H102ZM120 88.5H135V96.5H120V88.5ZM119.5 88H120H135H135.5V88.5V96.5V97H135H120H119.5V96.5V88.5V88ZM153 88.5H138V96.5H153V88.5ZM138 88H137.5V88.5V96.5V97H138H153H153.5V96.5V88.5V88H153H138ZM48 77.5H63V85.5H48V77.5ZM47.5 77H48H63H63.5V77.5V85.5V86H63H48H47.5V85.5V77.5V77ZM81 77.5H66V85.5H81V77.5ZM66 77H65.5V77.5V85.5V86H66H81H81.5V85.5V77.5V77H81H66ZM84 77.5H99V85.5H84V77.5ZM83.5 77H84H99H99.5V77.5V85.5V86H99H84H83.5V85.5V77.5V77ZM117 77.5H102V85.5H117V77.5ZM102 77H101.5V77.5V85.5V86H102H117H117.5V85.5V77.5V77H117H102ZM120 77.5H135V85.5H120V77.5ZM119.5 77H120H135H135.5V77.5V85.5V86H135H120H119.5V85.5V77.5V77ZM153 77.5H138V85.5H153V77.5ZM138 77H137.5V77.5V85.5V86H138H153H153.5V85.5V77.5V77H153H138ZM48 66.5H63V74.5H48V66.5ZM47.5 66H48H63H63.5V66.5V74.5V75H63H48H47.5V74.5V66.5V66ZM81 66.5H66V74.5H81V66.5ZM66 66H65.5V66.5V74.5V75H66H81H81.5V74.5V66.5V66H81H66ZM84 66.5H99V74.5H84V66.5ZM83.5 66H84H99H99.5V66.5V74.5V75H99H84H83.5V74.5V66.5V66ZM117 66.5H102V74.5H117V66.5ZM102 66H101.5V66.5V74.5V75H102H117H117.5V74.5V66.5V66H117H102ZM120 66.5H135V74.5H120V66.5ZM119.5 66H120H135H135.5V66.5V74.5V75H135H120H119.5V74.5V66.5V66ZM153 66.5H138V74.5H153V66.5ZM138 66H137.5V66.5V74.5V75H138H153H153.5V74.5V66.5V66H153H138ZM48 55.5H63V63.5H48V55.5ZM47.5 55H48H63H63.5V55.5V63.5V64H63H48H47.5V63.5V55.5V55ZM81 55.5H66V63.5H81V55.5ZM66 55H65.5V55.5V63.5V64H66H81H81.5V63.5V55.5V55H81H66ZM84 55.5H99V63.5H84V55.5ZM83.5 55H84H99H99.5V55.5V63.5V64H99H84H83.5V63.5V55.5V55ZM117 55.5H102V63.5H117V55.5ZM102 55H101.5V55.5V63.5V64H102H117H117.5V63.5V55.5V55H117H102ZM120 55.5H135V63.5H120V55.5ZM119.5 55H120H135H135.5V55.5V63.5V64H135H120H119.5V63.5V55.5V55ZM153 55.5H138V63.5H153V55.5ZM138 55H137.5V55.5V63.5V64H138H153H153.5V63.5V55.5V55H153H138ZM48 44.5H63V52.5H48V44.5ZM47.5 44H48H63H63.5V44.5V52.5V53H63H48H47.5V52.5V44.5V44ZM81 44.5H66V52.5H81V44.5ZM66 44H65.5V44.5V52.5V53H66H81H81.5V52.5V44.5V44H81H66ZM84 44.5H99V52.5H84V44.5ZM83.5 44H84H99H99.5V44.5V52.5V53H99H84H83.5V52.5V44.5V44ZM117 44.5H102V52.5H117V44.5ZM102 44H101.5V44.5V52.5V53H102H117H117.5V52.5V44.5V44H117H102ZM120 44.5H135V52.5H120V44.5ZM119.5 44H120H135H135.5V44.5V52.5V53H135H120H119.5V52.5V44.5V44ZM153 44.5H138V52.5H153V44.5ZM138 44H137.5V44.5V52.5V53H138H153H153.5V52.5V44.5V44H153H138ZM48 33.5H63V41.5H48V33.5ZM47.5 33H48H63H63.5V33.5V41.5V42H63H48H47.5V41.5V33.5V33ZM81 33.5H66V41.5H81V33.5ZM66 33H65.5V33.5V41.5V42H66H81H81.5V41.5V33.5V33H81H66ZM84 33.5H99V41.5H84V33.5ZM83.5 33H84H99H99.5V33.5V41.5V42H99H84H83.5V41.5V33.5V33ZM117 33.5H102V41.5H117V33.5ZM102 33H101.5V33.5V41.5V42H102H117H117.5V41.5V33.5V33H117H102ZM120 33.5H135V41.5H120V33.5ZM119.5 33H120H135H135.5V33.5V41.5V42H135H120H119.5V41.5V33.5V33ZM153 33.5H138V41.5H153V33.5ZM138 33H137.5V33.5V41.5V42H138H153H153.5V41.5V33.5V33H153H138ZM48 22.5H63V30.5H48V22.5ZM47.5 22H48H63H63.5V22.5V30.5V31H63H48H47.5V30.5V22.5V22ZM81 22.5H66V30.5H81V22.5ZM66 22H65.5V22.5V30.5V31H66H81H81.5V30.5V22.5V22H81H66ZM84 22.5H99V30.5H84V22.5ZM83.5 22H84H99H99.5V22.5V30.5V31H99H84H83.5V30.5V22.5V22ZM117 22.5H102V30.5H117V22.5ZM102 22H101.5V22.5V30.5V31H102H117H117.5V30.5V22.5V22H117H102ZM120 22.5H135V30.5H120V22.5ZM119.5 22H120H135H135.5V22.5V30.5V31H135H120H119.5V30.5V22.5V22ZM153 22.5H138V30.5H153V22.5ZM138 22H137.5V22.5V30.5V31H138H153H153.5V30.5V22.5V22H153H138ZM48 169.5H63V177.5H48V169.5ZM47.5 169H48H63H63.5V169.5V177.5V178H63H48H47.5V177.5V169.5V169ZM81 169.5H66V177.5H81V169.5ZM66 169H65.5V169.5V177.5V178H66H81H81.5V177.5V169.5V169H81H66ZM84 169.5H99V177.5H84V169.5ZM83.5 169H84H99H99.5V169.5V177.5V178H99H84H83.5V177.5V169.5V169ZM117 169.5H102V177.5H117V169.5ZM102 169H101.5V169.5V177.5V178H102H117H117.5V177.5V169.5V169H117H102ZM120 169.5H135V177.5H120V169.5ZM119.5 169H120H135H135.5V169.5V177.5V178H135H120H119.5V177.5V169.5V169ZM153 169.5H138V177.5H153V169.5ZM138 169H137.5V169.5V177.5V178H138H153H153.5V177.5V169.5V169H153H138ZM48 158.5H63V166.5H48V158.5ZM47.5 158H48H63H63.5V158.5V166.5V167H63H48H47.5V166.5V158.5V158ZM81 158.5H66V166.5H81V158.5ZM66 158H65.5V158.5V166.5V167H66H81H81.5V166.5V158.5V158H81H66ZM84 158.5H99V166.5H84V158.5ZM83.5 158H84H99H99.5V158.5V166.5V167H99H84H83.5V166.5V158.5V158ZM117 158.5H102V166.5H117V158.5ZM102 158H101.5V158.5V166.5V167H102H117H117.5V166.5V158.5V158H117H102ZM120 158.5H135V166.5H120V158.5ZM119.5 158H120H135H135.5V158.5V166.5V167H135H120H119.5V166.5V158.5V158ZM153 158.5H138V166.5H153V158.5ZM138 158H137.5V158.5V166.5V167H138H153H153.5V166.5V158.5V158H153H138ZM48 147.5H63V155.5H48V147.5ZM47.5 147H48H63H63.5V147.5V155.5V156H63H48H47.5V155.5V147.5V147ZM81 147.5H66V155.5H81V147.5ZM66 147H65.5V147.5V155.5V156H66H81H81.5V155.5V147.5V147H81H66ZM84 147.5H99V155.5H84V147.5ZM83.5 147H84H99H99.5V147.5V155.5V156H99H84H83.5V155.5V147.5V147ZM117 147.5H102V155.5H117V147.5ZM102 147H101.5V147.5V155.5V156H102H117H117.5V155.5V147.5V147H117H102ZM120 147.5H135V155.5H120V147.5ZM119.5 147H120H135H135.5V147.5V155.5V156H135H120H119.5V155.5V147.5V147ZM153 147.5H138V155.5H153V147.5ZM138 147H137.5V147.5V155.5V156H138H153H153.5V155.5V147.5V147H153H138ZM48 136.5H63V144.5H48V136.5ZM47.5 136H48H63H63.5V136.5V144.5V145H63H48H47.5V144.5V136.5V136ZM81 136.5H66V144.5H81V136.5ZM66 136H65.5V136.5V144.5V145H66H81H81.5V144.5V136.5V136H81H66ZM84 136.5H99V144.5H84V136.5ZM83.5 136H84H99H99.5V136.5V144.5V145H99H84H83.5V144.5V136.5V136ZM117 136.5H102V144.5H117V136.5ZM102 136H101.5V136.5V144.5V145H102H117H117.5V144.5V136.5V136H117H102ZM120 136.5H135V144.5H120V136.5ZM119.5 136H120H135H135.5V136.5V144.5V145H135H120H119.5V144.5V136.5V136ZM153 136.5H138V144.5H153V136.5ZM138 136H137.5V136.5V144.5V145H138H153H153.5V144.5V136.5V136H153H138ZM48 125.5H63V133.5H48V125.5ZM47.5 125H48H63H63.5V125.5V133.5V134H63H48H47.5V133.5V125.5V125ZM81 125.5H66V133.5H81V125.5ZM66 125H65.5V125.5V133.5V134H66H81H81.5V133.5V125.5V125H81H66ZM84 125.5H99V133.5H84V125.5ZM83.5 125H84H99H99.5V125.5V133.5V134H99H84H83.5V133.5V125.5V125ZM117 125.5H102V133.5H117V125.5ZM102 125H101.5V125.5V133.5V134H102H117H117.5V133.5V125.5V125H117H102ZM120 125.5H135V133.5H120V125.5ZM119.5 125H120H135H135.5V125.5V133.5V134H135H120H119.5V133.5V125.5V125ZM153 125.5H138V133.5H153V125.5ZM138 125H137.5V125.5V133.5V134H138H153H153.5V133.5V125.5V125H153H138ZM48 114.5H63V122.5H48V114.5ZM47.5 114H48H63H63.5V114.5V122.5V123H63H48H47.5V122.5V114.5V114ZM81 114.5H66V122.5H81V114.5ZM66 114H65.5V114.5V122.5V123H66H81H81.5V122.5V114.5V114H81H66ZM84 114.5H99V122.5H84V114.5ZM83.5 114H84H99H99.5V114.5V122.5V123H99H84H83.5V122.5V114.5V114ZM117 114.5H102V122.5H117V114.5ZM102 114H101.5V114.5V122.5V123H102H117H117.5V122.5V114.5V114H117H102ZM120 114.5H135V122.5H120V114.5ZM119.5 114H120H135H135.5V114.5V122.5V123H135H120H119.5V122.5V114.5V114ZM153 114.5H138V122.5H153V114.5ZM138 114H137.5V114.5V122.5V123H138H153H153.5V122.5V114.5V114H153H138ZM48 103.5H63V111.5H48V103.5ZM47.5 103H48H63H63.5V103.5V111.5V112H63H48H47.5V111.5V103.5V103ZM81 103.5H66V111.5H81V103.5ZM66 103H65.5V103.5V111.5V112H66H81H81.5V111.5V103.5V103H81H66ZM84 103.5H99V111.5H84V103.5ZM83.5 103H84H99H99.5V103.5V111.5V112H99H84H83.5V111.5V103.5V103ZM117 103.5H102V111.5H117V103.5ZM102 103H101.5V103.5V111.5V112H102H117H117.5V111.5V103.5V103H117H102ZM120 103.5H135V111.5H120V103.5ZM119.5 103H120H135H135.5V103.5V111.5V112H135H120H119.5V111.5V103.5V103ZM153 103.5H138V111.5H153V103.5ZM138 103H137.5V103.5V111.5V112H138H153H153.5V111.5V103.5V103H153H138Z" fill="#2D2D2D"/>
<path fill-rule="evenodd" clip-rule="evenodd" d="M42.5 17H158.5V183H42.5V17ZM41.5 16H42.5H158.5H159.5V17V183V184H158.5H42.5H41.5V183V17V16ZM46 20.5H155V99.5H141.5V99H131.5V99.5L105.5 99.5V99H95.5V99.5H69.5V99H59.5V99.5H46V20.5ZM131.5 100.5L105.5 100.5V101H95.5V100.5H69.5V101H59.5V100.5H46V179.5H155V100.5H141.5V101H131.5V100.5ZM155.5 100.5V99.5V20.5V20H155H46H45.5V20.5V99.5V100.5V179.5V180H46H155H155.5V179.5V100.5ZM48 88.5H63V96.5H48V88.5ZM47.5 88H48H63H63.5V88.5V96.5V97H63H48H47.5V96.5V88.5V88ZM81 88.5H66V96.5H81V88.5ZM66 88H65.5V88.5V96.5V97H66H81H81.5V96.5V88.5V88H81H66ZM84 88.5H99V96.5H84V88.5ZM83.5 88H84H99H99.5V88.5V96.5V97H99H84H83.5V96.5V88.5V88ZM117 88.5H102V96.5H117V88.5ZM102 88H101.5V88.5V96.5V97H102H117H117.5V96.5V88.5V88H117H102ZM120 88.5H135V96.5H120V88.5ZM119.5 88H120H135H135.5V88.5V96.5V97H135H120H119.5V96.5V88.5V88ZM153 88.5H138V96.5H153V88.5ZM138 88H137.5V88.5V96.5V97H138H153H153.5V96.5V88.5V88H153H138ZM48 77.5H63V85.5H48V77.5ZM47.5 77H48H63H63.5V77.5V85.5V86H63H48H47.5V85.5V77.5V77ZM81 77.5H66V85.5H81V77.5ZM66 77H65.5V77.5V85.5V86H66H81H81.5V85.5V77.5V77H81H66ZM84 77.5H99V85.5H84V77.5ZM83.5 77H84H99H99.5V77.5V85.5V86H99H84H83.5V85.5V77.5V77ZM117 77.5H102V85.5H117V77.5ZM102 77H101.5V77.5V85.5V86H102H117H117.5V85.5V77.5V77H117H102ZM120 77.5H135V85.5H120V77.5ZM119.5 77H120H135H135.5V77.5V85.5V86H135H120H119.5V85.5V77.5V77ZM153 77.5H138V85.5H153V77.5ZM138 77H137.5V77.5V85.5V86H138H153H153.5V85.5V77.5V77H153H138ZM48 66.5H63V74.5H48V66.5ZM47.5 66H48H63H63.5V66.5V74.5V75H63H48H47.5V74.5V66.5V66ZM81 66.5H66V74.5H81V66.5ZM66 66H65.5V66.5V74.5V75H66H81H81.5V74.5V66.5V66H81H66ZM84 66.5H99V74.5H84V66.5ZM83.5 66H84H99H99.5V66.5V74.5V75H99H84H83.5V74.5V66.5V66ZM117 66.5H102V74.5H117V66.5ZM102 66H101.5V66.5V74.5V75H102H117H117.5V74.5V66.5V66H117H102ZM120 66.5H135V74.5H120V66.5ZM119.5 66H120H135H135.5V66.5V74.5V75H135H120H119.5V74.5V66.5V66ZM153 66.5H138V74.5H153V66.5ZM138 66H137.5V66.5V74.5V75H138H153H153.5V74.5V66.5V66H153H138ZM48 55.5H63V63.5H48V55.5ZM47.5 55H48H63H63.5V55.5V63.5V64H63H48H47.5V63.5V55.5V55ZM81 55.5H66V63.5H81V55.5ZM66 55H65.5V55.5V63.5V64H66H81H81.5V63.5V55.5V55H81H66ZM84 55.5H99V63.5H84V55.5ZM83.5 55H84H99H99.5V55.5V63.5V64H99H84H83.5V63.5V55.5V55ZM117 55.5H102V63.5H117V55.5ZM102 55H101.5V55.5V63.5V64H102H117H117.5V63.5V55.5V55H117H102ZM120 55.5H135V63.5H120V55.5ZM119.5 55H120H135H135.5V55.5V63.5V64H135H120H119.5V63.5V55.5V55ZM153 55.5H138V63.5H153V55.5ZM138 55H137.5V55.5V63.5V64H138H153H153.5V63.5V55.5V55H153H138ZM48 44.5H63V52.5H48V44.5ZM47.5 44H48H63H63.5V44.5V52.5V53H63H48H47.5V52.5V44.5V44ZM81 44.5H66V52.5H81V44.5ZM66 44H65.5V44.5V52.5V53H66H81H81.5V52.5V44.5V44H81H66ZM84 44.5H99V52.5H84V44.5ZM83.5 44H84H99H99.5V44.5V52.5V53H99H84H83.5V52.5V44.5V44ZM117 44.5H102V52.5H117V44.5ZM102 44H101.5V44.5V52.5V53H102H117H117.5V52.5V44.5V44H117H102ZM120 44.5H135V52.5H120V44.5ZM119.5 44H120H135H135.5V44.5V52.5V53H135H120H119.5V52.5V44.5V44ZM153 44.5H138V52.5H153V44.5ZM138 44H137.5V44.5V52.5V53H138H153H153.5V52.5V44.5V44H153H138ZM48 33.5H63V41.5H48V33.5ZM47.5 33H48H63H63.5V33.5V41.5V42H63H48H47.5V41.5V33.5V33ZM81 33.5H66V41.5H81V33.5ZM66 33H65.5V33.5V41.5V42H66H81H81.5V41.5V33.5V33H81H66ZM84 33.5H99V41.5H84V33.5ZM83.5 33H84H99H99.5V33.5V41.5V42H99H84H83.5V41.5V33.5V33ZM117 33.5H102V41.5H117V33.5ZM102 33H101.5V33.5V41.5V42H102H117H117.5V41.5V33.5V33H117H102ZM120 33.5H135V41.5H120V33.5ZM119.5 33H120H135H135.5V33.5V41.5V42H135H120H119.5V41.5V33.5V33ZM153 33.5H138V41.5H153V33.5ZM138 33H137.5V33.5V41.5V42H138H153H153.5V41.5V33.5V33H153H138ZM48 22.5H63V30.5H48V22.5ZM47.5 22H48H63H63.5V22.5V30.5V31H63H48H47.5V30.5V22.5V22ZM81 22.5H66V30.5H81V22.5ZM66 22H65.5V22.5V30.5V31H66H81H81.5V30.5V22.5V22H81H66ZM84 22.5H99V30.5H84V22.5ZM83.5 22H84H99H99.5V22.5V30.5V31H99H84H83.5V30.5V22.5V22ZM117 22.5H102V30.5H117V22.5ZM102 22H101.5V22.5V30.5V31H102H117H117.5V30.5V22.5V22H117H102ZM120 22.5H135V30.5H120V22.5ZM119.5 22H120H135H135.5V22.5V30.5V31H135H120H119.5V30.5V22.5V22ZM153 22.5H138V30.5H153V22.5ZM138 22H137.5V22.5V30.5V31H138H153H153.5V30.5V22.5V22H153H138ZM48 169.5H63V177.5H48V169.5ZM47.5 169H48H63H63.5V169.5V177.5V178H63H48H47.5V177.5V169.5V169ZM81 169.5H66V177.5H81V169.5ZM66 169H65.5V169.5V177.5V178H66H81H81.5V177.5V169.5V169H81H66ZM84 169.5H99V177.5H84V169.5ZM83.5 169H84H99H99.5V169.5V177.5V178H99H84H83.5V177.5V169.5V169ZM117 169.5H102V177.5H117V169.5ZM102 169H101.5V169.5V177.5V178H102H117H117.5V177.5V169.5V169H117H102ZM120 169.5H135V177.5H120V169.5ZM119.5 169H120H135H135.5V169.5V177.5V178H135H120H119.5V177.5V169.5V169ZM153 169.5H138V177.5H153V169.5ZM138 169H137.5V169.5V177.5V178H138H153H153.5V177.5V169.5V169H153H138ZM48 158.5H63V166.5H48V158.5ZM47.5 158H48H63H63.5V158.5V166.5V167H63H48H47.5V166.5V158.5V158ZM81 158.5H66V166.5H81V158.5ZM66 158H65.5V158.5V166.5V167H66H81H81.5V166.5V158.5V158H81H66ZM84 158.5H99V166.5H84V158.5ZM83.5 158H84H99H99.5V158.5V166.5V167H99H84H83.5V166.5V158.5V158ZM117 158.5H102V166.5H117V158.5ZM102 158H101.5V158.5V166.5V167H102H117H117.5V166.5V158.5V158H117H102ZM120 158.5H135V166.5H120V158.5ZM119.5 158H120H135H135.5V158.5V166.5V167H135H120H119.5V166.5V158.5V158ZM153 158.5H138V166.5H153V158.5ZM138 158H137.5V158.5V166.5V167H138H153H153.5V166.5V158.5V158H153H138ZM48 147.5H63V155.5H48V147.5ZM47.5 147H48H63H63.5V147.5V155.5V156H63H48H47.5V155.5V147.5V147ZM81 147.5H66V155.5H81V147.5ZM66 147H65.5V147.5V155.5V156H66H81H81.5V155.5V147.5V147H81H66ZM84 147.5H99V155.5H84V147.5ZM83.5 147H84H99H99.5V147.5V155.5V156H99H84H83.5V155.5V147.5V147ZM117 147.5H102V155.5H117V147.5ZM102 147H101.5V147.5V155.5V156H102H117H117.5V155.5V147.5V147H117H102ZM120 147.5H135V155.5H120V147.5ZM119.5 147H120H135H135.5V147.5V155.5V156H135H120H119.5V155.5V147.5V147ZM153 147.5H138V155.5H153V147.5ZM138 147H137.5V147.5V155.5V156H138H153H153.5V155.5V147.5V147H153H138ZM48 136.5H63V144.5H48V136.5ZM47.5 136H48H63H63.5V136.5V144.5V145H63H48H47.5V144.5V136.5V136ZM81 136.5H66V144.5H81V136.5ZM66 136H65.5V136.5V144.5V145H66H81H81.5V144.5V136.5V136H81H66ZM84 136.5H99V144.5H84V136.5ZM83.5 136H84H99H99.5V136.5V144.5V145H99H84H83.5V144.5V136.5V136ZM117 136.5H102V144.5H117V136.5ZM102 136H101.5V136.5V144.5V145H102H117H117.5V144.5V136.5V136H117H102ZM120 136.5H135V144.5H120V136.5ZM119.5 136H120H135H135.5V136.5V144.5V145H135H120H119.5V144.5V136.5V136ZM153 136.5H138V144.5H153V136.5ZM138 136H137.5V136.5V144.5V145H138H153H153.5V144.5V136.5V136H153H138ZM48 125.5H63V133.5H48V125.5ZM47.5 125H48H63H63.5V125.5V133.5V134H63H48H47.5V133.5V125.5V125ZM81 125.5H66V133.5H81V125.5ZM66 125H65.5V125.5V133.5V134H66H81H81.5V133.5V125.5V125H81H66ZM84 125.5H99V133.5H84V125.5ZM83.5 125H84H99H99.5V125.5V133.5V134H99H84H83.5V133.5V125.5V125ZM117 125.5H102V133.5H117V125.5ZM102 125H101.5V125.5V133.5V134H102H117H117.5V133.5V125.5V125H117H102ZM120 125.5H135V133.5H120V125.5ZM119.5 125H120H135H135.5V125.5V133.5V134H135H120H119.5V133.5V125.5V125ZM153 125.5H138V133.5H153V125.5ZM138 125H137.5V125.5V133.5V134H138H153H153.5V133.5V125.5V125H153H138ZM48 114.5H63V122.5H48V114.5ZM47.5 114H48H63H63.5V114.5V122.5V123H63H48H47.5V122.5V114.5V114ZM81 114.5H66V122.5H81V114.5ZM66 114H65.5V114.5V122.5V123H66H81H81.5V122.5V114.5V114H81H66ZM84 114.5H99V122.5H84V114.5ZM83.5 114H84H99H99.5V114.5V122.5V123H99H84H83.5V122.5V114.5V114ZM117 114.5H102V122.5H117V114.5ZM102 114H101.5V114.5V122.5V123H102H117H117.5V122.5V114.5V114H117H102ZM120 114.5H135V122.5H120V114.5ZM119.5 114H120H135H135.5V114.5V122.5V123H135H120H119.5V122.5V114.5V114ZM153 114.5H138V122.5H153V114.5ZM138 114H137.5V114.5V122.5V123H138H153H153.5V122.5V114.5V114H153H138ZM48 103.5H63V111.5H48V103.5ZM47.5 103H48H63H63.5V103.5V111.5V112H63H48H47.5V111.5V103.5V103ZM81 103.5H66V111.5H81V103.5ZM66 103H65.5V103.5V111.5V112H66H81H81.5V111.5V103.5V103H81H66ZM84 103.5H99V111.5H84V103.5ZM83.5 103H84H99H99.5V103.5V111.5V112H99H84H83.5V111.5V103.5V103ZM117 103.5H102V111.5H117V103.5ZM102 103H101.5V103.5V111.5V112H102H117H117.5V111.5V103.5V103H117H102ZM120 103.5H135V111.5H120V103.5ZM119.5 103H120H135H135.5V103.5V111.5V112H135H120H119.5V111.5V103.5V103ZM153 103.5H138V111.5H153V103.5ZM138 103H137.5V103.5V111.5V112H138H153H153.5V111.5V103.5V103H153H138Z" fill="url(#paint0_linear_5974_59682)"/>
</g>
<mask id="path-2-outside-1_5974_59682" maskUnits="userSpaceOnUse" x="78.0855" y="77.5858" width="53.033" height="53.033" fill="black">
<rect fill="white" x="78.0855" y="77.5858" width="53.033" height="53.033"/>
<path fill-rule="evenodd" clip-rule="evenodd" d="M109.905 109.406C104.828 114.482 96.5973 114.482 91.5205 109.406C86.4437 104.329 86.4437 96.0976 91.5205 91.0208C96.5973 85.944 104.828 85.944 109.905 91.0208C114.982 96.0976 114.982 104.329 109.905 109.406ZM111.319 110.82C105.462 116.678 95.9642 116.678 90.1063 110.82C84.2484 104.962 84.2484 95.4645 90.1063 89.6066C95.9642 83.7487 105.462 83.7487 111.319 89.6066C117.177 95.4645 117.177 104.962 111.319 110.82ZM111.319 110.82L112.027 110.113L118.744 116.83C119.135 117.221 119.135 117.854 118.744 118.244C118.354 118.635 117.72 118.635 117.33 118.244L110.612 111.527L111.319 110.82Z"/>
</mask>
<path fill-rule="evenodd" clip-rule="evenodd" d="M109.905 109.406C104.828 114.482 96.5973 114.482 91.5205 109.406C86.4437 104.329 86.4437 96.0976 91.5205 91.0208C96.5973 85.944 104.828 85.944 109.905 91.0208C114.982 96.0976 114.982 104.329 109.905 109.406ZM111.319 110.82C105.462 116.678 95.9642 116.678 90.1063 110.82C84.2484 104.962 84.2484 95.4645 90.1063 89.6066C95.9642 83.7487 105.462 83.7487 111.319 89.6066C117.177 95.4645 117.177 104.962 111.319 110.82ZM111.319 110.82L112.027 110.113L118.744 116.83C119.135 117.221 119.135 117.854 118.744 118.244C118.354 118.635 117.72 118.635 117.33 118.244L110.612 111.527L111.319 110.82Z" fill="#2D2D2D"/>
<path d="M112.027 110.113L112.734 109.406L112.027 108.698L111.319 109.406L112.027 110.113ZM110.612 111.527L109.905 110.82L109.198 111.527L109.905 112.234L110.612 111.527ZM90.8134 110.113C96.2807 115.58 105.145 115.58 110.612 110.113L109.198 108.698C104.512 113.385 96.9139 113.385 92.2276 108.698L90.8134 110.113ZM90.8134 90.3137C85.3461 95.781 85.3461 104.645 90.8134 110.113L92.2276 108.698C87.5413 104.012 87.5413 96.4142 92.2276 91.7279L90.8134 90.3137ZM110.612 90.3137C105.145 84.8464 96.2807 84.8464 90.8134 90.3137L92.2276 91.7279C96.9139 87.0416 104.512 87.0416 109.198 91.7279L110.612 90.3137ZM110.612 110.113C116.08 104.645 116.08 95.781 110.612 90.3137L109.198 91.7279C113.884 96.4142 113.884 104.012 109.198 108.698L110.612 110.113ZM89.3992 111.527C95.6476 117.775 105.778 117.775 112.027 111.527L110.612 110.113C105.145 115.58 96.2807 115.58 90.8134 110.113L89.3992 111.527ZM89.3992 88.8995C83.1508 95.1479 83.1508 105.279 89.3992 111.527L90.8134 110.113C85.3461 104.645 85.3461 95.781 90.8134 90.3137L89.3992 88.8995ZM112.027 88.8995C105.778 82.6511 95.6476 82.6511 89.3992 88.8995L90.8134 90.3137C96.2807 84.8464 105.145 84.8464 110.612 90.3137L112.027 88.8995ZM112.027 111.527C118.275 105.279 118.275 95.1479 112.027 88.8995L110.612 90.3137C116.08 95.781 116.08 104.645 110.612 110.113L112.027 111.527ZM112.027 111.527L112.734 110.82L111.319 109.406L110.612 110.113L112.027 111.527ZM111.319 110.82L118.037 117.537L119.451 116.123L112.734 109.406L111.319 110.82ZM118.037 117.537L119.451 118.952C120.232 118.17 120.232 116.904 119.451 116.123L118.037 117.537ZM118.037 117.537L116.623 118.952C117.404 119.733 118.67 119.733 119.451 118.952L118.037 117.537ZM118.037 117.537L111.319 110.82L109.905 112.234L116.623 118.952L118.037 117.537ZM111.319 112.234L112.027 111.527L110.612 110.113L109.905 110.82L111.319 112.234Z" fill="black" mask="url(#path-2-outside-1_5974_59682)"/>
</g>
<defs>
<linearGradient id="paint0_linear_5974_59682" x1="101.5" y1="67.5" x2="101.5" y2="120" gradientUnits="userSpaceOnUse">
<stop stop-opacity="0"/>
<stop offset="1"/>
</linearGradient>
<clipPath id="clip0_5974_59682">
<rect width="200" height="120" fill="white" transform="translate(0.5)"/>
</clipPath>
<clipPath id="clip1_5974_59682">
<rect width="118" height="104" fill="white" transform="translate(41.5 16)"/>
</clipPath>
</defs>
</svg>
