<svg width="24" height="24" viewBox="0 0 24 24" fill="none" xmlns="http://www.w3.org/2000/svg">
<path d="M10.8622 15.4122L16.7642 9.52707L15.352 8.11084L10.8622 12.5879L8.64798 10.38L7.23579 11.7962L10.8622 15.4122Z" fill="white"/>
<path fill-rule="evenodd" clip-rule="evenodd" d="M15.6362 3.47047L12 1.91211L8.36382 3.47047L4 2.84707V11.8999C4 15.4121 5.88897 18.6528 8.94502 20.3837L12.0669 22.1518L15.1201 20.3914C18.1395 18.6505 20 15.4302 20 11.9449V2.84707L15.6362 3.47047ZM8.63618 5.52968L12 4.08804L15.3638 5.52968L18 5.15309V11.9449C18 14.7153 16.5212 17.275 14.1211 18.6588L12.0581 19.8483L9.93066 18.6434C7.50149 17.2676 6 14.6916 6 11.8999V5.15309L8.63618 5.52968Z" fill="white"/>
</svg>
