<svg width="16" height="16" viewBox="0 0 16 16" fill="none" xmlns="http://www.w3.org/2000/svg">
<path d="M7.9987 12.8C6.33203 12.8 4.8587 11.9466 3.9987 10.6666C4.0187 9.33331 6.66536 8.59998 7.9987 8.59998C9.33203 8.59998 11.9787 9.33331 11.9987 10.6666C11.558 11.3229 10.9626 11.8607 10.2651 12.2328C9.56754 12.6048 8.78923 12.7996 7.9987 12.8ZM7.9987 3.33331C8.52913 3.33331 9.03784 3.54403 9.41291 3.9191C9.78798 4.29417 9.9987 4.80288 9.9987 5.33331C9.9987 5.86375 9.78798 6.37245 9.41291 6.74753C9.03784 7.1226 8.52913 7.33331 7.9987 7.33331C7.46827 7.33331 6.95956 7.1226 6.58448 6.74753C6.20941 6.37245 5.9987 5.86375 5.9987 5.33331C5.9987 4.80288 6.20941 4.29417 6.58448 3.9191C6.95956 3.54403 7.46827 3.33331 7.9987 3.33331ZM7.9987 1.33331C7.12322 1.33331 6.25631 1.50575 5.44747 1.84078C4.63864 2.17581 3.90371 2.66688 3.28465 3.28593C2.03441 4.53618 1.33203 6.23187 1.33203 7.99998C1.33203 9.76809 2.03441 11.4638 3.28465 12.714C3.90371 13.3331 4.63864 13.8241 5.44747 14.1592C6.25631 14.4942 7.12322 14.6666 7.9987 14.6666C9.76681 14.6666 11.4625 13.9643 12.7127 12.714C13.963 11.4638 14.6654 9.76809 14.6654 7.99998C14.6654 4.31331 11.6654 1.33331 7.9987 1.33331Z" fill="#505050"/>
</svg>
