<svg width="16" height="16" viewBox="0 0 16 16" fill="none" xmlns="http://www.w3.org/2000/svg">
<path d="M12.6667 12.6667H3.33333V5.33335H12.6667M10.6667 0.666687V2.00002H5.33333V0.666687H4V2.00002H3.33333C2.59333 2.00002 2 2.59335 2 3.33335V12.6667C2 13.0203 2.14048 13.3594 2.39052 13.6095C2.64057 13.8595 2.97971 14 3.33333 14H12.6667C13.0203 14 13.3594 13.8595 13.6095 13.6095C13.8595 13.3594 14 13.0203 14 12.6667V3.33335C14 2.97973 13.8595 2.64059 13.6095 2.39054C13.3594 2.1405 13.0203 2.00002 12.6667 2.00002H12V0.666687M11.3333 8.00002H8V11.3334H11.3333V8.00002Z" fill="#505050"/>
</svg>
