<svg width="16" height="16" viewBox="0 0 16 16" fill="none" xmlns="http://www.w3.org/2000/svg">
<path d="M7.9987 14.6667C4.31688 14.6667 1.33203 11.6819 1.33203 8.00004C1.33203 4.31822 4.31688 1.33337 7.9987 1.33337C11.6805 1.33337 14.6654 4.31822 14.6654 8.00004C14.6654 11.6819 11.6805 14.6667 7.9987 14.6667ZM8.60476 4.66671C8.60476 4.33199 8.33342 4.06065 7.9987 4.06065C7.66398 4.06065 7.39264 4.33199 7.39264 4.66671V7.83674C7.39264 8.10195 7.49799 8.35631 7.68553 8.54384L9.3884 10.2467C9.62504 10.4834 10.0087 10.4834 10.2454 10.2467C10.482 10.0101 10.482 9.62638 10.2454 9.38974L8.89765 8.04203C8.71012 7.85449 8.60476 7.60014 8.60476 7.33492V4.66671Z" fill="#505050"/>
</svg>
